<svg width="324" height="44" viewBox="0 0 324 44" fill="none" xmlns="http://www.w3.org/2000/svg">
<g clip-path="url(#clip0_14497_44788)">
<path d="M3.65991 0H4.33991L4.36991 7.42C4.36991 7.59333 4.28657 7.67667 4.11991 7.67L3.74991 7.66C3.58324 7.66 3.50324 7.57667 3.50991 7.41L3.65991 0Z" fill="white" fill-opacity="0.15"/>
<path d="M51.6699 0H52.3399L52.3699 7.42C52.3699 7.4863 52.3436 7.54989 52.2967 7.59678C52.2498 7.64366 52.1862 7.67 52.1199 7.67L51.7599 7.66C51.5932 7.66 51.5132 7.57667 51.5199 7.41L51.6699 0Z" fill="white" fill-opacity="0.15"/>
<path d="M99.6699 0H100.34L100.37 7.42C100.37 7.59333 100.287 7.67667 100.12 7.67L99.7599 7.66C99.5933 7.66 99.5132 7.57667 99.5199 7.41L99.6699 0Z" fill="white" fill-opacity="0.15"/>
<path d="M147.67 0H148.34L148.37 7.42C148.37 7.59333 148.287 7.67667 148.12 7.67L147.76 7.66C147.593 7.66 147.513 7.57667 147.52 7.41L147.67 0Z" fill="white" fill-opacity="0.15"/>
<path d="M195.67 0H196.34L196.37 7.51C196.37 7.61 196.32 7.66667 196.22 7.68L195.81 7.73C195.61 7.75667 195.513 7.67 195.52 7.47L195.67 0Z" fill="white" fill-opacity="0.15"/>
<path d="M243.67 0H244.34L244.37 7.51C244.37 7.61 244.32 7.66667 244.22 7.68L243.81 7.73C243.61 7.75667 243.513 7.67 243.52 7.47L243.67 0Z" fill="white" fill-opacity="0.15"/>
<path d="M291.67 0H292.35L292.37 7.42C292.37 7.58667 292.287 7.67 292.12 7.67L291.76 7.66C291.593 7.66 291.513 7.57667 291.52 7.41L291.67 0Z" fill="white" fill-opacity="0.15"/>
<path d="M41.9517 0.460235L41.9173 0.480536C41.7364 0.587052 41.6762 0.819991 41.7827 1.00082L45.508 7.32518C45.6146 7.50601 45.8475 7.56625 46.0283 7.45973L46.0628 7.43943C46.2436 7.33292 46.3039 7.09998 46.1973 6.91915L42.472 0.594789C42.3655 0.413961 42.1326 0.353719 41.9517 0.460235Z" fill="white" fill-opacity="0.15"/>
<path d="M89.9517 0.460235L89.9173 0.480536C89.7364 0.587052 89.6762 0.819991 89.7827 1.00082L93.508 7.32518C93.6146 7.50601 93.8475 7.56625 94.0283 7.45973L94.0628 7.43943C94.2436 7.33292 94.3039 7.09998 94.1973 6.91915L90.472 0.594789C90.3655 0.413961 90.1326 0.353719 89.9517 0.460235Z" fill="white" fill-opacity="0.15"/>
<path d="M137.952 0.460235L137.917 0.480536C137.736 0.587052 137.676 0.819991 137.783 1.00082L141.508 7.32518C141.615 7.50601 141.847 7.56625 142.028 7.45973L142.063 7.43943C142.244 7.33292 142.304 7.09998 142.197 6.91915L138.472 0.594789C138.365 0.413961 138.133 0.353719 137.952 0.460235Z" fill="white" fill-opacity="0.15"/>
<path d="M185.952 0.460235L185.917 0.480536C185.736 0.587052 185.676 0.819991 185.783 1.00082L189.508 7.32518C189.615 7.50601 189.847 7.56625 190.028 7.45973L190.063 7.43943C190.244 7.33292 190.304 7.09998 190.197 6.91915L186.472 0.594789C186.365 0.413961 186.133 0.353719 185.952 0.460235Z" fill="white" fill-opacity="0.15"/>
<path d="M233.952 0.460235L233.917 0.480536C233.736 0.587052 233.676 0.819991 233.783 1.00082L237.508 7.32518C237.615 7.50601 237.847 7.56625 238.028 7.45973L238.063 7.43943C238.244 7.33292 238.304 7.09998 238.197 6.91915L234.472 0.594789C234.365 0.413961 234.133 0.353719 233.952 0.460235Z" fill="white" fill-opacity="0.15"/>
<path d="M281.952 0.460235L281.917 0.480536C281.736 0.587052 281.676 0.819991 281.783 1.00082L285.508 7.32518C285.615 7.50601 285.847 7.56625 286.028 7.45973L286.063 7.43943C286.244 7.33292 286.304 7.09998 286.197 6.91915L282.472 0.594789C282.365 0.413961 282.133 0.353719 281.952 0.460235Z" fill="white" fill-opacity="0.15"/>
<path d="M13.9969 0.513642L13.9621 0.493945C13.7794 0.390601 13.5476 0.454899 13.4442 0.637559L9.83969 7.00856C9.73634 7.19122 9.80064 7.42307 9.9833 7.52642L10.0181 7.54612C10.2008 7.64946 10.4326 7.58516 10.536 7.4025L14.1405 1.0315C14.2439 0.848838 14.1796 0.616986 13.9969 0.513642Z" fill="white" fill-opacity="0.15"/>
<path d="M61.9969 0.513642L61.9621 0.493945C61.7794 0.390601 61.5476 0.454899 61.4442 0.637559L57.8397 7.00856C57.7363 7.19122 57.8006 7.42307 57.9833 7.52642L58.0181 7.54612C58.2008 7.64946 58.4326 7.58516 58.536 7.4025L62.1405 1.0315C62.2439 0.848838 62.1796 0.616986 61.9969 0.513642Z" fill="white" fill-opacity="0.15"/>
<path d="M109.997 0.513642L109.962 0.493945C109.779 0.390601 109.548 0.454899 109.444 0.637559L105.84 7.00856C105.736 7.19122 105.801 7.42307 105.983 7.52642L106.018 7.54612C106.201 7.64946 106.433 7.58516 106.536 7.4025L110.141 1.0315C110.244 0.848838 110.18 0.616986 109.997 0.513642Z" fill="white" fill-opacity="0.15"/>
<path d="M157.997 0.513642L157.962 0.493945C157.779 0.390601 157.548 0.454899 157.444 0.637559L153.84 7.00856C153.736 7.19122 153.801 7.42307 153.983 7.52642L154.018 7.54612C154.201 7.64946 154.433 7.58516 154.536 7.4025L158.141 1.0315C158.244 0.848838 158.18 0.616986 157.997 0.513642Z" fill="white" fill-opacity="0.15"/>
<path d="M205.997 0.513642L205.962 0.493945C205.779 0.390601 205.548 0.454899 205.444 0.637559L201.84 7.00856C201.736 7.19122 201.801 7.42307 201.983 7.52642L202.018 7.54612C202.201 7.64946 202.433 7.58516 202.536 7.4025L206.141 1.0315C206.244 0.848838 206.18 0.616986 205.997 0.513642Z" fill="white" fill-opacity="0.15"/>
<path d="M253.997 0.513642L253.962 0.493945C253.779 0.390601 253.548 0.454899 253.444 0.637559L249.84 7.00856C249.736 7.19122 249.801 7.42307 249.983 7.52642L250.018 7.54612C250.201 7.64946 250.433 7.58516 250.536 7.4025L254.141 1.0315C254.244 0.848838 254.18 0.616986 253.997 0.513642Z" fill="white" fill-opacity="0.15"/>
<path d="M301.997 0.513642L301.962 0.493945C301.779 0.390601 301.548 0.454899 301.444 0.637559L297.84 7.00856C297.736 7.19122 297.801 7.42307 297.983 7.52642L298.018 7.54612C298.201 7.64946 298.433 7.58516 298.536 7.4025L302.141 1.0315C302.244 0.848838 302.18 0.616986 301.997 0.513642Z" fill="white" fill-opacity="0.15"/>
<path d="M22.8994 1.82279L16.6332 5.52861C16.4526 5.63544 16.3928 5.86849 16.4996 6.04913L16.5199 6.08356C16.6268 6.2642 16.8598 6.32404 17.0405 6.2172L23.3067 2.51138C23.4873 2.40455 23.5471 2.17151 23.4403 1.99086L23.42 1.95643C23.3131 1.77579 23.0801 1.71596 22.8994 1.82279Z" fill="white" fill-opacity="0.15"/>
<path d="M39.4486 5.41991L33.1612 1.78991C32.9747 1.68221 32.7362 1.74613 32.6285 1.93266L32.6085 1.9673C32.5008 2.15383 32.5647 2.39235 32.7512 2.50005L39.0386 6.13005C39.2251 6.23775 39.4636 6.17383 39.5713 5.9873L39.5913 5.95266C39.699 5.76613 39.6351 5.52761 39.4486 5.41991Z" fill="white" fill-opacity="0.15"/>
<path d="M70.8994 1.82279L64.6332 5.52861C64.4526 5.63544 64.3928 5.86849 64.4996 6.04913L64.5199 6.08356C64.6268 6.2642 64.8598 6.32404 65.0405 6.2172L71.3067 2.51138C71.4873 2.40455 71.5471 2.17151 71.4403 1.99086L71.42 1.95643C71.3131 1.77579 71.0801 1.71596 70.8994 1.82279Z" fill="white" fill-opacity="0.15"/>
<path d="M87.4598 5.41906L81.1488 1.79007C80.9668 1.68546 80.7345 1.74813 80.6299 1.93007L80.6 1.98208C80.4954 2.16402 80.5581 2.39631 80.74 2.50093L87.051 6.12992C87.2329 6.23454 87.4652 6.17186 87.5699 5.98992L87.5998 5.93791C87.7044 5.75598 87.6417 5.52368 87.4598 5.41906Z" fill="white" fill-opacity="0.15"/>
<path d="M118.899 1.82279L112.633 5.52861C112.453 5.63544 112.393 5.86849 112.5 6.04913L112.52 6.08356C112.627 6.2642 112.86 6.32404 113.04 6.2172L119.307 2.51138C119.487 2.40455 119.547 2.17151 119.44 1.99086L119.42 1.95643C119.313 1.77579 119.08 1.71596 118.899 1.82279Z" fill="white" fill-opacity="0.15"/>
<path d="M135.46 5.41906L129.149 1.79007C128.967 1.68546 128.735 1.74813 128.63 1.93007L128.6 1.98208C128.495 2.16402 128.558 2.39631 128.74 2.50093L135.051 6.12992C135.233 6.23454 135.465 6.17186 135.57 5.98992L135.6 5.93791C135.704 5.75598 135.642 5.52368 135.46 5.41906Z" fill="white" fill-opacity="0.15"/>
<path d="M166.899 1.82279L160.633 5.52861C160.453 5.63544 160.393 5.86849 160.5 6.04913L160.52 6.08356C160.627 6.2642 160.86 6.32404 161.04 6.2172L167.307 2.51138C167.487 2.40455 167.547 2.17151 167.44 1.99086L167.42 1.95643C167.313 1.77579 167.08 1.71596 166.899 1.82279Z" fill="white" fill-opacity="0.15"/>
<path d="M183.46 5.41906L177.149 1.79007C176.967 1.68546 176.735 1.74813 176.63 1.93007L176.6 1.98208C176.495 2.16402 176.558 2.39631 176.74 2.50093L183.051 6.12992C183.233 6.23454 183.465 6.17186 183.57 5.98992L183.6 5.93791C183.704 5.75598 183.642 5.52368 183.46 5.41906Z" fill="white" fill-opacity="0.15"/>
<path d="M214.899 1.82279L208.633 5.52861C208.453 5.63544 208.393 5.86849 208.5 6.04913L208.52 6.08356C208.627 6.2642 208.86 6.32404 209.04 6.2172L215.307 2.51138C215.487 2.40455 215.547 2.17151 215.44 1.99086L215.42 1.95643C215.313 1.77579 215.08 1.71596 214.899 1.82279Z" fill="white" fill-opacity="0.15"/>
<path d="M231.46 5.41906L225.149 1.79007C224.967 1.68546 224.735 1.74813 224.63 1.93007L224.6 1.98208C224.495 2.16402 224.558 2.39631 224.74 2.50093L231.051 6.12992C231.233 6.23454 231.465 6.17186 231.57 5.98992L231.6 5.93791C231.704 5.75598 231.642 5.52368 231.46 5.41906Z" fill="white" fill-opacity="0.15"/>
<path d="M262.899 1.82279L256.633 5.52861C256.453 5.63544 256.393 5.86849 256.5 6.04913L256.52 6.08356C256.627 6.2642 256.86 6.32404 257.04 6.2172L263.307 2.51138C263.487 2.40455 263.547 2.17151 263.44 1.99086L263.42 1.95643C263.313 1.77579 263.08 1.71596 262.899 1.82279Z" fill="white" fill-opacity="0.15"/>
<path d="M279.457 5.42497L273.153 1.78497C272.971 1.68004 272.738 1.74231 272.633 1.92406L272.603 1.97602C272.499 2.15777 272.561 2.39018 272.743 2.49511L279.047 6.13511C279.229 6.24005 279.461 6.17777 279.566 5.99602L279.596 5.94406C279.701 5.76231 279.639 5.5299 279.457 5.42497Z" fill="white" fill-opacity="0.15"/>
<path d="M327.478 5.42497L321.173 1.78497C320.991 1.68004 320.759 1.74231 320.654 1.92406L320.624 1.97602C320.519 2.15777 320.581 2.39018 320.763 2.49511L327.068 6.13511C327.249 6.24005 327.482 6.17777 327.587 5.99602L327.617 5.94406C327.722 5.76231 327.659 5.5299 327.478 5.42497Z" fill="white" fill-opacity="0.15"/>
<path d="M310.899 1.82279L304.633 5.52861C304.453 5.63544 304.393 5.86849 304.5 6.04913L304.52 6.08356C304.627 6.2642 304.86 6.32404 305.04 6.2172L311.307 2.51138C311.487 2.40455 311.547 2.17151 311.44 1.99086L311.42 1.95643C311.313 1.77579 311.08 1.71596 310.899 1.82279Z" fill="white" fill-opacity="0.15"/>
<path d="M31.4893 3.58394L24.5293 3.59609C24.3802 3.59635 24.2595 3.71744 24.2597 3.86656L24.2602 4.14656C24.2605 4.29567 24.3816 4.41635 24.5307 4.41609L31.4907 4.40394C31.6398 4.40368 31.7605 4.28258 31.7602 4.13347L31.7597 3.85347C31.7595 3.70435 31.6384 3.58368 31.4893 3.58394Z" fill="white" fill-opacity="0.15"/>
<path d="M79.4793 3.58394L72.5193 3.59609C72.3702 3.59635 72.2495 3.71744 72.2497 3.86656L72.2502 4.14656C72.2505 4.29567 72.3716 4.41635 72.5207 4.41609L79.4807 4.40394C79.6298 4.40368 79.7505 4.28258 79.7502 4.13347L79.7497 3.85347C79.7495 3.70435 79.6284 3.58368 79.4793 3.58394Z" fill="white" fill-opacity="0.15"/>
<path d="M127.479 3.58394L120.519 3.59609C120.37 3.59635 120.249 3.71744 120.25 3.86656L120.25 4.14656C120.25 4.29567 120.372 4.41635 120.521 4.41609L127.481 4.40394C127.63 4.40368 127.75 4.28258 127.75 4.13347L127.75 3.85347C127.749 3.70435 127.628 3.58368 127.479 3.58394Z" fill="white" fill-opacity="0.15"/>
<path d="M175.479 3.58394L168.519 3.59609C168.37 3.59635 168.249 3.71744 168.25 3.86656L168.25 4.14656C168.25 4.29567 168.372 4.41635 168.521 4.41609L175.481 4.40394C175.63 4.40368 175.75 4.28258 175.75 4.13347L175.75 3.85347C175.749 3.70435 175.628 3.58368 175.479 3.58394Z" fill="white" fill-opacity="0.15"/>
<path d="M223.479 3.58394L216.519 3.59609C216.37 3.59635 216.249 3.71744 216.25 3.86656L216.25 4.14656C216.25 4.29567 216.372 4.41635 216.521 4.41609L223.481 4.40394C223.63 4.40368 223.75 4.28258 223.75 4.13347L223.75 3.85347C223.749 3.70435 223.628 3.58368 223.479 3.58394Z" fill="white" fill-opacity="0.15"/>
<path d="M271.479 3.58394L264.519 3.59609C264.37 3.59635 264.249 3.71744 264.25 3.86656L264.25 4.14656C264.25 4.29567 264.372 4.41635 264.521 4.41609L271.481 4.40394C271.63 4.40368 271.75 4.28258 271.75 4.13347L271.75 3.85347C271.749 3.70435 271.628 3.58368 271.479 3.58394Z" fill="white" fill-opacity="0.15"/>
<path d="M319.5 3.58394L312.54 3.59609C312.391 3.59635 312.27 3.71744 312.27 3.86656L312.271 4.14656C312.271 4.29567 312.392 4.41635 312.541 4.41609L319.501 4.40394C319.65 4.40368 319.771 4.28258 319.771 4.13347L319.77 3.85347C319.77 3.70435 319.649 3.58368 319.5 3.58394Z" fill="white" fill-opacity="0.15"/>
<path d="M33.9517 8.46023L33.9173 8.48054C33.7364 8.58705 33.6762 8.81999 33.7827 9.00082L37.508 15.3252C37.6146 15.506 37.8475 15.5662 38.0283 15.4597L38.0628 15.4394C38.2436 15.3329 38.3039 15.1 38.1973 14.9191L34.472 8.59479C34.3655 8.41396 34.1326 8.35372 33.9517 8.46023Z" fill="white" fill-opacity="0.15"/>
<path d="M44.1064 8.24021L43.8664 8.23979C43.7173 8.23953 43.5962 8.3602 43.596 8.50932L43.5839 15.4493C43.5836 15.5984 43.7043 15.7195 43.8534 15.7198L44.0934 15.7202C44.2425 15.7205 44.3636 15.5998 44.3639 15.4507L44.376 8.51068C44.3762 8.36156 44.2556 8.24047 44.1064 8.24021Z" fill="white" fill-opacity="0.15"/>
<path d="M81.9603 8.45516L81.9086 8.48561C81.7326 8.58932 81.6739 8.81613 81.7776 8.9922L85.5131 15.3338C85.6168 15.5099 85.8436 15.5685 86.0197 15.4648L86.0714 15.4344C86.2475 15.3306 86.3061 15.1038 86.2024 14.9278L82.4669 8.58617C82.3632 8.4101 82.1364 8.35145 81.9603 8.45516Z" fill="white" fill-opacity="0.15"/>
<path d="M92.1064 8.24021L91.8664 8.23979C91.7173 8.23953 91.5962 8.3602 91.596 8.50932L91.5839 15.4493C91.5836 15.5984 91.7043 15.7195 91.8534 15.7198L92.0934 15.7202C92.2425 15.7205 92.3636 15.5998 92.3639 15.4507L92.376 8.51068C92.3762 8.36156 92.2556 8.24047 92.1064 8.24021Z" fill="white" fill-opacity="0.15"/>
<path d="M129.96 8.45516L129.909 8.48561C129.733 8.58932 129.674 8.81613 129.778 8.9922L133.513 15.3338C133.617 15.5099 133.844 15.5685 134.02 15.4648L134.071 15.4344C134.247 15.3306 134.306 15.1038 134.202 14.9278L130.467 8.58617C130.363 8.4101 130.136 8.35145 129.96 8.45516Z" fill="white" fill-opacity="0.15"/>
<path d="M140.106 8.24021L139.866 8.23979C139.717 8.23953 139.596 8.3602 139.596 8.50932L139.584 15.4493C139.584 15.5984 139.704 15.7195 139.853 15.7198L140.093 15.7202C140.242 15.7205 140.364 15.5998 140.364 15.4507L140.376 8.51068C140.376 8.36156 140.256 8.24047 140.106 8.24021Z" fill="white" fill-opacity="0.15"/>
<path d="M177.96 8.45516L177.909 8.48561C177.733 8.58932 177.674 8.81613 177.778 8.9922L181.513 15.3338C181.617 15.5099 181.844 15.5685 182.02 15.4648L182.071 15.4344C182.247 15.3306 182.306 15.1038 182.202 14.9278L178.467 8.58617C178.363 8.4101 178.136 8.35145 177.96 8.45516Z" fill="white" fill-opacity="0.15"/>
<path d="M188.106 8.24021L187.866 8.23979C187.717 8.23953 187.596 8.3602 187.596 8.50932L187.584 15.4493C187.584 15.5984 187.704 15.7195 187.853 15.7198L188.093 15.7202C188.242 15.7205 188.364 15.5998 188.364 15.4507L188.376 8.51068C188.376 8.36156 188.256 8.24047 188.106 8.24021Z" fill="white" fill-opacity="0.15"/>
<path d="M225.96 8.45516L225.909 8.48561C225.733 8.58932 225.674 8.81613 225.778 8.9922L229.513 15.3338C229.617 15.5099 229.844 15.5685 230.02 15.4648L230.071 15.4344C230.247 15.3306 230.306 15.1038 230.202 14.9278L226.467 8.58617C226.363 8.4101 226.136 8.35145 225.96 8.45516Z" fill="white" fill-opacity="0.15"/>
<path d="M236.106 8.24021L235.866 8.23979C235.717 8.23953 235.596 8.3602 235.596 8.50932L235.584 15.4493C235.584 15.5984 235.704 15.7195 235.853 15.7198L236.093 15.7202C236.242 15.7205 236.364 15.5998 236.364 15.4507L236.376 8.51068C236.376 8.36156 236.256 8.24047 236.106 8.24021Z" fill="white" fill-opacity="0.15"/>
<path d="M273.952 8.4603L273.917 8.4806C273.736 8.58711 273.676 8.82005 273.783 9.00088L277.508 15.3252C277.615 15.5061 277.847 15.5663 278.028 15.4598L278.063 15.4395C278.244 15.333 278.304 15.1 278.197 14.9192L274.472 8.59485C274.365 8.41402 274.133 8.35378 273.952 8.4603Z" fill="white" fill-opacity="0.15"/>
<path d="M321.972 8.4603L321.938 8.4806C321.757 8.58711 321.697 8.82005 321.803 9.00088L325.529 15.3252C325.635 15.5061 325.868 15.5663 326.049 15.4598L326.083 15.4395C326.264 15.333 326.324 15.1 326.218 14.9192L322.493 8.59485C322.386 8.41402 322.153 8.35378 321.972 8.4603Z" fill="white" fill-opacity="0.15"/>
<path d="M284.106 8.24021L283.866 8.23979C283.717 8.23953 283.596 8.3602 283.596 8.50932L283.584 15.4493C283.584 15.5984 283.704 15.7195 283.853 15.7198L284.093 15.7202C284.242 15.7205 284.364 15.5998 284.364 15.4507L284.376 8.51068C284.376 8.36156 284.256 8.24047 284.106 8.24021Z" fill="white" fill-opacity="0.15"/>
<path d="M5.98923 8.55802L5.95449 8.5382C5.76739 8.43148 5.52921 8.49664 5.42249 8.68374L1.82546 14.99C1.71875 15.1771 1.78391 15.4153 1.971 15.522L2.00575 15.5418C2.19284 15.6485 2.43102 15.5834 2.53774 15.3963L6.13477 9.09001C6.24149 8.90292 6.17633 8.66474 5.98923 8.55802Z" fill="white" fill-opacity="0.15"/>
<path d="M53.9804 8.55305L53.963 8.54314C53.7759 8.43643 53.5378 8.50159 53.431 8.68868L49.834 14.9949C49.7273 15.182 49.7925 15.4202 49.9795 15.5269L49.9969 15.5369C50.184 15.6436 50.4222 15.5784 50.5289 15.3913L54.1259 9.08505C54.2327 8.89795 54.1675 8.65977 53.9804 8.55305Z" fill="white" fill-opacity="0.15"/>
<path d="M101.98 8.55305L101.963 8.54314C101.776 8.43643 101.538 8.50159 101.431 8.68868L97.834 14.9949C97.7273 15.182 97.7925 15.4202 97.9795 15.5269L97.9969 15.5369C98.184 15.6436 98.4222 15.5784 98.5289 15.3913L102.126 9.08505C102.233 8.89795 102.168 8.65977 101.98 8.55305Z" fill="white" fill-opacity="0.15"/>
<path d="M149.98 8.55305L149.963 8.54314C149.776 8.43643 149.538 8.50159 149.431 8.68868L145.834 14.9949C145.727 15.182 145.792 15.4202 145.98 15.5269L145.997 15.5369C146.184 15.6436 146.422 15.5784 146.529 15.3913L150.126 9.08505C150.233 8.89795 150.168 8.65977 149.98 8.55305Z" fill="white" fill-opacity="0.15"/>
<path d="M197.98 8.55305L197.963 8.54314C197.776 8.43643 197.538 8.50159 197.431 8.68868L193.834 14.9949C193.727 15.182 193.792 15.4202 193.98 15.5269L193.997 15.5369C194.184 15.6436 194.422 15.5784 194.529 15.3913L198.126 9.08505C198.233 8.89795 198.168 8.65977 197.98 8.55305Z" fill="white" fill-opacity="0.15"/>
<path d="M245.98 8.55305L245.963 8.54314C245.776 8.43643 245.538 8.50159 245.431 8.68868L241.834 14.9949C241.727 15.182 241.792 15.4202 241.98 15.5269L241.997 15.5369C242.184 15.6436 242.422 15.5784 242.529 15.3913L246.126 9.08505C246.233 8.89795 246.168 8.65977 245.98 8.55305Z" fill="white" fill-opacity="0.15"/>
<path d="M293.98 8.55305L293.963 8.54314C293.776 8.43643 293.538 8.50159 293.431 8.68868L289.834 14.9949C289.727 15.182 289.792 15.4202 289.98 15.5269L289.997 15.5369C290.184 15.6436 290.422 15.5784 290.529 15.3913L294.126 9.08505C294.233 8.89795 294.168 8.65977 293.98 8.55305Z" fill="white" fill-opacity="0.15"/>
<path d="M14.8908 9.8279L8.64178 13.5235C8.46114 13.6304 8.4013 13.8634 8.50813 14.0441L8.52849 14.0785C8.63533 14.2591 8.86837 14.319 9.04901 14.2121L15.298 10.5165C15.4786 10.4097 15.5385 10.1766 15.4316 9.99598L15.4113 9.96155C15.3045 9.78091 15.0714 9.72107 14.8908 9.8279Z" fill="white" fill-opacity="0.15"/>
<path d="M31.4524 13.4336L25.1477 9.79358C24.9659 9.68864 24.7335 9.75092 24.6286 9.93267L24.6086 9.96731C24.5037 10.1491 24.5659 10.3815 24.7477 10.4864L31.0524 14.1264C31.2341 14.2313 31.4665 14.1691 31.5714 13.9873L31.5914 13.9527C31.6964 13.7709 31.6341 13.5385 31.4524 13.4336Z" fill="white" fill-opacity="0.15"/>
<path d="M62.8994 9.82279L56.6332 13.5286C56.4526 13.6354 56.3928 13.8685 56.4996 14.0491L56.5199 14.0836C56.6268 14.2642 56.8598 14.324 57.0405 14.2172L63.3067 10.5114C63.4873 10.4046 63.5471 10.1715 63.4403 9.99086L63.42 9.95643C63.3131 9.77579 63.0801 9.71596 62.8994 9.82279Z" fill="white" fill-opacity="0.15"/>
<path d="M79.4524 13.4336L73.1477 9.79358C72.9659 9.68864 72.7335 9.75092 72.6286 9.93267L72.6086 9.96731C72.5037 10.1491 72.5659 10.3815 72.7477 10.4864L79.0524 14.1264C79.2341 14.2313 79.4665 14.1691 79.5714 13.9873L79.5914 13.9527C79.6964 13.7709 79.6341 13.5385 79.4524 13.4336Z" fill="white" fill-opacity="0.15"/>
<path d="M110.899 9.82279L104.633 13.5286C104.453 13.6354 104.393 13.8685 104.5 14.0491L104.52 14.0836C104.627 14.2642 104.86 14.324 105.04 14.2172L111.307 10.5114C111.487 10.4046 111.547 10.1715 111.44 9.99086L111.42 9.95643C111.313 9.77579 111.08 9.71596 110.899 9.82279Z" fill="white" fill-opacity="0.15"/>
<path d="M127.452 13.4336L121.148 9.79358C120.966 9.68864 120.734 9.75092 120.629 9.93267L120.609 9.96731C120.504 10.1491 120.566 10.3815 120.748 10.4864L127.052 14.1264C127.234 14.2313 127.467 14.1691 127.571 13.9873L127.591 13.9527C127.696 13.7709 127.634 13.5385 127.452 13.4336Z" fill="white" fill-opacity="0.15"/>
<path d="M158.899 9.82279L152.633 13.5286C152.453 13.6354 152.393 13.8685 152.5 14.0491L152.52 14.0836C152.627 14.2642 152.86 14.324 153.04 14.2172L159.307 10.5114C159.487 10.4046 159.547 10.1715 159.44 9.99086L159.42 9.95643C159.313 9.77579 159.08 9.71596 158.899 9.82279Z" fill="white" fill-opacity="0.15"/>
<path d="M175.452 13.4336L169.148 9.79358C168.966 9.68864 168.734 9.75092 168.629 9.93267L168.609 9.96731C168.504 10.1491 168.566 10.3815 168.748 10.4864L175.052 14.1264C175.234 14.2313 175.467 14.1691 175.571 13.9873L175.591 13.9527C175.696 13.7709 175.634 13.5385 175.452 13.4336Z" fill="white" fill-opacity="0.15"/>
<path d="M206.899 9.82279L200.633 13.5286C200.453 13.6354 200.393 13.8685 200.5 14.0491L200.52 14.0836C200.627 14.2642 200.86 14.324 201.04 14.2172L207.307 10.5114C207.487 10.4046 207.547 10.1715 207.44 9.99086L207.42 9.95643C207.313 9.77579 207.08 9.71596 206.899 9.82279Z" fill="white" fill-opacity="0.15"/>
<path d="M223.452 13.4336L217.148 9.79358C216.966 9.68864 216.734 9.75092 216.629 9.93267L216.609 9.96731C216.504 10.1491 216.566 10.3815 216.748 10.4864L223.052 14.1264C223.234 14.2313 223.467 14.1691 223.571 13.9873L223.591 13.9527C223.696 13.7709 223.634 13.5385 223.452 13.4336Z" fill="white" fill-opacity="0.15"/>
<path d="M254.899 9.82279L248.633 13.5286C248.453 13.6354 248.393 13.8685 248.5 14.0491L248.52 14.0836C248.627 14.2642 248.86 14.324 249.04 14.2172L255.307 10.5114C255.487 10.4046 255.547 10.1715 255.44 9.99086L255.42 9.95643C255.313 9.77579 255.08 9.71596 254.899 9.82279Z" fill="white" fill-opacity="0.15"/>
<path d="M271.452 13.4336L265.148 9.79358C264.966 9.68864 264.734 9.75092 264.629 9.93267L264.609 9.96731C264.504 10.1491 264.566 10.3815 264.748 10.4864L271.052 14.1264C271.234 14.2313 271.467 14.1691 271.571 13.9873L271.591 13.9527C271.696 13.7709 271.634 13.5385 271.452 13.4336Z" fill="white" fill-opacity="0.15"/>
<path d="M302.899 9.82279L296.633 13.5286C296.453 13.6354 296.393 13.8685 296.5 14.0491L296.52 14.0836C296.627 14.2642 296.86 14.324 297.04 14.2172L303.307 10.5114C303.487 10.4046 303.547 10.1715 303.44 9.99086L303.42 9.95643C303.313 9.77579 303.08 9.71596 302.899 9.82279Z" fill="white" fill-opacity="0.15"/>
<path d="M319.449 13.4199L313.161 9.78991C312.975 9.68221 312.736 9.74613 312.628 9.93266L312.608 9.9673C312.501 10.1538 312.565 10.3924 312.751 10.5001L319.039 14.1301C319.225 14.2377 319.464 14.1738 319.571 13.9873L319.591 13.9527C319.699 13.7661 319.635 13.5276 319.449 13.4199Z" fill="white" fill-opacity="0.15"/>
<path d="M23.4893 11.5939L16.5293 11.6061C16.3802 11.6064 16.2595 11.7275 16.2597 11.8766L16.2602 12.1366C16.2605 12.2857 16.3816 12.4064 16.5307 12.4061L23.4907 12.3939C23.6398 12.3937 23.7605 12.2726 23.7602 12.1235L23.7597 11.8635C23.7595 11.7144 23.6384 11.5937 23.4893 11.5939Z" fill="white" fill-opacity="0.15"/>
<path d="M71.48 11.6H64.52C64.3709 11.6 64.25 11.7209 64.25 11.87V12.13C64.25 12.2791 64.3709 12.4 64.52 12.4H71.48C71.6291 12.4 71.75 12.2791 71.75 12.13V11.87C71.75 11.7209 71.6291 11.6 71.48 11.6Z" fill="white" fill-opacity="0.15"/>
<path d="M119.48 11.6H112.52C112.371 11.6 112.25 11.7209 112.25 11.87V12.13C112.25 12.2791 112.371 12.4 112.52 12.4H119.48C119.629 12.4 119.75 12.2791 119.75 12.13V11.87C119.75 11.7209 119.629 11.6 119.48 11.6Z" fill="white" fill-opacity="0.15"/>
<path d="M167.48 11.6H160.52C160.371 11.6 160.25 11.7209 160.25 11.87V12.13C160.25 12.2791 160.371 12.4 160.52 12.4H167.48C167.629 12.4 167.75 12.2791 167.75 12.13V11.87C167.75 11.7209 167.629 11.6 167.48 11.6Z" fill="white" fill-opacity="0.15"/>
<path d="M215.48 11.6H208.52C208.371 11.6 208.25 11.7209 208.25 11.87V12.13C208.25 12.2791 208.371 12.4 208.52 12.4H215.48C215.629 12.4 215.75 12.2791 215.75 12.13V11.87C215.75 11.7209 215.629 11.6 215.48 11.6Z" fill="white" fill-opacity="0.15"/>
<path d="M263.48 11.6H256.52C256.371 11.6 256.25 11.7209 256.25 11.87V12.13C256.25 12.2791 256.371 12.4 256.52 12.4H263.48C263.629 12.4 263.75 12.2791 263.75 12.13V11.87C263.75 11.7209 263.629 11.6 263.48 11.6Z" fill="white" fill-opacity="0.15"/>
<path d="M311.489 11.5839L304.529 11.5961C304.38 11.5963 304.259 11.7174 304.26 11.8666L304.26 12.1466C304.26 12.2957 304.382 12.4163 304.531 12.4161L311.491 12.4039C311.64 12.4037 311.76 12.2826 311.76 12.1335L311.76 11.8535C311.759 11.7044 311.638 11.5837 311.489 11.5839Z" fill="white" fill-opacity="0.15"/>
<path d="M25.9517 16.4602L25.9172 16.4805C25.7411 16.5843 25.6825 16.8111 25.7862 16.9871L29.5217 23.3287C29.6254 23.5048 29.8522 23.5635 30.0283 23.4597L30.0627 23.4394C30.2388 23.3357 30.2974 23.1089 30.1937 22.9328L26.4582 16.5913C26.3545 16.4152 26.1277 16.3565 25.9517 16.4602Z" fill="white" fill-opacity="0.15"/>
<path d="M36.1064 16.2402L35.8664 16.2398C35.7173 16.2395 35.5962 16.3602 35.596 16.5093L35.5839 23.4493C35.5836 23.5984 35.7043 23.7195 35.8534 23.7198L36.0934 23.7202C36.2425 23.7205 36.3636 23.5998 36.3639 23.4507L36.376 16.5107C36.3762 16.3616 36.2556 16.2405 36.1064 16.2402Z" fill="white" fill-opacity="0.15"/>
<path d="M73.9517 16.4602L73.9172 16.4805C73.7411 16.5843 73.6825 16.8111 73.7862 16.9871L77.5217 23.3287C77.6254 23.5048 77.8522 23.5635 78.0283 23.4597L78.0627 23.4394C78.2388 23.3357 78.2974 23.1089 78.1937 22.9328L74.4582 16.5913C74.3545 16.4152 74.1277 16.3565 73.9517 16.4602Z" fill="white" fill-opacity="0.15"/>
<path d="M84.1064 16.2402L83.8664 16.2398C83.7173 16.2395 83.5962 16.3602 83.596 16.5093L83.5839 23.4493C83.5836 23.5984 83.7043 23.7195 83.8534 23.7198L84.0934 23.7202C84.2425 23.7205 84.3636 23.5998 84.3639 23.4507L84.376 16.5107C84.3762 16.3616 84.2556 16.2405 84.1064 16.2402Z" fill="white" fill-opacity="0.15"/>
<path d="M121.952 16.4602L121.917 16.4805C121.741 16.5843 121.682 16.8111 121.786 16.9871L125.522 23.3287C125.625 23.5048 125.852 23.5635 126.028 23.4597L126.063 23.4394C126.239 23.3357 126.297 23.1089 126.194 22.9328L122.458 16.5913C122.355 16.4152 122.128 16.3565 121.952 16.4602Z" fill="white" fill-opacity="0.15"/>
<path d="M132.106 16.2402L131.866 16.2398C131.717 16.2395 131.596 16.3602 131.596 16.5093L131.584 23.4493C131.584 23.5984 131.704 23.7195 131.853 23.7198L132.093 23.7202C132.242 23.7205 132.364 23.5998 132.364 23.4507L132.376 16.5107C132.376 16.3616 132.256 16.2405 132.106 16.2402Z" fill="white" fill-opacity="0.15"/>
<path d="M169.952 16.4602L169.917 16.4805C169.741 16.5843 169.682 16.8111 169.786 16.9871L173.522 23.3287C173.625 23.5048 173.852 23.5635 174.028 23.4597L174.063 23.4394C174.239 23.3357 174.297 23.1089 174.194 22.9328L170.458 16.5913C170.355 16.4152 170.128 16.3565 169.952 16.4602Z" fill="white" fill-opacity="0.15"/>
<path d="M180.106 16.2402L179.866 16.2398C179.717 16.2395 179.596 16.3602 179.596 16.5093L179.584 23.4493C179.584 23.5984 179.704 23.7195 179.853 23.7198L180.093 23.7202C180.242 23.7205 180.364 23.5998 180.364 23.4507L180.376 16.5107C180.376 16.3616 180.256 16.2405 180.106 16.2402Z" fill="white" fill-opacity="0.15"/>
<path d="M217.952 16.4602L217.917 16.4805C217.741 16.5843 217.682 16.8111 217.786 16.9871L221.522 23.3287C221.625 23.5048 221.852 23.5635 222.028 23.4597L222.063 23.4394C222.239 23.3357 222.297 23.1089 222.194 22.9328L218.458 16.5913C218.355 16.4152 218.128 16.3565 217.952 16.4602Z" fill="white" fill-opacity="0.15"/>
<path d="M228.106 16.2402L227.866 16.2398C227.717 16.2395 227.596 16.3602 227.596 16.5093L227.584 23.4493C227.584 23.5984 227.704 23.7195 227.853 23.7198L228.093 23.7202C228.242 23.7205 228.364 23.5998 228.364 23.4507L228.376 16.5107C228.376 16.3616 228.256 16.2405 228.106 16.2402Z" fill="white" fill-opacity="0.15"/>
<path d="M265.952 16.4602L265.917 16.4805C265.741 16.5843 265.682 16.8111 265.786 16.9871L269.522 23.3287C269.625 23.5048 269.852 23.5635 270.028 23.4597L270.063 23.4394C270.239 23.3357 270.297 23.1089 270.194 22.9328L266.458 16.5913C266.355 16.4152 266.128 16.3565 265.952 16.4602Z" fill="white" fill-opacity="0.15"/>
<path d="M276.106 16.2403L275.866 16.2399C275.717 16.2396 275.596 16.3603 275.596 16.5094L275.584 23.4494C275.584 23.5985 275.704 23.7196 275.853 23.7198L276.093 23.7203C276.242 23.7205 276.364 23.5998 276.364 23.4507L276.376 16.5107C276.376 16.3616 276.256 16.2405 276.106 16.2403Z" fill="white" fill-opacity="0.15"/>
<path d="M324.127 16.2403L323.887 16.2399C323.738 16.2396 323.617 16.3603 323.616 16.5094L323.604 23.4494C323.604 23.5985 323.725 23.7196 323.874 23.7198L324.114 23.7203C324.263 23.7205 324.384 23.5998 324.384 23.4507L324.396 16.5107C324.397 16.3616 324.276 16.2405 324.127 16.2403Z" fill="white" fill-opacity="0.15"/>
<path d="M313.952 16.4602L313.917 16.4805C313.736 16.5871 313.676 16.82 313.783 17.0008L317.508 23.3252C317.615 23.506 317.847 23.5662 318.028 23.4597L318.063 23.4394C318.244 23.3329 318.304 23.1 318.197 22.9191L314.472 16.5948C314.365 16.414 314.133 16.3537 313.952 16.4602Z" fill="white" fill-opacity="0.15"/>
<path d="M45.9891 16.558L45.9543 16.5382C45.772 16.4342 45.54 16.4977 45.436 16.68L41.8291 23.0036C41.7251 23.1859 41.7886 23.418 41.9709 23.522L42.0056 23.5418C42.1879 23.6458 42.42 23.5823 42.524 23.4L46.1309 17.0764C46.2349 16.8941 46.1714 16.662 45.9891 16.558Z" fill="white" fill-opacity="0.15"/>
<path d="M93.9891 16.558L93.9543 16.5382C93.772 16.4342 93.54 16.4977 93.436 16.68L89.8291 23.0036C89.7251 23.1859 89.7886 23.418 89.9709 23.522L90.0056 23.5418C90.1879 23.6458 90.42 23.5823 90.524 23.4L94.1309 17.0764C94.2349 16.8941 94.1714 16.662 93.9891 16.558Z" fill="white" fill-opacity="0.15"/>
<path d="M141.989 16.558L141.954 16.5382C141.772 16.4342 141.54 16.4977 141.436 16.68L137.829 23.0036C137.725 23.1859 137.789 23.418 137.971 23.522L138.006 23.5418C138.188 23.6458 138.42 23.5823 138.524 23.4L142.131 17.0764C142.235 16.8941 142.171 16.662 141.989 16.558Z" fill="white" fill-opacity="0.15"/>
<path d="M189.989 16.558L189.954 16.5382C189.772 16.4342 189.54 16.4977 189.436 16.68L185.829 23.0036C185.725 23.1859 185.789 23.418 185.971 23.522L186.006 23.5418C186.188 23.6458 186.42 23.5823 186.524 23.4L190.131 17.0764C190.235 16.8941 190.171 16.662 189.989 16.558Z" fill="white" fill-opacity="0.15"/>
<path d="M237.989 16.558L237.954 16.5382C237.772 16.4342 237.54 16.4977 237.436 16.68L233.829 23.0036C233.725 23.1859 233.789 23.418 233.971 23.522L234.006 23.5418C234.188 23.6458 234.42 23.5823 234.524 23.4L238.131 17.0764C238.235 16.8941 238.171 16.662 237.989 16.558Z" fill="white" fill-opacity="0.15"/>
<path d="M285.989 16.558L285.954 16.5382C285.772 16.4342 285.54 16.4977 285.436 16.68L281.829 23.0036C281.725 23.1859 281.789 23.418 281.971 23.522L282.006 23.5418C282.188 23.6458 282.42 23.5823 282.524 23.4L286.131 17.0764C286.235 16.8941 286.171 16.662 285.989 16.558Z" fill="white" fill-opacity="0.15"/>
<path d="M6.90945 17.8228L0.643244 21.5286C0.462602 21.6354 0.402766 21.8685 0.509598 22.0491L0.52996 22.0836C0.636791 22.2642 0.869835 22.324 1.05048 22.2172L7.31668 18.5114C7.49732 18.4046 7.55716 18.1715 7.45033 17.9909L7.42996 17.9564C7.32313 17.7758 7.09009 17.716 6.90945 17.8228Z" fill="white" fill-opacity="0.15"/>
<path d="M23.4524 21.4336L17.1477 17.7936C16.9659 17.6886 16.7335 17.7509 16.6286 17.9327L16.6086 17.9673C16.5037 18.1491 16.5659 18.3815 16.7477 18.4864L23.0524 22.1264C23.2341 22.2313 23.4665 22.1691 23.5714 21.9873L23.5914 21.9527C23.6964 21.7709 23.6341 21.5385 23.4524 21.4336Z" fill="white" fill-opacity="0.15"/>
<path d="M54.8994 17.8128L48.6332 21.5186C48.4526 21.6254 48.3928 21.8585 48.4996 22.0391L48.5199 22.0735C48.6268 22.2542 48.8598 22.314 49.0405 22.2072L55.3067 18.5014C55.4873 18.3945 55.5471 18.1615 55.4403 17.9809L55.42 17.9464C55.3131 17.7658 55.0801 17.7059 54.8994 17.8128Z" fill="white" fill-opacity="0.15"/>
<path d="M71.4524 21.4336L65.1477 17.7936C64.9659 17.6886 64.7335 17.7509 64.6286 17.9327L64.6086 17.9673C64.5037 18.1491 64.5659 18.3815 64.7477 18.4864L71.0524 22.1264C71.2341 22.2313 71.4665 22.1691 71.5714 21.9873L71.5914 21.9527C71.6964 21.7709 71.6341 21.5385 71.4524 21.4336Z" fill="white" fill-opacity="0.15"/>
<path d="M102.899 17.8128L96.6332 21.5186C96.4526 21.6254 96.3928 21.8585 96.4996 22.0391L96.5199 22.0735C96.6268 22.2542 96.8598 22.314 97.0405 22.2072L103.307 18.5014C103.487 18.3945 103.547 18.1615 103.44 17.9809L103.42 17.9464C103.313 17.7658 103.08 17.7059 102.899 17.8128Z" fill="white" fill-opacity="0.15"/>
<path d="M119.452 21.4336L113.148 17.7936C112.966 17.6886 112.734 17.7509 112.629 17.9327L112.609 17.9673C112.504 18.1491 112.566 18.3815 112.748 18.4864L119.052 22.1264C119.234 22.2313 119.467 22.1691 119.571 21.9873L119.591 21.9527C119.696 21.7709 119.634 21.5385 119.452 21.4336Z" fill="white" fill-opacity="0.15"/>
<path d="M150.899 17.8128L144.633 21.5186C144.453 21.6254 144.393 21.8585 144.5 22.0391L144.52 22.0735C144.627 22.2542 144.86 22.314 145.04 22.2072L151.307 18.5014C151.487 18.3945 151.547 18.1615 151.44 17.9809L151.42 17.9464C151.313 17.7658 151.08 17.7059 150.899 17.8128Z" fill="white" fill-opacity="0.15"/>
<path d="M167.452 21.4336L161.148 17.7936C160.966 17.6886 160.734 17.7509 160.629 17.9327L160.609 17.9673C160.504 18.1491 160.566 18.3815 160.748 18.4864L167.052 22.1264C167.234 22.2313 167.467 22.1691 167.571 21.9873L167.591 21.9527C167.696 21.7709 167.634 21.5385 167.452 21.4336Z" fill="white" fill-opacity="0.15"/>
<path d="M198.899 17.8128L192.633 21.5186C192.453 21.6254 192.393 21.8585 192.5 22.0391L192.52 22.0735C192.627 22.2542 192.86 22.314 193.04 22.2072L199.307 18.5014C199.487 18.3945 199.547 18.1615 199.44 17.9809L199.42 17.9464C199.313 17.7658 199.08 17.7059 198.899 17.8128Z" fill="white" fill-opacity="0.15"/>
<path d="M215.452 21.4336L209.148 17.7936C208.966 17.6886 208.734 17.7509 208.629 17.9327L208.609 17.9673C208.504 18.1491 208.566 18.3815 208.748 18.4864L215.052 22.1264C215.234 22.2313 215.467 22.1691 215.571 21.9873L215.591 21.9527C215.696 21.7709 215.634 21.5385 215.452 21.4336Z" fill="white" fill-opacity="0.15"/>
<path d="M246.899 17.8128L240.633 21.5186C240.453 21.6254 240.393 21.8585 240.5 22.0391L240.52 22.0735C240.627 22.2542 240.86 22.314 241.04 22.2072L247.307 18.5014C247.487 18.3945 247.547 18.1615 247.44 17.9809L247.42 17.9464C247.313 17.7658 247.08 17.7059 246.899 17.8128Z" fill="white" fill-opacity="0.15"/>
<path d="M263.452 21.4336L257.148 17.7936C256.966 17.6886 256.734 17.7509 256.629 17.9327L256.609 17.9673C256.504 18.1491 256.566 18.3815 256.748 18.4864L263.052 22.1264C263.234 22.2313 263.467 22.1691 263.571 21.9873L263.591 21.9527C263.696 21.7709 263.634 21.5385 263.452 21.4336Z" fill="white" fill-opacity="0.15"/>
<path d="M294.899 17.8128L288.633 21.5186C288.453 21.6254 288.393 21.8585 288.5 22.0391L288.52 22.0735C288.627 22.2542 288.86 22.314 289.04 22.2072L295.307 18.5014C295.487 18.3945 295.547 18.1615 295.44 17.9809L295.42 17.9464C295.313 17.7658 295.08 17.7059 294.899 17.8128Z" fill="white" fill-opacity="0.15"/>
<path d="M311.455 21.4277L305.144 17.7987C304.962 17.6941 304.73 17.7568 304.625 17.9387L304.605 17.9734C304.5 18.1553 304.563 18.3876 304.745 18.4923L311.056 22.1212C311.238 22.2259 311.47 22.1632 311.575 21.9813L311.595 21.9466C311.699 21.7646 311.637 21.5323 311.455 21.4277Z" fill="white" fill-opacity="0.15"/>
<path d="M15.4893 19.5839L8.52928 19.5961C8.38016 19.5963 8.25949 19.7174 8.25975 19.8666L8.26024 20.1466C8.2605 20.2957 8.38159 20.4163 8.53071 20.4161L15.4907 20.4039C15.6398 20.4037 15.7605 20.2826 15.7602 20.1335L15.7597 19.8535C15.7595 19.7044 15.6384 19.5837 15.4893 19.5839Z" fill="white" fill-opacity="0.15"/>
<path d="M63.48 19.6H56.52C56.3709 19.6 56.25 19.7209 56.25 19.87V20.13C56.25 20.2791 56.3709 20.4 56.52 20.4H63.48C63.6291 20.4 63.75 20.2791 63.75 20.13V19.87C63.75 19.7209 63.6291 19.6 63.48 19.6Z" fill="white" fill-opacity="0.15"/>
<path d="M111.48 19.6H104.52C104.371 19.6 104.25 19.7209 104.25 19.87V20.13C104.25 20.2791 104.371 20.4 104.52 20.4H111.48C111.629 20.4 111.75 20.2791 111.75 20.13V19.87C111.75 19.7209 111.629 19.6 111.48 19.6Z" fill="white" fill-opacity="0.15"/>
<path d="M159.48 19.6H152.52C152.371 19.6 152.25 19.7209 152.25 19.87V20.13C152.25 20.2791 152.371 20.4 152.52 20.4H159.48C159.629 20.4 159.75 20.2791 159.75 20.13V19.87C159.75 19.7209 159.629 19.6 159.48 19.6Z" fill="white" fill-opacity="0.15"/>
<path d="M207.48 19.6H200.52C200.371 19.6 200.25 19.7209 200.25 19.87V20.13C200.25 20.2791 200.371 20.4 200.52 20.4H207.48C207.629 20.4 207.75 20.2791 207.75 20.13V19.87C207.75 19.7209 207.629 19.6 207.48 19.6Z" fill="white" fill-opacity="0.15"/>
<path d="M255.48 19.6H248.52C248.371 19.6 248.25 19.7209 248.25 19.87V20.13C248.25 20.2791 248.371 20.4 248.52 20.4H255.48C255.629 20.4 255.75 20.2791 255.75 20.13V19.87C255.75 19.7209 255.629 19.6 255.48 19.6Z" fill="white" fill-opacity="0.15"/>
<path d="M303.48 19.6H296.52C296.371 19.6 296.25 19.7209 296.25 19.87V20.13C296.25 20.2791 296.371 20.4 296.52 20.4H303.48C303.629 20.4 303.75 20.2791 303.75 20.13V19.87C303.75 19.7209 303.629 19.6 303.48 19.6Z" fill="white" fill-opacity="0.15"/>
<path d="M17.9517 24.4602L17.9172 24.4805C17.7411 24.5843 17.6825 24.8111 17.7862 24.9871L21.5217 31.3287C21.6254 31.5048 21.8522 31.5635 22.0283 31.4597L22.0627 31.4394C22.2388 31.3357 22.2974 31.1089 22.1937 30.9328L18.4582 24.5913C18.3545 24.4152 18.1277 24.3565 17.9517 24.4602Z" fill="white" fill-opacity="0.15"/>
<path d="M28.1164 24.2402L27.8764 24.2398C27.7273 24.2395 27.6062 24.3602 27.606 24.5093L27.5939 31.4493C27.5936 31.5984 27.7143 31.7195 27.8634 31.7198L28.1034 31.7202C28.2525 31.7205 28.3736 31.5998 28.3739 31.4507L28.386 24.5107C28.3862 24.3616 28.2656 24.2405 28.1164 24.2402Z" fill="white" fill-opacity="0.15"/>
<path d="M65.9517 24.4602L65.9172 24.4805C65.7411 24.5843 65.6825 24.8111 65.7862 24.9871L69.5217 31.3287C69.6254 31.5048 69.8522 31.5635 70.0283 31.4597L70.0627 31.4394C70.2388 31.3357 70.2974 31.1089 70.1937 30.9328L66.4582 24.5913C66.3545 24.4152 66.1277 24.3565 65.9517 24.4602Z" fill="white" fill-opacity="0.15"/>
<path d="M76.1164 24.2402L75.8764 24.2398C75.7273 24.2395 75.6062 24.3602 75.606 24.5093L75.5939 31.4493C75.5936 31.5984 75.7143 31.7195 75.8634 31.7198L76.1034 31.7202C76.2525 31.7205 76.3736 31.5998 76.3739 31.4507L76.386 24.5107C76.3862 24.3616 76.2656 24.2405 76.1164 24.2402Z" fill="white" fill-opacity="0.15"/>
<path d="M113.952 24.4602L113.917 24.4805C113.741 24.5843 113.682 24.8111 113.786 24.9871L117.522 31.3287C117.625 31.5048 117.852 31.5635 118.028 31.4597L118.063 31.4394C118.239 31.3357 118.297 31.1089 118.194 30.9328L114.458 24.5913C114.355 24.4152 114.128 24.3565 113.952 24.4602Z" fill="white" fill-opacity="0.15"/>
<path d="M124.116 24.2402L123.876 24.2398C123.727 24.2395 123.606 24.3602 123.606 24.5093L123.594 31.4493C123.594 31.5984 123.714 31.7195 123.863 31.7198L124.103 31.7202C124.253 31.7205 124.374 31.5998 124.374 31.4507L124.386 24.5107C124.386 24.3616 124.266 24.2405 124.116 24.2402Z" fill="white" fill-opacity="0.15"/>
<path d="M161.952 24.4602L161.917 24.4805C161.741 24.5843 161.682 24.8111 161.786 24.9871L165.522 31.3287C165.625 31.5048 165.852 31.5635 166.028 31.4597L166.063 31.4394C166.239 31.3357 166.297 31.1089 166.194 30.9328L162.458 24.5913C162.355 24.4152 162.128 24.3565 161.952 24.4602Z" fill="white" fill-opacity="0.15"/>
<path d="M172.116 24.2402L171.876 24.2398C171.727 24.2395 171.606 24.3602 171.606 24.5093L171.594 31.4493C171.594 31.5984 171.714 31.7195 171.863 31.7198L172.103 31.7202C172.253 31.7205 172.374 31.5998 172.374 31.4507L172.386 24.5107C172.386 24.3616 172.266 24.2405 172.116 24.2402Z" fill="white" fill-opacity="0.15"/>
<path d="M209.952 24.4602L209.917 24.4805C209.741 24.5843 209.682 24.8111 209.786 24.9871L213.522 31.3287C213.625 31.5048 213.852 31.5635 214.028 31.4597L214.063 31.4394C214.239 31.3357 214.297 31.1089 214.194 30.9328L210.458 24.5913C210.355 24.4152 210.128 24.3565 209.952 24.4602Z" fill="white" fill-opacity="0.15"/>
<path d="M220.116 24.2402L219.876 24.2398C219.727 24.2395 219.606 24.3602 219.606 24.5093L219.594 31.4493C219.594 31.5984 219.714 31.7195 219.863 31.7198L220.103 31.7202C220.253 31.7205 220.374 31.5998 220.374 31.4507L220.386 24.5107C220.386 24.3616 220.266 24.2405 220.116 24.2402Z" fill="white" fill-opacity="0.15"/>
<path d="M257.952 24.4602L257.917 24.4805C257.741 24.5843 257.682 24.8111 257.786 24.9871L261.522 31.3287C261.625 31.5048 261.852 31.5635 262.028 31.4597L262.063 31.4394C262.239 31.3357 262.297 31.1089 262.194 30.9328L258.458 24.5913C258.355 24.4152 258.128 24.3565 257.952 24.4602Z" fill="white" fill-opacity="0.15"/>
<path d="M268.116 24.2402L267.876 24.2398C267.727 24.2395 267.606 24.3602 267.606 24.5093L267.594 31.4493C267.594 31.5984 267.714 31.7195 267.863 31.7198L268.103 31.7202C268.253 31.7205 268.374 31.5998 268.374 31.4507L268.386 24.5107C268.386 24.3616 268.266 24.2405 268.116 24.2402Z" fill="white" fill-opacity="0.15"/>
<path d="M305.952 24.4602L305.917 24.4805C305.741 24.5843 305.682 24.8111 305.786 24.9871L309.522 31.3287C309.625 31.5048 309.852 31.5635 310.028 31.4597L310.063 31.4394C310.239 31.3357 310.297 31.1089 310.194 30.9328L306.458 24.5913C306.355 24.4152 306.128 24.3565 305.952 24.4602Z" fill="white" fill-opacity="0.15"/>
<path d="M316.106 24.2302L315.866 24.2298C315.717 24.2295 315.596 24.3502 315.596 24.4993L315.584 31.4393C315.584 31.5884 315.704 31.7095 315.853 31.7098L316.093 31.7102C316.242 31.7104 316.364 31.5898 316.364 31.4407L316.376 24.5007C316.376 24.3516 316.256 24.2305 316.106 24.2302Z" fill="white" fill-opacity="0.15"/>
<path d="M37.9891 24.558L37.9543 24.5382C37.772 24.4342 37.54 24.4977 37.436 24.68L33.8291 31.0036C33.7251 31.1859 33.7886 31.418 33.9709 31.522L34.0056 31.5418C34.1879 31.6458 34.42 31.5823 34.524 31.4L38.1309 25.0764C38.2349 24.8941 38.1714 24.662 37.9891 24.558Z" fill="white" fill-opacity="0.15"/>
<path d="M85.9891 24.558L85.9543 24.5382C85.772 24.4342 85.54 24.4977 85.436 24.68L81.8291 31.0036C81.7251 31.1859 81.7886 31.418 81.9709 31.522L82.0056 31.5418C82.1879 31.6458 82.42 31.5823 82.524 31.4L86.1309 25.0764C86.2349 24.8941 86.1714 24.662 85.9891 24.558Z" fill="white" fill-opacity="0.15"/>
<path d="M133.989 24.558L133.954 24.5382C133.772 24.4342 133.54 24.4977 133.436 24.68L129.829 31.0036C129.725 31.1859 129.789 31.418 129.971 31.522L130.006 31.5418C130.188 31.6458 130.42 31.5823 130.524 31.4L134.131 25.0764C134.235 24.8941 134.171 24.662 133.989 24.558Z" fill="white" fill-opacity="0.15"/>
<path d="M181.989 24.558L181.954 24.5382C181.772 24.4342 181.54 24.4977 181.436 24.68L177.829 31.0036C177.725 31.1859 177.789 31.418 177.971 31.522L178.006 31.5418C178.188 31.6458 178.42 31.5823 178.524 31.4L182.131 25.0764C182.235 24.8941 182.171 24.662 181.989 24.558Z" fill="white" fill-opacity="0.15"/>
<path d="M229.989 24.558L229.954 24.5382C229.772 24.4342 229.54 24.4977 229.436 24.68L225.829 31.0036C225.725 31.1859 225.789 31.418 225.971 31.522L226.006 31.5418C226.188 31.6458 226.42 31.5823 226.524 31.4L230.131 25.0764C230.235 24.8941 230.171 24.662 229.989 24.558Z" fill="white" fill-opacity="0.15"/>
<path d="M277.989 24.5581L277.954 24.5382C277.772 24.4343 277.54 24.4978 277.436 24.6801L273.829 31.0037C273.725 31.186 273.789 31.4181 273.971 31.522L274.006 31.5419C274.188 31.6458 274.42 31.5824 274.524 31.4001L278.131 25.0764C278.235 24.8941 278.171 24.662 277.989 24.5581Z" fill="white" fill-opacity="0.15"/>
<path d="M326.01 24.5581L325.975 24.5382C325.793 24.4343 325.56 24.4978 325.457 24.6801L321.85 31.0037C321.746 31.186 321.809 31.4181 321.991 31.522L322.026 31.5419C322.208 31.6458 322.44 31.5824 322.544 31.4001L326.151 25.0764C326.255 24.8941 326.192 24.662 326.01 24.5581Z" fill="white" fill-opacity="0.15"/>
<path d="M15.4524 29.4336L9.14769 25.7936C8.96594 25.6886 8.73354 25.7509 8.6286 25.9327L8.6086 25.9673C8.50367 26.1491 8.56594 26.3815 8.74769 26.4864L15.0524 30.1264C15.2341 30.2313 15.4665 30.1691 15.5714 29.9873L15.5914 29.9527C15.6964 29.7709 15.6341 29.5385 15.4524 29.4336Z" fill="white" fill-opacity="0.15"/>
<path d="M46.8994 25.8228L40.6332 29.5286C40.4526 29.6354 40.3928 29.8685 40.4996 30.0491L40.5199 30.0836C40.6268 30.2642 40.8598 30.324 41.0405 30.2172L47.3067 26.5114C47.4873 26.4046 47.5471 26.1715 47.4403 25.9909L47.42 25.9564C47.3131 25.7758 47.0801 25.716 46.8994 25.8228Z" fill="white" fill-opacity="0.15"/>
<path d="M63.4549 29.4277L57.1439 25.7987C56.9619 25.6941 56.7296 25.7568 56.625 25.9387L56.6051 25.9734C56.5005 26.1553 56.5631 26.3876 56.7451 26.4923L63.0561 30.1212C63.238 30.2259 63.4703 30.1632 63.5749 29.9813L63.5949 29.9466C63.6995 29.7646 63.6368 29.5323 63.4549 29.4277Z" fill="white" fill-opacity="0.15"/>
<path d="M94.8994 25.8228L88.6332 29.5286C88.4526 29.6354 88.3928 29.8685 88.4996 30.0491L88.5199 30.0836C88.6268 30.2642 88.8598 30.324 89.0405 30.2172L95.3067 26.5114C95.4873 26.4046 95.5471 26.1715 95.4403 25.9909L95.42 25.9564C95.3131 25.7758 95.0801 25.716 94.8994 25.8228Z" fill="white" fill-opacity="0.15"/>
<path d="M111.455 29.4277L105.144 25.7987C104.962 25.6941 104.73 25.7568 104.625 25.9387L104.605 25.9734C104.5 26.1553 104.563 26.3876 104.745 26.4923L111.056 30.1212C111.238 30.2259 111.47 30.1632 111.575 29.9813L111.595 29.9466C111.699 29.7646 111.637 29.5323 111.455 29.4277Z" fill="white" fill-opacity="0.15"/>
<path d="M142.899 25.8228L136.633 29.5286C136.453 29.6354 136.393 29.8685 136.5 30.0491L136.52 30.0836C136.627 30.2642 136.86 30.324 137.04 30.2172L143.307 26.5114C143.487 26.4046 143.547 26.1715 143.44 25.9909L143.42 25.9564C143.313 25.7758 143.08 25.716 142.899 25.8228Z" fill="white" fill-opacity="0.15"/>
<path d="M159.455 29.4277L153.144 25.7987C152.962 25.6941 152.73 25.7568 152.625 25.9387L152.605 25.9734C152.5 26.1553 152.563 26.3876 152.745 26.4923L159.056 30.1212C159.238 30.2259 159.47 30.1632 159.575 29.9813L159.595 29.9466C159.699 29.7646 159.637 29.5323 159.455 29.4277Z" fill="white" fill-opacity="0.15"/>
<path d="M190.899 25.8228L184.633 29.5286C184.453 29.6354 184.393 29.8685 184.5 30.0491L184.52 30.0836C184.627 30.2642 184.86 30.324 185.04 30.2172L191.307 26.5114C191.487 26.4046 191.547 26.1715 191.44 25.9909L191.42 25.9564C191.313 25.7758 191.08 25.716 190.899 25.8228Z" fill="white" fill-opacity="0.15"/>
<path d="M207.455 29.4277L201.144 25.7987C200.962 25.6941 200.73 25.7568 200.625 25.9387L200.605 25.9734C200.5 26.1553 200.563 26.3876 200.745 26.4923L207.056 30.1212C207.238 30.2259 207.47 30.1632 207.575 29.9813L207.595 29.9466C207.699 29.7646 207.637 29.5323 207.455 29.4277Z" fill="white" fill-opacity="0.15"/>
<path d="M238.899 25.8228L232.633 29.5286C232.453 29.6354 232.393 29.8685 232.5 30.0491L232.52 30.0836C232.627 30.2642 232.86 30.324 233.04 30.2172L239.307 26.5114C239.487 26.4046 239.547 26.1715 239.44 25.9909L239.42 25.9564C239.313 25.7758 239.08 25.716 238.899 25.8228Z" fill="white" fill-opacity="0.15"/>
<path d="M255.455 29.4277L249.144 25.7987C248.962 25.6941 248.73 25.7568 248.625 25.9387L248.605 25.9734C248.5 26.1553 248.563 26.3876 248.745 26.4923L255.056 30.1212C255.238 30.2259 255.47 30.1632 255.575 29.9813L255.595 29.9466C255.699 29.7646 255.637 29.5323 255.455 29.4277Z" fill="white" fill-opacity="0.15"/>
<path d="M286.899 25.8228L280.633 29.5286C280.453 29.6354 280.393 29.8685 280.5 30.0491L280.52 30.0836C280.627 30.2642 280.86 30.324 281.04 30.2172L287.307 26.5114C287.487 26.4046 287.547 26.1715 287.44 25.9909L287.42 25.9564C287.313 25.7758 287.08 25.716 286.899 25.8228Z" fill="white" fill-opacity="0.15"/>
<path d="M303.455 29.4277L297.144 25.7987C296.962 25.6941 296.73 25.7568 296.625 25.9387L296.605 25.9734C296.5 26.1553 296.563 26.3876 296.745 26.4923L303.056 30.1212C303.238 30.2259 303.47 30.1632 303.575 29.9813L303.595 29.9466C303.699 29.7646 303.637 29.5323 303.455 29.4277Z" fill="white" fill-opacity="0.15"/>
<path d="M0 28.3C0 28.12 0 27.9367 0 27.75L7.6 27.69C7.68667 27.69 7.73 27.7367 7.73 27.83L7.72 28.11C7.72 28.2833 7.63333 28.37 7.46 28.37L0 28.3Z" fill="white" fill-opacity="0.15"/>
<path d="M55.4793 27.5939L48.5193 27.6061C48.3702 27.6064 48.2495 27.7275 48.2497 27.8766L48.2502 28.1366C48.2505 28.2857 48.3715 28.4064 48.5207 28.4061L55.4807 28.3939C55.6298 28.3937 55.7504 28.2726 55.7502 28.1235L55.7497 27.8635C55.7495 27.7144 55.6284 27.5937 55.4793 27.5939Z" fill="white" fill-opacity="0.15"/>
<path d="M103.479 27.5939L96.5193 27.6061C96.3702 27.6064 96.2495 27.7275 96.2497 27.8766L96.2502 28.1366C96.2505 28.2857 96.3715 28.4064 96.5207 28.4061L103.481 28.3939C103.63 28.3937 103.75 28.2726 103.75 28.1235L103.75 27.8635C103.749 27.7144 103.628 27.5937 103.479 27.5939Z" fill="white" fill-opacity="0.15"/>
<path d="M151.479 27.5939L144.519 27.6061C144.37 27.6064 144.249 27.7275 144.25 27.8766L144.25 28.1366C144.25 28.2857 144.372 28.4064 144.521 28.4061L151.481 28.3939C151.63 28.3937 151.75 28.2726 151.75 28.1235L151.75 27.8635C151.749 27.7144 151.628 27.5937 151.479 27.5939Z" fill="white" fill-opacity="0.15"/>
<path d="M199.479 27.5939L192.519 27.6061C192.37 27.6064 192.249 27.7275 192.25 27.8766L192.25 28.1366C192.25 28.2857 192.372 28.4064 192.521 28.4061L199.481 28.3939C199.63 28.3937 199.75 28.2726 199.75 28.1235L199.75 27.8635C199.749 27.7144 199.628 27.5937 199.479 27.5939Z" fill="white" fill-opacity="0.15"/>
<path d="M247.489 27.5939L240.509 27.6061C240.36 27.6064 240.239 27.7275 240.24 27.8766L240.24 28.1366C240.24 28.2857 240.362 28.4064 240.511 28.4061L247.491 28.3939C247.64 28.3937 247.76 28.2726 247.76 28.1234L247.76 27.8634C247.759 27.7143 247.638 27.5937 247.489 27.5939Z" fill="white" fill-opacity="0.15"/>
<path d="M295.479 27.5939L288.519 27.6061C288.37 27.6064 288.249 27.7275 288.25 27.8766L288.25 28.1366C288.25 28.2857 288.372 28.4064 288.521 28.4061L295.481 28.3939C295.63 28.3937 295.75 28.2726 295.75 28.1235L295.75 27.8635C295.749 27.7144 295.628 27.5937 295.479 27.5939Z" fill="white" fill-opacity="0.15"/>
<path d="M9.9455 32.4638L9.91107 32.4842C9.73042 32.591 9.67059 32.8241 9.77742 33.0047L13.5138 39.3225C13.6206 39.5032 13.8537 39.563 14.0343 39.4562L14.0687 39.4358C14.2494 39.329 14.3092 39.096 14.2024 38.9153L10.466 32.5975C10.3592 32.4168 10.1261 32.357 9.9455 32.4638Z" fill="white" fill-opacity="0.15"/>
<path d="M20.123 32.2404L19.883 32.2396C19.7339 32.2391 19.6126 32.3595 19.6121 32.5086L19.5879 39.4486C19.5873 39.5977 19.7078 39.719 19.8569 39.7195L20.0969 39.7204C20.246 39.7209 20.3673 39.6004 20.3679 39.4513L20.3921 32.5114C20.3926 32.3623 20.2721 32.2409 20.123 32.2404Z" fill="white" fill-opacity="0.15"/>
<path d="M57.9517 32.4602L57.9173 32.4805C57.7364 32.5871 57.6762 32.82 57.7827 33.0008L61.508 39.3252C61.6146 39.506 61.8475 39.5662 62.0283 39.4597L62.0628 39.4394C62.2436 39.3329 62.3039 39.1 62.1973 38.9191L58.472 32.5948C58.3655 32.414 58.1326 32.3537 57.9517 32.4602Z" fill="white" fill-opacity="0.15"/>
<path d="M68.123 32.2404L67.883 32.2396C67.7339 32.2391 67.6126 32.3595 67.6121 32.5086L67.5879 39.4486C67.5873 39.5977 67.7078 39.719 67.8569 39.7195L68.0969 39.7204C68.246 39.7209 68.3673 39.6004 68.3679 39.4513L68.3921 32.5114C68.3926 32.3623 68.2721 32.2409 68.123 32.2404Z" fill="white" fill-opacity="0.15"/>
<path d="M105.952 32.4602L105.917 32.4805C105.736 32.5871 105.676 32.82 105.783 33.0008L109.508 39.3252C109.615 39.506 109.847 39.5662 110.028 39.4597L110.063 39.4394C110.244 39.3329 110.304 39.1 110.197 38.9191L106.472 32.5948C106.365 32.414 106.133 32.3537 105.952 32.4602Z" fill="white" fill-opacity="0.15"/>
<path d="M116.123 32.2404L115.883 32.2396C115.734 32.2391 115.613 32.3595 115.612 32.5086L115.588 39.4486C115.587 39.5977 115.708 39.719 115.857 39.7195L116.097 39.7204C116.246 39.7209 116.367 39.6004 116.368 39.4513L116.392 32.5114C116.393 32.3623 116.272 32.2409 116.123 32.2404Z" fill="white" fill-opacity="0.15"/>
<path d="M153.952 32.4602L153.917 32.4805C153.736 32.5871 153.676 32.82 153.783 33.0008L157.508 39.3252C157.615 39.506 157.847 39.5662 158.028 39.4597L158.063 39.4394C158.244 39.3329 158.304 39.1 158.197 38.9191L154.472 32.5948C154.365 32.414 154.133 32.3537 153.952 32.4602Z" fill="white" fill-opacity="0.15"/>
<path d="M164.123 32.2404L163.883 32.2396C163.734 32.2391 163.613 32.3595 163.612 32.5086L163.588 39.4486C163.587 39.5977 163.708 39.719 163.857 39.7195L164.097 39.7204C164.246 39.7209 164.367 39.6004 164.368 39.4513L164.392 32.5114C164.393 32.3623 164.272 32.2409 164.123 32.2404Z" fill="white" fill-opacity="0.15"/>
<path d="M201.952 32.4602L201.917 32.4805C201.736 32.5871 201.676 32.82 201.783 33.0008L205.508 39.3252C205.615 39.506 205.847 39.5662 206.028 39.4597L206.063 39.4394C206.244 39.3329 206.304 39.1 206.197 38.9191L202.472 32.5948C202.365 32.414 202.133 32.3537 201.952 32.4602Z" fill="white" fill-opacity="0.15"/>
<path d="M212.123 32.2404L211.883 32.2396C211.734 32.2391 211.613 32.3595 211.612 32.5086L211.588 39.4486C211.587 39.5977 211.708 39.719 211.857 39.7195L212.097 39.7204C212.246 39.7209 212.367 39.6004 212.368 39.4513L212.392 32.5114C212.393 32.3623 212.272 32.2409 212.123 32.2404Z" fill="white" fill-opacity="0.15"/>
<path d="M249.952 32.4602L249.917 32.4805C249.736 32.5871 249.676 32.82 249.783 33.0008L253.508 39.3252C253.615 39.506 253.847 39.5662 254.028 39.4597L254.063 39.4394C254.244 39.3329 254.304 39.1 254.197 38.9191L250.472 32.5948C250.365 32.414 250.133 32.3537 249.952 32.4602Z" fill="white" fill-opacity="0.15"/>
<path d="M260.123 32.2404L259.883 32.2396C259.734 32.2391 259.613 32.3595 259.612 32.5086L259.588 39.4486C259.587 39.5977 259.708 39.719 259.857 39.7195L260.097 39.7204C260.246 39.7209 260.367 39.6004 260.368 39.4513L260.392 32.5114C260.393 32.3623 260.272 32.2409 260.123 32.2404Z" fill="white" fill-opacity="0.15"/>
<path d="M297.96 32.4552L297.909 32.4856C297.733 32.5893 297.674 32.8161 297.778 32.9922L301.513 39.3338C301.617 39.5099 301.844 39.5685 302.02 39.4648L302.071 39.4344C302.247 39.3306 302.306 39.1038 302.202 38.9278L298.467 32.5862C298.363 32.4101 298.136 32.3514 297.96 32.4552Z" fill="white" fill-opacity="0.15"/>
<path d="M308.116 32.2402L307.876 32.2398C307.727 32.2395 307.606 32.3602 307.606 32.5093L307.594 39.4293C307.594 39.5784 307.714 39.6995 307.863 39.6998L308.103 39.7002C308.253 39.7005 308.374 39.5798 308.374 39.4307L308.386 32.5107C308.386 32.3616 308.266 32.2405 308.116 32.2402Z" fill="white" fill-opacity="0.15"/>
<path d="M29.9804 32.5531L29.963 32.5431C29.7759 32.4364 29.5378 32.5016 29.431 32.6887L25.834 38.9949C25.7273 39.182 25.7925 39.4202 25.9795 39.5269L25.9969 39.5369C26.184 39.6436 26.4222 39.5784 26.5289 39.3913L30.1259 33.085C30.2327 32.898 30.1675 32.6598 29.9804 32.5531Z" fill="white" fill-opacity="0.15"/>
<path d="M77.9804 32.5531L77.963 32.5431C77.7759 32.4364 77.5378 32.5016 77.431 32.6887L73.834 38.9949C73.7273 39.182 73.7925 39.4202 73.9795 39.5269L73.9969 39.5369C74.184 39.6436 74.4222 39.5784 74.5289 39.3913L78.1259 33.085C78.2327 32.898 78.1675 32.6598 77.9804 32.5531Z" fill="white" fill-opacity="0.15"/>
<path d="M125.98 32.5531L125.963 32.5431C125.776 32.4364 125.538 32.5016 125.431 32.6887L121.834 38.9949C121.727 39.182 121.792 39.4202 121.98 39.5269L121.997 39.5369C122.184 39.6436 122.422 39.5784 122.529 39.3913L126.126 33.085C126.233 32.898 126.168 32.6598 125.98 32.5531Z" fill="white" fill-opacity="0.15"/>
<path d="M173.98 32.5531L173.963 32.5431C173.776 32.4364 173.538 32.5016 173.431 32.6887L169.834 38.9949C169.727 39.182 169.792 39.4202 169.98 39.5269L169.997 39.5369C170.184 39.6436 170.422 39.5784 170.529 39.3913L174.126 33.085C174.233 32.898 174.168 32.6598 173.98 32.5531Z" fill="white" fill-opacity="0.15"/>
<path d="M221.98 32.5531L221.963 32.5431C221.776 32.4364 221.538 32.5016 221.431 32.6887L217.834 38.9949C217.727 39.182 217.792 39.4202 217.98 39.5269L217.997 39.5369C218.184 39.6436 218.422 39.5784 218.529 39.3913L222.126 33.085C222.233 32.898 222.168 32.6598 221.98 32.5531Z" fill="white" fill-opacity="0.15"/>
<path d="M269.98 32.5531L269.963 32.5431C269.776 32.4364 269.538 32.5016 269.431 32.6887L265.834 38.9949C265.727 39.182 265.792 39.4202 265.98 39.5269L265.997 39.5369C266.184 39.6436 266.422 39.5784 266.529 39.3913L270.126 33.085C270.233 32.898 270.168 32.6598 269.98 32.5531Z" fill="white" fill-opacity="0.15"/>
<path d="M317.98 32.5531L317.963 32.5431C317.776 32.4364 317.538 32.5016 317.431 32.6887L313.834 38.9949C313.727 39.182 313.792 39.4202 313.98 39.5269L313.997 39.5369C314.184 39.6436 314.422 39.5784 314.529 39.3913L318.126 33.085C318.233 32.898 318.168 32.6598 317.98 32.5531Z" fill="white" fill-opacity="0.15"/>
<path d="M7.44988 37.4091L1.13887 33.7801C0.952149 33.6727 0.713741 33.7371 0.606371 33.9238L0.586432 33.9585C0.479062 34.1452 0.543389 34.3836 0.730111 34.491L7.04112 38.1199C7.22784 38.2273 7.46625 38.163 7.57362 37.9763L7.59356 37.9416C7.70093 37.7549 7.6366 37.5165 7.44988 37.4091Z" fill="white" fill-opacity="0.15"/>
<path d="M38.8994 33.8228L32.6332 37.5286C32.4526 37.6354 32.3928 37.8685 32.4996 38.0491L32.5199 38.0836C32.6268 38.2642 32.8598 38.324 33.0405 38.2172L39.3067 34.5114C39.4873 34.4046 39.5471 34.1715 39.4403 33.9909L39.42 33.9564C39.3131 33.7758 39.0801 33.716 38.8994 33.8228Z" fill="white" fill-opacity="0.15"/>
<path d="M55.4524 37.4336L49.1477 33.7936C48.9659 33.6886 48.7335 33.7509 48.6286 33.9327L48.6086 33.9673C48.5037 34.1491 48.5659 34.3815 48.7477 34.4864L55.0524 38.1264C55.2341 38.2313 55.4665 38.1691 55.5714 37.9873L55.5914 37.9527C55.6964 37.7709 55.6341 37.5385 55.4524 37.4336Z" fill="white" fill-opacity="0.15"/>
<path d="M86.8994 33.8228L80.6332 37.5286C80.4526 37.6354 80.3928 37.8685 80.4996 38.0491L80.5199 38.0836C80.6268 38.2642 80.8598 38.324 81.0405 38.2172L87.3067 34.5114C87.4873 34.4046 87.5471 34.1715 87.4403 33.9909L87.42 33.9564C87.3131 33.7758 87.0801 33.716 86.8994 33.8228Z" fill="white" fill-opacity="0.15"/>
<path d="M103.452 37.4336L97.1477 33.7936C96.9659 33.6886 96.7335 33.7509 96.6286 33.9327L96.6086 33.9673C96.5037 34.1491 96.5659 34.3815 96.7477 34.4864L103.052 38.1264C103.234 38.2313 103.467 38.1691 103.571 37.9873L103.591 37.9527C103.696 37.7709 103.634 37.5385 103.452 37.4336Z" fill="white" fill-opacity="0.15"/>
<path d="M134.899 33.8228L128.633 37.5286C128.453 37.6354 128.393 37.8685 128.5 38.0491L128.52 38.0836C128.627 38.2642 128.86 38.324 129.04 38.2172L135.307 34.5114C135.487 34.4046 135.547 34.1715 135.44 33.9909L135.42 33.9564C135.313 33.7758 135.08 33.716 134.899 33.8228Z" fill="white" fill-opacity="0.15"/>
<path d="M151.452 37.4336L145.148 33.7936C144.966 33.6886 144.734 33.7509 144.629 33.9327L144.609 33.9673C144.504 34.1491 144.566 34.3815 144.748 34.4864L151.052 38.1264C151.234 38.2313 151.467 38.1691 151.571 37.9873L151.591 37.9527C151.696 37.7709 151.634 37.5385 151.452 37.4336Z" fill="white" fill-opacity="0.15"/>
<path d="M182.899 33.8228L176.633 37.5286C176.453 37.6354 176.393 37.8685 176.5 38.0491L176.52 38.0836C176.627 38.2642 176.86 38.324 177.04 38.2172L183.307 34.5114C183.487 34.4046 183.547 34.1715 183.44 33.9909L183.42 33.9564C183.313 33.7758 183.08 33.716 182.899 33.8228Z" fill="white" fill-opacity="0.15"/>
<path d="M199.452 37.4336L193.148 33.7936C192.966 33.6886 192.734 33.7509 192.629 33.9327L192.609 33.9673C192.504 34.1491 192.566 34.3815 192.748 34.4864L199.052 38.1264C199.234 38.2313 199.467 38.1691 199.571 37.9873L199.591 37.9527C199.696 37.7709 199.634 37.5385 199.452 37.4336Z" fill="white" fill-opacity="0.15"/>
<path d="M230.899 33.8228L224.633 37.5286C224.453 37.6354 224.393 37.8685 224.5 38.0491L224.52 38.0836C224.627 38.2642 224.86 38.324 225.04 38.2172L231.307 34.5114C231.487 34.4046 231.547 34.1715 231.44 33.9909L231.42 33.9564C231.313 33.7758 231.08 33.716 230.899 33.8228Z" fill="white" fill-opacity="0.15"/>
<path d="M247.452 37.4336L241.148 33.7936C240.966 33.6886 240.734 33.7509 240.629 33.9327L240.609 33.9673C240.504 34.1491 240.566 34.3815 240.748 34.4864L247.052 38.1264C247.234 38.2313 247.467 38.1691 247.571 37.9873L247.591 37.9527C247.696 37.7709 247.634 37.5385 247.452 37.4336Z" fill="white" fill-opacity="0.15"/>
<path d="M278.899 33.8228L272.633 37.5286C272.453 37.6354 272.393 37.8685 272.5 38.0491L272.52 38.0836C272.627 38.2642 272.86 38.324 273.04 38.2172L279.307 34.5114C279.487 34.4046 279.547 34.1715 279.44 33.9909L279.42 33.9564C279.313 33.7758 279.08 33.716 278.899 33.8228Z" fill="white" fill-opacity="0.15"/>
<path d="M326.92 33.8228L320.654 37.5286C320.473 37.6354 320.413 37.8685 320.52 38.0491L320.54 38.0836C320.647 38.2642 320.88 38.324 321.061 38.2172L327.327 34.5114C327.508 34.4046 327.568 34.1715 327.461 33.9909L327.44 33.9564C327.334 33.7758 327.101 33.716 326.92 33.8228Z" fill="white" fill-opacity="0.15"/>
<path d="M295.452 37.4336L289.148 33.7936C288.966 33.6886 288.734 33.7509 288.629 33.9327L288.609 33.9673C288.504 34.1491 288.566 34.3815 288.748 34.4864L295.052 38.1264C295.234 38.2313 295.467 38.1691 295.571 37.9873L295.591 37.9527C295.696 37.7709 295.634 37.5385 295.452 37.4336Z" fill="white" fill-opacity="0.15"/>
<path d="M47.4893 35.5939L40.5293 35.6061C40.3802 35.6064 40.2595 35.7275 40.2597 35.8766L40.2602 36.1366C40.2605 36.2857 40.3816 36.4064 40.5307 36.4061L47.4907 36.3939C47.6398 36.3937 47.7605 36.2726 47.7602 36.1235L47.7597 35.8635C47.7595 35.7144 47.6384 35.5937 47.4893 35.5939Z" fill="white" fill-opacity="0.15"/>
<path d="M95.4893 35.5939L88.5293 35.6061C88.3802 35.6064 88.2595 35.7275 88.2597 35.8766L88.2602 36.1366C88.2605 36.2857 88.3816 36.4064 88.5307 36.4061L95.4907 36.3939C95.6398 36.3937 95.7605 36.2726 95.7602 36.1235L95.7597 35.8635C95.7595 35.7144 95.6384 35.5937 95.4893 35.5939Z" fill="white" fill-opacity="0.15"/>
<path d="M143.489 35.5939L136.529 35.6061C136.38 35.6064 136.259 35.7275 136.26 35.8766L136.26 36.1366C136.26 36.2857 136.382 36.4064 136.531 36.4061L143.491 36.3939C143.64 36.3937 143.76 36.2726 143.76 36.1235L143.76 35.8635C143.759 35.7144 143.638 35.5937 143.489 35.5939Z" fill="white" fill-opacity="0.15"/>
<path d="M191.489 35.5939L184.529 35.6061C184.38 35.6064 184.259 35.7275 184.26 35.8766L184.26 36.1366C184.26 36.2857 184.382 36.4064 184.531 36.4061L191.491 36.3939C191.64 36.3937 191.76 36.2726 191.76 36.1235L191.76 35.8635C191.759 35.7144 191.638 35.5937 191.489 35.5939Z" fill="white" fill-opacity="0.15"/>
<path d="M239.489 35.5939L232.529 35.6061C232.38 35.6064 232.259 35.7275 232.26 35.8766L232.26 36.1366C232.26 36.2857 232.382 36.4064 232.531 36.4061L239.491 36.3939C239.64 36.3937 239.76 36.2726 239.76 36.1235L239.76 35.8635C239.759 35.7144 239.638 35.5937 239.489 35.5939Z" fill="white" fill-opacity="0.15"/>
<path d="M287.49 35.6H280.53C280.381 35.6 280.26 35.7209 280.26 35.87V36.13C280.26 36.2791 280.381 36.4 280.53 36.4H287.49C287.639 36.4 287.76 36.2791 287.76 36.13V35.87C287.76 35.7209 287.639 35.6 287.49 35.6Z" fill="white" fill-opacity="0.15"/>
<path d="M4.25011 44H3.63011C2.89678 43.0733 2.42011 42.3367 2.20011 41.79C1.47344 40.03 1.73011 39.8733 2.97011 41.32C3.34344 41.7467 3.77011 42.64 4.25011 44Z" fill="white" fill-opacity="0.15"/>
<path d="M12.4101 43.51C12.4101 43.71 12.3134 43.8033 12.1201 43.79L11.7601 43.76C11.7106 43.755 11.6647 43.7318 11.6314 43.6948C11.5981 43.6578 11.5798 43.6098 11.5801 43.56L11.5901 40.44C11.5901 40.2933 11.6634 40.2267 11.8101 40.24L12.2301 40.29C12.2761 40.2926 12.3193 40.3127 12.3509 40.3461C12.3826 40.3796 12.4002 40.424 12.4001 40.47L12.4101 43.51Z" fill="white" fill-opacity="0.15"/>
<path d="M52.2499 44H51.6299C50.9032 43.0733 50.4266 42.34 50.1999 41.8C49.4666 40.02 49.7232 39.86 50.9699 41.32C51.3366 41.7533 51.7632 42.6466 52.2499 44Z" fill="white" fill-opacity="0.15"/>
<path d="M60.4101 43.5C60.4101 43.7067 60.3067 43.8034 60.1001 43.79L59.7601 43.76C59.7106 43.7551 59.6647 43.7318 59.6314 43.6948C59.5981 43.6578 59.5798 43.6098 59.5801 43.56L59.5901 40.44C59.5901 40.2867 59.6634 40.22 59.8101 40.24L60.2201 40.28C60.3401 40.2934 60.4001 40.3567 60.4001 40.47L60.4101 43.5Z" fill="white" fill-opacity="0.15"/>
<path d="M100.25 44H99.6299C98.9032 43.0733 98.4266 42.34 98.1999 41.8C97.4666 40.02 97.7232 39.86 98.9699 41.32C99.3366 41.7533 99.7632 42.6466 100.25 44Z" fill="white" fill-opacity="0.15"/>
<path d="M108.41 43.5C108.41 43.7067 108.307 43.8034 108.1 43.79L107.76 43.76C107.711 43.7551 107.665 43.7318 107.631 43.6948C107.598 43.6578 107.58 43.6098 107.58 43.56L107.59 40.44C107.59 40.2867 107.663 40.22 107.81 40.24L108.22 40.28C108.34 40.2934 108.4 40.3567 108.4 40.47L108.41 43.5Z" fill="white" fill-opacity="0.15"/>
<path d="M148.25 44H147.63C146.903 43.0733 146.427 42.34 146.2 41.8C145.467 40.02 145.723 39.86 146.97 41.32C147.337 41.7533 147.763 42.6466 148.25 44Z" fill="white" fill-opacity="0.15"/>
<path d="M156.41 43.5C156.41 43.7067 156.307 43.8034 156.1 43.79L155.76 43.76C155.711 43.7551 155.665 43.7318 155.631 43.6948C155.598 43.6578 155.58 43.6098 155.58 43.56L155.59 40.44C155.59 40.2867 155.663 40.22 155.81 40.24L156.22 40.28C156.34 40.2934 156.4 40.3567 156.4 40.47L156.41 43.5Z" fill="white" fill-opacity="0.15"/>
<path d="M196.25 44H195.63C194.903 43.0733 194.427 42.34 194.2 41.8C193.467 40.02 193.723 39.86 194.97 41.32C195.337 41.7533 195.763 42.6466 196.25 44Z" fill="white" fill-opacity="0.15"/>
<path d="M204.41 43.5C204.41 43.7067 204.307 43.8034 204.1 43.79L203.76 43.76C203.711 43.7551 203.665 43.7318 203.631 43.6948C203.598 43.6578 203.58 43.6098 203.58 43.56L203.59 40.44C203.59 40.2867 203.663 40.22 203.81 40.24L204.22 40.28C204.34 40.2934 204.4 40.3567 204.4 40.47L204.41 43.5Z" fill="white" fill-opacity="0.15"/>
<path d="M244.25 44H243.63C242.903 43.0733 242.427 42.34 242.2 41.8C241.467 40.02 241.723 39.86 242.97 41.32C243.337 41.7533 243.763 42.6466 244.25 44Z" fill="white" fill-opacity="0.15"/>
<path d="M252.41 43.5C252.41 43.7067 252.307 43.8034 252.1 43.79L251.76 43.76C251.711 43.7551 251.665 43.7318 251.631 43.6948C251.598 43.6578 251.58 43.6098 251.58 43.56L251.59 40.44C251.59 40.2867 251.663 40.22 251.81 40.24L252.22 40.28C252.34 40.2934 252.4 40.3567 252.4 40.47L252.41 43.5Z" fill="white" fill-opacity="0.15"/>
<path d="M292.25 44H291.63C290.903 43.0733 290.427 42.3367 290.2 41.79C289.467 40.0167 289.723 39.86 290.97 41.32C291.337 41.7533 291.763 42.6467 292.25 44Z" fill="white" fill-opacity="0.15"/>
<path d="M300.41 43.5C300.41 43.7067 300.307 43.8 300.1 43.78L299.76 43.76C299.711 43.755 299.665 43.7318 299.631 43.6948C299.598 43.6578 299.58 43.6098 299.58 43.56L299.59 40.44C299.59 40.2933 299.663 40.2267 299.81 40.24L300.22 40.28C300.34 40.2933 300.4 40.3567 300.4 40.47L300.41 43.5Z" fill="white" fill-opacity="0.15"/>
<path d="M20.4 44H19.77C20.1234 42.7866 20.7367 41.6633 21.61 40.63C21.7767 40.4366 21.9467 40.43 22.12 40.61C22.2067 40.7033 22.2234 40.8333 22.17 41C21.9834 41.5533 21.3934 42.5533 20.4 44Z" fill="white" fill-opacity="0.15"/>
<path d="M68.4 44H67.77C68.1234 42.7866 68.7367 41.6633 69.61 40.63C69.7767 40.4366 69.9467 40.43 70.12 40.61C70.2067 40.7033 70.2234 40.8333 70.17 41C69.9834 41.5533 69.3934 42.5533 68.4 44Z" fill="white" fill-opacity="0.15"/>
<path d="M116.4 44H115.77C116.123 42.7866 116.737 41.6633 117.61 40.63C117.777 40.4366 117.947 40.43 118.12 40.61C118.207 40.7033 118.223 40.8333 118.17 41C117.983 41.5533 117.393 42.5533 116.4 44Z" fill="white" fill-opacity="0.15"/>
<path d="M164.4 44H163.77C164.123 42.7866 164.737 41.6633 165.61 40.63C165.777 40.4366 165.947 40.43 166.12 40.61C166.207 40.7033 166.223 40.8333 166.17 41C165.983 41.5533 165.393 42.5533 164.4 44Z" fill="white" fill-opacity="0.15"/>
<path d="M212.4 44H211.77C212.123 42.7866 212.737 41.6633 213.61 40.63C213.777 40.4366 213.947 40.43 214.12 40.61C214.207 40.7033 214.223 40.8333 214.17 41C213.983 41.5533 213.393 42.5533 212.4 44Z" fill="white" fill-opacity="0.15"/>
<path d="M260.4 44H259.77C260.123 42.7866 260.737 41.6633 261.61 40.63C261.777 40.4366 261.947 40.43 262.12 40.61C262.207 40.7033 262.223 40.8333 262.17 41C261.983 41.5466 261.393 42.5466 260.4 44Z" fill="white" fill-opacity="0.15"/>
<path d="M308.28 44C308.107 44 307.937 44 307.77 44C308.137 42.74 308.787 41.5766 309.72 40.51C309.773 40.45 309.83 40.4433 309.89 40.49C309.963 40.5366 310.037 40.5866 310.11 40.64C310.183 40.6933 310.203 40.7633 310.17 40.85C309.717 42.03 309.087 43.08 308.28 44Z" fill="white" fill-opacity="0.15"/>
<path d="M28.0901 43.35L30.9901 41.84C31.0214 41.8233 31.0557 41.8132 31.0913 41.8101C31.1268 41.8071 31.1628 41.8113 31.1971 41.8225C31.2315 41.8336 31.2636 41.8515 31.2915 41.8751C31.3195 41.8987 31.3428 41.9275 31.3601 41.96C31.4134 42.06 31.4301 42.16 31.4101 42.26C31.3967 42.32 31.3601 42.3767 31.3001 42.43C30.3601 43.2767 29.3401 43.7567 28.2401 43.87C27.2934 43.97 27.2434 43.7967 28.0901 43.35Z" fill="white" fill-opacity="0.15"/>
<path d="M43.9901 44H43.5801C42.3401 43.6267 41.4067 43.07 40.7801 42.33C40.3401 41.8234 40.4367 41.6834 41.0701 41.91C42.1834 42.3034 43.2067 42.8167 44.1401 43.45C44.1675 43.4675 44.1909 43.4907 44.2089 43.518C44.2269 43.5454 44.239 43.5763 44.2446 43.6091C44.2503 43.6418 44.2492 43.6756 44.2415 43.7085C44.2339 43.7413 44.2198 43.7724 44.2001 43.8C44.1534 43.8667 44.0834 43.9334 43.9901 44Z" fill="white" fill-opacity="0.15"/>
<path d="M76.0901 43.35L78.9901 41.84C79.0553 41.8081 79.1303 41.8029 79.1993 41.8252C79.2683 41.8476 79.326 41.8959 79.3601 41.96C79.4134 42.0533 79.4301 42.15 79.4101 42.25C79.3967 42.31 79.3601 42.37 79.3001 42.43C78.3601 43.2833 77.3401 43.7633 76.2401 43.87C75.2934 43.9633 75.2434 43.79 76.0901 43.35Z" fill="white" fill-opacity="0.15"/>
<path d="M91.9901 44H91.5801C90.3401 43.6267 89.4067 43.07 88.7801 42.33C88.3401 41.8234 88.4367 41.6834 89.0701 41.91C90.1834 42.3034 91.2067 42.8167 92.1401 43.45C92.1675 43.4675 92.1909 43.4907 92.2089 43.518C92.2269 43.5454 92.239 43.5763 92.2446 43.6091C92.2503 43.6418 92.2492 43.6756 92.2415 43.7085C92.2339 43.7413 92.2198 43.7724 92.2001 43.8C92.1534 43.8667 92.0834 43.9334 91.9901 44Z" fill="white" fill-opacity="0.15"/>
<path d="M124.09 43.35L126.99 41.84C127.055 41.8081 127.13 41.8029 127.199 41.8252C127.268 41.8476 127.326 41.8959 127.36 41.96C127.413 42.0533 127.43 42.15 127.41 42.25C127.397 42.31 127.36 42.37 127.3 42.43C126.36 43.2833 125.34 43.7633 124.24 43.87C123.293 43.9633 123.243 43.79 124.09 43.35Z" fill="white" fill-opacity="0.15"/>
<path d="M139.99 44C139.75 44.02 139.613 44.02 139.58 44C138.34 43.6267 137.407 43.07 136.78 42.33C136.34 41.8234 136.437 41.6834 137.07 41.91C138.183 42.3034 139.207 42.8167 140.14 43.45C140.168 43.4675 140.191 43.4907 140.209 43.518C140.227 43.5454 140.239 43.5763 140.245 43.6091C140.25 43.6418 140.249 43.6756 140.242 43.7085C140.234 43.7413 140.22 43.7724 140.2 43.8C140.153 43.8667 140.083 43.9334 139.99 44Z" fill="white" fill-opacity="0.15"/>
<path d="M172.09 43.35L174.99 41.84C175.055 41.8081 175.13 41.8029 175.199 41.8252C175.268 41.8476 175.326 41.8959 175.36 41.96C175.413 42.0533 175.43 42.15 175.41 42.25C175.397 42.31 175.36 42.37 175.3 42.43C174.36 43.2833 173.34 43.7633 172.24 43.87C171.293 43.9633 171.243 43.79 172.09 43.35Z" fill="white" fill-opacity="0.15"/>
<path d="M187.99 44H187.58C186.34 43.6267 185.407 43.07 184.78 42.33C184.34 41.8234 184.437 41.6834 185.07 41.91C186.183 42.3034 187.207 42.8167 188.14 43.45C188.168 43.4675 188.191 43.4907 188.209 43.518C188.227 43.5454 188.239 43.5763 188.245 43.6091C188.25 43.6418 188.249 43.6756 188.242 43.7085C188.234 43.7413 188.22 43.7724 188.2 43.8C188.153 43.8667 188.083 43.9334 187.99 44Z" fill="white" fill-opacity="0.15"/>
<path d="M220.09 43.35L222.99 41.84C223.055 41.8081 223.13 41.8029 223.199 41.8252C223.268 41.8476 223.326 41.8959 223.36 41.96C223.413 42.0533 223.43 42.15 223.41 42.25C223.397 42.31 223.36 42.37 223.3 42.43C222.36 43.2833 221.34 43.7633 220.24 43.87C219.293 43.9633 219.243 43.79 220.09 43.35Z" fill="white" fill-opacity="0.15"/>
<path d="M235.99 44H235.58C234.34 43.6267 233.407 43.07 232.78 42.33C232.34 41.8234 232.437 41.6834 233.07 41.91C234.183 42.3034 235.207 42.8167 236.14 43.45C236.168 43.4675 236.191 43.4907 236.209 43.518C236.227 43.5454 236.239 43.5763 236.245 43.6091C236.25 43.6418 236.249 43.6756 236.242 43.7085C236.234 43.7413 236.22 43.7724 236.2 43.8C236.153 43.8667 236.083 43.9334 235.99 44Z" fill="white" fill-opacity="0.15"/>
<path d="M268.09 43.35L270.99 41.84C271.055 41.8081 271.13 41.8029 271.199 41.8252C271.268 41.8476 271.326 41.8959 271.36 41.96C271.413 42.0533 271.43 42.15 271.41 42.25C271.397 42.31 271.36 42.37 271.3 42.43C270.36 43.2833 269.34 43.7633 268.24 43.87C267.293 43.9633 267.243 43.79 268.09 43.35Z" fill="white" fill-opacity="0.15"/>
<path d="M283.99 44C283.75 44.02 283.613 44.02 283.58 44C282.34 43.6267 281.407 43.07 280.78 42.33C280.34 41.8234 280.437 41.68 281.07 41.9C282.183 42.3 283.207 42.8167 284.14 43.45C284.168 43.4675 284.191 43.4907 284.209 43.518C284.227 43.5454 284.239 43.5763 284.245 43.6091C284.25 43.6418 284.249 43.6756 284.242 43.7084C284.234 43.7413 284.22 43.7724 284.2 43.8C284.153 43.8667 284.083 43.9333 283.99 44Z" fill="white" fill-opacity="0.15"/>
<path d="M319.45 42.75L316.34 43.97C316.187 44.0233 316.07 43.9833 315.99 43.85L315.8 43.54C315.753 43.4733 315.77 43.4233 315.85 43.39L318.5 42.17C318.847 42.01 319.12 42.0933 319.32 42.42C319.387 42.52 319.43 42.63 319.45 42.75Z" fill="white" fill-opacity="0.15"/>
<path d="M39.59 43.27C39.5966 43.27 39.6033 43.2734 39.61 43.28V43.59C39.61 43.67 39.5666 43.71 39.4799 43.71L32.33 43.61C32.21 43.6034 32.1533 43.5234 32.16 43.37C32.1733 43.2167 32.2766 43.15 32.47 43.17C34.8433 43.3834 37.2166 43.4167 39.59 43.27Z" fill="white" fill-opacity="0.15"/>
<path d="M87.5901 43.27C87.5967 43.2634 87.6034 43.2667 87.6101 43.28V43.56C87.6101 43.6667 87.5567 43.72 87.4501 43.72L80.5001 43.62C80.4545 43.6197 80.4094 43.613 80.3674 43.6001C80.3255 43.5873 80.2875 43.5687 80.2558 43.5454C80.2241 43.522 80.1992 43.4945 80.1828 43.4644C80.1664 43.4343 80.1586 43.4022 80.1601 43.37C80.1734 43.2167 80.2767 43.15 80.4701 43.17C82.8434 43.3834 85.2167 43.4167 87.5901 43.27Z" fill="white" fill-opacity="0.15"/>
<path d="M135.59 43.27C135.597 43.2634 135.603 43.2667 135.61 43.28V43.56C135.61 43.6667 135.557 43.72 135.45 43.72L128.5 43.62C128.455 43.6197 128.409 43.613 128.367 43.6001C128.325 43.5873 128.287 43.5687 128.256 43.5454C128.224 43.522 128.199 43.4945 128.183 43.4644C128.166 43.4343 128.159 43.4022 128.16 43.37C128.173 43.2167 128.277 43.15 128.47 43.17C130.843 43.3834 133.217 43.4167 135.59 43.27Z" fill="white" fill-opacity="0.15"/>
<path d="M183.59 43.27C183.597 43.2634 183.603 43.2667 183.61 43.28V43.56C183.61 43.6667 183.557 43.72 183.45 43.72L176.5 43.62C176.455 43.6197 176.409 43.613 176.367 43.6001C176.325 43.5873 176.287 43.5687 176.256 43.5454C176.224 43.522 176.199 43.4945 176.183 43.4644C176.166 43.4343 176.159 43.4022 176.16 43.37C176.173 43.2167 176.277 43.15 176.47 43.17C178.843 43.3834 181.217 43.4167 183.59 43.27Z" fill="white" fill-opacity="0.15"/>
<path d="M231.59 43.27C231.597 43.2634 231.603 43.2667 231.61 43.28V43.56C231.61 43.6667 231.557 43.72 231.45 43.72L224.5 43.62C224.455 43.6197 224.409 43.613 224.367 43.6001C224.325 43.5873 224.287 43.5687 224.256 43.5454C224.224 43.522 224.199 43.4945 224.183 43.4644C224.166 43.4343 224.159 43.4022 224.16 43.37C224.173 43.2167 224.277 43.15 224.47 43.17C226.843 43.3834 229.217 43.4167 231.59 43.27Z" fill="white" fill-opacity="0.15"/>
<path d="M279.59 43.27C279.603 43.2633 279.61 43.2666 279.61 43.28V43.56C279.61 43.6666 279.557 43.72 279.45 43.72L272.5 43.62C272.455 43.6197 272.409 43.6129 272.367 43.6001C272.325 43.5872 272.288 43.5686 272.256 43.5453C272.224 43.522 272.199 43.4944 272.183 43.4643C272.166 43.4342 272.159 43.4021 272.16 43.37C272.173 43.2166 272.277 43.15 272.47 43.17C274.843 43.3833 277.217 43.4166 279.59 43.27Z" fill="white" fill-opacity="0.15"/>
<path d="M327.611 43.27C327.624 43.2633 327.631 43.2666 327.631 43.28V43.56C327.631 43.6666 327.577 43.72 327.471 43.72L320.521 43.62C320.475 43.6197 320.43 43.6129 320.388 43.6001C320.346 43.5872 320.308 43.5686 320.276 43.5453C320.245 43.522 320.22 43.4944 320.203 43.4643C320.187 43.4342 320.179 43.4021 320.181 43.37C320.194 43.2166 320.297 43.15 320.491 43.17C322.864 43.3833 325.237 43.4166 327.611 43.27Z" fill="white" fill-opacity="0.15"/>
</g>
<defs>
<clipPath id="clip0_14497_44788">
<rect width="324" height="44" fill="white"/>
</clipPath>
</defs>
</svg>
