<svg xmlns="http://www.w3.org/2000/svg" viewBox="0 0 300 300"><path fill="#888B8F" d="M127.2 90.7c.4-.4 2.1-1.3 2.6-1.5 9.5-3.5 17-3.4 26.4.3-.7 2.6-.6 5.7-3.1 6.7s-5.3 1.1-7.9 1a57 57 0 01-14.3-2.4 6.2 6.2 0 01-3.1-1.6c-.9-.8-1.4-1.6-.6-2.5z"/><path fill="#888B8F" d="M137 77.8c2.9 1.3 6.2 1.9 9.4 1.7l6.7-.1s-.2 8.4-.7 9.8c-1.1 3-3.4 3.5-6.3 3.9-4.7.5-15.6 1.3-13.8-4.6 1-3.3.2-6.1.5-8.2l.4-3.8s1.9.4 3.8 1.3z"/><path fill="#686C71" d="M141.7 83.4c-1-.4-1.9-1.1-2.9-1.6s-2.2-.8-3.2-.4c-1.3.5-1.9 1.9-2.1 3.3-.2 1.3-.9 1.9-.9 3.2 1.2-.9 1.8-1.2 2.8-1.6 1-.4 2.1-.4 3.2-.3l5.1.2c1.4 0 2.8.1 4.1-.4 1.3-.5 3.6-1.8 3.7-3.2-2.8.8-7 1.9-9.8.8z"/><path fill="#606469" d="M132.4 88c.7-.9 1.4-1.4 1.6-2.5.3-1.1.8-2.2 1.8-2.7.7-.3 1.5-.2 2.2.1l2 1c3.3 1.7 7.6 1.3 10.5-.9l2.2 6.3c.3-2.8.2-6 0-8.9-2.5 1.5-5.9 3.4-8.7 3.1-4.1-.5-8.1-3.9-11.4-5.8.4 3.5.7 6.9-.2 10.3z"/><path fill="#6E7176" d="M165.3 113.5l4.8-8c.4 4.3-1.4-4.8-2.3-13.9 2.3 1.2 4.4 1.4 5.8 3.6l.3.6c1.7 4.7 12.1 17.9 15.4 24.8.4.8.9 1.3 1.4 2a16 16 0 002.3 16c.9 1.1-1.3 2.2-2.7 2a9.7 9.7 0 01-4.2-1.6c-1.5-1.3-3.1-3.2-4.4-4.7-1.7-1.9-2.8-2.6-4.2-4.7-1-1.4-11.2-14.6-12.2-16.1z"/><path fill="#76797E" d="M134.1 160.1c-1.2-10.1-1.7-9.2-2.2-19.4-1-19.1.8-31.6-.2-50.7 3.2 3.2 6.6 4.2 10.5 4.8 3.9.5 10.4-2.1 11.9-5.2 5.6-1.1 14.9 44.8 14.5 78.2-4.7.8-9.9 1.7-14.7 2.2-8.7.9-11.6 6.8-16.2-.7a20.9 20.9 0 01-3.6-9.2z"/><path fill="#74777C" d="M166.8 30.3c-.1-.8-.1-1.7.2-2.5.8-1.7 2.3-1.9 3.6-3.3 1.2 3.8 1.8 8 1.2 11.9-1.5 9.6-3.7 14.1-5.3 14.5-.4-5.8.8-14.8.3-20.6zm-51.5-5.2c2-.6 4.1 1.3 4.5 3.4.5 2.1-.1 4.2-.5 6.3-.8 4.2 1.6 11.6 2.5 15.7-1.1.1-4.3-2.5-5.5-2.4-2.1-5-3-10.8-3.6-16.2-.1-1.3.2-1.5.5-2.8.4-1.3.9-3.6 2.1-4z"/><path fill="#888B8F" d="M166.1 50.3c.7-1.1 2-2.9 3.4-2.7 3.6.6 2.3 6.1 1.3 8.7-.4 1.1-2.9 8.1-4.8 6.6m-44.5-12.6c-.7-1.2-2.1-2.9-3.5-2.7-3.7.6-2.3 6.2-1.3 8.9.4 1.1 3 7.1 4.9 6.7.1 0 .9-.3.9-.8"/><path fill="#888B8F" d="M164.9 29.3c3.1 4 2 18.3 2 18.3s-.2 10.8-2.4 19.1c-1.9 6.9-6.9 10.8-14.2 15.8-5 3.4-6.5 2.2-12.4-1-4.6-2.5-12.6-8.5-14.2-15.3-1.7-7-2.7-18.7-2.7-18.7s-2.2-7.8.3-16.2"/><path fill="#686C71" d="M166.3 31.8c-2.1-1.4-6.7-1.8-9.2-2.1-8.6-.8-17.3-1.4-26-.5-2.3.2-4.6.6-6.6 1.7-2.4 1.3-5.9 1.4-6.3 6.1-.2 2.7.8 5.7 2.2 8 .6-4.2 1.6-9 5.2-11.2 2.4-1.5 5.4-1.5 8.2-1.5l20.6.3c2.7 0 5.4.1 7.9.9 2.5.9 4.6 4.8 5.4 7.3.2-2.7.9-7.4-1.4-9z"/><path fill="#565A60" d="M120.4 47.6c-2.5-5.6-4.7-14.3-3-20.2a8.3 8.3 0 003.3 3.4c-1.9 4.6-.8 11.8-.3 16.8zM166 29.5a34 34 0 01.9 18c1.6-3 2.3-8.4 2-11.9-.3-3.4-.4-7.3 1.7-9.9l-3.5 2.5c-.5.4-1 .7-1.1 1.3z"/><path fill="#686C71" d="M117.4 51.8c.2-.9 1-1.7 1.9-1.5.5.1.8.5 1 1 .2.4.3.9.3 1.4l.4 3c.2 1.4.4 2.9.2 4.4l-2.6-4.2c-.7-1.3-1.5-2.7-1.2-4.1zm53-.3c-.2-.9-1-1.7-1.9-1.5-.5.1-.8.5-1 .9-.2.4-.3.9-.3 1.4l-.4 3c-.2 1.4-.4 2.9-.2 4.3l2.6-4.1c.7-1.3 1.5-2.6 1.2-4z"/><path fill="#565A60" d="M141.4 54.8a10.2 10.2 0 01-9.6 6.1c-4-.2-7.8-3.1-9-7-.7 2.6.6 5.4 2.7 7.1 2.1 1.7 4.9 2.3 7.6 2.2 2.3-.1 4.7-.7 6.5-2.2 1.7-1.5 2.6-4.1 1.8-6.2zm5.7 0c1.5 3.7 5.6 6.3 9.6 6.1 4-.2 7.8-3.1 9-7 .7 2.6-.6 5.4-2.7 7.1a11.4 11.4 0 01-7.6 2.2c-2.3-.1-4.7-.7-6.5-2.2-1.6-1.5-2.6-4.1-1.8-6.2z"/><path fill="#888B8F" d="M171.1 222.8v6.9c.1 2.3 1.5 15 .6 26s-.9 13.4-1 15.9c0 1.8-1 3.6-2.6 4.1-1.6.6-4.3-.8-5.2-2.3 0 0-4.3-15.1-5-21.1-.7-6-2.3-10.1-2.1-13.3.2-3.3-.3-9.8-.4-13.9"/><path fill="#565A60" d="M161.5 235.6c-1.3.2-2.7.5-3.6 1.5-.9 1.1-1 2.7-1 4.1.1 1.4.7 4.7.1 6-1.3-3.6-1.2-9.9-2-13.2 5.4.5 11.1 1 16.1-1.1.7 2.5 1 7.2.9 9.7-1.2-8.6-3.8-7.5-4.5-7.5-2 0-4 .2-6 .5z"/><path fill="#888B8F" d="M118.6 222.2l-.5 6.9c-.1 2.3-2.5 14.6-1.6 25.6.9 11 1 13.4 1 15.9 0 1.8 1.1 3.6 2.7 4.1 1.7.6 4.4-.8 5.4-2.3 0 0 3.8-13.1 4.5-19.1s1.6-10.3 1.4-13.5c-.2-3.3 1.8-10.6 1.9-14.7"/><path fill="#565A60" d="M130.8 247.1c0 .5-.2.9-.1 1.4.2-2.5 1.1-4.8 1.5-7.3.5-3.4.7-6.9.7-10.3l-8.6-.3c-1.6 0-3.2-.1-4.7.5s-2.8 2-2.7 3.5c1 1.4 3 1.7 4.7 1.8l4.9.3c.8.1 1.6.1 2.3.6.9.6 1.3 1.8 1.5 2.9.3 2.3.6 4.7.5 6.9z"/><path fill="#383D44" d="M118.2 224.9v2l-.1 2.3-.2 2.9-.9 7.3a57.5 57.5 0 00.1 16.8l.6 7.3.1 5.2-.1 2s0 .1-.1 0l-.2-2-.5-5.2-.6-7.3c-.2-2.7-.3-5.6-.2-8.4l.1-4.3c.1-1.4.1-2.8.3-4.1l.4-3.9.5-3.4a91.2 91.2 0 01.8-7.2zm7.3 47.5l1.6-7 1.6-7.1 1.8-8.2c.6-2.8 1.1-5.6 1.4-8.3l.5-3.8.5-3.4.8-5.1.1-2 .1-.1.1.1-.1 2c-.1 1.3-.3 3-.7 5.1l-.5 3.4-.4 3.8c-.3 2.7-.8 5.5-1.3 8.3l-.8 4.2-.9 4c-.6 2.6-1.1 5.1-1.7 7.1l-1.3 5-.5 1.9c0 .1-.1.2-.2.1-.1.2-.2.1-.1 0zm45.2-47.5l.3 2.1.2 2.4.2 3.1.4 3.6.2 4.1.3 4.3.1 2.2v2.3c.1 6-.2 12-.7 16.5l-.5 5.4-.3 2s0 .1-.1 0v-2.2l.2-5.4.3-7.7.1-4.3.1-4.5v-4.5l-.1-4.3-.4-4-.5-3.6-.2-5.4.4-2.1zm-7.9 48.6l-.5-2-1.3-5.2a519.2 519.2 0 01-3.4-15.9c-.5-2.9-1.1-5.8-1.4-8.6l-.4-4-.5-3.5-.7-5.3-.1-2 .1-.1.1.1.2 2 .8 5.3.5 3.5.5 4 1.5 8.5 1.8 8.5 1.7 7.4 1.6 7.2-.1.2-.4-.1z"/><path fill="#76797E" d="M145.7 192.6c-3.5 4.8-4.4 29.4-5.9 40 0 0-19.7 7.2-26.9-.7 0 0 2.1-38.1 3.5-45.8 2.7-1.2 3.8-5.4 4.6-8.2.9-2.9 1.4-5.9 3.3-8.2 2.5-3 6.6-4 10.4-4.7 5.5-1 11-1.7 16.6-2.1 3.5-.3 17.2-2.8 18 .6.9 4.2.7 4.9 1.2 8.4 0 0 3.3 35.5 4.3 42.9 1.3 9.5.9 16.8.9 16.8s-16.5 6-26.2 1.2l-4.4-35.2"/><path fill="#686C71" d="M149.4 231.5c.1.6 3.2 1.2 3 1.1-.7-.6-2.4-15.5-2.8-21.6-.4-7-.6-10.1-2.1-16.8a45.4 45.4 0 00-1 16c.4 2.5 2.4 18.6 2.9 21.3zm-9.6-.9c-.2-1.7 2.6-27.7 5.1-38.6-1.5 6.4-8.6 36.8-9.1 38.3l-.1.2a36.6 36.6 0 01-6.7 3.2c-2.6 1.1-5.4 1.4-8.2 1.8 7.9.3 12.6-1.2 17.5-2.5.3-.1.7-.2.9-.4l.9-.1a79 79 0 00-.3-1.9z"/><path fill="#686C71" d="M150.5 229.7c1.8 2.2 4.2 4 6.8 5-2.2.2-4.5-.1-6.6-1-.5-.2-1-.5-1.2-.9l-.1-1.1.2-3m4.2-39.4c-.8-.5-1.8-.3-2.6.3s-1.2 1.3-1.9 2c-.6.7-1.5 1.2-2.4 1.1-1.5-.4.4-3.3 2.6-5.8-.6-.4-1.4.1-1.9.5a70 70 0 00-4 3.7c-.4.4-.7.8-.7 1.4l.3.9c2 3.7 2.4 6.9 3.4 10.9-.1-3.9 1.2-7.4 3.1-10.8.8-1.3 3.1-3.4 4.1-4.2z"/><path fill="#686C71" d="M150.7 196.1c.4.2.2.8 0 1.2-1.1 2-1.7 4.2-1.8 6.5 0 .8-.1 1.6-.7 2.1-.4-1.7-.6-3.4-.8-5.2-.2-1.5-.3-3.3.8-4.3.7-.3 1.4-.4 2.1-.4l.4.1z"/><path fill="#6E7176" d="M119.8 147.8c3.9-.1 7.7-.3 11.6-.6a375 375 0 01.8-31.8c.3-4.2.7-8.4.5-12.6-.2-3.3.4-11.5-3.5-12.5-1.4-.3-5.9.7-8.1 1.3-2.8.7-7.6 1.9-7.9 3.1 3.5 15.4 5.3 30 6.4 45.8l.2 7.3z"/><path fill="#6E7176" d="M118.3 95.2c2.1 3.8 2.3 7 4.4 10.7.8 1.5 1.7 3.1 1.5 4.9-.2 2-1.8 3.5-3.1 4.9-7.2 7.6-8.6 17.8-14.9 26.1-.5.6-1.1 1.3-1.8 1.2-1 0-1.6.1-2.4-.5-1.4-1.1-3-.9-4.8-.7-4 .6-4.3 1.1-4.9 1.7-2.3-4 2.7-11.4 6.7-20.4 2.9-6.5 6-11.7 8.9-18.3 1.5-3.3 2.6-6.1 4.6-9.4.9-1.5 2.8-3.1 4.4-2.1.6.5 1 1.2 1.4 1.9z"/><path fill="#565A60" d="M117.8 120.2l.4 10.5 1.7-.3.1-2.2c.1-2.7.2-5.6 1.4-7.9.4-.7-.3-1.5-1-1.3h-.1c-.2.1-.5-.1-.5-.4.1-2.2.5-4.3 1.3-6.4.2-.5-.5-1-.9-.6-3.7 3.4-4.6 8.3-6.8 12.9-2.4 5.2-4.1 10.9-9.4 13.1-.2.1-.3.3-.2.5.3.7 2.1 2.4 2.9 2.1.9-.3 1.6-1.8 2.2-2.5 4.3-5.4 5.3-10.4 8.3-17.8 0-.1.6 0 .6.3z"/><path fill="#6E7176" d="M152.1 180.5c2.6-21.8 3.1-43.9 1.4-65.9-.3-4.2-.7-8.4-.5-12.6.2-3.3 3.7-12.9 3.7-12.9l7.9 1.8c2.8.7 7.3 1.7 8.4 3.5a288.7 288.7 0 00-6.9 45.2c-.3 4.4-.5 8.9.4 13.3.7 3.3 2 6.6 1.8 10l-.3 2.1c.3.4.6.7 1.1.8.7 5.1.9 10.2.4 15.3-1.2-.1-2-1.3-3-2-1.1-.8-2.6-.8-3.9-.8-1.7 0-3.4-.1-4.9.6-1.8.7-3.5 2.3-5.3 1.6v-.2l-.3.2z"/><path fill="#686C71" d="M160.2 176.8c1.1-.4 2.3-.9 2.9-1.8.5-.7.5-1.6.6-2.5l1.1-15.5-.5-3.6c-.3-4-1.1-8.6.1-12.5.1-.3-.1-.6-.4-.6v-.1c.5-1.7.5-3.5.5-5.2v-10.7c0-1.9.2-4.2 1.8-5.3 2.4 6 .2 22.2.4 32.2.1 1.9-.3 3.2-.4 4.5.5 5.8.7 11.7-.3 17.4l-.7 3.3c-.1.4-.2.8-.5 1-.3.2.2.7-.1.7-2.5.2-6.1-.6-9.7 1.8 1.2-.5 3.8-2.6 5.2-3.1z"/><path fill="#565A60" d="M164.9 119.4l2.1 5.9 1.3-6.5c.9 1.1 1.9 1.9 2.3 2.9.9 2.2 2.3 3.3 3.9 5.1l4.8 5.4c1.4 1.5 2.7 3.8 4.5 4.6-.3-1-.4-2.8-.3-3.9a26.2 26.2 0 01-9.2-10.3c-2-3.3-3.3-5.5-5.8-7.7-1.1-1-2.8.1-2.3 1.5-.6.3-1.2.4-1.9.3 0 1 .3 1.9.6 2.7z"/><path fill="#42474D" d="M131.8 152.6l-.2-2.7-.2-7.1.1-10 .5-11.4.6-11.4c.1-1.8.2-3.6.1-5.2a68 68 0 00-.2-4.7c-.2-1.4-.3-2.7-.6-3.9a17 17 0 00-.8-2.9l-.7-1.8-.3-.6v-.1h.1l.4.6.9 1.8a27.1 27.1 0 012.1 11.7l-.2 5.3-1 11.4c-.3 3.9-.3 7.8-.4 11.4l-.1 10v7.1l-.1 2.5s0 .1 0 0c0 .1 0 0 0 0z"/><path fill="#565A60" d="M164.5 178c2.1-5.4 1.8-17.5 1.8-23.3l.1-27c0-2.7.5-9.3.5-9.5l-.3-3 1.8 4.5c-.4 3.5 0 6.6-.2 9.3-1.1 11.5.1 16.5.1 16.6-.1 1-1.7 4 0 7.6.4 1-.1 1.2.4 2l.1.1c.1.6.5 1.9.5 2.5-.4 8.9 2.8 28.4 1.4 24.8-1.1-2.6-6.3-4.3-6.2-4.6z"/><path fill="#6E7176" d="M153.7 4h-.1c0-1.5-1.2-2.7-2.6-2.7h-17.1a2.6 2.6 0 00-2.6 2.7c-9.7 0-17.5 11-17.5 21.1v2.7l57.5-.2v-2.7c-.1-10-7.9-20.8-17.6-20.9z"/><path fill="#565A60" d="M136.9 29.6s-8.8.8-15.6 3.3c-4.1 1.5-7.4 4.1-7.6 6.2 0 0-5-7-2-8.4 3-1.4 8.1-2.3 8.1-2.3l47.9-.2s7.4 3.7 6.2 6-2.7 4.7-2.7 4.7c-.2-2.2-3.6-4.7-7.6-6.1a73 73 0 00-15.6-3.1"/><path fill="#FFF" d="M176.6 32.1c-.4-4.6-5.8-4.6-9-4.7-3-.1-23.4.1-25.2.1l-25.2.1c-3.2.2-8.6.2-9 4.8-.4 4.6 5.4 7.5 5.4 7.5s-1.7-4.6 1.6-7c3.3-2.5 8.4-2.9 11.7-3.1l15.2-.1h.2c1.9 0 12.2-.2 15.2-.1 3.3.1 8.4.5 11.8 3 3.3 2.4 1.7 7 1.7 7s6.1-2.9 5.6-7.5z"/><path fill="#74777C" d="M170.6 20.1c-6 3.6-17 5.9-29.4 5.9-11 0-20.8-1.9-27.1-4.7-.2 1.3-.4 2.6-.4 3.9v2.7l57.5-.2V25a20 20 0 00-.6-4.9z"/><path fill="#FFF" d="M176.6 32.1c-.4-4.6-5.8-4.6-9-4.7-3-.1-23.4.1-25.2.1l-25.2.1c-3.2.2-8.6.2-9 4.8-.4 4.6 5.4 7.5 5.4 7.5s-1.7-4.6 1.6-7c3.3-2.5 8.4-2.9 11.7-3.1l15.2-.1h.2c1.9 0 12.2-.2 15.2-.1 3.3.1 8.4.5 11.8 3 3.3 2.4 1.7 7 1.7 7s6.1-2.9 5.6-7.5z"/><path fill="#6E7176" d="M127.8 177.2a11.5 11.5 0 00-8.1-1.3h-.3c-.5.8-.3 1.9-.5 2.9-.3 1.7-1.9 1.2-2.7 2.7-.8 1.4-.6 5-.6 6.7-.3 6.4-1 12.5-1.2 18.9 1-4.9 2.1-9.8 2.6-14.8.1-.8.2-1.7.6-2.5.2-5.1 4.2-8 15.2-9.7-1.8-.8-3.3-2-5-2.9z"/><path fill="#565A60" d="M133.2 170.3a11 11 0 00-1.2 3c-.1 1.6 1 5.9 1.6 7.4a6 6 0 012.5-4.5c1.2-.7 2.7-1 4.1-1.2 5.7-.9 11.5-1.9 16.8-3.5-7 .8-13.8 2.2-20.9 1.3-1-.2-2.3-3.3-2.9-2.5z"/><path fill="#565A60" d="M138.2 168.8c-.9-.7-5.1-6.7-5.7-12.2-.6-5.6-.5-6.9-.4-12.5l-.1-6.5h-1.9l-.1 9.1c-.1 6.5.7 5.9 1 12.4.1 2.9-.2 3.2 0 6.1.8 11.3 1.4 8.2 4.2 7.7 1-.2 3.4-.2 4.5-.1 5.5.6 11.5.3 16.8-1.5-5.2.1-10.7-.8-15.9-1.6-.8-.2-1.7-.3-2.4-.9z"/><path fill="#6E7176" d="M130.1 137.6h-1.2l-9.1-.2.2 2.3c.3 4.4.5 8.9-.4 13.3-.7 3.3-2 6.6-1.8 10l.3 2.1c-.3.4-.6.7-1.1.8-.7 5.1-.9 10.2-.4 15.3 1.2-.1 2-1.3 3-2 1.1-.8 2.6-.8 3.9-.8 1.7 0 3.4-.1 4.9.6 1.3.5 2.6 1.6 4 1.8a367.8 367.8 0 01-2.3-43.2z"/><path fill="#6E7176" d="M123.2 175c-.5-.7-.5-1.6-.6-2.5l-1.1-15.5.5-3.6c.1-1.8.1-8.8-.2-16h-2.4a168 168 0 01.6 18.3 67.5 67.5 0 001 20.7c.1.4.2.8.5 1 .3.2-.2.7.1.7 2.1.2 5-.4 8 .9-1.3-.8-2.7-1.8-3.6-2.2-1-.4-2.2-.8-2.8-1.8z"/><path fill="#6E7176" d="M122.6 155.3a6.3 6.3 0 00-2.1 4.1 6 6 0 001.4 4.3c-.1-.9-.2-1.8-.1-2.7.1-.9.5-1.8 1.1-2.4.8-.7 1.9-.8 2.8-1.2a7 7 0 004.3-6.1c-2.1 2-5.3 2.2-7.4 4z"/><path fill="#565A60" d="M119.9 154.7l-.1-17.3h-1c-.3 5.3-1 8.3-1 8.3.1 1 1.7 4 0 7.6-.4 1 .1 1.2-.4 2l-.1.1c-.1.6.6.2.5.8-1.4 10.1-3.3 30-1.5 26.2 1.3-2.6 5.4-4.1 5.3-4.5-2-5.3-1.7-17.4-1.7-23.2z"/><path fill="#383D44" d="M145.6 192.6c-.5.7-.7 1.5-1 2.3l-.6 2.4-.8 5a164 164 0 00-1.2 10.1l-.9 10.1a173 173 0 01-1.3 10.3 52.7 52.7 0 01-13.8 2.9c-2.4.2-4.7.1-7.1-.3a12 12 0 01-6.3-3.3l-.1-.2 1.2-25.2.4-6.3.5-6.3c.4-4.2.6-8.4 1.2-12.5 0 0 0-.1.1 0v.1l-.6 12.6-.7 12.6-1.5 25.1-.1-.2c1.5 1.7 3.7 2.7 6 3.2s4.6.5 6.9.4a51.2 51.2 0 0013.6-2.9l-.2.2 1-10.1.9-10.1c.4-3.4.7-6.7 1.3-10.1l1-5 .7-2.4c.5-.9.8-1.7 1.4-2.4-.1 0 0 0 0 0z"/><path fill="#42474D" d="M132.5 180.7l-.3-1.2-.5-3.2-.4-4.6-.4-5.2c-.4-3.6-.8-7.1-.8-9.8l.1-3.3.1-1.2s0-.1.1 0l.2 1.2.3 3.2.4 9.8.5 5.2.5 4.6.2 3.2v1.3z"/><path fill="#383D44" d="M117.5 155.7l.1 1.7v1.7l-.1 3.4-.6 6.7-.7 6.7-.3 3.3-.1 3.3-.4-.2c1.3-1.1 2.7-2.2 4.2-3.2l1.2-.6 1.3-.5a8.4 8.4 0 014.1-.3l.7.1.7.2 2.4 1c.8.4 1.6.6 2.4.8l2.5.5v.1h-.1c-1.7.1-3.5-.1-5.2-.7l-2.4-.9-.6-.2-.6-.1-1.2-.1a11.3 11.3 0 00-3.7.7l-1.1.5c-1.5.8-2.9 1.9-4.2 2.9h-.3v-.1c0-2.3.2-4.5.4-6.7l.7-6.7c.2-2.2.5-4.4.6-6.7a36.5 36.5 0 00.2-6.6l.2-.2-.1.2z"/><path fill="#42474D" d="M133.8 173.2l.8-.2 2.1-.2 3-.1h3.5l3.5-.3 3-.3 2.1-.1h.8s.1 0 0 .1l-.8.3c-.5.1-1.2.4-2.1.5l-3.1.1h-3.5l-1.8.1-1.7.1-3 .1c-1.6.2-2.8 0-2.8-.1 0 .1 0 .1 0 0z"/><path fill="#383D44" d="M173 94.2l.7 1.1 2 2.9 5.9 8.9 5.6 9.2 2.3 4.3v.1h-.1l-2.5-4.2c-1.5-2.5-3.6-5.8-5.8-9l-5.9-9-1.8-3-.5-.9-.2-.3.1-.2.2.1zm-5.4 23.3l.7.9 1.8 2.3 2.6 3.2 3 3.6 2.9 3.7 1.3 1.7 1.3 1.4 2.7 2.9-2.9-2.7-2.9-2.9-3.1-3.5-2.9-3.7-2.4-3.4-1.5-2.5-.6-1zm0-69.1l.2-.2.5-.4c.2-.2.6-.3 1-.3.5 0 .9.1 1.4.4.4.3.9.7 1.1 1.3.2.6.4 1.2.4 1.8.1 1.3-.2 2.6-.5 3.9l-1.4 3.7-1.6 3c-.6.8-1.2 1.5-1.8 1.6-.3.1-.5 0-.7-.1l-.2-.1.2.1h.6c.5-.2 1-.9 1.5-1.7.5-.8.9-1.9 1.4-3l1.2-3.6c.3-1.2.6-2.5.6-3.7l-.2-1.6c-.2-.5-.5-.9-.8-1.2l-1.1-.5a2 2 0 00-.9.2l-.9.4z"/><path fill="#383D44" d="M169.1 51.6l-.2.1-.4.4-.9 1.3-.6 1.5-.2.5-.1.2-.1-.2-.1-.6c-.1-.5 0-1.2.4-1.8l.6-.8.7-.5.6-.1h.3zM120.5 49l-.7-.6-1-.5-.6-.1-.7.2c-.4.2-.8.5-1.1 1-.3.5-.3 1.1-.4 1.8l.1 2 .5 2 .7 2 .8 1.9 1.8 3.2c.3.4.6.8 1 1 .3.2.7.3 1 .1l.6-.4.1-.2v.3l-.5.5c-.3.2-.8.2-1.2 0-.4-.2-.8-.6-1.2-1-.7-.8-1.4-1.9-2.1-3.1l-.9-1.9a17.2 17.2 0 01-1.2-6.4c.1-.7.2-1.4.6-2 .4-.6.9-1 1.5-1.2l.8-.1.7.2 1 .7.4.6z"/><path fill="#383D44" d="M118.7 51.5h.2l.6.1.7.5.6.8c.3.6.4 1.3.4 1.8l-.1.6-.1.2-.1-.2-.2-.5-.6-1.5-.9-1.3-.4-.4-.1-.1zM114 27.3l-.1.2-.2.6-.2 1v1.3l.2 3.4.6 3.8.3 2 .4 1.9.6 3.4.4 2.4.1.9-.3-.9-.8-2.3-.5-1.6-.5-1.8-.5-1.9-.4-2-.5-4v-1.8l.1-1.7a32.5 32.5 0 01.7-2.4l.6-.5zm55.3-3.7l.2.2c.1.1.4.3.5.6l.6 1.1.6 1.5.5 1.8.3 2.1c.2 1.5.1 3 0 4.6-.1.8-.1 1.6-.3 2.3l-.4 2.2-.5 2-.5 1.8-.9 2.6-.4 1 .2-1.1.5-2.7.3-1.8.3-2 .3-2.2.2-2.3.1-2.3v-2.2l-.1-2c-.1-.6-.1-1.3-.3-1.8l-.4-1.5-.4-1.1-.4-.7c.1 0 0-.1 0-.1zm-3.5 6.1l.4.6.4.9.4 1.1.3 1.4.3 1.5.3 3.3v3.3l-.2 2.9-.4 2.8-.1-2.8-.1-2.9-.2-3.3-.4-3.2-.5-2.7-.3-1-.3-.8a6 6 0 01-.3-.7c-.1-.2 0-.5.2-.6.1 0 .4 0 .5.2zm1.1 18.1v2l-.1 5.2-.4 3.5a65 65 0 01-.8 3.8l-1 4.1c-.4 1.3-.9 2.8-1.5 4.1a27.6 27.6 0 01-5.3 6.6l-3 2.5-2.8 2-2.5 1.6-2.1 1a5 5 0 01-1.5.3h-.5l.5-.1 1.3-.5 1.9-1.1 2.4-1.7 2.8-2 3.1-2.3c2.1-1.7 3.9-3.9 5.2-6.4.6-1.3 1.1-2.6 1.3-4l.6-4.1c.3-2.7.5-5.2.9-7.3.4-2.1.8-3.9.9-5.1l.6-2.1z"/><path fill="#383D44" d="M144.6 84.5h-.5a5 5 0 01-1.5-.3c-1.3-.4-2.9-1.3-4.9-2.3-2-1.1-4.1-2.5-6.3-4.3l-3.2-2.9a15.4 15.4 0 01-4.5-7.7l-1.1-4.2-.9-3.9-.5-3.6-.3-5.4v-2l.1-.1h.1l.4 2 1.1 5.3c.4 2.2.8 4.7 1.1 7.5l.7 4.2c.4 1.4 1.1 2.7 1.9 3.8l2.6 3.5a34 34 0 009.2 7.2c2 1.1 3.5 2 4.7 2.5l1.8.7zm-24.1-37l-.2-.7-.5-1.8a30.2 30.2 0 01-.5-8.6l.2-1.4.2-1.2.5-1.8.2-.7c.1-.2.4-.4.6-.3.2.1.4.3.3.5l-.1.7-.4 1.8-.4 2.5-.2 2.9v2.9l.1 2.6.2 2.6z"/><path fill="#76797E" d="M130 277.3c.6 3 1.2 5.1 1 8.2 0 .4-.2.8-.5 1.1-.7.7-2 3.3-2.4 4.9-.6 2.3 1.3 6.5-6.7 8.2-2.2.3-6.2.5-9.7-.2-5.9-1.4-4.2-9.2-4.2-9.2l5.5-7 1.1-6.1c.2-1 1.1-1.6 2.1-1.4 3.2.6 7.5.7 12.5.3.8-.1 1.1.3 1.3 1.2z"/><path fill="#74777C" d="M129.6 273.8c.4 1.2 1.7 5.7 1.4 9 0 0-2.4 3.1-3 5.4-.6 2.3 1.3 6.5-6.7 8.2 0 0-4.6.6-8.8 0-4.1-.6-7-4.1-3.9-8.9l4.3-7.5 1.1-6.1c.2-1 1.1-1.6 2.1-1.4 2.7.5 6.2.6 10.2.4.8 0 1-.3 1.8-.3.9-.2 1.2.4 1.5 1.2z"/><path fill="#76797E" d="M125.1 294.7c-.6.7-1.6.9-2.5 1.1-2.9.7-5.9 1.1-8.9 1.2-1.5.1-3.2 0-4.3-1-.9-.8-1.2-2-1.6-3.1-.3-1-.5-2-.3-3 .4-1.2 1.5-2 2.6-2.6a13 13 0 0113.3 1.5 6 6 0 012.1 2.6c.5 1.2.4 2.5-.4 3.3zm-11.6-10l1.2-.8c.8-.5 2.4-1.6 2.4-2.5l-1.9-13.8c0-.6.4-1.1.9-1.4 3.1-1.3 8.2-1.5 11.4-.1.7.3 1.4 2.3 1.1 3.1l-4.6 12.1c-.3 1 0 2.1.7 2.8l1.7 1.6c-3.5-2.7-8-2.6-12.9-1z"/><path fill="#383D44" d="M131.2 282.9l-.1 1.8v1c-.1.4-.2.8-.6 1.1-.5.5-.9 1.4-1.3 2.2-.4.9-.8 1.9-.9 2.9-.1 1 .1 2.3-.2 3.5a5.1 5.1 0 01-2.4 3.2 11 11 0 01-3.8 1.4c-1.4.3-2.7.3-4 .3-1.3 0-2.6 0-3.8-.2-1.2-.2-2.4-.3-3.5-.8s-2-1.3-2.5-2.1c-.5-.9-.8-1.8-.9-2.6l-.2-2.1.1-1.8c0-.2.2-.3.4-.3s.3.2.3.4l-.1.4-.1 1.3c0 .6 0 1.2.2 2s.4 1.6.9 2.4c.5.8 1.3 1.5 2.2 1.8 1 .4 2.1.5 3.3.6l3.7.1c1.3-.1 2.6-.1 3.8-.4 1.2-.3 2.4-.7 3.5-1.3 1-.6 1.8-1.5 2.1-2.6.3-1.1.2-2.2.4-3.4.3-1.2.7-2.1 1.2-3 .5-.9.9-1.7 1.5-2.3.3-.3.4-.6.5-.9v-2.7l.2-.2.1.3zm-2.6-10.4l.5.2c.2.1.4.3.4.5l.2.6.3.7.2.8.4 1.8a27.3 27.3 0 01.7 4.6v.4c0 .2-.1.4-.3.4s-.4-.1-.4-.3v-.2l.1-.4v-1.1a32.5 32.5 0 00-1.4-5l-.3-.8-.2-.7-.1-.6v-.4l-.1-.2h-.1l-.2-.2c0-.1.2-.2.3-.1z"/><path fill="#383D44" d="M130.7 283.3l-.2.3-.5.9c-.4.8-1 1.9-1.4 3l-.2.8-.1.8-.1 1.6c-.1 1-.4 1.5-.4 1.5 0 .1-.1.1-.1 0l-.1-.1.1-.4.1-1.1V289l.1-.9.2-.9a10 10 0 011.5-3.1l.7-.9.3-.3c.1-.1.2 0 .3.1l-.2.3zm-4.1 10.8l-1.1.9-1.3.7c-.9.4-1.8.7-2.8.9-2.5.3-4.9.4-7.4.2l-1.9-.2c-.6-.1-1.3-.3-1.8-.6-.6-.3-1.1-.6-1.6-1.1-.5-.4-.9-1-1.1-1.6-.3-.6-.4-1.3-.4-1.9 0-.7.1-1.3.3-1.9l.3-.9.4-.8.9-1.6 3.7-6.4v.1l.8-4.2.2-1 .2-1.1c.2-.7.9-1.3 1.7-1.3l.1.1-.1.1c-.7 0-1.3.5-1.4 1.2l-.2 1-.2 1.1-.7 4.2v.1l-3.6 6.4-.9 1.6a3 3 0 00-.4.8l-.3.8c-.2.6-.2 1.1-.2 1.7a4.5 4.5 0 001.4 3.1l1.4 1 1.7.5 1.8.2c2.4.2 4.9.1 7.3-.1.9-.2 1.8-.4 2.7-.8l1.3-.6 1.1-.8h.3l-.2.2z"/><path fill="#383D44" d="M115.8 272.7l-.1-1.3-.2-1.3-.6-2.6c0-.6.2-1.1.7-1.5l.7-.4.7-.3 1.4-.4 1.4-.2h2.8l2.8.4 1.4.4 1.4.5c.5.4.7.9.9 1.3.2.5.3.9.2 1.5l-.2.7-.2.7-.6 1.3a13 13 0 00-1 2.5c0 .2-.2.3-.4.3s-.3-.2-.3-.4v-.1l1.2-2.6.5-1.3.2-.6.2-.6a5 5 0 00-.2-1.2c-.1-.4-.4-.8-.6-1l-1.2-.4-1.3-.3-2.7-.2h-1.4l-1.3.1-2.6.4-1.2.4a1 1 0 00-.5.9v-.1l.4 2.6.2 1.3.2 1.3-.2.2c-.4.2-.5.1-.5 0z"/><path fill="#383D44" d="M125.7 274.5c1.3-.1 2.1-.1 2.1-.3 0-.1-.8-.4-2.1-.5h-2.3l-2.8.5-.5.1-1.2-.2-2.2-.2c-1.3 0-2 .1-2 .2 0 .2 1.6.4 3.7.9l-.5.2-2 1.2c-1.1.8-1.6 1.4-1.5 1.5.1.1.8-.3 1.9-.9l2-1 1.8-.7 1.1.3c3.5 1.1 6.1 2.7 6.3 2.4.1-.1-.5-.7-1.5-1.4l-1.9-1.1a12 12 0 00-2-.8l1.4-.3c.8.3 1.6.2 2.2.1zm-1.5 4.2l-2.2.1-1.9.4-1.8-.5a15 15 0 00-2-.2c-1.1 0-1.8.2-1.8.3 0 .2 1.7.3 3.9.9l-1.5.7-1.9 1.2c-1 .8-1.5 1.4-1.4 1.5.2.2 2.6-1.6 6.1-2.7l.3-.1.2.1c3.1 1.2 5.1 3 5.3 2.8.1-.1-.3-.7-1.1-1.5a11 11 0 00-2.7-1.8c2.5-.5 4.4-.5 4.5-.7 0-.2-.7-.4-2-.5z"/><path fill="#888B8F" d="M120.3 291.7c-1.6.3-3.2.6-4.8.6-1.1 0-2.3-.3-3.3-.7-.7-.3-.8-1.3-.3-1.8a7.2 7.2 0 018.4-1.1c.5.3 1 .6 1.2 1.1.3.5.3 1.2-.1 1.6l-1.1.3z"/><path fill="#383D44" d="M174.7 231.8a47.2 47.2 0 01-19.1 2.9c-2.2-.2-4.3-.8-6.3-1.8l-.1-.2-.5-4.4-.7-4.3-1.2-8.8-.6-4.4-.5-4.4-.4-4.4-.3-4.4.1-.1h.1l.8 4.4.7 4.4.6 4.4.5 4.4.9 8.8.5 4.4.6 4.4-.1-.2c1.9.9 4 1.4 6.2 1.6 2.1.2 4.3.2 6.4 0a70.3 70.3 0 0012.4-2.3zm-3.4-48.3l.3 2 .6 5.3.8 7.6.9 8.7c.7 5.9 1.5 11.8 1.8 16.3l.2 5.4-.1 2.1s0 .1-.1 0l-.2-2-.6-5.4-1.4-16.3-1-8.7-.8-7.6-.4-5.4v-2zm-15.5-94.9l.8.2 2 .4 6.2 1.3c2.2.5 4.5 1.2 6 1.9a7 7 0 011.8 1.2l.3.5.1.2-.1-.1-.4-.4-.8-.4-1.1-.4-2.8-.8-3.3-.8a51.8 51.8 0 01-8-2.5l-.7-.3zm-20 4.8l.7.2 1.9.5 1.3.2 1.4.2 1.5.1 1.6-.1 1.6-.2 1.5-.3 1.4-.4 1.2-.4 1.8-.7.7-.3-.6.4-1.7.9c-.7.4-1.6.7-2.6 1-.5.1-1 .3-1.6.3l-1.6.2h-1.7l-1.6-.1c-1-.1-2-.4-2.8-.6l-1.9-.7-.5-.2z"/><path fill="#42474D" d="M142.7 115.3l-4.4 5.7v.1l5.1-4.3 1.6-1.4.5-.4 2.7-2.4v-.5l2.5-4.3-2.9 1.1-1.6 2-8.9-5.9z"/><path fill="#383D44" d="M160.3 272.4a.2.2 0 01-.2-.2l-.7-3.6c0-.2-.1-.4.1-.6.2-.4.8-.6 1.8-.6l.2.2-.2.2c-1.1 0-1.3.3-1.4.4v.3l.7 3.6c0 .2-.1.3-.3.3zM131 89.1l-.7.4-2 .8c-1.7.6-4 1.1-6.3 1.6l-6.2 1.3c-.8.2-1.5.5-1.9.8l-.6.5.1-.2.4-.5c.4-.4 1-.8 1.9-1.1a29 29 0 016.2-1.7l6.3-1.2 2.1-.4.7-.3z"/><path fill="#383D44" d="M113.5 94.2l-.3.4-.7 1.2c-.6 1-1.3 2.6-2.1 4.5l-1.5 3-1.7 3.3c-1.2 2.3-2.5 4.7-3.6 7.3-2.3 5-4.5 10.1-6.3 13.8l-2.2 4.5-.9 1.7h-.1v-.1l.6-1.8a160 160 0 014.7-11.1l3.7-7.2c1.3-2.4 2.5-4.9 3.6-7.3l3.1-6.3c.9-1.9 1.6-3.5 2.3-4.5l.9-1.1.5-.3zm4.8 24.4l-.4.9-1.1 2.4-1.5 3.3-1.5 3.9-1.6 4-.9 1.7-.9 1.5c-.6.9-1.2 1.6-1.7 2l-.7.7h-.1v-.1l.4-.9.6-1 .7-1.3 1.9-3.1 1.9-3.7c.6-1.3.9-2.7 1.4-4a38 38 0 012.8-5.6l.7-.7zm24.3-34.7l.9.2c.5.1 1.3.2 2 .1.7 0 1.4-.2 2-.3l.9-.3-.8.5-.9.3-1.1.2-1.1-.1-.9-.2-.6-.3-.4-.1c0 .1 0 .1 0 0 0 .1 0 0 0 0z"/><path fill="#42474D" d="M128.4 90.3c-.3-.9 4.3-3.5 4.1-3.2-.6 3.5-.2 6.5.6 10.2 1.1 5.1-.3 11-.4 16.3-.7-4.9.1-10-1-14.8-1-4-2.1-4.9-3.3-8.5z"/><path fill="#76797E" d="M160.5 276.7c-.4 3-1.6 4.9-1.3 8 0 .4.3.8.6 1.1.8.7 5.4 2.8 5.9 4.4.7 2.3-1 6.5 7.1 7.8 2.2.2 6.3.2 9.6-.7 5.9-1.7 3.8-9.4 3.8-9.4l-6.9-6.3-1.4-6c-.2-1-1.2-1.5-2.1-1.3-3.2.8-8.4 1-13.4.9-1 0-1.8.7-1.9 1.5z"/><path fill="#74777C" d="M160.1 271.1c-1.6 2.9-1.5 7.6-1.1 10.9 0 0 5.8 2.6 6.5 4.9.7 2.3-1 6.5 7.1 7.8 0 0 4.7.3 8.8-.4 4.1-.8 6.8-4.5 3.5-9.1l-5.8-6.8-2.3-6c-.4-1-.3-1.6-1.3-1.4-2.7.7-6.1 1-10.1.9-.8 0-3.1-5.4-3.9-5.4-1 0-1.7.5-1.7 1.4.1 1.1.6 2.6.3 3.2z"/><path fill="#76797E" d="M168.7 293.4c.7.6 1.6.9 2.5 1 3 .5 6 .8 9 .8 1.5 0 3.2-.1 4.3-1.2.8-.8 1.1-2.1 1.4-3.2.2-1 .4-2 .1-3-.4-1.2-1.6-2-2.8-2.5a13 13 0 00-13.2 2.2c-.8.7-1.6 1.6-1.9 2.7-.3 1.2-.2 2.4.6 3.2zm12-10.9s-2.6-3.7-2.7-4.7l-1.5-5.7-1.1-6.9c-.1-.6-.5-1.1-1-1.3-3.2-1-7.1.9-10.4 1.7-2 .5-1.6 2.3-1.4 3l6.4 11.7c.4 1 1.2 2 .5 2.8l-.5 1.7c3.2-3.2 6.6-3.4 11.7-2.3z"/><path fill="#888B8F" d="M173.3 290c1.6.2 3.2.5 4.8.3 1.1-.1 2.3-.4 3.3-.9.7-.4.8-1.3.2-1.8a9 9 0 00-3.4-1.7c-1.7-.3-3.6 0-5.1.9-.5.3-.9.7-1.2 1.2-.2.5-.2 1.2.2 1.6.4.3.8.3 1.2.4z"/><path fill="#383D44" d="M159.2 282.1a25.4 25.4 0 00.2 2.8c.1.3.3.6.6.8l2.4 1.4c.9.5 1.9 1.1 2.8 1.9l.6.7c.2.3.2.6.3 1l.2 1.9c.2 1.2.6 2.4 1.6 3.1 1 .8 2.2 1.2 3.5 1.5l1 .2.5.1h.5l2 .1c1.3 0 2.6 0 3.9-.2 1.2-.1 2.5-.3 3.5-.7 1-.4 1.9-1.1 2.4-1.9.5-.8.8-1.7.9-2.5l.1-2.1-.2-1.3-.1-.5c0-.2.1-.4.3-.4.2 0 .4.1.4.3l.1 1.9-.1 2.2a6 6 0 01-3.7 4.9 26 26 0 01-7.7 1.1h-2.6l-.5-.1-1-.2a8.7 8.7 0 01-3.9-1.8c-.6-.5-1-1.1-1.3-1.7-.3-.7-.4-1.4-.5-2l-.1-1.9-.2-.8-.5-.6c-.8-.8-1.7-1.4-2.6-1.9l-2.4-1.5c-.4-.3-.6-.6-.7-1l-.1-1-.2-1.9.2-.2.4.3zm1.4-10.7l-.4.2-.3.3-.1.5-.5 3.6-.4 3.6c-.1 1 0 1.6 0 1.6l-.1.1-.1-.1-.2-1.7a31.3 31.3 0 01.9-8.1l.5-.4.4-.1h.1c.1 0 .2 0 .2.2.2.2.1.3 0 .3z"/><path fill="#383D44" d="M159.6 282.2l.4.2 1.2.6a18 18 0 013.5 2.2c.3.3.6.5.8.9l.3.6.1.6.1 1.9.2 1.3.1.5-.1.1h-.1s-.4-.7-.6-1.8l-.3-1.9-.1-.5-.2-.4-.7-.7c-1.1-.9-2.4-1.6-3.4-2.2l-1.1-.8a3 3 0 01-.4-.3v-.3h.3zm7.8 10.3l1.1.8 1.3.5 2.7.6c1.7.1 3.5 0 5.2-.1l2.6-.3 1.3-.2 1.2-.4a5 5 0 003.1-3.5c.3-1.6-.4-3.3-1.3-4.7l-5.7-6.9-1.4-3.4c-.4-1.2-.9-2.3-1.2-3.5l.1-.1.1.1c.3 1.2.8 2.3 1.3 3.5l1.5 3.4 5.8 6.8c.5.7 1 1.5 1.2 2.4.3.9.4 1.8.2 2.7-.2.9-.6 1.8-1.2 2.5s-1.4 1.2-2.2 1.6l-1.3.4-1.3.2-2.6.3h-5.3a23 23 0 01-2.8-.7l-1.3-.6-1.2-.9v-.3c-.1-.3.1-.3.1-.2z"/><path fill="#383D44" d="M176.1 272.2l-.4-3.4-.6-3.4c0-.3-.2-.5-.3-.7l-.3-.2-.4-.1-1-.2-1-.1h-2l-2 .2c-1.3.2-2.7.5-4 1l-.9.4c-.2.1-.5.3-.6.6-.3.5-.4 1.1-.2 1.8.4 1 .8 2.1 1.3 3a6 6 0 002 2.4c.2.1.2.3.1.5s-.3.2-.5.1c-.5-.4-.9-.8-1.2-1.3l-.9-1.4c-.6-1-1-2-1.4-3.1-.2-.7-.2-1.6.3-2.3l.9-.9 1-.5c1.3-.6 2.7-.9 4.1-1.2l2.1-.3 2.2.1 1.1.2 1.1.3.5.2.5.4c.3.3.4.7.4 1.2l.4 3.5.2 1.7.2 1.7-.2.2-.5-.4z"/><path fill="#383D44" d="M167.9 274.1c-1.1.1-1.8.2-1.9 0 0-.1.6-.5 1.8-.7l2-.3c.8 0 1.6 0 2.5.2l.4.1 1-.4 1.6-.4c1.1-.2 1.2 0 1.2.1 0 .2-.5.4-2.3 1.1l.5.2c.7.3 3 1.9 2.9 2-.1.1-2.5-.8-3.2-1l-1.7-.5-.9.4c-3 1.5-5.1 3.4-5.3 3.1-.1-.1.3-.7 1.2-1.5l1.6-1.3 1.6-1-1.3-.1h-1.7zm2.8 4l2-.2 1.8.1 1.5-.7c.6-.2.8-.3 1.3-.3 1-.1 1.6-.1 1.7.1 0 .2-1.1.4-2.9 1.3.5.1 2.3 1.2 2.8 1.5 1 .6 1.5 1.2 1.4 1.3-.1.3-2.1-1.4-5.3-2l-.3-.1-.2.1c-2.6 1.5-4.1 3.6-4.3 3.4-.1-.1.2-.7.8-1.6a8 8 0 012.2-2.1c-2.3-.2-4 .1-4.1-.2-.1-.1.5-.4 1.6-.6zm-10.2-6.5a.2.2 0 01-.2-.2l-.7-3.6c0-.2-.1-.4.1-.6.2-.4.8-.6 1.8-.6l.2.2-.2.2c-1.1 0-1.3.3-1.4.4v.3l.7 3.6c0 .2-.1.3-.3.3.1 0 .1 0 0 0z"/><path fill="#42474D" d="M151.7 180.4l.1-1 .2-2.9.8-10.3c.3-4.2.7-9.2.9-14.5l.3-8.2.1-4.2V135c-.1-5.7-.4-11.4-.8-16.7l-.6-7.7c-.2-2.4-.3-4.8-.2-6.9a32 32 0 012.8-12.9l.5-.9h.1v.1l-.4.9a14 14 0 00-.9 2.7c-.3 1.2-.7 2.6-.9 4.3a49.7 49.7 0 000 12.6l.5 7.7a6138.1 6138.1 0 01.4 16.7v8.5a213.8 213.8 0 01-.6 15.9l-.5 6.9c-.3 4.3-.8 7.8-1.1 10.3l-.4 2.9-.3 1c.1 0 .1 0 0 0z"/><path fill="#383D44" d="M168.1 117.9l.5 4.1v4.1c-.1 2.8-.4 5.5-.6 8.2l-.1 4.1c0 1.4.1 2.7.3 4.1l.4 2c.1.7.2 1.5-.2 2.2-.3.7-.7 1.2-.8 1.8-.1.6-.1 1.3.1 2l1.2 3.9c.4 1.3.7 2.7.8 4.1l-.1 2.1v2c0 1.4.1 2.7.3 4.1l1.1 8.2c.4 2.7.7 5.5.7 8.3 0 .2-.2.4-.4.4l-.3-.1-4.2-3.4-1.1-.7-1.2-.5c-.8-.3-1.7-.5-2.5-.5h-1.3l-1.3.2-2.5.9c-.9.3-1.8.6-2.7.7l-2.7.1-.1-.1v-.1l2.7-.4 2.5-.8a13 13 0 012.5-1l1.4-.3 1.4-.1c.9 0 1.9.2 2.8.5l1.3.5 1.2.7c1.5 1 2.9 2.3 4.3 3.4l-.7.3c0-2.7-.3-5.4-.6-8.2l-.9-8.2-.2-4.1.1-2.1.1-2c0-1.4-.4-2.7-.8-4-.4-1.3-1-2.6-1.3-4-.1-.7-.2-1.4-.1-2.2.1-.8.5-1.4.8-2 .5-1.1-.1-2.5-.3-3.9a20 20 0 01-.4-4.2l.1-4.2.7-8.2.2-4.1-.1-3.6c0-.1 0-.1 0 0 0-.1 0-.1 0 0z"/><path fill="#42474D" d="M157.3 88.7c.3-.9-4.2-1.2-3.9-.8-.2 3.8 0 4.9-.8 8.6-1.1 5.1.3 11 .4 16.3.7-4.9-.1-10 1-14.8.8-4 2.1-5.6 3.3-9.3z"/><path fill="#565A60" d="M136.9 29.6s-8.8.8-15.6 3.3c-4.1 1.5-7.4 4.1-7.6 6.2 0 0-5-7-2-8.4 3-1.4 8.1-2.3 8.1-2.3l47.9-.2s7.4 3.7 6.2 6-2.7 4.7-2.7 4.7c-.2-2.2-3.6-4.7-7.6-6.1a73 73 0 00-15.6-3.1"/><path fill="#383D44" d="M148 29.6l4.1.3 4.2.6c1.5.3 3.1.6 4.7 1.1l4.5 1.6c1.4.7 2.6 1.4 3.6 2.2 1 .8 1.6 1.6 1.9 2.3l.3.8v.3l-.1-.3-.3-.8c-.3-.6-1-1.4-2-2.1-1-.7-2.2-1.5-3.6-2.1A47.2 47.2 0 00152 30l-4-.4zM136.9 29.6l-4 .6a66.3 66.3 0 00-13.3 3.6c-1.4.6-2.6 1.4-3.6 2.1-1 .8-1.6 1.5-2 2.1l-.3.8-.1.3v-.3l.3-.8c.3-.7.9-1.5 1.9-2.3.9-.8 2.2-1.6 3.6-2.3 1.4-.7 3-1.2 4.5-1.7 1.6-.5 3.2-.8 4.7-1.1l4.1-.7 4.2-.3zM153.6 3.8a14.1 14.1 0 003 .4l2 .6 1.1.5 1.2.6 1.2.7 1.1.9 1.1 1 1.1 1.1 1 1.2.9 1.2 1.5 2.7 1.2 2.7.8 2.7.3 1.3.2 1.2.1 2.1v1.6l-.1 1.4-.2.1-.1-.1-.1-1.4-.1-1.6c-.1-.6 0-1.3-.2-2.1l-.2-1.2-.3-1.2-.8-2.6c-.4-.9-.7-1.8-1.2-2.6-.4-.9-1-1.7-1.5-2.6l-.9-1.2-1-1.1-1-1.1-1.1-1-1.1-.9-1.1-.7-1.1-.6-1.1-.5-2-.6-1.6-.3-1.4-.1a.2.2 0 01-.2-.2l.6-.3z"/><path fill="#383D44" d="M158.6 9.4l.1 7.8.1 3.9-.2 1.1c-.1.3-.3.7-.6.9-.5.6-1.2.9-2 .9v-.7.7c-.9 0-1.7-.4-2.2-1.1-.3-.3-.4-.8-.5-1.2V9.2l.1-2.3.1-.1.1.1.1 2.3v2.3l.1 4.5.1 4.5.1 1.1.4.9c.4.5 1 .8 1.6.8v.7-.7a2 2 0 001.5-.6l.5-.7.2-.8v-3.9l.1-7.8.2-.2.1.1zM131.2 4.3l-1.4.1-1.6.3-1.9.6-1.1.5-1.1.6-1.1.7-1.1.9-1 1-1 1.1c-.3.4-.7.7-.9 1.2l-.9 1.2c-.5.8-1.1 1.7-1.5 2.6l-1.2 2.7-.8 2.6-.3 1.2-.2 1.2-.2 2.1-.1 1.6-.1 1.4-.2.1-.1-.1-.1-1.4c0-.4-.1-1 0-1.6l.1-2.1.2-1.2.3-1.3.7-2.7c.4-.9.7-1.9 1.2-2.8l1.5-2.7.9-1.3 1-1.2 1.1-1.1 1.1-1 1.1-.9 1.2-.7 1.1-.6 1.1-.5 2-.6 1.6-.3 1.4-.1.2.2c.2.2.2.2.1.3z"/><path fill="#383D44" d="M126.5 9.6l.1 7.8.1 3.9.2.8.5.7c.4.4.9.6 1.5.6v.7-.7a2 2 0 001.6-.9l.4-.9V9.2l.1-2.3.1-.1.1.1.1 2.3v2.3l.1 4.5.1 4.5v1.2c-.1.4-.2.8-.5 1.2-.5.7-1.3 1.2-2.2 1.2v-.7.7c-.8 0-1.5-.3-2-.9l-.6-.9-.2-1.1v-3.9l.1-7.8.2-.2.2.3zM132.8 78.3l.3 1.5.2 3.4c0 1.3-.1 2.5-.4 3.5-.1.5-.3.8-.5 1.1l-.3.3.2-.4.2-1.1.1-3.4.1-3.4.1-1.5zM153.2 89.7l-.1-.4-.2-1.1-.4-3.4c0-1.2 0-2.5.2-3.4l.3-1.5.1.4.1 1.1.2 3.3v3.4l-.2 1.6zM131 5.2l-.1-.9v-1c.1-.7.5-1.3 1-1.7.5-.4 1.2-.7 1.9-.7h1.8l7.1.1h8.6a3 3 0 011.7.8c.5.4.8 1 .9 1.6v.9l-.1.9-.1.1-.1-.1c-.1-.6 0-1.2-.2-1.7-.1-.5-.4-1-.8-1.3a2 2 0 00-1.4-.6h-8.5l-7.1.1h-1.8c-.5 0-1 .2-1.4.5-.4.3-.7.8-.8 1.3l-.2 1.7-.2.1c-.1.1-.2 0-.2-.1z"/><path fill="#888B8F" d="M176.6 32.1c-.4-4.6-5.8-4.6-9-4.7-3-.1-23.4.1-25.2.1l-25.2.1c-3.2.2-8.6.2-9 4.8-.4 4.6 5.4 7.5 5.4 7.5s-1.7-4.6 1.6-7c3.3-2.5 8.4-2.9 11.7-3.1l15.2-.1h.2c1.9 0 12.2-.2 15.2-.1 3.3.1 8.4.5 11.8 3 3.3 2.4 1.7 7 1.7 7s6.1-2.9 5.6-7.5z"/><path fill="#383D44" d="M143 29.4l8.7-.1h6.6l2.2.1a20.3 20.3 0 018.4 2.3l.9.6.8.8a5.6 5.6 0 011.3 4.3c0 .8-.2 1.5-.4 2.2l-.5-.4c1.6-.9 3.1-2.1 4.1-3.6a6 6 0 001-2.5v-1.3a5 5 0 00-.4-1.3 4.1 4.1 0 00-1.9-1.8c-.8-.4-1.7-.6-2.6-.8l-2.8-.3H148.3l-5.7-.1-.1-.1.1-.1 5.7-.1 5.7-.1 11.5-.1h2.9l2.9.2a9 9 0 012.8.8 5 5 0 012.2 2.1c.2.5.4 1 .4 1.5l.1.4v1.2c-.1 1-.5 2-1.1 2.8l-2 2.2c-.8.6-1.6 1.2-2.4 1.6-.2.1-.4 0-.5-.1v-.3c.4-1.3.5-2.8.2-4.1a5 5 0 00-.9-1.8l-.7-.7-.9-.6c-2.4-1.5-5.4-2-8.2-2.3l-2.2-.2h-15.3a.2.2 0 01-.2-.2l.4-.1zM142.3 27.6l-23 .2-2.9.1c-1 .1-1.9.1-2.8.3-.9.2-1.8.4-2.6.8s-1.5 1-1.9 1.8c-.4.8-.5 1.7-.4 2.6.1.8.5 1.7 1 2.5 1 1.5 2.6 2.7 4.2 3.6l-.5.4c-.2-.8-.4-1.5-.4-2.3 0-.8 0-1.5.2-2.3.2-.8.6-1.5 1.1-2.1l.9-.8.9-.6a22 22 0 018.6-2.3l2.2-.1h6.6a264.1 264.1 0 019 .2l-.1.1-8.9.2h-6.6l-2.2.2c-1.5.1-2.9.4-4.3.7-1.4.4-2.8.8-4 1.6l-.9.6-.7.7c-.4.5-.8 1.1-1 1.8-.4 1.3-.2 2.8.2 4.1.1.2 0 .4-.2.4h-.3l-2.5-1.6a7 7 0 01-2-2.2 5.7 5.7 0 01-.6-5.8 5 5 0 012.2-2.1c.9-.5 1.9-.7 2.8-.8l2.9-.3h25.9l.2.2c.1.2 0 .2-.1.2zM151.2 41.5l.5.2 1.2.4.8.2.9.3 2 .8 4 .9 1.9.2.1.1-.1.1-1.9.3a21.2 21.2 0 01-6.6-.5l-1-.4-.9-.6c-.5-.4-.8-.9-1-1.3l-.1-.4v-.2l.2-.1zm-14.6.2v.2l-.1.4c-.1.4-.5.8-1 1.3l-.9.6a3 3 0 01-1 .4l-2.3.4c-1.6.2-3.1.2-4.3.1l-1.9-.3-.1-.1.1-.1 1.9-.2 4-.9 2-.8.9-.3.8-.2 1.2-.4.5-.2c.1-.1.2-.1.2.1 0-.1 0-.1 0 0zm6.5 33l.2-.1.4-.3c.4-.2.9-.3 1.4-.3l1.4.2.5.2.2.1-2 .1c-1.1.2-2.1.2-2.1.1 0 .1 0 .1 0 0 0 .1 0 .1 0 0zm-3.1-.8l.3-.3.9-.7 1.3-.8.8-.4.9-.3a3 3 0 011-.2h.5l.5.1c.7.1 1.3.4 1.7.7.4.3.7.6.8.9l.2.4v.1l-.3-.2-.9-.5c-.4-.2-.9-.3-1.4-.3l-1.7.2-3.1 1-1.4.5-.1-.2c-.1.1-.1 0 0 0z"/><path fill="#FF7033" d="M132.5 62.5c-5.9 0-10.1-3.9-10.1-9.3l-.3-5.5.1-.4.4-.2 18.3-.5.4.2.2.4v7.5c.1 4.3-4 7.8-9 7.8zm-9.2-14.2l.3 4.9c0 4.7 3.8 8.2 9 8.2 4.4 0 7.9-3 7.9-6.7v-6.9l-17.2.5zm32.5 14.2c-5 0-9-3.5-9-7.8v-7.5l.2-.4.4-.2 18.3.5.4.2c.1.1.2.3.1.4l-.3 5.5c0 5.4-4.3 9.3-10.1 9.3zm-7.9-14.7v6.9c0 3.7 3.5 6.7 7.9 6.7 5.2 0 9-3.4 9-8.1l.3-4.9-17.2-.6z"/><path fill="#FF7033" d="M141 50.5s.7-2.4 3.1-2.4c2.6 0 3.1 2.7 3.1 2.7v-3.7H141v3.4z"/><path fill="#FF7033" d="M147.3 51.3c-.2 0-.4-.2-.5-.4 0-.1-.5-2.3-2.7-2.3-2 0-2.7 2-2.7 2-.1.2-.3.4-.5.3-.2 0-.4-.2-.4-.5V47c0-.3.2-.5.5-.5h6.3c.3 0 .5.2.5.5v3.7c0 .3-.2.5-.5.6zm-3.2-3.7c1.2 0 2.1.5 2.7 1.2v-1.2h-5.3v1.2c.6-.7 1.5-1.2 2.6-1.2zm-21.5.6l-2.8-1.4 3.1.5c.3 0 .4.3.4.6s-.3.4-.6.4l-.1-.1zm42.8-.9l2.6-.7-2.2 1.5c-.2.2-.5.1-.7-.1-.2-.2-.1-.5.1-.7h.2z"/><path fill="#383D44" d="M143.1 66.7s.1-.4.5-.8 1.1-.8 1.8-1l.5-.1h.5v-1.1l.6.7.1.2.1.4c0 .3-.2.6-.5.8l-.4.1-.2.1-.5.1-2.5.6z"/><path fill="#FFF" d="M145.2 50.6c-.1 0-.6 7.4.7 11l.3.9"/><path fill="#383D44" d="M145.2 50.6l.1.5.1 1.4a192 192 0 01.6 8.1l.2 1.3.1.5-.3-.5-.6-1.3a18.8 18.8 0 01-.6-8.3l.3-1.4.1-.3zM130.7 54.1c.1 1.4 1.1 2.4 2.2 2.3 1.1-.1 1.9-1.3 1.8-2.7-.1-1.4-1.1-2.4-2.2-2.3-1.2.1-2 1.3-1.8 2.7z"/><path fill="#383D44" d="M128.8 53.7v.3l.1.8c.1.6.5 1.6 1.3 2.4.4.4.9.7 1.5.8l.4.1h.5a2 2 0 001-.3c.6-.3 1.2-.8 1.6-1.5.4-.7.7-1.4.7-2.3 0-.8-.1-1.6-.4-2.4-.3-.7-.8-1.4-1.5-1.7-.6-.4-1.4-.6-2.1-.5-.6.1-1.3.4-1.7.8a4 4 0 00-1.4 2.4l-.1.8.1.3zm-1 0v-.3l.2-.9c.2-.8.7-1.9 1.9-2.7.6-.4 1.3-.7 2.1-.8.8 0 1.6.1 2.3.6.7.5 1.3 1.1 1.7 1.9.4.8.6 1.7.5 2.6 0 .9-.2 1.8-.7 2.6-.4.8-1.1 1.5-1.9 1.9-.4.2-.8.4-1.3.4l-.6.1-.7-.1c-.8-.1-1.6-.5-2.1-1a5 5 0 01-1.6-3l-.1-1c.3-.1.3-.3.3-.3zM157.6 54.1c-.1 1.4-1.1 2.4-2.2 2.3-1.1-.1-1.9-1.3-1.8-2.7.1-1.4 1.1-2.4 2.2-2.3 1.2.1 2 1.3 1.8 2.7z"/><g><path fill="#383D44" d="M160.5 53.7v.3l-.1 1a5 5 0 01-1.6 3c-.5.5-1.3.9-2.1 1l-.7.1-.6-.1a5 5 0 01-1.3-.4 5 5 0 01-1.9-1.9 6 6 0 01-.2-5.2c.4-.8 1-1.5 1.7-1.9a4 4 0 012.3-.6c.8.1 1.5.4 2.1.8a5 5 0 011.9 2.7l.2.9.3.3zm-1 .1v-.3l-.1-.8a4 4 0 00-1.4-2.4 3 3 0 00-1.7-.8c-.7-.1-1.4 0-2.1.5-.6.4-1.2 1-1.5 1.7-.3.7-.5 1.5-.4 2.4.1.8.3 1.6.7 2.3.4.7 1 1.2 1.6 1.5.3.2.7.2 1 .3h.5l.4-.1c.6-.1 1.1-.5 1.5-.8.8-.8 1.1-1.7 1.3-2.4l.1-.8.1-.3z"/></g><g><path fill="#FFF" d="M214.3 154.3L81 161.8c-.3 0-.5-.2-.5-.5l-2.1-37.9c0-.3.2-.5.5-.5l133.3-7.5c.3 0 .5.2.5.5l2.1 37.9c0 .2-.3.5-.5.5z"/><path fill="#B3B5B8" d="M74.8 162.1c-.5 0-.8-.4-.9-.8l-2.1-37.1c0-.5.3-.9.8-.9l145.6-8.2c.5 0 .9.4.9.8l2.1 37.1-.2.6-.6.3-145.6 8.2z"/><path fill="#383D44" d="M218.3 115.4c.3 0 .5.2.5.5l2.1 37.1c0 .3-.2.5-.5.5l-145.6 8.2c-.3 0-.5-.2-.5-.5l-2.1-37.1c0-.3.2-.5.5-.5l145.6-8.2m0-.7l-145.7 8.2c-.3 0-.6.2-.8.4s-.3.6-.3.9l2.1 37.1c0 .6.6 1.2 1.2 1.2l145.6-8.2c.3 0 .6-.2.8-.4.2-.2.3-.6.3-.9l-2.1-37.1c.1-.7-.5-1.2-1.1-1.2z"/><path fill="#FF7033" d="M92.4 135.1c1.2 3.7 1.3 9.3 3.4 13.1.4.9-1.4 1.5-1.7.7-1.5-2.6-2.1-9.1-2.7-11.8-.8 3.1-1.1 9-2.3 11.4-.3.7-1.5 1-1.9.2-1.6-3.2-1.7-7.3-3.3-11.3-.1 2.8-.5 8.4-1.1 11.8-.3 1-2 .9-1.8-.1 1.1-4.2.7-9.1 1.8-13.3.2-1 1.7-1.2 1.9-.3.9 2.6 2.4 7.9 3.3 11.4.8-4 1.3-8.3 2.5-11.9.4-.7 1.7-.7 1.9.1zm14.1 6.8c2.9-.2 2.2 1.2.6 1.4l1.7 4.5c.1 1.1-1.6 1.2-1.9.3l-1.7-4.6-4.1.3c-.5 1.7-.7 3.1-1.3 4.9-.3.9-2.1.8-1.7-.6.3-1.4 2.5-9.9 3.6-13.4.4-1.1 1.6-.9 2-.1.9 1.8 2.2 6.1 2.8 7.3zm-5.1.3l3.2-.2c-.5-1-1.1-3.8-1.8-5.5-.5 1.8-1 4.5-1.4 5.7zm14.9-7.7l-1.9.1.9 11.9 2.2-.1c1-.1.8 1.4-.2 1.5l-5.7.3c-.9.1-.9-1.3 0-1.5l1.8-.1c-.1-2.6-.5-8-.9-11.9l-1.9.2c-1 .1-.9-1.4 0-1.5a85 85 0 015.7-.4c1.4.1 1 1.5 0 1.5zm11.6 10.3c-.4-3.5-1.3-8.4-1.5-11.5-.1-1.1 1.8-1 1.8-.2.3 4.6 1.2 10.4 1.1 13.5 0 .6-1.1 1-1.6.2-1.4-2.2-4.3-7.7-6.6-11.4.7 3.9 1 8.9 1 11.6-.2 1-1.6.8-1.7 0-.1-4.9-.5-9.6-.8-13.4 0-.7 1.1-1.1 1.5-.5 1.3 2.1 5.9 8.9 6.8 11.7zm11.7-13c1-.1.7 1.5-.3 1.5-.5 0-2 0-3.2.2.8 3.7.6 9.7.8 12.5 0 .9-1.9 1.3-1.9.4-.2-3.4.1-9.2-.7-12.8l-3.3.2c-1.2 0-.7-1.6.4-1.6 2.3 0 6.3-.5 8.2-.4zm10.9.9l-5.8.3.4 4.9c1.7 0 4.2-.2 5.6-.4 1.4-.1 1.4 1.3 0 1.4-2 .3-3.8.4-5.4.5 0 .4.4 5.1.6 5.7 2.3 0 5.3-.5 6.2-.5 1.5 0 1.2 1.5-.3 1.5-2.2.1-2.8.4-6.9.6-.3 0-.7-.2-.8-.5-.4-1.4-1-11.1-1.3-12.9-1.2.1-1.5-1-.1-1.4 2-.3 5.7-.4 7.8-.5 1.3-.2 1.2 1.2 0 1.3zm12.2 10.2c-.4-3.5-1.3-8.4-1.5-11.5-.1-1.1 1.8-1 1.8-.2.3 4.6 1.2 10.4 1.1 13.5 0 .6-1.1 1-1.6.2-1.4-2.2-4.3-7.7-6.6-11.4.7 3.9 1 8.9 1 11.6-.2 1-1.6.8-1.7 0-.1-4.9-.5-9.6-.8-13.4 0-.7 1.1-1.1 1.5-.5 1.4 2 5.9 8.9 6.8 11.7zm12.1-4.9c2.9-.2 2.2 1.2.6 1.4l1.7 4.5c.1 1.1-1.6 1.2-1.9.3l-1.7-4.6-4.1.3c-.5 1.7-.7 3.1-1.3 4.9-.3.9-2.1.8-1.7-.6.3-1.4 2.5-9.9 3.6-13.4.4-1.1 1.6-.9 2-.1 1 1.9 2.3 6.2 2.8 7.3zm-5.1.3l3.2-.2c-.5-1-1.1-3.8-1.8-5.5-.4 1.9-1 4.5-1.4 5.7zm17.4 3.2c-.4-3.5-1.3-8.4-1.5-11.5-.1-1.1 1.8-1 1.8-.2.3 4.6 1.2 10.4 1.1 13.5 0 .6-1.1 1-1.6.2-1.4-2.2-4.3-7.7-6.6-11.4.7 3.9 1 8.9 1 11.6-.2 1-1.6.8-1.7 0-.1-4.9-.5-9.6-.8-13.4 0-.7 1.1-1.1 1.5-.5 1.3 2 5.9 8.9 6.8 11.7zm11.2-12.4c.8.6 1.5 1.5 2 2.7.3.9-1.5 1.4-1.8.6-.4-.9-.7-1.4-1.2-1.9-.8-.7-1.9-.6-2.7.1-1.8 1.7-2.1 8.5.6 10.5 1 .9 2.6 1 3.2.2.6-.8.7-2.1.6-3-.1-.8 1.7-.9 1.8 0 .1 1.2-.1 3.1-1.2 4a4.7 4.7 0 01-5.1.4c-4.3-2.3-4.2-11-.7-13.6 1.4-1 3.2-1 4.5 0zm12.8.2l-5.8.3.4 4.9c1.7 0 4.2-.2 5.6-.4 1.4-.1 1.4 1.3 0 1.4-2 .3-3.8.4-5.4.5 0 .4.4 5.1.6 5.7 2.3 0 5.3-.5 6.2-.5 1.5 0 1.2 1.5-.3 1.5-2.2.1-2.8.4-6.9.6-.3 0-.7-.2-.8-.5-.4-1.4-1-11.1-1.3-12.9-1.2.1-1.5-1-.1-1.4 2-.3 5.7-.4 7.8-.5 1.2-.2 1.1 1.2 0 1.3z"/><path fill="#888B8F" d="M223.1 121.9c-.7-1.5-5.3 0-6.3 1.4-.9 1.4.6 2 .6 2s-1.6.5-1.5 1.7c0 1.3.9 1.9.9 1.9s-1 .4-.9 1.2c0 .8.5 1.2.5 1.2s-.8.9.1 2 3.9.2 3.9.2l-.4 3c2.1-1 3.3-4.7 2.3-6 0 0 1.7-1.8-.4-2.8 0 0 2-2.1 0-3.3.1.1 1.9-.9 1.2-2.5z"/><path fill="#383D44" d="M221.9 124.3l.4-.3c.2-.2.5-.6.6-1l-.1-.7v-.1.1-.1l-.1-.2-.1-.1-.2-.1c-.6-.2-1.4-.1-2.1.1l-2.1.8c-.3.2-.6.3-.8.6l-.3.3-.2.4c-.2.5 0 .9.3 1.1l.4.3s.1.1 0 .1l-.1.1-.5-.3-.4-.5c-.1-.3-.2-.6-.1-.9l.2-.5.3-.4.9-.7c.7-.4 1.4-.7 2.2-.9.8-.2 1.6-.4 2.5-.1l.3.1.3.3.2.2v.2l.1.1v1.1c-.2.7-.7 1-1 1.3l-.5.3-.3-.1.2-.5zM217.2 125.7l-.3.3-.5.6-.1.9v.5l-.1.1h-.1l-.3-.4-.1-.5.1-.7c.1-.5.5-.8.8-1l.4-.1h.1l.2.2-.1.1zm-.4 3l.2.1.1.3v.1l-.1.1-.4.4-.2.4v.6l.2.6v.3l-.1.1h-.1v-.1l.1-.2v.2l-.5-.6-.2-.4v-.4a1.5 1.5 0 01.8-1.2c-.2-.1 0-.2.2-.3l-.2.5-.1-.2.1-.3h.2z"/><path fill="#383D44" d="M216.5 131.7v.7l.3.7.1.1.1.1.1.1.4.2c.6.2 1.3.2 1.8.1l.9-.1.1.1-.1.1-.9.3c-.5.1-1.2.3-2 .1l-.6-.2-.3-.2-.1-.1-.1-.1a2 2 0 01-.3-1l.2-.7.2-.2h.3c-.1-.1-.1 0-.1 0zm3.4 4.7l.4-.3.3-.3.5-.6a7.5 7.5 0 001.2-3.1c.1-.5 0-1.1-.2-1.4a.3.3 0 010-.4l.4-.6.2-.7-.2-.6-.6-.5c-.1-.1-.2-.2-.1-.4.4-.4.7-.9.9-1.4.1-.3.1-.5 0-.8l-.2-.4-.3-.3v-.1h.1l.4.3.3.4c.1.3.2.7.1 1l-.3.9-.6.8-.1-.4c.3.1.6.3.8.6.2.2.4.6.4.9l-.2 1-.5.8v-.4l.3.5.1.5v1c-.1.6-.2 1.2-.5 1.8-.2.6-.6 1.1-1 1.6-.2.2-.4.5-.7.6l-.4.3-.4.2-.3-.1.2-.4z"/><path fill="#383D44" d="M222.1 124.6l-.8.2-1.7.3c-.6.1-1.3.2-1.7.4l-.8.2-.1-.1v-.1l.7-.4c.5-.2 1.1-.5 1.7-.6l1.8-.3.8.1c.1 0 .2.1.2.3 0-.1-.1 0-.1 0zm-.6 3.8l-.6.4-1.6.4-1.6.1-.7-.1-.1-.1.1-.1.7-.1 1.5-.3 1.5-.4.7-.1.2.2-.1.1zm.7 2.5s-.2.3-.7.5c-.5.3-1.2.5-1.9.6h-1.9l-.9-.2-.1-.1.1-.1h.8l1.8-.2 1.7-.5.8-.2c.1 0 .2 0 .2.2.2-.1.2 0 .1 0z"/><g><path fill="#888B8F" d="M67.5 134.8c.4-1.7 5.2-1.2 6.4 0 1.2 1.2-.1 2.1-.1 2.1s1.6.1 1.9 1.4c.2 1.2-.5 2.1-.5 2.1s1 .2 1.1 1c.1.8-.2 1.3-.2 1.3s.9.7.3 2c-.6 1.3-3.8 1-3.8 1l1 2.8c-2.2-.5-4.2-3.9-3.5-5.4 0 0-2-1.4-.3-2.8 0 0-2.4-1.6-.7-3.2.1 0-1.9-.6-1.6-2.3z"/><path fill="#383D44" d="M69.2 137.3l-.6-.2c-.3-.1-.9-.4-1.2-1-.2-.3-.3-.7-.2-1.1v-.4l.1-.3.3-.3.3-.2c.8-.4 1.6-.4 2.5-.4.8 0 1.6.2 2.4.4l1 .5.4.4.3.4c.2.3.2.6.1.9l-.3.6-.4.4h-.1v-.1s.2-.1.3-.4c.2-.3.3-.7 0-1.1l-.3-.3-.4-.2-.9-.4c-.7-.2-1.4-.3-2.2-.3a5 5 0 00-2.1.4l-.2.1-.1.1-.1.2v.1l.1.7c.2.4.6.7.9.9l.4.2.1.3-.1.1z"/><path fill="#383D44" d="M74.3 136.8h.5c.3.1.7.3 1 .8l.2.7v.5l-.2.5c0 .1-.1.1-.1 0l-.1-.1-.1-.5c0-.3-.1-.6-.3-.8a3 3 0 00-.7-.5l-.4-.3v-.3c.1.1.1.1.2 0zm1.2 3.5l-.1.2-.2-.4.4.1.4.2c.3.2.5.5.6.8v.4l-.1.4-.4.7v-.2l.1.2v.1h-.1l-.2-.1-.1-.1v-.1l.1-.7v-.6l-.3-.4-.5-.3-.1-.1-.1-.3v-.1l.2-.1c.1-.1.2 0 .3.1l.1.3z"/><path fill="#383D44" d="M76.5 142.7l.2.2c.1.1.3.4.3.7.1.3 0 .7-.1 1.1l-.1.1-.1.1-.2.3-.5.4c-.7.3-1.5.3-2 .3l-.9-.1-.1-.1.1-.1.9-.1c.5-.1 1.2-.2 1.7-.5l.3-.2.1-.2s.1-.1 0-.1v-.1l.1-.7-.1-.5-.1-.2.1-.3h.4zm-2.8 6l-.4-.1-.5-.2-.8-.5-1.3-1.3c-.4-.5-.6-1.1-.8-1.7l-.2-.9v-.5l.1-.5.1.4-.7-.7c-.2-.3-.4-.6-.4-.9-.1-.3 0-.7.2-1l.6-.7v.4l-.7-.7-.5-.8c-.1-.3-.2-.7-.1-1l.2-.5.3-.4s.1-.1.1 0c0 0 .1.1 0 .1l-.2.4-.1.4c0 .3 0 .5.2.8.3.5.7.9 1.2 1.2.1.1.2.2.1.4l-.5.6-.1.6.3.6.5.5c.1.1.2.3.1.4-.2.4-.1 1 .1 1.5l.7 1.5 1.1 1.3.6.5.3.2.4.2c.1 0 .2.2.1.3.2 0 .1.1 0 .1zm-4.6-11.9l.8-.2 1.8-.1a9 9 0 012.6.4l.1.1-.1.1h-2.6l-1.8.1h-.8a.2.2 0 01-.2-.2l.2-.2z"/><path fill="#383D44" d="M70.6 140.4h.7l1.5.1H75l.1.1-.1.1-.7.2c-.4.1-1 .3-1.6.3l-1.6-.1-.7-.2-.1-.3.3-.2zm-.2 2.6l.8.1 1.8.1 1.8-.1.8-.1.1.1v.1l-.8.4c-.5.2-1.2.4-1.9.4-.7.1-1.4 0-1.9-.1l-.8-.3-.1-.3.2-.3z"/></g></g></svg>
