<?xml version="1.0" encoding="utf-8"?>
<!-- Generator: Adobe Illustrator 23.0.6, SVG Export Plug-In . SVG Version: 6.00 Build 0)  -->
<svg version="1.1" id="Слой_1" xmlns="http://www.w3.org/2000/svg" xmlns:xlink="http://www.w3.org/1999/xlink" x="0px" y="0px"
	 viewBox="0 0 300 300" style="enable-background:new 0 0 300 300;" xml:space="preserve">
<style type="text/css">
	.st0{fill:#B2B7C7;}
</style>
<path class="st0" d="M251,171.6c0-5.3-10.1-40.9-11.8-47c1.9-2.6,2.1-5.6,2.3-7.3c0.2-1.7,0.4-3.4,0.4-5.1c0.1-1.8-0.1-3.5-0.5-5.3
	c-0.4-1.7-2.6-8.8-9.3-8.8c-2.1,0.2-4.1,0.7-6,1.5c-0.1-1-0.4-3.7-0.4-3.7c5.7-1.6,14.4-12.3,16.2-17.4c3.6-10.2-2.7-14.6-2.7-14.6
	s0.4-4.1-4.2-6.7c-9.7-5.6-22.5-6.1-29.5-1.9c-2.8,1.7-2.4,4.2-1,5.7c-2.6,1.8-7.4,5.7-8.3,9.7c-0.3,1.2-0.6,6.1-2.6,7.5
	c-0.8,0.5-1.7,0.9-2.6,1.2c-1.1,0.4-2.3,0.8-2.1,2c0.1,0.5,1.9,4.5,1.9,4.9c0,0.1-0.5,8.5,1,11.1c1.5,2.4,3.7,4.3,10.6,3.5
	c5.5-0.7,6.2,0.4,7,1.5c0.2,0.2,0.3,0.5,0.5,0.7c0.7,0.8,1.5,2,2,2.8c-2,1-8.1,4.3-8.3,4.4c-3,1.4-1.1,5.6-1.1,5.6
	c-2.4,4.1-14.5,12.3-17.9,14.3c-1.4,0.5-9.6-7-11.6-8.7V25.4c0-0.8-0.2-1.5-0.5-2.3l4.6-2.4l2-10.6V10L163,18.4l-73.7,5.9
	c-3.2,0-5.8,2.6-5.8,5.8v0v29l-12.6,6.5v10.5l12.6-6.6v90.6l-1.5,0.2c-0.2,0-0.3,0.1-0.4,0.2l-1.9,2.5l1.4,3.2
	c0,0,0.9,11.9,1.6,15.3c0.2,0.7,0.4,1.4,0.8,2.1V214l-0.6,0l-11.1-0.6l-7.2,8.1l-0.1,0.1l2.4,0.1l10.2,0.6l6.3,0.4v48.5
	c0,2.1,1.1,4,2.8,5l-0.2,0c0,0-27,8.3-37.3,13.7c8.3-1.6,38-11.5,38-11.5s106.9-34.3,112.6-38.8c-6.5,0.9-26.8,7.8-26.8,7.8
	c0.2-0.6,0.4-1.3,0.3-2V228l13.2,0.8l5.3-9l-18.5-1v-70.2c12.3,12.7,22.6,4.6,27.4,0.9c-1.7,16.1,1.9,39.5,1.9,39.8s0.3,1.3,4.8,1.3
	h0.9c0.2,3.6,1.2,18.7,0.4,26.1c-0.9,8.4-2.1,49-2.1,49c2.5,1.1,5.3,1.5,7.9,1l0.1,2.9c-4.3,2.2-6.7-1.7-6.7-1.7
	c-0.1-0.2-0.7-1-0.9-1.2c-0.3-0.4-0.8-0.7-1.3-0.8c0,0-8.4-0.4-9-0.2h-0.1c-1.1-0.3-2.5-0.6-3.6,0.1c-0.7,0.5-1.2,1.1-1.4,1.9l0,0
	c-0.1,0.3-1.5,3.6,0.1,6.1s18.4,11.8,24.8,5.1c0-0.1,0-0.1,0-0.2c0,0-0.5-9.2-0.5-9.2c0-0.2-0.1-0.3-0.3-0.4c-0.1,0-0.1,0-0.2,0
	l-0.1-2.6l0.2-0.1c3.2-12.8,10-44.6,13.1-53.6c1.1-3.3,3.1-8.7,3.1-8.7l0.1,58.6h-0.1c-0.2-0.1-0.4-0.2-0.6-0.3
	c-0.4-0.2-0.7-0.4-1.1-0.5c-0.8-0.3-1.6-0.6-2.4-0.7c-0.2,0-0.4-0.1-0.7,0c-0.2,0-0.4,0-0.6,0.1c-1.4-0.6-2.9-0.8-4.4-0.5
	c-1.4,0.6-2.3,1.9-2.4,3.4c-0.2,1-0.3,2-0.3,3c0.2,0.8,0.5,1.5,0.9,2.1l0.3,0.5c0.7,1.3,9.1,7.1,15,7.1c4.8,0,5.7-1.1,5.8-1.4
	c0-0.1,0.1-0.2,0.1-0.2c0,0,0.6-4.3-0.5-8.2c0-0.1-0.1-0.3-0.3-0.3c-0.1,0-0.1,0-0.2,0l-0.1-2c0.6,0,1.3-0.1,1.9-0.2
	c0,0,0.4-23.1,3.9-44.1c4.4-26,2.5-40.3,1.9-43.8C249.9,174.6,251,173,251,171.6z M210.4,280.1c-5.5,0.3-16.6-4.6-18.1-6.9
	c-0.3-0.5-0.5-1-0.6-1.6c0.6,0.8,12,10.4,23.6,6.3l0,0v0.7C215.1,278.8,214.1,280,210.4,280.1z M215.4,276.4c0,0-3.3,2.9-11.6,0.4
	c-5.2-1.1-11-4.7-11.6-6.3c-0.2-0.8,0-5.4,3.8-4.1c0,0.2,0,0.4,0.1,0.6l0,0c-0.1,0-0.2,0.1-0.3,0.1c-0.1,0.1-0.9,2.2-0.3,1.7
	c0.1-0.1,0.8-0.9,0.8-0.9c0.2,0,6.6,0.5,7.9,1.6c0.5,0.3,0.9,0.6,1.3,0.9c-0.1-0.6-0.4-1.1-0.7-1.6c-0.4-0.4-0.9-0.8-1.4-1
	c-1-0.3-2.1-0.5-3.2-0.6c-1.1-0.1-2.1-0.2-3.2-0.2c-0.1-0.2-0.1-0.3-0.1-0.5c2.8-0.1,8.5,0.3,8.5,0.3c0.2,0,0.9,0.9,1,1.1l0.1,0.2
	c0.7,1.2,1.9,2.1,3.2,2.5c1.7,0.6,3.5,0.5,5.1-0.3C215.2,272.3,215.4,274.4,215.4,276.4L215.4,276.4z M210.8,101.5
	c-1.2-1.8-2.5-2.9-8.5-2.2c-6.5,0.8-8-1.2-9.1-2.8c-0.5-0.7-0.8-3-0.8-5.2c0.2,0,0.4,0,0.6,0c2,0.1,3.8-1,4.6-2.8l-1.4-0.6
	c-0.7,1.4-2.2,2.1-3.7,1.8c0-1.4,0.1-2.6,0.1-3.2s-0.4-1.8-1.1-3.4c-0.3-0.6-0.6-1.3-0.7-1.7c1.4-0.5,2.7-1.1,4-1.9
	c1.7-1.3,2-2.6,2.5-5.5c0.2-0.8,0.4-1.8,0.6-2.9c0.8-3.7,5.9-7.5,8.1-9.1c1.8,0.8,5.1,1.8,6.2,4c1.4,2.8-0.5,7.9-1.4,9.7
	s0.2,3.4,1.4,3.6c3.1,0.6,2.3-1.3,4.4-3.3s6.3-1.3,6.6,3.9s-7.5,6.2-7.5,6.2c-0.6,5.5,4.6,5.5,7,8.4c0.7,0.8,1.4,1.5,1.4,1.5
	c0.1,1.1,0.3,3.1,0.4,4.3l0,0c-0.9,0.2-6.6,2.8-9.6,4.3l-1.5,0.7l0,0c-0.6-0.9-1.4-2.2-2.2-3.1C211.1,101.9,211,101.7,210.8,101.5z
	 M139.8,110.1c-1.9,0.4-2.2,2.8-2.2,3.5l2.4-0.1c0-0.3,0.2-1.5,1.6-0.6c0.1,1.4-2.9,4.5-4.8,2.4c-2.3-2.5-1.1-8,0-9.6
	c1.5-2.2,6.3-2.1,8.8-0.5l7.9,5.2c-0.1,3.3-3.9,6.7-4.1,6.7l0,0C147.7,115.1,142.9,109.5,139.8,110.1L139.8,110.1z M73.3,67l9.3-4.8
	l-0.4,5.3l-9,4.7L73.3,67z M167.9,18.5l-0.4,4.6l0,0l-13.8,7.1l0.4-4.7L167.9,18.5z M96.6,55.1l14.8-7.6l-0.4,5.1l-14.8,7.7
	L96.6,55.1z M125.4,40.3l14.8-7.6l-0.3,4.8L125,45.3L125.4,40.3z M85.9,30.1c0-1.9,1.5-3.5,3.5-3.5h0.3l65-4L85.9,57.9L85.9,30.1z
	 M115.2,174.7c0.3,8.5-5.9,15.8-14,16.3c-2.2,0.1-12,0-15.2-13.9l-0.9-12c0-0.1-1.5-3.4-1.6-3.5h0.1l8.4-1.1l2.7,2
	c0.7,0.5,1.6,0.7,2.4,0.7l5.8-0.5c1.1-0.1,2-0.6,2.7-1.5l1.9-2.6l9.7-0.6v0.5c-0.7,0.6-2.3,2.2-2.3,3.5
	C114.8,162.4,114.9,166.6,115.2,174.7L115.2,174.7z M106.2,152.6c0,0.1,0,0.3,0,0.4c-0.2,3.5-3.3,6.2-6.8,6c-3.3-0.2-5.8-2.9-6-6.1
	c0-0.9,0.1-1.7,0.4-2.6l0,0c1.2-3.3,4.9-5,8.2-3.7c1.8,0.7,3.1,2.1,3.8,3.8l0,0C106.1,151.1,106.2,151.8,106.2,152.6L106.2,152.6z
	 M91.8,156c1.9,4.4,7,6.5,11.4,4.6c0.6-0.3,1.2-0.6,1.7-1l-0.5,0.7c-0.4,0.5-0.9,0.8-1.6,0.9l-5.8,0.5c-0.5,0-1-0.1-1.4-0.4
	l-2.9-2.1c-0.2-0.1-0.3-0.2-0.5-0.1l-0.6,0.1C91.4,158.1,91.5,157,91.8,156z M109.2,157c-0.1-1.1-0.4-2.2-0.9-3.2l0,0
	c0.1-0.4,0.1-0.8,0.1-1.2c0-4.8-3.9-8.7-8.7-8.7c-4.8,0-8.7,3.9-8.7,8.7c0,0.3,0,0.6,0,0.9l0,0c-1.3,1.7-1.2,5.8-1.2,5.8l-4,0.5
	h-0.1c0,0,0.7-15.1,12.8-15.9c7.4-0.7,13.9,4.8,14.8,12.6v0.2L109.2,157z M85.9,187c0,0.6,1.8,1.9,2.3,2.2
	c4.5,3.6,11.9,4.3,17.2,2.5c3.5-1.3,6.5-3.6,8.6-6.8c2-3,2.9-6.6,2.8-10.2c-0.3-8-0.5-12.3-0.5-12.7s1.1-1.7,2-2.5
	c0.3-1,0.3-2,0.2-3.1l-3.7,0.1c-1-8.9-8.2-15-16.4-14.2c-5.5,0.6-10.2,4-12.5,9V68.2c0,0,82.5-42.8,82.5-42.8v91.9
	c-1.5-1.3-7-5.9-8.5-6.9c-3.3-2.1-4.8-2.2-5-2l-8.1-5.3c-3.1-2.1-9.6-2.5-12,1.1c-1.3,1.9-3.1,9.2,0.8,12.6c1.1,0.9,4.6,1.9,7.8-2.6
	c1.2,1.1,2.3,2.2,3.4,3.5c-1.4,0.7-1.9,1.7-1.1,3.5c2.9,6.8,17.1,18.8,22.6,23.4v73.8L86,214.1L85.9,187z M174.5,225.6l3-4.4
	l10.1,0.5l-2.6,4.5L174.5,225.6z M81.5,216.3l15.5,0.8l-2.7,3.9l0,0l-15.4-0.9L81.5,216.3z M126.6,222.9L110,222l2.7-4l16.7,0.9
	l-2.8,4.1L126.6,222.9z M145.1,219.6l16.7,0.9l-3,4.3l0,0l-16.6-1L145.1,219.6z M86,271.3v-48.3l82.5,4.8V246c0,1.3-0.3,2.5-4.1,3.6
	l-75.2,25.1C87.3,274.5,86,273,86,271.3z M204,188.7c-0.4-2.9-3.6-25.5-1.7-40.4c1.7-1.2,3.2-2.7,4.8-4c0.8-0.7,4.1-3.5,4.9-4.2
	c1.1-1,3.7-1.6,2.7-1.6c-4.1-0.2-17.6,12.9-23.1,13.8c-2.5,0.4-5.1,0.4-7.6,0c-2-0.5-3.8-1.4-5.4-2.6
	c-20.9-15.6-29.8-28.1-29.9-29.1c0-0.3,6.9-4.7,7.1-10.2c0.4-1,8.5,5.7,25.8,21.1c1.3,1.2,3.2,1.4,4.8,0.6c0.4-0.2,12.8-8.7,17-13.3
	c0.8-0.8,1.4-1.9,1.6-3c0-0.5-0.6-1.7-0.6-2.3c0-0.5,0.2-0.9,0.6-1.2c0.1-0.1,7.4-4.1,10.9-5.7c5.6-2.6,14.7-5.9,15.3-6
	c2.3-0.5,3.5,0.3,5,1.6c1.5,1.5,2.5,3.3,3.2,5.3c1,6.3-0.5,12.9-1.3,14.1c-6.7,10.4-17.9-8.4-29.1-6.6c1.7,0.1,6.6,1,9.2,3.4
	c2.7,1.8,10.4,12.1,19.8,7.6c2.3,7.9,11.5,40.9,11.5,45.7s-21,15.3-33.5,16.8C207,189.4,204.5,188.9,204,188.7L204,188.7z
	 M239.5,264.4l0.1,2.4c-1.3,0.5-2.7,0.6-4,0.2l-0.4-0.1c-1.1-0.3-2-0.9-2.7-1.7l0.4-3.4C234.6,263.9,237.3,264.4,239.5,264.4
	L239.5,264.4z M222.4,261.4c1.1-0.2,2.3-0.1,3.4,0.4c-0.1,0.2-0.2,0.3-0.2,0.5c0.6-0.3,1.3-0.4,2-0.3c1.5,0.4,3.8,1.5,3.7,1.5
	c-0.1,0.3-0.1,0.6-0.2,0.9c0,0.4,0.1,0.9,0.4,1.2c0.5,0.7,3.8,4.5,8.6,2c0.3,1.7,0.3,5.5,0.3,5.5c-9.2,1.1-18.3-5.7-18.3-5.7
	c-0.8-0.6-1.4-1.5-1.6-2.6C220.5,263.5,220.9,261.9,222.4,261.4L222.4,261.4z M235.6,275.6L235.6,275.6c-5.5,0-13.6-5.7-14.1-6.6
	l-0.3-0.5c-0.4-0.5-0.6-1.1-0.8-1.8c0.3,0.5,0.7,0.9,1.1,1.3l0.3,0.3c1.1,1.1,7.3,4.4,9.1,4.9c2.3,0.7,4.8,1.1,7.2,1.2
	c0.8,0,1.6-0.1,2.4-0.4v0.7C240.2,275,239,275.6,235.6,275.6L235.6,275.6z M215.8,82.8c-0.7-0.6,0.9-1.8,1.9-3.7c0,0,0.9-2.4,2-0.7
	s0.5,3.6-1.2,3.4S216.5,83.3,215.8,82.8z M207,74.5l-1.5,0.5c-1.3-4.1-3.7-3.7-3.8-3.6l-0.4-1.5C201.4,69.8,205.3,69,207,74.5z
	 M201.6,78.5c-0.4,1.3-1.3,2.2-2,2s-1-1.4-0.6-2.7s1.3-2.2,2-2S202,77.2,201.6,78.5L201.6,78.5z M222.8,265.1
	c0.1-0.5,0.1-1.1,0.5-1.4c0.2-0.2,1-0.7,1.1-0.8c0.1,0,0.3,0,0.4,0c0.9,0.2,4.4,1.6,5.2,2c0.2,0.2,1.6,1.2,1.6,2.3
	c-0.4-0.3-1.5-1.1-1.6-1.2c-0.1-0.1-0.3-0.3-0.5-0.4c-0.7-0.4-3.9-1.7-4.8-1.8h-0.2l0,0c-0.2,0.1-0.3,0.3-0.4,0.4
	C223.8,264.7,223.3,264.9,222.8,265.1L222.8,265.1z M103.5,178.3c0.1,0.9-0.2,1.8-0.8,2.5l0.1,4.4c0.1,0.9-0.5,1.7-1.3,1.9
	c-0.9,0-1.6-0.7-1.5-1.6c0,0,0,0,0,0l-0.1-4.1c-0.9-0.6-1.4-1.5-1.4-2.6c-0.2-1.6,0.8-3,2.4-3.3
	C102.3,175.4,103.5,176.7,103.5,178.3C103.5,178.3,103.5,178.3,103.5,178.3z M89.3,164c0,0.7-0.4,1.3-1.1,1.4
	c-0.1,0-0.2,0.1-0.3,0.1c-0.8,0-1.4-0.6-1.4-1.4c0,0,0,0,0,0c0-0.8,0.6-1.5,1.4-1.5c0.1,0,0.3,0,0.4,0.1
	C88.9,162.8,89.3,163.4,89.3,164z M113.4,161.4c0,0.8-0.6,1.5-1.4,1.5c-0.8,0-1.4-0.6-1.4-1.4c0,0,0,0,0,0c0-0.8,0.6-1.5,1.4-1.5
	C112.7,159.9,113.4,160.5,113.4,161.4C113.4,161.3,113.4,161.3,113.4,161.4L113.4,161.4z M123.7,101.4c0.1-1.1,3.3-0.6,4.1-0.7
	c3.6-0.8,2.7-5.2,3.1-8c0.2-1.7,0.7-3.4,2.1-1.9c1.3,1.3,1.7,3.5,3.1,4.7c2.3,1.9,3.3-2.8,4.6-4.6c0.3-0.4,0.7-0.8,1.2-0.7
	c0.6,0.1,0.8,1,0.8,1.6c0,1.9,0.1,3.8,1,5.5c-1.1-1-1.9-2.3-2.4-3.7c-0.7,1-1.4,2-2.1,3c-0.3,0.4-0.6,0.9-1.1,1.1
	c-1.5,0.8-5.7-2.3-5.5-3.8c-0.5,3.6-0.3,7.1-4.4,8.2c-0.2,0-0.4,0.1-0.6,0.1c0.7,0.6,1.2,1.3,1.4,2.2c-0.5-0.7-1.2-1.2-2-1.6
	c-0.5-0.2-1.9-0.1-2.7-0.4C123.9,102.1,123.6,101.8,123.7,101.4z M134.6,129.3c-0.3,0.3-0.8,0.4-1.1,0.1c0,0-0.1-0.1-0.1-0.1
	c-0.5-1.4-0.5-3.1-1.4-4.4c-0.8-1-2-1.4-3.2-1.3c-0.8,0-5.3,0.4-6.7,0.7c-0.4,0.1-0.8-0.2-0.9-0.6c-0.1-0.3,0.1-0.6,0.4-0.8
	c3.9-2.5,5.3-5.4,4.8-5.8c-1.7-1-3.5-1.7-5.4-2.2c-0.8-0.2-2-0.8-1-1.5c0.5-0.3,3.9-0.8,6.4-2.7c-0.8,1.4-1.9,2.5-3.3,3.2
	c1.6,0.6,4.8,1.7,5.1,2.8c0.3,2.3-1.6,4.3-3.2,5.7c1.9-0.3,8.1-1.4,9.1,3.2c0.5-0.7,1.1-1.4,1.9-1.8c-0.6,0.7-1,1.5-1.2,2.4
	C134.4,127.2,135.1,128.4,134.6,129.3L134.6,129.3z"/>
</svg>
