<?xml version="1.0" encoding="UTF-8"?>
<svg id="Layer_1" data-name="Layer 1" xmlns="http://www.w3.org/2000/svg" viewBox="0 0 200 200">
  <defs>
    <style>
      .cls-1 {
        fill: #525860;
      }

      .cls-2 {
        fill: #2f3743;
      }
    </style>
  </defs>
  <path class="cls-2" d="m167.867,114.733c0-3.533-6.734-27.266-7.867-31.333,1.267-1.733,1.4-3.733,1.533-4.867.134-1.133.267-2.267.267-3.4.067-1.2-.067-2.333-.333-3.533-.267-1.133-1.734-5.867-6.2-5.867-1.4.133-2.734.467-4,1-.067-.667-.267-2.467-.267-2.467,3.8-1.067,9.6-8.2,10.8-11.6,2.4-6.8-1.8-9.733-1.8-9.733,0,0,.267-2.733-2.8-4.467-6.467-3.733-15-4.067-19.667-1.267-1.866,1.133-1.6,2.8-.666,3.8-1.734,1.2-4.934,3.8-5.534,6.467-.2.8-.4,4.067-1.733,5-.533.333-1.133.6-1.733.8-.734.267-1.534.533-1.4,1.333.066.333,1.266,3,1.266,3.267,0,.067-.333,5.667.667,7.4,1,1.6,2.467,2.867,7.067,2.333,3.666-.467,4.133.267,4.666,1,.134.133.2.333.334.467.466.533,1,1.333,1.333,1.867-1.333.667-5.4,2.867-5.533,2.933-2,.933-.734,3.733-.734,3.733-1.6,2.733-9.666,8.2-11.933,9.533-.933.333-6.4-4.667-7.733-5.8V17.267c0-.533-.134-1-.334-1.533l3.067-1.6,1.333-7.067v-.067l-10.733,5.6-49.133,3.933c-2.133,0-3.867,1.733-3.867,3.867v19.333l-8.4,4.333v7l8.4-4.4v60.4l-1,.133c-.133,0-.2.067-.267.133l-1.267,1.667.933,2.133s.6,7.934,1.067,10.2c.133.467.267.934.533,1.4v20.267h-.4l-7.4-.4-4.8,5.4-.067.067,1.6.066,6.8.4,4.2.267v32.333c0,1.4.733,2.667,1.867,3.334h-.133s-18,5.533-24.867,9.133c5.533-1.067,25.333-7.667,25.333-7.667,0,0,71.267-22.866,75.067-25.866-4.333.6-17.867,5.2-17.867,5.2.134-.4.267-.867.2-1.334v-11.6l8.8.534,3.534-6-12.334-.667v-46.8c8.2,8.467,15.067,3.067,18.267.6-1.133,10.733,1.267,26.333,1.267,26.533s.2.867,3.2.867h.6c.133,2.4.8,12.467.266,17.4-.6,5.6-1.4,32.667-1.4,32.667,1.667.733,3.534,1,5.267.666l.067,1.934c-2.867,1.466-4.467-1.134-4.467-1.134-.067-.133-.467-.666-.6-.8-.2-.266-.533-.466-.867-.533,0,0-5.6-.267-6-.133h-.066c-.734-.2-1.667-.4-2.4.066-.467.334-.8.734-.934,1.267-.066.2-1,2.4.067,4.067,1.067,1.666,12.267,7.866,16.533,3.4v-.134l-.333-6.133c0-.133-.067-.2-.2-.267h-.133l-.067-1.733.133-.067c2.134-8.533,6.667-29.733,8.734-35.733.733-2.2,2.066-5.8,2.066-5.8l.067,39.067h-.067c-.133-.067-.266-.134-.4-.2-.266-.134-.466-.267-.733-.334-.533-.2-1.067-.4-1.6-.466-.133,0-.267-.067-.467,0-.133,0-.266,0-.4.066-.933-.4-1.933-.533-2.933-.333-.933.4-1.533,1.267-1.6,2.267-.133.666-.2,1.333-.2,2,.133.533.333,1,.6,1.4l.2.333c.467.867,6.067,4.733,10,4.733,3.2,0,3.8-.733,3.867-.933,0-.067.066-.133.066-.133,0,0,.4-2.867-.333-5.467,0-.067-.067-.2-.2-.2h-.133l-.067-1.333c.4,0,.867-.067,1.267-.134,0,0,.266-15.4,2.6-29.4,2.933-17.333,1.666-26.866,1.266-29.2,1.6-1.4,2.334-2.466,2.334-3.4Zm-27.067,72.334c-3.667.2-11.067-3.067-12.067-4.6-.2-.334-.333-.667-.4-1.067.4.533,8,6.933,15.734,4.2v.467c-.134.133-.8.933-3.267,1Zm3.333-2.467s-2.2,1.933-7.733.267c-3.467-.734-7.333-3.134-7.733-4.2-.134-.534,0-3.6,2.533-2.734,0,.134,0,.267.067.4-.067,0-.134.067-.2.067-.067.067-.6,1.467-.2,1.133.066-.066.533-.6.533-.6.133,0,4.4.334,5.267,1.067.333.2.6.4.866.6-.066-.4-.266-.733-.466-1.067-.267-.266-.6-.533-.934-.666-.666-.2-1.4-.334-2.133-.4-.733-.067-1.4-.134-2.133-.134-.067-.133-.067-.2-.067-.333,1.867-.067,5.667.2,5.667.2.133,0,.6.6.666.733l.067.134c.467.8,1.267,1.4,2.133,1.666,1.134.4,2.334.334,3.4-.2.267,1.334.4,2.734.4,4.067Zm-3.066-116.6c-.8-1.2-1.667-1.933-5.667-1.467-4.333.533-5.333-.8-6.067-1.867-.333-.467-.533-2-.533-3.467h.4c1.333.067,2.533-.667,3.067-1.867l-.934-.4c-.466.933-1.466,1.4-2.466,1.2,0-.933.066-1.733.066-2.133s-.266-1.2-.733-2.267c-.2-.4-.4-.867-.467-1.133.934-.333,1.8-.733,2.667-1.267,1.133-.867,1.333-1.733,1.667-3.667.133-.533.266-1.2.4-1.933.533-2.467,3.933-5,5.4-6.067,1.2.533,3.4,1.2,4.133,2.667.933,1.867-.333,5.267-.933,6.467s.133,2.267.933,2.4c2.067.4,1.533-.867,2.933-2.2s4.2-.867,4.4,2.6c.2,3.467-5,4.133-5,4.133-.4,3.667,3.067,3.667,4.667,5.6.467.533.933,1,.933,1,.067.733.2,2.067.267,2.867-.6.133-4.4,1.867-6.4,2.867l-1,.467c-.4-.6-.933-1.467-1.467-2.067-.066-.2-.133-.333-.266-.467Zm-47.334,5.733c-1.267.267-1.467,1.867-1.467,2.333l1.6-.067c0-.2.133-1,1.067-.4.067.933-1.933,3-3.2,1.6-1.533-1.667-.733-5.333,0-6.4,1-1.467,4.2-1.4,5.867-.333l5.267,3.467c-.067,2.2-2.6,4.467-2.734,4.467-1.133-1.333-4.333-5.067-6.4-4.667Zm-44.333-28.733l6.2-3.2-.267,3.533-6,3.133.067-3.467ZM112.467,12.667l-.267,3.067-9.2,4.733.267-3.133,9.2-4.667Zm-47.534,24.4l9.867-5.067-.267,3.4-9.867,5.133.267-3.467Zm19.2-9.867l9.867-5.067-.2,3.2-9.933,5.2.267-3.333Zm-26.333-6.8c0-1.267,1-2.333,2.333-2.333h.2l43.334-2.667-45.867,23.533v-18.533Zm19.533,96.4c.2,5.667-3.933,10.533-9.333,10.867-1.467.066-8,0-10.133-9.267l-.6-8c0-.067-1-2.267-1.067-2.333h.067l5.6-.734,1.8,1.334c.467.333,1.067.466,1.6.466l3.867-.333c.733-.067,1.333-.4,1.8-1l1.267-1.733,6.467-.4v.333c-.467.4-1.533,1.467-1.533,2.333-.067.267,0,3.067.2,8.467Zm-6-14.733v.266c-.133,2.334-2.2,4.134-4.533,4-2.2-.133-3.867-1.933-4-4.066,0-.6.067-1.134.267-1.734.8-2.2,3.267-3.333,5.467-2.466,1.2.467,2.067,1.4,2.533,2.533.2.467.267.933.267,1.467Zm-9.6,2.266c1.267,2.934,4.667,4.334,7.6,3.067.4-.2.8-.4,1.133-.667l-.333.467c-.267.333-.6.533-1.067.6l-3.867.333c-.333,0-.667-.066-.933-.266l-1.933-1.4c-.133-.067-.2-.134-.333-.067l-.4.067c-.133-.734-.067-1.467.133-2.134Zm11.6.667c-.067-.733-.267-1.467-.6-2.133.067-.267.067-.534.067-.8,0-3.2-2.6-5.8-5.8-5.8s-5.8,2.6-5.8,5.8v.6c-.867,1.133-.8,3.866-.8,3.866l-2.667.334h-.067s.467-10.067,8.533-10.6c4.933-.467,9.267,3.2,9.867,8.4v.133l-2.733.2Zm-15.533,20c0,.4,1.2,1.267,1.533,1.467,3,2.4,7.933,2.866,11.467,1.666,2.333-.866,4.333-2.4,5.733-4.533,1.333-2,1.933-4.4,1.867-6.8-.2-5.333-.333-8.2-.333-8.467s.733-1.133,1.333-1.666c.2-.667.2-1.334.133-2.067l-2.467.067c-.667-5.934-5.467-10-10.933-9.467-3.667.4-6.8,2.667-8.333,6v-55.4l55-28.533v61.267c-1-.867-4.667-3.933-5.667-4.6-2.2-1.4-3.2-1.467-3.333-1.333l-5.4-3.533c-2.067-1.4-6.4-1.667-8,.733-.867,1.267-2.067,6.133.533,8.4.733.6,3.067,1.267,5.2-1.733.8.733,1.533,1.467,2.267,2.333-.933.467-1.267,1.133-.733,2.333,1.933,4.533,11.4,12.533,15.066,15.6v49.2l-54.866-2.866-.067-18.067Zm59.067,25.733l2-2.933,6.733.333-1.733,3-7-.4Zm-62-6.2l10.333.534-1.8,2.6-10.267-.6,1.733-2.534Zm30.067,4.4l-11.067-.6,1.8-2.666,11.133.6-1.867,2.733v-.067Zm12.333-2.2l11.133.6-2,2.867-11.067-.667,1.933-2.8Zm-39.4,34.467v-32.2l55,3.2v12.133c0,.867-.2,1.667-2.734,2.4l-50.133,16.734c-1.267-.134-2.133-1.134-2.133-2.267Zm78.666-55.067c-.266-1.933-2.4-17-1.133-26.933,1.133-.8,2.133-1.8,3.2-2.667.533-.467,2.733-2.333,3.267-2.8.733-.667,2.466-1.067,1.8-1.067-2.734-.133-11.734,8.6-15.4,9.2-1.667.266-3.4.266-5.067,0-1.333-.334-2.533-.934-3.6-1.734-13.933-10.4-19.867-18.733-19.933-19.4,0-.2,4.6-3.133,4.733-6.8.267-.667,5.667,3.8,17.2,14.067.867.8,2.133.933,3.2.4.267-.133,8.533-5.8,11.333-8.867.534-.533.934-1.267,1.067-2,0-.333-.4-1.133-.4-1.533,0-.333.133-.6.4-.8.067-.067,4.933-2.733,7.267-3.8,3.733-1.733,9.8-3.933,10.2-4,1.533-.333,2.333.2,3.333,1.067,1,1,1.667,2.2,2.133,3.533.667,4.2-.333,8.6-.866,9.4-4.467,6.933-11.934-5.6-19.4-4.4,1.133.067,4.4.667,6.133,2.267,1.8,1.2,6.933,8.067,13.2,5.067,1.533,5.267,7.667,27.267,7.667,30.467s-14,10.2-22.334,11.2c-6,.6-7.666.267-8,.133Zm23.667,50.467l.067,1.6c-.867.333-1.8.4-2.667.133l-.267-.066c-.733-.2-1.333-.6-1.8-1.134l.267-2.266c1.133,1.4,2.933,1.733,4.4,1.733Zm-11.4-2c.733-.133,1.533-.067,2.267.267-.067.133-.134.2-.134.333.4-.2.867-.267,1.334-.2,1,.267,2.533,1,2.466,1-.066.2-.066.4-.133.6,0,.267.067.6.267.8.333.467,2.533,3,5.733,1.333.2,1.134.2,3.667.2,3.667-6.133.733-12.2-3.8-12.2-3.8-.533-.4-.933-1-1.067-1.733,0-.867.267-1.934,1.267-2.267Zm8.8,9.467c-3.667,0-9.067-3.8-9.4-4.4l-.2-.334c-.267-.333-.4-.733-.533-1.2.2.334.466.6.733.867l.2.2c.733.733,4.867,2.933,6.067,3.267,1.533.466,3.2.733,4.8.8.533,0,1.066-.067,1.6-.267v.467c-.2.2-1,.6-3.267.6Zm-13.2-128.534c-.467-.4.6-1.2,1.267-2.467,0,0,.6-1.6,1.333-.467.733,1.133.333,2.4-.8,2.267-1.133-.133-1.333,1-1.8.667Zm-5.867-5.533l-1,.333c-.866-2.733-2.466-2.467-2.533-2.4l-.267-1c.067-.067,2.667-.6,3.8,3.067Zm-3.6,2.667c-.266.867-.866,1.467-1.333,1.333-.467-.133-.667-.933-.4-1.8s.867-1.467,1.333-1.333c.467.133.667.933.4,1.8Zm14.134,124.4c.066-.334.066-.734.333-.934.133-.133.667-.466.733-.533h.267c.6.133,2.933,1.067,3.467,1.333.133.134,1.066.8,1.066,1.534-.266-.2-1-.734-1.066-.8-.067-.067-.2-.2-.334-.267-.466-.267-2.6-1.133-3.2-1.2h-.133c-.133.067-.2.2-.267.267-.2.333-.533.466-.866.6Zm-79.534-57.867c.067.6-.133,1.2-.533,1.667l.067,2.933c.067.6-.333,1.133-.867,1.267-.6,0-1.067-.467-1-1.067l-.067-2.733c-.6-.4-.933-1-.933-1.734-.133-1.066.533-2,1.6-2.2.933-.066,1.733.8,1.733,1.867Zm-9.467-9.533c0,.466-.267.866-.733.933-.067,0-.133.067-.2.067-.533,0-.933-.4-.933-.934s.4-1,.933-1c.067,0,.2,0,.267.067.4.067.667.467.667.867Zm16.067-1.734c0,.534-.4,1-.933,1s-.933-.4-.933-.933.4-1,.933-1c.467-.067.933.333.933.933q0-.066,0,0Zm6.867-40c.067-.733,2.2-.4,2.733-.467,2.4-.533,1.8-3.467,2.067-5.333.133-1.133.467-2.267,1.4-1.267.867.867,1.133,2.333,2.067,3.133,1.533,1.267,2.2-1.867,3.067-3.067.2-.267.467-.533.8-.467.4.067.533.667.533,1.067,0,1.267.067,2.533.667,3.667-.733-.667-1.267-1.533-1.6-2.467-.467.667-.933,1.333-1.4,2-.2.267-.4.6-.733.733-1,.533-3.8-1.533-3.667-2.533-.333,2.4-.2,4.733-2.933,5.467-.133,0-.267.067-.4.067.467.4.8.867.933,1.467-.333-.467-.8-.8-1.333-1.067-.333-.133-1.267-.067-1.8-.267-.267-.2-.467-.4-.4-.667Zm7.267,18.6c-.2.2-.533.267-.733.067l-.067-.067c-.333-.933-.333-2.067-.933-2.933-.533-.667-1.333-.933-2.133-.867-.533,0-3.533.267-4.467.467-.267.067-.533-.133-.6-.4-.067-.2.067-.4.267-.533,2.6-1.667,3.533-3.6,3.2-3.867-1.133-.667-2.333-1.133-3.6-1.467-.533-.133-1.333-.533-.667-1,.333-.2,2.6-.533,4.267-1.8-.533.933-1.267,1.667-2.2,2.133,1.067.4,3.2,1.133,3.4,1.867.2,1.533-1.067,2.867-2.133,3.8,1.267-.2,5.4-.933,6.067,2.133.333-.467.733-.933,1.267-1.2-.4.467-.667,1-.8,1.6-.267.667.2,1.467-.133,2.067Z"/>
  <path class="cls-1" d="m140.8,187.067c-3.667.2-11.067-3.067-12.067-4.6-.2-.334-.333-.667-.4-1.067.4.533,8,6.933,15.734,4.2v.467c-.134.133-.8.933-3.267,1Zm3.333-2.467s-2.2,1.933-7.733.267c-3.467-.734-7.333-3.134-7.733-4.2-.134-.534,0-3.6,2.533-2.734,0,.134,0,.267.067.4-.067,0-.134.067-.2.067-.067.067-.6,1.467-.2,1.133.066-.066.533-.6.533-.6.133,0,4.4.334,5.267,1.067.333.2.6.4.866.6-.066-.4-.266-.733-.466-1.067-.267-.266-.6-.533-.934-.666-.666-.2-1.4-.334-2.133-.4-.733-.067-1.4-.134-2.133-.134-.067-.133-.067-.2-.067-.333,1.867-.067,5.667.2,5.667.2.133,0,.6.6.666.733l.067.134c.467.8,1.267,1.4,2.133,1.666,1.134.4,2.334.334,3.4-.2.267,1.334.4,2.734.4,4.067Zm-3.066-116.6c-.8-1.2-1.667-1.933-5.667-1.467-4.333.533-5.333-.8-6.067-1.867-.333-.467-.533-2-.533-3.467h.4c1.333.067,2.533-.667,3.067-1.867l-.934-.4c-.466.933-1.466,1.4-2.466,1.2,0-.933.066-1.733.066-2.133s-.266-1.2-.733-2.267c-.2-.4-.4-.867-.467-1.133.934-.333,1.8-.733,2.667-1.267,1.133-.867,1.333-1.733,1.667-3.667.133-.533.266-1.2.4-1.933.533-2.467,3.933-5,5.4-6.067,1.2.533,3.4,1.2,4.133,2.667.933,1.867-.333,5.267-.933,6.467s.133,2.267.933,2.4c2.067.4,1.533-.867,2.933-2.2s4.2-.867,4.4,2.6c.2,3.467-5,4.133-5,4.133-.4,3.667,3.067,3.667,4.667,5.6.467.533.933,1,.933,1,.067.733.2,2.067.267,2.867-.6.133-4.4,1.867-6.4,2.867l-1,.467c-.4-.6-.933-1.467-1.467-2.067-.066-.2-.133-.333-.266-.467Zm-47.334,5.733c-1.267.267-1.467,1.867-1.467,2.333l1.6-.067c0-.2.133-1,1.067-.4.067.933-1.933,3-3.2,1.6-1.533-1.667-.733-5.333,0-6.4,1-1.467,4.2-1.4,5.867-.333l5.267,3.467c-.067,2.2-2.6,4.467-2.734,4.467-1.133-1.333-4.333-5.067-6.4-4.667Zm-44.333-28.733l6.2-3.2-.267,3.533-6,3.133.067-3.467ZM112.467,12.667l-.267,3.067-9.2,4.733.267-3.133,9.2-4.667Zm-47.534,24.4l9.867-5.067-.267,3.4-9.867,5.133.267-3.467Zm19.2-9.867l9.867-5.067-.2,3.2-9.933,5.2.267-3.333Zm-26.333-6.8c0-1.267,1-2.333,2.333-2.333h.2l43.334-2.667-45.867,23.533v-18.533Zm19.533,96.4c.2,5.667-3.933,10.533-9.333,10.867-1.467.066-8,0-10.133-9.267l-.6-8c0-.067-1-2.267-1.067-2.333h.067l5.6-.734,1.8,1.334c.467.333,1.067.466,1.6.466l3.867-.333c.733-.067,1.333-.4,1.8-1l1.267-1.733,6.467-.4v.333c-.467.4-1.533,1.467-1.533,2.333-.067.267,0,3.067.2,8.467Zm-6-14.733v.266c-.133,2.334-2.2,4.134-4.533,4-2.2-.133-3.867-1.933-4-4.066,0-.6.067-1.134.267-1.734.8-2.2,3.267-3.333,5.467-2.466,1.2.467,2.067,1.4,2.533,2.533.2.467.267.933.267,1.467Zm-9.6,2.266c1.267,2.934,4.667,4.334,7.6,3.067.4-.2.8-.4,1.133-.667l-.333.467c-.267.333-.6.533-1.067.6l-3.867.333c-.333,0-.667-.066-.933-.266l-1.933-1.4c-.133-.067-.2-.134-.333-.067l-.4.067c-.133-.734-.067-1.467.133-2.134Zm11.6.667c-.067-.733-.267-1.467-.6-2.133.067-.267.067-.534.067-.8,0-3.2-2.6-5.8-5.8-5.8s-5.8,2.6-5.8,5.8v.6c-.867,1.133-.8,3.866-.8,3.866l-2.667.334h-.067s.467-10.067,8.533-10.6c4.933-.467,9.267,3.2,9.867,8.4v.133l-2.733.2Zm-15.533,20c0,.4,1.2,1.267,1.533,1.467,3,2.4,7.933,2.866,11.467,1.666,2.333-.866,4.333-2.4,5.733-4.533,1.333-2,1.933-4.4,1.867-6.8-.2-5.333-.333-8.2-.333-8.467s.733-1.133,1.333-1.666c.2-.667.2-1.334.133-2.067l-2.467.067c-.667-5.934-5.467-10-10.933-9.467-3.667.4-6.8,2.667-8.333,6v-55.4l55-28.533v61.267c-1-.867-4.667-3.933-5.667-4.6-2.2-1.4-3.2-1.467-3.333-1.333l-5.4-3.533c-2.067-1.4-6.4-1.667-8,.733-.867,1.267-2.067,6.133.533,8.4.733.6,3.067,1.267,5.2-1.733.8.733,1.533,1.467,2.267,2.333-.933.467-1.267,1.133-.733,2.333,1.933,4.533,11.4,12.533,15.066,15.6v49.2l-54.866-2.866-.067-18.067Zm59.067,25.733l2-2.933,6.733.333-1.733,3-7-.4Zm-62-6.2l10.333.534-1.8,2.6-10.267-.6,1.733-2.534Zm30.067,4.4l-11.067-.6,1.8-2.666,11.133.6-1.867,2.733v-.067Zm12.333-2.2l11.133.6-2,2.867-11.067-.667,1.933-2.8Zm-39.4,34.467v-32.2l55,3.2v12.133c0,.867-.2,1.667-2.734,2.4l-50.133,16.734c-1.267-.134-2.133-1.134-2.133-2.267Zm102.333-4.6l.067,1.6c-.867.333-1.8.4-2.667.133l-.267-.066c-.733-.2-1.333-.6-1.8-1.134l.267-2.266c1.133,1.4,2.933,1.733,4.4,1.733Zm-11.4-2c.733-.133,1.533-.067,2.267.267-.067.133-.134.2-.134.333.4-.2.867-.267,1.334-.2,1,.267,2.533,1,2.466,1-.066.2-.066.4-.133.6,0,.267.067.6.267.8.333.467,2.533,3,5.733,1.333.2,1.134.2,3.667.2,3.667-6.133.733-12.2-3.8-12.2-3.8-.533-.4-.933-1-1.067-1.733,0-.867.267-1.934,1.267-2.267Zm8.8,9.467c-3.667,0-9.067-3.8-9.4-4.4l-.2-.334c-.267-.333-.4-.733-.533-1.2.2.334.466.6.733.867l.2.2c.733.733,4.867,2.933,6.067,3.267,1.533.466,3.2.733,4.8.8.533,0,1.066-.067,1.6-.267v.467c-.2.2-1,.6-3.267.6Zm-13.2-128.534c-.467-.4.6-1.2,1.267-2.467,0,0,.6-1.6,1.333-.467.733,1.133.333,2.4-.8,2.267-1.133-.133-1.333,1-1.8.667Zm-5.867-5.533l-1,.333c-.866-2.733-2.466-2.467-2.533-2.4l-.267-1c.067-.067,2.667-.6,3.8,3.067Zm-3.6,2.667c-.266.867-.866,1.467-1.333,1.333-.467-.133-.667-.933-.4-1.8s.867-1.467,1.333-1.333c.467.133.667.933.4,1.8Zm14.134,124.4c.066-.334.066-.734.333-.934.133-.133.667-.466.733-.533h.267c.6.133,2.933,1.067,3.467,1.333.133.134,1.066.8,1.066,1.534-.266-.2-1-.734-1.066-.8-.067-.067-.2-.2-.334-.267-.466-.267-2.6-1.133-3.2-1.2h-.133c-.133.067-.2.2-.267.267-.2.333-.533.466-.866.6Zm-79.534-57.867c.067.6-.133,1.2-.533,1.667l.067,2.933c.067.6-.333,1.133-.867,1.267-.6,0-1.067-.467-1-1.067l-.067-2.733c-.6-.4-.933-1-.933-1.734-.133-1.066.533-2,1.6-2.2.933-.066,1.733.8,1.733,1.867Zm-9.467-9.533c0,.466-.267.866-.733.933-.067,0-.133.067-.2.067-.533,0-.933-.4-.933-.934s.4-1,.933-1c.067,0,.2,0,.267.067.4.067.667.467.667.867Zm16.067-1.734c0,.534-.4,1-.933,1s-.933-.4-.933-.933.4-1,.933-1c.467-.067.933.333.933.933q0-.066,0,0Zm6.867-40c.067-.733,2.2-.4,2.733-.467,2.4-.533,1.8-3.467,2.067-5.333.133-1.133.467-2.267,1.4-1.267.867.867,1.133,2.333,2.067,3.133,1.533,1.267,2.2-1.867,3.067-3.067.2-.267.467-.533.8-.467.4.067.533.667.533,1.067,0,1.267.067,2.533.667,3.667-.733-.667-1.267-1.533-1.6-2.467-.467.667-.933,1.333-1.4,2-.2.267-.4.6-.733.733-1,.533-3.8-1.533-3.667-2.533-.333,2.4-.2,4.733-2.933,5.467-.133,0-.267.067-.4.067.467.4.8.867.933,1.467-.333-.467-.8-.8-1.333-1.067-.333-.133-1.267-.067-1.8-.267-.267-.2-.467-.4-.4-.667Zm7.267,18.6c-.2.2-.533.267-.733.067l-.067-.067c-.333-.933-.333-2.067-.933-2.933-.533-.667-1.333-.933-2.133-.867-.533,0-3.533.267-4.467.467-.267.067-.533-.133-.6-.4-.067-.2.067-.4.267-.533,2.6-1.667,3.533-3.6,3.2-3.867-1.133-.667-2.333-1.133-3.6-1.467-.533-.133-1.333-.533-.667-1,.333-.2,2.6-.533,4.267-1.8-.533.933-1.267,1.667-2.2,2.133,1.067.4,3.2,1.133,3.4,1.867.2,1.533-1.067,2.867-2.133,3.8,1.267-.2,5.4-.933,6.067,2.133.333-.467.733-.933,1.267-1.2-.4.467-.667,1-.8,1.6-.267.667.2,1.467-.133,2.067Z"/>
  <path class="cls-2" d="m144.2,55.533c-.467-.4.6-1.2,1.267-2.467,0,0,.6-1.6,1.333-.467.733,1.133.333,2.4-.8,2.267-1.133-.133-1.333,1-1.8.667Zm-5.867-5.533l-1,.333c-.866-2.733-2.466-2.467-2.533-2.4l-.267-1c.067-.067,2.667-.6,3.8,3.067Zm-3.6,2.667c-.266.867-.866,1.467-1.333,1.333-.467-.133-.667-.933-.4-1.8.267-.867.867-1.467,1.333-1.333.467.133.667.933.4,1.8Zm-65.4,66.533c.067.6-.133,1.2-.533,1.667l.067,2.933c.067.6-.333,1.133-.867,1.267-.6,0-1.067-.467-1-1.067l-.067-2.733c-.6-.4-.933-1-.933-1.734-.133-1.066.533-2,1.6-2.2.933-.066,1.733.8,1.733,1.867Zm-9.467-9.533c0,.466-.267.866-.733.933-.067,0-.133.067-.2.067-.533,0-.933-.4-.933-.934s.4-1,.933-1c.067,0,.2,0,.267.067.4.067.667.467.667.867Zm16.067-1.734c0,.534-.4,1-.933,1s-.933-.4-.933-.933.4-1,.933-1c.467-.067.933.333.933.933q0-.066,0,0Zm6.867-40c.067-.733,2.2-.4,2.733-.467,2.4-.533,1.8-3.467,2.067-5.333.133-1.133.467-2.267,1.4-1.267.867.867,1.133,2.333,2.067,3.133,1.533,1.267,2.2-1.867,3.067-3.067.2-.267.467-.533.8-.467.4.067.533.667.533,1.067,0,1.267.067,2.533.667,3.667-.733-.667-1.267-1.533-1.6-2.467-.467.667-.933,1.333-1.4,2-.2.267-.4.6-.733.733-1,.533-3.8-1.533-3.667-2.533-.333,2.4-.2,4.733-2.933,5.467-.133,0-.267.067-.4.067.467.4.8.867.933,1.467-.333-.467-.8-.8-1.333-1.067-.333-.133-1.267-.067-1.8-.267-.267-.2-.467-.4-.4-.667Zm7.267,18.6c-.2.2-.533.267-.733.067l-.067-.067c-.333-.933-.333-2.067-.933-2.933-.533-.667-1.333-.933-2.133-.867-.533,0-3.533.267-4.467.467-.267.067-.533-.133-.6-.4-.067-.2.067-.4.267-.533,2.6-1.667,3.533-3.6,3.2-3.867-1.133-.667-2.333-1.133-3.6-1.467-.533-.133-1.333-.533-.667-1,.333-.2,2.6-.533,4.267-1.8-.533.933-1.267,1.667-2.2,2.133,1.067.4,3.2,1.133,3.4,1.867.2,1.533-1.067,2.867-2.133,3.8,1.267-.2,5.4-.933,6.067,2.133.333-.467.733-.933,1.267-1.2-.4.467-.667,1-.8,1.6-.267.667.2,1.467-.133,2.067Z"/>
</svg>