<?xml version="1.0" encoding="UTF-8"?>
<svg id="CONNECTION_ERROR" xmlns="http://www.w3.org/2000/svg" viewBox="0 0 300 300">
    <path id="skin_tshirt_shirts" style="fill: var(--skin-tshirt-shirts-color);"
          d="m168,161.1c.9-28.5-6.5-43.9-11.8-72.6l-3.2-1.2c-.2-3,0-7.7,0-7.7,0,0,12.2-5.9,12.4-22.6-.8,10.4,4.3,1.4,5.4-1.7,2.1-3.5.9-12.5-4-7.1-.1-.9,1.5-14.9-1.9-20l-43.7,2c-2.8,11.3,0,14.4,0,18.3-5.1-6.2-6.7,2.7-4.4,6.9.4,2.3,6.5,11.7,5.6,3.5.3,7.5,4.3,14.4,10.7,18.4-1,3.4,1.7,9.4-3.2,10.7-4.3.8-3.3,4.4.3,5.5.7,23.7-7.7,86.5-14.5,91.5-.8,9.8-2.6,45.38-2.6,45.38,0,0,2.68,2.511,4.28,2.511-2.87,13.272-.165,39.459,3.964,39.554,2.656.359,6.925-3.152,11.525-39.652l6.554-1.826c1.5-10.6,2.776-34.667,6.276-39.467-1.9,1.6,3.633,36.945,3.833,39.745,1.9,1,3.961,1.593,6.261,1.793,3.3,29,8.607,43.162,12.507,42.062,3.358-1.024,4.458-15.8,2.958-43.7,3.424-.869,4.194-1.431,4.194-1.431,0,0-3.652-61.369-7.452-68.869h0Z"/>
    <path id="hair" style="fill: var(--hair-color);"
          d="m170.466,22.026c2.5-6.1-4.092-12.871-4.392-12.471,0,0-.164,3.107-2.764,5.307.4-2.5.305-6.026-2.495-11.226,0,0-.221,4.399-6.921,7.899,0,0-.174-2.979-1.174-6.579,0,0-1.692,2.66-5.992,4.06.8-1.5,1.632-4.046.832-8.046,0,0-3.924,3.625-12.424,5.625,0,0,2.328-2.838,2.128-5.038-4.6,3-14.101,5.677-19.101,11.177-2.5,2.7-4.093,6.205-3.693,11.005-3.6,4.6.53,16.761,2.23,22.561,2.3-1.5,3.4.7,4,1.1-1.5-6.1-1.7-12.4-.6-18.5,1.8,0,41,2.1,46.6-2.2.4,6.3.4,14.6.2,21,.7-1.8,2.3-1.8,2.3-1.8,0,0,5.197-18.346,1.266-23.874h0Z"/>
    <path id="shirt" style="fill: var(--shirt-color);"
          d="m198.3,131.4c-1.8.2-7.6,2.7-8.5,3-.4-.3-1.5-.7-1.9-1.3s0-1.4-.4-1.7c-7.2-5.4-9.7-11.8-18.4-16.8-.6,12-3.3,24.4-1.6,36.6,4,11,2.5,29.707-12.9,26.007v-.607c.2-2,.2-4,.5-6.1-7.2,2.1-20.5-1-22.1,6.3.6.7,1.285,1.493,2.085,1.993-4.1-.7-11.085-3.693-15.185-1.593-1,.7-1.8,1.9-3,2-.5-5.1-.3-10.2.4-15.3.5,0,.8-.4,1.1-.8-1-4.1.6-8.1,1.5-12.1,1.7-12.4-.8-25-2.1-37.4-7.4,5.6-12.4,11.4-18.6,17.2-1.2,1.2-1.7,2.7-3.2,3.8-.3,0-6.4-2.5-8.2-2.7-4-.3-4.5.2-5.2.7-.7-2.4.7-5.5,3.3-8.9,2.1-2.8,5-5.8,7.9-9.2,7.5-8,11.934-13.753,18.934-21.353l.966-.647c2.4-1.6,13.4-5.7,15.6-4.8,4.3,2.5,2.5,15.3,2.1,22.4.4,10.7,1.5,21.1,1,32.2-.3,7.4,1.2,21.2,6.1,24.7,5.5,1.6,11.1,2.3,16.8,2.3,2.4-23.2.7-45.7-.3-69.2.2-3.3-1.162-13.738,2.538-12.138,4.5,1.5,10.433,2.387,14.625,4.239,6.6,7.9,13.248,15.436,20.348,22.736,6.1,7.8,12.289,12.362,10.989,16.762,0,0-1.2-.7-5.2-.3h0Z"/>
    <path id="shadow_sneakers" style="fill: var(--shadows-sneakers-color);"
          d="m172.7,296.4c-8.1-1.3-6.4-5.5-7.1-7.8-.8-2.3-6.3-3.8-6.5-5.5l-.2-2.7c-.4-3.3-.5-8,1.1-10.9.5-1.2-1.62-4.265,1.28-4.265,1.2-.1,1.003-1.508,2.103-1.908,3.4-.5,10.003-2.812,11.917.273.3,1.7.6,4,1.1,6.2l2.4,6.4c2,2.8,6.4,6.3,7.2,9.4,2.3,9.7-4.8,11.7-13.2,10.8h-.1,0Zm13.3-10.8h0c0,.1,0,0,0,0Zm-58.7-14.5l1.636-3.749c.257-4.867-9.536-3.951-12.836-2.751-1.3.3-.298,3.9.302,6.6-2.2-.3-2.502,1.6-3.402,7.2l-4.3,7.5c-.9,1.3-1.4,2.8-1.4,4.4-.9,8.2,6.885,9.138,14.2,7.8,9.8-2.2,4.009-7.948,9.609-15.448,0,0-1.247-9.161-1.647-10.361-.3-1.4-1.372-.885-2.372-.685l.21-.506h0Zm34.2-37.1c5.6.2,8.537-4.338,10.337,6.962.1-2.5-.375-6.897-.737-9.662-3.3.9-10.8,1.6-11.1,1.6-2.8-.9-7-2.3-8-3.3-.8-9-2.7-35.3-3.7-34.9,1.2-2.8,3.1-5.3,5.5-7.1-1.9-1.1-3.4,1.1-4.5,2.3-4,3.3-3.5-1.2.2-4.7-2.4-.3-4.1,2.9-5.9,4.2-1.5,1.2-7.3,37.9-7.9,39.4-5.9,2.6-12.3,4-18.8,4.2,8.2,5.7,14.3-4.1,13.9,12.5v1.5c.8-4.9,1.8-9.1,2.1-14,2.1-.4,4.2-1,6.2-1.7,0,0,2.688-30.202,5.2-37,2.9,9.7,2.9,25.1,5.1,35.6,0,1.8,3,2.8,6.3,3.3.7,3.4.5,9,1.7,12.4.9-4.1-2.6-11.4,4.1-11.6h0Zm-.044-56.842c6.5-1.7,9.844.192,9.844-.308-4-19.2-2.3-52.35-2.3-62.15,0,0,1.2-3.5.1-3.2-8.4,3,2.042,61.571-7.658,65.571l.014.087h0Zm-42.756-34.658c0,1-3.7,36.9-2.7,38.1-1.1,8.1-.8,16.8-1.5,24.9,4.3-13-.2-24.5,20.6-26.7-1.8-.8-5.5-2.3-7.2-3.2-1.3-.7-2.7-1.2-4.1-1.4l-.7-.6c-6.9-16.1,5.2-35.4-3.2-56.2-1.7-9.2-1.3,24.9-1.2,25.1h0Zm-1.5-116.6c-1.6,6,2.4,19.7,3.4,22.1.7-3,0-11.2,2.4-13.5,1.7-1.4,4.8-.5,6.2-2.3,4.6,2.5,9.6,0,14.2-.9,2.9-.3,6,.6,8.7-.8,1.5-.9,2.7.9,4.2.8,4.8-1.1,10.7.9,10.9,6.6,0-2.3.4,2-.2,6.4,3.2-5.9-.9-14.6,3.4-20.2,0,0-.2-1.9-.7-4.4-3,3.5-4.8,6.3-9.5,6.8,1.5-1.4,2.4-3.3,2.6-5.4-5.2,2.6-9.4,2.7-15.3,3.4,1.1-2.2,1.5-4.7,1.2-7.1-2.4,4-8.2,7.1-13,7.4l.7-5.2c-4,6.5-13.2,9-19.6,4.4,0,.6.3,1.7.8,2.6l-.4-.7h0Z"/>
    <path id="hands" style="fill: var(--hands-color);"
          d="m198.3,142.1c-16,11.1-20.9,13.3-25.6,13.2-3.6.7-8.5,1.5-10.5-2.1-.8,1.8-2.3.2-1.5-.7-.8,1-1.9.1-1.9-.6-1.1.4-1.5-1.1-2.1-1.8-.2-.7,0-1.7-.3-2.5-.2-.6-.9-1.4-.9-2,.5-.6,1.9-.2,2-1.1,1.2-4.8,5.2-3.3,9.1-1.6,2.5,1.1,3.2,3.5,5.1,5.4,5.2-2.4,16.1-10.9,18.6-12.3.8-.3.4-.6,0-1.2-.1-1,9-3.6,12.2-3,3,4.4.5,6.7-4.1,10.3h-.1Zm-67.3,2.4c.3-.8-1.7-.1-1.8-1.1-.7-7.2-13.3-.1-14.4,4.2-2.9,0-10.1-6.2-15.2-9.9-1.4-1-4.3-2.2-4.3-2.2,0,0,0-.6.5-.7-6-2.3-9.3-3.2-12.4-2.6-1.6,3.5-2.2,5.1,5.1,10.9,7.8,5.9,16.8,10.1,26.3,12.3,3.5.3,7.5.9,10-2.8-.7,1.1,1.7.8,1-.2.7.3,1.7-.4,1.7-1.2,1.1.6,1.3-.9,2-2.1.6-1.1,1-3.3,1.5-4.5h0v-.1h0Z"/>
    <path id="contour" style="fill: var(--contour-color);"
          d="m136.6,39.7c-.6,0-11.6,3.1-11.6,3.1,0,0,6,.4,7.9,0,5.4-.9,3.8-3.2,3.7-3.2h0v.1Zm12.3,32c-1.3-3.5-6.5-1.8-8.5.2-.3,1.2,6.6-2.9,8.5-.2Zm-5-45.6c-3.5,4.2-9,4.8-14.1,3.6.7-.4,1.5-1.1,2-1.7-4.3,2.1-9.3,2-13.5-.2,0,0,1.5,2.2,2,2.3-1.5,5.1-1.4,10.6.2,15.7-.4-4.9-.6-10.4.7-15.2,2.6,1.1,5.9.9,8.3-.8,5.1,2.1,11.5,1.4,14.4-3.7h0Zm-10.1,21.8c7.6,6.3-5.5,15.2-6.8,4.4,0-4.7,4-6.3,6.8-4.4Zm-5.6,3.8c0,1.9.2,2.5,1.5,3.8.4.4.9.7,1.5.8-.4-.3-.7-.9-.7-1.7-.3-3.1,3.7-4.5,4,.4,3.4-6.4-6.2-10.7-6.3-3.3Zm23-11.9h-.2c-.2,3.6,9.1,3.3,11.6,3-2.3-.4-7.8-1.6-11.4-3.1h0v.1h0Zm-38.5-7.8c.5,4.4,1.9,9.3,3.6,13.4-.6-4.8-3.9-17.2-2-21.4,0,.5.7,2.2,1.4,2.9,0,0-6.2-11.6,11.1-20.1,2.9-1.5,7.2-2.7,10-4.4-.1,1.1-3.7,5.2-4.4,5.7,4.9-1.9,10.6-3.1,14.8-6.4.7,4-1,7.3-3,10.7,1.2-.7,2.1-1.8,2.7-3.1,2-.4,4.3-2.1,5.7-3.6.6.9.3,6.9,1.4,6.1,2.9-1.6,6.2-4.2,7-7.6,2.6,5.1,2.4,11-.3,16,1.5-1.1,2.4-3.4,2.7-5.2,1.8-1,2.7-3.3,3.1-5.2,5,5.4,5.9,13.5-.8,17.9-3.5,2-8,1.7-11.8,1.1,2.6-.9,5-2.4,6.9-4.4-5.5,4-12.8,5.6-19.5,5.3,2.5.8,9.2.6,12.1-.7,3.5,1.6,8.3,1.7,11.8-.3,2.2,5.3,1.4,11.8,1.7,17.5.8-5.5,1.9-12.9-1-17.9,5.2-.8,8.9-14.5-.2-19.5,0,2.1-.8,4.1-2.2,5.7.7-4-1.4-10.6-2.8-11.3-.6,3.2-3.8,6.2-6.7,7.7,0-2.1-.4-4.2-.9-6.2-.5-1.1-4.6,3.5-6,4,1-2.6,1.2-5.4.7-8.1l-.2-.2c-3.5,2.8-7.6,4.8-12,5.8,1.3-1.2,1.5-3.1,2-4.6,0-1.5-.8.8-4.8,1.8-21.9,7.5-18.5,20.5-18.5,20.5-1.9,2-1.7,5.5-1.6,8.1Zm48.2,20.8c-.2,3.4-3.2,5.2-5.1,4.8-1.2,0-2.2-.7-2.9-1.7-1.2-1.3-1.3-3.1-.7-4.7.5-1.9,1.8-3.5,3.7-3.6,1.1-.2,5.3-.7,5,5.2Zm-.9-.4c-.8-8.6-11-2.5-5.9,3.4-.9-1.5.2-4.1,1.9-3.9,2.2,0,2.4,4.3.3,4.9,2.4,0,3.5-2.6,3.7-4.4Zm-5.1,43.8c-1,9.3,2.4,29.5,1.5,40.5,2.2-4.2-2.2-41.4,2.9-47.6,4.1,1,8.5,2.1,12.5,4,8.8,10.3,18.7,20,27.7,30.1-5-6.6-10.8-12.7-16.5-18.6-3.4-3.4-7.9-9.7-11-12.8-5.8-2.6-11.6-3.6-17.9-4.6,0,0,1.5,5.3.8,9Zm14.2-50.1c-.5,0-.9.4-1.5.9,4.3-2.4,3.9,3.6,2.9,6.3-1.1,2.4-1.4,7.9-4.3,8.4,2.9.6,4.5-6.2,5.5-8.2,1.1-2.5.3-7.8-2.4-7.4,2.6-5.7,4.905-16.1,1.433-23.698,2.3,7.7-.633,17.598-1.633,23.698Zm-22.7,16.2c.3,1.5-.7.9-1.5,1.4-5.6,2.7,5.1,1.3,1.5-1.4Zm9.9,90.6c-.8,7.9-1.4,15.8-1.7,23.7,1-3.9,2.9-24.2,1.7-23.7Zm-3.6,17.7c-2.8,0-16,.5-18.8,1.2,1.8.5,16.6.2,18.8-1.2Zm30.3,125.2c-5.6,1.4-16.3,3-17.5-4.7.4-4.1-3.1-4.8-5.8-6.7-1.2-.8-.7-2.7-1-3.9-.5-3.3,0-7.3.7-10.5l.5-.4c0-.5-.9-2.8-.3-3.2,0-.8.5-1.2,1.5-1.3-2.6-10.5-4.5-21.2-5.7-31.9-2.1-.2-4.2-.8-6.1-1.8-1.6-11.4-3.7-23.8-4.3-35.3h.1c1.8,11.4,2.7,23.8,4.8,34.9,6,3.2,16.5,1.5,24.7-.6l-3.3,1.1c1,9.6,1.3,21,.5,30.3,1.5.2,4.1.3,4.1,2.3.8,4.6,1,9.3,3.7,12,4.4,4.5,7.6,9.8,6.8,10.6,1.595,6.795-3.4,9.1-3.4,9.1h0Zm-21.144-31.079c1.5-2.9,6.657-2.855,9.557-2.955.2-4.2-.013-10.466.187-14.666.1-4.9.055-10.493-.845-15.393-4.8,1.3-9.755,1.593-14.755,1.293,1.3,10.7,5.856,31.721,5.856,31.721Zm3.744,22.879c0-.7-.2-2.3-.6-2.9-1.6-1.8-4.1-2.6-5.8-4-.5,4,4.1,4.4,6.4,6.9h0Zm20.6,1.9c-1.2,3.3-5.2,3.6-8.2,3.9-3.3,0-8.1.3-10.6-2.2,0,0,0-.8.1-.5,3.6,2.7,8.7,1.9,12.9,1.5,4.8-.2,7.1-4.8,4.1-8.7-6.1-6.8-7.4-9.4-8.4-13.2s-1.1-6.7-1.1-6.7c0-.4-.3-.7-.6-.9-2.2-.8-7.1,0-10.4.8-4.4,1.6.5,6.7,1.7,8.7-1.7.4-3.5-5-4.4-6.3l-1.2.3c.8,2.8-.3,3.9-.3,3.9-.4,2.7-.8,7.3-.7,10.1,0,0,5.5,2.4,6.7,4.7.2,1.3.3,4.4.3,4.4-.2,4.3,3.5,6.3,7.3,6.4,4.8.3,13.202.499,12.902-6.201h-.102Zm-13.755-17.683c-1.8-.6-5.5-.3-6.7.7.7.3,3.8-.2,4.9.1-1.1.6-4.2,2.8-4.4,3.8,0,.5,3.7-2.6,6.2-3.5,1.1.3,4.2,1.4,4.9,1.5,0-.2-2.6-2-3.4-2.2,5.1-1.8.2-1.3-1.5-.4Zm2.478,5.573c-1.8-.6-5.5-.3-6.7.7.7.3,3.8-.2,4.9.1-1.1.6-4.2,2.8-4.4,3.8,0,.5,3.7-2.6,6.2-3.5,1.1.3,4.2,1.4,4.9,1.5,0-.2-2.6-2-3.4-2.2,5.1-1.8.2-1.3-1.5-.4Zm-58.585,1.45c-.784.255-3.252,2.232-3.238,2.432.691-.149,3.707-1.462,4.783-1.838,2.557.723,6.464,3.558,6.429,3.059-.269-.984-3.515-2.962-4.654-3.484,1.076-.376,4.204-.093,4.881-.441-1.267-.914-4.979-.955-6.733-.231-1.759-.779-6.682-.936-1.468.504Zm28.762-87.238c-3.9,12.5-3.1,26.8-5.4,39.6-2.2.8-4.4,1.4-6.7,1.9-1.1,10.5-3,21-5.7,31.2,3.8,1.4.6,5.6,0,8.1,1.7.5-5.2.7-5.2.7,1.5.4,4.9,2.2,5.4,3.3,0,.5-4.5-2.1-7.4-2.7-1.4.3-4.7,2.3-5.7,2.6,0-.6,3.1-2.6,4-2.9-7.4-1.3-1.2-1.3,1.7-.7,1.8-.4,4.6-.9,6.5-.5,3.8-7.2,2.4-8-5.3-8.1-9.8.5-3,6.7-5.1,7.5-.2,0-.4-.8-.4-.8.2-2.6-2.6-6.3,1.3-7-1.1-9.9-1.5-20.6,0-30.5-1.7-.6-3.2-1.6-4.4-2.9.7-14.3,3.1-49.7,3.1-49.7,0-4.4.7-9.9,1.1-14.3-6.7,16.8-6.2,35.6-8.2,53.4.5,34.2-28.6,87.6-67.4,70.6-12.4,2.4-25.1-1.8-33.6-11.1-.5-.6-.5-1.5,0-2s1.5-.5,2,.1c7,7.9,18.2,12,28.6,10.6-11.6-9.9.6-30.9,14-20.6,7.4,7.4,1.5,19.3-7.3,21.9,37,10.7,60.7-37.7,60.6-69.6,1.9-21.4,2.2-44.6,12.6-64-11.4,1.1-39.9-16-36-21.7-.5-3.7.9-7.4,3.7-9.8-2,2.2-3.1,5.6-3.3,8.5,2.1-2.8,11.1,0,13.3,1.9.5-.1,1.3-2.9,1.3-2.9-2.9-3.3-7.3-5.5-11.1-7.5v-.3c5.6,1.8,12.1,8,12.1,8,.7.7,0,.8-.7.5.6.4.6,2.1-.3,1.3,0,0-.4,1.3-1.4,1.4l-.2.2c7.1,2.7,11.9,9.5,18.9,12.2,1.2-1.6,2.2-3.8,3.8-5.1.6-9.3,0-27.9-1.1-28.1-.8,0-17.7,18-18.3,16.8-.7-1.3,17.1-17,18.3-17.7.9-.6,1.1,1.9,1.1,2,.9,8.9,1.6,18.1.7,26.5,2-.7,7.3-3.1,9.1-1.5,3.3-3.2,11.9-8,11.9-8,1.7-.7,2.8,2,1.1,2.7-4.4,2-8.4,4.8-11.7,8.3,0,0,1.9.5,2,1.2-.1,0-1,2.8-1.2,2.5h-.1l.2,2.5c0,.5-.8,1.2-1.3,1,0,.7-.9,1.2-1.5,1,0,.7-.9,1.5-1.3,1.2,0,1.1-1.3,1.1-1.7.2-.7,1.1-1.7,2-2.9,2.5-1.6,3.1-3,6.3-4.3,9.5-.3,4.7-1.3,10.6-1.2,15.2,3-2.7,6.9-5.3,11.1-4.2l7.885,2.793c-9.1,0-9.285-5.893-18.985,1.907-.6,13.8-2,35.4-2.8,49.4,5.5,5.8,18.7,2.7,25.8.5,1.5-12.1,2-25.7,5.3-37.4s.8-1.7.8-1.7h-.1v.1h0Zm-26.8-36.1l3.3-6.4c-.4-.7-.2-2.3.7-1.2.3,1.4,1.4,4.1,2.2,5,2.1,2.5.4-2.1-.3-3-.4-.7-2.2-4.7-.2-3.2.3,1,1.7,5.6,2.5,5.9,1.7.2-2.7-6.6-1.2-7.3,1.2,0,1.5,5.6,2.6,5.8,1.4.1-3.4-8.9-.6-6.9.6,1.8,1.2,5.5,1.7,5.5.6-.1,0-2.7-.3-3.9-.5-1.7-.5-5.1-2.8-4.9-2.4.4-4.9,1-7,2.2-.3.2-.6.3-.8.6-1.3,1.5-2.5,3.6-4.1,4.9-.2,0,.3-.5.3-.6-4.4-1.3-7.1-3.7-10.6-6.7-5.9-5-10.7-6-10.9-6.1-.6-.5,2.1.2,2.4.3l.2-.3c-3.6-1.6-8.1-3.3-12-2.6-3.5,4.7,3.5,8.5,8.2,11.4,8.4,5.6,16.8,10.7,26.7,11.5h0Zm-76.6,131.8c25.1-8.5,1.4-31.2-5-12.5-1,4.3,1.4,10.9,5,12.5Zm90.6-54c-5,1-9.8,1.6-14.8.2-2,9.9-.4,20.3.2,30.2,2.8-.8,6.5-.4,9.3.5,2.5-8.8,5.3-30.9,5.3-30.9Zm.2-83.7c-1.2-.7-1.001,23.786.099,27.986l-.499-10.186c0-12.2.7-17.6.3-17.8h.1,0Zm159.5,142.1c-11.7.7-36.7.3-48.8.2-21.1.9-48.7.4-56.6-21.4-5.1-12.4-4.2-26.7-5.2-39.5-1-18.8-1.8-49.1-11.7-69.3.3,2.2,1.6,11.5,2.7,21.7,1.1,10.6,1.9,22.2,2.5,27.7.4,5.6,1,13.3.5,18.7-1.4-17.3-1.8-35.4-4.3-52.6-8.3-2.4-11.5,2.8-16.7,0,.9,0,3,.5,4,.3,4.1-.4,8.6-3,12.6-.6l-1.9-14.1c0-2.2-.7-4.5-1.9-6.4-2.2.6-4.3-.7-5.5-2.5-.9,1.5-2.1.1-1.6-.9-.8,1.4-2.2-.1-1.9-.7-1.2.5-1.6-.6-1.5-1-1.9,0-1.2-2.4-1-3.4-1-2.2-1.7-2.4,1.1-3l.8-2.4c-1.2-2.4-12.2-5.9-8.8-8.3,1.3-1,7.3,3.7,10.8,6.6,5,0,8.4,2.9,8.5,3-.9-9.6-.3-19.5,1-29,2.9,0,18.4,16.4,18.3,16.5-.2.2-5.8-5-9-8.3-2.9-2.9-5.9-5.5-9.2-7.9,0,6,0,26.1-.6,29.2l3,3.7c7-2.5,12-9.6,18.9-12.4l-.6-.9c-.8.3-1.1-.9-1.1-.9-1.2-.2-1.3-1-.2-1.4-.4,0-.8.5-1,0v-.3c1.8-4.7,10.5-7.9,12-8.2v.3c-4.9,1.9-11.1,5.6-10.9,7.6.3,0,1.2,2.8,1.4,2.6,3.3-2.2,11.6-4.5,13.3-2.5,1.1-2-3.5-7.9-3.4-8.2.1-.7,6.3,5.8,3.6,10,2.5,5.6-8.2,9.8-11.4,12.7-15.1,10.8-21.3,9.2-21.3,9.2,11.6,21,12.9,54.5,13.9,74.8.9,17.7,1.3,39.7,11.2,49.4,5.3,5.2,16.4,9.3,29.6,9.2,22.7.1,44.1,0,66.8-.4.8,0,1.4.3,1.5,1.1,0,.8-.5,1.8-1.6,1.9h-.3v.1h0Zm-100.4-145.9c3.3-2.9,11.3-5.6,11.8-10.2-.2-1.2-.9-2.3-1.5-3.3v-.3c-3.9-.3-8.1,1.2-11.5,2.9l.3.7,2.4-.3c-7.9,2.7-13.5,10.9-21.3,12.9,0,.2.7,1,0,1l-2.9-4c-.4-.5-7.2-4.3-9.9-3.2-1.6,1.3-3.3,7.6-2.2,8.5.6.4,1.2-3.7,2-5.6.2-.9,1-.2.8.3-.8,1.8-1.9,5.8-2,5.9.6,3,2.5-4.7,2.9-5.3,2.3-2-2,6.7-1.7,6.4,1.5,3.6,2.7-6.2,4.4-5.5.4.8-4.1,7.5-2.2,7.2,5.3-8.9-1.7-3.5,9.3.3s14.9-4.6,21.3-8.5v.1h0Zm-46.4-96.4c-1.2,3.9-.8,8.2,1.1,11.8-.7-3.9-.5-7.9-1.1-11.8Zm-14.6,226.5c-.3-1-.8-5.2-2.3-4.5,0,.2,2.7,7.1,2.4,10.4-1,1.3-1.9,2.7-2.7,4.2-.5,1.5-.5,4.9-.5,4.9.6,5.6-5.2,7.3-9.7,7.3-4.6.2-10.2-.2-10.3-6,2.4,5.4,15.6,4.3,19.2.5,0,0-9.8,2.5-14.5,2.1-5.1-1-5.5-5.8-2.7-9.5,0-.1,3.7-6.3,3.6-6.5l.7-4.2c.3-1.2,1-3.3,1.9-3.4-1.8,0-1.8,2.1-2.1,3.4l-.8,4.1c-1.4,2.7-5,7.6-5.5,10.7-.6,2.1-.2,4.7.8,6.7,4.2,4.6,14.6,4.3,19.1,0,1.9-3.2.4-7.6,3.3-10.4,1.8-1,.1-9.8.1-9.8h0Zm-44.4-152.3c1.3-2.8,4.2-5.2,6.1-7.6,5-5.7,18.8-22.2,21.2-23.9,5.4-2.8,11.3-4.5,17.4-5.2.7-1.6,1.8-7.3,1.7-9.5-5.4-3.7-9.1-9.4-10.2-15.8-4.1,2.8-10.2-13.9-4.9-15.2,1.1-.3,2.4.4,2.9,1.4-3.3-3.1-4.9.9-4.3,4.2.4,1.8,3.5,11.9,6.2,9.4l-1.4-7.1c-.5-1.2-1.2-3.1-2.3-4,1.1,0,2,1,2.3,1.9l-.2-5.4s2.3,18.6,5.4,22.8c3.7,5.6,13.9,13.8,20.7,12.9,3-.8,6.2-3.7,6.2-3.7,14.2-8,10.9-19.4,13.9-32.2v5.3c.4-.8,1.2-1.6,2.2-1.5-1.1.7-1.9,2.6-2.3,3.8-.9,9.3-2.3,20.1-13.7,25.3-.8,2.5.6,9.2,0,9v-.2l-1.8-6.5c-3.6,5.2-14.7-1.3-15.5,0-2.3,3.8-4.4,5.5-4.7,5.5.4,7,2.6,12.8.8,19.9-1.1,9.5,1.2,20,.5,29.4-.4-7.3-1.9-16.3-1.4-23.5.2-10.2,1.2-15.7-4.4-24.8-4.5.8-9.1,3-12.9,4.2-8.4,10.9-26.8,30.1-27.2,31.3l-.3-.2h0Zm60.5-12l-.9,1.9-7.7-5.1,5.7,9.1-3.3,6.7,7.1-9.5-.3-1,2.1-2.9-2.7.8h0Zm-13.7-20.6c5.6,4.2,14.1,4,19.8,0,0,0-13.8,2.6-19.8,0Z"/>
    <path id="glasses" style="fill: var(--glasses-color);"
          d="m168,45.6l-2.1.6c-.1-.2-18.1-.5-18.2-.6-8.4,0-16.8,0-25.2.6l-2.6-.4,2.3,1.2.3,5.2c.9,13.8,22.2,11.8,19.1-2.8,1.1-2.9,5.2-1.7,5.3.5-2.9,14,18.6,15.8,19.1,2.3l.3-5.4,1.7-1.2h0Zm-27.5,8.1c-.3,9.7-17.7,8.1-16.9-1.5l-.3-4.9,17.2-.5v6.9Zm24.3-1.4c.8,9.6-16.7,11.1-16.9,1.4v-6.9l17.2.6-.3,4.9Z"/>
</svg>
