<?xml version="1.0" encoding="UTF-8"?>
<svg id="Layer_1" data-name="Layer 1" xmlns="http://www.w3.org/2000/svg" viewBox="0 0 301 301">
  <defs>
    <style>
      .cls-1, .cls-2 {
        fill: #444f5b;
      }

      .cls-3 {
        fill: #ff7033;
      }

      .cls-4 {
        fill: #656e78;
      }

      .cls-5 {
        fill: #67707a;
      }

      .cls-2, .cls-6, .cls-7 {
        fill-rule: evenodd;
      }

      .cls-8, .cls-7 {
        fill: #23303e;
      }

      .cls-6, .cls-9 {
        fill: #7b838b;
      }

      .cls-10 {
        fill: #58626d;
      }

      .cls-11 {
        fill: #5f6872;
      }
    </style>
  </defs>
  <path class="cls-9" d="m137.5,78.445c2.9,1.3,6.2,1.9,9.4,1.7l6.7-.1s-.2,8.4-.7,9.8c-1.1,3-3.4,3.5-6.3,3.9-4.7.5-15.6,1.3-13.8-4.6,1-3.3.2-6.1.5-8.2l.4-3.8s1.9.4,3.8,1.3Z"/>
  <path class="cls-10" d="m142.2,84.045c-1-.4-1.9-1.1-2.9-1.6s-2.2-.8-3.2-.4c-1.3.5-1.9,1.9-2.1,3.3-.2,1.3-.9,1.9-.9,3.2,1.2-.9,1.8-1.2,2.8-1.6s2.1-.4,3.2-.3l5.1.2c1.4,0,2.8.1,4.1-.4s3.6-1.8,3.7-3.2c-2.8.8-7,1.9-9.8.8Z"/>
  <path class="cls-1" d="m132.9,88.644c.7-.9,1.4-1.4,1.6-2.5s.8-2.2,1.8-2.7c.7-.3,1.5-.2,2.2.1l2,1c3.3,1.7,7.6,1.3,10.5-.9l2.2,6.3c.3-2.8.2-6,0-8.9-2.5,1.5-5.9,3.4-8.7,3.1-4.1-.5-8.1-3.9-11.4-5.8.4,3.5.7,6.9-.2,10.3Z"/>
  <path class="cls-1" d="m165.8,114.144l4.8-8c.4,4.3-1.4-4.8-2.3-13.9,2.3,1.2,4.4,1.4,5.8,3.6l.3.6c4.215,11.654,13.042,28.073,12.111,46.583-2.276,5.589-11.168,2.585-11.168,2.585,0,0-3.929-13.029-9.543-31.468Z"/>
  <path class="cls-5" d="m175.205,143.161c2.47-7.51,19.113-16.139,27.126-19.514l3.406,3.544-21.722,21.978c-3.965,1.127-11.279,1.503-8.81-6.008Z"/>
  <path class="cls-9" d="m106.019,134.425c6.972,3.726-5.983,32.343-5.983,39.373l-8.336,1.507s-1.053-24.451,2.631-37.521c2.004-7.109,4.716-7.086,11.689-3.359Z"/>
  <path class="cls-5" d="m157.732,165.577c1.2-10.1-3.032-13.233-2.532-23.433,1-19.1.2-34.8,1.2-53.9-3.9-.3-7.656,4.461-11.556,5.061-3.9.6-9.044-2.261-12.344-4.461-9.5,32.1-13.4,46.9-14,80.4,4.7.8,9.9,1.7,14.7,2.2,8.7.9,11.6,6.8,16.2-.7,2-3.2,7.932-1.467,8.332-5.167Z"/>
  <path class="cls-10" d="m167.3,30.944c-.1-.8-.1-1.7.2-2.5.8-1.7,2.3-1.9,3.6-3.3,1.2,3.8,1.8,8,1.2,11.9-1.5,9.6-3.7,14.1-5.3,14.5-.4-5.8.8-14.8.3-20.6Zm-51.5-5.2c2-.6,4.1,1.3,4.5,3.4.5,2.1-.1,4.2-.5,6.3-.8,4.2,1.6,11.6,2.5,15.7-1.1.1-4.3-2.5-5.5-2.4-2.1-5-3-10.8-3.6-16.2-.1-1.3.2-1.5.5-2.8.4-1.3.9-3.6,2.1-4Z"/>
  <path class="cls-9" d="m166.6,50.945c.7-1.1,2-2.9,3.4-2.7,3.6.6,2.3,6.1,1.3,8.7-.4,1.1-2.9,8.1-4.8,6.6m-44.5-12.6c-.7-1.2-2.1-2.9-3.5-2.7-3.7.6-2.3,6.2-1.3,8.9.4,1.1,3,7.1,4.9,6.7.1,0,.9-.3.9-.8"/>
  <path class="cls-9" d="m165.4,29.945c3.1,4,2,18.3,2,18.3,0,0-.2,10.8-2.4,19.1-1.9,6.9-6.9,10.8-14.2,15.8-5,3.4-6.5,2.2-12.4-1-4.6-2.5-12.6-8.5-14.2-15.3-1.7-7-2.7-18.7-2.7-18.7,0,0-2.2-7.8.3-16.2"/>
  <path class="cls-1" d="m166.8,32.444c-2.1-1.4-6.7-1.8-9.2-2.1-8.6-.8-17.3-1.4-26-.5-2.3.2-4.6.6-6.6,1.7-2.4,1.3-5.9,1.4-6.3,6.1-.2,2.7.8,5.7,2.2,8,.6-4.2,1.6-9,5.2-11.2,2.4-1.5,5.4-1.5,8.2-1.5l20.6.3c2.7,0,5.4.1,7.9.9,2.5.9,4.6,4.8,5.4,7.3.2-2.7.9-7.4-1.4-9Z"/>
  <path class="cls-1" d="m120.9,48.244c-2.5-5.6-4.7-14.3-3-20.2.746,1.43,1.893,2.611,3.3,3.4-1.9,4.6-.8,11.8-.3,16.8Zm45.6-18.1c1.914,5.81,2.225,12.028.9,18,1.6-3,2.3-8.4,2-11.9-.3-3.4-.4-7.3,1.7-9.9l-3.5,2.5c-.5.4-1,.7-1.1,1.3Z"/>
  <path class="cls-10" d="m117.9,52.444c.2-.9,1-1.7,1.9-1.5.5.1.8.5,1,1,.2.4.3.9.3,1.4l.4,3c.2,1.4.4,2.9.2,4.4l-2.6-4.2c-.7-1.3-1.5-2.7-1.2-4.1Zm53-.3c-.2-.9-1-1.7-1.9-1.5-.5.1-.8.5-1,.9-.2.4-.3.9-.3,1.4l-.4,3c-.2,1.4-.4,2.9-.2,4.3l2.6-4.1c.7-1.3,1.5-2.6,1.2-4Z"/>
  <path class="cls-1" d="m141.9,55.445c-.814,1.855-2.161,3.426-3.871,4.512-1.71,1.086-3.704,1.639-5.729,1.588-4-.2-7.8-3.1-9-7-.7,2.6.6,5.4,2.7,7.1,2.1,1.7,4.9,2.3,7.6,2.2,2.3-.1,4.7-.7,6.5-2.2,1.7-1.5,2.6-4.1,1.8-6.2Zm5.7,0c1.5,3.7,5.6,6.3,9.6,6.1s7.8-3.1,9-7c.7,2.6-.6,5.4-2.7,7.1-2.189,1.617-4.885,2.397-7.6,2.2-2.3-.1-4.7-.7-6.5-2.2-1.6-1.5-2.6-4.1-1.8-6.2Z"/>
  <path class="cls-9" d="m171.6,223.445v6.9c.1,2.3,1.5,15,.6,26-.9,11-.9,13.4-1,15.9,0,1.8-1,3.6-2.6,4.1-1.6.5-4.3-.8-5.2-2.3,0,0-4.3-15.1-5-21.1-.7-6-2.3-10.1-2.1-13.3.2-3.3-.3-9.8-.4-13.9"/>
  <path class="cls-1" d="m162,236.245c-1.3.2-2.7.5-3.6,1.5-.9,1.1-1,2.7-1,4.1.1,1.4.7,4.7.1,6-1.3-3.6-1.2-9.9-2-13.2,5.4.5,11.1,1,16.1-1.1.7,2.5,1,7.2.9,9.7-1.2-8.6-3.8-7.5-4.5-7.5-2,0-4,.2-6,.5Z"/>
  <path class="cls-9" d="m119.1,222.844l-.5,6.9c-.2,2.3-2.5,14.6-1.6,25.6s1,13.4,1,15.9c0,1.8,1.1,3.6,2.7,4.1,1.7.6,4.4-.8,5.4-2.3,0,0,3.8-13.1,4.5-19.1.7-6,1.6-10.3,1.4-13.5-.2-3.3,1.8-10.6,1.9-14.7"/>
  <path class="cls-1" d="m131.3,247.745c0,.5-.2.9-.1,1.4.2-2.5,1.1-4.8,1.5-7.3.5-3.4.7-6.9.7-10.3l-8.6-.3c-1.6,0-3.2-.1-4.7.5-1.5.6-2.8,2-2.7,3.5,1,1.4,3,1.7,4.7,1.8l4.9.3c.8.1,1.6.1,2.3.6.9.6,1.3,1.8,1.5,2.9.3,2.3.6,4.7.5,6.9Z"/>
  <path class="cls-8" d="m118.7,225.545v2l-.1,2.3-.2,2.9-.9,7.3c-.789,5.575-.756,11.235.1,16.8l.6,7.3.1,5.2-.1,2s0,.1-.1,0l-.2-2-.5-5.2-.6-7.3c-.2-2.7-.3-5.6-.2-8.4l.1-4.3c.1-1.4.1-2.8.3-4.1l.4-3.9.5-3.4c.171-2.41.438-4.812.8-7.2Zm7.3,47.5l1.6-7,1.6-7.1,1.8-8.2c.6-2.8,1.1-5.6,1.4-8.3l.5-3.8.5-3.4.8-5.1.1-2,.1-.1.1.1-.1,2c-.1,1.3-.3,3-.7,5.1l-.5,3.4-.4,3.8c-.3,2.7-.8,5.5-1.3,8.3l-.8,4.2-.9,4c-.6,2.6-1.1,5.1-1.7,7.1l-1.3,5-.5,1.9c0,.1-.1.2-.2.1-.1.2-.2.1-.1,0Zm45.2-47.5l.3,2.1.2,2.4.2,3.1.4,3.6.2,4.1.3,4.3.1,2.2v2.3c.1,6-.2,12-.7,16.5l-.5,5.4-.3,2s0,.1-.1,0v-2.2l.2-5.4.3-7.7.1-4.3.1-4.5v-4.5l-.1-4.3-.4-4-.5-3.6-.2-5.4.4-2.1Zm-7.9,48.6l-.5-2-1.3-5.2c-1.216-5.282-2.35-10.583-3.4-15.9-.5-2.9-1.1-5.8-1.4-8.6l-.4-4-.5-3.5-.7-5.3-.1-2,.1-.1.1.1.2,2,.8,5.3.5,3.5.5,4,1.5,8.5,1.8,8.5,1.7,7.4,1.6,7.2-.1.2-.4-.1Z"/>
  <path class="cls-5" d="m146.2,193.245c-3.5,4.8-4.4,29.4-5.9,40,0,0-19.7,7.2-26.9-.7,0,0,2.1-38.1,3.5-45.8,2.7-1.2,3.8-5.4,4.6-8.2.9-2.9,1.4-5.9,3.3-8.2,2.5-3,6.6-4,10.4-4.7,5.5-1,11-1.7,16.6-2.1,3.5-.3,17.2-2.8,18,.6.9,4.2.7,4.9,1.2,8.4,0,0,3.3,35.5,4.3,42.9,1.3,9.5.9,16.8.9,16.8,0,0-16.5,6-26.2,1.2l-4.4-35.2"/>
  <path class="cls-1" d="m149.9,232.145c.1.6,3.2,1.2,3,1.1-.7-.6-2.4-15.5-2.8-21.6-.4-7-.6-10.1-2.1-16.8-1.28,5.231-1.618,10.649-1,16,.4,2.5,2.4,18.6,2.9,21.3Zm-9.6-.9c-.2-1.7,2.6-27.7,5.1-38.6-1.5,6.4-8.6,36.8-9.1,38.3l-.1.2c-2.119,1.291-4.364,2.363-6.7,3.2-2.6,1.1-5.4,1.4-8.2,1.8,7.9.3,12.6-1.2,17.5-2.5.3-.1.7-.2.9-.4l.9-.1c-.092-.635-.192-1.268-.3-1.9Z"/>
  <path class="cls-1" d="m151,230.345c1.8,2.2,4.2,4,6.8,5-2.2.2-4.5-.1-6.6-1-.5-.2-1-.499-1.2-.899l-.1-1.101.2-3m4.2-39.399c-.8-.5-1.8-.3-2.6.3-.8.6-1.2,1.3-1.9,2-.6.7-1.5,1.199-2.4,1.099-1.5-.4.4-3.3,2.6-5.8-.6-.4-1.4.1-1.9.5-1.381,1.181-2.715,2.416-4,3.701-.4.4-.7.799-.7,1.399l.3.9c2,3.7,2.4,6.901,3.4,10.901-.1-3.9,1.2-7.401,3.1-10.801.8-1.3,3.1-3.399,4.1-4.199Z"/>
  <path class="cls-1" d="m151.2,196.745c.4.2.2.8,0,1.2-1.1,2-1.7,4.2-1.8,6.5,0,.8-.1,1.6-.7,2.1-.4-1.7-.6-3.4-.8-5.2-.2-1.5-.3-3.3.8-4.3.7-.3,1.4-.4,2.1-.4l.4.1Z"/>
  <path class="cls-5" d="m120.3,148.444c3.9-.1,7.7-.3,11.6-.6-.183-10.606.084-21.216.8-31.8.3-4.2.7-8.4.5-12.6-.2-3.3.2-11-3.5-12.5-2.2-.9-5.8.5-8,1.1-2.8.7-5.6,1.7-8,3.3,3.5,15.4,5.3,30,6.4,45.8l.2,7.3Z"/>
  <path class="cls-5" d="m117.452,97.61c2.107,3.796,2.313,6.995,4.42,10.691.803,1.499,1.706,3.097,1.509,4.898-.196,2-1.793,3.503-3.091,4.905-7.185,7.614-5.202,10.202-11.486,18.514-.499.601-1.098,1.302-1.798,1.203-1,.002-1.6.103-2.401-.495-1.402-1.098-3.002-.895-4.802-.691-3.999.607-4.298,1.108-4.897,1.709-2.307-3.996,2.679-11.405,3.298-12.799,2.888-6.505,5.978-11.711,8.866-18.316,1.494-3.303,2.788-6.505,4.682-9.809.897-1.502,2.695-2.605,4.197-1.708.701.499,1.102,1.198,1.503,1.897Z"/>
  <path class="cls-1" d="m123.381,113.199c.19-1.734,1.696-5.4,1.696-5.4,0,0-2.535,3.871-2.69,5.291v.011c-.075.755-.417,1.462-.945,2.184-.43.588-.935,1.126-1.468,1.693h0c-.136.146-.275.293-.414.444-3.685,3.905-4.372,6.964-5.593,9.675-.114.254-.227.508-.341.763h0c-1.065,2.394-2.347,5.103-5.109,8.758-.704.847-2.581,1.531-3.691.708-2.175-1.694-6.642-1.816-9.137-.755-.113.048-.217.097-.313.147-.093-.52-.96-1.053-.883-1.695.669-5.599,6.508-13.171,8.912-17.899l.125-.246c3.158-6.213,4.945-13.175,8.409-19.221.363-.603,1.57-.831,2.11-1.085.509-.238.961-.241,1.355-.02.474.35,4.755.905,4.755.905,0,0-3.508-1.245-4.209-1.744-1.502-.897-3.3.206-4.197,1.708-3.522,6.144-6.034,12.945-9.243,19.258-2.369,4.66-9.453,15.454-8.017,20.665.097.352.233.687.414,1.001.032-.032.063-.064.093-.095h0c.191-.195.372-.38.688-.563.59-.342,1.649-.677,4.116-1.051l.092-.011c1.762-.199,3.331-.377,4.709.702.696.52,1.241.512,2.028.499h0c.119-.002.242-.003.373-.004.7.099,1.299-.602,1.798-1.203,2.841-3.758,3.992-6.346,5.065-8.757,1.3-2.922,2.484-5.585,6.421-9.757.129-.138.26-.278.393-.419h0c1.207-1.286,2.521-2.684,2.698-4.486Z"/>
  <path class="cls-5" d="m152.6,181.144c2.6-21.8,3.1-43.9,1.4-65.9-.3-4.2-.7-8.4-.5-12.6.2-3.3,3.7-12.9,3.7-12.9l7.9,1.8c2.8.7,7.3,1.7,8.4,3.5-3.491,14.861-5.799,29.975-6.9,45.2-.3,4.4-.5,8.9.4,13.3.7,3.3,2,6.6,1.8,10l-.3,2.1c.3.4.6.7,1.1.8.7,5.1.9,10.2.4,15.3-1.2-.1-2-1.3-3-2-1.1-.8-2.6-.8-3.9-.8-1.7,0-3.4-.1-4.9.6-1.8.7-3.5,2.3-5.3,1.6v-.2l-.3.2Z"/>
  <path class="cls-1" d="m160.7,177.445c1.1-.4,2.3-.9,2.9-1.8.5-.7.5-1.6.6-2.5l1.1-15.5-.5-3.6c-.3-4-1.1-8.6.1-12.5.1-.3-.1-.6-.4-.6v-.1c.5-1.7.5-3.5.5-5.2v-10.7c0-1.9.2-4.2,1.8-5.3,2.4,6,.2,22.2.4,32.2.1,1.9-.3,3.2-.4,4.5.5,5.8.7,11.7-.3,17.4l-.7,3.3c-.1.4-.2.8-.5,1s.2.7-.1.7c-2.5.2-6.1-.6-9.7,1.8,1.2-.5,3.8-2.6,5.2-3.1Z"/>
  <path class="cls-1" d="m132.3,153.245l-.2-2.7-.2-7.1.1-10,.5-11.4.6-11.4c.1-1.8.2-3.6.1-5.2-.012-1.568-.079-3.136-.2-4.7-.2-1.4-.3-2.7-.6-3.9-.18-.988-.448-1.959-.8-2.9l-.7-1.8-.3-.6v-.1h.1l.4.6.9,1.8c1.557,3.697,2.274,7.693,2.1,11.7l-.2,5.3-1,11.4c-.3,3.9-.3,7.8-.4,11.4l-.1,10v7.1l-.1,2.5Z"/>
  <path class="cls-11" d="m154.2,4.645h-.1c0-1.5-1.2-2.7-2.6-2.7h-17.1c-.35,0-.696.07-1.019.207-.322.137-.613.337-.856.589-.243.252-.432.551-.556.878-.125.327-.182.676-.169,1.026-9.7,0-17.5,11-17.5,21.1v2.7l57.5-.2v-2.7c-.1-10-7.9-20.8-17.6-20.9Z"/>
  <path class="cls-1" d="m137.4,30.244s-8.8.8-15.6,3.3c-4.1,1.5-7.4,4.1-7.6,6.2,0,0-5-7-2-8.4,3-1.4,8.1-2.3,8.1-2.3l47.9-.2s7.4,3.7,6.2,6l-2.7,4.7c-.2-2.2-3.6-4.7-7.6-6.1-5.072-1.598-10.303-2.638-15.6-3.1"/>
  <path class="cls-11" d="m177.1,32.744c-.4-4.6-5.8-4.6-9-4.7-3-.1-23.4.1-25.2.1l-25.2.1c-3.2.2-8.6.2-9,4.8-.4,4.6,5.4,7.5,5.4,7.5,0,0-1.7-4.6,1.6-7,3.3-2.5,8.4-2.9,11.7-3.1l15.2-.1h.2c1.9,0,12.2-.2,15.2-.1,3.3.1,8.4.5,11.8,3,3.3,2.4,1.7,7,1.7,7,0,0,6.1-2.9,5.6-7.5Z"/>
  <path class="cls-1" d="m171.1,20.744c-6,3.6-17,5.9-29.4,5.9-11,0-20.8-1.9-27.1-4.7-.2,1.3-.4,2.6-.4,3.9v2.7l57.5-.2v-2.7c.003-1.652-.198-3.298-.6-4.9Z"/>
  <path class="cls-11" d="m177.1,32.744c-.4-4.6-5.8-4.6-9-4.7-3-.1-23.4.1-25.2.1l-25.2.1c-3.2.2-8.6.2-9,4.8-.4,4.6,5.4,7.5,5.4,7.5,0,0-1.7-4.6,1.6-7,3.3-2.5,8.4-2.9,11.7-3.1l15.2-.1h.2c1.9,0,12.2-.2,15.2-.1,3.3.1,8.4.5,11.8,3,3.3,2.4,1.7,7,1.7,7,0,0,6.1-2.9,5.6-7.5Z"/>
  <path class="cls-1" d="m128.3,177.845c-2.448-1.414-5.332-1.877-8.1-1.3h-.3c-.5.8-.3,1.9-.5,2.9-.3,1.7-1.9,1.2-2.7,2.7-.8,1.4-.6,5-.6,6.7-.3,6.4-1,12.5-1.2,18.9,1-4.9,2.1-9.8,2.6-14.8.1-.8.2-1.7.6-2.5.2-5.1,4.2-8,15.2-9.7-1.8-.8-3.3-2-5-2.9Z"/>
  <path class="cls-1" d="m133.7,170.944c-.545.936-.95,1.947-1.2,3-.1,1.6,1,5.9,1.6,7.4.057-.888.311-1.753.743-2.532.432-.778,1.033-1.45,1.757-1.968,1.2-.7,2.7-1,4.1-1.2,5.7-.9,11.5-1.9,16.8-3.5-7,.8-13.8,2.2-20.9,1.3-1-.2-2.3-3.3-2.9-2.5Z"/>
  <path class="cls-1" d="m138.7,169.444c-.9-.7-5.1-6.7-5.7-12.2-.6-5.6-.5-6.9-.4-12.5l-.1-6.5h-1.9l-.1,9.1c-.1,6.5.7,5.9,1,12.4.1,2.9-.2,3.2,0,6.1.8,11.3,1.4,8.2,4.2,7.7,1-.2,3.4-.2,4.5-.1,5.5.6,11.5.3,16.8-1.5-5.2.1-10.7-.8-15.9-1.6-.8-.2-1.7-.3-2.4-.9Z"/>
  <path class="cls-5" d="m130.6,138.245h-1.2l-9.1-.2.2,2.3c.3,4.4.5,8.9-.4,13.3-.7,3.3-2,6.6-1.8,10l.3,2.1c-.3.4-.6.7-1.1.8-.7,5.1-.9,10.2-.4,15.3,1.2-.1,2-1.3,3-2,1.1-.8,2.6-.8,3.9-.8,1.7,0,3.4-.1,4.9.6,1.3.5,2.6,1.6,4,1.8-1.614-14.342-2.382-28.767-2.3-43.2Z"/>
  <path class="cls-1" d="m123.7,175.645c-.5-.7-.5-1.6-.6-2.5l-1.1-15.5.5-3.6c.1-1.8.1-8.8-.2-16h-2.4c.533,6.084.733,12.194.6,18.3-.734,6.91-.397,13.893,1,20.7.1.4.2.8.5,1s-.2.7.1.7c2.1.2,5-.4,8,.9-1.3-.8-2.7-1.8-3.6-2.2-1-.4-2.2-.8-2.8-1.8Z"/>
  <path class="cls-1" d="m123.1,155.945c-1.192,1.053-1.943,2.518-2.1,4.1-.112,1.561.39,3.104,1.4,4.3-.1-.9-.2-1.8-.1-2.7.1-.9.5-1.8,1.1-2.4.8-.7,1.9-.8,2.8-1.2,1.219-.507,2.27-1.349,3.031-2.429.761-1.079,1.201-2.352,1.269-3.671-2.1,2-5.3,2.2-7.4,4Z"/>
  <path class="cls-2" d="m119.264,138.245c-.173-3.309-1.185-17.862-1.185-17.862,0,0,.737-1.582.937-1.682h.1c.7-.2,1.045,2.087.645,2.787-1.192,2.285.84,4.619.741,7.304l-.002.053v10.121l-.195-.114.095,16.493c0,.615-.003,1.302-.007,2.043-.031,6.248-.081,16.419,1.707,21.157.033.133-.4.389-1.042.767-1.281.756-3.392,2-4.258,3.733-1.8,3.8.1-16.1,1.5-26.2.05-.3-.1-.35-.25-.4-.15-.05-.3-.1-.25-.4l.1-.1c.262-.418.249-.673.236-.963-.013-.265-.027-.56.164-1.037,1.345-2.848.624-5.321.215-6.725-.108-.37-.194-.666-.215-.875,0,0,.681-2.92.988-8.086l-.024-.014Zm49.636-17.901l-.187-.467.087-.433c.293.358.596.684.886.996.601.646,1.144,1.23,1.414,1.904,3.329,8.137,13.09,16.398,3.538.633-1.91-3.153-3.206-5.293-5.638-7.433-1.1-1-2.8.1-2.3,1.5-.6.3-1.2.4-1.9.3,0,1,.3,1.9.6,2.7l1.634,4.592c-.076,1.417-.134,2.788-.134,3.708l-.1,27c0,.593.003,1.253.006,1.965.03,6.241.079,16.487-1.806,21.335-.029.087.392.294,1.031.607,1.552.76,4.39,2.151,5.169,3.993.655,1.683.303-1.684-.215-6.657-.591-5.662-1.398-13.405-1.185-18.143,0-.384-.164-1.054-.308-1.644-.081-.333-.156-.64-.192-.856l-.1-.1c-.262-.419-.25-.673-.236-.963.013-.265.027-.56-.164-1.037-1.345-2.849-.624-5.321-.215-6.725.108-.37.194-.666.215-.875,0-.007-.006-.039-.017-.095-.141-.745-1.105-5.818-.083-16.505.085-1.143.062-2.357.038-3.643-.033-1.753-.069-3.638.162-5.657Z"/>
  <path class="cls-8" d="m146.1,193.244c-.5.7-.7,1.5-1,2.3l-.6,2.4-.8,5c-.504,3.353-.905,6.721-1.2,10.1l-.9,10.1c-.33,3.445-.764,6.88-1.3,10.3-4.449,1.58-9.091,2.556-13.8,2.9-2.4.2-4.7.1-7.1-.3-2.385-.438-4.582-1.589-6.3-3.3l-.1-.2,1.2-25.2.4-6.3.5-6.3c.4-4.2.6-8.4,1.2-12.5,0,0,0-.1.1,0v.1l-.6,12.6-.7,12.6-1.5,25.1-.1-.2c1.5,1.7,3.7,2.7,6,3.2s4.6.5,6.9.4c4.644-.344,9.22-1.32,13.6-2.9l-.2.2,1-10.1.9-10.1c.4-3.4.7-6.7,1.3-10.1l1-5,.7-2.4c.5-.9.8-1.7,1.4-2.4Z"/>
  <path class="cls-1" d="m133,181.345l-.3-1.2-.5-3.2-.4-4.6-.4-5.2c-.4-3.6-.8-7.1-.8-9.8l.1-3.3.1-1.2s0-.1.1,0l.2,1.2.3,3.2.4,9.8.5,5.2.5,4.6.2,3.2v1.3Z"/>
  <path class="cls-8" d="m118,156.345l.1,1.7v1.7l-.1,3.4-.6,6.7-.7,6.7-.3,3.3-.1,3.3-.4-.2c1.3-1.1,2.7-2.2,4.2-3.2l1.2-.6,1.3-.5c1.321-.439,2.73-.542,4.1-.3l.7.1.7.2,2.4,1c.8.4,1.6.6,2.4.8l2.5.5v.1h-.1c-1.7.1-3.5-.1-5.2-.7l-2.4-.9-.6-.2-.6-.1-1.2-.1c-1.264.024-2.514.261-3.7.7l-1.1.5c-1.5.8-2.9,1.9-4.2,2.9h-.3v-.1c0-2.3.2-4.5.4-6.7l.7-6.7c.2-2.2.5-4.4.6-6.7.266-2.19.333-4.399.2-6.6l.2-.2-.1.2Z"/>
  <path class="cls-1" d="m134.3,173.845l.8-.2,2.1-.2,3-.1h3.5l3.5-.3,3-.3,2.1-.1h.8s.1,0,0,.1l-.8.3c-.5.1-1.2.4-2.1.5l-3.1.1h-3.5l-1.8.1-1.7.1-3,.1c-1.6.2-2.8,0-2.8-.1q0,.1,0,0Z"/>
  <path class="cls-8" d="m168.1,49.044l.2-.2.5-.4c.2-.2.6-.3,1-.3.5,0,.9.1,1.4.4.4.3.9.7,1.1,1.3.2.6.4,1.2.4,1.8.1,1.3-.2,2.6-.5,3.9l-1.4,3.7-1.6,3c-.6.8-1.2,1.5-1.8,1.6-.3.1-.5,0-.7-.1h.6c.5-.2,1-.9,1.5-1.7.5-.8.9-1.9,1.4-3l1.2-3.6c.3-1.2.6-2.5.6-3.7l-.2-1.6c-.2-.5-.5-.9-.8-1.2l-1.1-.5c-.311-.004-.62.064-.9.2l-.9.4Z"/>
  <path class="cls-8" d="m169.6,52.244l-.2.1-.4.4-.9,1.3-.6,1.5-.2.5-.1.2-.1-.2-.1-.6c-.1-.5,0-1.2.4-1.8l.6-.8.7-.5.6-.1h.3Zm-48.6-2.6l-.7-.6-1-.5-.6-.1-.7.2c-.4.2-.8.5-1.1,1-.3.5-.3,1.1-.4,1.8l.1,2,.5,2,.7,2,.8,1.9,1.8,3.2c.3.4.6.8,1,1,.3.2.7.3,1,.1l.6-.4.1-.2v.3l-.5.5c-.3.2-.8.2-1.2,0s-.8-.6-1.2-1c-.7-.8-1.4-1.9-2.1-3.1l-.9-1.9c-.804-2.037-1.211-4.21-1.2-6.4.1-.7.2-1.4.6-2s.9-1,1.5-1.2l.8-.1.7.2,1,.7.4.6Z"/>
  <path class="cls-8" d="m119.2,52.144h.2l.6.1.7.5.6.8c.3.6.4,1.3.4,1.8l-.1.6-.1.2-.1-.2-.2-.5-.6-1.5-.9-1.3-.4-.4-.1-.1Zm-4.7-24.2l-.1.2-.2.6-.2,1v1.3l.2,3.4.6,3.8.3,2,.4,1.9.6,3.4.4,2.4.1.9-.3-.9-.8-2.3-.5-1.6-.5-1.8-.5-1.9-.4-2-.5-4v-1.8l.1-1.7c.202-.809.436-1.609.7-2.4l.6-.5Zm55.3-3.7l.2.2c.1.1.4.3.5.6l.6,1.1.6,1.5.5,1.8.3,2.1c.2,1.5.1,3,0,4.6-.1.8-.1,1.6-.3,2.3l-.4,2.2-.5,2-.5,1.8-.9,2.6-.4,1,.2-1.1.5-2.7.3-1.8.3-2,.3-2.2.2-2.3.1-2.3v-2.2l-.1-2c-.1-.6-.1-1.3-.3-1.8l-.4-1.5-.4-1.1-.4-.7c.1,0,0-.1,0-.1Zm-3.5,6.1l.4.6.4.9.4,1.1.3,1.4.3,1.5.3,3.3v3.3l-.2,2.9-.4,2.8-.1-2.8-.1-2.9-.2-3.3-.4-3.2-.5-2.7-.3-1-.3-.8c-.115-.227-.215-.46-.3-.7-.1-.2,0-.5.2-.6.1,0,.4,0,.5.2Zm1.1,18.1v2l-.1,5.2-.4,3.5c-.229,1.274-.496,2.542-.8,3.8l-1,4.1c-.4,1.3-.9,2.8-1.5,4.1-1.417,2.46-3.204,4.686-5.3,6.6l-3,2.5-2.8,2-2.5,1.6-2.1,1c-.482.176-.988.278-1.5.3h-.5l.5-.1,1.3-.5,1.9-1.1,2.4-1.7,2.8-2,3.1-2.3c2.1-1.7,3.9-3.9,5.2-6.4.6-1.3,1.1-2.6,1.3-4l.6-4.1c.3-2.7.5-5.2.9-7.3.4-2.1.8-3.9.9-5.1l.6-2.1Z"/>
  <path class="cls-8" d="m145.1,85.144h-.5c-.512-.022-1.018-.124-1.5-.3-1.3-.4-2.9-1.3-4.9-2.3-2-1.1-4.1-2.5-6.3-4.3l-3.2-2.9c-2.227-2.067-3.792-4.746-4.5-7.7l-1.1-4.2-.9-3.9-.5-3.6-.3-5.4v-2l.1-.1h.1l.4,2,1.1,5.3c.4,2.2.8,4.7,1.1,7.5l.7,4.2c.4,1.4,1.1,2.7,1.9,3.8l2.6,3.5c2.628,2.913,5.741,5.349,9.2,7.2,2,1.1,3.5,2,4.7,2.5l1.8.7Zm-24.1-37l-.2-.7-.5-1.8c-.577-2.828-.745-5.724-.5-8.6l.2-1.4.2-1.2.5-1.8.2-.7c.1-.2.4-.4.6-.3.2.1.4.3.3.5l-.1.7-.4,1.8-.4,2.5-.2,2.9v2.9l.1,2.6.2,2.6Z"/>
  <path class="cls-4" d="m130.5,277.945c.6,3,1.2,5.1,1,8.2,0,.4-.2.8-.5,1.1-.7.7-2,3.3-2.4,4.9-.6,2.3,1.3,6.5-6.7,8.2-2.2.3-6.2.5-9.7-.2-5.9-1.4-4.2-9.2-4.2-9.2l5.5-7,1.1-6.1c.2-1,1.1-1.6,2.1-1.4,3.2.6,7.5.7,12.5.3.8-.1,1.1.3,1.3,1.2Z"/>
  <path class="cls-1" d="m130.1,274.444c.4,1.2,1.7,5.7,1.4,9,0,0-2.4,3.1-3,5.4-.6,2.3,1.3,6.5-6.7,8.2,0,0-4.6.6-8.8,0-4.1-.6-7-4.1-3.9-8.9l4.3-7.5,1.1-6.1c.2-1,1.1-1.6,2.1-1.4,2.7.5,6.2.6,10.2.4.8,0,1-.3,1.8-.3.9-.2,1.2.4,1.5,1.2Z"/>
  <path class="cls-4" d="m125.6,295.345c-.6.7-1.6.9-2.5,1.1-2.9.7-5.9,1.1-8.9,1.2-1.5.1-3.2,0-4.3-1-.9-.8-1.2-2-1.6-3.1-.3-1-.5-2-.3-3,.4-1.2,1.5-2,2.6-2.6,2.144-.98,4.515-1.357,6.858-1.093,2.343.264,4.569,1.16,6.442,2.593.932.65,1.66,1.552,2.1,2.6.5,1.2.4,2.5-.4,3.3Zm-11.6-10l1.2-.8c.8-.5,2.4-1.6,2.4-2.5l-1.9-13.8c0-.6.4-1.1.9-1.4,3.1-1.3,8.2-1.5,11.4-.1.7.3,1.4,2.3,1.1,3.1l-4.6,12.1c-.3,1,0,2.1.7,2.8l1.7,1.6c-3.5-2.7-8-2.6-12.9-1Z"/>
  <path class="cls-8" d="m131.7,283.545l-.1,1.8v1c-.1.4-.2.8-.6,1.1-.5.5-.9,1.4-1.3,2.2-.4.9-.8,1.9-.9,2.9-.1,1,.1,2.3-.2,3.5-.164.668-.461,1.295-.873,1.845-.413.55-.932,1.011-1.527,1.355-1.169.698-2.458,1.172-3.8,1.4-1.4.3-2.7.3-4,.3s-2.6,0-3.8-.2c-1.2-.2-2.4-.3-3.5-.8s-2-1.3-2.5-2.1c-.5-.9-.8-1.8-.9-2.6l-.2-2.1.1-1.8c0-.2.2-.3.4-.3s.3.2.3.4l-.1.4-.1,1.3c0,.6,0,1.2.2,2,.2.8.4,1.6.9,2.4.5.8,1.3,1.5,2.2,1.8,1,.4,2.1.5,3.3.6l3.7.1c1.3-.1,2.6-.1,3.8-.4,1.2-.3,2.4-.7,3.5-1.3,1-.6,1.8-1.5,2.1-2.6s.2-2.2.4-3.4c.3-1.2.7-2.1,1.2-3s.9-1.7,1.5-2.3c.3-.3.4-.6.5-.9v-2.7l.2-.2.1.3Zm-2.6-10.4l.5.2c.2.1.4.3.4.5l.2.6.3.7.2.8.4,1.8c.364,1.511.598,3.049.7,4.6v.4c0,.2-.1.4-.3.4s-.4-.1-.4-.3v-.2l.1-.4v-1.1c-.333-1.701-.801-3.373-1.4-5l-.3-.8-.2-.7-.1-.6v-.4l-.1-.2h-.1l-.2-.2c0-.1.2-.2.3-.1Z"/>
  <path class="cls-8" d="m131.2,283.945l-.2.3-.5.9c-.4.8-1,1.9-1.4,3l-.2.8-.1.8-.1,1.6c-.1,1-.4,1.5-.4,1.5,0,.1-.1.1-.1,0l-.1-.1.1-.4.1-1.1v-1.6l.1-.9.2-.9c.317-1.112.824-2.161,1.5-3.1l.7-.9.3-.3c.1-.1.2,0,.3.1l-.2.3Zm-4.1,10.8l-1.1.9-1.3.7c-.9.4-1.8.7-2.8.9-2.5.3-4.9.4-7.4.2l-1.9-.2c-.6-.1-1.3-.3-1.8-.6-.6-.3-1.1-.6-1.6-1.1-.5-.4-.9-1-1.1-1.6-.3-.6-.4-1.3-.4-1.9,0-.7.1-1.3.3-1.9l.3-.9.4-.8.9-1.6,3.7-6.4v.1l.8-4.2.2-1,.2-1.1c.2-.7.9-1.3,1.7-1.3l.1.1-.1.1c-.7,0-1.3.5-1.4,1.2l-.2,1-.2,1.1-.7,4.2v.1l-3.6,6.4-.9,1.6c-.173.246-.307.515-.4.8l-.3.8c-.2.6-.2,1.1-.2,1.7.043,1.177.546,2.29,1.4,3.1l1.4,1,1.7.5,1.8.2c2.4.2,4.9.1,7.3-.1.9-.2,1.8-.4,2.7-.8l1.3-.6,1.1-.8h.3l-.2.2Z"/>
  <path class="cls-8" d="m116.3,273.344l-.1-1.3-.2-1.3-.6-2.6c0-.6.2-1.1.7-1.5l.7-.4.7-.3,1.4-.4,1.4-.2h2.8l2.8.4,1.4.4,1.4.5c.5.4.7.9.9,1.3.2.5.3.9.2,1.5l-.2.7-.2.7-.6,1.3c-.419.796-.754,1.634-1,2.5,0,.2-.2.3-.4.3s-.3-.2-.3-.4v-.1l1.2-2.6.5-1.3.2-.6.2-.6c-.018-.407-.085-.81-.2-1.2-.1-.4-.4-.8-.6-1l-1.2-.4-1.3-.3-2.7-.2h-1.4l-1.3.1-2.6.4-1.2.4c-.157.09-.287.222-.375.38-.088.159-.131.338-.125.52v-.1l.4,2.6.2,1.3.2,1.3-.2.2c-.4.2-.5.1-.5,0Z"/>
  <path class="cls-8" d="m126.2,275.144c1.3-.1,2.1-.1,2.1-.3,0-.1-.8-.4-2.1-.5h-2.3l-2.8.5-.5.1-1.2-.2-2.2-.2c-1.3,0-2,.1-2,.2,0,.2,1.6.4,3.7.9l-.5.2-2,1.2c-1.1.8-1.6,1.4-1.5,1.5s.8-.3,1.9-.9l2-1,1.8-.7,1.1.3c3.5,1.1,6.1,2.7,6.3,2.4.1-.1-.5-.7-1.5-1.4l-1.9-1.1c-.641-.326-1.311-.594-2-.8l1.4-.3c.8.3,1.6.2,2.2.1Zm-1.5,4.2l-2.2.1-1.9.4-1.8-.5c-.661-.112-1.33-.178-2-.2-1.1,0-1.8.2-1.8.3,0,.2,1.7.3,3.9.9l-1.5.7-1.9,1.2c-1,.8-1.5,1.4-1.4,1.5.2.2,2.6-1.6,6.1-2.7l.3-.1.2.1c3.1,1.2,5.1,3,5.3,2.8.1-.1-.3-.7-1.1-1.5-.806-.73-1.716-1.337-2.7-1.8,2.5-.5,4.4-.5,4.5-.7,0-.2-.7-.4-2-.5Z"/>
  <path class="cls-9" d="m120.8,292.344c-1.6.3-3.2.6-4.8.6-1.1,0-2.3-.3-3.3-.7-.7-.3-.8-1.3-.3-1.8,1.104-1.048,2.512-1.719,4.021-1.916,1.509-.198,3.042.088,4.379.816.5.3,1,.6,1.2,1.1.3.5.3,1.2-.1,1.6l-1.1.3Z"/>
  <path class="cls-8" d="m175.2,232.444c-6.099,2.273-12.601,3.261-19.1,2.9-2.2-.2-4.3-.8-6.3-1.8l-.1-.2-.5-4.4-.7-4.3-1.2-8.8-.6-4.4-.5-4.4-.4-4.4-.3-4.4.1-.1h.1l.8,4.4.7,4.4.6,4.4.5,4.4.9,8.8.5,4.4.6,4.4-.1-.2c1.9.9,4,1.4,6.2,1.6,2.1.2,4.3.2,6.4,0,4.194-.393,8.344-1.163,12.4-2.3Zm-3.4-48.3l.3,2,.6,5.3.8,7.6.9,8.7c.7,5.9,1.5,11.8,1.8,16.3l.2,5.4-.1,2.1s0,.1-.1,0l-.2-2-.6-5.4-1.4-16.3-1-8.7-.8-7.6-.4-5.4v-2Zm-15.5-94.9l.8.2,2,.4,6.2,1.3c2.2.5,4.5,1.2,6,1.9.659.304,1.266.709,1.8,1.2l.3.5.1.2-.1-.1-.4-.4-.8-.4-1.1-.4-2.8-.8-3.3-.8c-2.73-.616-5.405-1.452-8-2.5l-.7-.3Z"/>
  <path class="cls-8" d="m160.8,273.044c-.053,0-.104-.021-.141-.058-.038-.038-.059-.089-.059-.142l-.7-3.6c0-.2-.1-.4.1-.6.2-.4.8-.6,1.8-.6l.2.2-.2.2c-1.1,0-1.3.3-1.4.4v.3l.7,3.6c0,.2-.1.3-.3.3Zm-29.3-183.3l-.7.4-2,.8c-1.7.6-4,1.1-6.3,1.6l-6.2,1.3c-.8.2-1.5.5-1.9.8l-.6.5.1-.2.4-.5c.4-.4,1-.8,1.9-1.1,1.997-.795,4.077-1.365,6.2-1.7l6.3-1.2,2.1-.4.7-.3Z"/>
  <path class="cls-8" d="m143.1,84.544l.9.2c.5.1,1.3.2,2,.1.7,0,1.4-.2,2-.3l.9-.3-.8.5-.9.3-1.1.2-1.1-.1-.9-.2-.6-.3-.4-.1q0,.1,0,0Z"/>
  <path class="cls-1" d="m128.9,90.945c-.3-.9,4.3-3.5,4.1-3.2-.6,3.5-.2,6.5.6,10.2,1.1,5.1-.3,11-.4,16.3-.7-4.9.1-10-1-14.8-1-4-2.1-4.9-3.3-8.5Z"/>
  <path class="cls-4" d="m161,277.344c-.4,3-1.6,4.9-1.3,8,0,.4.3.8.6,1.1.8.7,5.4,2.8,5.9,4.4.7,2.3-1,6.5,7.1,7.8,2.2.2,6.3.2,9.6-.7,5.9-1.7,3.8-9.4,3.8-9.4l-6.9-6.3-1.4-6c-.2-1-1.2-1.5-2.1-1.3-3.2.8-8.4,1-13.4.9-1,0-1.8.7-1.9,1.5Z"/>
  <path class="cls-1" d="m160.6,271.745c-1.6,2.9-1.5,7.6-1.1,10.9,0,0,5.8,2.6,6.5,4.9.7,2.3-1,6.5,7.1,7.8,0,0,4.7.3,8.8-.4,4.1-.8,6.8-4.5,3.5-9.1l-5.8-6.8-2.3-6c-.4-1-.3-1.6-1.3-1.4-2.7.7-6.1,1-10.1.9-.8,0-3.1-5.4-3.9-5.4-1,0-1.7.5-1.7,1.4.1,1.1.6,2.6.3,3.2Z"/>
  <path class="cls-4" d="m169.2,294.044c.7.6,1.6.9,2.5,1,3,.5,6,.8,9,.8,1.5,0,3.2-.1,4.3-1.2.8-.8,1.1-2.1,1.4-3.2.2-1,.4-2,.1-3-.4-1.2-1.6-2-2.8-2.5-2.193-.865-4.58-1.117-6.905-.729-2.325.387-4.501,1.4-6.295,2.929-.8.7-1.6,1.6-1.9,2.7-.3,1.2-.2,2.4.6,3.2Zm12-10.9s-2.6-3.7-2.7-4.7l-1.5-5.7-1.1-6.9c-.1-.6-.5-1.1-1-1.3-3.2-1-7.1.9-10.4,1.7-2,.5-1.6,2.3-1.4,3l6.4,11.7c.4,1,1.2,2,.5,2.8l-.5,1.7c3.2-3.2,6.6-3.4,11.7-2.3Z"/>
  <path class="cls-9" d="m173.8,290.644c1.6.2,3.2.5,4.8.3,1.1-.1,2.3-.4,3.3-.9.7-.4.8-1.3.2-1.8-.999-.802-2.159-1.382-3.4-1.7-1.7-.3-3.6,0-5.1.9-.5.3-.9.7-1.2,1.2-.2.5-.2,1.2.2,1.6.4.3.8.3,1.2.4Z"/>
  <path class="cls-8" d="m159.7,282.745c.015.936.082,1.871.2,2.8.1.3.3.6.6.8l2.4,1.4c.9.5,1.9,1.1,2.8,1.9l.6.7c.2.3.2.6.3,1l.2,1.9c.2,1.2.6,2.4,1.6,3.1,1,.8,2.2,1.2,3.5,1.5l1,.2.5.1h.5l2,.1c1.3,0,2.6,0,3.9-.2,1.2-.1,2.5-.3,3.5-.7s1.9-1.1,2.4-1.9c.5-.8.8-1.7.9-2.5l.1-2.1-.2-1.3-.1-.5c0-.2.1-.4.3-.4s.4.1.4.3l.1,1.9-.1,2.2c-.118,1.074-.524,2.096-1.176,2.959-.651.862-1.523,1.533-2.524,1.941-2.497.75-5.093,1.121-7.7,1.1h-2.6l-.5-.1-1-.2c-1.43-.265-2.771-.884-3.9-1.8-.6-.5-1-1.1-1.3-1.7-.3-.7-.4-1.4-.5-2l-.1-1.9-.2-.8-.5-.6c-.8-.8-1.7-1.4-2.6-1.9l-2.4-1.5c-.4-.3-.6-.6-.7-1l-.1-1-.2-1.9.2-.2.4.3Zm1.4-10.7l-.4.2-.3.3-.1.5-.5,3.6-.4,3.6v1.7l-.1.1-.1-.1-.2-1.7c-.054-2.728.248-5.451.9-8.1l.5-.4.4-.1h.1c.1,0,.2,0,.2.2.2.1.1.2,0,.2Z"/>
  <path class="cls-8" d="m160.1,282.845l.4.2,1.2.6c1.247.597,2.422,1.335,3.5,2.2.3.3.6.5.8.9l.3.6.1.6.1,1.9.2,1.3.1.5-.1.1h-.1s-.4-.7-.6-1.8l-.3-1.9-.1-.5-.2-.4-.7-.7c-1.1-.9-2.4-1.6-3.4-2.2l-1.1-.8c-.141-.088-.275-.189-.4-.3v-.3h.3Zm7.8,10.3l1.1.8,1.3.5,2.7.6c1.7.1,3.5,0,5.2-.1l2.6-.3,1.3-.2,1.2-.4c.763-.286,1.444-.755,1.984-1.365.541-.61.924-1.343,1.116-2.135.3-1.6-.4-3.3-1.3-4.7l-5.7-6.9-1.4-3.4c-.4-1.2-.9-2.3-1.2-3.5l.1-.1.1.1c.3,1.2.8,2.3,1.3,3.5l1.5,3.4,5.8,6.8c.5.7,1,1.5,1.2,2.4.3.9.4,1.8.2,2.7s-.6,1.8-1.2,2.5c-.6.7-1.4,1.2-2.2,1.6l-1.3.4-1.3.2-2.6.3h-5.3c-.947-.174-1.882-.408-2.8-.7l-1.3-.6-1.2-.9v-.3c-.1-.3.1-.3.1-.2Z"/>
  <path class="cls-8" d="m176.6,272.844l-.4-3.4-.6-3.4c0-.3-.2-.5-.3-.7l-.3-.2-.4-.1-1-.2-1-.1h-2l-2,.2c-1.3.2-2.7.5-4,1l-.9.4c-.2.1-.5.3-.6.6-.3.5-.4,1.1-.2,1.8.4,1,.8,2.1,1.3,3,.443.963,1.133,1.791,2,2.4.2.1.2.3.1.5-.1.2-.3.2-.5.1-.5-.4-.9-.8-1.2-1.3l-.9-1.4c-.6-1-1-2-1.4-3.1-.2-.7-.2-1.6.3-2.3l.9-.9,1-.5c1.3-.6,2.7-.9,4.1-1.2l2.1-.3,2.2.1,1.1.2,1.1.3.5.2.5.4c.3.3.4.7.4,1.2l.4,3.5.2,1.7.2,1.7-.2.2-.5-.4Z"/>
  <path class="cls-8" d="m168.4,274.744c-1.1.1-1.8.2-1.9,0,0-.1.6-.5,1.8-.7l2-.3c.8,0,1.6,0,2.5.2l.4.1,1-.4,1.6-.4c1.1-.2,1.2,0,1.2.1,0,.2-.5.4-2.3,1.1l.5.2c.7.3,3,1.9,2.9,2-.1.1-2.5-.8-3.2-1l-1.7-.5-.9.4c-3,1.5-5.1,3.4-5.3,3.1-.1-.1.3-.7,1.2-1.5l1.6-1.3,1.6-1-1.3-.1h-1.7Zm2.8,4l2-.2,1.8.1,1.5-.7c.6-.2.8-.3,1.3-.3,1-.1,1.6-.1,1.7.1,0,.2-1.1.4-2.9,1.3.5.1,2.3,1.2,2.8,1.5,1,.6,1.5,1.2,1.4,1.3-.1.3-2.1-1.4-5.3-2l-.3-.1-.2.1c-2.6,1.5-4.1,3.6-4.3,3.4-.1-.1.2-.7.8-1.6.592-.834,1.339-1.547,2.2-2.1-2.3-.2-4,.1-4.1-.2-.1-.1.5-.4,1.6-.6Zm-10.2-6.5c-.053,0-.104-.021-.141-.058-.038-.038-.059-.089-.059-.142l-.7-3.6c0-.2-.1-.4.1-.6.2-.4.8-.6,1.8-.6l.2.2-.2.2c-1.1,0-1.3.3-1.4.4v.3l.7,3.6c0,.2-.1.3-.3.3q.1,0,0,0Z"/>
  <path class="cls-1" d="m152.2,181.045l.1-1,.2-2.9.8-10.3c.3-4.2.7-9.2.9-14.5l.3-8.2.1-4.2v-4.3c-.1-5.7-.4-11.4-.8-16.7l-.6-7.7c-.2-2.4-.3-4.8-.2-6.9.027-4.448.98-8.841,2.8-12.9l.5-.9h.1v.1l-.4.9c-.391.867-.693,1.772-.9,2.7-.3,1.2-.7,2.6-.9,4.3-.535,4.183-.535,8.417,0,12.6l.5,7.7c.141,5.566.274,11.133.4,16.7v8.5c-.003,5.306-.203,10.609-.6,15.9l-.5,6.9c-.3,4.3-.8,7.8-1.1,10.3l-.4,2.9-.3,1q.1,0,0,0Z"/>
  <path class="cls-8" d="m168.6,118.544l.5,4.1v4.1c-.1,2.8-.4,5.5-.6,8.2l-.1,4.1c0,1.4.1,2.7.3,4.1l.4,2c.1.7.2,1.5-.2,2.2-.3.7-.7,1.2-.8,1.8-.1.6-.1,1.3.1,2l1.2,3.9c.4,1.3.7,2.7.8,4.1l-.1,2.1v2c0,1.4.1,2.7.3,4.1l1.1,8.2c.4,2.7.7,5.5.7,8.3,0,.2-.2.4-.4.4l-.3-.1-4.2-3.4-1.1-.7-1.2-.5c-.8-.3-1.7-.5-2.5-.5h-1.3l-1.3.2-2.5.9c-.9.3-1.8.6-2.7.7l-2.7.1-.1-.1v-.1l2.7-.4,2.5-.8c.797-.419,1.634-.754,2.5-1l1.4-.3,1.4-.1c.9,0,1.9.2,2.8.5l1.3.5,1.2.7c1.5,1,2.9,2.3,4.3,3.4l-.7.3c0-2.7-.3-5.4-.6-8.2l-.9-8.2-.2-4.1.1-2.1.1-2c0-1.4-.4-2.7-.8-4s-1-2.6-1.3-4c-.1-.7-.2-1.4-.1-2.2.1-.8.5-1.4.8-2,.5-1.1-.1-2.5-.3-3.9-.281-1.382-.415-2.79-.4-4.2l.1-4.2.7-8.2.2-4.1-.1-3.6Z"/>
  <path class="cls-1" d="m158.9,88.544c.3-.9-4.5-.7-4.3-.4-.2,3.8-.8,5.3-1.6,9-1.1,5.1.3,11,.4,16.3.7-4.9-.1-10,1-14.8.9-4,3.2-6.4,4.5-10.1Z"/>
  <path class="cls-1" d="m137.4,30.244s-8.8.8-15.6,3.3c-4.1,1.5-7.4,4.1-7.6,6.2,0,0-5-7-2-8.4,3-1.4,8.1-2.3,8.1-2.3l47.9-.2s7.4,3.7,6.2,6l-2.7,4.7c-.2-2.2-3.6-4.7-7.6-6.1-5.072-1.598-10.303-2.638-15.6-3.1"/>
  <path class="cls-8" d="m148.5,30.245l4.1.3,4.2.6c1.5.3,3.1.6,4.7,1.1l4.5,1.6c1.4.7,2.6,1.4,3.6,2.2s1.6,1.6,1.9,2.3l.3.8v.3l-.1-.3-.3-.8c-.3-.6-1-1.4-2-2.1s-2.2-1.5-3.6-2.1c-4.239-1.81-8.72-2.989-13.3-3.5l-4-.4Zm-11.1,0l-4,.6c-4.546.735-9.004,1.941-13.3,3.6-1.4.6-2.6,1.4-3.6,2.1-1,.8-1.6,1.5-2,2.1l-.3.8-.1.3v-.3l.3-.8c.3-.7.9-1.5,1.9-2.3.9-.8,2.2-1.6,3.6-2.3s3-1.2,4.5-1.7c1.6-.5,3.2-.8,4.7-1.1l4.1-.7,4.2-.3Zm16.7-25.8c.983.241,1.989.375,3,.4l2,.6,1.1.5,1.2.6,1.2.7,1.1.9,1.1,1,1.1,1.1,1,1.2.9,1.2,1.5,2.7,1.2,2.7.8,2.7.3,1.3.2,1.2.1,2.1v1.6l-.1,1.4-.2.1-.1-.1-.1-1.4-.1-1.6c-.1-.6,0-1.3-.2-2.1l-.2-1.2-.3-1.2-.8-2.6c-.4-.9-.7-1.8-1.2-2.6-.4-.9-1-1.7-1.5-2.6l-.9-1.2-1-1.1-1-1.1-1.1-1-1.1-.9-1.1-.7-1.1-.6-1.1-.5-2-.6-1.6-.3-1.4-.1c-.053,0-.104-.021-.141-.059-.038-.038-.059-.088-.059-.141l.6-.3Z"/>
  <path class="cls-8" d="m159.1,10.045l.1,7.8.1,3.9-.2,1.1c-.1.3-.3.7-.6.9-.5.6-1.2.9-2,.9-.9,0-1.7-.4-2.2-1.1-.3-.3-.4-.8-.5-1.2v-12.5l.1-2.3.1-.1.1.1.1,2.3v2.3l.1,4.5.1,4.5.1,1.1.4.9c.4.5,1,.8,1.6.8.278.01.555-.038.813-.142.259-.103.493-.259.687-.458l.5-.7.2-.8v-3.9l.1-7.8.2-.2.1.1Zm-27.4-5.1l-1.4.1-1.6.3-1.9.6-1.1.5-1.1.6-1.1.7-1.1.9-1,1-1,1.1c-.3.4-.7.7-.9,1.2l-.9,1.2c-.5.8-1.1,1.7-1.5,2.6l-1.2,2.7-.8,2.6-.3,1.2-.2,1.2-.2,2.1-.1,1.6-.1,1.4-.2.1-.1-.1-.1-1.4c0-.4-.1-1,0-1.6l.1-2.1.2-1.2.3-1.3.7-2.7c.4-.9.7-1.9,1.2-2.8l1.5-2.7.9-1.3,1-1.2,1.1-1.1,1.1-1,1.1-.9,1.2-.7,1.1-.6,1.1-.5,2-.6,1.6-.3,1.4-.1.2.2q.2.2.1.3Z"/>
  <path class="cls-8" d="m127,10.245l.1,7.8.1,3.9.2.8.5.7c.4.4.9.6,1.5.6.319-.011.631-.099.909-.256.279-.157.516-.377.691-.644l.4-.9v-12.4l.1-2.3.1-.1.1.1.1,2.3v2.3l.1,4.5.1,4.5v1.2c-.1.4-.2.8-.5,1.2-.5.7-1.3,1.2-2.2,1.2-.8,0-1.5-.3-2-.9l-.6-.9-.2-1.1v-3.9l.1-7.8.2-.2.2.3Zm6.3,68.7l.3,1.6.2,3.6-.1,1.9-.4,1.7-.3.6-.4.4-.4.1-.1-.1h.1l.2-.1.2-.4.1-.6.1-3.5.1-3.5.4-1.7Zm20.4,11.4l-.1-.4-.2-1.1-.4-3.4c0-1.2,0-2.5.2-3.4l.3-1.5.1.4.1,1.1.2,3.3v3.4l-.2,1.6Z"/>
  <path class="cls-8" d="m131.5,5.845l-.1-.9v-1c.1-.7.5-1.3,1-1.7.5-.4,1.2-.7,1.9-.7h1.8l7.1.1h8.6c.638.078,1.234.358,1.7.8.5.4.8,1,.9,1.6v.9l-.1.9-.1.1-.1-.1c-.1-.6,0-1.2-.2-1.7-.1-.5-.4-1-.8-1.3-.369-.377-.872-.592-1.4-.6h-8.5l-7.1.1h-1.8c-.5,0-1,.2-1.4.5-.4.3-.7.8-.8,1.3l-.2,1.7-.2.1c-.1.1-.2,0-.2-.1Z"/>
  <path class="cls-11" d="m177.1,32.744c-.4-4.6-5.8-4.6-9-4.7-3-.1-23.4.1-25.2.1l-25.2.1c-3.2.2-8.6.2-9,4.8-.4,4.6,5.4,7.5,5.4,7.5,0,0-1.7-4.6,1.6-7,3.3-2.5,8.4-2.9,11.7-3.1l15.2-.1h.2c1.9,0,12.2-.2,15.2-.1,3.3.1,8.4.5,11.8,3,3.3,2.4,1.7,7,1.7,7,0,0,6.1-2.9,5.6-7.5Z"/>
  <path class="cls-8" d="m143.5,30.045l8.7-.1h6.6l2.2.1c2.933.15,5.799.935,8.4,2.3l.9.6.8.8c.502.588.876,1.274,1.1,2.014.224.74.292,1.518.2,2.286,0,.8-.2,1.5-.4,2.2l-.5-.4c1.6-.9,3.1-2.1,4.1-3.6.518-.747.86-1.602,1-2.5v-1.3c-.073-.449-.208-.887-.4-1.3-.42-.791-1.087-1.424-1.9-1.8-.8-.4-1.7-.6-2.6-.8l-2.8-.3h-20.1l-5.7-.1-.1-.1.1-.1,5.7-.1,5.7-.1,11.5-.1h2.9l2.9.2c.971.113,1.916.383,2.8.8.934.455,1.703,1.189,2.2,2.1.2.5.4,1,.4,1.5l.1.4v1.2c-.1,1-.5,2-1.1,2.8l-2,2.2c-.8.6-1.6,1.2-2.4,1.6-.2.1-.4,0-.5-.1v-.3c.4-1.3.5-2.8.2-4.1-.175-.655-.481-1.267-.9-1.8l-.7-.7-.9-.6c-2.4-1.5-5.4-2-8.2-2.3l-2.2-.2h-15.3c-.053,0-.104-.021-.141-.059-.038-.038-.059-.088-.059-.141l.4-.1Z"/>
  <path class="cls-8" d="m142.8,28.244l-23,.2-2.9.1c-1,.1-1.9.1-2.8.3-.9.2-1.8.4-2.6.8s-1.5,1-1.9,1.8c-.4.8-.5,1.7-.4,2.6.1.8.5,1.7,1,2.5,1,1.5,2.6,2.7,4.2,3.6l-.5.4c-.2-.8-.4-1.5-.4-2.3s0-1.5.2-2.3c.2-.8.6-1.5,1.1-2.1l.9-.8.9-.6c2.68-1.345,5.607-2.127,8.6-2.3l2.2-.1h6.6c3.001.016,6.001.082,9,.2l-.1.1-8.9.2h-6.6l-2.2.2c-1.5.1-2.9.4-4.3.7-1.4.4-2.8.8-4,1.6l-.9.6-.7.7c-.4.5-.8,1.1-1,1.8-.4,1.3-.2,2.8.2,4.1.1.2,0,.4-.2.4h-.3l-2.5-1.6c-.817-.582-1.499-1.332-2-2.2-.613-.823-.992-1.797-1.098-2.818-.105-1.021.067-2.051.498-2.983.497-.911,1.266-1.645,2.2-2.1.9-.5,1.9-.7,2.8-.8l2.9-.3h25.9l.2.2c.1.2,0,.2-.1.2Z"/>
  <path class="cls-8" d="m162.611,41.759c-2.363,0-7.657-1.002-11.111.686v-.2c2.262-3.001,7.044-2.904,11.111-.486Zm-25.511.586v.2l-.1.4c-.1.4-.5.8-1,1.3l-.9.6c-.306.193-.645.328-1,.4l-2.3.4c-1.6.2-3.1.2-4.3.1l-1.9-.3-.1-.1.1-.1,1.9-.2,4-.9,2-.8.9-.3.8-.2,1.2-.4.5-.2c.1-.1.2-.1.2.1q0-.1,0,0Zm6.5,33l.2-.1.4-.3c.907-.454,1.848-.236,2.8-.1l.5.2.2.1-2,.1c-1.1.2-2.1.2-2.1.1Zm-4.067-1.6c2.562.361,8.415-3.954,9.667-.2l.2.4v.1l-.3-.2c-2.811-1.562-6.711,1.1-9.467.1l-.1-.2c-.1.1-.1,0,0,0Z"/>
  <path class="cls-3" d="m133,63.144c-5.9,0-10.1-3.9-10.1-9.3l-.3-5.5.1-.4.4-.2,18.3-.5.4.2.2.4v7.5c.1,4.3-4,7.8-9,7.8Zm-9.2-14.2l.3,4.9c0,4.7,3.8,8.2,9,8.2,4.4,0,7.9-3,7.9-6.7v-6.9l-17.2.5Zm32.5,14.2c-5,0-9-3.5-9-7.8v-7.5l.2-.4.4-.2,18.3.5.4.2c.1.1.2.3.1.4l-.3,5.5c0,5.4-4.3,9.3-10.1,9.3Zm-7.9-14.7v6.9c0,3.7,3.5,6.7,7.9,6.7,5.2,0,9-3.4,9-8.1l.3-4.9-17.2-.6Z"/>
  <path class="cls-3" d="m141.5,51.144s.7-2.4,3.1-2.4c2.6,0,3.1,2.7,3.1,2.7v-3.7h-6.2v3.4Z"/>
  <path class="cls-3" d="m147.8,51.944c-.2,0-.4-.2-.5-.4,0-.1-.5-2.3-2.7-2.3-2,0-2.7,2-2.7,2-.1.2-.3.4-.5.3-.2,0-.4-.2-.4-.5v-3.4c0-.3.2-.5.5-.5h6.3c.3,0,.5.2.5.5v3.7c0,.3-.2.5-.5.6Zm-3.2-3.7c1.2,0,2.1.5,2.7,1.2v-1.2h-5.3v1.2c.6-.7,1.5-1.2,2.6-1.2Zm-21.5.6l-2.8-1.4,3.1.5c.3,0,.4.3.4.6s-.3.4-.6.4l-.1-.1Zm42.8-.9l2.6-.7-2.2,1.5c-.2.2-.5.1-.7-.1-.2-.2-.1-.5.1-.7h.2Z"/>
  <path class="cls-8" d="m143.6,67.346s.1-.4.5-.8c.4-.4,1.1-.8,1.8-1l.5-.1h.5v-1.1l.6.7.1.2.1.4c0,.3-.2.6-.5.8l-.4.1-.2.1-.5.1-2.5.6Z"/>
  <path class="cls-11" d="m145.7,51.244c-.1,0-.6,7.4.7,11l.3.9"/>
  <path class="cls-8" d="m145.7,51.244l.1.5.1,1.4c.257,2.695.457,5.396.6,8.1l.2,1.3.1.5-.3-.5-.6-1.3c-.817-2.687-1.022-5.523-.6-8.3l.3-1.4.1-.3Zm-14.5,3.5c.1,1.4,1.1,2.4,2.2,2.3,1.1-.1,1.9-1.3,1.8-2.7-.1-1.4-1.1-2.4-2.2-2.3-1.2.1-2,1.3-1.8,2.7Z"/>
  <path class="cls-8" d="m129.3,54.345v.3l.1.8c.1.6.5,1.6,1.3,2.4.4.4.9.7,1.5.8l.4.1h.5c.354-.01.699-.113,1-.3.6-.3,1.2-.8,1.6-1.5.4-.7.7-1.4.7-2.3,0-.8-.1-1.6-.4-2.4-.3-.7-.8-1.4-1.5-1.7-.6-.4-1.4-.6-2.1-.5-.6.1-1.3.4-1.7.8-.738.607-1.235,1.458-1.4,2.4l-.1.8.1.3Zm-1,0c.037-.111,0-.3,0-.3l.2-.9c.2-.8.7-1.9,1.9-2.7.6-.4,1.3-.7,2.1-.8.8,0,1.6.1,2.3.6s1.3,1.1,1.7,1.9.6,1.7.5,2.6c0,.9-.2,1.8-.7,2.6-.4.8-1.1,1.5-1.9,1.9-.4.2-.8.4-1.3.4l-.6.1-.7-.1c-.8-.1-1.6-.5-2.1-1-.867-.782-1.433-1.844-1.6-3l-.1-1c.3-.1.248-.143.3-.3Zm29.8.4c-.1,1.4-1.1,2.4-2.2,2.3-1.1-.1-1.9-1.3-1.8-2.7.1-1.4,1.1-2.4,2.2-2.3,1.2.1,2,1.3,1.8,2.7Z"/>
  <path class="cls-8" d="m161,54.345v.3l-.1,1c-.167,1.156-.733,2.218-1.6,3-.5.5-1.3.9-2.1,1l-.7.1-.6-.1c-.45-.073-.887-.208-1.3-.4-.795-.448-1.452-1.105-1.9-1.9-.4-.8-.6-1.7-.7-2.6,0-.9.1-1.8.5-2.6.4-.8,1-1.5,1.7-1.9.688-.428,1.49-.638,2.3-.6.8.1,1.5.4,2.1.8.921.659,1.591,1.611,1.9,2.7l.2.9.3.3Zm-1,.1v-.3l-.1-.8c-.165-.941-.662-1.793-1.4-2.4-.466-.442-1.062-.722-1.7-.8-.7-.1-1.4,0-2.1.5-.6.4-1.2,1-1.5,1.7-.3.7-.5,1.5-.4,2.4.1.8.3,1.6.7,2.2.4.7,1,1.2,1.6,1.5.3.2.7.2,1,.3h.5l.4-.1c.6-.1,1.1-.5,1.5-.8.8-.8,1.1-1.7,1.3-2.4l.1-.8.1-.2Z"/>
  <path class="cls-8" d="m133.5,92.645l.8.3,2.2.8,1.5.4,1.7.3,1.8.2,1.9.1,1.9-.1,1.8-.2c.568-.091,1.135-.191,1.7-.3l1.5-.4,2.2-.7.8-.3-.8.5-.9.5-1.2.6c-.9.4-2,.8-3.2,1-.6.1-1.2.3-1.9.3l-2,.1-2-.1c-.7,0-1.3-.2-1.9-.3l-1.7-.5-1.5-.6-1.2-.6-.9-.5-.6-.5Z"/>
  <g>
    <path class="cls-5" d="m207.82,110.321l19.069-11.009.185,6.225c.304,10.264-5.052,19.867-13.945,25.002-8.715,5.031-19.465,4.982-28.134-.129l-3.62-2.134-82.297,47.514c-3.028,1.748-6.627,2.222-10.004,1.317-7.033-1.885-11.207-9.114-9.322-16.147.905-3.377,3.115-6.257,6.143-8.005l82.298-47.514-.039-4.202c-.092-10.063,5.24-19.397,13.956-24.429,8.893-5.134,19.887-4.971,28.624.424l5.299,3.273-19.069,11.009-3.974,14.831,14.831,3.974Z"/>
    <path class="cls-8" d="m92.507,178.063c-1.188,0-2.384-.156-3.563-.472-7.288-1.954-11.629-9.473-9.676-16.76.946-3.531,3.211-6.482,6.376-8.309l82.045-47.369-.036-3.91c-.095-10.226,5.35-19.754,14.206-24.867,9.065-5.234,20.229-5.068,29.137.433l6.011,3.712-19.614,11.324-3.791,14.148,14.148,3.791,19.613-11.324.211,7.062c.31,10.464-5.13,20.216-14.195,25.45-8.856,5.112-19.83,5.062-28.638-.131l-3.369-1.986-82.044,47.368c-2.108,1.218-4.449,1.839-6.821,1.84Zm103.559-104.498c-4.726,0-9.456,1.224-13.707,3.678-8.545,4.933-13.797,14.126-13.706,23.992l.042,4.494-82.551,47.66c-2.934,1.694-5.033,4.429-5.91,7.702-1.81,6.754,2.214,13.724,8.969,15.534,3.274.878,6.691.427,9.625-1.267l82.55-47.661,3.871,2.283c8.5,5.011,19.087,5.06,27.63.126,8.746-5.05,13.994-14.459,13.695-24.554l-.16-5.388-18.523,10.694-15.514-4.157,4.156-15.514,18.524-10.694-4.587-2.833c-4.416-2.728-9.408-4.095-14.404-4.095Z"/>
  </g>
  <path class="cls-6" d="m183.327,81.303c7.075-4.085,15.735-4.172,22.862-.309l-14.122,8.153-5.621,20.978,20.978,5.621,14.122-8.153c-.217,8.104-4.623,15.56-11.698,19.644-7.311,4.221-16.327,4.18-23.599-.108l-5.881-3.467-84.571,48.827c-1.994,1.151-4.365,1.463-6.589.867-4.632-1.241-7.382-6.003-6.14-10.635.596-2.225,2.051-4.121,4.046-5.273l84.571-48.827-.062-6.827c-.077-8.441,4.395-16.271,11.705-20.491Z"/>
  <path class="cls-6" d="m91.486,152.089l73.576-43.627c.238-.142.546-.061.684.179h0c.137.237.056.541-.182.679l-74.078,42.769Z"/>
  <path class="cls-6" d="m200.031,131.014c.141-.109.295-.215.467-.314,2.379-1.378,3.117-.912,3.574.147.366.847-2.17,3.546-3.88,4.53-2.731.333-3.94.113-4.889-.857-1.071-.037-1.774-.281-2.354-.771l-.008.005c-.356.043-.676.084-.965.121h0c-1.531.196-2.192.281-2.641.012-.339-.204-.556-.61-.936-1.323-.996-.236-1.261-.558-1.904-1.34h0c-.215-.26-.472-.572-.812-.949.266-1.955.935-4.222,1.858-4.203,1.153.023,1.864.531,1.487,3.254-.026.185-.05.35-.071.497-.107.743-.149,1.039-.06,1.287.058.164.174.308.366.546l.017.021c1.126-.24,1.788-1.147,2.463-2.072.522-.715,1.051-1.44,1.809-1.879,2.24-1.297,2.461-.773,2.861.177h0c.025.059.05.12.077.182.244.565-.657,2.465-1.793,3.957.797-.074,1.046-.545,1.405-1.226.206-.388.447-.845.846-1.335,1.736-2.133,3.129-1.937,3.586-.878.162.374-.058,1.351-.502,2.411Z"/>
  <path class="cls-7" d="m200.176,129.634c-.467-1.04-1.853-1.218-3.576.899-.4.491-.641.947-.846,1.336-.36.681-.608,1.152-1.405,1.226.31-.408.603-.846.86-1.279.21-.213.363-.504.545-.848.205-.388.446-.845.846-1.335,1.735-2.132,3.129-1.936,3.586-.877.076.176.067.487-.01.878Zm-.082,1.251c-.096.36-.236.765-.41,1.182.14-.109.294-.215.466-.315,2.22-1.285,3.011-.965,3.479-.057.127-.286.168-.527.096-.695-.457-1.059-1.195-1.526-3.575-.148-.019.011-.037.022-.056.033Zm-14.637-.321c.32-1.736.932-3.456,1.735-3.439.854.017,1.465.299,1.572,1.548.134-2.022-.543-2.428-1.572-2.449-.922-.019-1.592,2.248-1.857,4.203.042.046.082.092.122.137Zm3.096.71c.059.159.174.302.361.534h0l.017.022c1.127-.241,1.788-1.147,2.464-2.073.521-.714,1.051-1.44,1.809-1.879,2.24-1.297,2.461-.772,2.861.177h0c.025.059.05.12.077.182.07.163.045.436-.052.778-.009-.02-.017-.04-.025-.059h0c-.4-.95-.621-1.474-2.861-.177-.758.439-1.288,1.164-1.809,1.879-.676.925-1.337,1.832-2.464,2.072l-.017-.021h0c-.192-.238-.307-.382-.366-.546-.071-.198-.058-.427.005-.889Z"/>
  <path class="cls-6" d="m90.664,173.694h0c.016-.869.034-1.771.235-2.597.65-2.672,3.324-1.779,2.831-.714-.182.393-.137,1.431-.084,2.648.041.95.087,2.009.033,2.954.205-.003.399-.007.582-.011.354-.367.468-.936.608-1.641.1-.505.215-1.08.442-1.7.946-2.581,3.104-3.152,3.104-1.999,0,1.132-.258,3.158-.793,4.829.124-.126.213-.284.324-.482.151-.269.345-.614.727-1.056,1.786-2.061,2.112-1.987,3.215-1.737l.027.006c.728.165-.296,3.133-1.591,4.621-2.429,1.674-3.755,2.227-4.752,1.871-.824.613-1.659.553-2.547-.319-1.21,1.376-2.933.889-4.391-.296-1.416.404-2.085-.172-2.918-1.926-.386-1.935-.493-4.296.386-4.579,1.098-.354,1.935-.106,2.467,2.591.036.184.067.347.095.493.142.737.198,1.031.363,1.237.109.136.265.234.524.396.165.104.372.233.634.416.437-.776.458-1.861.479-3.005Z"/>
  <path class="cls-7" d="m90.664,173.601h0c-.022,1.143-.042,2.229-.479,3.004-.263-.182-.469-.312-.634-.416h0c-.259-.162-.415-.26-.524-.396-.043-.054-.078-.113-.11-.185.103.523.164.761.305.937.109.136.265.234.524.396h0c.165.104.372.234.634.416.437-.775.458-1.861.479-3.004h0c.017-.869.034-1.772.235-2.598.474-1.95,2.027-2.001,2.639-1.472.478-1.063-2.185-1.946-2.834.72-.201.826-.218,1.729-.235,2.598Zm3.233,2.286c-.002.258-.009.511-.023.756.205-.003.399-.007.582-.011.354-.367.468-.936.608-1.641h0c.1-.505.215-1.08.442-1.699.771-2.105,2.348-2.873,2.905-2.46.003-.103.005-.2.005-.291,0-1.154-2.159-.583-3.104,1.999-.227.619-.341,1.194-.442,1.699h0c-.14.705-.253,1.274-.608,1.641-.117.003-.238.005-.364.007Zm4.366-1.523c-.118.594-.267,1.195-.447,1.757.124-.126.213-.283.324-.482.151-.269.345-.613.727-1.055,1.785-2.062,2.112-1.988,3.215-1.738l.027.006c.011.003.021.006.031.009.05-.423-.012-.712-.226-.761l-.027-.006c-1.103-.25-1.429-.324-3.215,1.738-.17.196-.302.372-.41.532Zm-12.454,1.879c-.031-.062-.062-.126-.093-.192-.386-1.935-.493-4.296.386-4.579,1.058-.341,1.874-.123,2.408,2.309-.529-1.723-1.277-1.859-2.213-1.557-.795.256-.783,2.215-.487,4.019Z"/>
</svg>