<?xml version="1.0" encoding="utf-8"?>
<!-- Generator: Adobe Illustrator 27.2.0, SVG Export Plug-In . SVG Version: 6.00 Build 0)  -->
<svg version="1.1" id="Layer_1" xmlns="http://www.w3.org/2000/svg" xmlns:xlink="http://www.w3.org/1999/xlink" x="0px" y="0px"
	 viewBox="0 0 300 301" style="enable-background:new 0 0 300 301;" xml:space="preserve">
<style type="text/css">
	.st0{fill:#888B8F;}
	.st1{fill:#42474D;}
	.st2{fill:#565A60;}
	.st3{fill:#76797E;}
	.st4{fill:#383D44;}
	.st5{fill-rule:evenodd;clip-rule:evenodd;fill:#565A60;}
	.st6{fill:#FF7033;}
	.st7{fill-rule:evenodd;clip-rule:evenodd;fill:#888B8F;}
	.st8{fill-rule:evenodd;clip-rule:evenodd;fill:#383D44;}
</style>
<g>
	<path class="st0" d="M137,78.4c2.9,1.3,6.2,1.9,9.4,1.7l6.7-0.1c0,0-0.2,8.4-0.7,9.8c-1.1,3-3.4,3.5-6.3,3.9
		c-4.7,0.5-15.6,1.3-13.8-4.6c1-3.3,0.2-6.1,0.5-8.2l0.4-3.8C133.2,77.1,135.1,77.5,137,78.4z"/>
	<path class="st1" d="M141.7,84c-1-0.4-1.9-1.1-2.9-1.6s-2.2-0.8-3.2-0.4c-1.3,0.5-1.9,1.9-2.1,3.3c-0.2,1.3-0.9,1.9-0.9,3.2
		c1.2-0.9,1.8-1.2,2.8-1.6s2.1-0.4,3.2-0.3l5.1,0.2c1.4,0,2.8,0.1,4.1-0.4s3.6-1.8,3.7-3.2C148.7,84,144.5,85.1,141.7,84z"/>
	<path class="st2" d="M132.4,88.6c0.7-0.9,1.4-1.4,1.6-2.5s0.8-2.2,1.8-2.7c0.7-0.3,1.5-0.2,2.2,0.1l2,1c3.3,1.7,7.6,1.3,10.5-0.9
		l2.2,6.3c0.3-2.8,0.2-6,0-8.9c-2.5,1.5-5.9,3.4-8.7,3.1c-4.1-0.5-8.1-3.9-11.4-5.8C133,81.8,133.3,85.2,132.4,88.6z"/>
	<path class="st2" d="M165.3,114.1l4.8-8c0.4,4.3-1.4-4.8-2.3-13.9c2.3,1.2,4.4,1.4,5.8,3.6l0.3,0.6c4.2,11.7,13,28.1,12.1,46.6
		c-2.3,5.6-11.2,2.6-11.2,2.6S170.9,132.6,165.3,114.1z"/>
	<path class="st3" d="M174.7,143.2c2.5-7.5,19.1-16.1,27.1-19.5l3.4,3.5l-21.7,22C179.6,150.3,172.2,150.7,174.7,143.2z"/>
	<path class="st0" d="M105.5,134.4c7,3.7-6,32.3-6,39.4l-8.3,1.5c0,0-1.1-24.5,2.6-37.5C95.8,130.7,98.5,130.7,105.5,134.4z"/>
	<path class="st3" d="M157.2,165.6c1.2-10.1-3-13.2-2.5-23.4c1-19.1,0.2-34.8,1.2-53.9c-3.9-0.3-8,5.1-11.9,5.7
		c-3.9,0.6-8.7-2.9-12-5.1c-9.5,32.1-13.4,46.9-14,80.4c4.7,0.8,9.9,1.7,14.7,2.2c8.7,0.9,11.6,6.8,16.2-0.7
		C150.9,167.5,156.8,169.3,157.2,165.6z"/>
	<path class="st1" d="M166.8,30.9c-0.1-0.8-0.1-1.7,0.2-2.5c0.8-1.7,2.3-1.9,3.6-3.3c1.2,3.8,1.8,8,1.2,11.9
		c-1.5,9.6-3.7,14.1-5.3,14.5C166.1,45.7,167.3,36.7,166.8,30.9z M115.3,25.7c2-0.6,4.1,1.3,4.5,3.4c0.5,2.1-0.1,4.2-0.5,6.3
		c-0.8,4.2,1.6,11.6,2.5,15.7c-1.1,0.1-4.3-2.5-5.5-2.4c-2.1-5-3-10.8-3.6-16.2c-0.1-1.3,0.2-1.5,0.5-2.8
		C113.6,28.4,114.1,26.1,115.3,25.7z"/>
	<path class="st0" d="M166.1,50.9c0.7-1.1,2-2.9,3.4-2.7c3.6,0.6,2.3,6.1,1.3,8.7c-0.4,1.1-2.9,8.1-4.8,6.6 M121.5,50.9
		c-0.7-1.2-2.1-2.9-3.5-2.7c-3.7,0.6-2.3,6.2-1.3,8.9c0.4,1.1,3,7.1,4.9,6.7c0.1,0,0.9-0.3,0.9-0.8"/>
	<path class="st0" d="M164.9,29.9c3.1,4,2,18.3,2,18.3s-0.2,10.8-2.4,19.1c-1.9,6.9-6.9,10.8-14.2,15.8c-5,3.4-6.5,2.2-12.4-1
		c-4.6-2.5-12.6-8.5-14.2-15.3c-1.7-7-2.7-18.7-2.7-18.7s-2.2-7.8,0.3-16.2"/>
	<path class="st2" d="M166.3,32.4c-2.1-1.4-6.7-1.8-9.2-2.1c-8.6-0.8-17.3-1.4-26-0.5c-2.3,0.2-4.6,0.6-6.6,1.7
		c-2.4,1.3-5.9,1.4-6.3,6.1c-0.2,2.7,0.8,5.7,2.2,8c0.6-4.2,1.6-9,5.2-11.2c2.4-1.5,5.4-1.5,8.2-1.5l20.6,0.3c2.7,0,5.4,0.1,7.9,0.9
		c2.5,0.9,4.6,4.8,5.4,7.3C167.9,38.7,168.6,34,166.3,32.4z"/>
	<path class="st2" d="M120.4,48.2c-2.5-5.6-4.7-14.3-3-20.2c0.7,1.4,1.9,2.6,3.3,3.4C118.8,36,119.9,43.2,120.4,48.2z M166,30.1
		c1.9,5.8,2.2,12,0.9,18c1.6-3,2.3-8.4,2-11.9c-0.3-3.4-0.4-7.3,1.7-9.9l-3.5,2.5C166.6,29.2,166.1,29.5,166,30.1z"/>
	<path class="st1" d="M117.4,52.4c0.2-0.9,1-1.7,1.9-1.5c0.5,0.1,0.8,0.5,1,1c0.2,0.4,0.3,0.9,0.3,1.4l0.4,3
		c0.2,1.4,0.4,2.9,0.2,4.4l-2.6-4.2C117.9,55.2,117.1,53.8,117.4,52.4z M170.4,52.1c-0.2-0.9-1-1.7-1.9-1.5c-0.5,0.1-0.8,0.5-1,0.9
		c-0.2,0.4-0.3,0.9-0.3,1.4l-0.4,3c-0.2,1.4-0.4,2.9-0.2,4.3l2.6-4.1C169.9,54.8,170.7,53.5,170.4,52.1z"/>
	<path class="st2" d="M141.4,55.4c-0.8,1.9-2.2,3.4-3.9,4.5c-1.7,1.1-3.7,1.6-5.7,1.6c-4-0.2-7.8-3.1-9-7c-0.7,2.6,0.6,5.4,2.7,7.1
		c2.1,1.7,4.9,2.3,7.6,2.2c2.3-0.1,4.7-0.7,6.5-2.2C141.3,60.1,142.2,57.5,141.4,55.4z M147.1,55.4c1.5,3.7,5.6,6.3,9.6,6.1
		s7.8-3.1,9-7c0.7,2.6-0.6,5.4-2.7,7.1c-2.2,1.6-4.9,2.4-7.6,2.2c-2.3-0.1-4.7-0.7-6.5-2.2C147.3,60.1,146.3,57.5,147.1,55.4z"/>
	<path class="st0" d="M171.1,223.4v6.9c0.1,2.3,1.5,15,0.6,26c-0.9,11-0.9,13.4-1,15.9c0,1.8-1,3.6-2.6,4.1
		c-1.6,0.5-4.3-0.8-5.2-2.3c0,0-4.3-15.1-5-21.1c-0.7-6-2.3-10.1-2.1-13.3c0.2-3.3-0.3-9.8-0.4-13.9"/>
	<path class="st2" d="M161.5,236.2c-1.3,0.2-2.7,0.5-3.6,1.5c-0.9,1.1-1,2.7-1,4.1c0.1,1.4,0.7,4.7,0.1,6c-1.3-3.6-1.2-9.9-2-13.2
		c5.4,0.5,11.1,1,16.1-1.1c0.7,2.5,1,7.2,0.9,9.7c-1.2-8.6-3.8-7.5-4.5-7.5C165.5,235.7,163.5,235.9,161.5,236.2z"/>
	<path class="st0" d="M118.6,222.8l-0.5,6.9c-0.2,2.3-2.5,14.6-1.6,25.6s1,13.4,1,15.9c0,1.8,1.1,3.6,2.7,4.1
		c1.7,0.6,4.4-0.8,5.4-2.3c0,0,3.8-13.1,4.5-19.1c0.7-6,1.6-10.3,1.4-13.5c-0.2-3.3,1.8-10.6,1.9-14.7"/>
	<path class="st2" d="M130.8,247.7c0,0.5-0.2,0.9-0.1,1.4c0.2-2.5,1.1-4.8,1.5-7.3c0.5-3.4,0.7-6.9,0.7-10.3l-8.6-0.3
		c-1.6,0-3.2-0.1-4.7,0.5c-1.5,0.6-2.8,2-2.7,3.5c1,1.4,3,1.7,4.7,1.8l4.9,0.3c0.8,0.1,1.6,0.1,2.3,0.6c0.9,0.6,1.3,1.8,1.5,2.9
		C130.6,243.1,130.9,245.5,130.8,247.7z"/>
	<path class="st4" d="M118.2,225.5v2l-0.1,2.3l-0.2,2.9L117,240c-0.8,5.6-0.8,11.2,0.1,16.8l0.6,7.3l0.1,5.2l-0.1,2c0,0,0,0.1-0.1,0
		l-0.2-2l-0.5-5.2l-0.6-7.3c-0.2-2.7-0.3-5.6-0.2-8.4l0.1-4.3c0.1-1.4,0.1-2.8,0.3-4.1l0.4-3.9l0.5-3.4
		C117.6,230.3,117.8,227.9,118.2,225.5z M125.5,273l1.6-7l1.6-7.1l1.8-8.2c0.6-2.8,1.1-5.6,1.4-8.3l0.5-3.8l0.5-3.4l0.8-5.1l0.1-2
		l0.1-0.1l0.1,0.1l-0.1,2c-0.1,1.3-0.3,3-0.7,5.1l-0.5,3.4l-0.4,3.8c-0.3,2.7-0.8,5.5-1.3,8.3l-0.8,4.2l-0.9,4
		c-0.6,2.6-1.1,5.1-1.7,7.1l-1.3,5l-0.5,1.9C125.8,273,125.7,273.1,125.5,273C125.5,273.2,125.4,273.1,125.5,273z M170.7,225.5
		l0.3,2.1l0.2,2.4l0.2,3.1l0.4,3.6l0.2,4.1l0.3,4.3l0.1,2.2v2.3c0.1,6-0.2,12-0.7,16.5l-0.5,5.4l-0.3,2c0,0,0,0.1-0.1,0v-2.2
		l0.2-5.4l0.3-7.7l0.1-4.3l0.1-4.5v-4.5l-0.1-4.3l-0.4-4l-0.5-3.6l-0.2-5.4L170.7,225.5z M162.8,274.1l-0.5-2l-1.3-5.2
		c-1.2-5.3-2.4-10.6-3.4-15.9c-0.5-2.9-1.1-5.8-1.4-8.6l-0.4-4l-0.5-3.5l-0.7-5.3l-0.1-2l0.1-0.1l0.1,0.1l0.2,2l0.8,5.3l0.5,3.5
		l0.5,4l1.5,8.5l1.8,8.5l1.7,7.4l1.6,7.2l-0.1,0.2L162.8,274.1z"/>
	<path class="st3" d="M145.7,193.2c-3.5,4.8-4.4,29.4-5.9,40c0,0-19.7,7.2-26.9-0.7c0,0,2.1-38.1,3.5-45.8c2.7-1.2,3.8-5.4,4.6-8.2
		c0.9-2.9,1.4-5.9,3.3-8.2c2.5-3,6.6-4,10.4-4.7c5.5-1,11-1.7,16.6-2.1c3.5-0.3,17.2-2.8,18,0.6c0.9,4.2,0.7,4.9,1.2,8.4
		c0,0,3.3,35.5,4.3,42.9c1.3,9.5,0.9,16.8,0.9,16.8s-16.5,6-26.2,1.2l-4.4-35.2"/>
	<path class="st2" d="M149.4,232.1c0.1,0.6,3.2,1.2,3,1.1c-0.7-0.6-2.4-15.5-2.8-21.6c-0.4-7-0.6-10.1-2.1-16.8
		c-1.3,5.2-1.6,10.6-1,16C146.9,213.3,148.9,229.4,149.4,232.1z M139.8,231.2c-0.2-1.7,2.6-27.7,5.1-38.6
		c-1.5,6.4-8.6,36.8-9.1,38.3l-0.1,0.2c-2.1,1.3-4.4,2.4-6.7,3.2c-2.6,1.1-5.4,1.4-8.2,1.8c7.9,0.3,12.6-1.2,17.5-2.5
		c0.3-0.1,0.7-0.2,0.9-0.4l0.9-0.1C140,232.5,139.9,231.9,139.8,231.2z"/>
	<path class="st2" d="M150.5,230.3c1.8,2.2,4.2,4,6.8,5c-2.2,0.2-4.5-0.1-6.6-1c-0.5-0.2-1-0.5-1.2-0.9l-0.1-1.1l0.2-3 M153.8,189.9
		c-0.8-0.5-1.8-0.3-2.6,0.3c-0.8,0.6-1.2,1.3-1.9,2c-0.6,0.7-1.5,1.2-2.4,1.1c-1.5-0.4,0.4-3.3,2.6-5.8c-0.6-0.4-1.4,0.1-1.9,0.5
		c-1.4,1.2-2.7,2.4-4,3.7c-0.4,0.4-0.7,0.8-0.7,1.4l0.3,0.9c2,3.7,2.4,6.9,3.4,10.9c-0.1-3.9,1.2-7.4,3.1-10.8
		C150.5,192.8,152.8,190.7,153.8,189.9z"/>
	<path class="st2" d="M150.7,196.7c0.4,0.2,0.2,0.8,0,1.2c-1.1,2-1.7,4.2-1.8,6.5c0,0.8-0.1,1.6-0.7,2.1c-0.4-1.7-0.6-3.4-0.8-5.2
		c-0.2-1.5-0.3-3.3,0.8-4.3c0.7-0.3,1.4-0.4,2.1-0.4L150.7,196.7z"/>
	<path class="st3" d="M119.8,148.4c3.9-0.1,7.7-0.3,11.6-0.6c-0.2-10.6,0.1-21.2,0.8-31.8c0.3-4.2,0.7-8.4,0.5-12.6
		c-0.2-3.3,0.2-11-3.5-12.5c-2.2-0.9-5.8,0.5-8,1.1c-2.8,0.7-5.6,1.7-8,3.3c3.5,15.4,5.3,30,6.4,45.8L119.8,148.4z"/>
	<path class="st3" d="M117,97.6c2.1,3.8,2.3,7,4.4,10.7c0.8,1.5,1.7,3.1,1.5,4.9c-0.2,2-1.8,3.5-3.1,4.9
		c-7.2,7.6-5.2,10.2-11.5,18.5c-0.5,0.6-1.1,1.3-1.8,1.2c-1,0-1.6,0.1-2.4-0.5c-1.4-1.1-3-0.9-4.8-0.7c-4,0.6-4.3,1.1-4.9,1.7
		c-2.3-4,2.7-11.4,3.3-12.8c2.9-6.5,6-11.7,8.9-18.3c1.5-3.3,2.8-6.5,4.7-9.8c0.9-1.5,2.7-2.6,4.2-1.7
		C116.2,96.2,116.6,96.9,117,97.6z"/>
	<path class="st3" d="M152.1,181.1c2.6-21.8,3.1-43.9,1.4-65.9c-0.3-4.2-0.7-8.4-0.5-12.6c0.2-3.3,3.7-12.9,3.7-12.9l7.9,1.8
		c2.8,0.7,7.3,1.7,8.4,3.5c-3.5,14.9-5.8,30-6.9,45.2c-0.3,4.4-0.5,8.9,0.4,13.3c0.7,3.3,2,6.6,1.8,10l-0.3,2.1
		c0.3,0.4,0.6,0.7,1.1,0.8c0.7,5.1,0.9,10.2,0.4,15.3c-1.2-0.1-2-1.3-3-2c-1.1-0.8-2.6-0.8-3.9-0.8c-1.7,0-3.4-0.1-4.9,0.6
		c-1.8,0.7-3.5,2.3-5.3,1.6v-0.2L152.1,181.1z"/>
	<path class="st2" d="M160.2,177.4c1.1-0.4,2.3-0.9,2.9-1.8c0.5-0.7,0.5-1.6,0.6-2.5l1.1-15.5l-0.5-3.6c-0.3-4-1.1-8.6,0.1-12.5
		c0.1-0.3-0.1-0.6-0.4-0.6v-0.1c0.5-1.7,0.5-3.5,0.5-5.2v-10.7c0-1.9,0.2-4.2,1.8-5.3c2.4,6,0.2,22.2,0.4,32.2
		c0.1,1.9-0.3,3.2-0.4,4.5c0.5,5.8,0.7,11.7-0.3,17.4l-0.7,3.3c-0.1,0.4-0.2,0.8-0.5,1s0.2,0.7-0.1,0.7c-2.5,0.2-6.1-0.6-9.7,1.8
		C156.2,180,158.8,177.9,160.2,177.4z"/>
	<path class="st2" d="M131.8,153.2l-0.2-2.7l-0.2-7.1l0.1-10L132,122l0.6-11.4c0.1-1.8,0.2-3.6,0.1-5.2c0-1.6-0.1-3.1-0.2-4.7
		c-0.2-1.4-0.3-2.7-0.6-3.9c-0.2-1-0.4-2-0.8-2.9l-0.7-1.8l-0.3-0.6v-0.1h0.1l0.4,0.6l0.9,1.8c1.6,3.7,2.3,7.7,2.1,11.7l-0.2,5.3
		l-1,11.4c-0.3,3.9-0.3,7.8-0.4,11.4l-0.1,10v7.1L131.8,153.2z"/>
	<path class="st3" d="M153.7,4.6L153.7,4.6c-0.1-1.5-1.3-2.7-2.7-2.7h-17.1c-0.3,0-0.7,0.1-1,0.2c-0.3,0.1-0.6,0.3-0.9,0.6
		c-0.2,0.3-0.4,0.6-0.6,0.9c-0.1,0.3-0.2,0.7-0.2,1c-9.7,0-17.5,11-17.5,21.1v2.7l57.5-0.2v-2.7C171.2,15.5,163.4,4.7,153.7,4.6z"/>
	<path class="st2" d="M136.9,30.2c0,0-8.8,0.8-15.6,3.3c-4.1,1.5-7.4,4.1-7.6,6.2c0,0-5-7-2-8.4c3-1.4,8.1-2.3,8.1-2.3l47.9-0.2
		c0,0,7.4,3.7,6.2,6l-2.7,4.7c-0.2-2.2-3.6-4.7-7.6-6.1c-5.1-1.6-10.3-2.6-15.6-3.1"/>
	<path class="st3" d="M176.6,32.7c-0.4-4.6-5.8-4.6-9-4.7c-3-0.1-23.4,0.1-25.2,0.1l-25.2,0.1c-3.2,0.2-8.6,0.2-9,4.8
		c-0.4,4.6,5.4,7.5,5.4,7.5s-1.7-4.6,1.6-7c3.3-2.5,8.4-2.9,11.7-3.1l15.2-0.1h0.2c1.9,0,12.2-0.2,15.2-0.1c3.3,0.1,8.4,0.5,11.8,3
		c3.3,2.4,1.7,7,1.7,7S177.1,37.3,176.6,32.7z"/>
	<path class="st2" d="M170.6,20.7c-6,3.6-17,5.9-29.4,5.9c-11,0-20.8-1.9-27.1-4.7c-0.2,1.3-0.4,2.6-0.4,3.9v2.7l57.5-0.2v-2.7
		C171.2,24,171,22.3,170.6,20.7z"/>
	<path class="st3" d="M176.6,32.7c-0.4-4.6-5.8-4.6-9-4.7c-3-0.1-23.4,0.1-25.2,0.1l-25.2,0.1c-3.2,0.2-8.6,0.2-9,4.8
		c-0.4,4.6,5.4,7.5,5.4,7.5s-1.7-4.6,1.6-7c3.3-2.5,8.4-2.9,11.7-3.1l15.2-0.1h0.2c1.9,0,12.2-0.2,15.2-0.1c3.3,0.1,8.4,0.5,11.8,3
		c3.3,2.4,1.7,7,1.7,7S177.1,37.3,176.6,32.7z"/>
	<path class="st2" d="M127.8,177.8c-2.4-1.4-5.3-1.9-8.1-1.3h-0.3c-0.5,0.8-0.3,1.9-0.5,2.9c-0.3,1.7-1.9,1.2-2.7,2.7
		c-0.8,1.4-0.6,5-0.6,6.7c-0.3,6.4-1,12.5-1.2,18.9c1-4.9,2.1-9.8,2.6-14.8c0.1-0.8,0.2-1.7,0.6-2.5c0.2-5.1,4.2-8,15.2-9.7
		C131,179.9,129.5,178.7,127.8,177.8z"/>
	<path class="st2" d="M133.2,170.9c-0.5,0.9-0.9,1.9-1.2,3c-0.1,1.6,1,5.9,1.6,7.4c0.1-0.9,0.3-1.8,0.7-2.5c0.4-0.8,1-1.4,1.8-2
		c1.2-0.7,2.7-1,4.1-1.2c5.7-0.9,11.5-1.9,16.8-3.5c-7,0.8-13.8,2.2-20.9,1.3C135.1,173.2,133.8,170.1,133.2,170.9z"/>
	<path class="st2" d="M138.2,169.4c-0.9-0.7-5.1-6.7-5.7-12.2c-0.6-5.6-0.5-6.9-0.4-12.5l-0.1-6.5h-1.9l-0.1,9.1
		c-0.1,6.5,0.7,5.9,1,12.4c0.1,2.9-0.2,3.2,0,6.1c0.8,11.3,1.4,8.2,4.2,7.7c1-0.2,3.4-0.2,4.5-0.1c5.5,0.6,11.5,0.3,16.8-1.5
		c-5.2,0.1-10.7-0.8-15.9-1.6C139.8,170.1,138.9,170,138.2,169.4z"/>
	<path class="st3" d="M130.1,138.2h-1.2l-9.1-0.2l0.2,2.3c0.3,4.4,0.5,8.9-0.4,13.3c-0.7,3.3-2,6.6-1.8,10l0.3,2.1
		c-0.3,0.4-0.6,0.7-1.1,0.8c-0.7,5.1-0.9,10.2-0.4,15.3c1.2-0.1,2-1.3,3-2c1.1-0.8,2.6-0.8,3.9-0.8c1.7,0,3.4-0.1,4.9,0.6
		c1.3,0.5,2.6,1.6,4,1.8C130.8,167.1,130,152.7,130.1,138.2z"/>
	<path class="st2" d="M123.2,175.6c-0.5-0.7-0.5-1.6-0.6-2.5l-1.1-15.5l0.5-3.6c0.1-1.8,0.1-8.8-0.2-16h-2.4
		c0.5,6.1,0.7,12.2,0.6,18.3c-0.7,6.9-0.4,13.9,1,20.7c0.1,0.4,0.2,0.8,0.5,1s-0.2,0.7,0.1,0.7c2.1,0.2,5-0.4,8,0.9
		c-1.3-0.8-2.7-1.8-3.6-2.2C125,177,123.8,176.6,123.2,175.6z"/>
	<path class="st2" d="M122.6,155.9c-1.2,1.1-1.9,2.5-2.1,4.1c-0.1,1.6,0.4,3.1,1.4,4.3c-0.1-0.9-0.2-1.8-0.1-2.7
		c0.1-0.9,0.5-1.8,1.1-2.4c0.8-0.7,1.9-0.8,2.8-1.2c1.2-0.5,2.3-1.3,3-2.4c0.8-1.1,1.2-2.4,1.3-3.7
		C127.9,153.9,124.7,154.1,122.6,155.9z"/>
	<path class="st5" d="M118.8,138.2c-1.2-23.2,2-24.4,1.4-26c0.4-0.4,1.1,0.1,0.9,0.6c-0.8,2.1-1.2,4.2-1.3,6.4
		c0,0.3,0.3,0.5,0.5,0.4h0.1c0.7-0.2,1.4,0.6,1,1.3c-1.2,2.3-1.3,5.2-1.4,7.8l0,0.1V139l-0.2-0.1l0.1,16.5c0,0.6,0,1.3,0,2
		c0,6.2-0.1,16.4,1.7,21.2c0,0.1-0.4,0.4-1,0.8c-1.3,0.8-3.4,2-4.3,3.7c-1.8,3.8,0.1-16.1,1.5-26.2c0-0.3-0.1-0.4-0.3-0.4
		c-0.2-0.1-0.3-0.1-0.3-0.4l0.1-0.1c0.3-0.4,0.2-0.7,0.2-1c0-0.3,0-0.6,0.2-1c1.3-2.8,0.6-5.3,0.2-6.7c-0.1-0.4-0.2-0.7-0.2-0.9
		C117.8,146.3,118.5,143.4,118.8,138.2L118.8,138.2z M168.4,120.3l-0.2-0.5l0.1-0.4c0.3,0.4,0.6,0.7,0.9,1c0.6,0.6,1.1,1.2,1.4,1.9
		c3.3,8.1,13.1,16.4,3.5,0.6c-1.9-3.2-3.2-5.3-5.6-7.4c-1.1-1-2.8,0.1-2.3,1.5c-0.6,0.3-1.2,0.4-1.9,0.3c0,1,0.3,1.9,0.6,2.7
		l1.6,4.6c-0.1,1.4-0.1,2.8-0.1,3.7l-0.1,27c0,0.6,0,1.3,0,2c0,6.2,0.1,16.5-1.8,21.3c0,0.1,0.4,0.3,1,0.6c1.6,0.8,4.4,2.2,5.2,4
		c0.7,1.7,0.3-1.7-0.2-6.7c-0.6-5.7-1.4-13.4-1.2-18.1c0-0.4-0.2-1.1-0.3-1.6c-0.1-0.3-0.2-0.6-0.2-0.9l-0.1-0.1
		c-0.3-0.4-0.3-0.7-0.2-1c0-0.3,0-0.6-0.2-1c-1.3-2.8-0.6-5.3-0.2-6.7c0.1-0.4,0.2-0.7,0.2-0.9c0,0,0,0,0-0.1
		c-0.1-0.7-1.1-5.8-0.1-16.5c0.1-1.1,0.1-2.4,0-3.6C168.2,124.2,168.2,122.4,168.4,120.3z"/>
	<path class="st4" d="M145.6,193.2c-0.5,0.7-0.7,1.5-1,2.3l-0.6,2.4l-0.8,5c-0.5,3.4-0.9,6.7-1.2,10.1l-0.9,10.1
		c-0.3,3.4-0.8,6.9-1.3,10.3c-4.4,1.6-9.1,2.6-13.8,2.9c-2.4,0.2-4.7,0.1-7.1-0.3c-2.4-0.4-4.6-1.6-6.3-3.3l-0.1-0.2l1.2-25.2
		l0.4-6.3l0.5-6.3c0.4-4.2,0.6-8.4,1.2-12.5c0,0,0-0.1,0.1,0v0.1l-0.6,12.6l-0.7,12.6l-1.5,25.1l-0.1-0.2c1.5,1.7,3.7,2.7,6,3.2
		s4.6,0.5,6.9,0.4c4.6-0.3,9.2-1.3,13.6-2.9l-0.2,0.2l1-10.1l0.9-10.1c0.4-3.4,0.7-6.7,1.3-10.1l1-5l0.7-2.4
		C144.7,194.7,145,193.9,145.6,193.2z"/>
	<path class="st2" d="M132.5,181.3l-0.3-1.2l-0.5-3.2l-0.4-4.6l-0.4-5.2c-0.4-3.6-0.8-7.1-0.8-9.8l0.1-3.3l0.1-1.2c0,0,0-0.1,0.1,0
		l0.2,1.2l0.3,3.2l0.4,9.8l0.5,5.2l0.5,4.6l0.2,3.2V181.3z"/>
	<path class="st4" d="M117.5,156.3l0.1,1.7v1.7l-0.1,3.4l-0.6,6.7l-0.7,6.7l-0.3,3.3l-0.1,3.3l-0.4-0.2c1.3-1.1,2.7-2.2,4.2-3.2
		l1.2-0.6l1.3-0.5c1.3-0.4,2.7-0.5,4.1-0.3l0.7,0.1l0.7,0.2l2.4,1c0.8,0.4,1.6,0.6,2.4,0.8l2.5,0.5v0.1h-0.1
		c-1.7,0.1-3.5-0.1-5.2-0.7l-2.4-0.9l-0.6-0.2l-0.6-0.1l-1.2-0.1c-1.3,0-2.5,0.3-3.7,0.7l-1.1,0.5c-1.5,0.8-2.9,1.9-4.2,2.9h-0.3
		V183c0-2.3,0.2-4.5,0.4-6.7l0.7-6.7c0.2-2.2,0.5-4.4,0.6-6.7C117.5,160.8,117.5,158.5,117.5,156.3l0.1-0.2L117.5,156.3z"/>
	<path class="st2" d="M133.8,173.8l0.8-0.2l2.1-0.2l3-0.1h3.5l3.5-0.3l3-0.3l2.1-0.1h0.8c0,0,0.1,0,0,0.1l-0.8,0.3
		c-0.5,0.1-1.2,0.4-2.1,0.5l-3.1,0.1h-3.5l-1.8,0.1l-1.7,0.1l-3,0.1C135,174.1,133.8,173.9,133.8,173.8
		C133.8,173.9,133.8,173.9,133.8,173.8z"/>
	<path class="st4" d="M167.6,49l0.2-0.2l0.5-0.4c0.2-0.2,0.6-0.3,1-0.3c0.5,0,0.9,0.1,1.4,0.4c0.4,0.3,0.9,0.7,1.1,1.3
		c0.2,0.6,0.4,1.2,0.4,1.8c0.1,1.3-0.2,2.6-0.5,3.9l-1.4,3.7l-1.6,3c-0.6,0.8-1.2,1.5-1.8,1.6c-0.3,0.1-0.5,0-0.7-0.1h0.6
		c0.5-0.2,1-0.9,1.5-1.7c0.5-0.8,0.9-1.9,1.4-3l1.2-3.6c0.3-1.2,0.6-2.5,0.6-3.7l-0.2-1.6c-0.2-0.5-0.5-0.9-0.8-1.2l-1.1-0.5
		c-0.3,0-0.6,0.1-0.9,0.2L167.6,49z"/>
	<path class="st4" d="M169.1,52.2l-0.2,0.1l-0.4,0.4l-0.9,1.3l-0.6,1.5l-0.2,0.5l-0.1,0.2l-0.1-0.2l-0.1-0.6c-0.1-0.5,0-1.2,0.4-1.8
		l0.6-0.8l0.7-0.5l0.6-0.1H169.1z M120.5,49.6l-0.7-0.6l-1-0.5l-0.6-0.1l-0.7,0.2c-0.4,0.2-0.8,0.5-1.1,1c-0.3,0.5-0.3,1.1-0.4,1.8
		l0.1,2l0.5,2l0.7,2l0.8,1.9l1.8,3.2c0.3,0.4,0.6,0.8,1,1c0.3,0.2,0.7,0.3,1,0.1l0.6-0.4l0.1-0.2v0.3l-0.5,0.5
		c-0.3,0.2-0.8,0.2-1.2,0s-0.8-0.6-1.2-1c-0.7-0.8-1.4-1.9-2.1-3.1l-0.9-1.9c-0.8-2-1.2-4.2-1.2-6.4c0.1-0.7,0.2-1.4,0.6-2
		s0.9-1,1.5-1.2l0.8-0.1l0.7,0.2l1,0.7L120.5,49.6z"/>
	<path class="st4" d="M118.7,52.1h0.2l0.6,0.1l0.7,0.5l0.6,0.8c0.3,0.6,0.4,1.3,0.4,1.8l-0.1,0.6l-0.1,0.2l-0.1-0.2l-0.2-0.5
		l-0.6-1.5l-0.9-1.3l-0.4-0.4L118.7,52.1z M114,27.9l-0.1,0.2l-0.2,0.6l-0.2,1V31l0.2,3.4l0.6,3.8l0.3,2l0.4,1.9l0.6,3.4l0.4,2.4
		l0.1,0.9l-0.3-0.9l-0.8-2.3l-0.5-1.6l-0.5-1.8l-0.5-1.9l-0.4-2l-0.5-4v-1.8l0.1-1.7c0.2-0.8,0.4-1.6,0.7-2.4L114,27.9z M169.3,24.2
		l0.2,0.2c0.1,0.1,0.4,0.3,0.5,0.6l0.6,1.1l0.6,1.5l0.5,1.8l0.3,2.1c0.2,1.5,0.1,3,0,4.6c-0.1,0.8-0.1,1.6-0.3,2.3l-0.4,2.2l-0.5,2
		l-0.5,1.8l-0.9,2.6l-0.4,1l0.2-1.1l0.5-2.7l0.3-1.8l0.3-2l0.3-2.2l0.2-2.3l0.1-2.3v-2.2l-0.1-2c-0.1-0.6-0.1-1.3-0.3-1.8l-0.4-1.5
		l-0.4-1.1l-0.4-0.7C169.4,24.3,169.3,24.2,169.3,24.2z M165.8,30.3l0.4,0.6l0.4,0.9l0.4,1.1l0.3,1.4l0.3,1.5l0.3,3.3v3.3l-0.2,2.9
		l-0.4,2.8l-0.1-2.8l-0.1-2.9l-0.2-3.3l-0.4-3.2l-0.5-2.7l-0.3-1l-0.3-0.8c-0.1-0.2-0.2-0.5-0.3-0.7c-0.1-0.2,0-0.5,0.2-0.6
		C165.4,30.1,165.7,30.1,165.8,30.3z M166.9,48.4v2l-0.1,5.2l-0.4,3.5c-0.2,1.3-0.5,2.5-0.8,3.8l-1,4.1c-0.4,1.3-0.9,2.8-1.5,4.1
		c-1.4,2.5-3.2,4.7-5.3,6.6l-3,2.5l-2.8,2l-2.5,1.6l-2.1,1c-0.5,0.2-1,0.3-1.5,0.3h-0.5l0.5-0.1l1.3-0.5l1.9-1.1l2.4-1.7l2.8-2
		l3.1-2.3c2.1-1.7,3.9-3.9,5.2-6.4c0.6-1.3,1.1-2.6,1.3-4l0.6-4.1c0.3-2.7,0.5-5.2,0.9-7.3c0.4-2.1,0.8-3.9,0.9-5.1L166.9,48.4z"/>
	<path class="st4" d="M144.6,85.1h-0.5c-0.5,0-1-0.1-1.5-0.3c-1.3-0.4-2.9-1.3-4.9-2.3c-2-1.1-4.1-2.5-6.3-4.3l-3.2-2.9
		c-2.2-2.1-3.8-4.7-4.5-7.7l-1.1-4.2l-0.9-3.9l-0.5-3.6l-0.3-5.4v-2l0.1-0.1h0.1l0.4,2l1.1,5.3c0.4,2.2,0.8,4.7,1.1,7.5l0.7,4.2
		c0.4,1.4,1.1,2.7,1.9,3.8l2.6,3.5c2.6,2.9,5.7,5.3,9.2,7.2c2,1.1,3.5,2,4.7,2.5L144.6,85.1z M120.5,48.1l-0.2-0.7l-0.5-1.8
		c-0.6-2.8-0.7-5.7-0.5-8.6l0.2-1.4l0.2-1.2l0.5-1.8l0.2-0.7c0.1-0.2,0.4-0.4,0.6-0.3c0.2,0.1,0.4,0.3,0.3,0.5l-0.1,0.7l-0.4,1.8
		l-0.4,2.5l-0.2,2.9v2.9l0.1,2.6L120.5,48.1z"/>
	<path class="st3" d="M130,277.9c0.6,3,1.2,5.1,1,8.2c0,0.4-0.2,0.8-0.5,1.1c-0.7,0.7-2,3.3-2.4,4.9c-0.6,2.3,1.3,6.5-6.7,8.2
		c-2.2,0.3-6.2,0.5-9.7-0.2c-5.9-1.4-4.2-9.2-4.2-9.2l5.5-7l1.1-6.1c0.2-1,1.1-1.6,2.1-1.4c3.2,0.6,7.5,0.7,12.5,0.3
		C129.5,276.6,129.8,277,130,277.9z"/>
	<path class="st2" d="M129.6,274.4c0.4,1.2,1.7,5.7,1.4,9c0,0-2.4,3.1-3,5.4c-0.6,2.3,1.3,6.5-6.7,8.2c0,0-4.6,0.6-8.8,0
		c-4.1-0.6-7-4.1-3.9-8.9l4.3-7.5l1.1-6.1c0.2-1,1.1-1.6,2.1-1.4c2.7,0.5,6.2,0.6,10.2,0.4c0.8,0,1-0.3,1.8-0.3
		C129,273,129.3,273.6,129.6,274.4z"/>
	<path class="st3" d="M125.1,295.3c-0.6,0.7-1.6,0.9-2.5,1.1c-2.9,0.7-5.9,1.1-8.9,1.2c-1.5,0.1-3.2,0-4.3-1c-0.9-0.8-1.2-2-1.6-3.1
		c-0.3-1-0.5-2-0.3-3c0.4-1.2,1.5-2,2.6-2.6c2.1-1,4.5-1.4,6.9-1.1c2.3,0.3,4.6,1.2,6.4,2.6c0.9,0.6,1.7,1.6,2.1,2.6
		C126,293.2,125.9,294.5,125.1,295.3z M113.5,285.3l1.2-0.8c0.8-0.5,2.4-1.6,2.4-2.5l-1.9-13.8c0-0.6,0.4-1.1,0.9-1.4
		c3.1-1.3,8.2-1.5,11.4-0.1c0.7,0.3,1.4,2.3,1.1,3.1l-4.6,12.1c-0.3,1,0,2.1,0.7,2.8l1.7,1.6C122.9,283.6,118.4,283.7,113.5,285.3z"
		/>
	<path class="st4" d="M131.2,283.5l-0.1,1.8v1c-0.1,0.4-0.2,0.8-0.6,1.1c-0.5,0.5-0.9,1.4-1.3,2.2c-0.4,0.9-0.8,1.9-0.9,2.9
		c-0.1,1,0.1,2.3-0.2,3.5c-0.2,0.7-0.5,1.3-0.9,1.8c-0.4,0.5-0.9,1-1.5,1.4c-1.2,0.7-2.5,1.2-3.8,1.4c-1.4,0.3-2.7,0.3-4,0.3
		c-1.3,0-2.6,0-3.8-0.2c-1.2-0.2-2.4-0.3-3.5-0.8s-2-1.3-2.5-2.1c-0.5-0.9-0.8-1.8-0.9-2.6l-0.2-2.1l0.1-1.8c0-0.2,0.2-0.3,0.4-0.3
		s0.3,0.2,0.3,0.4l-0.1,0.4l-0.1,1.3c0,0.6,0,1.2,0.2,2c0.2,0.8,0.4,1.6,0.9,2.4c0.5,0.8,1.3,1.5,2.2,1.8c1,0.4,2.1,0.5,3.3,0.6
		l3.7,0.1c1.3-0.1,2.6-0.1,3.8-0.4c1.2-0.3,2.4-0.7,3.5-1.3c1-0.6,1.8-1.5,2.1-2.6c0.3-1.1,0.2-2.2,0.4-3.4c0.3-1.2,0.7-2.1,1.2-3
		s0.9-1.7,1.5-2.3c0.3-0.3,0.4-0.6,0.5-0.9v-2.7l0.2-0.2L131.2,283.5z M128.6,273.1l0.5,0.2c0.2,0.1,0.4,0.3,0.4,0.5l0.2,0.6
		l0.3,0.7l0.2,0.8l0.4,1.8c0.4,1.5,0.6,3,0.7,4.6v0.4c0,0.2-0.1,0.4-0.3,0.4s-0.4-0.1-0.4-0.3v-0.2l0.1-0.4v-1.1
		c-0.3-1.7-0.8-3.4-1.4-5l-0.3-0.8l-0.2-0.7l-0.1-0.6v-0.4l-0.1-0.2h-0.1l-0.2-0.2C128.3,273.1,128.5,273,128.6,273.1z"/>
	<path class="st4" d="M130.7,283.9l-0.2,0.3l-0.5,0.9c-0.4,0.8-1,1.9-1.4,3l-0.2,0.8l-0.1,0.8l-0.1,1.6c-0.1,1-0.4,1.5-0.4,1.5
		c0,0.1-0.1,0.1-0.1,0l-0.1-0.1l0.1-0.4l0.1-1.1v-1.6l0.1-0.9l0.2-0.9c0.3-1.1,0.8-2.2,1.5-3.1l0.7-0.9l0.3-0.3
		c0.1-0.1,0.2,0,0.3,0.1L130.7,283.9z M126.6,294.7l-1.1,0.9l-1.3,0.7c-0.9,0.4-1.8,0.7-2.8,0.9c-2.5,0.3-4.9,0.4-7.4,0.2l-1.9-0.2
		c-0.6-0.1-1.3-0.3-1.8-0.6c-0.6-0.3-1.1-0.6-1.6-1.1c-0.5-0.4-0.9-1-1.1-1.6c-0.3-0.6-0.4-1.3-0.4-1.9c0-0.7,0.1-1.3,0.3-1.9
		l0.3-0.9l0.4-0.8l0.9-1.6l3.7-6.4v0.1l0.8-4.2l0.2-1l0.2-1.1c0.2-0.7,0.9-1.3,1.7-1.3l0.1,0.1l-0.1,0.1c-0.7,0-1.3,0.5-1.4,1.2
		l-0.2,1l-0.2,1.1l-0.7,4.2v0.1l-3.6,6.4l-0.9,1.6c-0.2,0.2-0.3,0.5-0.4,0.8l-0.3,0.8c-0.2,0.6-0.2,1.1-0.2,1.7
		c0,1.2,0.5,2.3,1.4,3.1l1.4,1l1.7,0.5l1.8,0.2c2.4,0.2,4.9,0.1,7.3-0.1c0.9-0.2,1.8-0.4,2.7-0.8l1.3-0.6l1.1-0.8h0.3L126.6,294.7z"
		/>
	<path class="st4" d="M115.8,273.3l-0.1-1.3l-0.2-1.3l-0.6-2.6c0-0.6,0.2-1.1,0.7-1.5l0.7-0.4l0.7-0.3l1.4-0.4l1.4-0.2h2.8l2.8,0.4
		l1.4,0.4l1.4,0.5c0.5,0.4,0.7,0.9,0.9,1.3c0.2,0.5,0.3,0.9,0.2,1.5l-0.2,0.7l-0.2,0.7l-0.6,1.3c-0.4,0.8-0.8,1.6-1,2.5
		c0,0.2-0.2,0.3-0.4,0.3c-0.2,0-0.3-0.2-0.3-0.4v-0.1l1.2-2.6l0.5-1.3l0.2-0.6l0.2-0.6c0-0.4-0.1-0.8-0.2-1.2
		c-0.1-0.4-0.4-0.8-0.6-1l-1.2-0.4l-1.3-0.3l-2.7-0.2h-1.4l-1.3,0.1l-2.6,0.4l-1.2,0.4c-0.2,0.1-0.3,0.2-0.4,0.4
		c-0.1,0.2-0.1,0.3-0.1,0.5v-0.1l0.4,2.6l0.2,1.3l0.2,1.3l-0.2,0.2C115.9,273.5,115.8,273.4,115.8,273.3z"/>
	<path class="st4" d="M125.7,275.1c1.3-0.1,2.1-0.1,2.1-0.3c0-0.1-0.8-0.4-2.1-0.5h-2.3l-2.8,0.5l-0.5,0.1l-1.2-0.2l-2.2-0.2
		c-1.3,0-2,0.1-2,0.2c0,0.2,1.6,0.4,3.7,0.9l-0.5,0.2l-2,1.2c-1.1,0.8-1.6,1.4-1.5,1.5s0.8-0.3,1.9-0.9l2-1l1.8-0.7l1.1,0.3
		c3.5,1.1,6.1,2.7,6.3,2.4c0.1-0.1-0.5-0.7-1.5-1.4l-1.9-1.1c-0.6-0.3-1.3-0.6-2-0.8l1.4-0.3C124.3,275.3,125.1,275.2,125.7,275.1z
		 M124.2,279.3l-2.2,0.1l-1.9,0.4l-1.8-0.5c-0.7-0.1-1.3-0.2-2-0.2c-1.1,0-1.8,0.2-1.8,0.3c0,0.2,1.7,0.3,3.9,0.9l-1.5,0.7l-1.9,1.2
		c-1,0.8-1.5,1.4-1.4,1.5c0.2,0.2,2.6-1.6,6.1-2.7l0.3-0.1l0.2,0.1c3.1,1.2,5.1,3,5.3,2.8c0.1-0.1-0.3-0.7-1.1-1.5
		c-0.8-0.7-1.7-1.3-2.7-1.8c2.5-0.5,4.4-0.5,4.5-0.7C126.2,279.6,125.5,279.4,124.2,279.3z"/>
	<path class="st0" d="M120.3,292.3c-1.6,0.3-3.2,0.6-4.8,0.6c-1.1,0-2.3-0.3-3.3-0.7c-0.7-0.3-0.8-1.3-0.3-1.8c1.1-1,2.5-1.7,4-1.9
		c1.5-0.2,3,0.1,4.4,0.8c0.5,0.3,1,0.6,1.2,1.1c0.3,0.5,0.3,1.2-0.1,1.6L120.3,292.3z"/>
	<path class="st4" d="M174.7,232.4c-6.1,2.3-12.6,3.3-19.1,2.9c-2.2-0.2-4.3-0.8-6.3-1.8l-0.1-0.2l-0.5-4.4l-0.7-4.3l-1.2-8.8
		l-0.6-4.4l-0.5-4.4l-0.4-4.4l-0.3-4.4l0.1-0.1h0.1l0.8,4.4l0.7,4.4l0.6,4.4l0.5,4.4l0.9,8.8l0.5,4.4l0.6,4.4l-0.1-0.2
		c1.9,0.9,4,1.4,6.2,1.6c2.1,0.2,4.3,0.2,6.4,0C166.5,234.4,170.6,233.6,174.7,232.4z M171.3,184.1l0.3,2l0.6,5.3l0.8,7.6l0.9,8.7
		c0.7,5.9,1.5,11.8,1.8,16.3l0.2,5.4l-0.1,2.1c0,0,0,0.1-0.1,0l-0.2-2l-0.6-5.4l-1.4-16.3l-1-8.7l-0.8-7.6l-0.4-5.4V184.1z
		 M155.8,89.2l0.8,0.2l2,0.4l6.2,1.3c2.2,0.5,4.5,1.2,6,1.9c0.7,0.3,1.3,0.7,1.8,1.2l0.3,0.5l0.1,0.2l-0.1-0.1l-0.4-0.4l-0.8-0.4
		l-1.1-0.4l-2.8-0.8l-3.3-0.8c-2.7-0.6-5.4-1.5-8-2.5L155.8,89.2z"/>
	<path class="st4" d="M160.3,273c-0.1,0-0.1,0-0.1-0.1c0,0-0.1-0.1-0.1-0.1l-0.7-3.6c0-0.2-0.1-0.4,0.1-0.6c0.2-0.4,0.8-0.6,1.8-0.6
		l0.2,0.2l-0.2,0.2c-1.1,0-1.3,0.3-1.4,0.4v0.3l0.7,3.6C160.6,272.9,160.5,273,160.3,273z M131,89.7l-0.7,0.4l-2,0.8
		c-1.7,0.6-4,1.1-6.3,1.6l-6.2,1.3c-0.8,0.2-1.5,0.5-1.9,0.8l-0.6,0.5l0.1-0.2l0.4-0.5c0.4-0.4,1-0.8,1.9-1.1c2-0.8,4.1-1.4,6.2-1.7
		l6.3-1.2l2.1-0.4L131,89.7z"/>
	<path class="st4" d="M142.6,84.5l0.9,0.2c0.5,0.1,1.3,0.2,2,0.1c0.7,0,1.4-0.2,2-0.3l0.9-0.3l-0.8,0.5l-0.9,0.3l-1.1,0.2l-1.1-0.1
		l-0.9-0.2l-0.6-0.3L142.6,84.5C142.6,84.6,142.6,84.6,142.6,84.5z"/>
	<path class="st2" d="M128.4,90.9c-0.3-0.9,4.3-3.5,4.1-3.2c-0.6,3.5-0.2,6.5,0.6,10.2c1.1,5.1-0.3,11-0.4,16.3
		c-0.7-4.9,0.1-10-1-14.8C130.7,95.4,129.6,94.5,128.4,90.9z"/>
	<path class="st3" d="M160.5,277.3c-0.4,3-1.6,4.9-1.3,8c0,0.4,0.3,0.8,0.6,1.1c0.8,0.7,5.4,2.8,5.9,4.4c0.7,2.3-1,6.5,7.1,7.8
		c2.2,0.2,6.3,0.2,9.6-0.7c5.9-1.7,3.8-9.4,3.8-9.4l-6.9-6.3l-1.4-6c-0.2-1-1.2-1.5-2.1-1.3c-3.2,0.8-8.4,1-13.4,0.9
		C161.4,275.8,160.6,276.5,160.5,277.3z"/>
	<path class="st2" d="M160.1,271.7c-1.6,2.9-1.5,7.6-1.1,10.9c0,0,5.8,2.6,6.5,4.9c0.7,2.3-1,6.5,7.1,7.8c0,0,4.7,0.3,8.8-0.4
		c4.1-0.8,6.8-4.5,3.5-9.1l-5.8-6.8l-2.3-6c-0.4-1-0.3-1.6-1.3-1.4c-2.7,0.7-6.1,1-10.1,0.9c-0.8,0-3.1-5.4-3.9-5.4
		c-1,0-1.7,0.5-1.7,1.4C159.9,269.6,160.4,271.1,160.1,271.7z"/>
	<path class="st3" d="M168.7,294c0.7,0.6,1.6,0.9,2.5,1c3,0.5,6,0.8,9,0.8c1.5,0,3.2-0.1,4.3-1.2c0.8-0.8,1.1-2.1,1.4-3.2
		c0.2-1,0.4-2,0.1-3c-0.4-1.2-1.6-2-2.8-2.5c-2.2-0.9-4.6-1.1-6.9-0.7c-2.3,0.4-4.5,1.4-6.3,2.9c-0.8,0.7-1.6,1.6-1.9,2.7
		C167.8,292,167.9,293.2,168.7,294z M180.7,283.1c0,0-2.6-3.7-2.7-4.7l-1.5-5.7l-1.1-6.9c-0.1-0.6-0.5-1.1-1-1.3
		c-3.2-1-7.1,0.9-10.4,1.7c-2,0.5-1.6,2.3-1.4,3l6.4,11.7c0.4,1,1.2,2,0.5,2.8l-0.5,1.7C172.2,282.2,175.6,282,180.7,283.1z"/>
	<path class="st0" d="M173.3,290.6c1.6,0.2,3.2,0.5,4.8,0.3c1.1-0.1,2.3-0.4,3.3-0.9c0.7-0.4,0.8-1.3,0.2-1.8
		c-1-0.8-2.2-1.4-3.4-1.7c-1.7-0.3-3.6,0-5.1,0.9c-0.5,0.3-0.9,0.7-1.2,1.2c-0.2,0.5-0.2,1.2,0.2,1.6
		C172.5,290.5,172.9,290.5,173.3,290.6z"/>
	<path class="st4" d="M159.2,282.7c0,0.9,0.1,1.9,0.2,2.8c0.1,0.3,0.3,0.6,0.6,0.8l2.4,1.4c0.9,0.5,1.9,1.1,2.8,1.9l0.6,0.7
		c0.2,0.3,0.2,0.6,0.3,1l0.2,1.9c0.2,1.2,0.6,2.4,1.6,3.1c1,0.8,2.2,1.2,3.5,1.5l1,0.2l0.5,0.1h0.5l2,0.1c1.3,0,2.6,0,3.9-0.2
		c1.2-0.1,2.5-0.3,3.5-0.7s1.9-1.1,2.4-1.9c0.5-0.8,0.8-1.7,0.9-2.5l0.1-2.1l-0.2-1.3l-0.1-0.5c0-0.2,0.1-0.4,0.3-0.4
		s0.4,0.1,0.4,0.3l0.1,1.9l-0.1,2.2c-0.1,1.1-0.5,2.1-1.2,3c-0.7,0.9-1.5,1.5-2.5,1.9c-2.5,0.8-5.1,1.1-7.7,1.1h-2.6l-0.5-0.1
		l-1-0.2c-1.4-0.3-2.8-0.9-3.9-1.8c-0.6-0.5-1-1.1-1.3-1.7c-0.3-0.7-0.4-1.4-0.5-2l-0.1-1.9l-0.2-0.8l-0.5-0.6
		c-0.8-0.8-1.7-1.4-2.6-1.9l-2.4-1.5c-0.4-0.3-0.6-0.6-0.7-1l-0.1-1l-0.2-1.9l0.2-0.2L159.2,282.7z M160.6,272l-0.4,0.2l-0.3,0.3
		l-0.1,0.5l-0.5,3.6l-0.4,3.6v1.7l-0.1,0.1l-0.1-0.1l-0.2-1.7c-0.1-2.7,0.2-5.5,0.9-8.1l0.5-0.4l0.4-0.1h0.1c0.1,0,0.2,0,0.2,0.2
		C160.8,271.9,160.7,272,160.6,272z"/>
	<path class="st4" d="M159.6,282.8l0.4,0.2l1.2,0.6c1.2,0.6,2.4,1.3,3.5,2.2c0.3,0.3,0.6,0.5,0.8,0.9l0.3,0.6l0.1,0.6l0.1,1.9
		l0.2,1.3l0.1,0.5l-0.1,0.1h-0.1c0,0-0.4-0.7-0.6-1.8l-0.3-1.9l-0.1-0.5l-0.2-0.4l-0.7-0.7c-1.1-0.9-2.4-1.6-3.4-2.2l-1.1-0.8
		c-0.1-0.1-0.3-0.2-0.4-0.3v-0.3H159.6z M167.4,293.1l1.1,0.8l1.3,0.5l2.7,0.6c1.7,0.1,3.5,0,5.2-0.1l2.6-0.3l1.3-0.2l1.2-0.4
		c0.8-0.3,1.4-0.8,2-1.4c0.5-0.6,0.9-1.3,1.1-2.1c0.3-1.6-0.4-3.3-1.3-4.7l-5.7-6.9l-1.4-3.4c-0.4-1.2-0.9-2.3-1.2-3.5l0.1-0.1
		l0.1,0.1c0.3,1.2,0.8,2.3,1.3,3.5l1.5,3.4l5.8,6.8c0.5,0.7,1,1.5,1.2,2.4c0.3,0.9,0.4,1.8,0.2,2.7s-0.6,1.8-1.2,2.5
		c-0.6,0.7-1.4,1.2-2.2,1.6l-1.3,0.4l-1.3,0.2l-2.6,0.3h-5.3c-0.9-0.2-1.9-0.4-2.8-0.7l-1.3-0.6l-1.2-0.9v-0.3
		C167.2,293,167.4,293,167.4,293.1z"/>
	<path class="st4" d="M176.1,272.8l-0.4-3.4l-0.6-3.4c0-0.3-0.2-0.5-0.3-0.7l-0.3-0.2l-0.4-0.1l-1-0.2l-1-0.1h-2l-2,0.2
		c-1.3,0.2-2.7,0.5-4,1l-0.9,0.4c-0.2,0.1-0.5,0.3-0.6,0.6c-0.3,0.5-0.4,1.1-0.2,1.8c0.4,1,0.8,2.1,1.3,3c0.4,1,1.1,1.8,2,2.4
		c0.2,0.1,0.2,0.3,0.1,0.5c-0.1,0.2-0.3,0.2-0.5,0.1c-0.5-0.4-0.9-0.8-1.2-1.3l-0.9-1.4c-0.6-1-1-2-1.4-3.1
		c-0.2-0.7-0.2-1.6,0.3-2.3l0.9-0.9l1-0.5c1.3-0.6,2.7-0.9,4.1-1.2l2.1-0.3l2.2,0.1l1.1,0.2l1.1,0.3l0.5,0.2l0.5,0.4
		c0.3,0.3,0.4,0.7,0.4,1.2l0.4,3.5l0.2,1.7l0.2,1.7l-0.2,0.2L176.1,272.8z"/>
	<path class="st4" d="M167.9,274.7c-1.1,0.1-1.8,0.2-1.9,0c0-0.1,0.6-0.5,1.8-0.7l2-0.3c0.8,0,1.6,0,2.5,0.2l0.4,0.1l1-0.4l1.6-0.4
		c1.1-0.2,1.2,0,1.2,0.1c0,0.2-0.5,0.4-2.3,1.1l0.5,0.2c0.7,0.3,3,1.9,2.9,2c-0.1,0.1-2.5-0.8-3.2-1l-1.7-0.5l-0.9,0.4
		c-3,1.5-5.1,3.4-5.3,3.1c-0.1-0.1,0.3-0.7,1.2-1.5l1.6-1.3l1.6-1l-1.3-0.1H167.9z M170.7,278.7l2-0.2l1.8,0.1l1.5-0.7
		c0.6-0.2,0.8-0.3,1.3-0.3c1-0.1,1.6-0.1,1.7,0.1c0,0.2-1.1,0.4-2.9,1.3c0.5,0.1,2.3,1.2,2.8,1.5c1,0.6,1.5,1.2,1.4,1.3
		c-0.1,0.3-2.1-1.4-5.3-2l-0.3-0.1l-0.2,0.1c-2.6,1.5-4.1,3.6-4.3,3.4c-0.1-0.1,0.2-0.7,0.8-1.6c0.6-0.8,1.3-1.5,2.2-2.1
		c-2.3-0.2-4,0.1-4.1-0.2C169,279.2,169.6,278.9,170.7,278.7z M160.5,272.2c-0.1,0-0.1,0-0.1-0.1c0,0-0.1-0.1-0.1-0.1l-0.7-3.6
		c0-0.2-0.1-0.4,0.1-0.6c0.2-0.4,0.8-0.6,1.8-0.6l0.2,0.2l-0.2,0.2c-1.1,0-1.3,0.3-1.4,0.4v0.3l0.7,3.6
		C160.8,272.1,160.7,272.2,160.5,272.2C160.6,272.2,160.6,272.2,160.5,272.2z"/>
	<path class="st2" d="M151.7,181l0.1-1l0.2-2.9l0.8-10.3c0.3-4.2,0.7-9.2,0.9-14.5l0.3-8.2l0.1-4.2v-4.3c-0.1-5.7-0.4-11.4-0.8-16.7
		l-0.6-7.7c-0.2-2.4-0.3-4.8-0.2-6.9c0-4.4,1-8.8,2.8-12.9l0.5-0.9h0.1v0.1l-0.4,0.9c-0.4,0.9-0.7,1.8-0.9,2.7
		c-0.3,1.2-0.7,2.6-0.9,4.3c-0.5,4.2-0.5,8.4,0,12.6l0.5,7.7c0.1,5.6,0.3,11.1,0.4,16.7v8.5c0,5.3-0.2,10.6-0.6,15.9l-0.5,6.9
		c-0.3,4.3-0.8,7.8-1.1,10.3L152,180L151.7,181C151.8,181,151.8,181,151.7,181z"/>
	<path class="st4" d="M168.1,118.5l0.5,4.1v4.1c-0.1,2.8-0.4,5.5-0.6,8.2l-0.1,4.1c0,1.4,0.1,2.7,0.3,4.1l0.4,2
		c0.1,0.7,0.2,1.5-0.2,2.2c-0.3,0.7-0.7,1.2-0.8,1.8c-0.1,0.6-0.1,1.3,0.1,2l1.2,3.9c0.4,1.3,0.7,2.7,0.8,4.1l-0.1,2.1v2
		c0,1.4,0.1,2.7,0.3,4.1l1.1,8.2c0.4,2.7,0.7,5.5,0.7,8.3c0,0.2-0.2,0.4-0.4,0.4l-0.3-0.1l-4.2-3.4l-1.1-0.7l-1.2-0.5
		c-0.8-0.3-1.7-0.5-2.5-0.5h-1.3l-1.3,0.2l-2.5,0.9c-0.9,0.3-1.8,0.6-2.7,0.7l-2.7,0.1l-0.1-0.1v-0.1l2.7-0.4l2.5-0.8
		c0.8-0.4,1.6-0.8,2.5-1l1.4-0.3l1.4-0.1c0.9,0,1.9,0.2,2.8,0.5l1.3,0.5l1.2,0.7c1.5,1,2.9,2.3,4.3,3.4l-0.7,0.3
		c0-2.7-0.3-5.4-0.6-8.2l-0.9-8.2l-0.2-4.1l0.1-2.1l0.1-2c0-1.4-0.4-2.7-0.8-4s-1-2.6-1.3-4c-0.1-0.7-0.2-1.4-0.1-2.2
		c0.1-0.8,0.5-1.4,0.8-2c0.5-1.1-0.1-2.5-0.3-3.9c-0.3-1.4-0.4-2.8-0.4-4.2l0.1-4.2l0.7-8.2l0.2-4.1L168.1,118.5z"/>
	<path class="st2" d="M158.4,88.5c0.3-0.9-4.5-0.7-4.3-0.4c-0.2,3.8-0.8,5.3-1.6,9c-1.1,5.1,0.3,11,0.4,16.3c0.7-4.9-0.1-10,1-14.8
		C154.8,94.6,157.1,92.2,158.4,88.5z"/>
	<path class="st2" d="M136.9,30.2c0,0-8.8,0.8-15.6,3.3c-4.1,1.5-7.4,4.1-7.6,6.2c0,0-5-7-2-8.4c3-1.4,8.1-2.3,8.1-2.3l47.9-0.2
		c0,0,7.4,3.7,6.2,6l-2.7,4.7c-0.2-2.2-3.6-4.7-7.6-6.1c-5.1-1.6-10.3-2.6-15.6-3.1"/>
	<path class="st4" d="M148,30.2l4.1,0.3l4.2,0.6c1.5,0.3,3.1,0.6,4.7,1.1l4.5,1.6c1.4,0.7,2.6,1.4,3.6,2.2s1.6,1.6,1.9,2.3l0.3,0.8
		v0.3l-0.1-0.3l-0.3-0.8c-0.3-0.6-1-1.4-2-2.1s-2.2-1.5-3.6-2.1c-4.2-1.8-8.7-3-13.3-3.5L148,30.2z M136.9,30.2l-4,0.6
		c-4.5,0.7-9,1.9-13.3,3.6c-1.4,0.6-2.6,1.4-3.6,2.1c-1,0.8-1.6,1.5-2,2.1l-0.3,0.8l-0.1,0.3v-0.3l0.3-0.8c0.3-0.7,0.9-1.5,1.9-2.3
		c0.9-0.8,2.2-1.6,3.6-2.3s3-1.2,4.5-1.7c1.6-0.5,3.2-0.8,4.7-1.1l4.1-0.7L136.9,30.2z M153.6,4.4c1,0.2,2,0.4,3,0.4l2,0.6l1.1,0.5
		l1.2,0.6l1.2,0.7l1.1,0.9l1.1,1l1.1,1.1l1,1.2l0.9,1.2l1.5,2.7L170,18l0.8,2.7l0.3,1.3l0.2,1.2l0.1,2.1v1.6l-0.1,1.4l-0.2,0.1
		l-0.1-0.1l-0.1-1.4l-0.1-1.6c-0.1-0.6,0-1.3-0.2-2.1l-0.2-1.2l-0.3-1.2l-0.8-2.6c-0.4-0.9-0.7-1.8-1.2-2.6c-0.4-0.9-1-1.7-1.5-2.6
		l-0.9-1.2l-1-1.1l-1-1.1l-1.1-1l-1.1-0.9L160.4,7l-1.1-0.6l-1.1-0.5l-2-0.6L154.6,5l-1.4-0.1c-0.1,0-0.1,0-0.1-0.1
		c0,0-0.1-0.1-0.1-0.1L153.6,4.4z"/>
	<path class="st4" d="M158.6,10l0.1,7.8l0.1,3.9l-0.2,1.1c-0.1,0.3-0.3,0.7-0.6,0.9c-0.5,0.6-1.2,0.9-2,0.9c-0.9,0-1.7-0.4-2.2-1.1
		c-0.3-0.3-0.4-0.8-0.5-1.2V9.8l0.1-2.3l0.1-0.1l0.1,0.1l0.1,2.3v2.3l0.1,4.5l0.1,4.5l0.1,1.1l0.4,0.9c0.4,0.5,1,0.8,1.6,0.8
		c0.3,0,0.6,0,0.8-0.1c0.3-0.1,0.5-0.3,0.7-0.5l0.5-0.7l0.2-0.8v-3.9l0.1-7.8l0.2-0.2L158.6,10z M131.2,4.9L129.8,5l-1.6,0.3
		l-1.9,0.6l-1.1,0.5L124.1,7L123,7.7l-1.1,0.9l-1,1l-1,1.1c-0.3,0.4-0.7,0.7-0.9,1.2l-0.9,1.2c-0.5,0.8-1.1,1.7-1.5,2.6l-1.2,2.7
		l-0.8,2.6l-0.3,1.2l-0.2,1.2l-0.2,2.1l-0.1,1.6l-0.1,1.4l-0.2,0.1l-0.1-0.1l-0.1-1.4c0-0.4-0.1-1,0-1.6l0.1-2.1l0.2-1.2l0.3-1.3
		l0.7-2.7c0.4-0.9,0.7-1.9,1.2-2.8l1.5-2.7l0.9-1.3l1-1.2l1.1-1.1l1.1-1l1.1-0.9l1.2-0.7l1.1-0.6l1.1-0.5l2-0.6l1.6-0.3l1.4-0.1
		l0.2,0.2C131.3,4.8,131.3,4.8,131.2,4.9z"/>
	<path class="st4" d="M126.5,10.2l0.1,7.8l0.1,3.9l0.2,0.8l0.5,0.7c0.4,0.4,0.9,0.6,1.5,0.6c0.3,0,0.6-0.1,0.9-0.3
		c0.3-0.2,0.5-0.4,0.7-0.6l0.4-0.9V9.8l0.1-2.3l0.1-0.1l0.1,0.1l0.1,2.3v2.3l0.1,4.5l0.1,4.5v1.2c-0.1,0.4-0.2,0.8-0.5,1.2
		c-0.5,0.7-1.3,1.2-2.2,1.2c-0.8,0-1.5-0.3-2-0.9l-0.6-0.9l-0.2-1.1v-3.9l0.1-7.8l0.2-0.2L126.5,10.2z M132.8,78.9l0.3,1.6l0.2,3.6
		l-0.1,1.9l-0.4,1.7l-0.3,0.6l-0.4,0.4l-0.4,0.1l-0.1-0.1h0.1l0.2-0.1l0.2-0.4l0.1-0.6l0.1-3.5l0.1-3.5L132.8,78.9z M153.2,90.3
		l-0.1-0.4l-0.2-1.1l-0.4-3.4c0-1.2,0-2.5,0.2-3.4l0.3-1.5l0.1,0.4l0.1,1.1l0.2,3.3v3.4L153.2,90.3z"/>
	<path class="st4" d="M131,5.8l-0.1-0.9v-1c0.1-0.7,0.5-1.3,1-1.7s1.2-0.7,1.9-0.7h1.8l7.1,0.1h8.6c0.6,0.1,1.2,0.4,1.7,0.8
		c0.5,0.4,0.8,1,0.9,1.6v0.9l-0.1,0.9l-0.1,0.1l-0.1-0.1c-0.1-0.6,0-1.2-0.2-1.7c-0.1-0.5-0.4-1-0.8-1.3c-0.4-0.4-0.9-0.6-1.4-0.6
		h-8.5l-7.1,0.1h-1.8c-0.5,0-1,0.2-1.4,0.5c-0.4,0.3-0.7,0.8-0.8,1.3l-0.2,1.7l-0.2,0.1C131.1,6,131,5.9,131,5.8z"/>
	<path class="st3" d="M176.6,32.7c-0.4-4.6-5.8-4.6-9-4.7c-3-0.1-23.4,0.1-25.2,0.1l-25.2,0.1c-3.2,0.2-8.6,0.2-9,4.8
		c-0.4,4.6,5.4,7.5,5.4,7.5s-1.7-4.6,1.6-7c3.3-2.5,8.4-2.9,11.7-3.1l15.2-0.1h0.2c1.9,0,12.2-0.2,15.2-0.1c3.3,0.1,8.4,0.5,11.8,3
		c3.3,2.4,1.7,7,1.7,7S177.1,37.3,176.6,32.7z"/>
	<path class="st4" d="M143,30l8.7-0.1h6.6l2.2,0.1c2.9,0.1,5.8,0.9,8.4,2.3l0.9,0.6l0.8,0.8c0.5,0.6,0.9,1.3,1.1,2
		c0.2,0.7,0.3,1.5,0.2,2.3c0,0.8-0.2,1.5-0.4,2.2l-0.5-0.4c1.6-0.9,3.1-2.1,4.1-3.6c0.5-0.7,0.9-1.6,1-2.5v-1.3
		c-0.1-0.4-0.2-0.9-0.4-1.3c-0.4-0.8-1.1-1.4-1.9-1.8c-0.8-0.4-1.7-0.6-2.6-0.8l-2.8-0.3h-20.1l-5.7-0.1l-0.1-0.1l0.1-0.1l5.7-0.1
		l5.7-0.1l11.5-0.1h2.9l2.9,0.2c1,0.1,1.9,0.4,2.8,0.8c0.9,0.5,1.7,1.2,2.2,2.1c0.2,0.5,0.4,1,0.4,1.5l0.1,0.4v1.2
		c-0.1,1-0.5,2-1.1,2.8l-2,2.2c-0.8,0.6-1.6,1.2-2.4,1.6c-0.2,0.1-0.4,0-0.5-0.1V40c0.4-1.3,0.5-2.8,0.2-4.1
		c-0.2-0.7-0.5-1.3-0.9-1.8l-0.7-0.7l-0.9-0.6c-2.4-1.5-5.4-2-8.2-2.3l-2.2-0.2h-15.3c-0.1,0-0.1,0-0.1-0.1c0,0-0.1-0.1-0.1-0.1
		L143,30z"/>
	<path class="st4" d="M142.3,28.2l-23,0.2l-2.9,0.1c-1,0.1-1.9,0.1-2.8,0.3c-0.9,0.2-1.8,0.4-2.6,0.8s-1.5,1-1.9,1.8
		c-0.4,0.8-0.5,1.7-0.4,2.6c0.1,0.8,0.5,1.7,1,2.5c1,1.5,2.6,2.7,4.2,3.6l-0.5,0.4c-0.2-0.8-0.4-1.5-0.4-2.3c0-0.8,0-1.5,0.2-2.3
		c0.2-0.8,0.6-1.5,1.1-2.1l0.9-0.8l0.9-0.6c2.7-1.3,5.6-2.1,8.6-2.3l2.2-0.1h6.6c3,0,6,0.1,9,0.2l-0.1,0.1l-8.9,0.2h-6.6l-2.2,0.2
		c-1.5,0.1-2.9,0.4-4.3,0.7c-1.4,0.4-2.8,0.8-4,1.6l-0.9,0.6l-0.7,0.7c-0.4,0.5-0.8,1.1-1,1.8c-0.4,1.3-0.2,2.8,0.2,4.1
		c0.1,0.2,0,0.4-0.2,0.4h-0.3L111,39c-0.8-0.6-1.5-1.3-2-2.2c-0.6-0.8-1-1.8-1.1-2.8c-0.1-1,0.1-2.1,0.5-3c0.5-0.9,1.3-1.6,2.2-2.1
		c0.9-0.5,1.9-0.7,2.8-0.8l2.9-0.3h25.9l0.2,0.2C142.5,28.2,142.4,28.2,142.3,28.2z"/>
	<path class="st4" d="M162.1,41.8c-2.4,0-7.7-1-11.1,0.7v-0.2C153.3,39.2,158,39.3,162.1,41.8z M136.6,42.3v0.2l-0.1,0.4
		c-0.1,0.4-0.5,0.8-1,1.3l-0.9,0.6c-0.3,0.2-0.6,0.3-1,0.4l-2.3,0.4c-1.6,0.2-3.1,0.2-4.3,0.1l-1.9-0.3l-0.1-0.1l0.1-0.1L127,45
		l4-0.9l2-0.8l0.9-0.3l0.8-0.2l1.2-0.4l0.5-0.2C136.5,42.1,136.6,42.1,136.6,42.3C136.6,42.2,136.6,42.2,136.6,42.3z M143.1,75.3
		l0.2-0.1l0.4-0.3c0.9-0.5,1.8-0.2,2.8-0.1L147,75l0.2,0.1l-2,0.1C144.1,75.4,143.1,75.4,143.1,75.3z M139,73.7
		c2.6,0.4,8.4-4,9.7-0.2l0.2,0.4V74l-0.3-0.2c-2.8-1.6-6.7,1.1-9.5,0.1L139,73.7C138.9,73.8,138.9,73.7,139,73.7z"/>
	<path class="st6" d="M132.5,63.1c-5.9,0-10.1-3.9-10.1-9.3l-0.3-5.5l0.1-0.4l0.4-0.2l18.3-0.5l0.4,0.2l0.2,0.4v7.5
		C141.6,59.6,137.5,63.1,132.5,63.1z M123.3,48.9l0.3,4.9c0,4.7,3.8,8.2,9,8.2c4.4,0,7.9-3,7.9-6.7v-6.9L123.3,48.9z M155.8,63.1
		c-5,0-9-3.5-9-7.8v-7.5l0.2-0.4l0.4-0.2l18.3,0.5l0.4,0.2c0.1,0.1,0.2,0.3,0.1,0.4l-0.3,5.5C165.9,59.2,161.6,63.1,155.8,63.1z
		 M147.9,48.4v6.9c0,3.7,3.5,6.7,7.9,6.7c5.2,0,9-3.4,9-8.1l0.3-4.9L147.9,48.4z"/>
	<path class="st6" d="M141,51.1c0,0,0.7-2.4,3.1-2.4c2.6,0,3.1,2.7,3.1,2.7v-3.7H141V51.1z"/>
	<path class="st6" d="M147.3,51.9c-0.2,0-0.4-0.2-0.5-0.4c0-0.1-0.5-2.3-2.7-2.3c-2,0-2.7,2-2.7,2c-0.1,0.2-0.3,0.4-0.5,0.3
		c-0.2,0-0.4-0.2-0.4-0.5v-3.4c0-0.3,0.2-0.5,0.5-0.5h6.3c0.3,0,0.5,0.2,0.5,0.5v3.7C147.8,51.6,147.6,51.8,147.3,51.9z M144.1,48.2
		c1.2,0,2.1,0.5,2.7,1.2v-1.2h-5.3v1.2C142.1,48.7,143,48.2,144.1,48.2z M122.6,48.8l-2.8-1.4l3.1,0.5c0.3,0,0.4,0.3,0.4,0.6
		C123.3,48.8,123,48.9,122.6,48.8L122.6,48.8z M165.4,47.9l2.6-0.7l-2.2,1.5c-0.2,0.2-0.5,0.1-0.7-0.1c-0.2-0.2-0.1-0.5,0.1-0.7
		H165.4z"/>
	<path class="st4" d="M143.1,67.3c0,0,0.1-0.4,0.5-0.8c0.4-0.4,1.1-0.8,1.8-1l0.5-0.1h0.5v-1.1L147,65l0.1,0.2l0.1,0.4
		c0,0.3-0.2,0.6-0.5,0.8l-0.4,0.1l-0.2,0.1l-0.5,0.1L143.1,67.3z"/>
	<path class="st3" d="M145.2,51.2c-0.1,0-0.6,7.4,0.7,11l0.3,0.9"/>
	<path class="st4" d="M145.2,51.2l0.1,0.5l0.1,1.4c0.3,2.7,0.5,5.4,0.6,8.1l0.2,1.3l0.1,0.5l-0.3-0.5l-0.6-1.3
		c-0.8-2.7-1-5.5-0.6-8.3l0.3-1.4L145.2,51.2z M130.7,54.7c0.1,1.4,1.1,2.4,2.2,2.3c1.1-0.1,1.9-1.3,1.8-2.7
		c-0.1-1.4-1.1-2.4-2.2-2.3C131.3,52.1,130.5,53.3,130.7,54.7z"/>
	<path class="st4" d="M128.8,54.3v0.3l0.1,0.8c0.1,0.6,0.5,1.6,1.3,2.4c0.4,0.4,0.9,0.7,1.5,0.8l0.4,0.1h0.5c0.4,0,0.7-0.1,1-0.3
		c0.6-0.3,1.2-0.8,1.6-1.5c0.4-0.7,0.7-1.4,0.7-2.3c0-0.8-0.1-1.6-0.4-2.4c-0.3-0.7-0.8-1.4-1.5-1.7c-0.6-0.4-1.4-0.6-2.1-0.5
		c-0.6,0.1-1.3,0.4-1.7,0.8c-0.7,0.6-1.2,1.5-1.4,2.4l-0.1,0.8L128.8,54.3z M127.8,54.3c0-0.1,0-0.3,0-0.3l0.2-0.9
		c0.2-0.8,0.7-1.9,1.9-2.7c0.6-0.4,1.3-0.7,2.1-0.8c0.8,0,1.6,0.1,2.3,0.6s1.3,1.1,1.7,1.9s0.6,1.7,0.5,2.6c0,0.9-0.2,1.8-0.7,2.6
		c-0.4,0.8-1.1,1.5-1.9,1.9c-0.4,0.2-0.8,0.4-1.3,0.4l-0.6,0.1l-0.7-0.1c-0.8-0.1-1.6-0.5-2.1-1c-0.9-0.8-1.4-1.8-1.6-3l-0.1-1
		C127.8,54.5,127.7,54.5,127.8,54.3z M157.6,54.7c-0.1,1.4-1.1,2.4-2.2,2.3c-1.1-0.1-1.9-1.3-1.8-2.7c0.1-1.4,1.1-2.4,2.2-2.3
		C157,52.1,157.8,53.3,157.6,54.7z"/>
	<path class="st4" d="M160.5,54.3v0.3l-0.1,1c-0.2,1.2-0.7,2.2-1.6,3c-0.5,0.5-1.3,0.9-2.1,1l-0.7,0.1l-0.6-0.1
		c-0.4-0.1-0.9-0.2-1.3-0.4c-0.8-0.4-1.5-1.1-1.9-1.9c-0.4-0.8-0.6-1.7-0.7-2.6c0-0.9,0.1-1.8,0.5-2.6c0.4-0.8,1-1.5,1.7-1.9
		c0.7-0.4,1.5-0.6,2.3-0.6c0.8,0.1,1.5,0.4,2.1,0.8c0.9,0.7,1.6,1.6,1.9,2.7l0.2,0.9L160.5,54.3z M159.5,54.4v-0.3l-0.1-0.8
		c-0.2-0.9-0.7-1.8-1.4-2.4c-0.5-0.4-1.1-0.7-1.7-0.8c-0.7-0.1-1.4,0-2.1,0.5c-0.6,0.4-1.2,1-1.5,1.7c-0.3,0.7-0.5,1.5-0.4,2.4
		c0.1,0.8,0.3,1.6,0.7,2.2c0.4,0.7,1,1.2,1.6,1.5c0.3,0.2,0.7,0.2,1,0.3h0.5l0.4-0.1c0.6-0.1,1.1-0.5,1.5-0.8
		c0.8-0.8,1.1-1.7,1.3-2.4l0.1-0.8L159.5,54.4z"/>
	<path class="st4" d="M133,92.6l0.8,0.3l2.2,0.8l1.5,0.4l1.7,0.3l1.8,0.2l1.9,0.1l1.9-0.1l1.8-0.2c0.6-0.1,1.1-0.2,1.7-0.3l1.5-0.4
		L152,93l0.8-0.3l-0.8,0.5l-0.9,0.5l-1.2,0.6c-0.9,0.4-2,0.8-3.2,1c-0.6,0.1-1.2,0.3-1.9,0.3l-2,0.1l-2-0.1c-0.7,0-1.3-0.2-1.9-0.3
		l-1.7-0.5l-1.5-0.6l-1.2-0.6l-0.9-0.5L133,92.6z"/>
	<g>
		<path class="st3" d="M207.3,110.3l19.1-11l0.2,6.2c0.3,10.3-5.1,19.9-13.9,25c-8.7,5-19.5,5-28.1-0.1l-3.6-2.1l-82.3,47.5
			c-3,1.7-6.6,2.2-10,1.3c-7-1.9-11.2-9.1-9.3-16.1c0.9-3.4,3.1-6.3,6.1-8l82.3-47.5l0-4.2c-0.1-10.1,5.2-19.4,14-24.4
			c8.9-5.1,19.9-5,28.6,0.4l5.3,3.3l-19.1,11l-4,14.8L207.3,110.3z"/>
		<path class="st4" d="M92,178.1c-1.2,0-2.4-0.2-3.6-0.5c-7.3-2-11.6-9.5-9.7-16.8c0.9-3.5,3.2-6.5,6.4-8.3l82-47.4l0-3.9
			c-0.1-10.2,5.3-19.8,14.2-24.9c9.1-5.2,20.2-5.1,29.1,0.4l6,3.7l-19.6,11.3l-3.8,14.1l14.1,3.8l19.6-11.3l0.2,7.1
			c0.3,10.5-5.1,20.2-14.2,25.5c-8.9,5.1-19.8,5.1-28.6-0.1l-3.4-2l-82,47.4C96.7,177.4,94.4,178.1,92,178.1z M195.6,73.6
			c-4.7,0-9.5,1.2-13.7,3.7c-8.5,4.9-13.8,14.1-13.7,24l0,4.5l-82.6,47.7c-2.9,1.7-5,4.4-5.9,7.7c-1.8,6.8,2.2,13.7,9,15.5
			c3.3,0.9,6.7,0.4,9.6-1.3l82.5-47.7l3.9,2.3c8.5,5,19.1,5.1,27.6,0.1c8.7-5.1,14-14.5,13.7-24.6l-0.2-5.4l-18.5,10.7l-15.5-4.2
			l4.2-15.5l18.5-10.7l-4.6-2.8C205.6,74.9,200.6,73.6,195.6,73.6z"/>
	</g>
	<path class="st7" d="M182.8,81.3c7.1-4.1,15.7-4.2,22.9-0.3l-14.1,8.2l-5.6,21l21,5.6l14.1-8.2c-0.2,8.1-4.6,15.6-11.7,19.6
		c-7.3,4.2-16.3,4.2-23.6-0.1l-5.9-3.5l-84.6,48.8c-2,1.2-4.4,1.5-6.6,0.9c-4.6-1.2-7.4-6-6.1-10.6c0.6-2.2,2.1-4.1,4-5.3l84.6-48.8
		l-0.1-6.8C171,93.4,175.5,85.5,182.8,81.3z"/>
	<path class="st7" d="M91,152.1l73.6-43.6c0.2-0.1,0.5-0.1,0.7,0.2l0,0c0.1,0.2,0.1,0.5-0.2,0.7L91,152.1z"/>
	<path class="st7" d="M199.5,131c0.1-0.1,0.3-0.2,0.5-0.3c2.4-1.4,3.1-0.9,3.6,0.1c0.4,0.8-2.2,3.5-3.9,4.5
		c-2.7,0.3-3.9,0.1-4.9-0.9c-1.1,0-1.8-0.3-2.4-0.8l0,0c-0.4,0-0.7,0.1-1,0.1l0,0c-1.5,0.2-2.2,0.3-2.6,0c-0.3-0.2-0.6-0.6-0.9-1.3
		c-1-0.2-1.3-0.6-1.9-1.3l0,0c-0.2-0.3-0.5-0.6-0.8-0.9c0.3-2,0.9-4.2,1.9-4.2c1.2,0,1.9,0.5,1.5,3.3c0,0.2,0,0.3-0.1,0.5
		c-0.1,0.7-0.1,1-0.1,1.3c0.1,0.2,0.2,0.3,0.4,0.5l0,0c1.1-0.2,1.8-1.1,2.5-2.1c0.5-0.7,1.1-1.4,1.8-1.9c2.2-1.3,2.5-0.8,2.9,0.2
		l0,0l0,0c0,0.1,0.1,0.1,0.1,0.2c0.2,0.6-0.7,2.5-1.8,4c0.8-0.1,1-0.5,1.4-1.2c0.2-0.4,0.4-0.8,0.8-1.3c1.7-2.1,3.1-1.9,3.6-0.9
		C200.2,129,200,130,199.5,131z"/>
	<path class="st8" d="M199.7,129.6c-0.5-1-1.9-1.2-3.6,0.9c-0.4,0.5-0.6,0.9-0.8,1.3c-0.4,0.7-0.6,1.2-1.4,1.2
		c0.3-0.4,0.6-0.8,0.9-1.3c0.2-0.2,0.4-0.5,0.5-0.8c0.2-0.4,0.4-0.8,0.8-1.3c1.7-2.1,3.1-1.9,3.6-0.9
		C199.8,128.9,199.8,129.2,199.7,129.6z M199.6,130.9c-0.1,0.4-0.2,0.8-0.4,1.2c0.1-0.1,0.3-0.2,0.5-0.3c2.2-1.3,3-1,3.5-0.1
		c0.1-0.3,0.2-0.5,0.1-0.7C202.8,129.9,202,129.5,199.6,130.9C199.6,130.9,199.6,130.9,199.6,130.9z M185,130.6
		c0.3-1.7,0.9-3.5,1.7-3.4c0.9,0,1.5,0.3,1.6,1.5c0.1-2-0.5-2.4-1.6-2.4c-0.9,0-1.6,2.2-1.9,4.2C184.9,130.5,184.9,130.5,185,130.6z
		 M188.1,131.3c0.1,0.2,0.2,0.3,0.4,0.5l0,0l0,0c1.1-0.2,1.8-1.1,2.5-2.1c0.5-0.7,1.1-1.4,1.8-1.9c2.2-1.3,2.5-0.8,2.9,0.2l0,0v0
		c0,0.1,0.1,0.1,0.1,0.2c0.1,0.2,0,0.4-0.1,0.8c0,0,0,0,0-0.1l0,0l0,0c-0.4-0.9-0.6-1.5-2.9-0.2c-0.8,0.4-1.3,1.2-1.8,1.9
		c-0.7,0.9-1.3,1.8-2.5,2.1l0,0l0,0c-0.2-0.2-0.3-0.4-0.4-0.5C188,132,188,131.7,188.1,131.3z"/>
	<path class="st7" d="M90.2,173.7L90.2,173.7c0-0.9,0-1.8,0.2-2.6c0.6-2.7,3.3-1.8,2.8-0.7c-0.2,0.4-0.1,1.4-0.1,2.6
		c0,0.9,0.1,2,0,3c0.2,0,0.4,0,0.6,0c0.4-0.4,0.5-0.9,0.6-1.6c0.1-0.5,0.2-1.1,0.4-1.7c0.9-2.6,3.1-3.2,3.1-2c0,1.1-0.3,3.2-0.8,4.8
		c0.1-0.1,0.2-0.3,0.3-0.5c0.2-0.3,0.3-0.6,0.7-1.1c1.8-2.1,2.1-2,3.2-1.7l0,0c0.7,0.2-0.3,3.1-1.6,4.6c-2.4,1.7-3.8,2.2-4.8,1.9
		c-0.8,0.6-1.7,0.6-2.5-0.3c-1.2,1.4-2.9,0.9-4.4-0.3c-1.4,0.4-2.1-0.2-2.9-1.9c-0.4-1.9-0.5-4.3,0.4-4.6c1.1-0.4,1.9-0.1,2.5,2.6
		c0,0.2,0.1,0.3,0.1,0.5c0.1,0.7,0.2,1,0.4,1.2c0.1,0.1,0.3,0.2,0.5,0.4c0.2,0.1,0.4,0.2,0.6,0.4C90.1,175.9,90.1,174.8,90.2,173.7z
		"/>
	<path class="st8" d="M90.2,173.6L90.2,173.6c0,1.1,0,2.2-0.5,3c-0.3-0.2-0.5-0.3-0.6-0.4l0,0c-0.3-0.2-0.4-0.3-0.5-0.4
		c0-0.1-0.1-0.1-0.1-0.2c0.1,0.5,0.2,0.8,0.3,0.9c0.1,0.1,0.3,0.2,0.5,0.4l0,0c0.2,0.1,0.4,0.2,0.6,0.4c0.4-0.8,0.5-1.9,0.5-3l0,0
		c0-0.9,0-1.8,0.2-2.6c0.5-2,2-2,2.6-1.5c0.5-1.1-2.2-1.9-2.8,0.7C90.2,171.8,90.2,172.7,90.2,173.6z M93.4,175.9c0,0.3,0,0.5,0,0.8
		c0.2,0,0.4,0,0.6,0c0.4-0.4,0.5-0.9,0.6-1.6l0,0c0.1-0.5,0.2-1.1,0.4-1.7c0.8-2.1,2.3-2.9,2.9-2.5c0-0.1,0-0.2,0-0.3
		c0-1.2-2.2-0.6-3.1,2c-0.2,0.6-0.3,1.2-0.4,1.7l0,0c-0.1,0.7-0.3,1.3-0.6,1.6C93.6,175.9,93.5,175.9,93.4,175.9z M97.8,174.4
		c-0.1,0.6-0.3,1.2-0.4,1.8c0.1-0.1,0.2-0.3,0.3-0.5c0.2-0.3,0.3-0.6,0.7-1.1c1.8-2.1,2.1-2,3.2-1.7l0,0c0,0,0,0,0,0
		c0.1-0.4,0-0.7-0.2-0.8l0,0c-1.1-0.3-1.4-0.3-3.2,1.7C98,174,97.9,174.2,97.8,174.4z M85.3,176.2c0-0.1-0.1-0.1-0.1-0.2
		c-0.4-1.9-0.5-4.3,0.4-4.6c1.1-0.3,1.9-0.1,2.4,2.3c-0.5-1.7-1.3-1.9-2.2-1.6C85,172.5,85,174.4,85.3,176.2z"/>
</g>
</svg>
