<svg id="Layer_1" data-name="Layer 1" xmlns="http://www.w3.org/2000/svg" viewBox="0 0 301 301">
  <defs>
    <style>
      .cls-1, .cls-2, .cls-8 {
        fill: #7b838b;
      }

      .cls-2 {
        stroke: #444f5b;
      }

      .cls-3 {
        fill: #23303e;
      }

      .cls-4 {
        fill: #67707a;
      }

      .cls-5 {
        fill: #444f5b;
      }

      .cls-6 {
        fill: #58626d;
      }

      .cls-7 {
        fill: #ff7033;
      }

      .cls-8 {
        fill-rule: evenodd;
      }
    </style>
  </defs>
  <title>presto</title>
  <path class="cls-1" d="M168.906,222.7v6.9c.1,2.3,1.5,15,.6,26s-.9,13.4-1,15.9a4.217,4.217,0,0,1-2.6,4.1c-1.6.5-4.3-.8-5.2-2.3,0,0-4.3-15.1-5-21.1s-2.3-10.1-2.1-13.3c.2-3.3-.3-9.8-.4-13.9"/>
  <path class="cls-1" d="M116.406,222.1l-.5,6.9c-.2,2.3-2.5,14.6-1.6,25.6s1,13.4,1,15.9a4.3,4.3,0,0,0,2.7,4.1c1.7.6,4.4-.8,5.4-2.3,0,0,3.8-13.1,4.5-19.1s1.6-10.3,1.4-13.5c-.2-3.3,1.8-10.6,1.9-14.7"/>
  <path class="cls-2" d="M103.325,133.68c6.972,3.726-5.983,32.343-5.983,39.373l-8.336,1.507s-1.054-24.451,2.63-37.521C93.64,129.93,96.353,129.953,103.325,133.68Z"/>
  <path class="cls-3" d="M88.531,175.153l-.025-.572c-.01-.245-1.014-24.681,2.649-37.678.954-3.384,2.1-5.2,3.708-5.886,2.107-.894,4.889.187,8.7,2.222h0c4.964,2.653.978,15.654-2.539,27.125-1.706,5.566-3.18,10.372-3.18,12.689v.418ZM96.51,131.7a3.172,3.172,0,0,0-1.255.234c-1.306.557-2.274,2.172-3.137,5.238-3.309,11.738-2.761,33.031-2.634,36.79l7.371-1.332c.149-2.574,1.575-7.224,3.211-12.562,3.064-10,7.262-23.685,3.023-25.95h0C100.387,132.676,98.174,131.7,96.51,131.7Z"/>
  <path class="cls-4" d="M172.606,214.7c-1-7.4-4.3-42.9-4.3-42.9a80.514,80.514,0,0,0-1.2-8.4,1.691,1.691,0,0,0-1-1.08c.061-3.231-1.136-6.376-1.8-9.521a49.427,49.427,0,0,1-.4-13.3,288.712,288.712,0,0,1,6.9-45.2c-1.1-1.8-5.6-2.8-8.4-3.5l-7.9-1.8s-.432,1.188-1,2.858c.058-1.436.121-2.884.2-4.357-3.9-.3-7.955,5.126-11.855,5.726S133.106,90.3,129.806,88.1c-.365,1.233-.719,2.433-1.068,3.618a3.768,3.768,0,0,0-1.732-1.519c-2.2-.9-5.8.5-8,1.1a25.54,25.54,0,0,0-8,3.3c.058.257.107.509.165.765-.01,0-.019.006-.029.011a4,4,0,0,0-1.653,1.553,78.811,78.811,0,0,0-3.689,7.59c-.318.717-.637,1.439-.967,2.169-1.45,3.317-2.95,6.28-4.444,9.219l-.127.25c-1.453,2.858-2.9,5.7-4.3,8.847h0c-.106.24-.333.646-.614,1.151-.155.277-.327.585-.5.911a34.459,34.459,0,0,0-1.622,3.348,14.857,14.857,0,0,0-1.063,3.756,5.675,5.675,0,0,0,.21,2.59,3.457,3.457,0,0,1,.817-.473,16.928,16.928,0,0,1,3.844-.891h.019l.161-.018c1.7-.194,3.459-.394,5,.808a2.3,2.3,0,0,0,1.708.4l.389,0h.035l.036,0a.8.8,0,0,0,.593-.235,5.492,5.492,0,0,0,.743-.784,38.533,38.533,0,0,0,5-8.65c.114-.256.227-.51.341-.763a28.224,28.224,0,0,1,4.277-6.977c.9,6.953,1.564,13.961,2.07,21.227l.024.872c-.6,5.174-1.02,10.666-1.3,16.764a17.323,17.323,0,0,0-.526,4.865l.282,1.971c0,.053,0,.1-.005.157a1.746,1.746,0,0,1-1.077.772,65.316,65.316,0,0,0-.4,15.3c1.2-.1,2-1.3,3-2a3.664,3.664,0,0,1,1.186-.549c-.787,2.75-1.917,6.352-4.386,7.449-1.4,7.7-3.5,45.8-3.5,45.8,7.2,7.9,26.9.7,26.9.7,1.5-10.6,2.4-35.2,5.9-40l-.6,5,4.4,35.2c9.7,4.8,26.2-1.2,26.2-1.2A97.979,97.979,0,0,0,172.606,214.7Z"/>
  <g>
    <path class="cls-5" d="M171.706,95.7l-.3-.6c-1.4-2.2-3.5-2.4-5.8-3.6a143.5,143.5,0,0,0,2.088,14.254l-4.588,7.646.885,2.906a3.081,3.081,0,0,1-1.885.294,7.638,7.638,0,0,0,.6,2.7l.315.885a9.019,9.019,0,0,0-.715,4.016v10.7a18.37,18.37,0,0,1-.5,5.2v.1a.441.441,0,0,1,.4.6c-1.2,3.9-.4,8.5-.1,12.5l.5,3.6-1.1,15.5a5.135,5.135,0,0,1-.6,2.5,5.763,5.763,0,0,1-2.9,1.8,27.843,27.843,0,0,0-3.952,2.393c3.119-1.493,6.14-.937,8.342-1.087a8.3,8.3,0,0,0,.941.5c1.552.76,4.39,2.151,5.169,3.993.655,1.683.3-1.684-.215-6.657-.591-5.662-1.4-13.4-1.185-18.143a8.926,8.926,0,0,0-.308-1.644c-.081-.333-.156-.64-.192-.856l-.1-.1a1.4,1.4,0,0,1-.236-.963,2.151,2.151,0,0,0-.164-1.037,8.931,8.931,0,0,1-.215-6.725,5.755,5.755,0,0,0,.215-.875c0-.007-.006-.039-.017-.095-.141-.745-1.1-5.818-.083-16.5.085-1.143.062-2.357.038-3.643-.013-.728-.023-1.485-.019-2.259,4.01,13.2,6.624,21.87,6.624,21.87s8.892,3,11.168-2.585C184.748,123.772,175.921,107.353,171.706,95.7Zm-7.6,59.9,0-.017v.046Z"/>
    <path class="cls-5" d="M117.7,156.643c0-.741.007-1.428.007-2.043l-.095-16.493.195.114V128.1l0-.053c.1-2.685.206-5.562,1.4-7.847a.9.9,0,0,0-1-1.3h-.1c-.2.1-.5-.1-.5-.4a20.272,20.272,0,0,1,1.3-6.4.563.563,0,0,0-.9-.6c.537,1.637-2.65,2.768-1.436,26l.024.014a53.285,53.285,0,0,1-.988,8.086,5.755,5.755,0,0,0,.215.875,8.931,8.931,0,0,1-.215,6.725,2.151,2.151,0,0,0-.164,1.037,1.4,1.4,0,0,1-.236.963l-.1.1c-.05.3.1.35.25.4s.3.1.25.4c-1.4,10.1-3.3,30-1.5,26.2.866-1.733,2.977-2.977,4.258-3.733.642-.378,1.075-.634,1.042-.767C117.618,173.062,117.668,162.891,117.7,156.643Z"/>
    <path class="cls-5" d="M154.054,179.093a10.13,10.13,0,0,0-1.248.707A9.2,9.2,0,0,0,154.054,179.093Z"/>
    <path class="cls-5" d="M151.506,110.4a49.612,49.612,0,0,1-.319-8.877,24.26,24.26,0,0,1,.519-3.624c.9-4,3.2-6.4,4.5-10.1.3-.9-4.5-.7-4.3-.4-.2,3.8-.8,5.3-1.6,9-.726,3.369-.362,7.086,0,10.749.039,1.1.108,2.223.2,3.352l.6,7.7c.4,5.3.7,11,.8,16.7v4.3l-.1,4.2-.3,8.2c-.2,5.3-.6,10.3-.9,14.5l-.388,4.992c-3.939-.255-7.958-.9-11.812-1.493a5.422,5.422,0,0,1-2.4-.9c-.9-.7-5.1-6.7-5.7-12.2a74.65,74.65,0,0,1-.4-12.5l-.1-6.5h-.046l.046-4.6c.1-3.6.1-7.5.4-11.4l1-11.4.2-5.3a27.225,27.225,0,0,0-.084-3.511,20.542,20.542,0,0,0-.416-4.09,25.36,25.36,0,0,1-.6-10.2c.2-.3-4.4,2.3-4.1,3.2,1.2,3.6,2.3,4.5,3.3,8.5.966,4.214.469,8.658.806,13l-.506,9.606-.5,11.4-.048,4.8h-1.352l-.1,9.1a33.919,33.919,0,0,0,.281,5.73l-.081.971-.1,3.3c0,2.7.4,6.2.8,9.8l.4,5.2.4,4.6.5,3.2.3,1.2v-1.3l-.2-3.2-.071-.656a32.919,32.919,0,0,0,1.371,5.155,6,6,0,0,1,2.5-4.5,11.448,11.448,0,0,1,4.1-1.2c4.055-.64,8.153-1.341,12.092-2.263l-.292,3.764-.2,2.9-.1,1,.3-1,.4-2.9c.3-2.5.8-6,1.1-10.3l.5-6.9q.6-7.936.6-15.9v-8.5q-.189-8.351-.4-16.7Zm-21.7,62.8c0,.037,0,.083,0,.123l-.085-.784a3.254,3.254,0,0,0,.157.41C129.854,173.032,129.826,173.114,129.806,173.2Z"/>
  </g>
  <path class="cls-4" d="M104.376,106.484c.18-.4.353-.791.528-1.185l-5.76,11.958.671-1.324C101.352,112.909,102.891,109.881,104.376,106.484Z"/>
  <path class="cls-4" d="M105.336,104.329c-.142.322-.288.647-.432.97l4.154-8.624A79.5,79.5,0,0,0,105.336,104.329Z"/>
  <path class="cls-4" d="M95.51,124.8l3.634-7.543C97.917,119.677,96.7,122.128,95.51,124.8Z"/>
  <path class="cls-2" d="M134.806,77.7a20.174,20.174,0,0,0,9.4,1.7l6.7-.1s-.2,8.4-.7,9.8c-1.1,3-3.4,3.5-6.3,3.9-4.7.5-15.6,1.3-13.8-4.6,1-3.3.2-6.1.5-8.2l.4-3.8A19.331,19.331,0,0,1,134.806,77.7Z"/>
  <path class="cls-6" d="M139.506,83.3c-1-.4-1.9-1.1-2.9-1.6a4.047,4.047,0,0,0-3.2-.4,3.875,3.875,0,0,0-2.1,3.3c-.2,1.3-.9,1.9-.9,3.2a10.316,10.316,0,0,1,2.8-1.6,6.884,6.884,0,0,1,3.2-.3l5.1.2a11.244,11.244,0,0,0,4.1-.4c1.3-.5,3.6-1.8,3.7-3.2C146.506,83.3,142.306,84.4,139.506,83.3Z"/>
  <path class="cls-5" d="M130.206,87.9c.7-.9,1.4-1.4,1.6-2.5a3.7,3.7,0,0,1,1.8-2.7,2.809,2.809,0,0,1,2.2.1l2,1a10.179,10.179,0,0,0,10.5-.9l2.2,6.3a52.9,52.9,0,0,0,0-8.9c-2.5,1.5-5.9,3.4-8.7,3.1-4.1-.5-8.1-3.9-11.4-5.8C130.806,81.1,131.106,84.5,130.206,87.9Z"/>
  <path class="cls-4" d="M172.511,142.416c2.47-7.51,19.113-16.139,27.125-19.514l3.407,3.544-21.722,21.978C177.355,149.551,170.042,149.927,172.511,142.416Z"/>
  <path class="cls-3" d="M177.079,149.545a6.131,6.131,0,0,1-4.5-1.5c-1.211-1.261-1.4-3.208-.546-5.788h0c2.5-7.6,19.018-16.286,27.405-19.819l.316-.133,3.984,4.143-22.158,22.418-.126.036A17.2,17.2,0,0,1,177.079,149.545Zm-4.093-6.973c-.723,2.2-.616,3.81.317,4.784,1.55,1.613,5.114,1.349,7.755.622l21.287-21.537-2.831-2.944c-8.333,3.551-24.172,11.912-26.528,19.075Z"/>
  <path class="cls-6" d="M164.606,30.2a5.333,5.333,0,0,1,.2-2.5c.8-1.7,2.3-1.9,3.6-3.3a26.814,26.814,0,0,1,1.2,11.9c-1.5,9.6-3.7,14.1-5.3,14.5C163.906,45,165.106,36,164.606,30.2Zm-51.5-5.2c2-.6,4.1,1.3,4.5,3.4.5,2.1-.1,4.2-.5,6.3-.8,4.2,1.6,11.6,2.5,15.7-1.1.1-4.3-2.5-5.5-2.4-2.1-5-3-10.8-3.6-16.2-.1-1.3.2-1.5.5-2.8C111.406,27.7,111.906,25.4,113.106,25Z"/>
  <path class="cls-2" d="M163.906,50.2c.7-1.1,2-2.9,3.4-2.7,3.6.6,2.3,6.1,1.3,8.7-.4,1.1-2.9,8.1-4.8,6.6m-44.5-12.6c-.7-1.2-2.1-2.9-3.5-2.7-3.7.6-2.3,6.2-1.3,8.9.4,1.1,3,7.1,4.9,6.7.1,0,.9-.3.9-.8"/>
  <path class="cls-1" d="M162.706,29.2c3.1,4,2,18.3,2,18.3s-.2,10.8-2.4,19.1c-1.9,6.9-6.9,10.8-14.2,15.8-5,3.4-6.5,2.2-12.4-1-4.6-2.5-12.6-8.5-14.2-15.3-1.7-7-2.7-18.7-2.7-18.7a32.224,32.224,0,0,1,.3-16.2"/>
  <path class="cls-5" d="M164.106,31.7c-2.1-1.4-6.7-1.8-9.2-2.1-8.6-.8-17.3-1.4-26-.5a16.537,16.537,0,0,0-6.6,1.7c-2.4,1.3-5.9,1.4-6.3,6.1a14.226,14.226,0,0,0,2.2,8c.6-4.2,1.6-9,5.2-11.2,2.4-1.5,5.4-1.5,8.2-1.5l20.6.3a25.929,25.929,0,0,1,7.9.9c2.5.9,4.6,4.8,5.4,7.3C165.706,38,166.406,33.3,164.106,31.7Z"/>
  <path class="cls-5" d="M118.206,47.5c-2.5-5.6-4.7-14.3-3-20.2a8.3,8.3,0,0,0,3.3,3.4C116.606,35.3,117.706,42.5,118.206,47.5Zm45.6-18.1a33.993,33.993,0,0,1,.9,18c1.6-3,2.3-8.4,2-11.9-.3-3.4-.4-7.3,1.7-9.9l-3.5,2.5C164.406,28.5,163.906,28.8,163.806,29.4Z"/>
  <path class="cls-6" d="M115.206,51.7a1.747,1.747,0,0,1,1.9-1.5,1.438,1.438,0,0,1,1,1,3.194,3.194,0,0,1,.3,1.4l.4,3a16.074,16.074,0,0,1,.2,4.4l-2.6-4.2C115.706,54.5,114.906,53.1,115.206,51.7Zm53-.3a1.747,1.747,0,0,0-1.9-1.5,1.5,1.5,0,0,0-1,.9,3.194,3.194,0,0,0-.3,1.4l-.4,3a15.533,15.533,0,0,0-.2,4.3l2.6-4.1C167.706,54.1,168.506,52.8,168.206,51.4Z"/>
  <path class="cls-5" d="M139.206,54.7a9.889,9.889,0,0,1-18.6-.9,7.1,7.1,0,0,0,2.7,7.1,11.361,11.361,0,0,0,7.6,2.2,10.839,10.839,0,0,0,6.5-2.2A5.89,5.89,0,0,0,139.206,54.7Zm5.7,0a9.889,9.889,0,0,0,18.6-.9,7.1,7.1,0,0,1-2.7,7.1,11.4,11.4,0,0,1-7.6,2.2,10.839,10.839,0,0,1-6.5-2.2C145.106,59.4,144.106,56.8,144.906,54.7Z"/>
  <path class="cls-5" d="M159.306,235.5a5.848,5.848,0,0,0-3.6,1.5,6.455,6.455,0,0,0-1,4.1c.1,1.4.7,4.7.1,6-1.3-3.6-1.2-9.9-2-13.2,5.4.5,11.1,1,16.1-1.1a39.86,39.86,0,0,1,.9,9.7c-1.2-8.6-3.8-7.5-4.5-7.5A40.473,40.473,0,0,0,159.306,235.5Z"/>
  <path class="cls-5" d="M128.606,247a6.6,6.6,0,0,0-.1,1.4c.2-2.5,1.1-4.8,1.5-7.3a71.31,71.31,0,0,0,.7-10.3l-8.6-.3a12.377,12.377,0,0,0-4.7.5c-1.5.6-2.8,2-2.7,3.5,1,1.4,3,1.7,4.7,1.8l4.9.3a4.645,4.645,0,0,1,2.3.6,4.33,4.33,0,0,1,1.5,2.9A40.791,40.791,0,0,1,128.606,247Z"/>
  <path class="cls-3" d="M114.906,256.1a57.5,57.5,0,0,1-.1-16.8l.558-4.526a1.118,1.118,0,0,1-.54-.173l-.118.8-.4,3.9c-.2,1.3-.2,2.7-.3,4.1l-.1,4.3a77.9,77.9,0,0,0,.2,8.4l.6,7.3.5,5.2.2,2c.1.1.1,0,.1,0l.1-2-.1-5.2Z"/>
  <path class="cls-3" d="M157.806,258.7l-1.8-8.5-1.5-8.5-.5-4-.475-3.327a.9.9,0,0,1-.386.1l.461,3.226.4,4c.3,2.8.9,5.7,1.4,8.6q1.575,7.975,3.4,15.9l1.8,7.2.4.1.1-.2-1.6-7.2Z"/>
  <path class="cls-3" d="M130.689,234.619l-.483,3.281-.5,3.8c-.3,2.7-.8,5.5-1.4,8.3l-1.8,8.2-1.6,7.1-1.6,7c-.1.1,0,.2.1,0,.1.1.2,0,.2-.1l.5-1.9,1.3-5c.6-2,1.1-4.5,1.7-7.1l.9-4,.8-4.2c.5-2.8,1-5.6,1.3-8.3l.4-3.8.5-3.4,0-.009A.926.926,0,0,1,130.689,234.619Z"/>
  <path class="cls-3" d="M170.206,248.9v-2.3l-.1-2.2-.3-4.3-.2-4.1-.355-3.2a1.6,1.6,0,0,1-.232.158,2.292,2.292,0,0,1-.592.213l.379,2.727.4,4,.1,4.3v4.5l-.1,4.5-.1,4.3-.3,7.7-.2,5.4v2.2c.1.1.1,0,.1,0l.3-2,.5-5.4A136.628,136.628,0,0,0,170.206,248.9Z"/>
  <path class="cls-5" d="M147.206,231.4c.1.6,3.2,1.2,3,1.1-.7-.6-2.4-15.5-2.8-21.6-.4-7-.6-10.1-2.1-16.8a45.4,45.4,0,0,0-1,16C144.706,212.6,146.706,228.7,147.206,231.4Zm-9.6-.9c-.2-1.7,2.6-27.7,5.1-38.6-1.5,6.4-8.6,36.8-9.1,38.3l-.1.2a36.614,36.614,0,0,1-6.7,3.2,32.469,32.469,0,0,1-8.2,1.8c7.9.3,12.6-1.2,17.5-2.5a2.471,2.471,0,0,0,.9-.4l.9-.1Q137.768,231.448,137.606,230.5Z"/>
  <path class="cls-5" d="M148.306,229.6a16.752,16.752,0,0,0,6.8,5,13.678,13.678,0,0,1-6.6-1,2.261,2.261,0,0,1-1.2-.9l-.1-1.1.2-3m4.2-39.4a2.292,2.292,0,0,0-2.6.3,17.969,17.969,0,0,0-1.9,2,2.884,2.884,0,0,1-2.4,1.1c-1.5-.4.4-3.3,2.6-5.8-.6-.4-1.4.1-1.9.5q-2.072,1.771-4,3.7a1.908,1.908,0,0,0-.7,1.4l.3.9c2,3.7,2.4,6.9,3.4,10.9a20.815,20.815,0,0,1,3.1-10.8A23.389,23.389,0,0,1,151.606,189.2Z"/>
  <path class="cls-5" d="M148.506,196c.4.2.2.8,0,1.2a14.723,14.723,0,0,0-1.8,6.5,2.582,2.582,0,0,1-.7,2.1,43.378,43.378,0,0,1-.8-5.2c-.2-1.5-.3-3.3.8-4.3a5.222,5.222,0,0,1,2.1-.4Z"/>
  <path class="cls-4" d="M151.506,3.9h-.1a2.669,2.669,0,0,0-2.6-2.7h-17.1a2.6,2.6,0,0,0-1.875.8,2.608,2.608,0,0,0-.725,1.9c-9.7,0-17.5,11-17.5,21.1v2.7l57.5-.2V24.8C169.006,14.8,161.206,4,151.506,3.9Z"/>
  <path class="cls-5" d="M134.706,29.5a72.566,72.566,0,0,0-15.6,3.3c-4.1,1.5-7.4,4.1-7.6,6.2,0,0-5-7-2-8.4a41.138,41.138,0,0,1,8.1-2.3l47.9-.2s7.4,3.7,6.2,6l-2.7,4.7c-.2-2.2-3.6-4.7-7.6-6.1a72.97,72.97,0,0,0-15.6-3.1"/>
  <path class="cls-4" d="M174.406,32c-.4-4.6-5.8-4.6-9-4.7-3-.1-23.4.1-25.2.1l-25.2.1c-3.2.2-8.6.2-9,4.8s5.4,7.5,5.4,7.5-1.7-4.6,1.6-7c3.3-2.5,8.4-2.9,11.7-3.1l15.2-.1h.2c1.9,0,12.2-.2,15.2-.1,3.3.1,8.4.5,11.8,3,3.3,2.4,1.7,7,1.7,7S174.906,36.6,174.406,32Z"/>
  <path class="cls-5" d="M168.406,20c-6,3.6-17,5.9-29.4,5.9-11,0-20.8-1.9-27.1-4.7a25.788,25.788,0,0,0-.4,3.9v2.7l57.5-.2V24.9A19.983,19.983,0,0,0,168.406,20Z"/>
  <path class="cls-4" d="M174.406,32c-.4-4.6-5.8-4.6-9-4.7-3-.1-23.4.1-25.2.1l-25.2.1c-3.2.2-8.6.2-9,4.8s5.4,7.5,5.4,7.5-1.7-4.6,1.6-7c3.3-2.5,8.4-2.9,11.7-3.1l15.2-.1h.2c1.9,0,12.2-.2,15.2-.1,3.3.1,8.4.5,11.8,3,3.3,2.4,1.7,7,1.7,7S174.906,36.6,174.406,32Z"/>
  <path class="cls-5" d="M125.606,177.1a11.5,11.5,0,0,0-8.1-1.3h-.3c-.5.8-.3,1.9-.5,2.9-.3,1.7-1.9,1.2-2.7,2.7-.8,1.4-.6,5-.6,6.7-.3,6.4-1,12.5-1.2,18.9a147.746,147.746,0,0,0,2.6-14.8,7.6,7.6,0,0,1,.6-2.5c.2-5.1,4.2-8,15.2-9.7C128.806,179.2,127.306,178,125.606,177.1Z"/>
  <path class="cls-5" d="M121.006,174.9a5.135,5.135,0,0,1-.6-2.5l-1.1-15.5.5-3.6c.1-1.8.1-8.8-.2-16h-2.4a167.826,167.826,0,0,1,.6,18.3,67.5,67.5,0,0,0,1,20.7,1.6,1.6,0,0,0,.5,1c.3.2-.2.7.1.7,2.1.2,5-.4,8,.9-1.3-.8-2.7-1.8-3.6-2.2A5.258,5.258,0,0,1,121.006,174.9Z"/>
  <path class="cls-5" d="M120.406,155.2a6.3,6.3,0,0,0-2.1,4.1,6,6,0,0,0,1.4,4.3,12.212,12.212,0,0,1-.1-2.7,4.116,4.116,0,0,1,1.1-2.4,9.875,9.875,0,0,1,2.8-1.2,7,7,0,0,0,4.3-6.1C125.706,153.2,122.506,153.4,120.406,155.2Z"/>
  <path class="cls-3" d="M143.406,192.5a9.432,9.432,0,0,0-1,2.3l-.6,2.4-.8,5q-.756,5.029-1.2,10.1l-.9,10.1q-.5,5.167-1.3,10.3a52.716,52.716,0,0,1-13.8,2.9,28.193,28.193,0,0,1-7.1-.3,12,12,0,0,1-6.3-3.3l-.1-.2,1.2-25.2.4-6.3.5-6.3c.4-4.2.6-8.4,1.2-12.5,0,0,0-.1.1,0v.1l-.6,12.6-.7,12.6-1.5,25.1-.1-.2a11.005,11.005,0,0,0,6,3.2,26.7,26.7,0,0,0,6.9.4,51.236,51.236,0,0,0,13.6-2.9l-.2.2,1-10.1.9-10.1c.4-3.4.7-6.7,1.3-10.1l1-5,.7-2.4A13.77,13.77,0,0,1,143.406,192.5Z"/>
  <path class="cls-4" d="M127.806,277.2c.6,3,1.2,5.1,1,8.2a1.606,1.606,0,0,1-.5,1.1,14.914,14.914,0,0,0-2.4,4.9c-.6,2.3,1.3,6.5-6.7,8.2a32.1,32.1,0,0,1-9.7-.2c-5.9-1.4-4.2-9.2-4.2-9.2l5.5-7,1.1-6.1a1.743,1.743,0,0,1,2.1-1.4,49.6,49.6,0,0,0,12.5.3C127.306,275.9,127.606,276.3,127.806,277.2Z"/>
  <path class="cls-5" d="M127.406,273.7c.4,1.2,1.7,5.7,1.4,9a19.922,19.922,0,0,0-3,5.4c-.6,2.3,1.3,6.5-6.7,8.2a37.655,37.655,0,0,1-8.8,0c-4.1-.6-7-4.1-3.9-8.9l4.3-7.5,1.1-6.1a1.743,1.743,0,0,1,2.1-1.4,46.025,46.025,0,0,0,10.2.4c.8,0,1-.3,1.8-.3C126.806,272.3,127.106,272.9,127.406,273.7Z"/>
  <path class="cls-4" d="M122.906,294.6a4.405,4.405,0,0,1-2.5,1.1,44.331,44.331,0,0,1-8.9,1.2c-1.5.1-3.2,0-4.3-1a7.08,7.08,0,0,1-1.6-3.1,6.183,6.183,0,0,1-.3-3,5.074,5.074,0,0,1,2.6-2.6,13,13,0,0,1,13.3,1.5,6,6,0,0,1,2.1,2.6A3,3,0,0,1,122.906,294.6Zm-11.6-10,1.2-.8c.8-.5,2.4-1.6,2.4-2.5l-1.9-13.8a1.693,1.693,0,0,1,.9-1.4c3.1-1.3,8.2-1.5,11.4-.1.7.3,1.4,2.3,1.1,3.1l-4.6,12.1a2.858,2.858,0,0,0,.7,2.8l1.7,1.6C120.706,282.9,116.206,283,111.306,284.6Z"/>
  <path class="cls-3" d="M129.006,282.8l-.1,1.8v1a1.738,1.738,0,0,1-.6,1.1,9.13,9.13,0,0,0-1.3,2.2,9.78,9.78,0,0,0-.9,2.9,21.751,21.751,0,0,1-.2,3.5,5.1,5.1,0,0,1-2.4,3.2,11.009,11.009,0,0,1-3.8,1.4,18.433,18.433,0,0,1-4,.3,23.578,23.578,0,0,1-3.8-.2,13.71,13.71,0,0,1-3.5-.8,5.867,5.867,0,0,1-2.5-2.1,7.346,7.346,0,0,1-.9-2.6l-.2-2.1.1-1.8c0-.2.2-.3.4-.3s.3.2.3.4l-.1.4-.1,1.3a7.5,7.5,0,0,0,.2,2,7.842,7.842,0,0,0,.9,2.4,4.327,4.327,0,0,0,2.2,1.8,11.382,11.382,0,0,0,3.3.6l3.7.1a23.278,23.278,0,0,0,3.8-.4,14.762,14.762,0,0,0,3.5-1.3,4.5,4.5,0,0,0,2.1-2.6c.3-1.1.2-2.2.4-3.4a11.742,11.742,0,0,1,1.2-3,10.167,10.167,0,0,1,1.5-2.3,2.044,2.044,0,0,0,.5-.9v-2.7l.2-.2Zm-2.6-10.4.5.2a.664.664,0,0,1,.4.5l.2.6.3.7.2.8.4,1.8a27.279,27.279,0,0,1,.7,4.6v.4c0,.2-.1.4-.3.4s-.4-.1-.4-.3v-.2l.1-.4v-1.1a32.6,32.6,0,0,0-1.4-5l-.3-.8-.2-.7-.1-.6v-.4l-.1-.2h-.1l-.2-.2A.192.192,0,0,1,126.406,272.4Z"/>
  <path class="cls-3" d="M128.506,283.2l-.2.3-.5.9a28.712,28.712,0,0,0-1.4,3l-.2.8-.1.8-.1,1.6a3.891,3.891,0,0,1-.4,1.5c0,.1-.1.1-.1,0l-.1-.1.1-.4.1-1.1v-1.6l.1-.9.2-.9a10,10,0,0,1,1.5-3.1l.7-.9.3-.3c.1-.1.2,0,.3.1Zm-4.1,10.8-1.1.9-1.3.7a13.087,13.087,0,0,1-2.8.9,36.64,36.64,0,0,1-7.4.2l-1.9-.2a5.462,5.462,0,0,1-1.8-.6,5.715,5.715,0,0,1-1.6-1.1,3.553,3.553,0,0,1-1.1-1.6,4.333,4.333,0,0,1-.4-1.9,5.822,5.822,0,0,1,.3-1.9l.3-.9.4-.8.9-1.6,3.7-6.4v.1l.8-4.2.2-1,.2-1.1a1.831,1.831,0,0,1,1.7-1.3l.1.1-.1.1a1.4,1.4,0,0,0-1.4,1.2l-.2,1-.2,1.1-.7,4.2v.1l-3.6,6.4-.9,1.6a3.013,3.013,0,0,0-.4.8l-.3.8a4.954,4.954,0,0,0-.2,1.7,4.5,4.5,0,0,0,1.4,3.1l1.4,1,1.7.5,1.8.2a44.5,44.5,0,0,0,7.3-.1,13.817,13.817,0,0,0,2.7-.8l1.3-.6,1.1-.8h.3Z"/>
  <path class="cls-3" d="M113.606,272.6l-.1-1.3-.2-1.3-.6-2.6a1.8,1.8,0,0,1,.7-1.5l.7-.4.7-.3,1.4-.4,1.4-.2h2.8l2.8.4,1.4.4,1.4.5a3.4,3.4,0,0,1,.9,1.3,2.514,2.514,0,0,1,.2,1.5l-.2.7-.2.7-.6,1.3a12.984,12.984,0,0,0-1,2.5c0,.2-.2.3-.4.3s-.3-.2-.3-.4v-.1l1.2-2.6.5-1.3.2-.6.2-.6a5.028,5.028,0,0,0-.2-1.2,2.425,2.425,0,0,0-.6-1l-1.2-.4-1.3-.3-2.7-.2h-1.4l-1.3.1-2.6.4-1.2.4a1,1,0,0,0-.5.9v-.1l.4,2.6.2,1.3.2,1.3-.2.2C113.706,272.8,113.606,272.7,113.606,272.6Z"/>
  <path class="cls-3" d="M123.506,274.4c1.3-.1,2.1-.1,2.1-.3a4.246,4.246,0,0,0-2.1-.5h-2.3l-2.8.5-.5.1-1.2-.2-2.2-.2c-1.3,0-2,.1-2,.2,0,.2,1.6.4,3.7.9l-.5.2-2,1.2c-1.1.8-1.6,1.4-1.5,1.5s.8-.3,1.9-.9l2-1,1.8-.7,1.1.3c3.5,1.1,6.1,2.7,6.3,2.4.1-.1-.5-.7-1.5-1.4l-1.9-1.1a11.991,11.991,0,0,0-2-.8l1.4-.3A4.191,4.191,0,0,0,123.506,274.4Zm-1.5,4.2-2.2.1-1.9.4-1.8-.5a14.906,14.906,0,0,0-2-.2,3.283,3.283,0,0,0-1.8.3c0,.2,1.7.3,3.9.9l-1.5.7-1.9,1.2c-1,.8-1.5,1.4-1.4,1.5.2.2,2.6-1.6,6.1-2.7l.3-.1.2.1c3.1,1.2,5.1,3,5.3,2.8.1-.1-.3-.7-1.1-1.5a11,11,0,0,0-2.7-1.8c2.5-.5,4.4-.5,4.5-.7C124.006,278.9,123.306,278.7,122.006,278.6Z"/>
  <path class="cls-1" d="M118.106,291.6a26.257,26.257,0,0,1-4.8.6,9.283,9.283,0,0,1-3.3-.7,1.141,1.141,0,0,1-.3-1.8,7.2,7.2,0,0,1,8.4-1.1,2.585,2.585,0,0,1,1.2,1.1,1.347,1.347,0,0,1-.1,1.6Z"/>
  <path class="cls-3" d="M140.406,83.8l.9.2a6.381,6.381,0,0,0,2,.1,12,12,0,0,0,2-.3l.9-.3-.8.5-.9.3-1.1.2-1.1-.1-.9-.2-.6-.3-.4-.1Z"/>
  <path class="cls-4" d="M158.306,276.6c-.4,3-1.6,4.9-1.3,8a1.738,1.738,0,0,0,.6,1.1c.8.7,5.4,2.8,5.9,4.4.7,2.3-1,6.5,7.1,7.8a30.3,30.3,0,0,0,9.6-.7c5.9-1.7,3.8-9.4,3.8-9.4l-6.9-6.3-1.4-6a1.724,1.724,0,0,0-2.1-1.3c-3.2.8-8.4,1-13.4.9A1.865,1.865,0,0,0,158.306,276.6Z"/>
  <path class="cls-5" d="M157.906,271c-1.6,2.9-1.5,7.6-1.1,10.9,0,0,5.8,2.6,6.5,4.9s-1,6.5,7.1,7.8a44.31,44.31,0,0,0,8.8-.4c4.1-.8,6.8-4.5,3.5-9.1l-5.8-6.8-2.3-6c-.4-1-.3-1.6-1.3-1.4a37.437,37.437,0,0,1-10.1.9c-.8,0-3.1-5.4-3.9-5.4-1,0-1.7.5-1.7,1.4C157.706,268.9,158.206,270.4,157.906,271Z"/>
  <path class="cls-4" d="M166.506,293.3a4.589,4.589,0,0,0,2.5,1,54.734,54.734,0,0,0,9,.8c1.5,0,3.2-.1,4.3-1.2a7.139,7.139,0,0,0,1.4-3.2,6.1,6.1,0,0,0,.1-3,4.647,4.647,0,0,0-2.8-2.5,13,13,0,0,0-13.2,2.2,5.8,5.8,0,0,0-1.9,2.7A3.271,3.271,0,0,0,166.506,293.3Zm12-10.9s-2.6-3.7-2.7-4.7l-1.5-5.7-1.1-6.9a1.7,1.7,0,0,0-1-1.3c-3.2-1-7.1.9-10.4,1.7-2,.5-1.6,2.3-1.4,3l6.4,11.7c.4,1,1.2,2,.5,2.8l-.5,1.7C170.006,281.5,173.406,281.3,178.506,282.4Z"/>
  <path class="cls-1" d="M171.106,289.9a19.387,19.387,0,0,0,4.8.3,9.538,9.538,0,0,0,3.3-.9,1.083,1.083,0,0,0,.2-1.8,9,9,0,0,0-3.4-1.7,7.577,7.577,0,0,0-5.1.9,3.447,3.447,0,0,0-1.2,1.2,1.54,1.54,0,0,0,.2,1.6A2.843,2.843,0,0,0,171.106,289.9Z"/>
  <path class="cls-3" d="M157.006,282a25.462,25.462,0,0,0,.2,2.8,1.555,1.555,0,0,0,.6.8l2.4,1.4a15.4,15.4,0,0,1,2.8,1.9l.6.7a2.935,2.935,0,0,1,.3,1l.2,1.9a4.49,4.49,0,0,0,1.6,3.1,8.472,8.472,0,0,0,3.5,1.5l1,.2.5.1h.5l2,.1a25.487,25.487,0,0,0,3.9-.2,12.79,12.79,0,0,0,3.5-.7,5.117,5.117,0,0,0,2.4-1.9,6.315,6.315,0,0,0,.9-2.5l.1-2.1-.2-1.3-.1-.5c0-.2.1-.4.3-.4s.4.1.4.3l.1,1.9-.1,2.2a6,6,0,0,1-3.7,4.9,26.04,26.04,0,0,1-7.7,1.1h-2.6l-.5-.1-1-.2a8.709,8.709,0,0,1-3.9-1.8,5.155,5.155,0,0,1-1.3-1.7,8.353,8.353,0,0,1-.5-2l-.1-1.9-.2-.8-.5-.6a11.526,11.526,0,0,0-2.6-1.9l-2.4-1.5a1.691,1.691,0,0,1-.7-1l-.1-1-.2-1.9.2-.2Zm1.4-10.7-.4.2-.3.3-.1.5-.5,3.6-.4,3.6v1.7l-.1.1-.1-.1-.2-1.7a31.3,31.3,0,0,1,.9-8.1l.5-.4.4-.1h.1c.1,0,.2,0,.2.2C158.606,271.2,158.506,271.3,158.406,271.3Z"/>
  <path class="cls-3" d="M157.406,282.1l.4.2,1.2.6a18.039,18.039,0,0,1,3.5,2.2,3.45,3.45,0,0,1,.8.9l.3.6.1.6.1,1.9.2,1.3.1.5-.1.1h-.1a6.18,6.18,0,0,1-.6-1.8l-.3-1.9-.1-.5-.2-.4-.7-.7a27.652,27.652,0,0,0-3.4-2.2l-1.1-.8a2.981,2.981,0,0,1-.4-.3v-.3Zm7.8,10.3,1.1.8,1.3.5,2.7.6a45.129,45.129,0,0,0,5.2-.1l2.6-.3,1.3-.2,1.2-.4a5,5,0,0,0,3.1-3.5,6.776,6.776,0,0,0-1.3-4.7l-5.7-6.9-1.4-3.4c-.4-1.2-.9-2.3-1.2-3.5l.1-.1.1.1a24.815,24.815,0,0,0,1.3,3.5l1.5,3.4,5.8,6.8a6.774,6.774,0,0,1,1.2,2.4,4.993,4.993,0,0,1,.2,2.7,5.816,5.816,0,0,1-1.2,2.5,6.914,6.914,0,0,1-2.2,1.6l-1.3.4-1.3.2-2.6.3h-5.3a22.874,22.874,0,0,1-2.8-.7l-1.3-.6-1.2-.9v-.3C165.006,292.3,165.206,292.3,165.206,292.4Z"/>
  <path class="cls-3" d="M173.906,272.1l-.4-3.4-.6-3.4a1.493,1.493,0,0,0-.3-.7l-.3-.2-.4-.1-1-.2-1-.1h-2l-2,.2a19.521,19.521,0,0,0-4,1l-.9.4a1.167,1.167,0,0,0-.6.6,2.2,2.2,0,0,0-.2,1.8,27.115,27.115,0,0,0,1.3,3,5.994,5.994,0,0,0,2,2.4c.2.1.2.3.1.5s-.3.2-.5.1a4.894,4.894,0,0,1-1.2-1.3l-.9-1.4a17.3,17.3,0,0,1-1.4-3.1,2.712,2.712,0,0,1,.3-2.3l.9-.9,1-.5a19.31,19.31,0,0,1,4.1-1.2l2.1-.3,2.2.1,1.1.2,1.1.3.5.2.5.4a1.594,1.594,0,0,1,.4,1.2l.4,3.5.2,1.7.2,1.7-.2.2Z"/>
  <path class="cls-3" d="M165.706,274c-1.1.1-1.8.2-1.9,0,0-.1.6-.5,1.8-.7l2-.3a10.978,10.978,0,0,1,2.5.2l.4.1,1-.4,1.6-.4c1.1-.2,1.2,0,1.2.1,0,.2-.5.4-2.3,1.1l.5.2a13.958,13.958,0,0,1,2.9,2c-.1.1-2.5-.8-3.2-1l-1.7-.5-.9.4c-3,1.5-5.1,3.4-5.3,3.1-.1-.1.3-.7,1.2-1.5l1.6-1.3,1.6-1-1.3-.1Zm2.8,4,2-.2,1.8.1,1.5-.7a3.452,3.452,0,0,1,1.3-.3c1-.1,1.6-.1,1.7.1,0,.2-1.1.4-2.9,1.3a19.1,19.1,0,0,1,2.8,1.5c1,.6,1.5,1.2,1.4,1.3-.1.3-2.1-1.4-5.3-2l-.3-.1-.2.1c-2.6,1.5-4.1,3.6-4.3,3.4-.1-.1.2-.7.8-1.6a8,8,0,0,1,2.2-2.1c-2.3-.2-4,.1-4.1-.2C166.806,278.5,167.406,278.2,168.506,278Zm-10.2-6.5a.2.2,0,0,1-.2-.2l-.7-3.6c0-.2-.1-.4.1-.6q.3-.6,1.8-.6l.2.2-.2.2c-1.1,0-1.3.3-1.4.4v.3l.7,3.6a.265.265,0,0,1-.3.3Z"/>
  <g>
    <path class="cls-3" d="M127.806,178.9l-2.4-1-.7-.2-.7-.1a8.379,8.379,0,0,0-4.1.3l-1.3.5-1.2.6a44.668,44.668,0,0,0-3.784,2.863l.084-2.763.3-3.3.7-6.7.6-6.7.1-3.4v-1.7l-.1-1.7.1-.2-.2.2a36.486,36.486,0,0,1-.2,6.6c-.1,2.3-.4,4.5-.6,6.7l-.7,6.7c-.194,2.141-.386,4.283-.4,6.516-.033.028-.071.056-.1.084l.1.051v.149h.3a31.261,31.261,0,0,1,4.2-2.9l1.1-.5a11.273,11.273,0,0,1,3.7-.7l1.2.1.6.1.6.2,2.4.9a13.356,13.356,0,0,0,5.2.7h.1v-.1l-2.5-.5A11.275,11.275,0,0,1,127.806,178.9Z"/>
    <path class="cls-3" d="M168.806,174.8l-1.1-8.2a28.279,28.279,0,0,1-.3-4.1v-2l.1-2.1a18.606,18.606,0,0,0-.8-4.1l-1.2-3.9a4.584,4.584,0,0,1-.1-2,9.086,9.086,0,0,1,.8-1.8,3.359,3.359,0,0,0,.2-2.2l-.4-2a28.279,28.279,0,0,1-.3-4.1l.1-4.1c.2-2.7.5-5.4.6-8.2v-4.1l-.5-4.1.1,3.6-.2,4.1-.7,8.2-.1,4.2a20.012,20.012,0,0,0,.4,4.2c.2,1.4.8,2.8.3,3.9a5.989,5.989,0,0,0-.8,2,7.943,7.943,0,0,0,.1,2.2c.3,1.4.9,2.7,1.3,4a13.545,13.545,0,0,1,.8,4l-.1,2-.1,2.1.2,4.1.9,8.2c.267,2.493.522,4.907.578,7.313-1.162-.956-2.335-1.985-3.578-2.813l-1.2-.7-1.3-.5a9.185,9.185,0,0,0-2.8-.5l-1.4.1-1.4.3a13.01,13.01,0,0,0-2.5,1l-2.5.8-2.7.4v.1l.1.1,2.7-.1a13.429,13.429,0,0,0,2.7-.7l2.5-.9,1.3-.2h1.3a7.418,7.418,0,0,1,2.5.5l1.2.5,1.1.7,4.2,3.4.3.1a.43.43,0,0,0,.4-.4A56.9,56.9,0,0,0,168.806,174.8Z"/>
  </g>
  <path class="cls-5" d="M134.706,29.5a72.566,72.566,0,0,0-15.6,3.3c-4.1,1.5-7.4,4.1-7.6,6.2,0,0-5-7-2-8.4a41.138,41.138,0,0,1,8.1-2.3l47.9-.2s7.4,3.7,6.2,6l-2.7,4.7c-.2-2.2-3.6-4.7-7.6-6.1a72.97,72.97,0,0,0-15.6-3.1"/>
  <path class="cls-4" d="M174.406,32c-.4-4.6-5.8-4.6-9-4.7-3-.1-23.4.1-25.2.1l-25.2.1c-3.2.2-8.6.2-9,4.8s5.4,7.5,5.4,7.5-1.7-4.6,1.6-7c3.3-2.5,8.4-2.9,11.7-3.1l15.2-.1h.2c1.9,0,12.2-.2,15.2-.1,3.3.1,8.4.5,11.8,3,3.3,2.4,1.7,7,1.7,7S174.906,36.6,174.406,32Z"/>
  <path class="cls-3" d="M159.917,41.013c-2.363,0-7.657-1-11.111.686v-.2C151.068,38.5,155.85,38.6,159.917,41.013Zm-25.511.586v.2l-.1.4a3.475,3.475,0,0,1-1,1.3l-.9.6a2.986,2.986,0,0,1-1,.4l-2.3.4a21.167,21.167,0,0,1-4.3.1l-1.9-.3-.1-.1.1-.1,1.9-.2,4-.9,2-.8.9-.3.8-.2,1.2-.4.5-.2c.1-.1.2-.1.2.1Zm6.5,33,.2-.1.4-.3a4.544,4.544,0,0,1,2.8-.1l.5.2.2.1-2,.1A5.081,5.081,0,0,1,140.906,74.6ZM136.839,73c2.562.362,8.415-3.954,9.667-.2l.2.4v.1l-.3-.2c-2.811-1.561-6.711,1.1-9.467.1l-.1-.2C136.739,73.1,136.739,73,136.839,73Z"/>
  <path class="cls-7" d="M130.306,62.4c-5.9,0-10.1-3.9-10.1-9.3l-.3-5.5.1-.4.4-.2,18.3-.5.4.2.2.4v7.5C139.406,58.9,135.306,62.4,130.306,62.4Zm-9.2-14.2.3,4.9c0,4.7,3.8,8.2,9,8.2,4.4,0,7.9-3,7.9-6.7V47.7Zm32.5,14.2c-5,0-9-3.5-9-7.8V47.1l.2-.4.4-.2,18.3.5.4.2c.1.1.2.3.1.4l-.3,5.5C163.706,58.5,159.406,62.4,153.606,62.4Zm-7.9-14.7v6.9c0,3.7,3.5,6.7,7.9,6.7,5.2,0,9-3.4,9-8.1l.3-4.9Z"/>
  <path class="cls-7" d="M138.806,50.4a3.379,3.379,0,0,1,3.1-2.4,3.28,3.28,0,0,1,3.1,2.7V47h-6.2Z"/>
  <path class="cls-7" d="M145.106,51.2a.664.664,0,0,1-.5-.4,2.814,2.814,0,0,0-2.7-2.3,3.038,3.038,0,0,0-2.7,2c-.1.2-.3.4-.5.3a.458.458,0,0,1-.4-.5V46.9a.472.472,0,0,1,.5-.5h6.3a.472.472,0,0,1,.5.5v3.7A.634.634,0,0,1,145.106,51.2Zm-3.2-3.7a3.447,3.447,0,0,1,2.7,1.2V47.5h-5.3v1.2A3.388,3.388,0,0,1,141.906,47.5Zm-21.5.6-2.8-1.4,3.1.5c.3,0,.4.3.4.6s-.3.4-.6.4Zm42.8-.9,2.6-.7-2.2,1.5a.5.5,0,0,1-.6-.8Z"/>
  <path class="cls-3" d="M140.906,66.6a1.919,1.919,0,0,1,.5-.8,4.454,4.454,0,0,1,1.8-1l.5-.1h.5V63.6l.6.7.1.2.1.4a1.02,1.02,0,0,1-.5.8l-.4.1-.2.1-.5.1Z"/>
  <path class="cls-4" d="M143.006,50.5c-.1,0-.6,7.4.7,11l.3.9"/>
  <path class="cls-3" d="M143.006,50.5l.1.5.1,1.4q.386,4.043.6,8.1l.2,1.3.1.5-.3-.5-.6-1.3a18.815,18.815,0,0,1-.6-8.3l.3-1.4Zm-14.5,3.5a2.237,2.237,0,0,0,2.2,2.3,2.35,2.35,0,0,0,1.8-2.7,2.237,2.237,0,0,0-2.2-2.3A2.208,2.208,0,0,0,128.506,54Z"/>
  <path class="cls-3" d="M126.606,53.6v.3l.1.8a4.781,4.781,0,0,0,1.3,2.4,2.751,2.751,0,0,0,1.5.8l.4.1h.5a1.991,1.991,0,0,0,1-.3,3.814,3.814,0,0,0,1.6-1.5,4.45,4.45,0,0,0,.7-2.3,6.722,6.722,0,0,0-.4-2.4,3.661,3.661,0,0,0-3.6-2.2,3.365,3.365,0,0,0-1.7.8,4,4,0,0,0-1.4,2.4l-.1.8Zm-1,0a.756.756,0,0,0,0-.3l.2-.9a4.525,4.525,0,0,1,1.9-2.7,4.851,4.851,0,0,1,2.1-.8,3.8,3.8,0,0,1,2.3.6,5.194,5.194,0,0,1,1.7,1.9,4.678,4.678,0,0,1,.5,2.6,4.845,4.845,0,0,1-.7,2.6,4.36,4.36,0,0,1-1.9,1.9,2.836,2.836,0,0,1-1.3.4l-.6.1-.7-.1a3.768,3.768,0,0,1-2.1-1,5,5,0,0,1-1.6-3l-.1-1C125.606,53.8,125.554,53.757,125.606,53.6Zm29.8.4a2.237,2.237,0,0,1-2.2,2.3,2.35,2.35,0,0,1-1.8-2.7,2.237,2.237,0,0,1,2.2-2.3A2.208,2.208,0,0,1,155.406,54Z"/>
  <path class="cls-3" d="M158.306,53.6v.3l-.1,1a5.007,5.007,0,0,1-1.6,3,3.768,3.768,0,0,1-2.1,1l-.7.1-.6-.1a4.211,4.211,0,0,1-3.2-2.3,7.714,7.714,0,0,1-.7-2.6,5.753,5.753,0,0,1,.5-2.6,4.508,4.508,0,0,1,1.7-1.9,3.992,3.992,0,0,1,2.3-.6,4.851,4.851,0,0,1,2.1.8,4.991,4.991,0,0,1,1.9,2.7l.2.9Zm-1,.1v-.3l-.1-.8a4,4,0,0,0-1.4-2.4,2.992,2.992,0,0,0-1.7-.8,2.765,2.765,0,0,0-2.1.5,4.125,4.125,0,0,0-1.5,1.7,4.689,4.689,0,0,0-.4,2.4,5.187,5.187,0,0,0,.7,2.2,3.549,3.549,0,0,0,2.6,1.8h.5l.4-.1a3.606,3.606,0,0,0,1.5-.8,5.212,5.212,0,0,0,1.3-2.4l.1-.8Z"/>
  <path class="cls-4" d="M205.126,109.576,224.2,98.567l.185,6.225A27.914,27.914,0,0,1,182.3,129.665l-3.62-2.134-82.3,47.514A13.184,13.184,0,0,1,83.2,152.21L165.5,104.7l-.039-4.2a27.914,27.914,0,0,1,42.58-24l5.3,3.273L194.269,90.771,190.3,105.6Z"/>
  <path class="cls-3" d="M119.706,90.9a28.975,28.975,0,0,0-6.2,1.7,4.751,4.751,0,0,0-1.9,1.1l-.4.5-.1.2.6-.5a5.692,5.692,0,0,1,1.9-.8l6.2-1.3a57.382,57.382,0,0,0,6.3-1.6l2-.8.7-.4-.7.3-2.1.4Z"/>
  <path class="cls-3" d="M130.106,83.4l-.1,3.5-.1.6-.2.4-.2.1h-.1l.1.1.4-.1.4-.4.3-.6.4-1.7.1-1.9-.2-3.6-.213-1.138a40.334,40.334,0,0,0,4.813,3.137,39.194,39.194,0,0,0,4.9,2.3,5.032,5.032,0,0,0,1.5.3h.5l-1.8-.7c-1.2-.5-2.7-1.4-4.7-2.5a33.99,33.99,0,0,1-9.2-7.2l-2.6-3.5a12.32,12.32,0,0,1-1.9-3.8l-.7-4.2c-.3-2.8-.7-5.3-1.1-7.5l-1.1-5.3-.4-2h-.1l-.1.1v2l.223,4.006a3.793,3.793,0,0,0-.323-1.006l-.6-.8-.7-.5-.6-.1h-.2l.5.5.9,1.3.8,2,.1.2.1-.2.075-.45.025.45.5,3.6.837,3.627-.037.074-.6.4a.92.92,0,0,1-1-.1,3.178,3.178,0,0,1-1-1l-1.8-3.2-.8-1.9-.7-2-.5-2-.1-2a4.776,4.776,0,0,1,.4-1.8,2.591,2.591,0,0,1,1.1-1l.7-.2.6.1,1,.5.7.6-.4-.6-1-.7-.7-.2-.8.1a2.891,2.891,0,0,0-1.5,1.2,4.657,4.657,0,0,0-.6,2,17.2,17.2,0,0,0,1.2,6.4l.9,1.9a20.782,20.782,0,0,0,2.1,3.1,5.3,5.3,0,0,0,1.2,1,1.271,1.271,0,0,0,1.2,0l.482-.482.018.081,1.1,4.2a15.4,15.4,0,0,0,4.5,7.7l3.2,2.9c.446.364.884.7,1.322,1.034l-.322,1.367Z"/>
  <path class="cls-3" d="M174.506,31.5a4.191,4.191,0,0,0-.4-1.5,4.989,4.989,0,0,0-2.2-2.1,8.983,8.983,0,0,0-2.764-.795l.064-.905V24.6l-.1-2.1-.2-1.2-.3-1.3-.8-2.7-1.2-2.7-1.5-2.7-.9-1.2-1-1.2-1.1-1.1-1.1-1-1.1-.9-1.2-.7-1.2-.6-1.1-.5-2-.6a14.043,14.043,0,0,1-2.7-.343V3.3a2.6,2.6,0,0,0-.9-1.6,3,3,0,0,0-1.7-.8h-8.6l-7.1-.1h-1.8a3.157,3.157,0,0,0-1.9.7,2.7,2.7,0,0,0-1,1.7v.5l-1.4.1-1.6.3-2,.6-1.1.5-1.1.6-1.2.7-1.1.9-1.1,1-1.1,1.1-1,1.2-.9,1.3-1.5,2.7c-.5.9-.8,1.9-1.2,2.8l-.7,2.7-.3,1.3-.2,1.2-.1,2.1a8.477,8.477,0,0,0,0,1.6l.072,1a7.376,7.376,0,0,0-2.772.8,4.989,4.989,0,0,0-2.2,2.1,5.7,5.7,0,0,0,.6,5.8,6.994,6.994,0,0,0,2,2.2l2.5,1.6h.079l.421,1.6.5,1.8.5,1.6.8,2.3.3.9-.1-.9-.4-2.4-.6-3.4-.4-1.9-.3-2V37.49a9.969,9.969,0,0,1,1.7-1.69,20.107,20.107,0,0,1,3.6-2.1c.037-.014.074-.025.111-.039l-.011.038-.2,1.2-.2,1.4a30.2,30.2,0,0,0,.5,8.6l.5,1.8.2.7-.2-2.6-.1-2.6V39.3l.2-2.9.4-2.5.151-.68A66.322,66.322,0,0,1,130.706,30.1l2.259-.338,7.241-.163.1-.1q-4.5-.177-9-.2h-6.6l-2.2.1a21.987,21.987,0,0,0-8.6,2.3l-.9.6-.838.745-.014.022c-.008.015-.064.109-.072.124-.072.124-.141.249-.211.374-.06.106-.122.211-.183.316,0,0-.056.1-.072.129-.076.139-.149.281-.217.424a6.146,6.146,0,0,0-.369.97.741.741,0,0,1-.346.42l.128,1.023c0,.213-.006.428-.006.653a6.443,6.443,0,0,0,.2,1.468,11.411,11.411,0,0,1-3.5-3.168,6.566,6.566,0,0,1-1-2.5,4.624,4.624,0,0,1,.4-2.6,4.144,4.144,0,0,1,1.9-1.8,9.919,9.919,0,0,1,2.261-.723c-.009.029-.016.058-.025.087a2.178,2.178,0,0,1,.436-.121l.011-.057a26.034,26.034,0,0,1,2.717-.286l2.9-.1,23-.2c.1,0,.2,0,.1-.2l-.2-.2h-25.9l-2.372.245.072-.145-.188.157-.081.008.069-.964.1-1.6.2-2.1.2-1.2.3-1.2.8-2.6,1.2-2.7a22.012,22.012,0,0,1,1.5-2.6l.9-1.2a5.383,5.383,0,0,1,.9-1.2l1-1.1,1-1,1.1-.9,1.1-.7,1.1-.6,1.1-.5,1.9-.6,1.6-.3,1.1-.078.1.878c0,.1.1.2.2.1l.2-.1.2-1.7a2.223,2.223,0,0,1,.8-1.3,2.389,2.389,0,0,1,1.4-.5h1.8l7.1-.1h8.5a2,2,0,0,1,1.4.6,2.223,2.223,0,0,1,.8,1.3,1.69,1.69,0,0,1,.092.354L150.806,4a.2.2,0,0,0,.2.2l.338.024a7.135,7.135,0,0,0,.062.876l.1.1.1-.1.095-.85.705.05,1.6.3,2,.6,1.1.5,1.1.6,1.1.7,1.1.9,1.1,1,2,2.2.9,1.2c.5.9,1.1,1.7,1.5,2.6a20.619,20.619,0,0,1,1.2,2.6l.8,2.6.3,1.2.2,1.2a18.32,18.32,0,0,1,.2,2.1l.1,1.54-.3-.741-.6-1.1a1.579,1.579,0,0,0-.5-.6l-.2-.2s.1.1,0,.1l.4.7.4,1.1.4,1.5c.018.046.028.1.043.148l-2.143-.147h-2.9l-11.5.1-5.7.1-5.7.1-.1.1.1.1,5.7.1h20.1l1.646.176c.024,0,.048-.009.072-.006.069.008.138.02.207.029a1,1,0,0,1,.407.051l.034.012a4.548,4.548,0,0,0,.649.056,1,1,0,0,1,.381.067l.154.088a8.652,8.652,0,0,1,1.85.627,4.1,4.1,0,0,1,1.9,1.8,4.972,4.972,0,0,1,.4,1.3V33a6.013,6.013,0,0,1-1,2.5,11.292,11.292,0,0,1-3.375,3.149,5.858,5.858,0,0,0,.175-1.349,5.549,5.549,0,0,0,.021-1.093c.023-.267.045-.537.079-.808l.007-.114c0-.023,0-.045,0-.068.011-.172.02-.341.03-.51a1.02,1.02,0,0,1-.595-.33,8.646,8.646,0,0,1-1.168-1.7l-.478-.477-.9-.6a20.072,20.072,0,0,0-2.4-1.055l-.013,0a6.443,6.443,0,0,1-.877-.2,5.561,5.561,0,0,1-.527-.2,2.245,2.245,0,0,1-.233-.13,20.256,20.256,0,0,0-4.349-.713l-2.2-.1h-6.6l-8.7.1-.4.1a.2.2,0,0,0,.2.2H146.8l3.008.3a47.23,47.23,0,0,1,13.3,3.5c.329.141.644.3.951.454l.249,1.345.4,3.2.2,3.3.1,2.9.1,2.8.4-2.8.2-2.9V38.4l-.3-3.3-.106-.531c.5.313.977.632,1.406.932a7.211,7.211,0,0,1,1.73,1.662l-.03.337-.3,2.2-.3,2-.3,1.8-.5,2.7-.2,1.1.4-1,.9-2.6.5-1.8.5-2,.041-.222a17.1,17.1,0,0,0,2.359-1.577l2-2.2a5.7,5.7,0,0,0,1.1-2.8V31.9Zm-61.9,2.1.7-.7.9-.6a13.965,13.965,0,0,1,4-1.6,29.674,29.674,0,0,1,4.3-.7l2.2-.2h5.8l-4.1.7a45.178,45.178,0,0,0-4.7,1.1c-.915.3-1.864.617-2.786.968a1.075,1.075,0,0,1-.279.092,1.248,1.248,0,0,0-.129.059c-.082.054-.164.108-.245.165a7.1,7.1,0,0,1-.693.425,11.221,11.221,0,0,1-1.089.5,1.015,1.015,0,0,1-.362.072,14.773,14.773,0,0,0-2.517,1.724,7.075,7.075,0,0,0-1.539,1.649l-.343-2.173A5.683,5.683,0,0,1,112.606,33.6Zm56,1.6-.153,1.76a7.063,7.063,0,0,0-1.547-1.659,15.338,15.338,0,0,0-1.692-1.161L165.186,34a.748.748,0,0,1-.324-.148l.156.089a5.608,5.608,0,0,0-.69-.309c-.117-.047-.234-.093-.35-.145a5.689,5.689,0,0,1-.544-.292c-.017-.012-.023-.033-.039-.045l-.089-.047-4.5-1.6a45.178,45.178,0,0,0-4.7-1.1l-4.2-.6-2.744-.2h8.744l2.2.2a29.042,29.042,0,0,1,4.794.858c.013,0,.025-.006.039,0a5.715,5.715,0,0,1,.916.257,4.883,4.883,0,0,1,.584.278l-.011-.03a11.685,11.685,0,0,1,1.878.941l.9.6.7.7a4.99,4.99,0,0,1,.721,1.326Z"/>
  <path class="cls-3" d="M155.606,77a27.575,27.575,0,0,0,5.3-6.6,33.856,33.856,0,0,0,1.5-4.1l1-4.1q.456-1.887.8-3.8l.341-2.981.059-.118.8-2,.9-1.3.4-.4.2-.1h-.3l-.6.1-.7.5-.6.8c-.026.039-.04.081-.064.12l.064-3.321v-2l-.6,2.1c-.1,1.2-.5,3-.9,5.1s-.6,4.6-.9,7.3l-.6,4.1a14.413,14.413,0,0,1-1.3,4,20.35,20.35,0,0,1-5.2,6.4l-3.1,2.3-1.273.909-.027-.108-.03.149L149.306,81l-2.4,1.7-1.9,1.1-1.3.5-.5.1h.5a4.97,4.97,0,0,0,1.5-.3l2.1-1,2.5-1.6.77-.55-.07.351a17.766,17.766,0,0,0-.2,3.4l.4,3.4.2,1.1.1.4.2-1.6V84.6l-.2-3.3-.056-.618,1.656-1.183Z"/>
  <path class="cls-3" d="M132.306,92.9l1.2.6,1.5.6,1.7.5a10.794,10.794,0,0,0,1.9.3l2,.1,2-.1a10.794,10.794,0,0,0,1.9-.3,13.381,13.381,0,0,0,3.2-1l1.2-.6.9-.5.8-.5-.8.3-2.2.7-1.5.4q-.847.162-1.7.3l-1.8.2-1.9.1-1.9-.1-1.8-.2-1.7-.3-1.5-.4-2.2-.8-.8-.3.6.5Z"/>
  <path class="cls-3" d="M153.706,234a18.328,18.328,0,0,1-6.123-1.568l-.577-4.232-.5-4.4-.9-8.8-.5-4.4-.6-4.4-.7-4.4-.8-4.4h-.1l-.1.1.3,4.4.4,4.4.5,4.4.6,4.4,1.2,8.8.7,4.3.5,4.4.1.2a17.517,17.517,0,0,0,6.3,1.8,47.2,47.2,0,0,0,19.1-2.9,70.206,70.206,0,0,1-12.4,2.3A34.208,34.208,0,0,1,153.706,234Z"/>
  <path class="cls-3" d="M171.706,207l-.9-8.7-.8-7.6-.6-5.3-.3-2v2l.4,5.4.8,7.6,1,8.7,1.4,16.3.6,5.4.2,2c.1.1.1,0,.1,0l.1-2.1-.2-5.4C173.206,218.8,172.406,212.9,171.706,207Z"/>
  <path class="cls-3" d="M164.706,63.1c.6-.1,1.2-.8,1.8-1.6l1.6-3,1.4-3.7a13.062,13.062,0,0,0,.5-3.9,5.84,5.84,0,0,0-.4-1.8,2.85,2.85,0,0,0-1.1-1.3,2.5,2.5,0,0,0-1.4-.4,1.493,1.493,0,0,0-1,.3l-.5.4-.2.2.9-.4a1.99,1.99,0,0,1,.9-.2l1.1.5a3.6,3.6,0,0,1,.8,1.2l.2,1.6a15.869,15.869,0,0,1-.6,3.7l-1.2,3.6a28.712,28.712,0,0,1-1.4,3,4.3,4.3,0,0,1-1.5,1.7h-.6A.821.821,0,0,0,164.706,63.1Z"/>
  <path class="cls-3" d="M157.306,267.9c-.2.2-.1.4-.1.6l.7,3.6a.2.2,0,0,0,.2.2.265.265,0,0,0,.3-.3l-.7-3.6v-.3c.1-.1.3-.4,1.4-.4l.2-.2-.2-.2Q157.606,267.3,157.306,267.9Z"/>
  <path class="cls-3" d="M224.669,97.715l-19.613,11.324-14.148-3.79L194.7,91.1l19.614-11.324L208.3,76.064a28.4,28.4,0,0,0-41.935,15.373c-1.171-.387-2.481-.747-3.761-1.038l-6.2-1.3-2-.4-.8-.2.7.3a51.823,51.823,0,0,0,8,2.5l3.3.8.518.148a28.279,28.279,0,0,0-1.164,8.252l.036,3.91L82.951,151.777a13.684,13.684,0,0,0,3.3,25.069,13.8,13.8,0,0,0,3.563.472,13.619,13.619,0,0,0,6.82-1.84l82.044-47.368,3.369,1.986a28.414,28.414,0,0,0,42.833-25.319Zm-14.484,31.646a27.458,27.458,0,0,1-27.63-.126l-3.871-2.283-82.55,47.66a12.684,12.684,0,1,1-12.683-21.969L166,104.983l-.042-4.494a27.246,27.246,0,0,1,1.126-7.967l.065.018a3.181,3.181,0,0,1,.079-.477c.025-.091.068-.175.1-.263h0l.009-.023-.028-.011a27.391,27.391,0,0,1,40.465-14.85l4.587,2.832L193.839,90.442l-4.156,15.514,15.514,4.156L223.72,99.419l.16,5.388A27.382,27.382,0,0,1,210.185,129.361Z"/>
  <path class="cls-3" d="M92.139,137.583l.545-.432a2.993,2.993,0,0,1,.7-.405,16.925,16.925,0,0,1,3.726-.856l.16-.018c1.673-.192,3.254-.372,4.644.712a2.8,2.8,0,0,0,2.015.5l.38,0a1.268,1.268,0,0,0,.975-.339,5.889,5.889,0,0,0,.831-.874,38.76,38.76,0,0,0,5.058-8.748l.34-.761a28.8,28.8,0,0,1,6.083-9l.4-.429a19.521,19.521,0,0,0,1.556-1.8,5.394,5.394,0,0,0,1.13-2.679h0a6.763,6.763,0,0,0-.913-3.759,8.837,8.837,0,0,1,0,.906,13.508,13.508,0,0,1-.084,2.745v.011a4.415,4.415,0,0,1-.944,2.185,18.5,18.5,0,0,1-1.479,1.7l-.4.43a30.042,30.042,0,0,0-6.264,9.269l-.342.765a37.936,37.936,0,0,1-4.927,8.534,5.084,5.084,0,0,1-.67.711c-.154.123-.222.131-.244.127l-.074-.006-.433.005c-.76.01-.985.011-1.391-.291a5.267,5.267,0,0,0-3.391-1.059,17.422,17.422,0,0,0-1.97.148l-.2.023a17.436,17.436,0,0,0-3.965.925c-.11.047-.214.1-.313.146a5.951,5.951,0,0,1-.021-1.743,14.346,14.346,0,0,1,1.028-3.626,33.331,33.331,0,0,1,1.6-3.3c.176-.324.347-.631.5-.906.292-.523.525-.944.635-1.192,1.394-3.14,2.863-6.03,4.285-8.824l.126-.25c1.388-2.73,2.962-5.826,4.454-9.239q.4-.882.781-1.75l.189-.425a78.167,78.167,0,0,1,3.659-7.533,3.535,3.535,0,0,1,1.437-1.358,1.681,1.681,0,0,1,.861-.169.9.9,0,0,1,.537.069,10.911,10.911,0,0,1,2.241,1.613l.01.009c-.085-.163-.155-.322-.247-.488a5.532,5.532,0,0,0-1.523-1.906,2.392,2.392,0,0,0-2.3-.033,4.337,4.337,0,0,0-1.531,1.267,36.027,36.027,0,0,1-2.448,3.555c-.122.184-.234.376-.344.57-.609,1.282-1.172,2.555-1.729,3.813q-.2.446-.395.894s-9.3,20.407-9.567,20.889c-.155.278-.328.588-.506.916a34.085,34.085,0,0,0-1.646,3.4,15.262,15.262,0,0,0-1.1,3.886,6.167,6.167,0,0,0,.235,2.818Z"/>
  <path class="cls-3" d="M151.406,6.8l-.1-.1-.1.1-.1,2.3V21.6a2.567,2.567,0,0,0,.5,1.2,2.656,2.656,0,0,0,2.2,1.1,2.518,2.518,0,0,0,2-.9,1.8,1.8,0,0,0,.6-.9l.2-1.1-.1-3.9-.1-7.8-.1-.1-.2.2-.1,7.8v3.9l-.2.8-.5.7a1.993,1.993,0,0,1-1.5.6,2.088,2.088,0,0,1-1.6-.8l-.4-.9-.1-1.1-.1-4.5-.1-4.5V9.1Z"/>
  <path class="cls-3" d="M129.006,6.8l-.1-.1-.1.1-.1,2.3V21.5l-.4.9a2,2,0,0,1-1.6.9,2.035,2.035,0,0,1-1.5-.6l-.5-.7-.2-.8-.1-3.9-.1-7.8-.2-.3-.2.2-.1,7.8v3.9l.2,1.1.6.9a2.518,2.518,0,0,0,2,.9,2.748,2.748,0,0,0,2.2-1.2,3.08,3.08,0,0,0,.5-1.2V20.4l-.1-4.5-.1-4.5V9.1Z"/>
  <path class="cls-8" d="M88.792,151.344l73.576-43.627a.5.5,0,1,1,.5.858Z"/>
  <path class="cls-8" d="M204.73,115l-20.978-5.621L189.373,88.4,203.5,80.249a23.413,23.413,0,0,0-34.567,20.8l.062,6.828L84.419,156.7a8.678,8.678,0,0,0-1.166,14.226c-.7.516-.591,2.667-.231,4.471.833,1.754,1.5,2.33,2.918,1.926,1.457,1.185,3.18,1.672,4.39.3a1.768,1.768,0,0,0,2.547.319c1,.356,2.324-.2,4.752-1.871,1.3-1.488,2.319-4.456,1.591-4.621l-.027-.006c-1.1-.25-1.429-.324-3.215,1.737a5.81,5.81,0,0,0-.727,1.056,2.206,2.206,0,0,1-.324.482,18.39,18.39,0,0,0,.784-4.481l81.963-47.321,5.881,3.468c.067.039.136.072.2.111a12.373,12.373,0,0,0-.771,3.035c.34.377.6.689.812.95a2.9,2.9,0,0,0,1.9,1.339c.38.713.6,1.119.936,1.323.449.269,1.11.185,2.641-.011h0c.289-.038.609-.079.965-.122l.008,0a3.573,3.573,0,0,0,2.354.771c.949.97,2.158,1.19,4.889.857,1.71-.984,4.246-3.682,3.88-4.529a1.387,1.387,0,0,0-1.1-.988,23.373,23.373,0,0,0,18.57-22.267ZM87.491,175.954c-.263-.183-.47-.312-.635-.416a2.028,2.028,0,0,1-.524-.4,2.979,2.979,0,0,1-.362-1.237c-.028-.146-.06-.309-.1-.493a9.785,9.785,0,0,0-.279-1.106,8.975,8.975,0,0,0,.918.3,8.7,8.7,0,0,0,1.459.252l0,.086A6.652,6.652,0,0,1,87.491,175.954Zm4.076-.725-.582.011c.047-.84.014-1.762-.022-2.626a8.645,8.645,0,0,0,1.616-.6,11.8,11.8,0,0,0-.4,1.576A3.235,3.235,0,0,1,91.567,175.229Zm95.018-44.3-.017-.022a2.017,2.017,0,0,1-.366-.545,2.971,2.971,0,0,1,.06-1.288c.021-.147.045-.312.071-.5.039-.284.06-.53.077-.768a23.459,23.459,0,0,0,2.716.942l-.078.105A4.392,4.392,0,0,1,186.585,130.933ZM192,131.3a13.407,13.407,0,0,0,1.148-1.794c.18.018.36.042.54.055-.1.18-.2.353-.283.512C193.048,130.752,192.8,131.223,192,131.3Zm5.8-1.343a4.264,4.264,0,0,0-.467.314c.109-.259.2-.512.282-.753q.743-.069,1.478-.186A8.536,8.536,0,0,0,197.8,129.955Z"/>
  <path class="cls-3" d="M99.543,171.623a.414.414,0,0,0-.322-.3c-1.192-.271-1.576-.255-3.337,1.777a5.614,5.614,0,0,0-.6.833,18.215,18.215,0,0,0,.563-4.042.635.635,0,0,0-.534-.68c-.73-.116-2.109.717-2.812,2.636a11.036,11.036,0,0,0-.448,1.722,3.312,3.312,0,0,1-.54,1.538l-.089,0-.3.006c.042-.924,0-1.935-.041-2.833a8.92,8.92,0,0,1,.072-2.589.723.723,0,0,0-.1-.781,1.451,1.451,0,0,0-1.411-.4,2.153,2.153,0,0,0-1.554,1.814,12.159,12.159,0,0,0-.238,2.622l.123.005h0l-.123,0a7.109,7.109,0,0,1-.4,2.825c-.2-.139-.372-.245-.525-.341a1.927,1.927,0,0,1-.49-.367,3,3,0,0,1-.338-1.182c-.028-.146-.059-.31-.095-.494-.291-1.474-.69-2.316-1.255-2.649a1.607,1.607,0,0,0-1.373-.037c-.98.316-.866,2.741-.46,4.751.785,1.654,1.472,2.425,3,2.011a4.382,4.382,0,0,0,2.646,1.109,2.4,2.4,0,0,0,1.779-.772,1.862,1.862,0,0,0,2.562.278c1.015.325,2.329-.2,4.8-1.906l.024-.021C98.822,174.89,99.808,172.435,99.543,171.623Zm-2,4.354c-2.438,1.677-3.69,2.18-4.626,1.845l-.063-.022-.054.04a1.639,1.639,0,0,1-2.384-.307l-.094-.092-.087.1c-1.444,1.642-3.431.329-4.219-.309l-.05-.041-.063.017c-1.276.363-1.921-.072-2.761-1.831-.079-.4-.138-.794-.186-1.186-.1-1.342.041-2.516.644-2.71a1.333,1.333,0,0,1,1.728.484,7.948,7.948,0,0,1,.422,1.474c.036.182.067.345.095.492a3.036,3.036,0,0,0,.387,1.291,1,1,0,0,0,.083.076,1.28,1.28,0,0,0,.21.5,2.028,2.028,0,0,0,.524.4c.165.1.371.234.634.416a6.646,6.646,0,0,0,.48-3,12.092,12.092,0,0,1,.234-2.6c.455-1.871,1.895-1.987,2.552-1.527a.463.463,0,0,1-.029.1,8.31,8.31,0,0,0-.1,2.707c.041.935.088,1.994.034,2.942l-.007.133a3.824,3.824,0,0,0,.909.52,3.235,3.235,0,0,0,.607-1.641,11,11,0,0,1,.442-1.7c.723-1.976,2.147-2.76,2.78-2.509a18.093,18.093,0,0,1-.783,4.642l-.16.5s.686-.087.8-.286a5.759,5.759,0,0,1,.727-1.055c1.751-2.023,2.1-1.988,3.157-1.75A8.345,8.345,0,0,1,97.545,175.977Z"/>
  <path class="cls-3" d="M201.494,130.054a1.6,1.6,0,0,0-.934-1.009c-.625-.2-1.518.049-2.818.8-.046.026-.091.054-.135.081a3.74,3.74,0,0,0,.348-2.12,1.315,1.315,0,0,0-1.036-.833c-.808-.114-1.788.485-2.762,1.682a7.781,7.781,0,0,0-.861,1.356c-.3.577-.5.96-1,1.106,1.021-1.416,1.884-3.216,1.619-3.829-.027-.061-.052-.122-.076-.181-.194-.457-.36-.851-.75-.982-.451-.147-1.13.074-2.29.746a6.444,6.444,0,0,0-1.846,1.913,4.379,4.379,0,0,1-2.314,2.008,1.772,1.772,0,0,1-.314-.471,2.977,2.977,0,0,1,.066-1.228l.072-.5c.206-1.487.1-2.413-.323-2.912a1.6,1.6,0,0,0-1.286-.484h-.014c-1.02,0-1.7,2.318-1.971,4.311l-.008.057.039.044c.342.377.6.692.809.946a3.03,3.03,0,0,0,1.917,1.367,3.234,3.234,0,0,0,.955,1.323c.487.29,1.14.207,2.722,0,.278-.037.583-.076.923-.117a3.724,3.724,0,0,0,2.334.76,3.774,3.774,0,0,0,2.95,1,16.886,16.886,0,0,0,2.008-.145l.048-.016C199.271,133.756,201.91,131.016,201.494,130.054Zm-14.957.878-.007-.01.028-.023Zm10.922,3.579c-2.645.32-3.845.112-4.761-.823l-.034-.036-.051,0a3.45,3.45,0,0,1-2.277-.741l-.078-.054-.053.033c-.346.042-.658.082-.94.119-1.473.188-2.149.275-2.56.028-.31-.186-.516-.573-.89-1.275l-.026-.049-.056-.014a2.778,2.778,0,0,1-1.836-1.3c-.2-.238-.439-.532-.75-.88.329-1.665.922-3.255,1.694-3.239a1.333,1.333,0,0,1,1.454.951,8.431,8.431,0,0,1-.085,1.331l-.072.5a3,3,0,0,0-.053,1.347,1.057,1.057,0,0,0,.1.185,1.609,1.609,0,0,0,.015.728,2.043,2.043,0,0,0,.366.546l.017.021a4.392,4.392,0,0,0,2.464-2.072,6.329,6.329,0,0,1,1.809-1.879c2.123-1.229,2.433-.817,2.8.038a10.729,10.729,0,0,1-1.75,3.248l-.173.227.284-.026a1.461,1.461,0,0,0,.719-.263c-.228.37-.47.744-.735,1.092.8-.074,1.045-.545,1.405-1.226a7.525,7.525,0,0,1,.846-1.336c1.619-1.989,2.93-1.941,3.471-1.066a7.912,7.912,0,0,1-.5,1.6l-.183.439.376-.292c.089-.07.19-.131.287-.194a9.457,9.457,0,0,1-.369,1.05,4.157,4.157,0,0,1,.466-.315c2.089-1.209,2.909-.989,3.388-.2A10.89,10.89,0,0,1,197.459,134.511Z"/>
</svg>
