<?xml version="1.0" encoding="UTF-8"?>
<svg id="Layer_1" data-name="Layer 1" xmlns="http://www.w3.org/2000/svg" viewBox="0 0 300 301">
  <defs>
    <style>
      .cls-1 {
        fill: #fff;
      }

      .cls-2 {
        fill: #ff7033;
      }

      .cls-3 {
        fill: #e8e8e7;
      }

      .cls-4 {
        fill: #dedede;
      }

      .cls-5, .cls-6 {
        fill: #f9f9f9;
      }

      .cls-5, .cls-7, .cls-8 {
        fill-rule: evenodd;
      }

      .cls-9 {
        fill: #bdbcbc;
      }

      .cls-7, .cls-10 {
        fill: #eee;
      }

      .cls-11 {
        fill: #f7f7f7;
      }

      .cls-12 {
        fill: #f1f1f1;
      }

      .cls-8, .cls-13 {
        fill: #d0d0d0;
      }

      .cls-14 {
        fill: #d9d9d9;
      }

      .cls-15 {
        fill: #dadad9;
      }

      .cls-16 {
        fill: #ececec;
      }

      .cls-17 {
        fill: #e3e3e3;
      }
    </style>
  </defs>
  <path class="cls-6" d="m137,78.445c2.9,1.3,6.2,1.9,9.4,1.7l6.7-.1s-.2,8.4-.7,9.8c-1.1,3-3.4,3.5-6.3,3.9-4.7.5-15.6,1.3-13.8-4.6,1-3.3.2-6.1.5-8.2l.4-3.8s1.9.4,3.8,1.3h0Z"/>
  <path class="cls-16" d="m141.7,84.045c-1-.4-1.9-1.1-2.9-1.6s-2.2-.8-3.2-.4c-1.3.5-1.9,1.9-2.1,3.3-.2,1.3-.9,1.9-.9,3.2,1.2-.9,1.8-1.2,2.8-1.6s2.1-.4,3.2-.3l5.1.2c1.4,0,2.8.1,4.1-.4s3.6-1.8,3.7-3.2c-2.8.8-7,1.9-9.8.8h0Z"/>
  <path class="cls-4" d="m132.4,88.644c.7-.9,1.4-1.4,1.6-2.5s.8-2.2,1.8-2.7c.7-.3,1.5-.2,2.2.1l2,1c3.3,1.7,7.6,1.3,10.5-.9l2.2,6.3c.3-2.8.2-6,0-8.9-2.5,1.5-5.9,3.4-8.7,3.1-4.1-.5-8.1-3.9-11.4-5.8.4,3.5.7,6.9-.2,10.3h0Z"/>
  <path class="cls-13" d="m165.3,114.144l4.8-8c.4,4.3-1.4-4.8-2.3-13.9,2.3,1.2,4.4,1.4,5.8,3.6l.3.6c4.215,11.654,13.042,28.073,12.111,46.583-2.276,5.589-11.168,2.585-11.168,2.585,0,0-3.929-13.029-9.543-31.468h0Z"/>
  <g>
    <path class="cls-10" d="m174.705,143.161c2.47-7.51,19.113-16.139,27.126-19.514l3.406,3.544-21.722,21.978c-3.965,1.127-11.279,1.503-8.81-6.008Z"/>
    <path class="cls-9" d="m179.336,149.91c-1.719,0-3.324-.372-4.289-1.376-1.107-1.153-1.262-2.973-.461-5.411h0c2.457-7.469,18.864-16.081,27.196-19.59l.079-.033,3.551,3.694-.086.086-21.746,22.001-.031.009c-1.279.364-2.785.621-4.213.621Zm-4.078-6.514h0c-.771,2.343-1.069,3.884-.032,4.964,1.684,1.752,5.128.888,7.878.113l21.958-21.283-3.262-3.395c-8.32,3.515-24.121,12.24-26.543,19.6Z"/>
  </g>
  <g>
    <path class="cls-6" d="m105.519,134.425c6.972,3.726-5.983,32.343-5.983,39.373l-8.336,1.507s-1.053-24.451,2.631-37.521c2.004-7.109,4.716-7.086,11.689-3.359h0Z"/>
    <path class="cls-9" d="m91.082,175.453l-.006-.143c-.01-.245-1.012-24.621,2.636-37.56.92-3.266,1.998-5.006,3.495-5.643,1.967-.838,4.662.224,8.374,2.207l.44.235h-.068c4.091,3.018.117,15.979-3.093,26.449-1.715,5.595-3.196,10.427-3.196,12.799v.104l-8.58,1.551Zm7.638-43.385c-.514,0-.985.086-1.416.27-1.42.604-1.834,2.334-2.732,5.52-3.49,12.384-3.33,35.265-3.252,37.299l8.093-1.463c.042-2.443,1.51-7.233,3.207-12.768,3.275-10.684,7.352-23.98,2.841-26.391l-.236-.126c-2.696-1.429-4.83-2.341-6.505-2.341Z"/>
  </g>
  <path class="cls-6" d="m157.232,165.577c1.2-10.1-3.032-13.233-2.532-23.433,1-19.1.2-34.8,1.2-53.9-3.9-.3-6.4-1.3-10.3-.7-3.9.6-10.3,3.5-13.6,1.3-9.5,32.1-13.4,46.9-14,80.4,4.7.8,9.9,1.7,14.7,2.2,8.7.9,11.6,6.8,16.2-.7,2-3.2,7.932-1.467,8.332-5.167h0Z"/>
  <path class="cls-16" d="m166.8,30.944c-.1-.8-.1-1.7.2-2.5.8-1.7,2.3-1.9,3.6-3.3,1.2,3.8,1.8,8,1.2,11.9-1.5,9.6-3.7,14.1-5.3,14.5-.4-5.8.8-14.8.3-20.6Zm-51.5-5.2c2-.6,4.1,1.3,4.5,3.4.5,2.1-.1,4.2-.5,6.3-.8,4.2,1.6,11.6,2.5,15.7-1.1.1-4.3-2.5-5.5-2.4-2.1-5-3-10.8-3.6-16.2-.1-1.3.2-1.5.5-2.8.4-1.3.9-3.6,2.1-4Z"/>
  <path class="cls-6" d="m166.1,50.945c.7-1.1,2-2.9,3.4-2.7,3.6.6,2.3,6.1,1.3,8.7-.4,1.1-2.9,8.1-4.8,6.6m-44.5-12.6c-.7-1.2-2.1-2.9-3.5-2.7-3.7.6-2.3,6.2-1.3,8.9.4,1.1,3,7.1,4.9,6.7.1,0,.9-.3.9-.8"/>
  <path class="cls-6" d="m164.9,29.945c3.1,4,2,18.3,2,18.3,0,0-.2,10.8-2.4,19.1-1.9,6.9-6.9,10.8-14.2,15.8-5,3.4-6.5,2.2-12.4-1-4.6-2.5-12.6-8.5-14.2-15.3-1.7-7-2.7-18.7-2.7-18.7,0,0-2.2-7.8.3-16.2"/>
  <path class="cls-17" d="m166.3,32.444c-2.1-1.4-6.7-1.8-9.2-2.1-8.6-.8-17.3-1.4-26-.5-2.3.2-4.6.6-6.6,1.7-2.4,1.3-5.9,1.4-6.3,6.1-.2,2.7.8,5.7,2.2,8,.6-4.2,1.6-9,5.2-11.2,2.4-1.5,5.4-1.5,8.2-1.5l20.6.3c2.7,0,5.4.1,7.9.9,2.5.9,4.6,4.8,5.4,7.3.2-2.7.9-7.4-1.4-9Z"/>
  <path class="cls-15" d="m120.4,48.244c-2.5-5.6-4.7-14.3-3-20.2.746,1.43,1.893,2.611,3.3,3.4-1.9,4.6-.8,11.8-.3,16.8Zm45.6-18.1c1.914,5.81,2.225,12.028.9,18,1.6-3,2.3-8.4,2-11.9-.3-3.4-.4-7.3,1.7-9.9l-3.5,2.5c-.5.4-1,.7-1.1,1.3h0Z"/>
  <path class="cls-16" d="m117.4,52.444c.2-.9,1-1.7,1.9-1.5.5.1.8.5,1,1,.2.4.3.9.3,1.4l.4,3c.2,1.4.4,2.9.2,4.4l-2.6-4.2c-.7-1.3-1.5-2.7-1.2-4.1Zm53-.3c-.2-.9-1-1.7-1.9-1.5-.5.1-.8.5-1,.9s-.3.9-.3,1.4l-.4,3c-.2,1.4-.4,2.9-.2,4.3l2.6-4.1c.7-1.3,1.5-2.6,1.2-4h0Z"/>
  <path class="cls-15" d="m141.4,55.445c-.814,1.855-2.161,3.426-3.871,4.512-1.71,1.086-3.704,1.639-5.729,1.588-4-.2-7.8-3.1-9-7-.7,2.6.6,5.4,2.7,7.1,2.1,1.7,4.9,2.3,7.6,2.2,2.3-.1,4.7-.7,6.5-2.2,1.7-1.5,2.6-4.1,1.8-6.2Zm5.7,0c1.5,3.7,5.6,6.3,9.6,6.1s7.8-3.1,9-7c.7,2.6-.6,5.4-2.7,7.1-2.189,1.617-4.885,2.397-7.6,2.2-2.3-.1-4.7-.7-6.5-2.2-1.6-1.5-2.6-4.1-1.8-6.2Z"/>
  <path class="cls-6" d="m171.1,223.445v6.9c.1,2.3,1.5,15,.6,26s-.9,13.4-1,15.9c0,1.8-1,3.6-2.6,4.1s-4.3-.8-5.2-2.3c0,0-4.3-15.1-5-21.1s-2.3-10.1-2.1-13.3c.2-3.3-.3-9.8-.4-13.9"/>
  <path class="cls-3" d="m161.5,236.245c-1.3.2-2.7.5-3.6,1.5-.9,1.1-1,2.7-1,4.1.1,1.4.7,4.7.1,6-1.3-3.6-1.2-9.9-2-13.2,5.4.5,11.1,1,16.1-1.1.7,2.5,1,7.2.9,9.7-1.2-8.6-3.8-7.5-4.5-7.5-2,0-4,.2-6,.5Z"/>
  <path class="cls-6" d="m118.6,222.844l-.5,6.9c-.2,2.3-2.5,14.6-1.6,25.6s1,13.4,1,15.9c0,1.8,1.1,3.6,2.7,4.1,1.7.6,4.4-.8,5.4-2.3,0,0,3.8-13.1,4.5-19.1.7-6,1.6-10.3,1.4-13.5-.2-3.3,1.8-10.6,1.9-14.7"/>
  <path class="cls-3" d="m130.8,247.745c0,.5-.2.9-.1,1.4.2-2.5,1.1-4.8,1.5-7.3.5-3.4.7-6.9.7-10.3l-8.6-.3c-1.6,0-3.2-.1-4.7.5s-2.8,2-2.7,3.5c1,1.4,3,1.7,4.7,1.8l4.9.3c.8.1,1.6.1,2.3.6.9.6,1.3,1.8,1.5,2.9.3,2.3.6,4.7.5,6.9h0Z"/>
  <path class="cls-6" d="m145.7,193.245c-3.5,4.8-4.4,29.4-5.9,40,0,0-19.7,7.2-26.9-.7,0,0,2.1-38.1,3.5-45.8,2.7-1.2,3.8-5.4,4.6-8.2.9-2.9,1.4-5.9,3.3-8.2,2.5-3,6.6-4,10.4-4.7,5.5-1,11-1.7,16.6-2.1,3.5-.3,17.2-2.8,18,.6.9,4.2.7,4.9,1.2,8.4,0,0,3.3,35.5,4.3,42.9,1.3,9.5.9,16.8.9,16.8,0,0-16.5,6-26.2,1.2l-4.4-35.2"/>
  <path class="cls-17" d="m149.4,232.145c.1.6,3.2,1.2,3,1.1-.7-.6-2.4-15.5-2.8-21.6-.4-7-.6-10.1-2.1-16.8-1.28,5.231-1.618,10.649-1,16,.4,2.5,2.4,18.6,2.9,21.3h0Zm-9.6-.9c-.2-1.7,2.6-27.7,5.1-38.6-1.5,6.4-8.6,36.8-9.1,38.3l-.1.2c-2.119,1.291-4.364,2.363-6.7,3.2-2.6,1.1-5.4,1.4-8.2,1.8,7.9.3,12.6-1.2,17.5-2.5.3-.1.7-.2.9-.4l.9-.1c-.092-.635-.192-1.268-.3-1.9h0Z"/>
  <path class="cls-17" d="m150.5,230.345c1.8,2.2,4.2,4,6.8,5-2.2.2-4.5-.1-6.6-1-.5-.2-1-.499-1.2-.899l-.1-1.101.2-3m4.2-39.399c-.8-.5-1.8-.3-2.6.3s-1.2,1.3-1.9,2c-.6.7-1.5,1.199-2.4,1.099-1.5-.4.4-3.3,2.6-5.8-.6-.4-1.4.1-1.9.5-1.381,1.181-2.715,2.416-4,3.701-.4.4-.7.799-.7,1.399l.3.9c2,3.7,2.4,6.901,3.4,10.901-.1-3.9,1.2-7.401,3.1-10.801.8-1.3,3.1-3.399,4.1-4.199h0Z"/>
  <path class="cls-17" d="m150.7,196.745c.4.2.2.8,0,1.2-1.1,2-1.7,4.2-1.8,6.5,0,.8-.1,1.6-.7,2.1-.4-1.7-.6-3.4-.8-5.2-.2-1.5-.3-3.3.8-4.3.7-.3,1.4-.4,2.1-.4l.4.1h0Z"/>
  <path class="cls-10" d="m119.8,148.444c3.9-.1,7.7-.3,11.6-.6-.183-10.606.084-21.216.8-31.8.3-4.2.7-8.4.5-12.6-.2-3.3.2-11-3.5-12.5-2.2-.9-5.8.5-8,1.1-2.8.7-5.6,1.7-8,3.3,3.5,15.4,5.3,30,6.4,45.8,0,0,.2,7.3.2,7.3Z"/>
  <path class="cls-10" d="m116.952,97.61c2.107,3.796,2.313,6.995,4.42,10.691.803,1.499,1.706,3.097,1.509,4.898-.196,2-1.793,3.503-3.091,4.905-7.185,7.614-5.202,10.202-11.486,18.514-.499.601-1.098,1.302-1.798,1.203-1,.002-1.6.103-2.401-.495-1.402-1.098-3.002-.895-4.802-.691-3.999.607-4.298,1.108-4.897,1.709-2.307-3.996,2.679-11.405,3.298-12.799,2.888-6.505,5.978-11.711,8.866-18.316,1.494-3.303,2.788-6.505,4.682-9.809.897-1.502,2.695-2.605,4.197-1.708.701.499,1.102,1.198,1.503,1.897h0Z"/>
  <path class="cls-10" d="m152.1,181.144c2.6-21.8,3.1-43.9,1.4-65.9-.3-4.2-.7-8.4-.5-12.6.2-3.3,3.7-12.9,3.7-12.9l7.9,1.8c2.8.7,7.3,1.7,8.4,3.5-3.491,14.861-5.799,29.975-6.9,45.2-.3,4.4-.5,8.9.4,13.3.7,3.3,2,6.6,1.8,10l-.3,2.1c.3.4.6.7,1.1.8.7,5.1.9,10.2.4,15.3-1.2-.1-2-1.3-3-2-1.1-.8-2.6-.8-3.9-.8-1.7,0-3.4-.1-4.9.6-1.8.7-3.5,2.3-5.3,1.6v-.2l-.3.2h0Z"/>
  <path class="cls-17" d="m160.2,177.445c1.1-.4,2.3-.9,2.9-1.8.5-.7.5-1.6.6-2.5l1.1-15.5-.5-3.6c-.3-4-1.1-8.6.1-12.5.1-.3-.1-.6-.4-.6v-.1c.5-1.7.5-3.5.5-5.2v-10.7c0-1.9.2-4.2,1.8-5.3,2.4,6,.2,22.2.4,32.2.1,1.9-.3,3.2-.4,4.5.5,5.8.7,11.7-.3,17.4l-.7,3.3c-.1.4-.2.8-.5,1s.2.7-.1.7c-2.5.2-6.1-.6-9.7,1.8,1.2-.5,3.8-2.6,5.2-3.1h0Z"/>
  <path class="cls-13" d="m131.8,153.245l-.2-2.7-.2-7.1.1-10,.5-11.4.6-11.4c.1-1.8.2-3.6.1-5.2-.012-1.568-.079-3.136-.2-4.7-.2-1.4-.3-2.7-.6-3.9-.18-.988-.448-1.959-.8-2.9l-.7-1.8-.3-.6v-.1h.1l.4.6.9,1.8c1.557,3.697,2.274,7.693,2.1,11.7l-.2,5.3-1,11.4c-.3,3.9-.3,7.8-.4,11.4l-.1,10v7.1l-.1,2.5h0Z"/>
  <path class="cls-1" d="m153.7,4.645h-.1c0-1.5-1.2-2.7-2.6-2.7h-17.1c-.35,0-.696.07-1.019.207-.322.137-.613.337-.856.589s-.432.551-.556.878c-.125.327-.182.676-.169,1.026-9.7,0-17.5,11-17.5,21.1v2.7l57.5-.2v-2.7c-.1-10-7.9-20.8-17.6-20.9h0Z"/>
  <path class="cls-14" d="m136.9,30.244s-8.8.8-15.6,3.3c-4.1,1.5-7.4,4.1-7.6,6.2,0,0-5-7-2-8.4s8.1-2.3,8.1-2.3l47.9-.2s7.4,3.7,6.2,6l-2.7,4.7c-.2-2.2-3.6-4.7-7.6-6.1-5.072-1.598-10.303-2.638-15.6-3.1"/>
  <path class="cls-1" d="m176.6,32.744c-.4-4.6-5.8-4.6-9-4.7-3-.1-23.4.1-25.2.1l-25.2.1c-3.2.2-8.6.2-9,4.8s5.4,7.5,5.4,7.5c0,0-1.7-4.6,1.6-7,3.3-2.5,8.4-2.9,11.7-3.1l15.2-.1h.2c1.9,0,12.2-.2,15.2-.1,3.3.1,8.4.5,11.8,3,3.3,2.4,1.7,7,1.7,7,0,0,6.1-2.9,5.6-7.5Z"/>
  <path class="cls-17" d="m170.6,20.744c-6,3.6-17,5.9-29.4,5.9-11,0-20.8-1.9-27.1-4.7-.2,1.3-.4,2.6-.4,3.9v2.7l57.5-.2v-2.7c.003-1.652-.198-3.298-.6-4.9Z"/>
  <path class="cls-1" d="m176.6,32.744c-.4-4.6-5.8-4.6-9-4.7-3-.1-23.4.1-25.2.1l-25.2.1c-3.2.2-8.6.2-9,4.8s5.4,7.5,5.4,7.5c0,0-1.7-4.6,1.6-7,3.3-2.5,8.4-2.9,11.7-3.1l15.2-.1h.2c1.9,0,12.2-.2,15.2-.1,3.3.1,8.4.5,11.8,3,3.3,2.4,1.7,7,1.7,7,0,0,6.1-2.9,5.6-7.5Z"/>
  <path class="cls-17" d="m127.8,177.845c-2.448-1.414-5.332-1.877-8.1-1.3h-.3c-.5.8-.3,1.9-.5,2.9-.3,1.7-1.9,1.2-2.7,2.7-.8,1.4-.6,5-.6,6.7-.3,6.4-1,12.5-1.2,18.9,1-4.9,2.1-9.8,2.6-14.8.1-.8.2-1.7.6-2.5.2-5.1,4.2-8,15.2-9.7-1.8-.8-3.3-2-5-2.9h0Z"/>
  <path class="cls-3" d="m133.2,170.944c-.545.936-.95,1.947-1.2,3-.1,1.6,1,5.9,1.6,7.4.057-.888.311-1.753.743-2.532.432-.778,1.033-1.45,1.757-1.968,1.2-.7,2.7-1,4.1-1.2,5.7-.9,11.5-1.9,16.8-3.5-7,.8-13.8,2.2-20.9,1.3-1-.2-2.3-3.3-2.9-2.5h0Z"/>
  <path class="cls-3" d="m138.2,169.444c-.9-.7-5.1-6.7-5.7-12.2-.6-5.6-.5-6.9-.4-12.5l-.1-6.5h-1.9l-.1,9.1c-.1,6.5.7,5.9,1,12.4.1,2.9-.2,3.2,0,6.1.8,11.3,1.4,8.2,4.2,7.7,1-.2,3.4-.2,4.5-.1,5.5.6,11.5.3,16.8-1.5-5.2.1-10.7-.8-15.9-1.6-.8-.2-1.7-.3-2.4-.9h0Z"/>
  <path class="cls-10" d="m130.1,138.245h-1.2l-9.1-.2.2,2.3c.3,4.4.5,8.9-.4,13.3-.7,3.3-2,6.6-1.8,10l.3,2.1c-.3.4-.6.7-1.1.8-.7,5.1-.9,10.2-.4,15.3,1.2-.1,2-1.3,3-2,1.1-.8,2.6-.8,3.9-.8,1.7,0,3.4-.1,4.9.6,1.3.5,2.6,1.6,4,1.8-1.614-14.342-2.382-28.767-2.3-43.2h0Z"/>
  <path class="cls-17" d="m123.2,175.645c-.5-.7-.5-1.6-.6-2.5l-1.1-15.5.5-3.6c.1-1.8.1-8.8-.2-16h-2.4c.533,6.084.733,12.194.6,18.3-.734,6.91-.397,13.893,1,20.7.1.4.2.8.5,1s-.2.7.1.7c2.1.2,5-.4,8,.9-1.3-.8-2.7-1.8-3.6-2.2-1-.4-2.2-.8-2.8-1.8h0Z"/>
  <path class="cls-17" d="m122.6,155.945c-1.192,1.053-1.943,2.518-2.1,4.1-.112,1.561.39,3.104,1.4,4.3-.1-.9-.2-1.8-.1-2.7s.5-1.8,1.1-2.4c.8-.7,1.9-.8,2.8-1.2,1.219-.507,2.27-1.349,3.031-2.429.761-1.079,1.201-2.352,1.269-3.671-2.1,2-5.3,2.2-7.4,4h0Z"/>
  <path class="cls-8" d="m118.764,138.245c-1.214-23.232,1.973-24.363,1.436-26,.4-.4,1.1.1.9.6-.8,2.1-1.2,4.2-1.3,6.4,0,.3.3.5.5.4h.1c.7-.2,1.4.6,1,1.3-1.192,2.285-1.299,5.162-1.398,7.847l-.002.053v10.121l-.195-.114.095,16.493c0,.615-.003,1.302-.007,2.043-.031,6.248-.081,16.419,1.707,21.157.033.133-.4.389-1.042.767-1.281.756-3.392,2-4.258,3.733-1.8,3.8.1-16.1,1.5-26.2.05-.3-.1-.35-.25-.4-.15-.05-.3-.1-.25-.4l.1-.1c.262-.418.249-.673.236-.963-.013-.265-.027-.56.164-1.037,1.345-2.848.624-5.321.215-6.725-.108-.37-.194-.666-.215-.875,0,0,.681-2.92.988-8.086l-.024-.014h0Zm49.636-17.901l-.187-.467.087-.433c.293.358.596.684.886.996.601.646,1.144,1.23,1.414,1.904,3.329,8.137,13.09,16.398,3.538.633-1.91-3.153-3.206-5.293-5.638-7.433-1.1-1-2.8.1-2.3,1.5-.6.3-1.2.4-1.9.3,0,1,.3,1.9.6,2.7l1.634,4.592c-.076,1.417-.134,2.788-.134,3.708l-.1,27c0,.593.003,1.253.006,1.965.03,6.241.079,16.487-1.806,21.335-.029.087.392.294,1.031.607,1.552.76,4.39,2.151,5.169,3.993.655,1.683.303-1.684-.215-6.657-.591-5.662-1.398-13.405-1.185-18.143,0-.384-.164-1.054-.308-1.644-.081-.333-.156-.64-.192-.856l-.1-.1c-.262-.419-.25-.673-.236-.963.013-.265.027-.56-.164-1.037-1.345-2.849-.624-5.321-.215-6.725.108-.37.194-.666.215-.875,0-.007-.006-.039-.017-.095-.141-.745-1.105-5.818-.083-16.505.085-1.143.062-2.357.038-3.643-.033-1.753-.069-3.638.162-5.657h0Z"/>
  <path class="cls-13" d="m132.5,181.345l-.3-1.2-.5-3.2-.4-4.6-.4-5.2c-.4-3.6-.8-7.1-.8-9.8l.1-3.3.1-1.2s0-.1.1,0l.2,1.2.3,3.2.4,9.8.5,5.2.5,4.6.2,3.2v1.3h0Z"/>
  <path class="cls-13" d="m133.8,173.845l.8-.2,2.1-.2,3-.1h3.5l3.5-.3,3-.3,2.1-.1h.8s.1,0,0,.1l-.8.3c-.5.1-1.2.4-2.1.5l-3.1.1h-3.5l-1.8.1-1.7.1-3,.1c-1.6.2-2.8,0-2.8-.1q0,.067,0,0h0Z"/>
  <path class="cls-12" d="m130,277.945c.6,3,1.2,5.1,1,8.2,0,.4-.2.8-.5,1.1-.7.7-2,3.3-2.4,4.9-.6,2.3,1.3,6.5-6.7,8.2-2.2.3-6.2.5-9.7-.2-5.9-1.4-4.2-9.2-4.2-9.2l5.5-7,1.1-6.1c.2-1,1.1-1.6,2.1-1.4,3.2.6,7.5.7,12.5.3.8-.1,1.1.3,1.3,1.2h0Z"/>
  <path class="cls-17" d="m129.6,274.444c.4,1.2,1.7,5.7,1.4,9,0,0-2.4,3.1-3,5.4-.6,2.3,1.3,6.5-6.7,8.2,0,0-4.6.6-8.8,0-4.1-.6-7-4.1-3.9-8.9l4.3-7.5,1.1-6.1c.2-1,1.1-1.6,2.1-1.4,2.7.5,6.2.6,10.2.4.8,0,1-.3,1.8-.3.9-.2,1.2.4,1.5,1.2h0Z"/>
  <path class="cls-12" d="m125.1,295.345c-.6.7-1.6.9-2.5,1.1-2.9.7-5.9,1.1-8.9,1.2-1.5.1-3.2,0-4.3-1-.9-.8-1.2-2-1.6-3.1-.3-1-.5-2-.3-3,.4-1.2,1.5-2,2.6-2.6,2.144-.98,4.515-1.357,6.858-1.093s4.569,1.16,6.442,2.593c.932.65,1.66,1.552,2.1,2.6.5,1.2.4,2.5-.4,3.3Zm-11.6-10l1.2-.8c.8-.5,2.4-1.6,2.4-2.5l-1.9-13.8c0-.6.4-1.1.9-1.4,3.1-1.3,8.2-1.5,11.4-.1.7.3,1.4,2.3,1.1,3.1l-4.6,12.1c-.3,1,0,2.1.7,2.8l1.7,1.6c-3.5-2.7-8-2.6-12.9-1h0Z"/>
  <path class="cls-11" d="m120.3,292.344c-1.6.3-3.2.6-4.8.6-1.1,0-2.3-.3-3.3-.7-.7-.3-.8-1.3-.3-1.8,1.104-1.048,2.512-1.719,4.021-1.916,1.509-.198,3.042.088,4.379.816.5.3,1,.6,1.2,1.1.3.5.3,1.2-.1,1.6l-1.1.3h0Z"/>
  <path class="cls-9" d="m128.4,90.945c-.3-.9,4.3-3.5,4.1-3.2-.6,3.5-.2,6.5.6,10.2,1.1,5.1-.3,11-.4,16.3-.7-4.9.1-10-1-14.8-1-4-2.1-4.9-3.3-8.5h0Z"/>
  <path class="cls-12" d="m160.5,277.344c-.4,3-1.6,4.9-1.3,8,0,.4.3.8.6,1.1.8.7,5.4,2.8,5.9,4.4.7,2.3-1,6.5,7.1,7.8,2.2.2,6.3.2,9.6-.7,5.9-1.7,3.8-9.4,3.8-9.4l-6.9-6.3-1.4-6c-.2-1-1.2-1.5-2.1-1.3-3.2.8-8.4,1-13.4.9-1,0-1.8.7-1.9,1.5h0Z"/>
  <path class="cls-17" d="m160.1,271.745c-1.6,2.9-1.5,7.6-1.1,10.9,0,0,5.8,2.6,6.5,4.9s-1,6.5,7.1,7.8c0,0,4.7.3,8.8-.4,4.1-.8,6.8-4.5,3.5-9.1l-5.8-6.8-2.3-6c-.4-1-.3-1.6-1.3-1.4-2.7.7-6.1,1-10.1.9-.8,0-3.1-5.4-3.9-5.4-1,0-1.7.5-1.7,1.4.1,1.1.6,2.6.3,3.2Z"/>
  <path class="cls-12" d="m168.7,294.044c.7.6,1.6.9,2.5,1,3,.5,6,.8,9,.8,1.5,0,3.2-.1,4.3-1.2.8-.8,1.1-2.1,1.4-3.2.2-1,.4-2,.1-3-.4-1.2-1.6-2-2.8-2.5-2.193-.865-4.58-1.117-6.905-.729-2.325.387-4.501,1.4-6.295,2.929-.8.7-1.6,1.6-1.9,2.7-.3,1.2-.2,2.4.6,3.2h0Zm12-10.9s-2.6-3.7-2.7-4.7l-1.5-5.7-1.1-6.9c-.1-.6-.5-1.1-1-1.3-3.2-1-7.1.9-10.4,1.7-2,.5-1.6,2.3-1.4,3l6.4,11.7c.4,1,1.2,2,.5,2.8l-.5,1.7c3.2-3.2,6.6-3.4,11.7-2.3h0Z"/>
  <path class="cls-11" d="m173.3,290.644c1.6.2,3.2.5,4.8.3,1.1-.1,2.3-.4,3.3-.9.7-.4.8-1.3.2-1.8-.999-.802-2.159-1.382-3.4-1.7-1.7-.3-3.6,0-5.1.9-.5.3-.9.7-1.2,1.2-.2.5-.2,1.2.2,1.6.4.3.8.3,1.2.4Z"/>
  <path class="cls-13" d="m151.7,181.045l.1-1,.2-2.9.8-10.3c.3-4.2.7-9.2.9-14.5l.3-8.2.1-4.2v-4.3c-.1-5.7-.4-11.4-.8-16.7l-.6-7.7c-.2-2.4-.3-4.8-.2-6.9.027-4.448.98-8.841,2.8-12.9l.5-.9h.1v.1l-.4.9c-.391.867-.693,1.772-.9,2.7-.3,1.2-.7,2.6-.9,4.3-.535,4.183-.535,8.417,0,12.6l.5,7.7c.141,5.566.274,11.133.4,16.7v8.5c-.003,5.306-.203,10.609-.6,15.9l-.5,6.9c-.3,4.3-.8,7.8-1.1,10.3l-.4,2.9-.3,1q.067,0,0,0h0Z"/>
  <path class="cls-9" d="m158.4,88.544c.3-.9-4.5-.7-4.3-.4-.2,3.8-.8,5.3-1.6,9-1.1,5.1.3,11,.4,16.3.7-4.9-.1-10,1-14.8.9-4,3.2-6.4,4.5-10.1h0Z"/>
  <path class="cls-14" d="m136.9,30.244s-8.8.8-15.6,3.3c-4.1,1.5-7.4,4.1-7.6,6.2,0,0-5-7-2-8.4s8.1-2.3,8.1-2.3l47.9-.2s7.4,3.7,6.2,6l-2.7,4.7c-.2-2.2-3.6-4.7-7.6-6.1-5.072-1.598-10.303-2.638-15.6-3.1"/>
  <path class="cls-1" d="m176.6,32.744c-.4-4.6-5.8-4.6-9-4.7-3-.1-23.4.1-25.2.1l-25.2.1c-3.2.2-8.6.2-9,4.8s5.4,7.5,5.4,7.5c0,0-1.7-4.6,1.6-7,3.3-2.5,8.4-2.9,11.7-3.1l15.2-.1h.2c1.9,0,12.2-.2,15.2-.1,3.3.1,8.4.5,11.8,3,3.3,2.4,1.7,7,1.7,7,0,0,6.1-2.9,5.6-7.5Z"/>
  <path class="cls-2" d="m132.5,63.144c-5.9,0-10.1-3.9-10.1-9.3l-.3-5.5.1-.4.4-.2,18.3-.5.4.2.2.4v7.5c.1,4.3-4,7.8-9,7.8h0Zm-9.2-14.2l.3,4.9c0,4.7,3.8,8.2,9,8.2,4.4,0,7.9-3,7.9-6.7v-6.9l-17.2.5Zm32.5,14.2c-5,0-9-3.5-9-7.8v-7.5l.2-.4.4-.2,18.3.5.4.2c.1.1.2.3.1.4l-.3,5.5c0,5.4-4.3,9.3-10.1,9.3h0Zm-7.9-14.7v6.9c0,3.7,3.5,6.7,7.9,6.7,5.2,0,9-3.4,9-8.1l.3-4.9-17.2-.6Z"/>
  <path class="cls-2" d="m141,51.144s.7-2.4,3.1-2.4c2.6,0,3.1,2.7,3.1,2.7v-3.7h-6.2v3.4h0Z"/>
  <path class="cls-2" d="m147.3,51.944c-.2,0-.4-.2-.5-.4,0-.1-.5-2.3-2.7-2.3-2,0-2.7,2-2.7,2-.1.2-.3.4-.5.3-.2,0-.4-.2-.4-.5v-3.4c0-.3.2-.5.5-.5h6.3c.3,0,.5.2.5.5v3.7c0,.3-.2.5-.5.6h0Zm-3.2-3.7c1.2,0,2.1.5,2.7,1.2v-1.2h-5.3v1.2c.6-.7,1.5-1.2,2.6-1.2Zm-21.5.6l-2.8-1.4,3.1.5c.3,0,.4.3.4.6s-.3.4-.6.4l-.1-.1Zm42.8-.9l2.6-.7-2.2,1.5c-.2.2-.5.1-.7-.1-.2-.2-.1-.5.1-.7h.2,0Z"/>
  <path class="cls-1" d="m145.2,51.244c-.1,0-.6,7.4.7,11l.3.9"/>
  <path class="cls-9" d="m111.614,98.204c-1.9,3.3-3.19,6.5-4.68,9.8-2.89,6.61-5.98,11.82-8.87,18.32-.57,1.29-4.89,7.75-3.69,11.87-2.18-4.01,2.74-11.31,3.34-12.7,2.89-6.5,5.98-11.71,8.87-18.31,1.49-3.31,2.79-6.51,4.68-9.81.9-1.5,2.7-2.61,4.2-1.71.7.5,1.1,1.2,1.5,1.9.49.87.87,1.71,1.2,2.54-.25-.56-.53-1.13-.85-1.71-.4-.7-.8-1.4-1.5-1.9-1.51-.9-3.3.2-4.2,1.71Zm8.87,8.27c.35.85.74,1.72,1.25,2.61.25.47.52.96.75,1.46-.29-.8-.71-1.55-1.1-2.29-.35-.6-.64-1.2-.9-1.78Zm-2.32-6.37c.86,2.14,1.35,4.16,2.29,6.28-.84-2.1-1.33-4.11-2.29-6.28Zm27.436,93.14c-.5.7-.7,1.5-1,2.3l-.6,2.4-.8,5c-.504,3.353-.905,6.721-1.2,10.1l-.9,10.1c-.33,3.445-.764,6.88-1.3,10.3-2.162.768-4.371,1.39-6.61,1.87l-.49,3.331-.4,3.8c-.3,2.7-.8,5.5-1.3,8.3l-.8,4.2-.9,4c-.6,2.6-1.1,5.1-1.7,7.1l-.092.352.692.247c.5.4.7.9.9,1.3.2.5.3.9.2,1.5l-.2.7-.2.7-.6,1.3c-.414.787-.745,1.616-.991,2.472.313.092.491.182.491.228,0,.2-.8.2-2.1.3-.6.1-1.4.2-2.2-.1l-1.4.3c.689.206,1.359.474,2,.8l1.9,1.1c1,.7,1.6,1.3,1.5,1.4-.2.3-2.8-1.3-6.3-2.4l-1.1-.3-1.8.7-2,1c-1.1.6-1.8,1-1.9.9s.4-.7,1.5-1.5l2-1.2.5-.2c-2.1-.5-3.7-.7-3.7-.9,0-.1.7-.2,2-.2l2.2.2,1.2.2.5-.1,2.8-.5h2.3c.336.026.636.065.9.111v-.011l1.2-2.6.5-1.3.2-.6.2-.6c-.018-.407-.085-.81-.2-1.2-.1-.4-.4-.8-.6-1l-.539-.18-.438-.146-.223-.074-1.3-.3-2.7-.2h-1.4l-1.3.1-2.251.346-.591.135-.958.319c-.157.09-.287.222-.375.38-.078.141-.115.299-.119.46l.394,2.56.2,1.3.2,1.3-.2.2c-.4.2-.5.1-.5,0l-.021-.278-.079.079c-.7,0-1.3.5-1.4,1.2l-.2,1-.2,1.1-.7,4.2v.1l-3.6,6.4-.9,1.6c-.173.246-.307.515-.4.8l-.3.8c-.2.6-.2,1.1-.2,1.7.043,1.177.546,2.29,1.4,3.1l1.4,1,1.7.5,1.8.2c2.4.2,4.9.1,7.3-.1.9-.2,1.8-.4,2.7-.8l1.3-.6,1.1-.8h.3l-.2.2-1.1.9-1.3.7c-.9.4-1.8.7-2.8.9-2.5.3-4.9.4-7.4.2l-1.9-.2c-.6-.1-1.3-.3-1.8-.6-.6-.3-1.1-.6-1.6-1.1-.485-.388-.873-.966-1.078-1.548.023.346.071.717.178,1.148.2.8.4,1.6.9,2.4s1.3,1.5,2.2,1.8c1,.4,2.1.5,3.3.6l3.7.1c1.3-.1,2.6-.1,3.8-.4,1.2-.3,2.4-.7,3.5-1.3,1-.6,1.8-1.5,2.1-2.6.262-.961.229-1.926.347-2.953l-.047-.047.1-.4.1-1.1v-1.6l.1-.9.2-.9c.317-1.112.824-2.161,1.5-3.1l.7-.9.3-.3c.1-.1.2,0,.3.1l-.2.3-.2.3-.5.9c-.4.8-1,1.9-1.4,3l-.2.8-.1.8-.06.953c.196-.474.416-.914.66-1.353.5-.9.9-1.7,1.5-2.3.3-.3.4-.6.5-.9v-2.7l.2-.2.1.3-.1,1.8v1c-.1.4-.2.8-.6,1.1-.5.5-.9,1.4-1.3,2.2-.4.9-.8,1.9-.9,2.9-.1,1,.1,2.3-.2,3.5-.164.668-.461,1.295-.873,1.845-.413.55-.932,1.011-1.527,1.355-1.169.698-2.458,1.172-3.8,1.4-1.4.3-2.7.3-4,.3s-2.6,0-3.8-.2c-1.2-.2-2.4-.3-3.5-.8s-2-1.3-2.5-2.1c-.5-.9-.8-1.8-.9-2.6l-.2-2.1.1-1.8c0-.118.073-.197.172-.246.05-.327.124-.642.228-.954l.3-.9.4-.8.9-1.6,3.7-6.4v.1l.8-4.2.2-1,.2-1.1c.2-.7.9-1.3,1.7-1.3l.075.075-.075-.976-.2-1.3-.6-2.6c0-.6.2-1.1.7-1.5l.7-.4.7-.3.071-.02-.171-1.779-.6-7.3c-.2-2.7-.3-5.6-.2-8.4l.1-4.3c.1-1.4.1-2.8.3-4.1l.4-3.9.092-.623c-1.642-.593-3.144-1.536-4.392-2.778l-.1-.2,1.2-25.2.4-6.3.5-6.3c.371-3.894.583-7.785,1.088-11.599h-.188v-.149l-.101-.05c.033-.028.07-.056.104-.084.01-2.233.202-4.375.396-6.516l.7-6.7c.2-2.2.5-4.4.6-6.7.266-2.19.333-4.399.2-6.6l.2-.2-.1.2.1,1.7v1.7l-.1,3.4-.6,6.7-.7,6.7-.3,3.3-.072,2.359c.015-.002.035.004.072.04v.1l-.01.205c1.164-.966,2.391-1.925,3.71-2.804l1.2-.6,1.3-.5c1.321-.439,2.73-.542,4.1-.3l.7.1.7.2,2.4,1c.8.4,1.6.6,2.4.8l2.5.5v.1h-.1c-1.7.1-3.5-.1-5.2-.7l-2.4-.9-.6-.2-.6-.1-1.2-.1c-1.264.024-2.514.261-3.7.7l-1.1.5c-1.476.787-2.854,1.864-4.136,2.851l-.564,11.848-.7,12.6-1.494,25.007c1.056,1.152,2.438,1.972,3.951,2.527l.533.183c.463.148.933.279,1.41.383,2.3.5,4.6.5,6.9.4,2.368-.175,4.718-.517,7.034-1.018,0,0,4.394-1.111,6.379-1.818l.987-9.964.9-10.1c.4-3.4.7-6.7,1.3-10.1l1-5,.7-2.4c.5-.9.8-1.7,1.4-2.4h.001Zm-12.72,42.135c-2.267.471-4.565.795-6.88.964-2.4.2-4.7.1-7.1-.3-.464-.085-.917-.205-1.364-.343l-.536,4.344c-.789,5.575-.756,11.235.1,16.8l.6,7.3.031,1.59.669-.191,1.4-.2h2.8l2.8.4,1.4.4.256.092.044-.191,1.6-7.1,1.8-8.2c.6-2.8,1.1-5.6,1.4-8.3l.5-3.8.48-3.265h0Zm38.92-185.536c-.2-.6-.7-1-1.1-1.3-.5-.3-.9-.4-1.4-.4-.4,0-.8.1-1,.3l-.5.4-.2.2.9-.4c.28-.136.589-.204.9-.2l1.1.5c.3.3.6.7.8,1.2l.2,1.6c0,1.2-.3,2.5-.6,3.7l-1.2,3.6c-.5,1.1-.9,2.2-1.4,3s-1,1.5-1.5,1.7h-.6c.2.1.4.2.7.1.6-.1,1.2-.8,1.8-1.6l1.6-3,1.4-3.7c.3-1.3.6-2.6.5-3.9,0-.6-.2-1.2-.4-1.8Zm-41.6,226.101l-.2-.8-.3-.7-.2-.6c0-.2-.2-.4-.4-.5l-.5-.2c-.1-.1-.3,0-.3.1l.2.2h.1l.1.2v.4l.1.6.2.7.3.8c.599,1.627,1.067,3.299,1.4,5v1.1l-.1.4v.2c0,.2.2.3.4.3s.3-.2.3-.4v-.4c-.102-1.551-.336-3.089-.7-4.6l-.4-1.8h0Zm-6,3.399l-2.2.1-1.9.4-1.8-.5c-.661-.112-1.33-.178-2-.2-1.1,0-1.8.2-1.8.3,0,.2,1.7.3,3.9.9l-1.5.7-1.9,1.2c-1,.8-1.5,1.4-1.4,1.5.2.2,2.6-1.6,6.1-2.7l.3-.1.2.1c3.1,1.2,5.1,3,5.3,2.8.1-.1-.3-.7-1.1-1.5-.806-.73-1.716-1.337-2.7-1.8,2.5-.5,4.4-.5,4.5-.7,0-.2-.7-.4-2-.5h0Zm40.6-188.2l-6.2-1.3-2-.4-.8-.2.7.3c2.595,1.048,5.27,1.884,8,2.5l3.3.8,2.8.8,1.1.4.8.4.4.4.1.1-.1-.2-.3-.5c-.534-.491-1.141-.896-1.8-1.2-1.5-.7-3.8-1.4-6-1.9h0Zm6.9,100.4l.8,7.6,1,8.7,1.4,16.3.6,5.4.2,2c.1.1.1,0,.1,0l.1-2.1-.2-5.4c-.3-4.5-1.1-10.4-1.8-16.3l-.9-8.7-.8-7.6-.6-5.3-.286-1.903c.195-.01.385-.202.385-.397,0-2.8-.3-5.6-.7-8.3l-1.1-8.2c-.2-1.4-.3-2.7-.3-4.1v-2l.1-2.1c-.1-1.4-.4-2.8-.8-4.1l-1.2-3.9c-.2-.7-.2-1.4-.1-2,.1-.6.5-1.1.8-1.8.4-.7.3-1.5.2-2.2l-.4-2c-.2-1.4-.3-2.7-.3-4.1l.1-4.1c.2-2.7.5-5.4.6-8.2v-4.1l-.5-4.1.1,3.6-.2,4.1-.7,8.2-.1,4.2c-.015,1.41.119,2.818.4,4.2.2,1.4.8,2.8.3,3.9-.3.6-.7,1.2-.8,2s0,1.5.1,2.2c.3,1.4.9,2.7,1.3,4,.4,1.3.8,2.6.8,4l-.1,2-.1,2.1.2,4.1.9,8.2c.267,2.493.522,4.907.577,7.313-1.162-.956-2.335-1.984-3.577-2.813l-1.2-.7-1.3-.5c-.9-.3-1.9-.5-2.8-.5l-1.4.1-1.4.3c-.866.246-1.703.581-2.5,1l-2.5.8-2.7.4v.1l.1.1,2.7-.1c.9-.1,1.8-.4,2.7-.7l2.5-.9,1.3-.2h1.3c.8,0,1.7.2,2.5.5l1.2.5,1.1.7,4.2,3.4.3.1v1.9l.4,5.4h0Zm-41.4-101.4l.7-.4-.7.3-2.1.4-6.3,1.2c-2.123.335-4.203.905-6.2,1.7-.9.3-1.5.7-1.9,1.1l-.4.5-.1.2.6-.5c.4-.3,1.1-.6,1.9-.8l6.2-1.3c2.3-.5,4.6-1,6.3-1.6l2-.8h0Zm56.4,200.701l-.1,2.2c-.118,1.074-.524,2.096-1.176,2.959-.651.862-1.523,1.533-2.524,1.941-2.497.75-5.093,1.121-7.7,1.1h-2.6l-.5-.1-1-.2c-1.43-.265-2.771-.884-3.9-1.8-.6-.5-1-1.1-1.3-1.7-.3-.7-.4-1.4-.5-2l-.1-1.9-.2-.8-.5-.6c-.8-.8-1.7-1.4-2.6-1.9l-2.4-1.5c-.4-.3-.6-.6-.7-1l-.1-1-.2-1.9.2-.2.4.3c.015.936.082,1.871.2,2.8.1.3.3.6.6.8l2.4,1.4c.9.5,1.9,1.1,2.8,1.9l.314.366c-.004-.023-.01-.043-.014-.066l-.3-1.9-.1-.5-.2-.4-.7-.7c-1.1-.9-2.4-1.6-3.4-2.2l-1.1-.8c-.141-.088-.275-.189-.4-.3v-.3h.3l.4.2,1.2.6c1.247.597,2.422,1.335,3.5,2.2.3.3.6.5.8.9l.3.6.1.6.1,1.9.2,1.3.1.5-.1.1h-.058l.158,1.5c.2,1.2.6,2.4,1.6,3.1,1,.8,2.2,1.2,3.5,1.5l1,.2.5.1h.5l2,.1c1.3,0,2.6,0,3.9-.2,1.2-.1,2.5-.3,3.5-.7,1-.4,1.9-1.1,2.4-1.9s.8-1.7.9-2.5l.049-1.02c-.215.515-.492,1.005-.849,1.42-.6.7-1.4,1.2-2.2,1.6l-1.3.4-1.3.2-2.6.3h-5.3c-.947-.174-1.882-.408-2.8-.7l-1.3-.6-1.2-.9v-.3c-.1-.3.1-.3.1-.2l1.1.8,1.3.5,2.7.6c1.7.1,3.5,0,5.2-.1l2.6-.3,1.3-.2,1.2-.4c.763-.286,1.444-.755,1.984-1.365.541-.61.924-1.343,1.116-2.135.085-.451.083-.909.027-1.367l-.027-.133c0-.008.003-.015.003-.023-.171-1.114-.685-2.216-1.303-3.177l-5.7-6.9-.381-.925c-.486.187-1.32.474-2.419,1.024.5.1,2.3,1.2,2.8,1.5,1,.6,1.5,1.2,1.4,1.3-.1.3-2.1-1.4-5.3-2l-.3-.1-.2.1c-2.6,1.5-4.1,3.6-4.3,3.4-.1-.1.2-.7.8-1.6.592-.834,1.339-1.547,2.2-2.1-2.3-.2-4,.1-4.1-.2-.1-.1.5-.4,1.6-.6l2-.2,1.8.1,1.5-.7c.6-.2.8-.3,1.3-.3.428-.043.766-.062,1.039-.06l-.839-2.039c-.269-.809-.581-1.573-.849-2.352l-.051.051-.5-.4-.4-3.4-.6-3.4c0-.3-.2-.5-.3-.7l-.3-.2-.4-.1-1-.2-1-.1h-.258c-.046.477-.795,0-.795,0h-.947l-2,.2c-1.3.2-2.7.5-4,1l-.9.4c-.2.1-.5.3-.6.6-.3.5-.4,1.1-.2,1.8.4,1,.8,2.1,1.3,3,.443.963,1.133,1.791,2,2.4.2.1.2.3.1.5-.1.2-.3.2-.5.1-.5-.4-.9-.8-1.2-1.3l-.9-1.4c-.226-.376-.417-.754-.597-1.136l-1.243-2.524-.06.06c-.622,0-.951.096-1.142.198l.642,3.302c0,.199-.1.298-.297.299l.097.501c0,.2-.1.3-.3.3-.053,0-.104-.021-.141-.058-.038-.038-.059-.089-.059-.142l-.081-.418-.119.119-.1.5-.5,3.6-.4,3.6v1.7l-.1.1-.1-.1-.2-1.7c-.054-2.728.248-5.451.9-8.1l.488-.391-.488-2.51c0-.2-.1-.4.1-.6.025-.05.075-.088.113-.132l-.013-.068c0-.2-.1-.4.1-.6.169-.338.641-.524,1.381-.577l-.081-.322c-1.216-5.282-2.35-10.583-3.4-15.9-.5-2.9-1.1-5.8-1.4-8.6l-.4-4-.448-3.135c-2.109-.222-4.128-.804-6.052-1.766l-.1-.2-.5-4.4-.7-4.3-1.2-8.8-.6-4.4-.5-4.4-.4-4.4-.3-4.4.1-.1h.1l.8,4.4.7,4.4.6,4.4.5,4.4.9,8.8.5,4.4.577,4.232c1.694.791,3.548,1.256,5.486,1.487l.402.051c.079.008.156.023.235.03,2.1.2,4.3.2,6.4,0,2.778-.26,5.532-.702,8.257-1.29l.857-.179c1.101-.252,2.197-.526,3.286-.831-1.073.4-2.163.746-3.259,1.066l.359,3.235.2,4.1.3,4.3.1,2.2v2.3c.084,5.023-.115,10.034-.475,14.177l.475.022,1.1.2,1.1.3.5.2.5.4c.3.3.4.7.4,1.2l.4,3.5.2,1.7.199,1.695c.285.833.641,1.644,1.001,2.506l.912,2.068c.144.026.254.063.288.131,0,.044-.063.09-.167.142l.467,1.059,5.8,6.8c.5.7,1,1.5,1.2,2.4.063.189.112.378.156.567.084.05.144.126.144.233l.1,1.9h0Zm-25.425-22.8l-.098-.39c-.815.053-.988.299-1.078.389v.15c.294-.098.688-.147,1.175-.149h.001Zm10.225-23.1l-.1-4.3-.4-4-.402-2.894c-4.824,1.312-9.831,1.859-14.84,1.597l.442,3.096.5,4,1.5,8.5,1.8,8.5,1.7,7.4.097.436c.068-.222.161-.438.303-.637l.9-.9,1-.5c1.3-.6,2.7-.9,4.1-1.2l2.1-.3.884.04.216-5.539.1-4.3.1-4.5v-4.5h0Zm5,28.4c0-.1-.1-.3-1.2-.1l-1.6.4-1,.4-.4-.1c-.9-.2-1.7-.2-2.5-.2l-2,.3c-1.2.2-1.8.6-1.8.7.1.2.8.1,1.9,0h1.7l1.3.1-1.6,1-1.6,1.3c-.9.8-1.3,1.4-1.2,1.5.2.3,2.3-1.6,5.3-3.1l.9-.4,1.7.5c.7.2,3.1,1.1,3.2,1,.1-.1-2.2-1.7-2.9-2l-.5-.2c1.8-.7,2.3-.9,2.3-1.1h0ZM153.6,7.545l-.1-.1-.1.1-.1,2.3v12.5c.1.4.2.9.5,1.2.5.7,1.3,1.1,2.2,1.1.8,0,1.5-.3,2-.9.3-.2.5-.6.6-.9l.2-1.1-.1-3.9-.1-7.8-.1-.1-.2.2-.1,7.8v3.9l-.2.8-.5.7c-.194.199-.428.355-.687.458-.258.103-.535.152-.813.142-.6,0-1.2-.3-1.6-.8l-.4-.9-.1-1.1-.1-4.5-.1-4.5v-2.3l-.1-2.3h0Zm-22.4,0l-.1-.1-.1.1-.1,2.3v12.4l-.4.9c-.175.267-.412.488-.691.644-.278.157-.59.244-.909.256-.6,0-1.1-.2-1.5-.6l-.5-.7-.2-.8-.1-3.9-.1-7.8-.2-.3-.2.2-.1,7.8v3.9l.2,1.1.6.9c.5.6,1.2.9,2,.9.9,0,1.7-.5,2.2-1.2.3-.4.4-.8.5-1.2v-1.2l-.1-4.5-.1-4.5v-2.3l-.1-2.3h0Zm1.1,76.6l-.1,3.5-.1.6-.2.4-.2.1h-.1l.1.1.4-.1.4-.4.3-.6.4-1.7.1-1.9-.2-3.6-.213-1.138c1.664,1.253,3.269,2.287,4.813,3.137,2,1,3.6,1.9,4.9,2.3.482.176.988.277,1.5.3h.4l1.1.1,1.049-.191c.007,0,.014-.002.02-.004l.031-.006.059-.02c.217-.048.432-.104.641-.18l2.1-1,2.5-1.6.77-.55-.07.351c-.2.9-.2,2.2-.2,3.4l.4,3.4.2,1.1.1.4.2-1.6v-3.4l-.2-3.3-.056-.618,1.656-1.183,3-2.5c2.096-1.914,3.883-4.141,5.3-6.6.6-1.3,1.1-2.8,1.5-4.1l1-4.1c.304-1.258.571-2.526.8-3.8l.341-2.981.059-.119.2-.5.6-1.5.9-1.3.4-.4.2-.1h-.3l-.6.1-.7.5-.6.8c-.026.039-.04.081-.064.121l.064-3.321v-2l-.6,2.1c-.1,1.2-.5,3-.9,5.1s-.6,4.6-.9,7.3l-.6,4.1c-.2,1.4-.7,2.7-1.3,4-1.3,2.5-3.1,4.7-5.2,6.4l-3.1,2.3-1.273.909-.027-.108-.03.149-1.47,1.05-2.4,1.7-1.9,1.1-.301.116c-.446.091-.922.184-1.399.184-.647.092-1.37.013-1.872-.078l-.828-.322c-1.2-.5-2.7-1.4-4.7-2.5-3.459-1.851-6.572-4.287-9.2-7.2l-2.6-3.5c-.8-1.1-1.5-2.4-1.9-3.8l-.7-4.2c-.3-2.8-.7-5.3-1.1-7.5l-1.1-5.3-.4-2h-.1l-.1.1v2l.223,4.006c-.061-.334-.161-.683-.323-1.006l-.6-.8-.7-.5-.6-.1h-.2l.1.1.4.4.9,1.3.6,1.5.2.5.1.2.1-.2.075-.45.025.45.5,3.6.837,3.627-.037.074-.6.4c-.3.2-.7.1-1-.1-.4-.2-.7-.6-1-1l-1.8-3.2-.8-1.9-.7-2-.5-2-.1-2c.1-.7.1-1.3.4-1.8s.7-.8,1.1-1l.7-.2.6.1,1,.5.7.6-.4-.6-1-.7-.7-.2-.8.1c-.6.2-1.1.6-1.5,1.2-.4.6-.5,1.3-.6,2-.011,2.19.396,4.363,1.2,6.4l.9,1.9c.7,1.2,1.4,2.3,2.1,3.1.4.4.8.8,1.2,1,.4.2.9.2,1.2,0l.481-.481.019.081,1.1,4.2c.708,2.954,2.273,5.633,4.5,7.7l3.2,2.9c.446.365.884.702,1.322,1.034l-.322,1.367-.1,3.5h0Zm-24.398-50.119c-.105-1.021.067-2.051.498-2.983.497-.911,1.266-1.645,2.2-2.1.891-.495,1.879-.695,2.772-.796l-.072-1.002c0-.4-.1-1,0-1.6l.1-2.1.2-1.2.3-1.3.7-2.7c.4-.9.7-1.9,1.2-2.8l1.5-2.7.9-1.3,1-1.2,1.1-1.1,1.1-1,1.1-.9,1.2-.7,1.1-.6,1.1-.5,2-.6,1.6-.3,1.4-.1v-.5c.1-.7.5-1.3,1-1.7.5-.4,1.2-.7,1.9-.7h1.8l7.1.1h8.6c.638.078,1.234.358,1.7.8.5.4.8,1,.9,1.6v.457c.888.197,1.791.321,2.7.344l2,.6,1.1.5,1.2.6,1.2.7,1.1.9,1.1,1,1.1,1.1,1,1.2.9,1.2,1.5,2.7,1.2,2.7.8,2.7.3,1.3.2,1.2.1,2.1v1.6l-.065.905c.958.115,1.891.383,2.765.794.934.455,1.703,1.189,2.2,2.1.2.5.4,1,.4,1.5l.1.4v1.2c-.1,1-.5,2-1.1,2.8l-2,2.2c-.786.59-1.573,1.178-2.36,1.578l-.04.222-.5,2-.5,1.8-.9,2.6-.4,1,.2-1.1.5-2.7.3-1.8.3-2,.3-2.2.029-.337c-.368-.522-.956-1.121-1.729-1.662-.429-.301-.903-.619-1.406-.933l.106.531.3,3.3v3.3l-.2,2.9-.4,2.8-.1-2.8-.1-2.9-.2-3.3-.4-3.2-.249-1.345c-.307-.159-.622-.313-.951-.453-4.239-1.81-8.72-2.989-13.3-3.5l-3.008-.301h-6.192c-.053,0-.104-.021-.141-.058-.038-.038-.059-.088-.059-.142l.4-.1,8.7-.1h6.6l2.2.1c1.576.081,3.132.351,4.639.789-.011-.031-.028-.059-.039-.09-.1-.2,0-.5.2-.6.1,0,.4,0,.5.2l.4.6.122.276c.881.316,1.744.687,2.578,1.125l.9.6.8.8c.107.125.183.27.278.404l.022-.504v-2.2l-.1-2c-.051-.306-.076-.637-.115-.955l-2.285-.245h-20.1l-5.7-.1-.1-.1.1-.1,5.7-.1,5.7-.1,11.5-.1h2.9l2.143.148c-.015-.048-.024-.103-.043-.148l-.4-1.5-.4-1.1-.4-.7c.1,0,0-.1,0-.1l.2.2c.1.1.4.3.5.6l.6,1.1.296.741-.096-1.539c-.1-.6,0-1.3-.2-2.1l-.2-1.2-.3-1.2-.8-2.6c-.4-.9-.7-1.8-1.2-2.6-.4-.9-1-1.7-1.5-2.6l-.9-1.2-1-1.1-1-1.1-1.1-1-1.1-.9-1.1-.7-1.1-.6-1.1-.5-2-.6-1.6-.3-.706-.05-.094.85-.1.1-.1-.1c-.049-.296-.05-.592-.062-.875l-.338-.024c-.053,0-.104-.021-.141-.059-.038-.037-.059-.088-.059-.141l.492-.246c-.02-.122-.047-.242-.092-.354-.1-.5-.4-1-.8-1.3-.369-.377-.872-.592-1.4-.6h-8.5l-7.1.1h-1.8c-.5,0-1,.2-1.4.5s-.7.8-.8,1.3l-.2,1.7-.2.1c-.1.1-.2,0-.2-.1l-.098-.878-1.102.079-1.6.3-1.9.6-1.1.5-1.1.6-1.1.7-1.1.9-1,1-1,1.1c-.3.4-.7.7-.9,1.2l-.9,1.2c-.5.8-1.1,1.7-1.5,2.6l-1.2,2.7-.8,2.6-.3,1.2-.2,1.2-.2,2.1-.1,1.6-.069.964.08-.008.188-.157-.073.145,2.372-.245h25.9l.2.2c.1.2,0,.2-.1.2l-23,.2-2.9.1c-.969.097-1.845.103-2.717.286l-.183.915v1.3l.2,3.4.034.216c.168-.288.355-.563.566-.816l.9-.8.9-.6c2.68-1.345,5.607-2.127,8.6-2.3l2.2-.1h6.6c3.001.016,6.001.082,9,.2l-.1.1-7.241.163-2.259.339c-4.074.658-8.07,1.716-11.949,3.118l-.151.68-.4,2.5-.2,2.9v2.9l.1,2.6.2,2.6-.2-.7-.5-1.8c-.577-2.828-.745-5.724-.5-8.6l.2-1.4.2-1.2.01-.038c-.037.014-.074.025-.111.039-1.4.6-2.6,1.4-3.6,2.1-.781.625-1.313,1.187-1.702,1.689l.002.01.3,2,.4,1.9.6,3.4.4,2.4.1.9-.3-.9-.8-2.3-.5-1.6-.5-1.8-.421-1.6h-.079l-2.5-1.6c-.817-.582-1.499-1.332-2-2.2-.613-.823-.992-1.797-1.098-2.818l.003-.005Zm6.015,1.795l.343,2.172c.342-.527.838-1.087,1.54-1.648.9-.8,2.2-1.6,3.6-2.3.152-.076.314-.141.47-.213l.33-1.189.2-.7c.1-.2.4-.4.6-.3s.4.3.3.5l-.1.7-.106.476c.928-.354,1.884-.667,2.806-.974,1.6-.5,3.2-.8,4.7-1.1l4.1-.7.022-.002h-5.822l-2.2.2c-1.5.1-2.9.4-4.3.7-1.4.4-2.8.8-4,1.6l-.9.6-.7.7c-.336.42-.665.916-.883,1.477h0Zm52.259-1.623l-.176-.953-.3-1-.283-.756c-1.661-.504-3.425-.762-5.117-.944l-2.2-.2h-8.745l2.745.201,4.2.6c1.5.3,3.1.6,4.7,1.1l4.5,1.6c.234.117.454.234.676.352h0Zm4.644,1.274c-.18-.473-.406-.927-.721-1.327l-.7-.7-.9-.6c-.593-.371-1.224-.68-1.878-.94l.378,1.04.3,1.4.108.54c.616.37,1.181.753,1.692,1.162.707.565,1.205,1.129,1.547,1.659l.153-1.76.021-.473h0Zm.646-6.867l.233.839.3,2.1c.2,1.5.1,3,0,4.6-.034.271-.057.541-.079.808.028.363.023.729-.021,1.092,0,.479-.075.92-.176,1.349,1.319-.839,2.53-1.88,3.376-3.149.518-.747.86-1.602,1-2.5v-1.3c-.073-.45-.208-.887-.4-1.3-.42-.791-1.087-1.424-1.9-1.8-.721-.36-1.523-.557-2.333-.739h0Zm-62.767,5.439c.1.8.5,1.7,1,2.5.852,1.279,2.144,2.326,3.497,3.168-.112-.483-.197-.956-.197-1.468,0-.224,0-.44.006-.653l-.406-3.246v-1.8l.1-1.7c.162-.648.359-1.286.561-1.923-.785.178-1.562.373-2.261.723-.8.4-1.5,1-1.9,1.8s-.5,1.7-.4,2.6h0Zm42.3,8.2v.2c3.454-1.688,8.748-.686,11.111-.686-4.067-2.418-8.849-2.515-11.111.486h0Zm-11.967,31.5c-.1,0-.1.1,0,0h0Zm4.667,1.2l-.4.3-.2.1c0,.1,1,.1,2.1-.1l2-.1-.2-.1-.5-.2c-.952-.136-1.893-.354-2.8.1h0Zm-4.667-1.2l.1.2c2.756,1,6.656-1.661,9.467-.1l.3.2v-.1l-.2-.4c-1.252-3.755-7.105.561-9.667.2Zm-2.433-31.4c0-.2-.1-.2-.2-.1l-.5.2-1.2.4-.8.2-.9.3-2,.8-4,.9-1.9.2-.1.1.1.1,1.9.3c1.2.1,2.7.1,4.3-.1l2.3-.4c.355-.072.694-.207,1-.4l.9-.6c.5-.5.9-.9,1-1.3l.1-.4v-.2h0Zm6.5,25.001l2.5-.6.5-.1.2-.1.4-.1c.3-.2.5-.5.5-.8l-.1-.4-.1-.2-.6-.7v1.1h-.5l-.5.1c-.7.2-1.4.6-1.8,1-.4.4-.5.8-.5.8h0Zm2.9-4.802l.3.5-.1-.5-.2-1.3c-.143-2.704-.343-5.404-.6-8.1l-.1-1.4-.1-.5-.1.3-.3,1.4c-.422,2.777-.217,5.613.6,8.3l.6,1.3h0Zm-13.1-5.5c1.1-.1,1.9-1.3,1.8-2.7-.1-1.4-1.1-2.4-2.2-2.3-1.2.1-2,1.3-1.8,2.7.1,1.4,1.1,2.4,2.2,2.3Zm-5.1-2.7c.037-.111,0-.3,0-.3l.2-.9c.2-.8.7-1.9,1.9-2.7.6-.4,1.3-.7,2.1-.8.8,0,1.6.1,2.3.6s1.3,1.1,1.7,1.9c.4.8.6,1.7.5,2.6,0,.9-.2,1.8-.7,2.6-.4.8-1.1,1.5-1.9,1.9-.4.2-.8.4-1.3.4l-.6.1-.7-.1c-.8-.1-1.6-.5-2.1-1-.867-.782-1.433-1.844-1.6-3l-.1-1c.3-.1.248-.143.3-.3Zm.9-.3l.1.3v.3l.1.8c.1.6.5,1.6,1.3,2.4.4.4.9.7,1.5.8l.4.1h.5c.354-.01.699-.113,1-.3.6-.3,1.2-.8,1.6-1.5.4-.7.7-1.4.7-2.3,0-.8-.1-1.6-.4-2.4-.3-.7-.8-1.4-1.5-1.7-.6-.4-1.4-.6-2.1-.5-.6.1-1.3.4-1.7.8-.738.607-1.235,1.458-1.4,2.4l-.1.8h0Zm27.1-2c-1.1-.1-2.1.9-2.2,2.3-.1,1.4.7,2.6,1.8,2.7,1.1.1,2.1-.9,2.2-2.3.2-1.4-.6-2.6-1.8-2.7Zm4.2,1.1l.2.9.3.3v.3l-.1,1c-.167,1.156-.733,2.218-1.6,3-.5.5-1.3.9-2.1,1l-.7.1-.6-.1c-.45-.073-.887-.208-1.3-.4-.795-.448-1.452-1.105-1.9-1.9-.4-.8-.6-1.7-.7-2.6,0-.9.1-1.8.5-2.6s1-1.5,1.7-1.9c.688-.428,1.49-.638,2.3-.6.8.1,1.5.4,2.1.8.921.659,1.591,1.611,1.9,2.7h0Zm-.5,1l-.1-.8c-.165-.942-.662-1.793-1.4-2.4-.466-.442-1.062-.722-1.7-.8-.7-.1-1.4,0-2.1.5-.6.4-1.2,1-1.5,1.7s-.5,1.5-.4,2.4c.1.8.3,1.6.7,2.2.4.7,1,1.2,1.6,1.5.3.2.7.2,1,.3h.5l.4-.1c.6-.1,1.1-.5,1.5-.8.8-.8,1.1-1.7,1.3-2.4l.1-.8.1-.2v-.3h0Zm-25,39.5l1.2.6,1.5.6,1.7.5c.6.1,1.2.3,1.9.3l2,.1,2-.1c.7,0,1.3-.2,1.9-.3,1.2-.2,2.3-.6,3.2-1l1.2-.6.9-.5.8-.5-.8.3-2.2.7-1.5.4c-.565.109-1.132.209-1.7.3l-1.8.2-1.9.1-1.9-.1-1.8-.2-1.7-.3-1.5-.4-2.2-.8-.8-.3.6.5.9.5h0Z"/>
  <g>
    <path class="cls-4" d="m226.389,99.312l.185,6.225c.304,10.264-5.052,19.867-13.945,25.002-8.715,5.031-19.465,4.982-28.134-.129l-3.62-2.134-82.297,47.514c-3.028,1.748-6.627,2.222-10.004,1.317-7.033-1.885-11.207-9.114-9.322-16.147.905-3.377,3.115-6.257,6.143-8.005l82.298-47.514-.039-4.202c-.092-10.063,5.24-19.397,13.956-24.429,8.893-5.134,19.887-4.971,28.624.424l5.299,3.273-19.069,11.009-3.974,14.831,14.831,3.974,19.068-11.009Z"/>
    <path class="cls-9" d="m92.007,177.938c-1.178,0-2.362-.155-3.53-.468-7.222-1.937-11.522-9.386-9.587-16.606.938-3.499,3.182-6.422,6.318-8.233l82.109-47.404-.037-3.983c-.094-10.181,5.325-19.667,14.144-24.757,9.026-5.21,20.142-5.046,29.009.43l5.833,3.603-19.479,11.246-3.837,14.319,14.319,3.836,19.477-11.245.204,6.853c.308,10.417-5.107,20.126-14.133,25.338-8.816,5.09-19.742,5.04-28.512-.13l-3.432-2.023-82.107,47.405c-2.089,1.206-4.409,1.821-6.758,1.822Zm103.56-104.498c-4.747,0-9.498,1.229-13.77,3.695-8.584,4.955-13.86,14.19-13.769,24.101l.041,4.421c-27.011,15.915-54.021,31.83-81.032,47.745-1.397.883-4.735,3.286-5.934,7.566-1.869,6.67,2.487,14.226,7.567,15.778,1.103.337,2.899.592,4.885.347,1.682-.208,3.322-.754,4.834-1.627,27.32-16.536,54.641-33.072,81.961-49.608,2.595,2.034,9.733,7.049,19.038,6.626,0,0,6.694-.179,12.511-3.363,8.836-4.837,14.305-16.248,14.131-29.17l-18.658,10.772-15.343-4.111,4.11-15.343,18.66-10.773-4.765-2.943c-4.436-2.739-9.451-4.113-14.47-4.113Z"/>
  </g>
  <path class="cls-7" d="m182.827,81.303c7.075-4.085,15.735-4.172,22.862-.309l-14.122,8.153-5.621,20.978,20.978,5.621,14.122-8.153c-.217,8.104-4.623,15.56-11.698,19.644-7.311,4.221-16.327,4.18-23.599-.108l-5.881-3.467-84.571,48.827c-1.994,1.151-4.365,1.463-6.589.867-4.632-1.241-7.382-6.003-6.14-10.635.596-2.225,2.051-4.121,4.046-5.273l84.571-48.827-.062-6.827c-.077-8.441,4.395-16.271,11.705-20.491h-.001Z"/>
  <path class="cls-5" d="m90.986,152.089l73.576-43.627c.238-.142.546-.061.684.179h0c.137.237.056.541-.182.679,0,0-74.078,42.769-74.078,42.769Z"/>
  <g>
    <path class="cls-6" d="m203.572,130.847c-.457-1.058-1.195-1.525-3.574-.147-.176.102-.329.212-.472.324.446-1.064.669-2.046.507-2.421-.457-1.059-1.85-1.254-3.586.878-1.097,1.347-1.01,2.431-2.248,2.554,1.133-1.492,2.034-3.385,1.79-3.95-.457-1.059-.558-1.737-2.938-.359-1.739,1.007-2.282,3.518-4.279,3.943-.549-.682-.488-.595-.245-2.343.377-2.723-.334-3.231-1.487-3.254-.923-.019-1.592,2.248-1.858,4.203,1.357,1.504,1.391,1.973,2.715,2.288.978,1.836.88,1.638,4.544,1.191.004-.002.009-.006.013-.009.579.489,1.285.733,2.351.77.949.97,2.156,1.195,4.887.862,1.71-.984,4.246-3.683,3.88-4.53Z"/>
    <path class="cls-9" d="m197.707,135.646c-1.413,0-2.257-.31-2.956-1.007-1.014-.042-1.736-.276-2.327-.756-.342.042-.65.082-.93.117-2.65.34-2.781.355-3.681-1.328-.992-.246-1.287-.604-1.92-1.372-.209-.253-.469-.568-.805-.94l-.039-.043.008-.058c.271-1.993.951-4.311,1.971-4.311h.015c.614.012,1.011.161,1.286.483.426.499.528,1.425.322,2.914l-.068.479c-.167,1.162-.172,1.197.238,1.708,1.035-.254,1.659-1.104,2.318-2.004.525-.716,1.068-1.457,1.849-1.908,1.159-.671,1.842-.896,2.29-.746.391.131.557.526.749.983l.077.181c.263.609-.598,2.403-1.615,3.817.492-.148.696-.53,1.003-1.104.202-.378.453-.85.858-1.347.975-1.197,1.967-1.79,2.762-1.682.464.064.831.36,1.036.834.176.408-.044,1.304-.351,2.122.046-.029.092-.057.138-.083,1.3-.752,2.197-1.008,2.818-.802.401.132.689.443.934,1.007h0c.415.964-2.223,3.704-3.933,4.688l-.048.016c-.776.095-1.434.145-2,.145Zm-5.255-2.046l.083.05c.571.484,1.252.705,2.273.74l.051.002.034.036c.918.938,2.119,1.148,4.759.828,2.062-1.672,4.207-3.631,3.805-4.359-.026-.046-.112-.18-.622-.293-1.619-.359-3.075.47-3.61.812l.185-.44c.451-2.023.134-2.471-.086-2.596-.72-.413-3.049,1.109-3.611,2.487-.075.183-.291.756-.84,1.088-.177.107-.391.179-.661.205l-.285.028.173-.229c.395-.346,1.14-1.108,1.387-2.284.094-.447.327-1.554-.267-2.038-.679-.552-1.945.112-2.107.197-.845.444-1.146.987-1.771,1.839-.674.918-1.369,1.868-2.543,2.118l-.075.016-.049-.06c-.527-.655-.52-.704-.339-1.961l.067-.478c.006-.193.041-1.62-.486-2.413-.15-.226-.461-.696-.88-.699-.004,0-.007,0-.009,0-.757,0-1.432,2.018-1.715,4.038.321.358.57.661.772.906.645.782.886,1.074,1.841,1.301l.055.013.026.05c.369.694.577,1.083.914,1.273.139.079.516.247,2.541-.026.411-.055.751-.111.989-.151Z"/>
  </g>
  <g>
    <path class="cls-6" d="m101.413,172.195l-.027-.006c-1.103-.25-1.429-.324-3.215,1.738h0c-.671.775-.762,1.248-1.062,1.544.539-1.674.804-3.702.804-4.837,0-1.154-2.159-.583-3.104,1.999-.546,1.489-.446,2.714-1.062,3.342-.175.004-.377.007-.571.01.123-2.155-.271-4.904.052-5.602.493-1.066-2.181-1.958-2.831.713-.465,1.914.05,4.234-.72,5.599-1.413-.978-1.194-.432-1.61-2.539-.532-2.697-1.369-2.945-2.467-2.591-.879.283-.772,2.644-.386,4.579.83,1.747,1.511,2.306,2.915,1.912,1.46,1.189,3.182,1.687,4.395.307.889.873,1.726.935,2.552.317.996.354,2.32-.192,4.745-1.864,1.295-1.488,2.319-4.456,1.591-4.621Z"/>
    <path class="cls-13" d="m90.757,179.326c-.809,0-1.714-.379-2.656-1.133-1.533.4-2.238-.395-2.999-1.996-.405-2.011-.519-4.437.461-4.751.585-.188,1.008-.177,1.373.037.565.333.964,1.174,1.254,2.648l.093.48q.228,1.186.838,1.568c.139.088.306.192.51.331.361-.74.382-1.755.404-2.825.018-.876.037-1.782.24-2.62.329-1.35,1.115-1.716,1.554-1.813.541-.122,1.122.044,1.411.402.187.231.224.516.101.78-.168.364-.122,1.445-.073,2.589.039.901.083,1.917.04,2.834.132-.002.263-.004.384-.007.308-.344.416-.879.551-1.551.103-.508.219-1.084.449-1.711.703-1.92,2.089-2.767,2.811-2.636.335.06.536.313.536.68,0,.986-.197,2.594-.576,4.062.109-.185.246-.397.442-.644h-.008l.179-.207c1.761-2.035,2.145-2.05,3.336-1.777v.128l.028-.122c.098.022.228.092.295.296.265.812-.721,3.267-1.819,4.529l-.023.021c-2.465,1.699-3.776,2.226-4.795,1.9-.848.607-1.711.511-2.567-.277-.5.523-1.104.784-1.774.784Zm-2.598-1.408l.05.041c.373.249,1.648,1.03,3.181.711.414-.086.762-.235,1.041-.389l.087-.1.094.093c.26.146.734.367,1.364.408.426.028.781-.036,1.026-.101l.053-.041.063.022c.513-.06,1.108-.172,1.752-.374,1.26-.395,2.218-.984,2.867-1.466,1.108-1.282,1.98-3.602,1.76-4.275-.036-.111-.09-.125-.112-.13l-.027-.006c-1.048-.235-1.345-.305-2.993,1.58l-.101.117c-.374.432-.562.765-.713,1.033-.119.211-.213.378-.355.518l-.363.357.156-.484c.524-1.627.798-3.646.798-4.799,0-.245-.114-.396-.329-.434-.627-.112-1.885.707-2.533,2.476-.223.608-.337,1.175-.438,1.675-.148.736-.266,1.318-.652,1.713l-.036.036h-.051c-.162.005-.346.008-.527.01l-.18.003.007-.134c.054-.939.008-2.004-.032-2.943-.055-1.276-.098-2.285.096-2.705.105-.228.021-.407-.069-.518-.231-.287-.708-.414-1.162-.316-.383.086-1.069.411-1.366,1.629-.197.813-.216,1.704-.233,2.566-.023,1.162-.046,2.261-.5,3.064l-.067.119-.113-.078c-.254-.176-.456-.303-.617-.404-.703-.441-.712-.489-.951-1.732l-.093-.479c-.272-1.38-1.447-2.376-1.958-2.211-.732.235-1.054,2.123-.65,4.149.16.897.742,1.618,1.519,1.851.573.172,1.079.028,1.302-.053Z"/>
  </g>
</svg>