<svg xmlns="http://www.w3.org/2000/svg" viewBox="0 0 300 300"><path fill="#5F6872" d="M155.1 106.7c1.8-4.4 3.8-8.9 6.9-12.6 1.1-1.3 2.6-2.6 4.3-2.7 2.6-.1 4.5 2.3 6.5 3.9 2.1 1.6 4.7 2.4 7.1 3.5 2.4 1.1 4.8 2.7 5.7 5.2.8 2.3.3 4.8-.3 7.2-3.7 14.7-4.4 29.6-8.1 44.4-1 3.9-5 7.8-7.3 11.1-2.7 4-7.3 6.7-12.1 6.9-4.8.2-9.7-2.3-12.2-6.4a21.5 21.5 0 01-2.4-11.5c0-16.9 5.4-33.4 11.9-49z"/><path fill="#7B838B" d="M170 82.5v4.8l.1 1c.2.5.6.8 1.1 1.1 3.6 2.3 8.3 2.1 12.6 1.7 1.6-.1 3.5-.6 3.8-2.1v-1.3c-.3-3 .5-6.1 2.1-8.6-5.9-.7-11.8-.6-17.7-.4l-.8.1-.5.5c-.7 1-.7 2.1-.7 3.2z"/><path fill="#5F6872" d="M204.1 88c.4 1.3.6 2.7.5 4.1-.1 1-.1 2.6-.7 3.4-.7.9-2.4 1.7-3.4 2.2-1.1.6-2.3 1.2-3.5 1.6-2.6 1-5.3 1.7-8 1.7a40.7 40.7 0 01-17.5-4.6c-1.1-1.1-1.3-2.8-1.1-4.3.2-1.5 1.1-2.9 1.2-4.4 3.7 1.9 7.8 2 11.6.5l5.4-2c4.1-1.1 13.6-4 15.5 1.8z"/><path fill="#58626D" d="M171.1 88.5c.5-.7 1.2-1.7 2.1-1.4-.2 3-.9 6.1-2 8.9 1.1 0 2.5.3 2.7 1.4a217.4 217.4 0 00-1.8 8.8c-.8 3.7-1.6 7.3-1.9 11.1-.1.8-.1 1.7-.4 2.5-.6 1.8-2.2 3.2-2.5 5.1-1-6 1.8-12 2.4-18.1.2-1.7.2-3.4.2-5.1 0-1 0-2.1-.4-3-.5-1.1-1.5-1.9-1.9-3.1-.4-1.3.1-2.7.9-3.8.8-1.3 1.8-2.2 2.6-3.3z"/><path fill="#7B838B" d="M124.3 222v6.9c-.1 2.3-1.5 14-.6 25s.9 14.4 1 16.9c0 1.8 1 3.6 2.6 4.1 1.6.6 4.3-.8 5.2-2.3 0 0 4.3-15.1 5-21.1.7-6 2.3-10.1 2.1-13.3-.2-3.3.3-9.8.4-13.9"/><path fill="#444F5B" d="M133.9 234.7c1.3.2 2.7.5 3.6 1.5.9 1.1 1 2.7 1 4.1-.1 1.4-.7 4.7-.1 6 1.3-3.6 1.2-9.9 2-13.2-5.4.5-11.1 1-16.1-1.1-.7 2.5-1 7.2-.9 9.7 1.2-8.6 3.8-7.5 4.5-7.5 2 .1 4 .2 6 .5z"/><path fill="#7B838B" d="M176.8 221.4l.5 6.9c.2 2.3 2.5 14.6 1.6 25.6-.9 11-1 13.4-1 15.9 0 1.8-1.1 3.6-2.7 4.1s-4.4-.8-5.4-2.3c0 0-3.8-13.1-4.5-19.1-.7-6-1.6-10.3-1.4-13.5.2-3.3-1.8-10.6-1.9-14.7"/><path fill="#444F5B" d="M164.6 246.3c0 .5.2.9.1 1.4-.2-2.5-1.1-4.8-1.5-7.3-.5-3.4-.7-6.9-.7-10.3l8.6-.3c1.6 0 3.2-.1 4.7.5s2.8 2 2.7 3.5c-1 1.4-3 1.7-4.7 1.8l-4.9.3c-.8.1-1.6.1-2.3.6-.9.6-1.3 1.8-1.5 2.9-.3 2.2-.6 4.6-.5 6.9z"/><path fill="#23303E" d="M177.2 224a210.1 210.1 0 00.6 4.2l.3 2.9.5 3.4.4 3.9.3 4.1.1 4.3c.1 2.9 0 5.8-.2 8.4l-.6 7.3-.5 5.2-.2 2s0 .1-.1 0l-.1-2 .1-5.2.6-7.3a57.5 57.5 0 00.1-16.8l-.9-7.3-.2-2.9-.1-2.3-.1-1.9zM169.6 271.6l-.5-1.9-1.3-5-1.7-7.1-.9-4-.8-4.2c-.5-2.8-1-5.6-1.3-8.3l-.4-3.8-.5-3.4-.7-5.1-.1-2 .1-.1.1.1a29.1 29.1 0 00.9 7.1l.5 3.4.5 3.8a361.3 361.3 0 003.2 16.5l1.6 7.1 1.6 7-.1.2-.2-.3zM124.8 224v2.1c0 1.3 0 3.2-.2 5.4l-.5 3.6-.4 4-.1 4.3v4.5l.1 4.5.1 4.3.3 7.7.2 5.4v2.1l-.1.1h-.1l-.3-2-.5-5.4c-.4-4.5-.7-10.5-.7-16.5v-2.3l.1-2.2.3-4.3.2-4.1.4-3.6.2-3.1.2-2.4.8-2.1c-.1 0-.1 0 0 0zM132.3 272.5l1.6-7.2 1.7-7.4 1.8-8.5a153 153 0 001.5-8.5l.5-4 .5-3.5a58 58 0 001-7.3l.1-.1.1.1-.1 2c-.1 1.3-.3 3.1-.7 5.3l-.5 3.5-.4 4-1.4 8.6-1.7 8.5-1.7 7.4-1.3 5.2-.5 2c0 .1-.1.2-.2.1-.3 0-.4-.1-.3-.2z"/><path fill="#67707A" d="M149.7 191.8c3.5 4.8 4.4 29.4 5.9 40 0 0 19.7 7.2 26.9-.7 0 0-2.1-38.1-3.5-45.8-2.7-1.2-1-8.4-1.9-11.3-.9-2.9-4.2-2.8-6-5.1-2.5-3-6.6-4-10.4-4.7-5.5-1-11-1.7-16.6-2.1-3.5-.3-17.5-2.9-18.2.5-.9 4.2-.5 5-.9 8.4 0 0-3.3 35.5-4.3 42.9-1.3 9.5-.9 16.8-.9 16.8s16.5 6 26.2 1.2l4.4-35.2"/><path fill="#58626D" d="M146 230.7c-.1.6-3.2 1.2-3 1.1.7-.6 2.4-15.5 2.8-21.6.4-7 .6-10.1 2.1-16.8 1.2 6.5 1.7 9.4 1 16-.4 2.5-2.4 18.6-2.9 21.3zM155.6 229.7c.2-1.7-2.6-27.7-5.1-38.6 1.5 6.4 8.6 36.8 9.1 38.3l.1.2c2.1 1.4 4.9 2.5 6.7 3.2 2.6 1.1 5.4 1.4 8.2 1.8-7.9.3-12.6-1.2-17.5-2.5-.3-.1-.7-.2-.9-.4l-.9-.1.3-1.9z"/><path fill="#58626D" d="M144.9 228.8c-1.8 2.2-4.2 4-6.8 5 2.2.2 4.5-.1 6.6-1 .5-.2 1-.5 1.2-.9l.1-1.1-.2-3M141.6 188.5c.8-.5 1.8-.3 2.6.3s1.2 1.3 1.9 2c.6.7 1.5 1.2 2.4 1.1 1.5-.4-.4-3.3-2.6-5.8.6-.4 1.4.1 1.9.5a70 70 0 014 3.7c.4.4.7.8.7 1.4l-.3.9c-2 3.7-2.2 7.7-3.2 11.7.1-3.9-1.4-8.3-3.3-11.6-.8-1.4-3.1-3.5-4.1-4.2z"/><path fill="#58626D" d="M144.7 195.2c-.4.2-.2.8 0 1.2 1.1 2 1.7 4.2 1.8 6.5 0 .8.1 1.6.7 2.1.4-1.7.6-3.4.8-5.2.2-1.5.3-3.3-.8-4.3-.7-.3-1.4-.4-2.1-.4l-.4.1z"/><path fill="#FFF" d="M142.1 80l16-50.9-48.8-6.5-20.5 43.8z"/><path fill="#394552" d="M88.8 66.1l24.6 23.8 43.6 5.5-14.9-15.7z"/><path fill="#545E69" d="M158.1 28.8L186.6 51 168 98.7l-11-3.3-14.9-15.7z"/><path fill="#2E3B48" d="M67.4 145.8l29.6 9.5 66.2-6.5-51.9-14.1z"/><path fill="#46515D" d="M67.4 89.5l44.7-10.6-.8 55.8-43.9 11.1z"/><path fill="#394552" d="M170.9 98.2l-58.8-19.3-.8 55.8 51.9 14.1zM161.7 181.8l-37.5-9.6-51.2 2.5 18.4 7.9z"/><path fill="#5C6670" d="M73 174.7l2.8-35 52.9-2.2-4.5 34.7z"/><path fill="#545E69" d="M168 149.4l-6.3 32.4-37.5-9.6 4.5-34.7z"/><path fill="#5A646F" d="M83.4 85.7v16.5l9.8-2V83.4z"/><path fill="#6A727C" d="M121.6 74.5l1.3 5.2-7.6-1.8-3.5-5.9z"/><path fill="#FFF" d="M115.3 61.4l10 2.4-3.7 10.7-9.8-2.5zM129.3 24.9l-1.6 5 10.2 2.7 1.7-6.3z"/><path fill="#FFF" d="M142.1 80l16-50.9-48.8-6.5-20.5 43.8z"/><path fill="#5C6670" d="M142.1 80l16-50.9-48.8-6.5-20.5 43.8z"/><path fill="#58626D" d="M161.8 182.1c-7.8 3.5-20.1 1.7-28.7 1.8-2 0-4.2.2-5.6 1.7-1 1-1.4 2.5-1.7 3.9l-2.3 9.6-.8 3.2c.3-6 .6-12.1 1.5-18.1.1-.6.2-1.3.6-1.8.7-1 2.1-1.1 3.3-1.1l31.5-.5"/><path fill="#444F5B" d="M180.5 198.7c-2.3-5.9-2.5-12.4-3.7-18.6-.1-.4-.2-.9-.5-1.3l-1-.7-11.8-5.6 14.5 2.4c.2 0 .5.1.6.3.2.2.2.5.2.7.1 6.7.4 13.5.9 20.2"/><path fill="#4F5A65" d="M188.1 80.6c-.5.8-1.4 1.1-2.3 1.4a34.7 34.7 0 01-9.1 1.7c-.5.2-.8.7-1.1 1.2l-2 3.3c-.5-.2-1.1-.6-1.1-1.1 0-.5.3-1 .5-1.5.4-.9 1-3.2 1.8-3.8 1-.7 3.1-.2 4.2-.1 2 .1 4.1-.1 6.1-.6l1.4-.4 1.3-.4"/><path fill="#5F6872" d="M164.1 172.5l15.1 3.7s-1.1-9.8-.3-20.5 5.8-32 5.8-32"/><g><path fill="#23303E" d="M149.7 191.8c.5.7.8 1.5 1.1 2.3l.7 2.4 1 5c.6 3.3.9 6.7 1.3 10.1l.9 10.1 1 10.1-.2-.2a56 56 0 0013.6 2.9c2.3.1 4.7.1 6.9-.4s4.4-1.5 6-3.2l-.1.2-2.2-30.9-1-15.4-.9-15.4.1-.1h.1c.7 5.1 1 10.3 1.5 15.4l.6 7.7.6 7.7 1.9 30.9-.1.2a12 12 0 01-6.3 3.3 24 24 0 01-7.1.3 53.6 53.6 0 01-14-3.1 173 173 0 01-1.1-10.1l-.9-10.1c-.3-3.4-.7-6.7-1.2-10.1l-.8-5-.6-2.4a5 5 0 00-.8-2.2c0-.1 0-.1 0 0z"/><path fill="#23303E" d="M120.7 231l6.3 1.5a44.8 44.8 0 0012.8.9c2.1-.2 4.2-.7 6.2-1.6l-.1.2.6-4.4.5-4.4.9-8.8.5-4.4.6-4.4a67 67 0 011.5-8.8h.1v.1c0 1.5-.2 3-.3 4.4l-.4 4.4-.5 4.4-.6 4.4-1.2 8.8-.6 4.4-.5 4.4-.1.2c-2 1-4.1 1.6-6.3 1.8a35.4 35.4 0 01-12.9-.9c-2.4-.8-4.5-1.4-6.5-2.2zM124.1 182.7l-.1 2-.4 5.4-.8 7.6c-.3 2.8-.7 5.7-.9 8.7l-1.3 16.3-.6 5.3-.2 1.5-.1.5s0 .1-.1 0v-.1-.5l-.1-1.5c0-1.3 0-3.2.2-5.4.3-4.5 1-10.3 1.7-16.2l.8-8.7.8-7.6.7-5.3.4-2zM189.1 80.2l-.1.3-.3.7-.4 1-.3 1.2-.4 2.3-.1 1.1-.4-1.1c-.1-.7-.2-1.6.1-2.5l.2-.6.3-.6.3-.5.3-.4.6-.6.2-.3z"/><path fill="#4F5A65" d="M175.4 174.9a78.5 78.5 0 01-8.8-4.7c-.3-.5-.2-1.2-.1-1.8.9-3.9 2.2-7.6 2.7-11.5 1.8-12.2 14.6-26 13.2-27.2-2.5 3.4-6 5.9-9 8.8s-5.7 6.7-5.7 10.9c0 .8.1 1.5-.1 2.3-.1.6-.5 1.2-.7 1.8-.6 1.4-.9 3-1.1 4.6l-2.2 14.9c2.2-.3 4.5 0 6.6.7 2 .7 3.4 1.9 5.2 1.2z"/><path fill="#23303E" d="M142.1 80l7.8-25.5 7.9-25.5.3.5-48.9-6.5.5-.3-20.1 44-.2-.5 26.4 6.9 26.3 6.9zm0 0l-26.5-6.5-26.4-6.6c-.2 0-.3-.2-.3-.4v-.1l19.9-44c.1-.2.3-.3.5-.3l48.8 6.7c.2 0 .3.2.3.4v.1l-8.1 25.4-8.2 25.3z"/><path fill="#23303E" d="M154.4 92.6l-6.3-6.3-6.2-6.4-.1-.3 1.9-6.4 2-6.4 4-12.7 4-12.7 4.1-12.7.3-.2h.1l13.3 10.7L157.9 29l.4-.1-3.8 12.8-3.9 12.7-4 12.7-2 6.4-2.1 6.3-.1-.3 6 6.5 6 6.6zM67.8 145.9a11.6 11.6 0 004 .8l2.5 1 1.1.6-1.3-.1a21.8 21.8 0 01-5.2-1.7l-1.1-.6zM74.6 144l-7.1 1.9-.1-.1-.1-14.1-.1-14.1-.2-28.1c0-.2.1-.4.3-.4l22.3-5.4 22.3-5.3c.2-.1.5.1.5.3v.1l-.5 27.9-.6 27.9-.1.2-15.6 3.8 15.5-4.1-.1.2.2-27.9.3-27.9.5.4-22.3 5.4L67.4 90l.3-.4-.1 28.1-.1 14.1-.1 14.1-.1-.1 7.3-1.8z"/><path fill="#23303E" d="M163.5 146.7l3.5-24.3 3.6-24.3.3.4-29.5-9.5-29.4-9.7.5-.4-.5 27.9-.3 13.9-.3 13.9-.1-.1 10.9 3.1-10.9-2.9-.1-.1.1-14 .1-14 .3-27.9c0-.2.2-.4.4-.4h.1l29.4 9.7 29.4 9.7c.2.1.3.2.3.4l-3.9 24.2-3.9 24.4zM123.4 172.3l-25.2 1.5-25.2 1.3.1-.7 18.4 7.8h-.2l17.6-.2 17.6-.2 35.1-.3-.1.6-18.7-4.9-18.7-4.9h-.3.3l18.8 4.6 18.7 4.6c.2 0 .3.2.2.4l-.3.2-35.1.5-17.6.2-17.4.2h-.2l-18.4-7.9c-.2-.1-.3-.3-.2-.5l.3-.2 25.2-1.1 25.3-1z"/><path fill="#23303E" d="M73.1 173.1l1.2-16.7 1.2-16.7c0-.1.1-.3.3-.3l26.4-1.3 26.4-1.2c.3 0 .5.2.5.4v.1l-4.5 34.8c0 .2-.2.3-.4.3l-25.6 1.1-25.6 1 25.6-1.5 25.6-1.4-.4.3 4.4-34.8.5.5-26.4 1.1-26.4 1 .3-.3-1.5 16.7-1.6 16.9z"/><path fill="#23303E" d="M128.7 137.5l1.3.3 3.4.9 4.8 1.3 5.4 1.6 5.4 1.7 4.7 1.6a236.1 236.1 0 014.5 1.7l-1.3-.3-3.4-.9-4.8-1.3-5.4-1.6-5.4-1.7-4.7-1.6a236.1 236.1 0 01-4.5-1.7zM164 148.2l2.1.3 1 .2c.3.1.7.1 1 .3l.1.1c.2.1.2.3.2.4l-6.3 32.2-.2.1-.1-.2 5.7-32.3.3.5c-.4 0-.7-.2-1-.3l-1-.4a15 15 0 00-1.8-.9zM161.7 181.8l-1.6-.3-4.1-.9-5.8-1.3-6.6-1.6-6.6-1.7-5.7-1.6-4-1.2-1.5-.5a56 56 0 005.7 1.2l5.8 1.3 6.6 1.6 6.6 1.7 5.7 1.6 4 1.2 1.5.5zM83.4 85.7l.1 4.1.1 4.1.1 8.2-.5-.4 9.8-2-.4.4v-8.4l.1-8.4.4.3-4.9 1.1-4.8 1zm0 0l4.9-1.3 4.9-1.3.4.2v.1l.1 8.4v8.4c0 .2-.2.4-.4.4l-9.9 1.9a.5.5 0 01-.5-.3v-.1l.1-8.2.1-4.1c.2-1.3.2-2.7.3-4.1z"/><path fill="#404B57" d="M121.6 74.5l1.3 5.2-7.6-1.8-3.5-5.9z"/><path fill="#23303E" d="M121.6 74.5l.8 2.6.8 2.6c0 .1 0 .3-.2.3h-.1l-3.8-.8-3.8-.8-.3-.2-3.5-6c-.1-.2 0-.4.2-.6h.3a90 90 0 019.6 2.9zm0 0l-5-1-5-1.1.5-.6 3.6 5.9-.3-.2 3.8.9 3.8 1-.3.3-.5-2.6c-.3-.9-.5-1.7-.6-2.6z"/><path fill="#23303E" d="M115.3 61.4l5 1 5 1.1c.2 0 .3.2.3.4l-1.8 5.4-1.8 5.4c-.1.2-.3.4-.5.3l-4.9-1.3-4.9-1.3c-.2-.1-.3-.2-.2-.4l1.9-5.2a68 68 0 011.9-5.4zm0 0l-1.6 5.4-1.6 5.3-.3-.5 4.9 1.2 4.9 1.2-.5.3L123 69l1.9-5.3.2.4-5-1.3-4.8-1.4z"/><path fill="#5A646F" d="M82.1 139.5l-1.7-7.7 8.4-2.6 2 9.9z"/><path fill="#23303E" d="M82.1 139.5l-1.1-3.8-1-3.8c0-.2 0-.3.2-.4l8.4-2.7c.2-.1.5.1.6.3l1 4.9 1 5c0 .2-.1.4-.3.4h-.1l-4.4.1h-4.3zm0 0l4.4-.4 4.4-.3-.3.4-1.1-4.9-1-4.9.6.3-8.5 2.5.2-.4.7 3.8.6 3.9zM129.3 24.9l-1.3 5-.2-.3 5.1 1.2 5.1 1.3-.6.3 1.8-6.2.3.5-5.2-.8-5-1zm0 0l5.2.4c1.7.2 3.5.3 5.2.6.2 0 .4.2.3.4v.1a147 147 0 01-1.7 6.3c-.1.2-.3.4-.6.3l-5.1-1.4-5.1-1.5-.2-.3 2-4.9z"/><path fill="#BDC1C5" d="M84.6 182.6s.7 1.1 1.7 1c1-.1 1.8-.6 2.1-.7.3-.2 1.4-1.3 0-1.5-1.3-.2-3.8 1.2-3.8 1.2z"/><path fill="#23303E" d="M86.3 183.9c-1.1 0-1.9-1.1-1.9-1.1l-.2-.3.3-.2c.1-.1 2.6-1.4 4-1.3.7.1.9.4.9.6.1.6-.6 1.3-.8 1.4-.7.6-1.5.8-2.3.9zm-1.2-1.2c.2.3.7.6 1.2.6h.1c.6 0 1.3-.3 2-.7.2-.1.6-.6.5-.8l-.4-.2c-1.1-.1-2.7.7-3.4 1.1z"/><path fill="#BDC1C5" d="M82.2 181.4c1.2 1 1.4 1.4 2.5 1.2l.9-.2c2-.6 2.9-1.3 2.9-1.7-.1-.4 0-1.7-1.5-1.2l-4.8 1.9z"/><path fill="#23303E" d="M84.2 182.9c-.7 0-1-.3-1.6-.8l-.6-.5-.4-.3.4-.2 4.8-1.9.7-.1c1 0 1.1 1 1.1 1.4v.1c.1.7-1.1 1.5-3.1 2l-1 .2-.3.1zm-1.5-1.4l.2.2c.7.6.9.7 1.6.6l.9-.2c2-.5 2.7-1.2 2.7-1.4v-.1c-.1-.6-.2-.9-.6-.9a1 1 0 00-.5.1l-4.3 1.7z"/><path fill="#BDC1C5" d="M78.9 177.9l2.5 1.1s5.2-2.3 5.9-1.7c.7.6.4 1.4-.3 2-.7.6-5.7 2.7-6.3 2.5-.6-.2-1.8-3.9-1.8-3.9z"/><path fill="#23303E" d="M80.7 182.1h-.2c-.6-.2-1.5-2.6-1.9-4.1l-.2-.6 2.9 1.3c.7-.3 4.1-1.8 5.5-1.8l.6.2c.3.3.5.6.5 1 0 .5-.3 1-.8 1.4a24 24 0 01-6.4 2.6zm-1.3-3.7c.5 1.5 1.1 2.9 1.4 3.1.8 0 5.4-2 6-2.5.4-.3.6-.7.6-1l-.3-.6h-.2c-1.4 0-5.3 1.7-5.3 1.8h-.1l-2.1-.8z"/><path fill="#7B838B" d="M171.5 26.7a51.3 51.3 0 00-7.5 15.8s1 5.2.2 7.8c-.8 2.6-3.7 7.5-2.6 13.9 1.2 7.4 2.9 9 3.2 13.3.2 2.9 9.8 5.2 20 3.6 4.6-.7 8.9-2.6 12.8-5.1a10 10 0 004.1-4.5l4.1-7.7 8.4-15.7c1-1.9 2-3.8 2-5.9 0-2.8-1.9-5.3-4-7.3-4.5-4.6-10.2-7.9-16.2-10.4s-12.3-4.2-18.6-6c-1.9-.5-4.2-.9-5.6.4-.9.9-1.1 2.2-.9 3.4.2 1.2.8 2.3 1.4 3.3"/><path fill="#4F5A65" d="M171.5 26.7l.7-1c-.6-1.1-1.2-2.2-1.4-3.3l-.1-.5.9-.7c1.2-.7 2.7-.8 4.1-.5 1.9.3 3.7 1.2 5.5 1.9 2.3.9 4.7 1.7 7.1 2.4l9.9 3.1a33.1 33.1 0 0113.8 6.8c.5.5.9 1 1.2 1.6.2.6.2 1.3.2 2 0 1.7-.1 3.4-.5 5-.5 1.9-1.4 3.6-2.3 5.2l-5.8 10.5h-.7l-.9 3c-1.2-2.3.4-9.1 1.6-11.6.9-1.8 2.8-3.4 3.3-5.4v-.7l-.4-.5c-1.4-1-3.1-1.4-4.1-2.7l-.6-.7c-.4-.3-1-.2-1.5-.2-4.5.4-9.2-1.4-12.3-4.6-1.5-1.5-2.6-2.9-4.7-3.5-2.1-.6-4.1-1-5.9-2.2-1-.6-1.9-1.4-3-1.7-1.8-.5-3.7.2-5.1 1.4a17 17 0 00-3.3 4.3v-.2c1.4-2.7 2.9-5.6 4.3-7.2z"/><path fill="#656E78" d="M204.5 21.7c-.8-2.3-2.1-4.5-3.7-6.5a12.7 12.7 0 00-6-4.2 19 19 0 00-6.3-.4l-8.4.5c-2.1.1-2.9.9-5 1-1.2.1-4-.3-4.3.9-.2.8.3 1.5.9 2.1.6.6 1.3 1.1 1.6 1.8.5 1.1.1 2.4.2 3.7.1 1.6 1.2 3 2.4 4.2a35 35 0 008.7 5.3l4.7 2.2 10.5 4.9c.9.4 1.8.8 2.8.8 1.5-.1 2.8-1.4 3.2-2.8.5-1.4.3-3 .2-4.4-.2-3-.5-6.2-1.5-9.1z"/><path fill="#656E78" d="M174.5 10.9s-2.2-2.1-4.4-6.8c0 0-4.9 3.2-5.3 9.1s1.8 9.4 4.1 11.9 6.9 2.4 6.9 2.4"/><path fill="#ECECEC" d="M172.3 19.9s.5 10.3 14 11.1M185.2 26s.6 6.8 6.4 9.9a24.6 24.6 0 0012.2 3"/><path fill="#656E78" d="M199.1 31.4s1.9 8.8 12.6 12.3c0 0-7.4 6.4-9.3 24.4 1.3 2.4 6.4-6.3 8.3-2.1 0 0 13.1-5.3 16.2-11.3s.7-12.4-3-13c0 0 1.6-3.4 6.3-2.4 0 0-3.2-2.5-7.3-1.2 0 0 3.4-8.4.5-13S218.5 18 208 14.2s-7.9-7-7.9-7c-2.8 3-3.9 8.6-1.5 10.7"/><path fill="#656E78" d="M197.5 11.9s-4.8-3.1-5-9.7c0 0-4.5 4.1-5.4 8.7 0 0-2-1.8-2.2-3.6 0 0-2 2-1.7 5.1 0 0-3.3-6.9-3-10.9 0 0-5.3 2.9-6.8 9.1-.2.7-.3 1.5-.3 2.4"/><path fill="#444F5B" d="M167.4 16.7c.8 1.2 1.5 2.2 1.9 3.5.3.9.5 1.6 1 2.4.1.2.4-.3.4-.4.3-1.1.5-2.5 1.2-3.4.8-1 .7-1 1.3.1.6 1 1.3 1.9 2.1 2.8a39 39 0 003.6 3.4c1.2 1 2.1 1.4 3.3 2.5.2.2.6.4.6.2.1-1.7.7-3.1 1.7-4.3l1-1.2c.9-.1 1.2 1.2 1.5 1.9.8 1.4 1.8 2.7 2.8 3.9 1.8 2.1 3.8 4.8 6.7 5.2.3 0 .4-.6.4-.7-.1-.4 0-6.6 1.4-6.4l1.6 3.6a33 33 0 005.1 6.7c1.9 2 3.9 3.8 6.6 4.6 1.6.4 3.3.8 4.9 1 1.4.2 2.9.2 4.2.9-14.2 9-16 16.8-16.9 18.5-.1 0-.2.1-.2.3l-.7 2.4c2.5-14.9 8.8-20.3 8.8-20.3-4.2-1.4-7-3.5-8.9-5.7h-.4l1.3.9c.2.1-6.1.3-12.2-3-2.2-1.2-3.7-3-4.6-4.7l-.5-.3c-5.2-.3-8.4-2-10.5-4l.1.5s-4.5.1-6.9-2.4a14.7 14.7 0 01-4.1-11.9c0-.9.2-1.7.3-2.4v.4c.3 1.8 1 3.7 2.1 5.4z"/><path fill="#7B838B" d="M206.5 64.9a9.1 9.1 0 013.7-2.1c1.4-.4 3-.1 3.9 1.1 1.1 1.4.6 3.4-.2 4.9-1.2 2.2-3.2 4-5.5 5.1-2 .9-8.7 2.3-9-1.3-.1-.9.2-1.8.6-2.6.3-.7.6-1.5 1.1-2.1.7-.7 1.4-.7 2.3-1 1.1-.5 2.1-1.3 3.1-2z"/><path fill="#4F5A65" d="M175.7 51.5c-.6 2.4-.9 4.9-.1 7.2 1 2.5 4.4 6 10.6 4.6 1.4-.3 4.5-3 4.4-5-.3-.1-2.4 3-2.7 3.1-2.8 1.1-6.1.9-8.6-.8s-4-5.2-3-8c.3-.8.8-1.6.9-2.5s0-1.9-.9-2.1c-.1 1.2-.3 2.4-.6 3.5zM163 54.4c-.1.4.5.8 1.2 1l.7-.4c.5 0 1 .2 1.5.4.8.3 1.6.4 2.4.5-.9.3-1.8.4-2.7.4-.5.4-1.3.1-2 .4-1.1.4-1.9 1.6-2.1 2.7-.1.6-.2 1.2-.6 1.5.3-2.2.9-4.4 1.6-6.5zM196.5 76.6c.8-.5 2.1-1.8 3-2 1-.3 1.8-.2 2.9-.1 3.3.2 6.6-.8 9.2-2.9a11 11 0 01-9.4 2.2c-.7-.2-1.3-.4-2-.4-1.8-.1-3.3 1.2-4.7 2.1-3.4 2.3-7.5 3.5-11.4 4.7-2.7.8-7.3 1.3-10.1 1 1.6-.2 12.3 2.2 22.5-4.6z"/><ellipse transform="rotate(23.3 182.5 55.5)" fill="#23303E" cx="182.5" cy="55.5" rx="2.2" ry="2.6"/><path fill="#23303E" d="M186.3 55.6l-.1.2-.4.7c-.4.6-1.1 1.4-2.4 1.8-.6.2-1.3.2-2 0l-.5-.2-.5-.3a3 3 0 01-.8-.8c-.5-.6-.7-1.4-.7-2.2 0-.8.1-1.6.5-2.3.3-.7.8-1.4 1.4-1.8a4 4 0 012-.9c.7-.1 1.5.1 2.1.4.6.4 1.1.9 1.3 1.4.6 1.1.6 2.1.4 2.8l-.2.8-.1.4zm-.8-.4l.1-.2.2-.6c.1-.6.2-1.4-.2-2.4a3 3 0 00-1-1.2c-.5-.3-1.1-.5-1.8-.4-.6 0-1.3.3-1.8.8-.5.4-.9 1-1.2 1.7-.2.7-.4 1.4-.3 2 .1.7.3 1.3.7 1.8l.7.6.4.2.4.1c.5.1 1 .1 1.5-.1.9-.3 1.5-.9 1.9-1.4l.4-.6v-.3z"/><ellipse transform="rotate(14.9 167.9 50.3)" fill="#23303E" cx="167.9" cy="50.3" rx="1.8" ry="2.5"/><path fill="#23303E" d="M170.7 49.8l-.1.2-.2.6-.6.9c-.3.3-.6.7-1.1.9-.5.2-1.1.4-1.7.3l-.5-.1a.8.8 0 01-.4-.2l-.8-.6c-.4-.5-.7-1.1-.8-1.8a6 6 0 01.1-1.9c.2-.6.5-1.2.9-1.7s1-.8 1.6-1c.6-.2 1.2-.1 1.8.1.6.2 1 .6 1.3 1 .6.8.7 1.7.6 2.3l-.1 1zm-.8-.2l.2-.8c.1-.5 0-1.2-.4-2-.2-.4-.5-.7-1-.9-.5-.2-1-.3-1.5-.1a3 3 0 00-1.4.9c-.4.4-.6 1-.8 1.6-.3 1.1 0 2.4.8 3.1l.6.4.4.1h.3c.4 0 .9-.1 1.2-.3.7-.4 1.1-1 1.3-1.4l.2-.5.1-.1zM202.8 67l.3-.2.9-.6 3-2.3a10 10 0 012.3-1.3c.9-.3 1.9-.5 2.9-.3s2 .9 2.5 1.9a5 5 0 010 3.2c-.3 1-.8 2-1.4 2.8-.6.9-1.3 1.6-2.1 2.2-.8.6-1.6 1.2-2.5 1.5-.8.4-1.7.6-2.5.8-1.6.3-2.9.1-3.9 0a4 4 0 01-1-.3l-.4-.1v-.1l1.4.1c.9.1 2.2 0 3.7-.3.7-.2 1.5-.4 2.3-.8.8-.4 1.6-.8 2.4-1.4.8-.6 1.5-1.3 2.1-2 .6-.8 1.2-1.7 1.5-2.6.3-1 .4-2 0-2.9a2.7 2.7 0 00-2.2-1.5c-.9-.1-1.8.1-2.6.4-.8.3-1.4.8-2.1 1.3l-1.7 1.3c-.5.4-1 .6-1.5.8l-1 .3c-.3.2-.4.2-.4.1 0 .1 0 .1 0 0z"/><path fill="#23303E" d="M204.2 70l.1-.4.6-.7 1.1-.5 1.3-.5c.9-.4 1.9-.6 2.6-.6l.9.2.3.2v.1l-.3.1-.8.1c-.7.1-1.6 0-2.5.2-.9.2-1.6.9-2.1 1.3l-.7.4-.5.1zM173.4 9.9c-.5-.3-1-.5-1.4-1-.4-.4-.7-.9-1-1.5l-.7-1.6-.5-1.6.6.2-1.5 1.1-1.3 1.5c-.8 1-1.4 2.2-1.8 3.4l-.5 1.9-.2 1.9a12 12 0 00.3 3.8l.6 1.8.8 1.7c.6 1.1 1.4 2.1 2.3 3.1l.3.3.3.3.7.5 1.7.8c1.2.5 2.5.6 3.8.8v.1c-1.3.2-2.7 0-4-.3-.7-.2-1.3-.4-1.9-.8l-.9-.6-.4-.3-.4-.4c-.9-1-1.7-2.1-2.3-3.2l-.8-1.8-.5-1.9c-.2-1.3-.3-2.7-.2-4l.3-2 .5-1.9c.4-1.3 1-2.5 1.8-3.6l1.3-1.6 1.6-1.3c.2-.1.4-.1.5.1v.1l.5 1.6.6 1.5.7 1.4.5.7c.2.3.5.5.6.8 0-.1 0 0 0 0z"/><path fill="#23303E" d="M172.3 19.9l.2.8.8 2 .7 1.3.9 1.3c.3.5.7.8 1.2 1.3l1.4 1.1 1.5.9c.5.2 1 .6 1.6.7l1.5.6 1.4.4 1.2.3.9.2.8.2H184l-.7-.1-1.5-.2-1.6-.5-1.7-.7-1.6-1-1.4-1.2-1.2-1.4-.9-1.5-.6-1.4a3 3 0 01-.3-1.2l-.2-1v-.9z"/><path fill="#FF7033" d="M177.9 47.1c-.1-.2-.2-.3-.4-.3l-2.9-.9c-.1 0-.3-.1-.4 0-.2.1-.3.3-.3.5l-.3 1.1c-.1.3-.1 1.1.2.5.7-1.2 1.9-.6 2.4-.3.7.4.9 1.1.4 2.6.4-.9 1.1-1.8 1.4-2.7l-.1-.5z"/><path fill="#23303E" d="M185.2 26l.3 1a14.9 14.9 0 004.7 7.3 36.5 36.5 0 009.8 4l2.8.4 1.1.1-1.1.1-2.8-.1a23.5 23.5 0 01-8.3-2.5l-2-1.3-1.6-1.7-1.2-1.8-.8-1.8c-.4-1.1-.6-2.1-.7-2.8l-.2-.9z"/><path fill="#23303E" d="M199.1 31.4a18 18 0 002.8 4.9l1 1.2 1.1 1.2 1.2 1.1 1.3 1 1.2.8 1.2.7 1 .6.8.4.7.4-.7-.2c-.5-.2-1.2-.3-1.9-.7l-1.2-.6-1.3-.8-1.3-1-1.3-1.1-1.2-1.3-1-1.3-.8-1.3-.6-1.2c-.4-.8-.5-1.5-.6-2l-.4-.8zM211.8 43.8l-.7.9c-.5.5-1 1.4-1.7 2.4l-1 1.7-1 2c-.3.7-.7 1.4-.9 2.2l-.8 2.3-.8 2.3c-.2.8-.5 1.5-.6 2.3l-.5 2.2-.4 2-.6 3a12 12 0 01-.2 1.1l.1-1.1.3-3 .3-2 .4-2.2c.1-.8.4-1.5.6-2.3l.7-2.4.9-2.3 1-2.2 1.1-2 1.1-1.7 1.9-2.3.9-.8h.1c-.1-.2-.2-.2-.2-.1zM214.4 64.3l3.2-2.1c1.1-.7 2.2-1.3 3.2-2.1l3.1-2.3 1.4-1.3.6-.7.5-.8.4-.8.4-.9.3-.9.2-.9.2-1.9-.1-1.9-.2-.9-.3-.9-.8-1.7-.6-.7-.7-.6c-.5-.4-1-.6-1.6-.7-.2 0-.3-.2-.3-.4v-.1l.5-.8.7-.7c.5-.4 1.1-.8 1.7-1l.9-.2 1-.1 1 .1.9.2-.3.7-.7-.5a3 3 0 00-.8-.4c-.6-.3-1.1-.5-1.7-.6l-1.8-.2-.9.1-.9.1h-.1v-.1l.9-.3a3 3 0 011-.2l1-.1 1 .1 1.9.5.9.4.9.5c.2.1.2.4.1.5l-.4.2c-.6-.1-1.1-.2-1.7-.1l-.8.1-.8.2-1.4.8-.6.6-.5.7-.3-.5c.7.2 1.4.4 1.9.9l.7.7.6.8.8 1.8.4 1.9.1 2-.2 2-.5 1.9-.4.9-.4.9-.5.8-.6.8-1.4 1.4-3.1 2.5-3.3 2-3.7 1.3c.1 0 0 0 0 0zM223.2 37.2c.3-1.8.7-3.6.8-5.3l.1-2.6-.4-2.6c-.3-.8-.7-1.5-1.2-2.3l-1.5-2.2-1.8-2-2.1-1.6-2.3-1.3-2.5-1.1-5.1-1.9-2.5-1c-.8-.4-1.7-.8-2.4-1.3a7.6 7.6 0 01-2.1-1.9c-.6-.8-1-2-.3-3l.6.5-.9 1.1-.7 1.2-.6 1.3-.4 1.4-.1.7-.1.7v1.4c0 .5.1.9.3 1.4l.3.6.4.6v.1h-.1l-.5-.5-.4-.6-.3-.7-.2-.7-.1-.8V14l.1-.8.1-.7.4-1.5.6-1.4.7-1.3.9-1.2c.2-.2.4-.2.6 0 .2.1.2.4 0 .5-.2.2-.3.6-.2 1 0 .4.2.7.5 1.1.5.7 1.2 1.2 1.9 1.7l2.3 1.3 2.5 1.1 2.5 1 2.5 1.1L215 17l2.4 1.3c1.6.9 3 2.1 4.2 3.6l1.7 2.2c.5.7 1.1 1.5 1.4 2.4.3.9.5 1.8.5 2.8l-.1 2.8-.6 2.7c-.5.7-.9 1.6-1.3 2.4z"/><path fill="#23303E" d="M197.5 11.9a9.6 9.6 0 01-2.3-1.8l-.9-1.1-.8-1.2-.3-.7-.3-.7-.4-1.4-.3-1.4-.1-1.5.7.3a30 30 0 00-4.6 6l-.5 1.2-.3 1.2-.3.2-.1-.1-1.4-1.7c-.4-.6-.7-1.3-.8-2.1l.3.1a6.5 6.5 0 00-1.6 4.9l-.2.3-.2-.1c-.8-1.7-1.6-3.5-2.2-5.3-.3-.9-.6-1.8-.7-2.8l-.1-.7-.1-.7V1.3l.6.4-1.4 1-1.3 1.1c-.8.8-1.6 1.7-2.2 2.6l-.5.7-.4.8-.7 1.6-.5 1.7-.3 1.7h-.1l.1-1.8.4-1.7.6-1.7.4-.8.4-.8c.6-1 1.4-2 2.2-2.8l1.4-1.2 1.5-1c.2-.1.4 0 .5.1 0 .1.1.1 0 .2v1.4l.1.7.1.7.7 2.7a34 34 0 002 5.3l-.4.1c-.1-.9.1-1.9.4-2.8l.6-1.3.8-1.2h.3l.1.1c.1.7.4 1.3.8 1.9l1.4 1.6-.4.1.3-1.3.5-1.2 1.2-2.3c.9-1.5 2-2.8 3.3-4.1.2-.2.4-.2.6 0l.1.2.1 1.4c.1.4.1.9.3 1.3L194 6l.3.6.3.6.7 1.2.8 1.1.9 1.1c-.1.6.2.9.5 1.3.1 0 .1 0 0 0 .1 0 0 0 0 0zM171.5 26.7c-.8 1.2-1.5 2.5-2.1 3.8l-1.9 3.9-1.8 4-.9 2-.4 1-.2.5-.1.2v.1l-.1-.1.1.2.1 2.6-.5-2.6.1.2-.2-.2v-.1-.2-.3l.1-.6.3-1.1.7-2.1 1.7-4.1 2.1-3.9 1.3-1.8c.7-.4 1.2-.9 1.7-1.4zM163.5 52.5l-.7 2.6c-.4 1.7-1 4.1-.9 7a19.5 19.5 0 00.7 4.7c.4 1.7.8 3.4 1.4 5.1.6 1.8 1.1 3.7 1.2 5.6.1.8 1 1.4 1.9 1.8.9.4 1.8.8 2.7 1a29.1 29.1 0 0011.5.7l5.2-.8a47.8 47.8 0 0011-4.4l1.7-1 .6-.4h.1v.1s-.7.7-2.2 1.7a28.8 28.8 0 01-16.4 5.6 37.7 37.7 0 01-11.7-1c-1-.3-1.9-.5-2.8-1-.5-.2-.9-.5-1.3-.9-.4-.3-.8-.8-.8-1.4a23.6 23.6 0 00-1.2-5.5c-.6-1.8-1.2-3.5-1.5-5.2l-.5-2.5-.3-2.4a17.6 17.6 0 011.2-7.1l.8-1.9.3-.4c-.1 0-.1 0 0 0z"/><path fill="#FF7033" d="M166.7 56.2c-.7 0-1.4-.1-2-.4a6.5 6.5 0 01-3.8-7.2l1.5-7.4 11.7 3.9 4 1.4 15.6 5.7-.3.8-15.6-5.7-3.3-1.2-3 7a5.4 5.4 0 01-4.8 3.1zm-3.6-13.9l-1.3 6.5c-.5 2.5.9 5.2 3.3 6.2 2.1.9 4.6-.1 5.6-2.2l3-6.9-10.6-3.6z"/><path fill="#FF7033" d="M193.8 52.3l.4.3 1.1 1 3.3 2.9a62.4 62.4 0 004.4 3.9l.3.3c.1 0 0 .2 0 .2s-.1.1-.2 0l-.3-.2-1.2-.9-3.5-2.6-3.6-2.6-1.2-.9-.4-.4c-.3-.2-.3-.7 0-.9.3-.3.6-.3.9-.1z"/><g><path fill="#FF7033" d="M184.4 62.9c-.8 0-1.5-.1-2.3-.4l-1.4-.5c-4-1.4-6.3-5.8-5-9.6l1.9-5.6.8.3-1.9 5.6a7 7 0 004.4 8.5l1.4.5c3.1 1 6.5-.5 7.7-3.4l2.6-5.9.8.4-2.6 5.9a6.9 6.9 0 01-6.4 4.2z"/></g><g><path fill="#23303E" d="M173.8 48.5l-.1.7-.6 1.8-1.2 2.5a22.8 22.8 0 01-4.1 4.8l-.6.5-.1.1.1.2.2.3.4.5 1.3 1.4.6.4.1.2-.1.1-.7-.3c-.4-.2-1-.6-1.6-1.2l-.4-.5-.2-.3c-.1-.1-.2-.1-.3-.4a.6.6 0 010-.6c0-.2.2-.4.3-.5l.5-.5 1.1-1.1 1.1-1.1c1.4-1.5 2.4-3.3 3.2-4.7l.9-1.7c0-.4.2-.6.2-.6z"/></g><g><path fill="#23303E" d="M170.1 63.3v.6l-.1.5-.3.6c-.2.4-.6.7-.9.8-.3.2-.5.1-.5.1l.3-.4.6-.9.6-.9.3-.4zM168.2 65.9l1.8.8 1.7 1.1 1.5 1.3c.5.5 1 .9 1.4 1.5l.8 1.2-1.4-.5-2.7-1-1.3-.5c-.5-.1-.9-.3-1.4-.3v-.1l.7-.2h.8l1.5.2c1 .2 1.9.6 2.8 1l-.6.7c-.2-.5-.6-1-1.1-1.5l-1.4-1.3c-.9-.9-2-1.8-3.1-2.4z"/><path fill="#23303E" d="M168.2 66s.5 0 1.2.3 1.6.8 2.4 1.4c.8.6 1.5 1.4 1.9 2 .4.6.5 1.1.5 1.1l-.2-.2-.6-.6-2-1.7-2.1-1.6-.7-.5-.4-.2z"/></g><g><path fill="#23303E" d="M183.6 40.7l.1.1.3.3.5.4.7.5.8.6.9.7 1.9 1.7a29.2 29.2 0 005.9 3.9s.1.1 0 .1l-.1.1-.6-.1-1.6-.5-1-.4-1.1-.5c-.8-.3-1.6-.8-2.4-1.3-.8-.5-1.6-.9-2.3-1.5A8.6 8.6 0 01184 43l-.5-.9-.2-.8v-.5-.2l.3.1c0-.1 0-.1 0 0z"/></g><g><path fill="#23303E" d="M165.8 37.8l1.5.2c.9.1 2.1.3 3.3.3l1.7-.1.8.1.7.1 1.1.2.4.2.1.1s-.5.5-1.5.8c-.5.2-1 .3-1.6.3l-.9-.1-.9-.2c-1.3-.2-2.5-.7-3.3-1.1l-1.4-.7c-.1.1-.1 0 0-.1-.1.1 0 0 0 0z"/></g><g><path fill="#23303E" d="M184.7 87.8l-.5.3a6 6 0 01-1.4.7l-2.1.7-1.2.2-1.3.1-1.3-.1a10.3 10.3 0 01-3.3-.9l-1.4-.7-.5-.3.6.2 1.5.4 1 .2 1.1.2 2.4.2 2.4-.1 1.1-.2 1-.2 1.5-.4c.2-.3.4-.3.4-.3z"/></g><g><path fill="#515C67" d="M202.3 50.3a25 25 0 00-.7-2.6c-.8.7-1.3 1.8-1.4 2.8 0 .5 0 1 .3 1.4.3.4.8.6 1.3.4.4-.2.6-.5.6-.9l-.1-1.1z"/><path fill="#23303E" d="M201.5 52.6c-.4 0-.8-.2-1.1-.6-.3-.4-.4-.9-.3-1.5.1-1.1.6-2.2 1.4-2.9 0 0 .1-.1.2 0l.1.1.7 2.6c.1.4.2.8.1 1.2-.1.5-.3.9-.7 1.1h-.4zm.1-4.5c-.6.7-1 1.6-1.1 2.5 0 .5 0 1 .2 1.3.2.3.5.4.8.4l.3-.1c.3-.1.5-.4.5-.8l-.1-1.1-.6-2.2z"/><g><path fill="#515C67" d="M205.5 46.3l-.5-2c-.6.6-1 1.4-1 2.2 0 .4 0 .8.2 1.1s.6.5 1 .3c.3-.1.4-.4.5-.7l-.2-.9z"/><path fill="#23303E" d="M204.9 48.1c-.3 0-.7-.2-.9-.5-.2-.3-.3-.7-.2-1.2.1-.8.5-1.7 1.1-2.3 0 0 .1-.1.2 0l.1.1.5 2c.1.3.2.6.1.9 0 .4-.3.7-.6.8-.1.2-.2.2-.3.2zm0-3.4c-.4.5-.7 1.2-.8 1.8 0 .4 0 .7.2.9.2.2.5.4.8.3.2-.1.3-.3.4-.6l-.1-.8-.5-1.6z"/></g></g><g><path fill="#7B838B" d="M186.6 120.2s-10.9 15.9-12.7 18.1c-1.8 2.2-23.3 38.2-27.4 41-1.1.8-2.7 1.4-4 1.1-.5-.1-.9-.3-1.4-.3-.8-.1-1.6.4-2.4.7-.8.2-1.9.2-2.3-.6-1.3.8-3 .8-4.4.5-.7-.2-1.3-.5-2-.6-1.1-.2-2.1.2-3.2.5-1.2.4-2.7.4-3.9.5h-1.1c-.3-.1-.7-.3-.7-.7-.1-.4.1-.7.4-.9l1-.4 10.5-2.9 2.1-4.3-5.4.7c-.5.1-1.2 0-1.3-.5-.1-.4.3-.8.7-1l8.5-5c.8-.4 1.8.6 2.5 1.2a34.4 34.4 0 003.7 2.9l.3-.6c.8-1.4 2.8-5.2 5-10.4 2.9-6.7 7.2-15.2 10.8-21.4 1.1-1.9 3.7-5.8 5.6-9.2 3-5.6 10.2-8.3 16.5-9.1 1.5-.5 3 0 4.6.7z"/><path fill="#23303E" d="M165.5 128.4l-.9 1.8c-.6 1.1-1.5 2.7-2.7 4.5l-1.8 3-1.9 3.4-3.9 7.5-3.7 7.6c-1.1 2.4-2.1 4.8-3.1 6.7l-3.3 6.4-.3.1-.1-.3s1.4-2.5 3.2-6.5l3-6.8 3.7-7.7a172 172 0 015.8-10.9l1.9-3 2.8-4.4 1-1.7.3-.1c.1.2.1.3 0 .4z"/><path fill="#23303E" d="M173.6 138.9l-3.9 6.3-3.9 6.3-7.9 12.6a133 133 0 01-4.1 6.2l-2.1 3.1-2.2 3-1.2 1.5-.6.7-.7.7c-.5.5-1.1.7-1.6 1a6 6 0 01-1.9.5l-1-.1-.9-.3c-.5-.2-1-.1-1.6.2-.6.2-1.1.5-1.9.5l-1.1-.1c-.4-.1-.7-.4-.9-.8l.5.1a6 6 0 01-3.7.7l-1.8-.4a5 5 0 00-3.4 0c-.6.1-1.2.4-1.8.4l-1.8.2-1.8.2c-.3 0-.7-.1-1-.4-.3-.2-.5-.7-.4-1.1.1-.4.4-.7.7-.9l.9-.3 3.5-1 7-1.9-.2.1 2.1-4.2.2.3-3.2.5-1.6.2c-.5.1-1.1.2-1.8 0-.4-.1-.7-.6-.6-1.1.1-.5.4-.7.6-.9l1.4-.9 2.7-1.6 2.8-1.6 1.4-.8.3-.2.2-.1.2-.1c.5-.1.8 0 1.1.1.6.3 1 .7 1.4 1l1.2 1.1 2.5 1.9c.1.1.2.2.1.4l-.4.1-2.7-1.8c-.9-.6-1.6-1.5-2.4-1.9l-.5-.1-.1.1-.1.1-.3.2-1.4.8-2.7 1.6-2.8 1.6-1.3.8-.3.3.1.2h1.4l1.6-.2 3.2-.3.2.2v.1l-2.1 4.2-.2.1-7 2-3.5 1c-.6.1-1.1.4-1.2.8-.1.4.3.7.8.7l1.8-.2 1.8-.2 1.7-.4c.6-.2 1.2-.3 1.9-.3s1.3.2 1.9.4l1.7.4c1.1.1 2.3 0 3.3-.6.2-.1.4 0 .5.1.2.4.7.6 1.3.5.5 0 1.1-.3 1.7-.5.6-.2 1.3-.4 2-.2s1.1.4 1.7.3c.6 0 1.1-.2 1.7-.4.5-.2 1.1-.5 1.5-.9l.6-.6.6-.7 1.1-1.4 4.3-6 4.1-6.2 8-12.5 4-6.3 4-6.2.3-.1c0 .2.1.3 0 .4z"/></g><g><path fill="#5F6872" d="M200.8 89.9c-4.6.4-7.5 1.9-12.1 2.3-1.8.1-3.8.3-5.2 1.5-1.6 1.3-2.1 3.5-2.5 5.4-2.6 10.4-10.8 17.4-14.5 27.5-.3.7-.5 1.6 0 2.2.6.8.9 1.4 1.8 1.8 1.8.6 2.3 2.2 3.4 3.7 3.9 5.1 1.1 5.9 1 6.7 3.5-3 7.8-8.6 7.8-8.6l6.8-10.3c4.1-6.2 6.9-11.7 11.1-17.9 2.1-3.1 4.3-6.6 5.8-9.8.8-1.7.9-3.5-.8-4.3-.8-.3-1.8-.2-2.6-.2z"/><path fill="#4F5A65" d="M171.4 130.6a7 7 0 012.4 2.7c.1.2.2.5 0 .6-.2.2-.5.1-.7-.1-1-.7-1.6-1.8-2.6-2.5-1.2-1-2.8-1.4-4.2-2.1-.3-.1-.6-.3-.8-.6-.3-.6.1-1.3.4-1.8-.1-.2.1-.4.3-.5l.7.1h.7c-.2-.1-.4-.2-.4-.4-.1-.2 0-.5.2-.5h.4c2.8.9 5.4 2.5 7.5 4.5l.4.5v.6c-.2.3-.6.3-.9.2l-.8-.6a8.4 8.4 0 00-4.8-2.1c.4 1 1.4 1.5 2.2 2z"/><path fill="#23303E" d="M204.5 93.4l-.1.5-.4 1.4-1 2-1.6 2.5-3.8 6.2-4.4 7.2-4.3 7.2a109.2 109.2 0 01-7.1 10.3l-1.2 1.5h-.1v-.1l1-1.7 2.7-4.4 8.6-13.1a91 91 0 004.3-7.2l2-3.3 1.8-3 2.8-4.3.6-1.3.2-.4zM180.2 103.1l-.4 1a40.6 40.6 0 01-3.7 5.9c-.9 1.2-1.9 2.4-2.7 3.8l-1.2 2-1.1 2-1.8 3.6a31 31 0 00-1.3 2.6l-.6.9h-.1v-.1s0-.4.3-1.1l1-2.7a32.8 32.8 0 014.5-7.6l2.6-3.9 2.3-3.4 1.6-2.4.6-.6zM165.5 128.5a20.8 20.8 0 016.3 5.5l1.1 1.8.8 2c.1.4.2.7.1 1.1 0 .4-.1.7-.3 1.1l-.7.9c-.3.3-.7.4-1.1.2l.1-.2h.1l.1.1-.1.1h-.1l-.1-.1.1-.1c.3.1.6 0 .8-.2l.5-.8.2-.9-.2-.9-.9-1.8a10 10 0 00-1.1-1.7c-.8-1.1-1.8-2-2.8-3l-1.6-1.3-1.6-1.3v-.3l.4-.2z"/><path fill="#23303E" d="M172.1 140.9l.4-.2.5-.3.5-.5 2.9-2.7 2.8-2.8c.4-.4.7-.7.8-1l.3-.4s.1-.1.1 0c0 0 .1.1 0 .1l-.2.5-.8 1.1a33.3 33.3 0 01-5.6 5.7l-.6.5-.5.3-.4.1H172c-.1 0-.2-.1-.1-.2 0-.2.1-.2.2-.2zM179.8 132.8l-3-2.2-1.6-1-1.6-.9a49.8 49.8 0 00-6.8-2.8l.3-.5c.5.5.7 1 1 1.4.1.1.1.3 0 .4h-.3l-1.2-.7-.6-.1-.2.2.1.1c.1.1.2.2.1.3 0 .2-.1.3-.3.4l-.3.2s-.1.1 0 .2l-.1.8-.5.6h-.1v-.1c.4-.2.5-.7.4-1.1l.1-.5.3-.2.1-.1-.2-.2v-.5c.1-.1.2-.3.4-.3.3-.1.6 0 .8.1l1.3.7-.3.4c-.5-.5-.7-1-1.1-1.3a.3.3 0 010-.4l.3-.1a35 35 0 0110.2 4.7c1 .7 2 1.6 2.9 2.5v.3c.1-.3 0-.3-.1-.3z"/></g><g><path fill="#23303E" d="M174.7 81.6l-.7 2.5c-.5 1.5-1.1 3.5-1.9 5.4l-2.3 5.3-1.2 2.3.7-2.5c.5-1.5 1.1-3.5 1.9-5.4l2.3-5.3 1.2-2.3z"/></g><g><path fill="#23303E" d="M142.2 80.1l-8.3-2a507 507 0 01-8.5-2.1l-9.7-2.5-9.7-2.6-8.4-2.3-8.2-2.3 8.3 1.9 8.5 2 9.7 2.4 9.7 2.4 8.4 2.2 8.2 2.2c.2 0 .3.2.2.4.1.2-.1.3-.2.3z"/></g><g><path fill="#23303E" d="M89.7 66.5a187.4 187.4 0 004.6 4.1l2.6 2.5a60.2 60.2 0 014.6 4.9l2 2.3-2.3-2-2.3-2.1-2.6-2.4-2.6-2.5-2.2-2.2C90 67.9 89.2 67 89.2 67v-.5h.5z"/></g><g><path fill="#23303E" d="M164.1 172.4l3.8.7 3.8.9 7.5 1.9-.3.3-.4-5.9-.2-6c-.1-4 0-8 .4-11.9l.8-5.9 1-5.9 1.3-5.8c.5-1.9.9-3.9 1.5-5.8h.1v.1c-.2 2-.6 3.9-1 5.9l-1 5.8-1 5.8-.9 5.9c-.3 1.9-.4 3.9-.6 5.9l-.2 5.9c0 2 0 4 .2 5.9l.5 5.9c0 .2-.1.3-.2.3h-.1l-7.5-1.8a53.2 53.2 0 01-7.5-2.2c0 .1 0 .1 0 0z"/></g><g><path fill="#23303E" d="M184.2 88l1.1-.6 3-1.3a28 28 0 019.9-2c.9 0 1.9.2 2.8.4.9.3 1.8.8 2.4 1.5.6.7 1 1.6 1.2 2.3l.3 2.2c0 1.4-.2 2.5-.4 3.3l-.4 1.2.2-1.2c.1-.8.2-1.9.1-3.2l-.4-2.1c-.2-.7-.5-1.4-1.1-2-1.1-1.1-2.9-1.5-4.6-1.5-1.8-.1-3.5.2-5.2.5-1.7.3-3.2.7-4.5 1.1l-3.1.9-1.3.5z"/></g><g><path fill="#67707A" d="M165.5 276.4c-.6 3-1.2 5.1-1 8.2 0 .4.2.8.5 1.1.7.7 2 3.3 2.4 4.9.6 2.3-1.3 6.5 6.7 8.2 2.2.3 6.2.5 9.7-.2 5.9-1.4 4.2-9.2 4.2-9.2l-5.5-7-1.1-6.1c-.2-1-1.1-1.6-2.1-1.4-3.2.6-7.5.7-12.5.3-.9-.1-1.2.4-1.3 1.2z"/></g><g><path fill="#656E78" d="M165.8 273c-.4 1.2-1.7 5.7-1.4 9 0 0 2.4 3.1 3 5.4.6 2.3-1.3 6.5 6.7 8.2 0 0 4.6.6 8.8 0 4.1-.6 7-4.1 3.9-8.9l-4.3-7.5-1.1-6.1c-.2-1-1.1-1.6-2.1-1.4a46 46 0 01-10.2.4c-.8 0-1-.3-1.8-.3-.9-.2-1.2.3-1.5 1.2z"/></g><g><path fill="#67707A" d="M170.3 293.8c.6.7 1.6.9 2.5 1.1 2.9.7 5.9 1.1 8.9 1.2 1.5.1 3.2 0 4.3-1 .9-.8 1.2-2 1.6-3.1.3-1 .5-2 .3-3-.4-1.2-1.5-2-2.6-2.6a13 13 0 00-13.3 1.5 6 6 0 00-2.1 2.6c-.5 1.2-.4 2.5.4 3.3z"/></g><g><path fill="#67707A" d="M181.9 283.9l-1.2-.8c-.8-.5-2.4-1.6-2.4-2.5l1.9-13.8c0-.6-.4-1.1-.9-1.4a16.5 16.5 0 00-11.4-.1c-.7.3-1.4 2.3-1.1 3.1l4.6 12.1c.3 1 0 2.1-.7 2.8l-1.7 1.6c3.5-2.8 8-2.7 12.9-1z"/></g><g><path fill="#23303E" d="M164.6 282.1v2.7c0 .3.2.6.5.9.6.6 1 1.4 1.5 2.3.4.9.9 1.8 1.2 3 .2 1.2.1 2.4.4 3.4.3 1.1 1.1 2 2.1 2.6a15.8 15.8 0 007.3 1.7l3.7-.1c1.2-.1 2.4-.2 3.3-.6a5 5 0 002.2-1.8 6 6 0 00.9-2.4c.2-.8.2-1.4.2-2l-.1-1.3-.1-.4c0-.2.1-.4.3-.4.2 0 .4.1.4.3l.1 1.8c0 .6 0 1.3-.2 2.1-.1.8-.4 1.7-.9 2.6-.5.9-1.4 1.7-2.5 2.1-1.1.5-2.3.6-3.5.8a46 46 0 01-7.8-.1 11 11 0 01-3.8-1.4 5.1 5.1 0 01-2.4-3.2c-.3-1.3-.1-2.5-.2-3.5-.2-1-.6-2-.9-2.9-.4-.9-.8-1.7-1.3-2.2-.3-.3-.5-.7-.6-1.1v-1l-.1-1.8.2-.2c0-.1.1-.1.1.1z"/></g><g><path fill="#23303E" d="M166.9 272s-.1 0 0 0c-.1 0-.2 0-.2.2 0 .1.1.2 0 .4l-.1.6-.2.7-.3.8-.6 1.7c-.4 1.2-.7 2.4-.8 3.3a2 2 0 000 1.1l.1.4c.1.2-.1.4-.2.4-.2.1-.4-.1-.4-.2v-.2-.4l.1-1.2c0-1 .3-2.2.6-3.4l.4-1.8.2-.8.3-.7.2-.6c0-.2.3-.4.4-.5l.5-.2c.1 0 .2 0 .2.2l-.2.2z"/></g><g><path fill="#23303E" d="M165 282.2l.3.3.7.9a15 15 0 011.5 3.1l.2.9.1.9v1.6l.1 1.1.1.4-.1.1-.1-.1s-.3-.6-.4-1.5l-.1-1.6-.1-.8a3 3 0 01-.2-.8c-.4-1.1-1-2.2-1.4-3l-.5-.9-.2-.3v-.3c-.1-.1 0-.1.1 0z"/></g><g><path fill="#23303E" d="M169 293l1.1.8 1.3.6 2.7.8c2.4.2 4.9.3 7.3.1l1.8-.2 1.7-.5c.5-.3 1-.5 1.4-1 .4-.4.8-.8 1-1.4.3-.5.4-1.1.4-1.7 0-.6 0-1.2-.2-1.7l-.3-.8a3 3 0 00-.4-.8l-.9-1.6-3.6-6.4v-.1l-.7-4.2-.2-1.1-.2-1c-.2-.6-.8-1.1-1.4-1.2l-.1-.1.1-.1c.8 0 1.5.6 1.7 1.3l.2 1.1.2 1 .8 4.2v-.1l3.7 6.4.9 1.6.4.8.3.9c.2.6.3 1.3.3 1.9 0 .6-.1 1.3-.4 1.9a9 9 0 01-1.1 1.6c-.5.5-1 .8-1.6 1.1l-1.8.6-1.9.2c-2.5.2-5 .1-7.4-.2-.9-.2-1.9-.5-2.8-.9l-1.3-.7-1.1-.9v-.3l.1.1z"/></g><g><path fill="#23303E" d="M179.2 271.8l.2-1.3.2-1.3.4-2.6v.1a1 1 0 00-.5-.9c-.2-.2-.8-.3-1.2-.4l-2.6-.4-1.3-.1H173l-2.7.2-1.3.3-1.2.4c-.2.1-.5.6-.6 1-.1.4-.3.8-.2 1.2l.2.6.2.6.5 1.3 1.2 2.6c.1.2 0 .4-.2.5-.2.1-.4 0-.5-.2v-.1c-.2-.9-.6-1.7-1-2.5l-.6-1.3-.2-.7-.2-.7c-.1-.6.1-1 .2-1.5.2-.5.3-.9.9-1.3a4 4 0 011.4-.5l1.4-.4 2.8-.4h2.8l1.4.2 1.4.4.7.2.7.4c.5.4.7.9.7 1.5l-.6 2.6-.2 1.3-.1 1.3-.2.2c-.4-.1-.5-.2-.5-.3z"/></g><g><path fill="#23303E" d="M169.7 273.7c-1.3-.1-2.1-.1-2.1-.3 0-.1.8-.4 2.1-.5h2.3l2.8.5.5.1 1.2-.2 2.2-.2c1.3 0 2 .1 2 .2 0 .2-1.6.4-3.7.9l.5.2 2 1.2c1.1.8 1.6 1.4 1.5 1.5-.1.1-.8-.3-1.9-.9l-2-1-1.8-.7-1.1.3c-3.5 1.1-6.1 2.7-6.3 2.4-.1-.1.5-.7 1.5-1.4l1.9-1.1a12 12 0 012-.8l-1.4-.3c-.8.2-1.6.1-2.2.1zM171.2 277.9l2.2.1 1.9.4 1.8-.5a15 15 0 012-.2c1.1 0 1.8.2 1.8.3 0 .2-1.7.3-3.9.9l1.5.7 1.9 1.2c1 .8 1.5 1.4 1.4 1.5-.2.2-2.6-1.6-6.1-2.7l-.3-.1-.2.1c-3.1 1.2-5.1 3-5.3 2.8-.1-.1.3-.7 1.1-1.5a11 11 0 012.7-1.8c-2.5-.5-4.4-.5-4.5-.7 0-.2.7-.5 2-.5z"/></g><g><path fill="#7B838B" d="M175.1 290.8c1.6.3 3.2.6 4.8.6 1.1 0 2.3-.3 3.3-.7.7-.3.8-1.3.3-1.8a7.2 7.2 0 00-8.4-1.1c-.5.3-1 .6-1.2 1.1-.3.5-.3 1.2.1 1.6.2.2.7.3 1.1.3z"/></g><g><path fill="#67707A" d="M134.9 276.7c.4 3 1.6 4.9 1.3 8 0 .4-.3.8-.6 1.1-.8.7-5.4 2.8-5.9 4.4-.7 2.3 1 6.5-7.1 7.8-2.2.2-6.3.2-9.6-.7-5.9-1.7-3.8-9.4-3.8-9.4l6.9-6.3 1.4-6c.2-1 1.2-1.5 2.1-1.3 3.2.8 8.4 1 13.4.9 1 0 1.8.7 1.9 1.5z"/></g><g><path fill="#656E78" d="M135.3 271.1c1.6 2.9 1.5 7.6 1.1 10.9 0 0-5.8 2.6-6.5 4.9-.7 2.3 1 6.5-7.1 7.8 0 0-4.7.3-8.8-.4-4.1-.8-6.8-4.5-3.5-9.1l5.8-6.8 2.3-6c.4-1 .3-1.6 1.3-1.4 2.7.7 6.1 1 10.1.9.8 0 3.1-5.4 3.9-5.4 1 0 1.7.5 1.7 1.4-.1 1.1-.6 2.6-.3 3.2z"/></g><g><path fill="#67707A" d="M126.6 293.4c-.7.6-1.6.9-2.5 1-3 .5-6 .8-9 .8-1.5 0-3.2-.1-4.3-1.2-.8-.8-1.1-2.1-1.4-3.2-.2-1-.4-2-.1-3 .4-1.2 1.6-2 2.8-2.5a13 13 0 0113.2 2.2c.8.7 1.6 1.6 1.9 2.7.4 1.2.2 2.4-.6 3.2z"/></g><g><path fill="#67707A" d="M114.7 282.5s2.6-3.7 2.7-4.7l1.5-5.7 1.1-6.9c.1-.6.5-1.1 1-1.3 3.2-1 7.1.9 10.4 1.7 2 .5 1.6 2.3 1.4 3l-6.4 11.7c-.4 1-1.2 2-.5 2.8l.5 1.7c-3.3-3.2-6.7-3.4-11.7-2.3z"/></g><g><path fill="#7B838B" d="M122 290c-1.6.2-3.2.5-4.8.3a9.5 9.5 0 01-3.3-.9c-.7-.4-.8-1.3-.2-1.8a9 9 0 013.4-1.7c1.7-.3 3.6 0 5.1.9.5.3.9.7 1.2 1.2.2.5.2 1.2-.2 1.6-.4.3-.8.3-1.2.4z"/></g><g><path fill="#23303E" d="M136.5 282.2l-.2 1.9-.1 1c-.1.4-.4.8-.7 1l-2.4 1.5c-.9.5-1.8 1.1-2.6 1.9l-.5.6-.2.8-.1 1.9c-.1.7-.2 1.4-.5 2-.3.7-.7 1.3-1.3 1.7a9.3 9.3 0 01-3.9 1.8l-1 .2-.5.1h-2.6a26 26 0 01-7.7-1.1 6 6 0 01-2.7-2.2c-.6-.9-.8-1.9-1-2.7l-.1-2.2.1-1.9c0-.2.2-.3.4-.3s.3.2.3.4l-.1.5-.2 1.3.1 2.1c.1.8.4 1.7.9 2.5s1.4 1.5 2.4 1.9c1 .4 2.3.6 3.5.7l3.9.2 2-.1h.5l.5-.1a3 3 0 011-.2c1.3-.4 2.5-.7 3.5-1.5s1.5-1.9 1.6-3.1l.2-1.9.3-1 .6-.7c.9-.8 1.9-1.4 2.8-1.9l2.4-1.4c.3-.2.5-.5.6-.8l.1-.9.1-1.9.2-.2c.4-.2.4-.1.4.1 0-.1 0 0 0 0z"/></g><g><path fill="#23303E" d="M134.8 271h.1l.4.1.5.4c.2.2.2.6.3.8a31.3 31.3 0 01.4 9l-.1.1-.1-.1v-1.7c0-1-.2-2.3-.4-3.6a76 76 0 01-.5-3.6l-.1-.5-.3-.3-.4-.2c-.1 0-.2-.2-.1-.3l.3-.1z"/></g><g><path fill="#23303E" d="M136 282.5l-.4.3-1.1.8c-.9.6-2.2 1.3-3.4 2.2l-.7.7-.2.4-.1.5-.3 1.9c-.2 1.1-.6 1.8-.6 1.8s-.1.1-.1 0c0 0-.1-.1 0-.1l.1-.5.2-1.3.1-1.9.1-.6.3-.6.8-.9a18 18 0 014.7-2.8l.4-.2h.3l-.1.3z"/></g><g><path fill="#23303E" d="M128.2 292.8l-1.2.9-1.3.6c-.9.4-1.9.6-2.8.7h-5.3c-.9-.1-1.8-.1-2.6-.3l-1.3-.2-1.3-.4a7 7 0 01-2.2-1.6 4.5 4.5 0 01-1.2-2.5 5 5 0 01.2-2.7 9 9 0 011.2-2.4l5.8-6.8c.5-1.1 1.1-2.2 1.5-3.4l1.3-3.5.1-.1.1.1c-.3 1.2-.7 2.4-1.2 3.5l-1.4 3.4-5.7 6.9c-1 1.4-1.6 3-1.3 4.7a5 5 0 003.1 3.5l1.2.4 1.3.2 2.6.3 5.2.1a13.1 13.1 0 004-1.1l1.1-.8h.3l-.2.5z"/></g><g><path fill="#23303E" d="M118.8 272.1l.2-1.7.2-1.7.4-3.5c0-.4.2-.8.4-1.2l.5-.4.5-.2 1.1-.3 1.1-.2 2.2-.1 2.1.3c1.4.3 2.8.6 4.1 1.2l1 .5c.4.2.6.5.9.9.4.7.4 1.5.3 2.3l-1.4 3.1-.9 1.4c-.3.5-.7.9-1.2 1.3-.1.1-.4.1-.5-.1s-.1-.4.1-.5c.9-.5 1.5-1.5 2-2.4.5-1 1-2 1.3-3 .1-.6.1-1.3-.2-1.8l-.6-.6-.9-.4a18 18 0 00-4-1l-2-.2h-2l-1 .1-1 .2-.4.1-.3.2a1 1 0 00-.3.7l-.6 3.4c-.2 1.1-.4 2.3-.4 3.4l-.2.2c-.4.2-.5.2-.5 0z"/></g><g><path fill="#23303E" d="M127.4 274.1c1.1.1 1.8.2 1.9 0 0-.1-.6-.5-1.8-.7l-2-.3c-.8 0-1.6 0-2.5.2l-.4.1-1-.4-1.6-.4c-1.1-.2-1.2 0-1.2.1 0 .2.5.4 2.3 1.1l-.5.2c-.7.3-3 1.9-2.9 2 .1.1 2.5-.8 3.2-1l1.7-.5.9.4c3 1.5 5.1 3.4 5.3 3.1.1-.1-.3-.7-1.2-1.5l-1.6-1.3-1.6-1 1.3-.1h1.7zM124.6 278.1l-2-.2-1.8.1-1.5-.7c-.6-.2-.8-.3-1.3-.3-1-.1-1.6-.1-1.7.1 0 .2 1.1.4 2.9 1.3-.5.1-2.3 1.2-2.8 1.5-1 .6-1.5 1.2-1.4 1.3.1.3 2.1-1.4 5.3-2l.3-.1.2.1c2.6 1.5 4.1 3.6 4.3 3.4.1-.1-.2-.7-.8-1.6a8 8 0 00-2.2-2.1c2.3-.2 4 .1 4.1-.2.1-.1-.5-.4-1.6-.6z"/></g><g><path fill="#23303E" d="M135.1 271.5c-.2 0-.3-.1-.2-.3l.7-3.6v-.3c-.1-.1-.3-.3-1.4-.4a.2.2 0 01-.2-.2l.2-.2c1 0 1.6.2 1.8.6l.1.6-.7 3.6c-.1.2-.2.2-.3.2z"/></g></g></svg>