<svg xmlns="http://www.w3.org/2000/svg" viewBox="0 0 300 300"><path fill="#F9F9F9" d="M127.4 90.1a35.9 35.9 0 0128.8-.6c-.7 2.6-.6 5.7-3.1 6.7s-5.3 1.1-7.9 1a57 57 0 01-14.3-2.4 6.2 6.2 0 01-3.1-1.6c-.9-.8-1.2-2.3-.4-3.1z"/><path fill="#F9F9F9" d="M137 77.8c2.9 1.3 6.2 1.9 9.4 1.7l6.7-.1s-.2 8.4-.7 9.8c-1.1 3-3.4 3.5-6.3 3.9-4.7.5-15.6 1.3-13.8-4.6 1-3.3.2-6.1.5-8.2l.4-3.8s1.9.4 3.8 1.3z"/><path fill="#ECECEC" d="M141.7 83.4c-1-.4-1.9-1.1-2.9-1.6s-2.2-.8-3.2-.4c-1.3.5-1.9 1.9-2.1 3.3-.2 1.3-.9 1.9-.9 3.2 1.2-.9 1.8-1.2 2.8-1.6 1-.4 2.1-.4 3.2-.3l5.1.2c1.4 0 2.8.1 4.1-.4s3.6-1.8 3.7-3.2c-2.8.8-7 1.9-9.8.8z"/><path fill="#DEDEDE" d="M132.4 88c.7-.9 1.4-1.4 1.6-2.5.3-1.1.8-2.2 1.8-2.7.7-.3 1.5-.2 2.2.1l2 1c3.3 1.7 7.6 1.3 10.5-.9l2.2 6.3c.3-2.8.2-6 0-8.9-2.5 1.5-5.9 3.4-8.7 3.1-4.1-.5-8.1-3.9-11.4-5.8.4 3.5.7 6.9-.2 10.3z"/><path fill="#F9F9F9" d="M190.1 136.1c-.1-1 0-2.1.4-3.1l.5-.8c.4-.3.9-.4 1.4-.4 3.2-.1 6 0 9.2.6 3.1 4.4 3.7 5.5-3.8 10.9-14.7 10.6-21.3 12.8-24 13.1-1.1.1-2.4-.3-3.3-1.2a3.4 3.4 0 01-.9-3.2c.4-1.6 1.8-2.7 3.3-3.4 5-2.4 14.6-10.3 16.8-11.4.8-.3.9-.5.4-1.1z"/><path fill="#EEE" d="M167.2 95.8c-1.1 4.2-.6 7.3-1.7 11.5-.4 1.7-.9 3.5-.3 5.1.7 1.9 2.6 2.9 4.2 4 8.8 5.7 11.4 11.4 19.5 17.9.6.5 1 1.1 1.7.8.9-.3 1.6-.3 2.2-1.1 1.1-1.4 3.7-.7 5.5-.9 4-.4 4.4 0 5.1.5 1.3-4.4-5.3-10.4-11.4-18.2-4.4-5.7-8-7.1-12.4-12.8-2.2-2.9-4.4-5.9-7.2-8.5-1.3-1.2-3-1.8-4.2-.6-.6.7-.8 1.5-1 2.3z"/><path fill="#F9F9F9" d="M171.1 222.8v6.9c.1 2.3 1.5 15 .6 26s-.9 13.4-1 15.9c0 1.8-1 3.6-2.6 4.1-1.6.6-4.3-.8-5.2-2.3 0 0-4.3-15.1-5-21.1s-2.3-10.1-2.1-13.3c.2-3.3-.3-9.8-.4-13.9"/><path fill="#E8E8E7" d="M161.5 235.6c-1.3.2-2.7.5-3.6 1.5-.9 1.1-1 2.7-1 4.1.1 1.4.7 4.7.1 6-1.3-3.6-1.2-9.9-2-13.2 5.4.5 11.1 1 16.1-1.1.7 2.5 1 7.2.9 9.7-1.2-8.6-3.8-7.5-4.5-7.5-2 0-4 .2-6 .5z"/><path fill="#F9F9F9" d="M118.6 222.2l-.5 6.9c-.2 2.3-2.5 14.6-1.6 25.6s1 13.4 1 15.9c0 1.8 1.1 3.6 2.7 4.1s4.4-.8 5.4-2.3c0 0 3.8-13.1 4.5-19.1.7-6 1.6-10.3 1.4-13.5-.2-3.3 1.8-10.6 1.9-14.7"/><path fill="#E8E8E7" d="M130.8 247.1c0 .5-.2.9-.1 1.4.2-2.5 1.1-4.8 1.5-7.3.5-3.4.7-6.9.7-10.3l-8.6-.3c-1.6 0-3.2-.1-4.7.5s-2.8 2-2.7 3.5c1 1.4 3 1.7 4.7 1.8l4.9.3c.8.1 1.6.1 2.3.6.9.6 1.3 1.8 1.5 2.9.3 2.3.6 4.7.5 6.9z"/><path fill="#BDBCBC" d="M118.2 224.9v2l-.1 2.3-.2 2.9-.9 7.3a57.5 57.5 0 00.1 16.8l.6 7.3.1 5.2-.1 2s0 .1-.1 0l-.2-2-.5-5.2-.6-7.3c-.2-2.7-.3-5.6-.2-8.4l.1-4.3c.1-1.4.1-2.8.3-4.1l.4-3.9.5-3.4a91.2 91.2 0 01.8-7.2zm7.3 47.5l1.6-7 1.6-7.1 1.8-8.2c.6-2.8 1.1-5.6 1.4-8.3l.5-3.8.5-3.4.8-5.1.1-2 .1-.1.1.1-.1 2c-.1 1.3-.3 3-.7 5.1l-.5 3.4-.4 3.8c-.3 2.7-.8 5.5-1.3 8.3l-.8 4.2-.9 4c-.6 2.6-1.1 5.1-1.7 7.1l-1.3 5-.5 1.9c0 .1-.1.2-.2.1-.1.2-.2.1-.1 0zm45.2-47.5l.3 2.1.2 2.4.2 3.1.4 3.6.2 4.1.3 4.3.1 2.2v2.3c.1 6-.2 12-.7 16.5l-.5 5.4-.3 2s0 .1-.1 0v-2.2l.2-5.4.3-7.7.1-4.3.1-4.5v-4.5l-.1-4.3-.4-4-.5-3.6-.2-5.4.4-2.1zm-7.9 48.6l-.5-2-1.3-5.2a519.2 519.2 0 01-3.4-15.9c-.5-2.9-1.1-5.8-1.4-8.6l-.4-4-.5-3.5-.7-5.3-.1-2 .1-.1.1.1.2 2 .8 5.3.5 3.5.5 4 1.5 8.5 1.8 8.5 1.7 7.4 1.6 7.2-.1.2-.4-.1z"/><path fill="#F9F9F9" d="M145.7 192.6c-3.5 4.8-4.4 29.4-5.9 40 0 0-19.7 7.2-26.9-.7 0 0 2.1-38.1 3.5-45.8 2.7-1.2 3.8-5.4 4.6-8.2.9-2.9 1.4-5.9 3.3-8.2 2.5-3 6.6-4 10.4-4.7 5.5-1 11-1.7 16.6-2.1 3.5-.3 17.5-2.9 18.2.5.9 4.2.5 5 .9 8.4 0 0 4.3 25.5 4.3 40.3 0 9.5.9 19.3.9 19.3s-16.5 6-26.2 1.2l-4.4-35.2"/><path fill="#E3E3E3" d="M127.9 177.2a11.5 11.5 0 00-8.1-1.3h-.3c-.5.8-.3 1.9-.5 2.9-.3 1.7-1.9 1.2-2.7 2.7-.8 1.4-.6 5-.6 6.7-.3 6.4-1 12.5-1.2 18.9 1-4.9 2.1-9.8 2.6-14.8.1-.8.2-1.7.6-2.5.2-5.1 4.2-8 15.2-9.7-1.8-.8-3.3-2-5-2.9zm21.5 54.3c.1.6 3.2 1.2 3 1.1-.7-.6-2.4-15.5-2.8-21.6-.4-7-.6-10.1-2.1-16.8-2.6 6.9-1.7 9.4-1 16 .4 2.5 2.4 18.6 2.9 21.3zm-9.6-.9c-.2-1.7 2.6-27.7 5.1-38.6-1.5 6.4-8.6 36.8-9.1 38.3l-.1.2a36.6 36.6 0 01-6.7 3.2c-2.6 1.1-5.4 1.4-8.2 1.8 7.9.3 12.6-1.2 17.5-2.5.3-.1.7-.2.9-.4l.9-.1a79 79 0 00-.3-1.9z"/><path fill="#E3E3E3" d="M150.5 229.7c1.8 2.2 4.2 4 6.8 5-2.2.2-4.5-.1-6.6-1-.5-.2-1-.5-1.2-.9l-.1-1.1.2-3m4.2-39.4c-.8-.5-1.8-.3-2.6.3s-1.2 1.3-1.9 2c-.6.7-1.5 1.2-2.4 1.1-1.5-.4.4-3.3 2.6-5.8-.6-.4-1.4.1-1.9.5a70 70 0 00-4 3.7c-.4.4-.7.8-.7 1.4l.3.9c2 3.7 2.4 6.9 3.4 10.9-.1-3.9 1.2-7.4 3.1-10.8.8-1.3 3.1-3.4 4.1-4.2z"/><path fill="#E3E3E3" d="M150.7 196.1c.4.2.2.8 0 1.2-1.1 2-1.7 4.2-1.8 6.5 0 .8-.1 1.6-.7 2.1-.4-1.7-.6-3.4-.8-5.2-.2-1.5-.3-3.3.8-4.3.7-.3 1.4-.4 2.1-.4l.4.1z"/><path fill="#F9F9F9" d="M131.3 162.5c-1.2-10.1.9-10.7.3-20.9-1-19.1-.5-33.7-1.5-52.7 3.3-1.8 8.7-1.5 12.6-1s8.7 1.2 12.6 1.5c9.5 32.1 13.3 45.9 13 79.4-4.7.8-9.9 1.7-14.7 2.2-8.7.9-17.3 8.7-21.8 1.1-2-3.4-.1-5.9-.5-9.6z"/><path fill="#EEE" d="M154.3 178.4c2.6-21.8 2.8-41.9 1.1-63.8-.3-4.2-.7-8.4-.5-12.6.2-3.3-1.1-14.1 2.6-12.5 1.6.7 4.4 1 6.6 1.5 2.8.7 5.6 1.4 8 3-3.5 15.4-3.9 29.9-5 45.6-.3 4.4-.5 8.9.4 13.3.7 3.3 2 6.6 1.8 10-.2 4.1-1.1 10.8-4.1 13.6-3 2.8-8.4 2.8-11.4 2.3"/><path fill="#E3E3E3" d="M167.8 150.7c-.6-10 3.2-31.8.6-37.7-1.6 1.2-3.1 25.2-3.1 25.4-.1 2.5-1.6 3.9-2.5 6.1-1 2.6 1.8 3.9 1.6 6.5-.1 1-.5 1.8-.8 2.7-.5 1.5 0 2.8.6 4.2.4.2.8.4 1.1.8.5.7.5 1.6.3 2.4s1.8 10.4-7 17.2c-.7.5 8.7-2.4 9.4-2.7-.2-5.3.1-19.5-.2-24.9z"/><path fill="#DADAD9" d="M168.1 152.7c-.1-.9 1.5-2.7.2-3.5-1-.5.3-3.1.4-4.1l.1-.3c-.9-8.5-.1-16.8.1-25.4v-5.3a74 74 0 00-2.1 13.4l.6 27c1.8 23.2-1.9 17.7-6.5 23.5 5-.2 10.1.2 10.1-.3a214 214 0 00-1.5-16.4l-1.4-8.6z"/><path fill="#DADAD9" d="M191.1 128.9c-5.6-.9-7.9-1.7-11.5-6.2-3.2-3.9-7.9-5.7-9.6-7.4-.4-.4-1.9-.6-1.6-.2.5.8 5.6 4.2 5.8 4.5 5 5.9 6.8 6.8 11 11 .7.7 1.5 2.4 2.4 2.4.8 0 3.5-2.9 3.7-3.7.2-.1 0-.3-.2-.4zm-23 24.3c0-.1 0-.1 0 0-.2-.4-.3-.9-.1-1.3.2-.3.5-2.2.2-2.5-.4-.4-.4-1-.3-1.6.8-5.6.3-11.2-.2-16.9-.7 3-.3 6.1-.4 9.2 0 3-.5 6.2-2.4 8.5-.1.1 0 .2.1.2l1.3.1c.5.2 1 .5 1.1 1.1.1.5-.2 1.2-.7 1.3-.4.1-.9-.2-1.3 0s-.4.8-.1 1.2c.3.4.7.5 1.1.7a6 6 0 011.8 1.3l-.1-1.3z"/><path fill="#ECECEC" d="M166.6 29.9c-.1-.8-.1-1.7.2-2.5.8-1.7 3.3-1.8 4.6-3.1 1.2 3.8.9 7.8.3 11.7-1.5 9.6-2.2 12.3-3.8 12.7-.6-5.8-.8-13-1.3-18.8zm-51.3-4.8c2-.6 4.1 1.3 4.5 3.4.5 2.1-.1 4.2-.5 6.3-.8 4.2 0 9.9.8 14-1.1.1-2.7-.8-3.8-.7-2.1-5-3-10.8-3.6-16.2-.1-1.3-.3-2.6.1-3.9.4-1.3 1.3-2.5 2.5-2.9z"/><path fill="#F9F9F9" d="M166.1 50.3c.7-1.1 2-2.9 3.4-2.7 3.6.6 2.3 6.1 1.3 8.7-.4 1.1-2.9 8.1-4.8 6.6m-44.5-12.6c-.7-1.2-2.1-2.9-3.5-2.7-3.7.6-2.3 6.2-1.3 8.9.4 1.1 3 7.1 4.9 6.7.1 0 .9-.3.9-.8"/><path fill="#F9F9F9" d="M164.9 29.3c3.1 4 2 18.3 2 18.3s-.2 10.8-2.4 19.1c-1.9 6.9-6.9 10.8-14.2 15.8-5 3.4-6.5 2.2-12.4-1-4.6-2.5-12.8-8.3-14.4-15.1-1.7-7-2.6-18.9-2.6-18.9s-2.2-7.8.3-16.2"/><path fill="#E3E3E3" d="M121.7 40.3c.1-1.5.4-3.2 1.5-4.2 1.7-1.4 4.8-.5 6.2-2.3 2.5 1.2 5.4 1.4 8.1.8 2.1-.5 4-1.5 6.1-1.7 1.7-.2 3.5.1 5.2 0 1.2 0 2.4-.3 3.5-.8a2 2 0 012.1.1 4 4 0 002.1.7c1.2.1 2.4-.3 3.7-.3a7.3 7.3 0 017.2 6.9c.1-3.5-.2-7.1-1.6-10.4l-28.3-1.3c-4.7-.2-9.5-.4-13.8 1.5-2 .9-3.9 2.3-4.9 4.3a12 12 0 00-.6 6.5c.4 3.3 1.3 6.5 2.6 9.5l.9-9.3z"/><path fill="#ECECEC" d="M165.9 10.1s0 3.8-2.6 6c.4-2.5.2-6.4-2.6-11.6 0 0-.3 4.7-7.2 7.8 0 0 .1-2.9-.9-6.5 0 0-1.6 2.7-5.9 4.1.8-1.5 1.5-4 .7-8 0 0-3.6 3.8-12.1 5.8 0 0 2-2.8 1.8-5 0 0 .2.8-6.3 3.3s-14.9 7.9-16.1 13.7c-1.2 5.9 1.1 8.3 1.1 8.3l1.5-.8c0 1.2.4 2.4 1.2 3.4l2.7.2a8.4 8.4 0 008.1.7l1.5.1c2.3.7 6.5 1.5 10-.5l.5-.1s5.5.9 11.6-1.2l-.1.1s12.5 4.4 17-5.7c3.3-7.4-3.9-14.1-3.9-14.1z"/><path fill="#DADAD9" d="M160.4 28a8.2 8.2 0 002.6-5.4c-5.2 2.6-9.4 2.7-15.3 3.4 1.1-2.2 1.5-4.7 1.2-7.1-2.4 4-8.2 7.1-13 7.4l.7-5.2c-2 2.7-5.5 6-9 6.6s-7.8-.2-10.6-2.2c-.2 1.5 2.1 5 3 5.1a9.2 9.2 0 009.2.6c2.1.8 8 2.5 12.4-.8.8-.1-.4.5-.4.5s5.8 1 12.2-1.2l-.1.1s12 4.9 17.5-5.4c.3-.6-1.2-2.6-.9-3.2-3 3.5-4.8 6.3-9.5 6.8z"/><path fill="#DADAD9" d="M118.7 45.5a27.5 27.5 0 01-1.3-18.1 8.3 8.3 0 003.3 3.4 29.6 29.6 0 00-2 14.7z"/><path fill="#E8E8E7" d="M133.3 170.3a11 11 0 00-1.2 3c-.1 1.6 1 5.9 1.6 7.4a6 6 0 012.5-4.5c1.2-.7 2.7-1 4.1-1.2 5.7-.9 11.5-1.9 16.8-3.5-7 .8-13.8 2.2-20.9 1.3-.9-.2-2.3-3.3-2.9-2.5z"/><path fill="#E8E8E7" d="M130.9 101.9c.8 7.5.2 15.1.6 22.7.5 8.7.8 10.8.8 19.6 0 5.6-.2 6.9.4 12.5.6 5.5 4.7 11.5 5.7 12.2.7.5 1.6.7 2.5.8 5.1.9 10.7 1.7 15.9 1.6a39.7 39.7 0 01-16.8 1.5c-1.1-.1-3.5-.1-4.5.1-2.9.5-3.4 3.6-4.2-7.7-.2-2.9.1-3.2 0-6.1-.3-6.5-1.1-5.9-1-12.4l.3-25.6"/><path fill="#DADAD9" d="M166 29.5c-.1.5.1 1 .3 1.5 1.9 4.7 2.5 9.8 1.8 14.8 1.6-3 1.2-6.7.8-10.2-.3-3.4-.4-7.3 1.7-9.9l-3.5 2.5c-.5.4-1 .7-1.1 1.3z"/><path fill="#ECECEC" d="M117.4 51.8c.2-.9 1-1.7 1.9-1.5.5.1.8.5 1 1 .2.4.3.9.3 1.4l.4 3c.2 1.4.4 2.9.2 4.4l-2.6-4.2c-.7-1.3-1.5-2.7-1.2-4.1zm53-.3c-.2-.9-1-1.7-1.9-1.5-.5.1-.8.5-1 .9-.2.4-.3.9-.3 1.4l-.4 3c-.2 1.4-.4 2.9-.2 4.3l2.6-4.1c.7-1.3 1.5-2.6 1.2-4z"/><path fill="#DADAD9" d="M141.4 54.8a10.2 10.2 0 01-9.6 6.1c-4-.2-7.8-3.1-9-7-.7 2.6.6 5.4 2.7 7.1 2.1 1.7 4.9 2.3 7.6 2.2 2.3-.1 4.7-.7 6.5-2.2s2.6-4.1 1.8-6.2zm5.7 0c1.5 3.7 5.6 6.3 9.6 6.1 4-.2 7.8-3.1 9-7 .7 2.6-.6 5.4-2.7 7.1a11.4 11.4 0 01-7.6 2.2c-2.3-.1-4.7-.7-6.5-2.2-1.6-1.5-2.6-4.1-1.8-6.2zm47.8 77.4c.9-.7 2.1-1.1 3.3-1.2.2 0 .5 0 .6.2.1.2-.1.5-.3.6-.9.7-2.2.9-3.2 1.4-1.3.7-3.1 1.1-4.2 2.2l-.8.5c-.6.1-1.2-.5-1.5-1-.2 0-.4-.2-.3-.5l.3-.5c.1-.1.3-.4.2-.6l-.5.3c-.2 0-.4-.1-.4-.3l.2-.3c1.8-2.2 5-3.1 7.5-4.3l.6-.2.6.2c.2.2.1.6-.1.8l-.8.5c-1.5.7-3.7 1.1-4.4 2.6.7-.1 2.4.1 3.2-.4z"/><path fill="#F9F9F9" d="M96 136.5c.1-1 0-2.1-.4-3l-.5-.8c-.4-.3-.9-.3-1.4-.3-3.2 0-6.5 0-9.6.6-3 4.4-3.2 5.7 4.4 10.9 14.8 10.3 21.5 12.4 24.2 12.7 1.2.1 2.4-.4 3.3-1.2.8-.8 1.1-2.1.8-3.2-.5-1.6-1.9-2.7-3.4-3.3-4.4-1.8-14.8-10-17.1-11.1-.7-.4-.8-.7-.3-1.3z"/><path fill="#EEE" d="M118.2 95.8c1.2 4.2.7 7.3 1.9 11.5a9 9 0 01.4 5.1c-.7 1.9-2.5 3-4.1 4.1-8.7 5.8-11.1 11.5-19.1 18.2-.6.5-1.1 1.1-1.8.9-.9-.3-1.6-.3-2.2-1-1.1-1.4-3.7-.6-5.5-.8-4-.3-4.4.1-5.1.6-1.3-4.4 4.6-10.5 11.1-18 5-5.8 7.2-8.3 12.2-13.4 2.8-2.9 4.5-7.4 7.6-9.4 1.5-1 2.4-1.1 3.7.1.4.5.7 1.3.9 2.1z"/><path fill="#DADAD9" d="M94.9 129.4c5.6-1 7.8-1.9 11.3-6.4 3.1-4 7.8-5.9 9.5-7.6.4-.4 1.9-.7 1.5-.2-.5.8-5.5 4.3-5.8 4.6-5.4 6-6.7 7-10.8 11.2-.7.7-1.4 2.4-2.4 2.5-.8 0-3.6-2.9-3.7-3.6 0-.3.2-.5.4-.5z"/><path fill="#DADAD9" d="M91.2 132.7c-1-.7-2.1-1.1-3.3-1.2-.2 0-.5 0-.6.2-.1.2.1.5.3.6 1 .7 2.2.8 3.2 1.4 1.3.7 3.2 1.1 4.3 2.1l.8.5c.6.1 1.1-.5 1.5-1 .2 0 .4-.3.3-.5l-.4-.5c-.1-.2-.3-.4-.2-.6l.5.2c.2 0 .4-.1.4-.3l-.2-.3c-1.8-2.2-5-3-7.6-4.1l-.6-.2a1 1 0 00-.6.2c-.2.2-.1.6.1.8l.8.5c1.5.7 3.7 1 4.5 2.5-.8 0-2.5.2-3.2-.3z"/><path fill="#EEE" d="M132.6 180.7a337.4 337.4 0 01-1.4-65.9c.3-4.2.7-8.4.5-12.6-.2-3.3 1.2-11.1-2.5-12.6-2.2-.9-13 2-15.4 3.6a303 303 0 016.5 46.4c.3 4.4.5 8.9-.4 13.3-.7 3.3-2 6.6-1.8 10l.3 2.1c-.3.4-.6.7-1.1.8-.7 5.1-.9 10.2-.4 15.3 1.2-.1 2-1.3 3-2 1.1-.8 2.6-.8 3.9-.8 1.7 0 3.4-.1 4.9.6 1.8.7 3.5 2.3 5.3 1.6v-.2l-1.4.4z"/><path fill="#E3E3E3" d="M126.2 176.8c-1.1-.4-2.3-.9-2.9-1.8-.5-.7-.5-1.6-.6-2.5l-1.1-15.5.5-3.6c.3-4-.4-33.3-2-34.5-2.4 6 .1 22-.1 32.1-.1 1.9 0 3.3.1 4.7a67.5 67.5 0 001 20.7c.1.4.2.8.5 1 .3.2-.2.7.1.7 2.5.2 6.1-.6 9.7 1.8-1.2-.5-3.8-2.6-5.2-3.1z"/><path fill="#E3E3E3" d="M122.7 155.3a6.3 6.3 0 00-2.1 4.1 6 6 0 001.4 4.3c-.1-.9-.2-1.8-.1-2.7.1-.9.5-1.8 1.1-2.4.8-.7 1.9-.8 2.8-1.2a7 7 0 004.3-6.1c-2 2-5.2 2.2-7.4 4zm42.3 0c1.2 1 1.9 2.5 2.1 4.1s-.4 3.1-1.4 4.3c.1-.9.2-1.8.1-2.7-.1-.9-.5-1.8-1.1-2.4-.8-.7-1.9-.8-2.8-1.2a7 7 0 01-4.3-6.1c2 2 5.3 2.2 7.4 4z"/><path fill="#DADAD9" d="M121.8 178c-2.1-5.4-1.8-17.5-1.8-23.3l-.1-27c0-2.7-.5-9.3-.5-9.5.3-1.7-1-2.7-.8-3.7-.7 1.6.4 2.3-.2 3.9 1.9 17.1-.4 27.1-.3 27.3.1 1 1.7 4 0 7.6-.4 1 .1 1.2-.4 2l-.1.1c-.1.6 1.3.6 1.2 1.2-2 9.6-4 29.6-2.1 25.8 1.1-2.5 5.3-4.1 5.1-4.4zm49.7-60.8c-.5.3-1.1-.2-1.5-.6-.4-.4-1-.8-1.5-.5-.4.3-.4.9-.3 1.3.1 1.3-.2 2.6-.8 3.8-.2-1.5-.5-2.9-.4-4.4.1-1.5.4-3 1.3-4.1.1.2 0 .5 0 .8 0 .3.1.6.4.6.4 0 .2-.8.6-1 .2-.1.5 0 .6.3l.1.8c-.1 1.2.7 2.2 1.5 3z"/><path fill="#DADAD9" d="M114.6 117.2c.5.3 1.1-.2 1.5-.6.4-.4 1-.8 1.5-.5.4.3.4.9.3 1.3-.1 1.3.2 2.6.8 3.8.2-1.5.5-2.9.4-4.4-.1-1.5-.4-3-1.3-4.1-.1.2 0 .5 0 .8 0 .3-.1.6-.4.6-.4 0-.2-.8-.6-1-.2-.1-.5 0-.6.3l-.1.8c.1 1.2-.7 2.2-1.5 3z"/><path fill="#F1F1F1" d="M130 277.3c.6 3 1.2 5.1 1 8.2 0 .4-.2.8-.5 1.1-.7.7-2 3.3-2.4 4.9-.6 2.3 1.3 6.5-6.7 8.2-2.2.3-6.2.5-9.7-.2-5.9-1.4-4.2-9.2-4.2-9.2l5.5-7 1.1-6.1c.2-1 1.1-1.6 2.1-1.4 3.2.6 7.5.7 12.5.3.8-.1 1.1.3 1.3 1.2z"/><path fill="#E3E3E3" d="M129.6 273.8c.4 1.2 1.7 5.7 1.4 9 0 0-2.4 3.1-3 5.4-.6 2.3 1.3 6.5-6.7 8.2 0 0-4.6.6-8.8 0-4.1-.6-7-4.1-3.9-8.9l4.3-7.5 1.1-6.1c.2-1 1.1-1.6 2.1-1.4 2.7.5 6.2.6 10.2.4.8 0 1-.3 1.8-.3.9-.2 1.2.4 1.5 1.2z"/><path fill="#F1F1F1" d="M125.1 294.7c-.6.7-1.6.9-2.5 1.1-2.9.7-5.9 1.1-8.9 1.2-1.5.1-3.2 0-4.3-1-.9-.8-1.2-2-1.6-3.1-.3-1-.5-2-.3-3 .4-1.2 1.5-2 2.6-2.6a13 13 0 0113.3 1.5 6 6 0 012.1 2.6c.5 1.2.4 2.5-.4 3.3zm-11.6-10l1.2-.8c.8-.5 2.4-1.6 2.4-2.5l-1.9-13.8c0-.6.4-1.1.9-1.4 3.1-1.3 8.2-1.5 11.4-.1.7.3 1.4 2.3 1.1 3.1l-4.6 12.1c-.3 1 0 2.1.7 2.8l1.7 1.6c-3.5-2.7-8-2.6-12.9-1z"/><path fill="#BDBCBC" d="M131.2 282.9l-.1 1.8v1c-.1.4-.2.8-.6 1.1-.5.5-.9 1.4-1.3 2.2-.4.9-.8 1.9-.9 2.9-.1 1 .1 2.3-.2 3.5a5.1 5.1 0 01-2.4 3.2 11 11 0 01-3.8 1.4c-1.4.3-2.7.3-4 .3-1.3 0-2.6 0-3.8-.2-1.2-.2-2.4-.3-3.5-.8s-2-1.3-2.5-2.1c-.5-.9-.8-1.8-.9-2.6l-.2-2.1.1-1.8c0-.2.2-.3.4-.3s.3.2.3.4l-.1.4-.1 1.3c0 .6 0 1.2.2 2s.4 1.6.9 2.4c.5.8 1.3 1.5 2.2 1.8 1 .4 2.1.5 3.3.6l3.7.1c1.3-.1 2.6-.1 3.8-.4 1.2-.3 2.4-.7 3.5-1.3 1-.6 1.8-1.5 2.1-2.6.3-1.1.2-2.2.4-3.4.3-1.2.7-2.1 1.2-3 .5-.9.9-1.7 1.5-2.3.3-.3.4-.6.5-.9v-2.7l.2-.2.1.3zm-2.6-10.4l.5.2c.2.1.4.3.4.5l.2.6.3.7.2.8.4 1.8a27.3 27.3 0 01.7 4.6v.4c0 .2-.1.4-.3.4s-.4-.1-.4-.3v-.2l.1-.4v-1.1a32.5 32.5 0 00-1.4-5l-.3-.8-.2-.7-.1-.6v-.4l-.1-.2h-.1a.2.2 0 01-.2-.2c.1-.1.2-.2.3-.1z"/><path fill="#BDBCBC" d="M130.7 283.3l-.2.3-.5.9c-.4.8-1 1.9-1.4 3l-.2.8-.1.8-.1 1.6c-.1 1-.4 1.5-.4 1.5s-.1.1-.1 0l-.1-.1.1-.4.1-1.1V289l.1-.9.2-.9a10 10 0 011.5-3.1l.7-.9.3-.3c.1-.1.2 0 .3.1l-.2.3zm-4.1 10.8l-1.1.9-1.3.7c-.9.4-1.8.7-2.8.9-2.5.3-4.9.4-7.4.2l-1.9-.2c-.6-.1-1.3-.3-1.8-.6-.6-.3-1.1-.6-1.6-1.1-.5-.4-.9-1-1.1-1.6-.3-.6-.4-1.3-.4-1.9 0-.7.1-1.3.3-1.9l.3-.9.4-.8.9-1.6 3.7-6.4v.1l.8-4.2.2-1 .2-1.1c.2-.7.9-1.3 1.7-1.3l.1.1-.1.1c-.7 0-1.3.5-1.4 1.2l-.2 1-.2 1.1-.7 4.2v.1l-3.6 6.4-.9 1.6a3 3 0 00-.4.8l-.3.8c-.2.6-.2 1.1-.2 1.7a4.5 4.5 0 001.4 3.1l1.4 1 1.7.5 1.8.2c2.4.2 4.9.1 7.3-.1.9-.2 1.8-.4 2.7-.8l1.3-.6 1.1-.8h.3l-.2.2z"/><path fill="#BDBCBC" d="M115.8 272.7l-.1-1.3-.2-1.3-.6-2.6c0-.6.2-1.1.7-1.5l.7-.4.7-.2 1.4-.4 1.4-.2h2.8l2.8.4 1.4.4 1.4.5c.5.4.7.9.9 1.3.2.5.3.9.2 1.5l-.2.7-.2.7-.6 1.3a13 13 0 00-1 2.5c0 .2-.2.3-.4.3s-.3-.2-.3-.4v-.1l1.2-2.6.5-1.3.2-.6.2-.6a5 5 0 00-.2-1.2c-.1-.4-.4-.8-.6-1l-1.2-.4-1.3-.3-2.7-.2h-1.4l-1.3.1-2.6.4-1.2.4a1 1 0 00-.5.9v-.1l.4 2.6.2 1.3.2 1.3-.2.2-.5-.1z"/><path fill="#BDBCBC" d="M125.7 274.5c1.3-.1 2.1-.1 2.1-.3 0-.1-.8-.4-2.1-.5h-2.3l-2.8.5-.5.1-1.2-.2-2.2-.2c-1.3 0-2 .1-2 .2 0 .2 1.6.4 3.7.9l-.5.2-2 1.2c-1.1.8-1.6 1.4-1.5 1.5.1.1.8-.3 1.9-.9l2-1 1.8-.7 1.1.3c3.5 1.1 6.1 2.7 6.3 2.4.1-.1-.5-.7-1.5-1.4l-1.9-1.1a12 12 0 00-2-.8l1.4-.3c.8.3 1.6.2 2.2.1zm-1.5 4.2l-2.2.1-1.9.4-1.8-.5a15 15 0 00-2-.2c-1.1 0-1.8.2-1.8.3 0 .2 1.7.3 3.9.9l-1.5.7-1.9 1.2c-1 .8-1.5 1.4-1.4 1.5.2.2 2.6-1.6 6.1-2.7l.3-.1.2.1c3.1 1.2 5.1 3 5.3 2.8.1-.1-.3-.7-1.1-1.5a11 11 0 00-2.7-1.8c2.5-.5 4.4-.5 4.5-.7 0-.2-.7-.4-2-.5z"/><path fill="#F7F7F7" d="M120.3 291.7c-1.6.3-3.2.6-4.8.6-1.1 0-2.3-.3-3.3-.7-.7-.3-.8-1.3-.3-1.8a7.2 7.2 0 018.4-1.1c.5.3 1 .6 1.2 1.1.3.5.3 1.2-.1 1.6l-1.1.3z"/><path fill="#BDBCBC" d="M145.7 192.6c-.5.7-.7 1.5-1 2.3l-.6 2.4-.8 5a164 164 0 00-1.2 10.1l-.9 10.1a173 173 0 01-1.3 10.3 52.7 52.7 0 01-13.8 2.9c-2.4.2-4.7.1-7.1-.3a12 12 0 01-6.3-3.3l-.1-.2 1.2-25.2.4-6.3.5-6.3c.4-4.2.6-8.4 1.2-12.5 0 0 0-.1.1 0v.1l-.6 12.6-.7 12.6-1.5 25.1-.1-.2c1.5 1.7 3.7 2.7 6 3.2s4.6.5 6.9.4a51.2 51.2 0 0013.6-2.9l-.2.2 1-10.1.9-10.1c.4-3.4.7-6.7 1.3-10.1l1-5 .7-2.4 1.4-2.4zM174.7 231.8a47.2 47.2 0 01-19.1 2.9c-2.2-.2-4.3-.8-6.3-1.8l-.1-.2-.5-4.4-.7-4.3-1.2-8.8-.6-4.4-.5-4.4-.4-4.4-.3-4.4.1-.1h.1l.8 4.4.7 4.4.6 4.4.5 4.4.9 8.8.5 4.4.6 4.4-.1-.2c1.9.9 4 1.4 6.2 1.6 2.1.2 4.3.2 6.4 0a70.3 70.3 0 0012.4-2.3zm-4.2-59.6l.2.6.5 1.8a161.2 161.2 0 012.1 16l.9 10.8 1 10.8.4 5 .2 4.5.1 6.7-.1 2.5s0 .1-.1 0l-.2-2.5-.2-2.9a204.4 204.4 0 01-.6-8.2l-.3-5-.6-10.8c-.2-3.7-.7-7.3-1-10.8l-.5-4.9-.5-4.4-.5-3.7-.4-2.9-.3-1.8-.1-.8zm-10.2 100.2a.2.2 0 01-.2-.2l-.7-3.6c0-.2-.1-.4.1-.6.2-.4.8-.6 1.8-.6l.2.2-.2.2c-1.1 0-1.3.3-1.4.4v.3l.7 3.6c0 .2-.1.3-.3.3z"/><path fill="#F1F1F1" d="M160.5 276.7c-.4 3-1.6 4.9-1.3 8 0 .4.3.8.6 1.1.8.7 5.4 2.8 5.9 4.4.7 2.3-1 6.5 7.1 7.8 2.2.2 6.3.2 9.6-.7 5.9-1.7 3.8-9.4 3.8-9.4l-6.9-6.3-1.4-6c-.2-1-1.2-1.5-2.1-1.3-3.2.8-8.4 1-13.4.9-1 0-1.8.7-1.9 1.5z"/><path fill="#E3E3E3" d="M160.1 271.1c-1.6 2.9-1.5 7.6-1.1 10.9 0 0 5.8 2.6 6.5 4.9.7 2.3-1 6.5 7.1 7.8 0 0 4.7.3 8.8-.4 4.1-.8 6.8-4.5 3.5-9.1l-5.8-6.8-2.3-6c-.4-1-.3-1.6-1.3-1.4-2.7.7-6.1 1-10.1.9-.8 0-3.1-5.4-3.9-5.4-1 0-1.7.5-1.7 1.4.1 1.1.6 2.6.3 3.2z"/><path fill="#F1F1F1" d="M168.7 293.4c.7.6 1.6.9 2.5 1 3 .5 6 .8 9 .8 1.5 0 3.2-.1 4.3-1.2.8-.8 1.1-2.1 1.4-3.2.2-1 .4-2 .1-3-.4-1.2-1.6-2-2.8-2.5a13 13 0 00-13.2 2.2c-.8.7-1.6 1.6-1.9 2.7-.3 1.2-.2 2.4.6 3.2zm12-10.9s-2.6-3.7-2.7-4.7l-1.5-5.7-1.1-6.9c-.1-.6-.5-1.1-1-1.3-3.2-1-7.1.9-10.4 1.7-2 .5-1.6 2.3-1.4 3l6.4 11.7c.4 1 1.2 2 .5 2.8l-.5 1.7c3.2-3.2 6.6-3.4 11.7-2.3z"/><path fill="#F7F7F7" d="M173.3 290c1.6.2 3.2.5 4.8.3 1.1-.1 2.3-.4 3.3-.9.7-.4.8-1.3.2-1.8a9 9 0 00-3.4-1.7c-1.7-.3-3.6 0-5.1.9-.5.3-.9.7-1.2 1.2-.2.5-.2 1.2.2 1.6.4.3.8.3 1.2.4z"/><path fill="#BDBCBC" d="M159.2 282.1a25.4 25.4 0 00.2 2.8c.1.3.3.6.6.8l2.4 1.4c.9.5 1.9 1.1 2.8 1.9l.6.7c.2.3.2.6.3 1l.2 1.9c.2 1.2.6 2.4 1.6 3.1 1 .8 2.2 1.2 3.5 1.5l1 .2.5.1h.5l2 .1c1.3 0 2.6 0 3.9-.2 1.2-.1 2.5-.3 3.5-.7 1-.4 1.9-1.1 2.4-1.9.5-.8.8-1.7.9-2.5l.1-2.1-.2-1.3-.1-.5c0-.2.1-.4.3-.4.2 0 .4.1.4.3l.1 1.9-.1 2.2a6 6 0 01-3.7 4.9 26 26 0 01-7.7 1.1h-2.6l-.5-.1-1-.2a8.7 8.7 0 01-3.9-1.8c-.6-.5-1-1.1-1.3-1.7-.3-.7-.4-1.4-.5-2l-.1-1.9-.2-.8-.5-.6c-.8-.8-1.7-1.4-2.6-1.9l-2.4-1.5c-.4-.3-.6-.6-.7-1l-.1-1-.2-1.9.2-.2.4.3zm1.4-10.7l-.4.2-.3.3-.1.5-.5 3.6-.4 3.6v1.7l-.1.1-.1-.1-.2-1.7a31.3 31.3 0 01.9-8.1l.5-.4.4-.1h.1c.1 0 .2 0 .2.2.2.1.1.2 0 .2z"/><path fill="#BDBCBC" d="M159.6 282.2l.4.2 1.2.6a18 18 0 013.5 2.2c.3.3.6.5.8.9l.3.6.1.6.1 1.9.2 1.3.1.5-.1.1h-.1s-.4-.7-.6-1.8l-.3-1.9-.1-.5-.2-.4-.7-.7c-1.1-.9-2.4-1.6-3.4-2.2l-1.1-.8a3 3 0 01-.4-.3v-.3h.3zm7.8 10.3l1.1.8 1.3.5 2.7.6c1.7.1 3.5 0 5.2-.1l2.6-.3 1.3-.2 1.2-.4a5 5 0 003.1-3.5c.3-1.6-.4-3.3-1.3-4.7l-5.7-6.9-1.4-3.4c-.4-1.2-.9-2.3-1.2-3.5l.1-.1.1.1c.3 1.2.8 2.3 1.3 3.5l1.5 3.4 5.8 6.8c.5.7 1 1.5 1.2 2.4.3.9.4 1.8.2 2.7-.2.9-.6 1.8-1.2 2.5s-1.4 1.2-2.2 1.6l-1.3.4-1.3.2-2.6.3h-5.3a23 23 0 01-2.8-.7l-1.3-.6-1.2-.9v-.3c-.1-.3.1-.3.1-.2z"/><path fill="#BDBCBC" d="M176.1 272.2l-.4-3.4-.6-3.4c0-.3-.2-.5-.3-.7l-.3-.2-.4-.1-1-.2-1-.1h-2l-2 .2c-1.3.2-2.7.5-4 1l-.9.4c-.2.1-.5.3-.6.6-.3.5-.4 1.1-.2 1.8.4 1 .8 2.1 1.3 3a6 6 0 002 2.4c.2.1.2.3.1.5s-.3.2-.5.1c-.5-.4-.9-.8-1.2-1.3l-.9-1.4c-.6-1-1-2-1.4-3.1-.2-.7-.2-1.6.3-2.3l.9-.9 1-.5c1.3-.6 2.7-.9 4.1-1.2l2.1-.3 2.2.1 1.1.2 1.1.3.5.2.5.4c.3.3.4.7.4 1.2l.4 3.5.2 1.7.2 1.7-.2.2-.5-.4z"/><path fill="#BDBCBC" d="M167.9 274.1c-1.1.1-1.8.2-1.9 0 0-.1.6-.5 1.8-.7l2-.3c.8 0 1.6 0 2.5.2l.4.1 1-.4 1.6-.4c1.1-.2 1.2 0 1.2.1 0 .2-.5.4-2.3 1.1l.5.2c.7.3 3 1.9 2.9 2-.1.1-2.5-.8-3.2-1l-1.7-.5-.9.4c-3 1.5-5.1 3.4-5.3 3.1-.1-.1.3-.7 1.2-1.5l1.6-1.3 1.6-1-1.3-.1h-1.7zm2.8 4l2-.2 1.8.1 1.5-.7c.6-.2.8-.3 1.3-.3 1-.1 1.6-.1 1.7.1 0 .2-1.1.4-2.9 1.3.5.1 2.3 1.2 2.8 1.5 1 .6 1.5 1.2 1.4 1.3-.1.3-2.1-1.4-5.3-2l-.3-.1-.2.1c-2.6 1.5-4.1 3.6-4.3 3.4-.1-.1.2-.7.8-1.6a8 8 0 012.2-2.1c-2.3-.2-4 .1-4.1-.2-.1-.1.5-.4 1.6-.6zm-10.2-6.5a.2.2 0 01-.2-.2l-.7-3.6c0-.2-.1-.4.1-.6.2-.4.8-.6 1.8-.6l.2.2-.2.2c-1.1 0-1.3.3-1.4.4v.3l.7 3.6c0 .2-.1.3-.3.3.1 0 .1 0 0 0zm11.1-93.4l-.5-2.6-1.1-7-.6-4.7-.3-2.6-.2-2.7c-.2-1.8-.8-3.6-1.3-5.5l-.1-.7v-.4l.1-.4.4-1.4.1-.7-.1-.2-.2-.4c-.2-.6.1-1.1.3-1.6.7-1.8.7-3.8.4-5.7l-.4-2.8c-.2-1-.1-1.9-.2-2.9l.1-5.3c0-1.7.2-3.3.3-4.7a164.8 164.8 0 01.9-9.8s0-.1.1 0V118.9l-.2 7.1-.2 4.7-.2 5.3c0 .9-.1 1.8.1 2.7l.3 2.9c.1 1.9.1 4-.6 5.9-.2.5-.3.9-.2 1.3l.2.2.2.5v.8l-.4 1.5-.1.3v.3l.1.7c.5 1.8 1.1 3.7 1.4 5.5l.2 2.7.3 2.6.6 4.7.8 7v2.6z"/><path fill="#D0D0D0" d="M154.4 178.2v-1.1l.2-2.8.4-3.9.5-4.4.4-8.3.3-2.7.2-1h.1l.1 1.1.1 2.8c0 2.3-.4 5.3-.8 8.3l-.3 4.5-.4 3.9-.4 2.7-.4.9c.1 0 .1 0 0 0zm2.3-40.1l-.2-2.1-.1-2.4-.1-3.1-.1-3.7-.1-4.1-.8-8.9c-.2-3-.5-6.1-.5-8.9 0-2.9.2-5.6.7-7.8.4-2.3 1.1-4.1 1.7-5.3l.7-1.4.3-.5h.1v.1l-.8 1.9c-.5 1.2-1 3-1.3 5.3a46 46 0 00-.4 7.7l.5 8.9.3 8.9.3 4.1.2 3.7v5.5l-.4 2.1c.1 0 .1 0 0 0z"/><path fill="#BDBCBC" d="M154.7 178.3s.3-.1.8 0l1.9.3h1.3l1.4-.2c1-.2 2.1-.4 3.1-.8l1.6-.4 1.6-.2a8.8 8.8 0 014.8.9l.7.4v.1l-.8-.1a26 26 0 00-4.6-.6H165l-1.6.3c-1.1.2-2.1.6-3.1.9l-1.5.3h-1.4c-.9-.1-1.5-.4-1.9-.5l-.8-.4zm12.9-129.9l.2-.2.5-.4c.2-.2.6-.3 1-.3.5 0 .9.1 1.4.4.4.3.9.7 1.1 1.3.2.6.4 1.2.4 1.8.1 1.3-.2 2.6-.5 3.9l-1.4 3.7-1.6 3c-.6.8-1.2 1.5-1.8 1.6-.3.1-.5 0-.7-.1l-.2-.1.2.1h.6c.5-.2 1-.9 1.5-1.7.5-.8.9-1.9 1.4-3l1.2-3.6c.3-1.2.6-2.5.6-3.7l-.2-1.6c-.2-.5-.5-.9-.8-1.2l-1.1-.5a2 2 0 00-.9.2l-.9.4z"/><path fill="#BDBCBC" d="M169.1 51.6l-.2.1-.4.4-.9 1.3-.6 1.5-.2.5-.1.2-.1-.2-.1-.6c-.1-.5 0-1.2.4-1.8l.6-.8.7-.5.6-.1h.3zM120.5 49l-.7-.6-1-.5-.6-.1-.7.2c-.4.2-.8.5-1.1 1-.3.5-.3 1.1-.4 1.8l.1 2 .5 2 .7 2 .8 1.9 1.8 3.2c.3.4.6.8 1 1 .3.2.7.3 1 .1l.6-.4.1-.2v.3l-.5.5c-.3.2-.8.2-1.2 0-.4-.2-.8-.6-1.2-1-.7-.8-1.4-1.9-2.1-3.1l-.9-1.9a17.2 17.2 0 01-1.2-6.4c.1-.7.2-1.4.6-2 .4-.6.9-1 1.5-1.2l.8-.1.7.2 1 .7.4.6z"/><path fill="#BDBCBC" d="M118.7 51.5h.2l.6.1.7.5.6.8c.3.6.4 1.3.4 1.8l-.1.6-.1.2-.1-.2-.2-.5-.6-1.5-.9-1.3-.4-.4-.1-.1zm52.1-27.8l.2.2.5.6.5 1.1.4 1.5.2 1.9.1 2.1-.1 2.2-.2 2.3-.4 2.3-.5 2.2a29 29 0 01-2.1 6.4l-.4 1 .2-1 .5-2.7.4-1.8.4-2 .4-2.2.3-2.2.3-2.2.2-2.2.1-2v-1.8a6 6 0 00-.2-1.5l-.3-1.1-.3-.7a1 1 0 00-.2-.4zm-5 6l.4.6.4.9.4 1.1.3 1.4.3 1.5.3 3.3v3.3l-.2 2.9-.4 2.8-.1-2.8-.1-2.9-.2-3.3-.4-3.2-.5-2.7-.3-1-.3-.8a6 6 0 01-.3-.7c-.1-.2 0-.5.2-.6.1 0 .4 0 .5.2zm1.1 18.1v2l-.1 5.2-.4 3.5a65 65 0 01-.8 3.8l-1 4.1c-.4 1.3-.9 2.8-1.5 4.1a27.6 27.6 0 01-5.3 6.6l-3 2.5-2.8 2-2.5 1.6-2.1 1a5 5 0 01-1.5.3h-.5l.5-.1 1.3-.5 1.9-1.1 2.4-1.7 2.8-2 3.1-2.3c2.1-1.7 3.9-3.9 5.2-6.4.6-1.3 1.1-2.6 1.3-4l.6-4.1c.3-2.7.5-5.2.9-7.3.4-2.1.8-3.9.9-5.1l.6-2.1z"/><path fill="#BDBCBC" d="M144.6 84.5h-.5a5 5 0 01-1.5-.3c-1.3-.4-2.9-1.3-4.9-2.3-2-1.1-4.1-2.5-6.3-4.3l-3.2-2.9c-1-1.1-2-2.2-2.8-3.5-.8-1.3-1.5-2.7-1.8-4.1l-1.1-4.2-.9-3.9-.5-3.6-.3-5.4v-2l.1-.1h.1l.4 2 1.1 5.3c.4 2.2.8 4.7 1.1 7.5l.7 4.2c.4 1.4 1.1 2.7 1.9 3.9a30.4 30.4 0 0011.9 10.5c2 1.1 3.5 2 4.7 2.5l1.8.7zm-24.1-37l-.2-.7-.5-1.8a30.2 30.2 0 01-.5-8.6l.2-1.4.2-1.2.5-1.8.2-.7c.1-.2.4-.4.6-.3.2.1.4.3.3.5l-.1.7-.4 1.8-.4 2.5-.2 2.9v2.9l.1 2.6.2 2.6zm32.2-17.4l4.4.5 1.1.1h1.1l1.1-.1 1.1-.1 2.1-.5 1-.4.5-.2.5-.3.9-.6.8-.7.4-.4.3-.4.7-.9 1-1.9.4-1 .2-1.1.1-.5v-.5V20l-.1-1.1-.2-1.1-.3-1-.4-1-1-1.9-1.2-1.8-1.4-1.6.7-.3c0 .7-.1 1.3-.3 1.9l-.7 1.8-.5.8-.6.8c-.2.2-.4.5-.7.6l-.8.5h-.1v-.1l.6-.6.6-.7.5-.8.4-.8.5-1.7.2-1.7c0-.2.2-.4.4-.4l.3.1a19.3 19.3 0 013.8 5.6l.4 1.1.3 1.1.2 1.1.1 1.1-.1 1.1-.1.6-.1.6c-.1.4-.1.8-.3 1.1l-.4 1-1.1 2-.7.9-.3.5-.4.4-.8.8-.9.7-.5.3-.5.3-1 .5a8 8 0 01-2.2.6l-1.1.2-1.1.1h-1.1l-1.1-.1c-1.8-.3-3.3-.7-4.6-1.4z"/><path fill="#BDBCBC" d="M160.6 21.6c.7-1.3 1.2-2.7 1.6-4.1l.4-2.1.1-2.2c0-1.5-.2-2.9-.6-4.4l-.7-2.1-.9-2 .4-.1-.4 1.4-.6 1.3-.4.6-.4.6-.4.5-.5.5-1 1-1.1.9-1.2.8-1.2.7c-.2.1-.4 0-.4-.1v-.1a36.6 36.6 0 00-1-6.4l.7.1-.6.8-.7.7-1.6 1.2-1.7.9-1.9.5h-.1v-.1l1.7-.8 1.6-1 1.4-1.2.6-.7.5-.7c.1-.2.4-.3.6-.1l.2.2.7 3.3.2 3.4-.5-.3 1.2-.6 1.2-.7 1.1-.8 1-.9.5-.5.4-.5.8-1.1.6-1.2.3-1.3.2-.2.2.1a20 20 0 012.6 8.7l-.1 2.3-.5 2.3-.9 2.1-1.4 1.4zm-19.4 9.5h3.2l1.6-.1 1.7-.2 1.8-.3 1.9-.4 3.6-1.2 3-1.4 2-1.2.7-.5-.6.6a17.5 17.5 0 01-4.7 3.2l-1.8.7-1.9.6-1.9.4-1.9.2-3.4.1c-2.1-.2-3.3-.5-3.3-.5z"/><path fill="#BDBCBC" d="M144.1 13.8a38.2 38.2 0 002.8-5.6l.2-.7.2-.8.2-1.6c.1-.5 0-1 0-1.6l-.1-.8-.1-.7.2-.2.2.2-.1.4-.2.2-.4.3-.9.6-1.8 1.2-3.9 1.8-4 1.5-2 .8-2 .8h-.1v-.1l1.8-1.1 1.9-1c1.3-.6 2.7-1.1 4-1.5 1.3-.4 2.7-.9 3.9-1.6l1.9-1 .9-.6.4-.3.2-.3.4-.1.1.8.1.8.1 1.6-.1 1.6-.1.8-.2.8a9.8 9.8 0 01-1.3 3.1 6 6 0 01-2.2 2.3z"/><path fill="#BDBCBC" d="M135.4 7.8l1-2.5c.3-.8.5-1.7.4-2.5v-.1c0-.2.1-.4.4-.4.2 0 .4.1.4.4V3l-.1.1-.1.2-.3.2-.5.4-1.1.6-2.2 1-4.4 1.7-2.1 1-2.1 1.1c-1.3.8-2.6 1.7-3.8 2.7l-1.7 1.6-.8.8-.8.9a12.7 12.7 0 00-2.2 4l-.3 1.1-.2 1.1-.2 2.3c0 .8.1 1.5.3 2.3.2.7.4 1.5.8 2.1v.1h-.1c-.6-.6-1-1.3-1.2-2.1-.3-.8-.4-1.6-.5-2.4v-2.4c.1-.8.2-1.6.5-2.4l1-2.2 1.4-1.9.8-.9.9-.8 1.8-1.5 1.9-1.4 2-1.3 2.1-1.2 2.1-1.1 4.3-1.9 2.1-1 1-.6.4-.3.2-.2.1-.1v.2l.8-.1c.1 1-.2 2-.6 2.8a5 5 0 01-1.4 2.3zM128.3 31l.7.2 1.9.4 1.3.2 1.4.1h1.5l1.6-.1 1.5-.3 1.4-.5.7-.3.6-.4 1.1-.7.8-.7.6-.6.5-.5-.4.6a3 3 0 01-.5.7l-.8.8-1 .9-.6.4-.7.4-1.5.6-1.6.4-1.7.1-1.6-.1-1.5-.3a5 5 0 01-1.3-.4 8.7 8.7 0 01-2.4-.9z"/><path fill="#BDBCBC" d="M118.3 29.5l.5.4 1.4.9 1 .5 1.2.4 1.3.3 1.3.1 1.3-.1 1.3-.3 1.2-.4 1-.5.8-.4.6-.4.6-.3-.5.5-.6.5-.8.6-1 .6-1.2.6-1.4.4c-.5 0-1 .2-1.5.1l-1.5-.1-1.4-.3a9 9 0 01-2.2-1.1l-1.3-1.1c.1-.7-.1-.9-.1-.9zM132 88.1l-.8.4-2.1.8c-1.8.6-4.2 1.2-6.6 1.7-2.4.5-4.8 1-6.5 1.5-.9.3-1.6.5-2 .8l-.6.6.1-.2.4-.5c.4-.4 1.1-.8 1.9-1.2 1.7-.8 4.1-1.4 6.5-1.9l6.6-1.3 2.2-.5.9-.2zm1 3.9l.8.3 2.2.8 1.5.4 1.7.3 1.8.2 1.9.1 1.9-.1 1.8-.2a57 57 0 001.7-.3l1.5-.4 2.2-.7.8-.3-.8.5-.9.5-1.2.6c-.9.4-2 .8-3.2 1-.6.1-1.2.3-1.9.3l-2 .1-2-.1c-.7 0-1.3-.2-1.9-.3l-1.7-.5-1.5-.6-1.2-.6-.9-.5-.6-.5z"/><path fill="#D0D0D0" d="M142.5 120.8l-4.4 5.8v.1l5.1-4.3 1.6-1.5.5-.3 2.7-2.5v-.5l2.5-4.2-2.9 1-1.6 2-8.9-5.9z"/><path fill="#BDBCBC" d="M154.6 88.9l.8.2 2.1.5 6.5 1.3c2.3.5 4.7 1.1 6.4 1.9l1.9 1.1.4.5.1.2s-.2-.3-.6-.5c-.4-.3-1.1-.5-2-.8l-6.4-1.5a58.1 58.1 0 01-9.2-2.9z"/><path fill="#BDBCBC" d="M171.6 93.6l.4.2 1.1.8 1.5 1.5 1.7 2.1 4.3 5.1 2.5 2.8 2.7 2.8a277.5 277.5 0 017.8 8.1l2 2.4 1.6 2.1 1.2 1.7 1 1.5v.1h-.1l-1.2-1.3-3.1-3.6-4.4-5-5.1-5.7-2.6-2.8-2.6-2.7-2.4-2.6-2-2.4a35 35 0 00-3-3.6l-.9-.9a4 4 0 00-.4-.6zm-2.5 22.5s1.4.7 3.2 2.1l3 2.5 3.3 3.1c2.3 2.1 4.6 4.1 6.1 5.8l1.8 2.1.6.9v.1h-.1l-.9-.6-2.1-1.8c-1.7-1.6-3.7-3.9-5.8-6.1l-3.3-3-3-2.5a23.2 23.2 0 01-2.8-2.6zM190.1 135.8l.5-.4 1.5-.9a26 26 0 017.9-1.9c.9 0 1.8 0 2.5.3l.8.7.3.8v.5l-.1.2-.1.1-.1-.1v-.6c-.1-.4-.3-.9-1-1.2-.6-.3-1.4-.3-2.3-.2-.9.1-1.8.2-2.7.5l-2.7.7c-.9.2-1.6.5-2.3.8l-1.5.7-.6.3c-.1.1-.2 0-.3-.1l.2-.2z"/><path fill="#BDBCBC" d="M203.5 134.6v-.4l-.1-.5-.1-.7-.3-1.7c-.1-.6-.2-1.2-.5-1.8l-1.6-3.2-.7-.9-.3-.3v-.1h.1s.6.4 1.2 1.2c.6.8 1.4 1.9 1.9 3.2l.4 1 .2 1 .2 1.7v1.3l-.1.5c0 .1-.1.2-.2.1l-.1-.4zM199.5 125.5l-3.1 1.8-3.1 1.8c-1 .6-2 1.3-2.9 2.1l-1.3 1.2-1.1 1.4-.4-.4c.6-.3 1.2-.3 1.6-.5.1-.1.3 0 .3.1.1.1 0 .3-.1.3l-1 .8-.3.4.1.2.1.1s.2-.2.4-.1.2.2.3.4l.1.3.2.1.7.3.4.6-.1.1-.1-.1-.3-.5-.5-.2c-.1 0-.3 0-.4-.2l-.1-.4-.1-.1-.2.1c-.2.1-.4 0-.5-.1l-.1-.2v-.2c0-.3.2-.6.3-.7l1-1 .3.4c-.6.3-1.2.3-1.6.5-.1.1-.3 0-.4-.1v-.3l1.1-1.4a20.1 20.1 0 014.2-3.5 56.2 56.2 0 016.7-3.3l-.1.3zM142.6 83.9l.9.2c.5.1 1.3.2 2 .1.7 0 1.4-.2 2-.3l.9-.3-.8.5-.9.3-1.1.2-1.1-.1-.9-.2-.6-.3-.4-.1c0 .1 0 .1 0 0 0 .1 0 0 0 0z"/><path fill="#D0D0D0" d="M159.3 90.5c.3-.9-5.4-2.1-5.1-1.8 1.2 2.6 1.4 5.2.7 8.9-1 5.2.6 11 .8 16.3.6-4.9-.4-10 .6-14.9.7-3.9 1.9-4.8 3-8.5zM132.6 180.7l-.3-1.2-.5-3.2-.4-4.6-.4-5.2c-.4-3.6-.8-7.1-.8-9.8l.1-3.3.1-1.2s0-.1.1 0l.2 1.2.3 3.2.4 9.8.5 5.2.5 4.6.2 3.2v1.3zM130.2 138.4l-.1-2.1v-5.5l.3-7.8.6-8.9.3-8.9a45.4 45.4 0 00-1.2-10.7l-.7-2.3-.7-1.9v-.1h.1l.3.5.8 1.4c.6 1.2 1.3 3 1.7 5.3.4 2.3.6 5 .5 7.8-.1 2.9-.4 5.9-.7 8.9-.3 3-.4 6.1-.5 8.9l-.3 7.8-.2 5.5c0 1.3-.1 2.1-.2 2.1.1 0 .1 0 0 0z"/><path fill="#BDBCBC" d="M118 115.6l.2 1.6.5 4.3.4 6.2.2 7.1c.1 2.4 0 4.8-.2 7.1l-.2 1.7v1.5l.1 1.5.2 1.3c.3 1 .2 1.9.1 2.6l-.6 1.8-.7 1.5h-.1v-.1l.4-1.6.4-1.8c.1-.7.1-1.5-.2-2.2l-.1-.4-.1-.4-.1-.7-.1-1.5.1-1.7.2-1.6c.3-2.2.5-4.6.5-7 0-2.4-.2-4.8-.3-7l-.5-6.1-.3-4.3-.1-1.7.2-.2c.1-.1.1 0 .1.1zM117.2 160.6l.1 1.4v4.2l-.5 5.5-.6 5.4-.2 2.7v2.7l-.4-.2c1.3-1.1 2.7-2.2 4.2-3.2l1.2-.6 1.3-.5a8.4 8.4 0 014.1-.3l.7.1.7.2 2.4 1c.8.4 1.6.6 2.4.8l2.5.5v.1h-.1c-1.7.1-3.5-.1-5.2-.7l-2.4-.9-.6-.2-.6-.1-1.2-.1a11.3 11.3 0 00-3.7.7l-1.1.5c-1.5.8-2.9 1.9-4.2 2.9h-.3v-.1l.1-2.8.2-2.7.5-5.5.5-5.4.1-2.7v-2.7l.2-.2c-.2.1-.2.1-.1.2z"/><path fill="#D0D0D0" d="M126.4 89.3c-.3-.9 4.9-1.4 4.7-1 .2 3.8.4 5.8 1.2 9.5 1.1 5.1-.8 11.8-1.3 16.7-.7-4.9 1-10.4-.1-15.2-.9-4-3.3-6.3-4.5-10zM133.9 173.2l.8-.2 2.1-.2 3-.1h3.5l3.5-.3 3-.3 2.1-.1h.8s.1 0 0 .1l-.8.3c-.5.1-1.2.4-2.1.5l-3.1.1h-3.5l-1.8.1-1.7.1-3 .1c-1.6.2-2.8 0-2.8-.1 0 .1 0 .1 0 0z"/><path fill="#F9F9F9" d="M155.7 146.9l.6 3.3.4 1.4.6.7c.3.3.5.6.9.8.4.2.8.2 1.1 0 0 .8 1 1.5 1.8 1.2-.3.3-.1.9.3 1 .4.1.8-.4.7-.8a6.2 6.2 0 004 2.4c1.5.3 3.1.2 4.7 0 .7-.1 1.4-.2 1.9-.7.7-.6.7-1.7.6-2.6-.4-3.1-2-5.9-4.3-7.9s-5.4-3.2-8.4-3.4c-1.1-.1-2.4.1-2.8 1-.3.5-.2 1.2-.3 1.8-.1.6-.5 1.2-1.1 1.2h-.6c-.2.2-.1.4-.1.6z"/><path fill="#BDBCBC" d="M162.3 154.6a9 9 0 001.9 1.5c.7.4 1.4.7 2.2.7l4.1-.3a59.1 59.1 0 014.2-.1l-.1.1-4.1.6-4.1.5c-.9 0-1.9-.3-2.6-.8a8.1 8.1 0 01-1.8-1.9v-.3h.3z"/><path fill="#BDBCBC" d="M267.7 293l-24.1-.1-20.4-.1c-17.3-.1-30.5-7.8-36.2-21.3-3.5-8.2-4-17.5-4.5-25.7l-.7-13.8c-.6-12.2-.9-19.5-3-37.5a105 105 0 00-16.3-45.6 38.4 38.4 0 00-14.1-10.9 1.5 1.5 0 01-.8-1.9c.3-.7 1.1-1.1 1.9-.8 5 1.9 11.7 7.1 15.4 11.8 3.8 5 6.6 10.9 9 16.6 4 9.4 6.7 19.9 7.9 30.4 2 18.1 2.4 25.9 3 37.7l.7 13.7c.5 8.4 1 17 4.2 24.8 5.3 12.5 17.3 19.5 33.6 19.5l20.4.1c16.4.1 32 .2 48.6-.1.8 0 1.4.6 1.5 1.4s-.6 1.4-1.4 1.5l-24.7.3z"/><path fill="#E1E1E1" d="M267.7 292.3l-24-.1-20.4-.1c-17.1-.1-30-7.7-35.6-20.9a76 76 0 01-4.4-25.5l-.7-13.8c-.6-12.2-.9-19.5-3-37.5a109.8 109.8 0 00-7.7-29.8c-2.3-5.5-5-11.3-8.7-16.1a39.1 39.1 0 00-14.4-11.1c-.4-.2-.6-.6-.4-1 .2-.4.6-.6 1-.4 4.9 1.9 11.5 7 15.1 11.6a74.5 74.5 0 018.9 16.4c3.9 9.3 6.7 19.7 7.8 30.2 2 18.1 2.4 25.9 3 37.6l.7 13.7c.5 8.4 1 17.1 4.3 25 5.4 12.8 17.6 19.9 34.2 19.9l20.4.1c16.4.1 32 .2 48.7-.1.4 0 .8.3.8.8 0 .4-.3.8-.8.8-8.6.3-16.7.3-24.8.3z"/><path fill="#F9F9F9" d="M147 136.2c-.1.3-.1.6.1.8.2.2.5.2.8.2.2 0 .5 0 .6-.2l.2-.5.4-.4.7-.5c-.4-.4-.9-.6-1.5-.5s-1.1.6-1.3 1.1z"/><path fill="#F9F9F9" d="M149.1 135.4l1.4 1.1-2.6-.3c.9.1 1.8.5 2.6 1l-2.1-.5 1 .6-1.6-.2"/><path fill="#F9F9F9" d="M147 136.2c-.1.3-.1.6.1.8.2.2.5.2.8.2.2 0 .5 0 .6-.2l.2-.5.4-.4.7-.5c-.4-.4-.9-.6-1.5-.5s-1.1.6-1.3 1.1z"/><path fill="#BDBCBC" d="M149.3 137.4l-1.6-.2-.1-.1.1-.1 1 .1-.5-.3-.1-.2.2-.1 1.3.3a6 6 0 00-1.9-.6l-.1-.1.1-.1 2.2.2a7 7 0 00-1-.8c-.1 0-.1-.1 0-.2 0-.1.1-.1.2 0l1.4 1.1s.1.1 0 .1l-.1.1-1-.1 1.1.6c.1 0 .1.1 0 .2l-.1.1-1.3-.3.3.2.1.2h-.2z"/><path fill="#F9F9F9" d="M165.6 152.8c-.5-.9-.7-1.9-1.2-2.8l-.5-.5c-.3 0-.5.2-.5.5l.1.8c-2.6-1-4.9-2.4-5.7-5v-2.4c.1-.5.4-1 .9-1.1.4-.1 1.4-.1 1.8.1s2.8.5 3.1.8c1.5 1.8.7 3.6 2.4 5.2s3.2 3.5 3.6 5.8c-1.4.5-3.1-.1-4-1.4z"/><path fill="#BDBCBC" d="M202.3 133l1 1.5c.3.5.7 1.1.8 2a4 4 0 01-.8 2.7c-.6.8-1.4 1.5-2.2 2.3l-2.7 2.1-6.2 4.2c-4.3 2.8-8.7 5.4-12.2 7a31.2 31.2 0 01-5.7 1.9l-.5.1-.1-.1.1-.1.4-.1 1.2-.3a67.3 67.3 0 0010-4.8l3.1-1.9 3.2-2.1 6.1-4.3c1.9-1.4 3.7-2.8 4.8-4.2.6-.7.8-1.5.7-2.2-.1-.7-.4-1.3-.6-1.8l-.9-1.5c-.1-.1 0-.2.1-.3.2-.3.3-.2.4-.1zm-9.3 3.2l-1 .4-1.1.5-1.4.7-1.6 1-1.7 1.2c-1.2.8-2.5 1.7-3.7 2.7-2.5 1.9-4.9 3.9-7 5l-1.5.7-1.2.4-1.1.3-.1-.1.1-.1 1-.3 1.1-.5a23.2 23.2 0 004.6-3.1l3.6-2.9 3.7-2.8c1.2-.8 2.4-1.6 3.4-2.1l.8-.4.7-.3 1.2-.4 1-.3.3.1-.1.3z"/><path fill="#BDBCBC" d="M172 150l-1.5-1.8-1.5-1.9-.8-1-.2-.2-.2-.2-.6-.3-2.5-1-2.3-.7-2.3-.6-.1-.1.1-.1 2.3.4 2.3.6 2.6.9.7.4.3.2.3.3.9 1.1 1.4 1.9 1.3 1.9c.1.1 0 .2-.1.3.1-.1 0-.1-.1-.1zm-14.5-4c-.6.4-1.3.7-2 .9l.2-.4.7 2.7-.1.1h-.1c-.5-.8-.8-1.6-1.2-2.5-.1-.2 0-.4.2-.4l2.1-.6.2.2c.1-.1 0-.1 0 0zm11.3 8.2l-.5.1-.5.1h-.6l-.5-.1-.5-.2-.4-.3-.7-.8c-.4-.5-.7-1.2-1-1.8a7 7 0 01-.6-1.9l.4.3.1-.1v.5l-.2 1-.7 1.8-.9 1.7-.6.9-.6.2a.7.7 0 01-.6-.4c-.2-.5-.1-.8 0-1.1l.3-.9.6-1.8 1.1-3.6.1-.1.1.1-.9 3.7-.5 1.9-.2.9v.7c.1.1.2.1.4 0s.3-.4.4-.7l.8-1.7c.3-.6.5-1.1.6-1.7l.1-.9v-.5l.1-.3c.1-.1.2-.3.4-.3s.4.1.4.3c.3 1.2.7 2.4 1.4 3.5l.6.7.3.3.4.2.4.1.4.1h.4l.5-.1.2.2c.2-.1.1 0 0 0z"/><path fill="#BDBCBC" d="M156.5 148.4l.8-4 .3-1c.1-.4.4-.7.6-1 .6-.5 1.4-.8 2.2-.6l2 .5 1 .2 1 .3a41.2 41.2 0 013.8 1.7l-.1.1-.1-.1.1.1-3.8-1.3-.9-.3-1-.2-2-.4c-.6-.1-1.2.1-1.6.5-.2.2-.4.4-.4.7l-.2.9-1.1 3.9c0 .1-.1.2-.3.1-.3.1-.3 0-.3-.1z"/><path fill="#BDBCBC" d="M159.7 144.6l-.2 1.2-.6 2.7c-.2 1-.4 1.9-.7 2.6l-.4 1.2-.3.1-.1-.2.2-1.2.7-2.6.8-2.6.4-1.2.1-.1.1.1zM161.2 145.4l-.2 1.2-.6 2.7c-.2 1-.4 1.9-.7 2.6l-.4 1.2-.3.1-.1-.2.2-1.2.7-2.6.8-2.6.4-1.2.1-.1.1.1z"/><path fill="#BDBCBC" d="M157.2 147l-.3 3-.1.7v.6s0 .1 0 0l.2.5h.1l.6.1.2.6.2.4h.2l.3-.4c.1-.1.3-.2.4-.1.1.1.2.2.1.3-.2.4 0 .9.3 1.3l.3.2s.1 0 0 0l.2-.1.6-.4s.1-.1.1 0c0 0 .1.1 0 .1l-.3.4-.4.3-.2.1h-.2l-.1-.1-.4-.3-.5-.8v-1l.5.3c-.1.2-.2.4-.5.6l-.5.1a.8.8 0 01-.5-.2c-.3-.2-.3-.5-.4-.7l-.3-.6.6.1c-.1.2-.4.3-.6.3l-.6-.2-.5-.8v-1l.1-.7.6-3c0-.1.1-.2.2-.1.6.3.6.4.6.5z"/><g><path fill="#BDBCBC" d="M114.2 92.9l-.4.3-.9 1L110 98l-2 2.6-2.3 2.7-5.3 5.8a235.9 235.9 0 00-9.4 11.1l-3.1 3.7-1.2 1.4h-.1v-.1l.9-1.6 1.2-1.7 1.6-2.2 2-2.5 2.4-2.7a2687.3 2687.3 0 0110.6-11.5l2.3-2.7 2-2.5a27 27 0 013.1-3.7l1.1-.8.4-.4z"/></g><g><path fill="#BDBCBC" d="M117.5 115.4l-.8.8-2.3 1.8a129 129 0 00-6.6 5.8 99.3 99.3 0 00-3.1 3.6 28 28 0 01-2.8 3l-2.2 2-.9.7h-.1v-.1l.6-.9 1.9-2.2c1.6-1.8 3.9-4.1 6.2-6.3l1.7-1.7 1.7-1.6c1.1-1 2.2-2 3.2-2.7 1-.7 1.8-1.3 2.5-1.6l1-.6z"/></g><g><path fill="#BDBCBC" d="M95.8 136.6l-.6-.3-1.5-.7a37 37 0 00-4.9-1.4l-2.7-.5c-.9-.1-1.7-.1-2.3.1-.6.2-1 .7-1.2 1-.2.3-.1.6-.1.6l-.1.1-.1-.1s-.1-.3.1-.7c.2-.4.5-1 1.3-1.3.7-.3 1.6-.3 2.5-.3l1.4.1 1.4.3c1.8.4 3.7.8 5 1.4.7.3 1.2.6 1.5.9l.5.4v.3l-.2.1z"/></g><g><path fill="#BDBCBC" d="M82.1 135.5l-.1-.5v-1.2l.2-1.7.5-2a10.8 10.8 0 013.1-4.4h.1v.1l-.3.3-.7 1-1.6 3.2-.4 1.8-.2 1.7-.2 1.2v.4l-.1.2-.3-.1z"/></g><g><path fill="#BDBCBC" d="M86.6 125.7c2.2.9 4.4 2 6.5 3.2a31.5 31.5 0 014.2 3.5l1.2 1.4c.1.1.1.3-.1.4h-.3c-.4-.2-1-.2-1.6-.5l.2-.4 1.1.9c.1.2.3.4.3.7v.2l-.1.2c-.1.1-.3.2-.5.1l-.2-.1-.1.1-.1.4c-.1.2-.3.2-.4.2l-.5.2c-.2.1-.3.3-.3.5l-.1.1-.1-.1.3-.6.6-.4.2-.1.1-.3.3-.4c.3-.1.4.1.4.1l.1-.1.1-.2-.3-.4-1-.8c-.1-.1-.2-.2-.1-.3.1-.1.2-.2.3-.1l1.6.4-.4.4-1.2-1.3-1.3-1.2c-.9-.8-1.9-1.4-2.9-2.1l-3.1-1.8-3.2-1.7-.1-.3.5.2z"/></g><g><path fill="#F9F9F9" d="M130.6 146.7l-.6 3.3-.4 1.4-.6.7c-.3.3-.5.6-.9.8a1 1 0 01-1.1 0c0 .8-1 1.5-1.7 1.2.3.3.1.9-.3 1-.4.1-.8-.3-.7-.8a6.2 6.2 0 01-3.9 2.4c-1.5.3-3.1.2-4.7 0-.7-.1-1.4-.2-1.9-.7-.7-.6-.7-1.7-.7-2.6.3-3.1 1.9-5.9 4.2-8 2.3-2 5.3-3.3 8.4-3.5 1.1-.1 2.4 0 2.9 1 .3.5.2 1.2.3 1.8.1.6.5 1.2 1.1 1.2h.6c.1.3 0 .6 0 .8z"/><path fill="#BDBCBC" d="M124.4 154.8c-.5.7-1.1 1.4-1.8 1.9s-1.6.9-2.6.9l-4.1-.4-4.1-.5-.1-.1.1-.1a53.6 53.6 0 018.2.5c.8 0 1.5-.3 2.2-.8.7-.4 1.3-1 1.9-1.6h.3v.2z"/><path fill="#BDBCBC" d="M53.9 295.4a23.9 23.9 0 01-12.7-3.5l-2.4.4a35.9 35.9 0 01-31.2-11.5c-.5-.6-.5-1.5.1-2s1.5-.5 2 .1c7 7.9 18.2 12 28.6 10.6a15.4 15.4 0 01-4.4-13.9c.9-3.9 3.7-7.2 7.2-8.6 3.8-1.5 8.3-.8 11.2 1.9 4.6 4.2 4 11.6.8 16a17.7 17.7 0 01-8.1 5.9c5.5 2.5 11.7 2 16 1 15.1-3.4 28.7-16 36.3-33.6 6.3-14.5 7-22.4 8.3-37l.4-4.5 1.1-12.9c.3-4.1.6-8.4 1.1-12.9a104.3 104.3 0 0116.7-45.2c3.6-4.7 9.9-9.5 15-11.5.7-.3 1.6.1 1.9.8.3.7-.1 1.6-.8 1.9a38.2 38.2 0 00-13.7 10.5 100 100 0 00-16.1 43.7l-1.1 12.8c-.3 4.1-.6 8.4-1.1 12.9l-.4 4.5c-1.4 14.8-2.1 23-8.6 37.8-8 18.5-22.3 31.7-38.3 35.3-2.3.6-5 1-7.8 1zm-8.7-26.3c-1 0-2 .2-3 .6a9.5 9.5 0 00-5.5 6.6c-1 4.3 1.1 9.3 5 12.5a17 17 0 009-5.7c2.5-3.4 3-9.1-.4-12.1a7.2 7.2 0 00-5.1-1.9z"/><path fill="#E1E1E1" d="M53.9 294.7c-3.6 0-7.5-.7-11.1-2.6l-1.5-.9-2.6.5A35.5 35.5 0 018 280.4a.7.7 0 01.1-1.1c.3-.3.8-.3 1.1.1a33.6 33.6 0 0029.3 10.8l1.2-.2a14.8 14.8 0 01-5.1-14.2 12 12 0 016.8-8.2c3.5-1.4 7.8-.7 10.5 1.7 4.4 4 3.7 10.9.7 15.1a18.2 18.2 0 01-9.2 6.2l.2.1a25 25 0 0017.6 1.6c15.3-3.5 29-16.2 36.7-34 6.3-14.6 7-22.6 8.4-37.2l.4-4.5 1.1-12.9c.3-4.1.6-8.3 1.1-12.9a104.4 104.4 0 0116.5-44.8 38 38 0 0114.7-11.3c.4-.2.9 0 1 .4.2.4 0 .9-.4 1a37 37 0 00-14 10.8 101 101 0 00-16.2 44.1l-1.1 12.9c-.3 4.1-.6 8.4-1.1 12.9l-.4 4.5c-1.4 14.7-2.1 22.9-8.5 37.6-7.9 18.3-22 31.3-37.8 34.9-2.3.5-4.9.9-7.7.9zm-8.7-26.3c-1.1 0-2.2.2-3.3.6a10.4 10.4 0 00-5.9 7.1c-1.1 4.7 1.3 10.1 5.5 13.4 4.2-1.1 7.6-3.2 9.6-6 2.7-3.6 3.1-9.7-.5-13a7.3 7.3 0 00-5.4-2.1z"/><path fill="#F9F9F9" d="M142 135.1c.1.3.1.7-.1.9-.2.2-.5.2-.8.2-.2 0-.5 0-.6-.2l-.2-.5a.8.8 0 00-.4-.4l-.7-.5c.3-.5.9-.7 1.5-.6s1.1.5 1.3 1.1z"/><path fill="#F9F9F9" d="M139.9 134.2l-1.3 1.2 2.6-.3c-.9.1-1.8.5-2.6 1.2l2.1-.6-1 .7 1.6-.2"/><path fill="#F9F9F9" d="M142 135.1c.1.3.1.7-.1.9-.2.2-.5.2-.8.2-.2 0-.5 0-.6-.2l-.2-.5a.8.8 0 00-.4-.4l-.7-.5c.3-.5.9-.7 1.5-.6s1.1.5 1.3 1.1z"/><path fill="#BDBCBC" d="M139.7 136.4l-.1-.1v-.2l.3-.2-1.3.4-.2-.1c-.1-.1 0-.1 0-.2l1.2-.7-1.1.1-.1-.1v-.1l1.4-1.3h.2v.2l-1.1 1 2.3-.3.1.1-.1.1c-.7.1-1.3.3-1.9.7l1.4-.4.2.1c.1.1 0 .1 0 .2l-.5.4 1-.1.1.1-.1.1-1.7.3z"/><path fill="#F9F9F9" d="M120.8 152.8c.5-.9.7-1.9 1.1-2.8l.5-.5c.3 0 .5.2.6.5s0 .5-.1.8c2.6-1.1 4.8-2.4 5.6-5.1v-2.4c-.1-.5-.4-1-.9-1.1-.4-.1-.9.1-1.3.3l-.9 1c-1.5 1.8-3.3 3.3-5 4.9a11 11 0 00-3.5 5.9c1.3.4 3.1-.2 3.9-1.5z"/><path fill="#F9F9F9" d="M125.8 149.5l.1-1a1 1 0 00-.6-.9c-.5-.2-1.1.1-1.5.5-.4.4-.8.9-1.3 1 .2.9.3 1.7.7 2.5.4.8 1 1.5 1.8 1.8l.8-3.9z"/><path fill="#BDBCBC" d="M83.6 133.9l-.2.4-.6 1.1c-.2.5-.4 1.1-.4 1.8s.4 1.4 1 2.1c1.2 1.4 3 2.7 5 4.1l6.2 4.2 3.2 2a53.7 53.7 0 009 4.9 26.7 26.7 0 006.1 2.1l-.1.1-.5-.1-1.3-.2-4.4-1.5c-3.5-1.5-8-4-12.3-6.8L88 144a68 68 0 01-5.1-4.3 4.6 4.6 0 01-1.1-2.6c0-.9.3-1.5.6-2l.7-1.1.3-.4.3-.1-.1.4zm9.7 2.4l1 .3 1.2.4.7.3.8.4a43.3 43.3 0 017.1 4.8l3.6 2.8a40.8 40.8 0 004.7 3.1l1.1.5a15 15 0 001.1.4l-.1.1-1.1-.2-1.2-.4-1.5-.7c-2.1-1.1-4.6-3.1-7.1-4.9l-3.8-2.6-1.8-1.1-1.6-1-1.4-.7-1.1-.5-1-.4c-.1 0-.2-.2-.1-.3.3-.3.4-.3.5-.3z"/><path fill="#BDBCBC" d="M114 149.8l1.3-2c.4-.6.9-1.2 1.3-2l.9-1.1.3-.3.3-.2.6-.4 2.6-1 2.3-.6 2.3-.5.1.1-.1.1-2.2.7c-.7.2-1.4.4-2.2.8-.8.3-1.7.6-2.5 1.1l-.6.3-.2.2-.2.2-.8 1-1.4 2a113.4 113.4 0 01-1.8 1.8s-.1-.1 0-.2zm15-4.4c.8.1 1.5.3 2.1.6.2.1.2.3.2.4l-1.1 2.5s-.1.1-.1 0l-.1-.1.7-2.7.2.4c-.7-.2-1.4-.4-2-.8l-.1-.3c0 .1.1 0 .2 0zm-11.3 8.5l.5.1h.4l.4-.1.4-.2.4-.2.3-.3.6-.7c.7-1 1.1-2.3 1.4-3.5 0-.2.2-.3.4-.3s.4.2.4.3l.1.3v.5l.1.9c.1.6.4 1.2.7 1.7l.9 1.7.4.7c.2.1.3.1.4 0v-.7l-.3-.9-.5-1.8-1-3.7.1-.1.1.1 1.2 3.6.6 1.8.3.9c.1.3.2.7 0 1.1-.1.2-.4.4-.6.4a1 1 0 01-.6-.2c-.4-.3-.5-.6-.6-.9l-.9-1.7c-.3-.6-.6-1.2-.7-1.8l-.2-1v-.5h.1l.4-.3a6 6 0 01-.6 1.9c-.3.6-.5 1.2-1 1.8l-.7.8-.4.3-.5.2-.5.1h-.6l-.5-.1-.5-.1c-.1 0-.2-.1-.1-.2l.2.1z"/><path fill="#BDBCBC" d="M129.5 148.3l-1.2-3.9-.3-.9a3 3 0 00-.5-.7c-.4-.4-1-.6-1.6-.5l-2 .4-1 .2-.9.3-3.8 1.4.1-.1-.1.1-.1-.1.1-.1 3.7-1.6 1-.3 1-.3 2-.5c.8-.2 1.6.1 2.2.6l.7 1 .3 1 .9 4-.2.2-.3-.2z"/><path fill="#BDBCBC" d="M126.7 144.4l.4 1.2.9 2.6.7 2.6.2 1.2-.2.2-.2-.1-.5-1.2c-.3-.7-.5-1.7-.7-2.6l-.6-2.7-.2-1.2.1-.1.1.1zM125.2 145.2l.4 1.2.9 2.6.7 2.6.2 1.2-.2.2-.2-.1-.5-1.2c-.3-.7-.5-1.7-.7-2.6l-.6-2.7-.2-1.2.1-.1.1.1z"/><path fill="#BDBCBC" d="M129.5 146.8l.6 2.9.1.7v1c-.1.2-.2.6-.5.8l-.6.2c-.2 0-.5-.1-.6-.3l.6-.1-.3.6c-.1.2-.1.4-.4.7l-.5.2-.5-.1c-.3-.2-.4-.4-.5-.6l.5-.3v1l-.4.8-.4.3-.1.1h-.2l-.2-.1-.4-.3-.3-.4.1-.1h.1c.1.2.4.3.6.4l.2.1.2-.3c.3-.4.4-1 .2-1.3-.1-.1 0-.3.1-.4.1-.1.3 0 .3.1l.3.4h.2l.2-.4.2-.6.6-.1h.1c.1-.1.2-.2.2-.5 0 0 0-.1 0 0v-.6l-.1-.7-.3-3 .2-.2c.5-.1.6 0 .7.1z"/></g><g><path fill="#BDBCBC" d="M151.2 41.5l.5.2 1.2.4.8.2.9.3 2 .8 4 .9 1.9.2.1.1-.1.1-1.9.3a21.2 21.2 0 01-6.6-.5l-1-.4-.9-.6c-.5-.4-.8-.9-1-1.3l-.1-.4v-.2l.2-.1zm-14.6.2v.2l-.1.4c-.1.4-.5.8-1 1.3l-.9.6a3 3 0 01-1 .4l-2.3.4c-1.6.2-3.1.2-4.3.1l-1.9-.3-.1-.1.1-.1 1.9-.2 4-.9 2-.8.9-.3.8-.2 1.2-.4.5-.2c.1-.1.2-.1.2.1 0-.1 0-.1 0 0zm6.5 33l.2-.1.4-.3c.4-.2.9-.3 1.4-.3l1.4.2.5.2.2.1-2 .1c-1.1.2-2.1.2-2.1.1 0 .1 0 .1 0 0 0 .1 0 .1 0 0zm-3.1-.8l.3-.3.9-.7 1.3-.8.8-.4.9-.3a3 3 0 011-.2h.5l.5.1c.7.1 1.3.4 1.7.7.4.3.7.6.8.9l.2.4v.1l-.3-.2-.9-.5c-.4-.2-.9-.3-1.4-.3l-1.7.2-3.1 1-1.4.5-.1-.2c-.1.1-.1 0 0 0z"/><path fill="#FF7033" d="M132.5 62.5c-5.9 0-10.1-3.9-10.1-9.3l-.3-5.5.1-.4.4-.2 18.3-.5.4.2.2.4v7.5c.1 4.3-4 7.8-9 7.8zm-9.2-14.2l.3 4.9c0 4.7 3.8 8.2 9 8.2 4.4 0 7.9-3 7.9-6.7v-6.9l-17.2.5zm32.5 14.2c-5 0-9-3.5-9-7.8v-7.5l.2-.4.4-.2 18.3.5.4.2c.1.1.2.3.1.4l-.3 5.5c0 5.4-4.3 9.3-10.1 9.3zm-7.9-14.7v6.9c0 3.7 3.5 6.7 7.9 6.7 5.2 0 9-3.4 9-8.1l.3-4.9-17.2-.6z"/><path fill="#FF7033" d="M141 50.5s.7-2.4 3.1-2.4c2.6 0 3.1 2.7 3.1 2.7v-3.7H141v3.4z"/><path fill="#FF7033" d="M147.3 51.3c-.2 0-.4-.2-.5-.4 0-.1-.5-2.3-2.7-2.3-2 0-2.7 2-2.7 2-.1.2-.3.4-.5.3-.2 0-.4-.2-.4-.5V47c0-.3.2-.5.5-.5h6.3c.3 0 .5.2.5.5v3.7c0 .3-.2.5-.5.6zm-3.2-3.7c1.2 0 2.1.5 2.7 1.2v-1.2h-5.3v1.2c.6-.7 1.5-1.2 2.6-1.2zm-21.5.6l-2.8-1.4 3.1.5c.3 0 .4.3.4.6s-.3.4-.6.4l-.1-.1zm42.8-.9l2.6-.7-2.2 1.5c-.2.2-.5.1-.7-.1s-.1-.5.1-.7h.2z"/><path fill="#BDBCBC" d="M128.3 53.7v.3l.1.8c.1.6.5 1.6 1.3 2.4.4.4.9.7 1.5.8l.4.1h.5a2 2 0 001-.3c.6-.3 1.2-.8 1.6-1.5.4-.7.7-1.4.7-2.3 0-.8-.1-1.6-.4-2.4-.3-.7-.8-1.4-1.5-1.7-.6-.4-1.4-.6-2.1-.5-.6.1-1.3.4-1.7.8a4 4 0 00-1.4 2.4l-.1.8.1.3zm-1 0v-.3l.2-.9c.2-.8.7-1.9 1.9-2.7.6-.4 1.3-.7 2.1-.8.8 0 1.6.1 2.3.6.7.5 1.3 1.1 1.7 1.9.4.8.6 1.7.5 2.6 0 .9-.2 1.8-.7 2.6-.4.8-1.1 1.5-1.9 1.9-.4.2-.8.4-1.3.4l-.6.1-.7-.1c-.8-.1-1.6-.5-2.1-1a5 5 0 01-1.6-3l-.1-1c.3-.1.3-.3.3-.3zM143.1 66.7s.1-.4.5-.8 1.1-.8 1.8-1l.5-.1h.5v-1.1l.6.7.1.2.1.4c0 .3-.2.6-.5.8l-.4.1-.2.1-.5.1-2.5.6zM161 53.7v.3l-.1 1a5 5 0 01-1.6 3c-.5.5-1.3.9-2.1 1l-.7.1-.6-.1a5 5 0 01-1.3-.4 5 5 0 01-1.9-1.9 6 6 0 01-.2-5.2c.4-.8 1-1.5 1.7-1.9a4 4 0 012.3-.6c.8.1 1.5.4 2.1.8a5 5 0 011.9 2.7l.2.9.3.3zm-1 .1v-.3l-.1-.8a4 4 0 00-1.4-2.4 3 3 0 00-1.7-.8c-.7-.1-1.4 0-2.1.5-.6.4-1.2 1-1.5 1.7-.3.7-.5 1.5-.4 2.4.1.8.3 1.6.7 2.3.4.7 1 1.2 1.6 1.5.3.2.7.2 1 .3h.5l.4-.1c.6-.1 1.1-.5 1.5-.8.8-.8 1.1-1.7 1.3-2.4l.1-.8.1-.3z"/><path fill="#FFF" d="M145.2 50.6c-.1 0-.6 7.4.7 11l.3.9"/><path fill="#BDBCBC" d="M145.2 50.6l.1.5.1 1.4a192 192 0 01.6 8.1l.2 1.3.1.5-.3-.5-.6-1.3a18.8 18.8 0 01-.6-8.3l.3-1.4.1-.3zM130.5 55.9c.1 1.4 1.1 2.4 2.2 2.3 1.1-.1 1.9-1.3 1.8-2.7-.1-1.4-1.1-2.4-2.2-2.3-1.1.2-1.9 1.4-1.8 2.7z"/><g><path fill="#BDBCBC" d="M157.8 56c-.1 1.4-1.1 2.4-2.2 2.3-1.1-.1-1.9-1.3-1.8-2.7.1-1.4 1.1-2.4 2.2-2.3 1.1.1 1.9 1.3 1.8 2.7z"/></g></g><g><path fill="#BDBCBC" d="M114.4 25.2h-.1c-.3.3-.5.7-.6 1.2l-.2 1.3v1.4l.1 1.4.1 1.4.2 1.4.4 2.7.5 2.7.5 2.7.5 2.7.5 2.7-1-2.6-.9-2.6-.7-2.7-.6-2.7-.4-2.8-.1-1.4v-1.4c0-.9.1-1.9.3-2.8l.5-1.4c.2-.4.5-.9.9-1.1l.1-.1z"/></g><g><path fill="#BDBCBC" d="M132.8 78.3l.3 1.6.2 3.6-.1 1.9-.4 1.7-.3.6-.4.4-.4.1-.1-.1h.1l.2-.1.2-.4.1-.6.1-3.5.1-3.5.4-1.7z"/></g><g><path fill="#BDBCBC" d="M153.2 89.7l-.1-.4-.2-1.1-.4-3.4c0-1.2 0-2.5.2-3.4l.3-1.5.1.4.1 1.1.2 3.3v3.4l-.2 1.6z"/></g></svg>
