<svg width="300" height="300" viewBox="0 0 300 300" fill="none" xmlns="http://www.w3.org/2000/svg">
<path d="M139.274 160.151C146.434 161.8 151.916 156.519 154.695 148.052C165.204 116.029 154.641 46.5 124 46.5C73.5 46.5 85.5847 147.845 119 162.5C119 162.5 85.3037 162.9 40.6623 160.655C33.5339 160.296 26.8279 155.635 21.4612 150.374C12.1781 141.274 8.69355 128.182 7.51491 115.236V115.236C6.51371 104.239 7.19856 92.8978 12.7838 83.3717C17.8525 74.7268 25.9836 65.0739 37.9088 62.2197C69.8836 54.5666 55.3329 58.1165 80.6329 52.5716C95.325 49.3516 102.439 29.022 91.0966 16.2775C77.5 1.0001 48.5 7.50043 42.5 25.4997C38.3332 37.9997 48.5 49.4997 48.5 49.4997" stroke="#B2B7C7" stroke-width="3"/>
<path d="M118.5 162.5C121 162.5 142 162 138 170.5C134 179 89.0625 181 91.5 187.5C94.3332 195.055 121.507 193.803 126 198.5C137 210 41.0485 207.407 35.9999 221C29.5 238.5 98.8862 233.416 106 241.5C117 254 66.6072 255.164 82.5 266C93.5 273.5 167 261.5 170.5 276.5C175.367 297.36 207.839 295.5 223.5 295.5C265 295.5 288.5 275 278.5 258C268.005 240.158 232.75 244.5 226 237C217 227 242.5 227.5 246.5 217C253.301 199.147 189.051 201.48 176.788 192C164.5 182.5 190.172 183.446 183 172.5C173.5 158 150.559 152.001 142 152C133.441 151.999 133.5 159.5 139.5 160" stroke="#B2B7C7" stroke-width="3"/>
</svg>
