<?xml version="1.0" encoding="UTF-8"?>
<svg id="Layer_1" data-name="Layer 1" xmlns="http://www.w3.org/2000/svg" viewBox="0 0 300 300">
  <defs>
    <style>
      .cls-1 {
        fill: #535c68;
      }
    </style>
  </defs>
  <path class="cls-1" d="m279.793,257.239c-6.796-11.554-23.007-14.223-36.031-16.367-7.4-1.218-14.391-2.369-16.646-4.876-1.169-1.298-1.67-2.359-1.489-3.155.419-1.84,4.399-3.481,8.25-5.069,5.631-2.322,12.013-4.954,14.025-10.237.923-2.421.787-4.68-.4-6.713-4.309-7.374-22.375-10.094-39.848-12.725-12.531-1.886-25.489-3.837-29.948-7.283-2.601-2.011-2.824-3.1-2.799-3.474.07-1.071,2.217-2.318,4.111-3.418,2.762-1.604,5.893-3.423,6.62-6.496.42-1.773-.046-3.707-1.383-5.748-6.583-10.047-19.308-16.216-29.797-19.14.621-1.226,1.182-2.557,1.662-4.018,7.711-23.496,4.264-69.489-11.582-91.366-5.841-8.064-12.751-12.153-20.539-12.153-17.368,0-29.362,11.586-33.773,32.623-5.905,28.168,3.691,69.436,23.206,83.402-11.341-.008-39.042-.176-72.695-1.868-5.718-.288-11.85-3.604-18.227-9.854-7.676-7.524-12.092-18.712-13.502-34.203-1.2-13.182.41-23.023,5.069-30.969,4.563-7.782,12.462-17.647,24.18-20.452,20.967-5.019,21.92-5.217,27.212-6.321,2.863-.597,6.783-1.414,15.484-3.321,7.335-1.608,13.469-7.465,16.007-15.285,2.702-8.323.929-17.098-4.744-23.472-6.696-7.524-17.413-10.634-28.666-8.32-10.895,2.24-19.507,9.162-22.475,18.065-4.39,13.169,5.86,24.972,6.299,25.468l2.249-1.986c-.096-.109-9.539-11.023-5.702-22.534,2.63-7.891,10.383-14.05,20.233-16.075,10.191-2.094,19.845.663,25.82,7.376,4.957,5.57,6.501,13.252,4.132,20.551-2.211,6.812-7.498,11.9-13.796,13.281-8.686,1.904-12.597,2.719-15.454,3.314-5.328,1.111-6.289,1.311-27.298,6.34-12.746,3.051-21.212,13.567-26.07,21.852-4.922,8.396-6.711,19.112-5.468,32.759,1.477,16.23,6.184,28.029,14.39,36.074,6.916,6.779,13.704,10.382,20.175,10.708,32.982,1.659,60.243,1.872,72.083,1.872,4.019,0,6.262-.024,6.348-.025v-.002c14.271-.044,17.164,2.697,17.71,3.552.248.388.509,1.05-.085,2.312-1.726,3.668-15.401,6.508-25.386,8.581-12.293,2.552-19.329,4.142-20.977,7.133-.43.78-.493,1.628-.184,2.451,1.927,5.14,11.67,6.61,21.093,8.032,5.697.859,12.154,1.834,13.727,3.479.386.403.483.667.454.745-1.167,3.194-22.458,5.473-38.004,7.137-30.146,3.228-50.106,5.88-52.772,13.059-.841,2.265-.674,4.357.496,6.221,4.515,7.188,23.675,8.985,42.203,10.723,11.811,1.107,25.198,2.362,27.581,5.07,1.476,1.677,1.23,2.606,1.15,2.911-.77,2.925-8.154,5.489-14.086,7.55-7.255,2.52-13.521,4.695-14.033,8.557-.26,1.958.966,3.833,3.75,5.73,4.978,3.394,20.092,3.137,37.593,2.843,21.395-.36,48.026-.812,49.792,6.759,4.385,18.794,28.905,20.202,46.248,20.202,1.613,0,3.167-.012,4.634-.023,1.268-.01,2.466-.02,3.579-.02,26.571,0,48.646-8.578,56.238-21.854,3.366-5.885,3.386-12.244.055-17.907Zm-2.658,16.418c-5.367,9.384-22.635,20.343-53.635,20.343-1.12,0-2.327.01-3.603.02-16.341.135-43.688.344-47.937-17.86-2.316-9.929-26.82-9.516-52.764-9.076-15.567.259-31.663.534-35.852-2.322-2.355-1.606-2.51-2.532-2.467-2.856.27-2.029,7.075-4.393,12.044-6.118,7.625-2.648,14.826-5.149,16.003-9.619.486-1.846-.12-3.749-1.799-5.658-3.016-3.428-13.195-4.541-29.553-6.075-16.135-1.513-36.215-3.396-39.943-9.331-.667-1.061-.738-2.198-.224-3.58,2.219-5.976,29.997-8.949,50.279-11.12,24.712-2.646,38.777-4.371,40.502-9.09.325-.89.398-2.279-1.104-3.85-2.281-2.385-8.382-3.305-15.448-4.371-7.762-1.171-17.423-2.629-18.738-6.049.675-1.865,11.684-4.151,18.969-5.663,15.178-3.151,25.291-5.567,27.491-10.241,1.13-2.401.568-4.156-.102-5.205-2.109-3.301-8.832-4.949-19.906-4.934-19.364-8.81-32.808-51.171-26.185-82.762,2.367-11.293,9.522-30.238,30.836-30.238,6.771,0,12.864,3.672,18.109,10.913,15.347,21.19,18.656,65.834,11.162,88.671-.455,1.387-1.04,2.829-1.789,4.194-3.734-.861-7.043-1.278-9.482-1.278h-.001c-5.533,0-8.126,2.817-8.243,5.61-.099,2.383,1.73,4.94,5.393,5.347l-.002.015c.06.007.118.007.178.014.018.002.032.007.05.008v-.004c5.558.606,10.172-1.579,13.46-6.239,9.864,2.632,22.55,8.362,28.91,18.07.881,1.343,1.198,2.46.974,3.413-.431,1.817-2.859,3.229-5.208,4.593-2.666,1.548-5.422,3.148-5.599,5.813-.128,1.938,1.13,3.858,3.959,6.045,5.075,3.924,17.831,5.845,31.336,7.877,15.992,2.407,34.12,5.137,37.703,11.271.718,1.229.779,2.58.188,4.132-1.552,4.072-7.297,6.441-12.366,8.532-4.974,2.051-9.269,3.822-10.031,7.179-.415,1.826.299,3.732,2.184,5.827,2.96,3.288,9.77,4.409,18.39,5.829,12.407,2.042,27.849,4.585,33.933,14.928,2.802,4.763,2.777,9.914-.072,14.896Zm-137.546-115.158c-2.004-.18-2.876-1.296-2.836-2.264.055-1.317,1.719-2.735,5.245-2.735h.001c1.854,0,4.53.321,7.651.989-2.254,2.705-5.472,4.548-10.062,4.011Z"/>
</svg>