<svg xmlns="http://www.w3.org/2000/svg" viewBox="0 0 300 300"><path fill="#7B838B" d="M155.9 88.2c.5.1 1.3.2 1.4.7.1.4-.2.7-.4 1a20 20 0 01-11.7 5.9c-3.5.6-7.3.5-10.6-.7s-4.7-6.1-3.4-6.7c.6-.3 3.3-1.6 4.2-1.4a33 33 0 0015.3.5c1-.3 2.2-.7 2.5-1.7.3 1.2 1.4 2.1 2.7 2.4z"/><path fill="#7B838B" d="M137 77.8c2.9 1.3 6.2 1.9 9.4 1.7l6.5-.2s0 8.5-.5 9.9c-1.1 3-3.4 3.5-6.3 3.9-4.7.5-15.6 1.3-13.8-4.6 1-3.3.2-6.1.5-8.2l.4-3.8s1.9.4 3.8 1.3z"/><path fill="#58626D" d="M141.7 83.4c-1-.4-1.9-1.1-2.9-1.6s-2.2-.8-3.2-.4c-1.3.5-1.9 1.9-2.1 3.3-.2 1.3-1 3.1-1.1 4.4 0-1.1 2-2.4 3-2.8 1-.4 2.1-.4 3.2-.3l5.1.2c1.4 0 2.8.1 4.1-.4 1.3-.5 3.6-1.8 3.7-3.2-2.8.8-7 1.9-9.8.8z"/><path fill="#4F5A65" d="M132.1 88.8c.7-.9 1.7-2.2 1.9-3.3.3-1.1.8-2.2 1.8-2.7.7-.3 1.5-.2 2.2.1l2 1c3.3 1.7 7.6 1.3 10.5-.9l2.4 6.3c.3-2.8.6-6.3-.2-9-2.5 1.5-5.9 3.4-8.7 3.1-4.1-.5-7.8-3.8-11.1-5.7a32 32 0 01-.8 11.1z"/><path fill="#7B838B" d="M171.3 222v6.9c.1 2.3 1.5 15 .6 26s-.9 13.4-1 15.9c0 1.8-1 3.6-2.6 4.1-1.6.6-4.3-.8-5.2-2.3 0 0-4.3-15.1-5-21.1-.7-6-2.3-10.1-2.1-13.3.2-3.3-.3-9.8-.4-13.9"/><path fill="#444F5B" d="M161.8 234.8c-1.3.2-2.7.5-3.6 1.5-.9 1.1-1 2.7-1 4.1.1 1.4.7 4.7.1 6-1.3-3.6-1.2-9.9-2-13.2 5.4.5 11.1 1 16.1-1.1.7 2.5 1 7.2.9 9.7-1.2-8.6-3.8-7.5-4.5-7.5-2 0-4 .2-6 .5z"/><path fill="#7B838B" d="M118.9 221.4l-.5 6.9c-.1 2.3-2.5 14.6-1.6 25.6.9 11 1 13.4 1 15.9 0 1.8 1.1 3.6 2.7 4.1s4.4-.8 5.4-2.3c0 0 3.8-13.1 4.5-19.1s1.6-10.3 1.4-13.5c-.2-3.3 1.8-10.6 1.9-14.7"/><path fill="#444F5B" d="M131.1 246.3c0 .5-.2.9-.1 1.4.2-2.5 1.1-4.8 1.5-7.3.5-3.4.7-6.9.7-10.3l-8.6-.3c-1.6 0-3.2-.1-4.7.5s-2.8 2-2.7 3.5c1 1.4 3 1.7 4.7 1.8l4.9.3c.8.1 1.6.1 2.3.6.9.6 1.3 1.8 1.5 2.9.2 2.3.5 4.7.5 6.9z"/><path fill="#23303E" d="M118.5 224.1v2l-.1 2.3-.2 2.9-.9 7.3a57.5 57.5 0 00.1 16.8l.6 7.3.1 5.2-.1 2s0 .1-.1 0l-.2-2-.5-5.2-.6-7.3c-.2-2.7-.3-5.6-.2-8.4l.1-4.3c.1-1.4.1-2.8.3-4.1l.4-3.9.5-3.4a91.2 91.2 0 01.8-7.2c-.1 0-.1 0 0 0zm7.2 47.5l1.6-7 1.6-7.1 1.8-8.2c.6-2.8 1.1-5.6 1.4-8.3l.5-3.8.5-3.4.8-5.1.1-2 .1-.1.1.1-.1 2c-.1 1.3-.3 3-.7 5.1l-.5 3.4-.4 3.8c-.3 2.7-.8 5.5-1.3 8.3l-.8 4.2-.9 4c-.6 2.6-1.1 5.1-1.7 7.1l-1.3 5-.5 1.9c0 .1-.1.2-.2.1-.1.2-.1.1-.1 0zm45.2-47.5l.3 2.1.2 2.4.2 3.1.4 3.6.2 4.1.3 4.3.1 2.2v2.3c.1 6-.2 12-.7 16.5l-.5 5.4-.3 2s0 .1-.1 0v-2.2l.2-5.4.3-7.7.1-4.3.1-4.5v-4.5l-.1-4.3-.4-4-.5-3.6-.2-5.4.4-2.1zm-7.9 48.6l-.5-2-1.3-5.2a519.2 519.2 0 01-3.4-15.9c-.5-2.9-1.1-5.8-1.4-8.6l-.4-4-.5-3.5-.7-5.3-.1-2 .1-.1.1.1.2 2 .8 5.3.5 3.5.5 4 1.5 8.5 1.8 8.5 1.7 7.4 1.6 7.2-.1.2-.4-.1z"/><path fill="#67707A" d="M145.9 191.8c-3.5 4.8-4.4 29.4-5.9 40 0 0-19.7 7.2-26.9-.7 0 0 2.1-38.1 3.5-45.8 2.7-1.2 3.8-5.4 4.6-8.2.9-2.9 1.4-5.9 3.3-8.2 2.5-3 6.6-4 10.4-4.7 5.5-1 11-1.7 16.6-2.1 3.5-.3 17.2-3.1 18 .3.9 4.2.7 5.2 1.2 8.7 0 0 3.3 35.5 4.3 42.9 1.3 9.5.9 16.8.9 16.8s-16.5 6-26.2 1.2l-4.4-35.2"/><path fill="#58626D" d="M130.9 174.4l-4.5.3-4.7.3c-.7 0-1.5.1-2 .6-.8.8-.5 2.1-.7 3.1-.3 1.7-1.9 1.2-2.7 2.7-.8 1.4-.6 5-.6 6.7-.3 6.4-1 12.5-1.2 18.9 1-4.9 2.1-9.8 2.6-14.8.1-.8.2-1.7.6-2.5.2-5.4 5-8 17.5-9.4 2-1.9-2.6-3.8.8-4.5 1.6-.3 3.1-.4 4.6-1.1-3.1-.8-6.4-.5-9.7-.3zm18.8 56.3c.1.6 3.2 1.2 3 1.1-.7-.6-2.4-15.5-2.8-21.6-.4-7-.6-10.1-2.1-16.8-1.2 6.5-2.6 2.9-1 16 .4 2.5 2.3 18.6 2.9 21.3zm-9.7-.9c-.2-1.7 2.6-27.7 5.1-38.6-1.5 6.4-8.6 36.8-9.1 38.3l-.1.2a36.6 36.6 0 01-6.7 3.2c-2.6 1.1-5.4 1.4-8.2 1.8 7.9.3 12.6-1.2 17.5-2.5.3-.1.7-.2.9-.4l.9-.1c0-.7-.2-1.3-.3-1.9z"/><path fill="#58626D" d="M150.8 228.9c1.8 2.2 4.2 4 6.8 5-2.2.2-4.5-.1-6.6-1-.5-.2-1-.5-1.2-.9l-.1-1.1.2-3m4.1-39.4c-.8-.5-1.8-.3-2.6.3l-1.9 2c-.6.7-1.5 1.2-2.4 1.1-1.5-.4.4-3.3 2.6-5.8-.6-.4-1.4.1-1.9.5a70 70 0 00-4 3.7c-.4.4-.7.8-.7 1.4l.3.9c2 3.7 2.4 6.9 3.4 10.9-.1-3.9 1.2-7.4 3.1-10.8.8-1.3 3.2-3.4 4.1-4.2z"/><path fill="#58626D" d="M151 195.3c.4.2.2.8 0 1.2-1.1 2-1.7 4.2-1.8 6.5 0 .8-.1 1.6-.7 2.1-.4-1.7-.6-3.4-.8-5.2-.2-1.5-.3-3.3.8-4.3.7-.3 1.4-.4 2.1-.4l.4.1z"/><path fill="#5F6872" d="M112.5 136.4l-3.1-10.1c-1.8-5.7-4.5-12.1-3.4-18.1a76 76 0 014.8-17.1c1-2 2.1-4.1 4.1-5.2 2.6-1.4 5.9-.5 8.6.7a48 48 0 004 1.7c1.7.6 1.8.2 1.9 2 .2 2.5-.6 5.4-1.2 7.8a35 35 0 01-4.7 10.2c-1.7 2.5-3.1 4.3-3.9 7.1-1.7 6.4-2.4 15.1-6.5 20.4"/><path fill="#58626D" d="M109 140.9c2.2-.9 3.9-2.8 4.2-4.7.7-4.2-2.5-9.7-4.1-12.9-1.1 2.3-.3 4.1-.2 6.5.2 2.5-.2 5.1-1 7.5-.3 1-.8 2-1.6 2.7-.8.7-2 1.1-2.9.6 1.7.9 3.8 1 5.6.3z"/><path fill="#67707A" d="M167.9 151.3c0-.2.1-.3.2-.3-1.4-22-6.4-35.3-14.1-61.4-3.2 2.2-7.4 4.3-11.3 3.8s-7.5-1.9-11.1-3.4c1 19.1-.8 31.6.2 50.7.5 10.2 1.1 9.2 2.2 19.4.4 3.8 1.6 6 3.6 9.2 4.6 7.6 7.5 1.6 16.2.7 4.7-.5 10-1.4 14.7-2.2.1-4.9 0-9.3-.2-13.4-.6-.8-.6-2-.4-3.1z"/><path fill="#656E78" d="M166.8 29.1c-.1-.8-.1-1.7.2-2.5.8-1.7 2.5-2.9 3.7-4.3 1.7 3.4 1.7 9 1.1 12.9-1.5 9.6-3 12.9-4.6 13.2-.4-5.7.1-13.5-.4-19.3zm-51.2-4.8c2-.6 4.1 1.3 4.5 3.4.5 2.1-.1 4.2-.5 6.3-.8 4.2.6 10.2 1.5 14.4-1.1.1-3.3-1.2-4.5-1.1-2.1-5-3-10.8-3.6-16.2-.1-1.3-.3-2.6.1-3.9a3.9 3.9 0 012.5-2.9z"/><path fill="#5F6872" d="M134.8 180.5a337.4 337.4 0 01-1.4-65.9c.3-4.2.7-8.4.5-12.6-.2-3.3-.5-11.4-4.2-12.9-2.2-.9-5.5-.1-7.7.4-2.8.7-5.6 1.8-8 3.4a307 307 0 016.8 46.8c.3 4.4.5 8.9-.4 13.3-.7 3.3-2 6.6-1.8 10l.3 2.1c-.3.4-.6.7-1.1.8-.7 5.1-.9 10.2-.4 15.3 1.2-.1 2-1.3 3-2 1.1-.8 2.6-.8 3.9-.8 1.7 0 3.4-.1 4.9.6 1.8.7 3.5 2.3 5.3 1.6v-.2l.3.1z"/><path fill="#7B838B" d="M96.1 101.8l-.1.6s1.3 18.4 1.9 24.6c.5 5.3 2.3 10.1 3.9 12.2l.9 1c1 .9 3.4.9 4.3-.1a7 7 0 001.4-3.8c.4-2.5.2-5.8.3-8.4a90 90 0 00-3.6-22.1c-.8-3.1-1.4-3.8-1.8-5.8"/><path fill="#7B838B" d="M96.1 102.6c-.6-3.7-5.4-6.9-12-9.3l-6.4-8.2s1.8-2.6 7.3 5.5c0 0-3.8-7-2.3-7.2.9-.1 3.3 3.4 4.7 5.6 3.2 1.3 5.8-.2 5.9-1.1.1-.9-3.4-3.3-2.4-5.1s5.6 4.4 5.6 4.4 3.9 3.4 4.7 5c1.2 2.1 1.2 3.5 2.2 7.6m62.9-50.3c.7-1.1 2-2.9 3.4-2.7 3.6.6 2.3 6.1 1.3 8.7-.4 1.1-3.1 7.9-5 6.4m-44.3-12.4c-.7-1.2-2.1-2.9-3.5-2.7-3.7.6-2.3 6.2-1.3 8.9.4 1.1 3 7.1 4.9 6.7.1 0 .9-.3.9-.8"/><path fill="#7B838B" d="M165.1 28.5c3.1 4 2 18.3 2 18.3s-.2 10.8-2.4 19.1c-1.9 6.9-6.9 10.8-14.2 15.8-5 3.4-6.5 2.2-12.4-1-4.6-2.5-12.5-8.5-14.2-15.3-1.7-7-2.8-18.6-2.8-18.6s-2.2-7.8.3-16.2"/><path fill="#58626D" d="M121.9 39.5c.1-1.5.4-3.2 1.5-4.2 1.7-1.4 4.8-.5 6.2-2.3 2.5 1.2 5.4 1.4 8.1.8 2.1-.5 4-1.5 6.1-1.7 1.7-.2 3.5.1 5.2 0 1.2 0 2.4-.3 3.5-.8a2 2 0 012.1.1 4 4 0 002.1.7c1.2.1 2.4-.3 3.7-.3a7.3 7.3 0 017.2 6.9c.1-3.5-.2-7.1-1.6-10.4L137.7 27c-4.7-.2-9.5-.4-13.8 1.5-2 .9-3.9 2.3-4.9 4.3a12 12 0 00-.6 6.5c.4 3.3 1.3 6.5 2.6 9.5l.9-9.3z"/><path fill="#656E78" d="M166.1 9.3s0 3.8-2.6 6c.4-2.5.2-6.4-2.6-11.6 0 0-.3 4.7-7.2 7.8 0 0 .1-2.9-.9-6.5 0 0-1.6 2.7-5.9 4.1.8-1.5 1.5-4 .7-8 0 0-3.6 3.8-12.1 5.8 0 0 2-2.8 1.8-5 0 0 .2.8-6.3 3.3s-14.9 7.9-16.1 13.7c-1.2 5.9 1.1 8.3 1.1 8.3l1.5-.8c0 1.2.4 2.4 1.2 3.4l2.7.2a8.4 8.4 0 008.1.7l1.5.1c2.3.7 6.5 1.5 10-.5l.5-.1s5.5.9 11.6-1.2l-.1.1s12.5 4.4 17-5.7c3.4-7.4-3.9-14.1-3.9-14.1z"/><path fill="#444F5B" d="M160.6 27.2a8.2 8.2 0 002.6-5.4c-5.2 2.6-9.4 2.7-15.3 3.4 1.1-2.2 1.5-4.7 1.2-7.1-2.4 4-8.2 7.1-13 7.4l.7-5.2c-2 2.7-5.5 6-9 6.6s-7.8-.2-10.6-2.2c-.2 1.5 2.1 5 3 5.1a9.2 9.2 0 009.2.6c2.1.8 8 2.5 12.4-.8.8-.1-.6 1-.6 1s6 .5 12.4-1.7l-.1.5s12 4.5 17.5-5.7c.3-.6-1.2-2.6-.9-3.2-2.9 3.4-4.7 6.2-9.5 6.7z"/><path fill="#444F5B" d="M120.1 45.5c-2.5-5.6-4.1-13-2.5-19a8.3 8.3 0 003.3 3.4 33 33 0 00-.8 15.6zm46.2-16.8c-.1.5.1 1 .3 1.5 1.9 4.7 2 10 1.3 15a18 18 0 001.3-10.3c-.3-3.4-.4-7.3 1.7-9.9l-3.5 2.5c-.5.3-1 .6-1.1 1.2z"/><path fill="#58626D" d="M117.7 51c.2-.9 1-1.7 1.9-1.5.5.1.8.5 1 1 .2.4.3.9.3 1.4l.4 3c.2 1.4.4 2.9.2 4.4l-2.6-4.2c-.7-1.3-1.5-2.7-1.2-4.1zm53-.3c-.2-.9-1-1.7-1.9-1.5-.5.1-.8.5-1 .9s-.3.9-.3 1.4l-.4 3c-.2 1.4-.4 2.9-.2 4.3l2.6-4.1c.7-1.3 1.5-2.6 1.2-4z"/><path fill="#444F5B" d="M141.7 54a10.2 10.2 0 01-9.6 6.1c-4-.2-7.8-3.1-9-7-.7 2.6.6 5.4 2.7 7.1s4.9 2.3 7.6 2.2c2.3-.1 4.7-.7 6.5-2.2 1.6-1.5 2.6-4.1 1.8-6.2zm5.7 0c1.5 3.7 5.6 6.3 9.6 6.1 4-.2 7.8-3.1 9-7 .7 2.6-.6 5.4-2.7 7.1a11.4 11.4 0 01-7.6 2.2c-2.3-.1-4.7-.7-6.5-2.2-1.7-1.5-2.7-4.1-1.8-6.2zm-14.3 47.6c.8 7.5.2 15.1.6 22.7.5 8.7.8 10.8.8 19.6 0 5.6-.2 6.9.4 12.5.6 5.5 1.3 3.9 3.3 9.2a7.9 7.9 0 002.3 3.1c.7.5 1.6.7 2.5.8 5.1.9 10.4.8 15.6.8a41.6 41.6 0 01-17 2.7c-1.1-.1-3.2 0-4.3.1-2.9.5-3 3.1-3.9-8.3-.2-2.9-.4-3-.5-5.9-.3-6.5-.3-6-.2-12.5.2-13.1-.3-11.8-.2-25.5"/><path fill="#58626D" d="M126.7 176.8c-1.1-.4-2.3-.9-2.9-1.8-.5-.7-.5-1.6-.6-2.5l-1.1-15.5.5-3.6c.3-4 1.1-8.6-.1-12.5-.1-.3.1-.6.4-.6v-.1c-.5-1.7-.5-3.5-.5-5.2v-10.7c0-1.9-.2-4.2-1.8-5.3-2.4 6 .1 22-.1 32.1-.1 1.9 0 3.3.1 4.7a67.5 67.5 0 001 20.7c.1.4 0 1.6.3 1.9.3.2 1.2-.3 1.6-.3 2.5.2 6.3 1.1 9.6 2.2-1.3-.7-5.1-3-6.4-3.5z"/><path fill="#444F5B" d="M122.3 178c-2.1-5.4-1.8-17.5-1.8-23.3l-.1-27c0-2.7-.5-9.3-.5-9.5l.3-3c-.7 1.6-1.5 3.2-2.1 4.9 2.4 14.1.4 25.5.4 25.7.1 1 1.7 4 0 7.6-.4 1 .1 1.2-.4 2l-.1.1-.2 1.8c-.3 2.9-2.3 27.7-.8 25.2 1.5-2.5 5.4-4.2 5.3-4.5zm12.7-8c-.3.4-1 3-1 3.5-.1 1.6.7 5.4 1.4 6.8a6 6 0 012.5-4.5c1.2-.7 2.7-1 4.1-1.2l17.2-2.8c-4.8-1-14.2 1.6-21.2.7-1-.1-2.4-3.2-3-2.5z"/><path fill="#5F6872" d="M152.6 178.3a323 323 0 001.8-63.7c-.3-4.2-.7-8.4-.5-12.6.2-3.3-.2-11 3.5-12.5 2.2-.9 5.8.5 8 1.1 2.8.7 5.6 1.7 8 3.3-3.5 15.4-5.3 30-6.4 45.8-.3 4.4-.5 8.9.4 13.3.7 3.3 2 6.6 1.8 10-.2 4.1-1.1 10.8-4.1 13.6s-8.4 2.8-11.4 2.3"/><path fill="#58626D" d="M167.3 150.8c-.6-10 1.5-26.1-1.1-32-1.6 1.2-1.6 3.4-1.6 5.4l.3 10.7v3.1c.2.1.3.2.3.5-.1 2.5-1.6 3.9-2.5 6.1-1 2.6 1.8 3.9 1.6 6.5-.1 1-.5 1.8-.8 2.7-.5 1.5 0 2.8.6 4.2.4.2.8.4 1.1.8.5.7.5 1.6.3 2.4s1.8 10.4-7 17.2c-.7.5 8.7-2.4 9.4-2.7-.2-5.4-.3-19.6-.6-24.9z"/><path fill="#444F5B" d="M168 153.2c0-.1 0-.1 0 0-.2-.4-.3-.9-.1-1.3.2-.3.5-2.2.2-2.5-.4-.4-.4-1-.3-1.6.8-5.6.3-11.2-.2-16.9-.7 3-.3 6.1-.4 9.2 0 3-.5 6.2-2.4 8.5-.1.1 0 .2.1.2l1.3.1c.5.2 1 .5 1.1 1.1.1.5-.2 1.2-.7 1.3-.4.1-.9-.2-1.3 0s-.4.8-.1 1.2c.3.4.7.5 1.1.7a6 6 0 011.8 1.3l-.1-1.3z"/><path fill="#444F5B" d="M168 152.7c-.1-.9 1.1-2.8.2-3.5-.9-.6.3-3.1.4-4.1l.1-.3c-.9-8.5-.1-16.8.1-25.4 0-.2.2-.3.3-.3-.5-2.9-2.1-5.5-3-8.3-.4 0-.7.3-.5.7.8 2 1.2 4.2 1.3 6.4 0 .3-.3.4-.5.4h-.1a.9.9 0 00-1 1.3c1.2 2.3 1.4 5.2 1.4 7.9l.6 27c1.8 23.2-2.4 18.1-7 23.9 5.7-2 10.7.5 10.7-.1-.2-5.3-1.2-14.2-1.6-17.1l-1.4-8.5z"/><path fill="#58626D" d="M112.8 135c-.3-.2-.3-.6-.3-.9l.1-3.6c5.6-4.7 4-15.1 9.4-20v15.3c-.8.3-1.7-.6-1.8-1.4-.1-.9.1-1.8.2-2.6 0-.9-.3-1.9-1.2-2.1-1.5 4.7-2.5 10.3-4.9 14.7-.4.4-1 1-1.5.6z"/><path fill="#5F6872" d="M174.7 135.4l3.1-10.1c1.8-5.7 4.7-10.1 2.7-15.8-1.6-4.5-4-10.6-6.3-15.4-1-2-2.2-5.4-4.2-6.4-2.6-1.4-4.6-2.1-7.3-.9-1.3.6-2.8 1.5-4.1 1.9-1.7.6-1.6 0-1.8 1.7-.2 2.5.6 5.4 1.2 7.8a35 35 0 004.7 10.2c1.7 2.5 3.1 4.3 3.9 7.1 1.7 6.4 3.4 14.1 7.5 19.4"/><path fill="#58626D" d="M178.3 139.9a6 6 0 01-3.8-4.3c-.9-4.2 2.1-10 3.7-13.3 1.1 2.3.3 4.1.2 6.5-.2 2.5.2 5.1 1 7.5.3 1 .8 2 1.6 2.7.8.7 2 1.1 2.9.6-1.7.9-3.8 1-5.6.3z"/><path fill="#7B838B" d="M191.2 101.8l.1.6s-1.3 17.4-1.9 23.6a26.8 26.8 0 01-3.9 12.2l-.9 1c-1 .9-3.4.9-4.3-.1a7 7 0 01-1.4-3.8c-.4-2.5-.2-5.8-.3-8.4-.1-6.8 1.7-13.6 3.6-21.1.8-3.1 1.4-3.8 1.8-5.8"/><path fill="#7B838B" d="M191.2 102.6c.6-3.7 5.4-6.9 12-9.3l6.4-8.2s-1.8-2.6-7.3 5.5c0 0 3.8-7 2.3-7.2-.9-.1-3.3 3.4-4.7 5.6-3.2 1.3-5.8-.2-5.9-1.1-.1-.9 3.4-3.3 2.4-5.1s-5.6 4.4-5.6 4.4-3.9 3.4-4.7 5c-1.2 2.1-1.2 3.5-2.2 7.6"/><path fill="#58626D" d="M174.5 134c.3-.2.3-.6.3-.9l-.1-3.6c-5.6-4.7-5-14.1-10.4-19v15.3c.8.3 1.7-.6 1.8-1.4s-.1-1.8-.2-2.6c0-.9.3-1.9 1.2-2.1 1.5 4.7 3.5 9.3 5.9 13.7.4.4 1 1 1.5.6zm-6.5 47.1l4.1 7.3c-.2-1.7-.7-4.4-.8-6.1s.4-3.5-1.2-4c-.6-.2-3.9-.9-4.5-.8-4.4.2-8.2.7-12.6 1.5 1.8 1 4.9 1.2 6.9.8 1.9-.3 3.8-.4 5.7-.3.4 0 .9.1 1.2.3.7.3 1 .8 1.2 1.3z"/><path fill="#67707A" d="M130.2 276.5c.6 3 1.2 5.1 1 8.2 0 .4-.2.8-.5 1.1-.7.7-2 3.3-2.4 4.9-.6 2.3 1.3 6.5-6.7 8.2-2.2.3-6.2.5-9.7-.2-5.9-1.4-4.2-9.2-4.2-9.2l5.5-7 1.1-6.1c.2-1 1.1-1.6 2.1-1.4 3.2.6 7.5.7 12.5.3.8-.1 1.1.3 1.3 1.2z"/><path fill="#656E78" d="M129.8 273c.4 1.2 1.7 5.7 1.4 9 0 0-2.4 3.1-3 5.4-.6 2.3 1.3 6.5-6.7 8.2 0 0-4.6.6-8.8 0-4.1-.6-7-4.1-3.9-8.9l4.3-7.5 1.1-6.1c.2-1 1.1-1.6 2.1-1.4 2.7.5 6.2.6 10.2.4.8 0 1-.3 1.8-.3.9-.2 1.2.4 1.5 1.2z"/><path fill="#67707A" d="M125.4 293.9c-.6.7-1.6.9-2.5 1.1-2.9.7-5.9 1.1-8.9 1.2-1.5.1-3.2 0-4.3-1-.9-.8-1.2-2-1.6-3.1-.3-1-.5-2-.3-3 .4-1.2 1.5-2 2.6-2.6a13 13 0 0113.3 1.5 6 6 0 012.1 2.6c.4 1.2.3 2.5-.4 3.3zm-11.6-10l1.2-.8c.8-.5 2.4-1.6 2.4-2.5l-1.9-13.8c0-.6.4-1.1.9-1.4 3.1-1.3 8.2-1.5 11.4-.1.7.3 1.4 2.3 1.1 3.1l-4.6 12.1c-.3 1 0 2.1.7 2.8l1.7 1.6c-3.6-2.7-8-2.6-12.9-1z"/><path fill="#23303E" d="M131.4 282.1l-.1 1.8v1c-.1.4-.2.8-.6 1.1-.5.5-.9 1.4-1.3 2.2-.4.9-.8 1.9-.9 2.9-.1 1 .1 2.3-.2 3.5a5.1 5.1 0 01-2.4 3.2 11 11 0 01-3.8 1.4c-1.4.3-2.7.3-4 .3-1.3 0-2.6 0-3.8-.2-1.2-.2-2.4-.3-3.5-.8s-2-1.3-2.5-2.1c-.5-.9-.8-1.8-.9-2.6l-.2-2.1.1-1.8c0-.2.2-.3.4-.3s.3.2.3.4l-.1.4-.1 1.3c0 .6 0 1.2.2 2s.4 1.6.9 2.4c.5.8 1.3 1.5 2.2 1.8 1 .4 2.1.5 3.3.6l3.7.1c1.3-.1 2.6-.1 3.8-.4 1.2-.3 2.4-.7 3.5-1.3 1-.6 1.8-1.5 2.1-2.6.3-1.1.2-2.2.4-3.4.3-1.2.7-2.1 1.2-3 .5-.9.9-1.7 1.5-2.3.3-.3.4-.6.5-.9V282l.2-.2.1.3zm-2.5-10.4l.5.2c.2.1.4.3.4.5l.2.6.3.7.2.8.4 1.8a27.3 27.3 0 01.7 4.6v.4c0 .2-.1.4-.3.4-.2 0-.4-.1-.4-.3v-.2l.1-.4v-1.1a32.5 32.5 0 00-1.4-5l-.3-.8-.2-.7-.1-.6v-.4l-.1-.2h-.1l-.2-.2c0-.1.1-.2.3-.1z"/><path fill="#23303E" d="M130.9 282.5l-.2.3-.5.9c-.4.8-1 1.9-1.4 3l-.2.8-.1.8-.1 1.6c-.1 1-.4 1.5-.4 1.5s-.1.1-.1 0l-.1-.1.1-.4.1-1.1v-1.6l.1-.9.2-.9a10 10 0 011.5-3.1l.7-.9.3-.3c.1-.1.2 0 .3.1l-.2.3zm-4 10.8l-1.1.9-1.3.7c-.9.4-1.8.7-2.8.9-2.5.3-4.9.4-7.4.2l-1.9-.2c-.6-.1-1.3-.3-1.8-.6-.6-.3-1.1-.6-1.6-1.1-.5-.4-.9-1-1.1-1.6-.3-.6-.4-1.3-.4-1.9 0-.7.1-1.3.3-1.9l.3-.9.4-.8.9-1.6 3.7-6.4v.1l.8-4.2.2-1 .2-1.1c.2-.7.9-1.3 1.7-1.3l.1.1-.1.1c-.7 0-1.3.5-1.4 1.2l-.2 1-.2 1.1-.7 4.2v.1l-3.6 6.4-.9 1.6a3 3 0 00-.4.8l-.3.8c-.2.6-.2 1.1-.2 1.7a4.5 4.5 0 001.4 3.1l1.4 1 1.7.5 1.8.2c2.4.2 4.9.1 7.3-.1.9-.2 1.8-.4 2.7-.8l1.3-.6 1.1-.8h.3l-.2.2z"/><path fill="#23303E" d="M116 271.9l-.1-1.3-.2-1.3-.6-2.6c0-.6.2-1.1.7-1.5l.7-.4.7-.2 1.4-.4 1.4-.2h2.8l2.8.4 1.4.4 1.4.5c.5.4.7.9.9 1.3.2.5.3.9.2 1.5l-.2.7-.2.7-.6 1.3a13 13 0 00-1 2.5c0 .2-.2.3-.4.3s-.3-.2-.3-.4v-.1l1.2-2.6.5-1.3.2-.6.2-.6a5 5 0 00-.2-1.2c-.1-.4-.4-.8-.6-1l-1.2-.4-1.3-.3-2.7-.2h-1.4l-1.3.1-2.6.4-1.2.4a1 1 0 00-.5.9v-.1l.4 2.6.2 1.3.2 1.3-.2.2-.5-.1z"/><path fill="#23303E" d="M125.9 273.7c1.3-.1 2.1-.1 2.1-.3 0-.1-.8-.4-2.1-.5h-2.3l-2.8.5-.5.1-1.2-.2-2.2-.2c-1.3 0-2 .1-2 .2 0 .2 1.6.4 3.7.9l-.5.2-2 1.2c-1.1.8-1.6 1.4-1.5 1.5.1.1.8-.3 1.9-.9l2-1 1.8-.7 1.1.3c3.5 1.1 6.1 2.7 6.3 2.4.1-.1-.5-.7-1.5-1.4l-1.9-1.1a12 12 0 00-2-.8l1.4-.3c.9.3 1.6.2 2.2.1zm-1.4 4.2l-2.2.1-1.9.4-1.8-.5a15 15 0 00-2-.2c-1.1 0-1.8.2-1.8.3 0 .2 1.7.3 3.9.9l-1.5.7-1.9 1.2c-1 .8-1.5 1.4-1.4 1.5.2.2 2.6-1.6 6.1-2.7l.3-.1.2.1c3.1 1.2 5.1 3 5.3 2.8.1-.1-.3-.7-1.1-1.5a11 11 0 00-2.7-1.8c2.5-.5 4.4-.5 4.5-.7 0-.2-.8-.4-2-.5z"/><path fill="#7B838B" d="M120.6 290.9c-1.6.3-3.2.6-4.8.6-1.1 0-2.3-.3-3.3-.7-.7-.3-.8-1.3-.3-1.8a7.2 7.2 0 018.4-1.1c.5.3 1 .6 1.2 1.1.3.5.3 1.2-.1 1.6l-1.1.3z"/><path fill="#67707A" d="M160.5 276.7c-.4 3-1.6 4.9-1.3 8 0 .4.3.8.6 1.1.8.7 5.4 2.8 5.9 4.4.7 2.3-1 6.5 7.1 7.8 2.2.2 6.3.2 9.6-.7 5.9-1.7 3.8-9.4 3.8-9.4l-6.9-6.3-1.4-6c-.2-1-1.2-1.5-2.1-1.3-3.2.8-8.4 1-13.4.9-1 0-1.8.7-1.9 1.5z"/><path fill="#656E78" d="M160.1 271.1c-1.6 2.9-1.5 7.6-1.1 10.9 0 0 5.8 2.6 6.5 4.9.7 2.3-1 6.5 7.1 7.8 0 0 4.7.3 8.8-.4 4.1-.8 6.8-4.5 3.5-9.1l-5.8-6.8-2.3-6c-.4-1-.3-1.6-1.3-1.4-2.7.7-6.1 1-10.1.9-.8 0-3.1-5.4-3.9-5.4-1 0-1.7.5-1.7 1.4.1 1.1.6 2.6.3 3.2z"/><path fill="#67707A" d="M168.7 293.4c.7.6 1.6.9 2.5 1 3 .5 6 .8 9 .8 1.5 0 3.2-.1 4.3-1.2.8-.8 1.1-2.1 1.4-3.2.2-1 .4-2 .1-3-.4-1.2-1.6-2-2.8-2.5a13 13 0 00-13.2 2.2c-.8.7-1.6 1.6-1.9 2.7s-.2 2.4.6 3.2zm12-10.9s-2.6-3.7-2.7-4.7l-1.5-5.7-1.1-6.9c-.1-.6-.5-1.1-1-1.3-3.2-1-7.1.9-10.4 1.7-2 .5-1.6 2.3-1.4 3l6.4 11.7c.4 1 1.2 2 .5 2.8l-.5 1.7c3.2-3.2 6.6-3.4 11.7-2.3z"/><path fill="#7B838B" d="M173.3 290c1.6.2 3.2.5 4.8.3 1.1-.1 2.3-.4 3.3-.9.7-.4.8-1.3.2-1.8a9 9 0 00-3.4-1.7c-1.7-.3-3.6 0-5.1.9-.5.3-.9.7-1.2 1.2-.2.5-.2 1.2.2 1.6.4.3.8.3 1.2.4z"/><path fill="#23303E" d="M159.2 282.1a25.4 25.4 0 00.2 2.8c.1.3.3.6.6.8l2.4 1.4c.9.5 1.9 1.1 2.8 1.9l.6.7c.2.3.2.6.3 1l.2 1.9c.2 1.2.6 2.4 1.6 3.1 1 .8 2.2 1.2 3.5 1.5l1 .2.5.1h.5l2 .1c1.3 0 2.6 0 3.9-.2 1.2-.1 2.5-.3 3.5-.7 1-.4 1.9-1.1 2.4-1.9.5-.8.8-1.7.9-2.5l.1-2.1-.2-1.3-.1-.5c0-.2.1-.4.3-.4.2 0 .4.1.4.3l.1 1.9-.1 2.2a6 6 0 01-3.7 4.9 26 26 0 01-7.7 1.1h-2.6l-.5-.1-1-.2a8.7 8.7 0 01-3.9-1.8c-.6-.5-1-1.1-1.3-1.7-.3-.7-.4-1.4-.5-2l-.1-1.9-.2-.8-.5-.6c-.8-.8-1.7-1.4-2.6-1.9l-2.4-1.5c-.4-.3-.6-.6-.7-1l-.1-1-.2-1.9.2-.2.4.3zm1.4-10.7l-.4.2-.3.3-.1.5-.5 3.6-.4 3.6v1.7l-.1.1-.1-.1-.2-1.7a31.3 31.3 0 01.9-8.1l.5-.4.4-.1h.1c.1 0 .2 0 .2.2.2.1.1.2 0 .2z"/><path fill="#23303E" d="M159.6 282.2l.4.2 1.2.6a18 18 0 013.5 2.2c.3.3.6.5.8.9l.3.6.1.6.1 1.9.2 1.3.1.5-.1.1h-.1s-.4-.7-.6-1.8l-.3-1.9-.1-.5-.2-.4-.7-.7c-1.1-.9-2.4-1.6-3.4-2.2l-1.1-.8a3 3 0 01-.4-.3v-.3h.3zm7.8 10.3l1.1.8 1.3.5 2.7.6c1.7.1 3.5 0 5.2-.1l2.6-.3 1.3-.2 1.2-.4a5 5 0 003.1-3.5c.3-1.6-.4-3.3-1.3-4.7l-5.7-6.9-1.4-3.4c-.4-1.2-.9-2.3-1.2-3.5l.1-.1.1.1c.3 1.2.8 2.3 1.3 3.5l1.5 3.4 5.8 6.8c.5.7 1 1.5 1.2 2.4.3.9.4 1.8.2 2.7-.2.9-.6 1.8-1.2 2.5s-1.4 1.2-2.2 1.6l-1.3.4-1.3.2-2.6.3h-5.3a23 23 0 01-2.8-.7l-1.3-.6-1.2-.9v-.3c-.1-.3.1-.3.1-.2z"/><path fill="#23303E" d="M176.1 272.2l-.4-3.4-.6-3.4c0-.3-.2-.5-.3-.7l-.3-.2-.4-.1-1-.2-1-.1h-2l-2 .2c-1.3.2-2.7.5-4 1l-.9.4c-.2.1-.5.3-.6.6-.3.5-.4 1.1-.2 1.8.4 1 .8 2.1 1.3 3a6 6 0 002 2.4c.2.1.2.3.1.5s-.3.2-.5.1c-.5-.4-.9-.8-1.2-1.3l-.9-1.4c-.6-1-1-2-1.4-3.1-.2-.7-.2-1.6.3-2.3l.9-.9 1-.5c1.3-.6 2.7-.9 4.1-1.2l2.1-.3 2.2.1 1.1.2 1.1.3.5.2.5.4c.3.3.4.7.4 1.2l.4 3.5.2 1.7.2 1.7-.2.2-.5-.4z"/><path fill="#23303E" d="M167.9 274.1c-1.1.1-1.8.2-1.9 0 0-.1.6-.5 1.8-.7l2-.3c.8 0 1.6 0 2.5.2l.4.1 1-.4 1.6-.4c1.1-.2 1.2 0 1.2.1 0 .2-.5.4-2.3 1.1l.5.2c.7.3 3 1.9 2.9 2-.1.1-2.5-.8-3.2-1l-1.7-.5-.9.4c-3 1.5-5.1 3.4-5.3 3.1-.1-.1.3-.7 1.2-1.5l1.6-1.3 1.6-1-1.3-.1h-1.7zm2.8 4l2-.2 1.8.1 1.5-.7c.6-.2.8-.3 1.3-.3 1-.1 1.6-.1 1.7.1 0 .2-1.1.4-2.9 1.3.5.1 2.3 1.2 2.8 1.5 1 .6 1.5 1.2 1.4 1.3-.1.3-2.1-1.4-5.3-2l-.3-.1-.2.1c-2.6 1.5-4.1 3.6-4.3 3.4-.1-.1.2-.7.8-1.6a8 8 0 012.2-2.1c-2.3-.2-4 .1-4.1-.2-.1-.1.5-.4 1.6-.6zM146 191.8c-.5.7-.7 1.5-1 2.3l-.6 2.4-.8 5a164 164 0 00-1.2 10.1l-.9 10.1a173 173 0 01-1.3 10.3 52.7 52.7 0 01-13.8 2.9c-2.4.2-4.7.1-7.1-.3a12 12 0 01-6.3-3.3l-.1-.2 1.2-25.2.4-6.3.5-6.3c.4-4.2.6-8.4 1.2-12.5 0 0 0-.1.1 0v.1l-.6 12.6-.7 12.5-1.5 25.1-.1-.2c1.5 1.7 3.7 2.7 6 3.2s4.6.5 6.9.4a51.2 51.2 0 0013.6-2.9l-.2.2 1-10.1.9-10.1c.4-3.4.7-6.7 1.3-10.1l1-5 .7-2.4c.5-.8.8-1.6 1.4-2.3-.1 0-.1 0 0 0zm29 39.2a47.2 47.2 0 01-19.1 2.9c-2.2-.2-4.3-.8-6.3-1.8l-.1-.2-.5-4.4-.6-4.4-1.2-8.8-.6-4.4-.5-4.4-.4-4.4-.3-4.4.1-.1h.1l.8 4.4.7 4.4.6 4.4.5 4.4.9 8.8.5 4.4.6 4.4-.1-.2c1.9.9 4 1.4 6.2 1.6 2.1.2 4.3.2 6.4 0A70.3 70.3 0 00175 231zm-4.3-57.7l.3 2.4.7 6.4.9 9.1 1 10.4 1.2 10.4.5 4.8.3 4.3.3 6.5-.1 2.5s0 .1-.1 0l-.3-2.4a132 132 0 01-.6-6.4l-.8-9.1-.9-10.4-1.1-10.4-.9-9.1-.5-6.4.1-2.6zm-10.2 98.3a.2.2 0 01-.2-.2l-.7-3.6c0-.2-.1-.4.1-.6.2-.4.8-.6 1.8-.6l.2.2-.2.2c-1.1 0-1.3.3-1.4.4v.3l.7 3.6c0 .2-.1.3-.3.3.1 0 .1 0 0 0zm7.4-224l.2-.2.5-.4c.2-.2.6-.3 1-.3.5 0 .9.1 1.4.4.4.3.9.7 1.1 1.3.2.6.4 1.2.4 1.8.1 1.3-.2 2.6-.5 3.9l-1.4 3.7-1.6 3c-.6.8-1.2 1.5-1.8 1.6-.3.1-.6 0-.7-.1l-.2-.1.2.1h.6c.5-.2 1-.9 1.5-1.7.5-.8.9-1.9 1.4-3l1.2-3.6c.3-1.2.6-2.5.6-3.7l-.2-1.6c-.2-.5-.5-.9-.8-1.2l-1.1-.5a2 2 0 00-.9.2c-.7.2-.9.4-.9.4z"/><path fill="#23303E" d="M169.4 50.8l-.2.1-.4.4-.9 1.3-.6 1.5-.2.5-.1.2-.1-.2-.1-.6c-.1-.5 0-1.2.4-1.8l.6-.8.7-.5.6-.1h.3zm-48.7-2.6l-.7-.6-1-.5-.6-.1-.7.2c-.4.2-.8.5-1.1 1-.3.5-.3 1.1-.4 1.8l.1 2 .5 2 .7 2 .8 1.9 1.8 3.2c.3.4.6.8 1 1 .3.2.7.3 1 .1l.6-.4.1-.2v.3l-.5.5c-.3.2-.8.2-1.2 0-.4-.2-.8-.6-1.2-1-.7-.8-1.4-1.9-2.1-3.1l-.9-1.9a17.2 17.2 0 01-1.2-6.4c.1-.7.2-1.4.6-2 .4-.6.9-1 1.5-1.2l.8-.1.7.2 1 .7.4.6z"/><path fill="#23303E" d="M118.9 50.7h.2l.6.1.7.5.6.8c.3.6.4 1.3.4 1.8l-.1.6-.1.2-.1-.2-.2-.5-.6-1.5-.9-1.3-.4-.4-.1-.1zM108.6 128l-.1-1.2-.3-3.2-.7-4.5-.9-5.1-1.1-5.1-1.1-4.4-1-3.1-.3-1.2.2-.2.2.2.3 1.2 1.1 3 1.2 4.4 1.2 5.1c.4 1.7.8 3.5 1 5.2.3 1.7.4 3.2.5 4.6l.1 3.3-.1 1.2-.2.2v-.4zm-12.3-26.2v.6l1 9.7.7 9.7c.3 3.2.4 6.5 1.1 9.6a35 35 0 001.4 4.6l1 2.2 1.4 1.9v.3h-.3c-1.2-1.2-2-2.6-2.7-4.1a36.8 36.8 0 01-2.3-9.5l-.5-4.9-.8-9.7-.4-9.7.1-.6.2-.1c0-.1.1 0 .1 0zm16.7 34l.1-.2.4-.7.5-1 .6-1.4a262.3 262.3 0 004.6-15.7l.9-3.6.1-.1.1.1-.7 3.7c-.5 2.2-1.1 5.1-1.9 8l-1.2 4.2a47.8 47.8 0 01-2 5l-.6 1.1-.4.6-.2.2h-.3c-.1 0-.1-.1 0-.2zm19.9-58.4l.3 1.8.2 4a12 12 0 01-.6 4l-.6 1.2c-.2.3-.4.3-.4.3s.2-.1.3-.4l.3-1.2.2-1.8.1-1v-1.1l.1-4 .1-1.8zm20.4 12.8l-.1-.4-.2-1.2c-.1-1-.3-2.2-.3-3.5v-3.5l.2-1.6.3 1.6.3 3.5v3.5l-.1 1.2-.1.4zm-38.9-65h-.1c-.3.3-.5.7-.6 1.2l-.2 1.3v1.4l.1 1.4.1 1.4.2 1.4.4 2.7.5 2.7.5 2.7.5 2.7.5 2.7-1-2.6-.9-2.6-.7-2.7-.6-2.7-.4-2.8-.1-1.4v-1.4c0-.9.1-1.9.3-2.8l.5-1.4c.2-.4.5-.9.9-1.1l.1-.1zm56.7-2.3l.2.2.5.6.5 1.1.4 1.5.2 1.9.1 2.1-.1 2.2-.2 2.3-.4 2.3-.5 2.2a29 29 0 01-2.1 6.4l-.4 1 .2-1 .5-2.7.4-1.8.4-2 .4-2.2.3-2.2.3-2.2.2-2.2.1-2v-1.8a6 6 0 00-.2-1.5l-.3-1.1-.3-.7-.2-.4zm-5.1 6l.4.6.4.9.4 1.1.3 1.4.3 1.5.3 3.3V41l-.2 2.9-.4 2.8-.1-2.8-.1-2.9-.2-3.3-.4-3.2-.5-2.7-.3-1-.3-.8a6 6 0 01-.3-.7c-.1-.2 0-.5.2-.6.1 0 .4 0 .5.2z"/><path fill="#23303E" d="M167.2 47v2l-.1 5.2-.4 3.5a65 65 0 01-.8 3.8l-1 4.1c-.4 1.3-.9 2.8-1.5 4.1a27.6 27.6 0 01-5.3 6.6l-3 2.5-2.8 2-2.5 1.6-2.1 1a5 5 0 01-1.5.3h-.5l.5-.1 1.3-.5 1.9-1.1 2.4-1.7 2.8-2 3.1-2.3c2.1-1.7 3.9-3.9 5.2-6.4.6-1.3 1.1-2.6 1.3-4l.6-4.1c.3-2.7.5-5.2.9-7.3.4-2.1.8-3.9.9-5.1l.6-2.1c-.1 0-.1 0 0 0zm-22.3 36.7h-.5a5 5 0 01-1.5-.3c-1.3-.4-2.9-1.3-4.9-2.3-2-1.1-4.1-2.5-6.3-4.3l-3.2-2.9a15.4 15.4 0 01-4.5-7.7l-1.1-4.2-.9-3.9-.5-3.6-.3-5.4v-2l.1-.1h.1l.4 2 1.1 5.3c.4 2.2.8 4.7 1.1 7.5l.7 4.2c.4 1.4 1.1 2.7 1.9 3.8l2.6 3.5a34 34 0 009.2 7.2c2 1.1 3.5 2 4.7 2.5 1 .5 1.8.7 1.8.7zm-24.1-37l-.2-.7-.5-1.8a30.2 30.2 0 01-.5-8.6l.2-1.4.2-1.2.5-1.8.2-.7c.1-.2.4-.4.6-.3.2.1.4.3.3.5l-.1.7-.4 1.8-.4 2.5-.2 2.9v2.9l.1 2.6c0 1.6.2 2.6.2 2.6zm30.6-5.8l.5.2 1.2.4.8.2.9.3 2 .8 4 .9 1.9.2.1.1-.1.1-1.9.3a21.2 21.2 0 01-6.6-.5l-1-.4-.9-.6c-.5-.4-.8-.9-1-1.3l-.1-.4V41l.2-.1c-.1 0 0 0 0 0zm-14.6.2v.2l-.1.4c-.1.4-.5.8-1 1.3l-.9.6a3 3 0 01-1 .4l-2.3.4c-1.6.2-3.1.2-4.3.1l-1.9-.3-.1-.1.1-.1 1.9-.2 4-.9 2-.8.9-.3.8-.2 1.2-.4.5-.2c.1-.1.2-.1.2.1 0-.1 0-.1 0 0zm16.1-11.8l4.4.5 1.1.1h1.1l1.1-.1 1.1-.1 2.1-.5 1-.4.5-.2.5-.3.9-.6.8-.7.4-.4.3-.4.7-.9 1-1.9.4-1 .2-1.1.1-.5v-.5-1.1l-.1-1.1-.2-1.1-.3-1-.4-1-1-1.9-1.2-1.8-1.4-1.6.7-.3c0 .7-.1 1.3-.3 1.9l-.7 1.8-.5.8-.6.8c-.2.2-.4.5-.7.6l-.8.5h-.1v-.1l.6-.6.6-.7.5-.8.4-.8.5-1.7.2-1.7c0-.2.2-.4.4-.4l.3.1a19.3 19.3 0 013.8 5.6l.4 1.1.3 1.1.2 1.1.1 1.1-.1 1.1-.1.6-.1.6c-.1.4-.1.8-.3 1.1l-.4 1-1.1 2-.7.9-.3.5-.4.4-.8.8-.9.7-.5.3-.5.3-1 .5a8 8 0 01-2.2.6l-1.1.2-1.1.1h-1.1l-1.1-.1c-1.8-.3-3.2-.7-4.6-1.4z"/><path fill="#23303E" d="M160.8 20.8c.7-1.3 1.2-2.7 1.6-4.1l.4-2.1.1-2.2c0-1.5-.2-2.9-.6-4.4l-.7-2.1-.9-2 .4-.1-.4 1.4-.6 1.3-.4.6-.4.6-.4.5-.5.5-1 1-1.1.9-1.2.8-1.2.7c-.2.1-.4 0-.4-.1v-.1a36.6 36.6 0 00-1-6.4l.7.1-.6.8-.7.7-1.6 1.2-1.7.9-1.9.5h-.1v-.1l1.7-.8 1.6-1 1.4-1.2.6-.7.5-.7c.1-.2.4-.3.6-.1l.2.2.7 3.3.2 3.4-.5-.3 1.2-.6 1.2-.7 1.1-.8 1-.9.5-.5.4-.5.8-1.1.6-1.2.3-1.3.2-.2.2.1a20 20 0 012.6 8.7l-.1 2.3-.5 2.3-.9 2.1-1.4 1.4zm-19.4 9.5h3.2l1.6-.1 1.7-.2 1.8-.3 1.9-.4 3.6-1.2 3-1.4 2-1.2.7-.5-.6.6a17.5 17.5 0 01-4.7 3.2l-1.8.7-1.9.6-1.9.4-1.9.2-3.4.1c-2-.2-3.3-.5-3.3-.5z"/><path fill="#23303E" d="M144.3 13a38.2 38.2 0 002.8-5.6l.2-.7.2-.8.2-1.6c.1-.5 0-1 0-1.6l-.1-.8-.1-.8.2-.2.2.2-.1.4-.2.2-.4.3-.9.6-1.8 1.2-3.9 1.8-4 1.5-2 .8-2 .8h-.1v-.1l1.8-1.1 1.9-1c1.3-.6 2.7-1.1 4-1.5 1.3-.4 2.7-.9 3.9-1.6l1.9-1 .9-.6.4-.3.2-.3.4-.1.1.8.1.8.1 1.6-.1 1.6-.1.8-.2.8a9.8 9.8 0 01-1.3 3.1 5 5 0 01-2.2 2.4c.1 0 0 0 0 0z"/><path fill="#23303E" d="M135.6 7l1-2.5c.3-.8.5-1.7.4-2.5v-.1c0-.2.1-.4.4-.4s.4.1.4.4v.3l-.1.1-.1.2-.3.2-.5.4-1.1.6-2.2 1-4.4 1.7-2.1 1-2.1 1.1c-1.3.8-2.6 1.7-3.8 2.7l-1.7 1.6-.8.8-.8.9a12.7 12.7 0 00-2.2 4l-.3 1.1-.2 1.1-.2 2.3c0 .8.1 1.5.3 2.3.2.7.4 1.5.8 2.1v.1h-.1c-.6-.6-1-1.3-1.2-2.1-.3-.8-.4-1.6-.5-2.4v-2.4c.1-.8.2-1.6.5-2.4l1-2.2 1.4-1.9.8-.9.9-.8 1.8-1.5 1.9-1.4 2-1.3 2.1-1.2 2.1-1.1L133 4l2.1-1 1-.6.4-.3.2-.2.1-.1V2l.8-.1c.1 1-.2 2-.6 2.8-.2.9-.7 1.7-1.4 2.3zm-7 23.2l.7.2 1.9.4 1.3.2 1.4.1h1.5l1.6-.1 1.5-.3 1.4-.5.7-.3.6-.4 1.1-.7.8-.7.6-.6.5-.5-.4.6a3 3 0 01-.5.7l-.8.8-1 .9-.6.4-.7.4-1.5.6-1.6.4-1.7.1-1.6-.1-1.5-.3-1.3-.3c-1.5-.4-2.4-1-2.4-1z"/><path fill="#23303E" d="M118.6 28.7l.5.4 1.4.9 1 .5 1.2.4 1.3.3 1.3.1 1.3-.1 1.3-.3 1.2-.4 1-.5.8-.4.6-.4.6-.3-.5.5-.6.5-.8.6-1 .6-1.2.6-1.4.4c-.5 0-1 .2-1.5.1l-1.5-.1-1.4-.3a9 9 0 01-2.2-1.1l-1.3-1.1-.1-.9zm24.7 45.4l.2-.1.4-.3c.4-.2.9-.3 1.4-.3l1.4.2.5.2.2.1-2 .1c-1.1.2-2.1.2-2.1.1 0 .1 0 .1 0 0 0 .1 0 .1 0 0zm-3.2-.8l.3-.3.9-.7 1.3-.8.8-.4.9-.3a3 3 0 011-.2h.5l.5.1c.7.1 1.3.4 1.7.7.4.3.7.6.8.9l.2.4v.1h-.1l-.3-.2-.9-.5c-.4-.2-.9-.3-1.4-.3l-1.7.2-3.1 1-1.4.5c.1-.1 0-.1 0-.2 0 .1 0 0 0 0z"/><path fill="#FF7033" d="M132.8 61.7c-5.9 0-10.1-3.9-10.1-9.3l-.3-5.5.1-.4.4-.2 18.3-.5.4.2.2.4v7.5c0 4.3-4 7.8-9 7.8zm-9.3-14.2l.3 4.9c0 4.7 3.8 8.2 9 8.2 4.4 0 7.9-3 7.9-6.7V47l-17.2.5zM156 61.7c-5 0-9-3.5-9-7.8v-7.5l.2-.4.4-.2 18.3.5.4.2c.1.1.2.3.1.4l-.3 5.5c0 5.4-4.2 9.3-10.1 9.3zM148.1 47v6.9c0 3.7 3.5 6.7 7.9 6.7 5.2 0 9-3.4 9-8.1l.3-4.9-17.2-.6z"/><path fill="#FF7033" d="M141.2 49.7s.7-2.4 3.1-2.4c2.6 0 3.1 2.7 3.1 2.7v-3.7h-6.3v3.4z"/><path fill="#FF7033" d="M147.5 50.5c-.2 0-.4-.2-.5-.4 0-.1-.5-2.3-2.7-2.3-2 0-2.7 2-2.7 2-.1.2-.3.4-.5.3-.2 0-.4-.2-.4-.5v-3.4c0-.3.2-.5.5-.5h6.3c.3 0 .5.2.5.5V50c0 .2-.2.4-.5.5.1 0 .1 0 0 0zm-3.1-3.7c1.2 0 2.1.5 2.7 1.2v-1.2h-5.3V48c.5-.7 1.4-1.2 2.6-1.2zm-21.6.6L120 46l3.1.5c.3 0 .4.3.4.6s-.3.4-.6.4l-.1-.1zm42.8-.9l2.6-.7-2.2 1.5c-.2.2-.5.1-.7-.1s-.1-.5.1-.7h.2z"/><path fill="#23303E" d="M130.4 53.3c.1 1.4 1.1 2.4 2.2 2.3 1.1-.1 1.9-1.3 1.8-2.7s-1.1-2.4-2.2-2.3c-1.1.1-1.9 1.3-1.8 2.7z"/><path fill="#23303E" d="M128.5 52.9v.3l.1.8c.1.6.5 1.6 1.3 2.4.4.4.9.7 1.5.8l.4.1h.5a2 2 0 001-.3c.6-.3 1.2-.8 1.6-1.5.4-.7.7-1.5.7-2.2 0-.8-.1-1.6-.4-2.4-.3-.7-.8-1.4-1.5-1.7-.6-.4-1.4-.6-2.1-.5-.6.1-1.3.4-1.7.8a4 4 0 00-1.4 2.4l-.1.8.1.2zm-1 0v-.3l.2-.9c.2-.8.7-1.9 1.9-2.7.6-.4 1.3-.7 2.1-.8.8 0 1.6.1 2.3.6.7.5 1.3 1.1 1.7 1.9.4.8.6 1.7.5 2.6 0 .9-.2 1.8-.7 2.6-.4.8-1.1 1.5-1.9 1.9-.4.2-.8.4-1.3.4l-.6.1-.7-.1c-.8-.1-1.6-.5-2.1-1a5 5 0 01-1.6-3l-.1-1c.3-.1.3-.3.3-.3zm15.9 13s.1-.4.5-.8 1.1-.8 1.8-1l.5-.1h.5v-1.1l.6.7.1.2.1.4c0 .3-.2.6-.5.8l-.4.1-.2.1-.5.1-2.5.6zm15-12.6c-.1 1.4-1.1 2.4-2.2 2.3-1.1-.1-1.9-1.3-1.8-2.7.1-1.4 1.1-2.4 2.2-2.3 1.1.1 1.9 1.3 1.8 2.7z"/><path fill="#23303E" d="M161.3 52.9v.3l-.1 1a5 5 0 01-1.6 3c-.5.5-1.3.9-2.1 1l-.7.1-.6-.1a5 5 0 01-1.3-.4 5 5 0 01-1.9-1.9c-.4-.8-.6-1.7-.7-2.6 0-.9.1-1.8.5-2.6s1-1.5 1.7-1.9a4 4 0 012.3-.6c.8.1 1.5.4 2.1.8a5 5 0 011.9 2.7l.2.9.3.3zm-1.1.1v-.3l-.1-.8a4 4 0 00-1.4-2.4 3 3 0 00-1.7-.8c-.7-.1-1.4 0-2.1.5-.6.4-1.2 1-1.5 1.7-.3.7-.5 1.5-.4 2.4.1.8.3 1.6.7 2.2.4.7 1 1.2 1.6 1.5.3.2.7.2 1 .3h.5l.4-.1c.6-.1 1.1-.5 1.5-.8.8-.8 1.1-1.7 1.3-2.4l.1-.8.1-.2zm-14.8-3.2l.1.5.1 1.4a192 192 0 01.6 8.1l.2 1.3.1.5-.3-.5-.6-1.3a18.8 18.8 0 01-.6-8.3l.3-1.4.1-.3zm-12 41.6l.7.4.9.5 1.2.5 1.4.4 1.6.3 1.8.2h1.8l1.8-.1 1.8-.3 3.1-.8 2.1-.8.8-.3-.7.5-.9.5-1.2.5-1.4.5-1.7.4-1.8.3-1.9.2-1.9-.1-1.8-.2-1.7-.4-1.4-.5-1.2-.6-.8-.6-.6-.5z"/><path fill="#2E3B48" d="M142.8 120l-4.5 5.8.1.1 5-4.3 1.7-1.5.4-.3 2.8-2.5-.1-.5 2.6-4.2h-.1l-2.9 1-1.5 2-8.9-5.9zm-8.9 53.2l.8-.2 2.1-.2 3-.1h3.5l3.5-.3 3-.3 2.1-.1h.8s.1 0 0 .1l-.8.3c-.5.1-1.2.4-2.1.5l-3.1.1h-3.5l-1.8.1-1.7.1-3 .1c-1.6.2-2.8 0-2.8-.1 0 .1 0 .1 0 0z"/><path fill="#23303E" d="M171.5 178.2s-.7-3.4-1.4-8.5l-.6-4.1-.5-4.6-.2-2.4-.5-2.4-.7-2.4-.3-1.3v-.4l.1-.2.1-.1.2-.6.3-1.2-.1-.5-.2-.3-.1-.4c0-.5.2-.9.3-1.3l.3-1.2c.3-1.6.2-3.3 0-4.9l-.4-2.3c-.2-.8-.2-1.6-.2-2.3l.1-4.2.2-3.5.3-2.7c.1-1.5.4-2.3.4-2.3h.1l.1 2.4v2.7l-.1 3.5-.2 4.1.1 2.2.3 2.4a17 17 0 01-.2 5l-.4 1.2-.3 1.2.1.2.2.2.1.8-.2 1.3-.2.6-.1.2v.4l.3 1.2.7 2.5.5 2.5.2 2.5 1 8.7.9 8.3zm-28.6-95.1l.9.2c.5.1 1.3.2 2 .1.7 0 1.4-.2 2-.3l.9-.3-.8.5-.9.3-1.1.2-1.1-.1-.9-.2-.6-.3-.4-.1c-.1.1-.1.1 0 0 0 .1 0 0 0 0z"/><path fill="#2E3B48" d="M158.3 89.5c.3-.9-5.6-3.6-4.8-3.1.2 4.2-.4 5.7-1.2 9.4-1.1 5.1 1.7 11.8 1.7 17 .7-4.9-.1-10 1-14.8.9-4 2-4.9 3.3-8.5z"/><path fill="#2E3B48" d="M152.8 178.3l.1-1 .2-2.8.8-10a430.8 430.8 0 001-22.2V134a410.8 410.8 0 00-1.5-23.8c-.2-2.4-.2-4.7-.2-6.8a30.7 30.7 0 012.9-12.6l.5-.9h.1v.1l-.4.9-.9 2.6c-.3 1.2-.7 2.6-.9 4.2l-.4 5.6.3 6.7.5 7.5a286.8 286.8 0 01.6 24.6l-.1 8a2348.4 2348.4 0 01-.8 14.2 112 112 0 01-1.1 10l-.4 2.8-.3 1.2z"/><path fill="#23303E" d="M87.4 89.1c.8.3 1.6.4 2.4.4.8 0 1.6-.2 2.3-.6l.8-.7-.1-.3-.3-.5c-.5-.6-1.1-1.2-1.6-2-.2-.4-.5-.8-.6-1.3-.1-.5-.1-1.1.3-1.6.2-.3.7-.4 1-.3l.7.3 1.1.8c1.3 1.2 2.3 2.5 3.4 3.9l-.1-.1 2.7 2.6 1.3 1.4.6.8.5.8c.6 1.1.9 2.4 1.1 3.6l.7 3.6c0 .1 0 .2-.2.2-.1 0-.2 0-.2-.2l-.8-3.6c-.3-1.2-.6-2.4-1.2-3.4l-.4-.8-.6-.7a8 8 0 00-1.3-1.3l-2.7-2.5a29 29 0 00-4.2-4.4l-.5-.2h-.2a1 1 0 00-.1.8c.1.3.2.7.5 1l1.5 2 .4.6c.1.2.2.6.1.9-.3.5-.7.7-1.1 1-1.6.8-3.5.6-5.1 0l-.1-.2c-.2 0-.1 0 0 0zm8.6 13.6l-.3-.9-.4-.8-1.2-1.5-.7-.6-.8-.6-1.6-1.1-1.7-1-1.7-.9-3.6-1.5-.2-.1-3.2-4.1-1.6-2.1-.8-1-.4-.5-.2-.3-.1-.1-.1-.1v-.2h.3v.3l.1-.1c0-.1 0 0 0 0l.1.1.2.3.4.5.8 1 1.6 2 3.2 4.1.1-.5c1.3.4 2.5.9 3.7 1.5l1.8.9 1.7 1a22.2 22.2 0 012.4 1.9l.7.7 1.2 1.7.4.9.2 1-.1.2-.2-.1zm-17-18h.3l.9.3 1.1.7 1 1a23.5 23.5 0 012.2 3.1c.1.1 0 .2-.1.3h-.3l-.8-.9c-.4-.6-1.1-1.3-1.7-1.9l-1-.9-.9-.8-.7-.4c.1-.2-.1-.2-.1-.2l-.1-.2.2-.1z"/><path fill="#23303E" d="M84.8 90.8c-.8-1.3-1.4-2.6-2-3.9l-.8-2.1-.1-.6c0-.2 0-.5.3-.8.4-.3.7-.2.9 0l.5.4a8 8 0 011.5 1.7l1.3 1.8a48 48 0 012.3 3.8l-.4-.2h1.4l1.4.2 1.4.3 1.3.5 1.2.7.6.4.5.5.5.5.4.5.8 1.1c.1.1 0 .2-.1.3h-.3l-.8-1.1-.4-.5-.5-.5-.5-.4-.4-.4c-.4-.2-.7-.5-1.2-.6l-1.2-.5-1.3-.3-1.3-.1h-1.3a.8.8 0 01-.4-.2l-2.3-3.7-1.3-1.8-1.4-1.6-.4-.3s-.2 0-.1-.1v.7c.1.7.4 1.4.6 2a48 48 0 001.7 4l-.1.2c.2.2.1.1 0 .1zm21.3 15.8l.4-1.6.9-4.2.6-2.8a35.3 35.3 0 012-6.4c.5-1.1 1-2.2 1.7-3.2s1.5-2 2.6-2.6l.8-.4.9-.3 1.8-.2c2.3.1 4.3.9 6 1.7a36.6 36.6 0 005.8 2.1l-.2.2-1.6-.3c-1-.2-2.5-.7-4.1-1.4-1.6-.7-3.6-1.5-5.7-1.5l-1.6.2-.8.2-.7.4c-.9.6-1.7 1.4-2.3 2.4L111 92l-1.2 3.2-1.7 5.8-1.1 4.2-.5 1.6-.2.1-.2-.3zm2.4 14.9l.4.6.9 1.5c.4.6.8 1.4 1.1 2.3l1 2.7.6 2.8.3 2.5v2.5l-.4-2.4-.5-2.4-.7-2.8-.9-2.7-.9-2.3-.9-2.3zm-.2 4.6c.5 1.4.7 2.9.8 4.4v2.2c0 .7-.1 1.5-.3 2.2a9 9 0 01-.6 2.2l-.9 2.1c-.2.3-.4.7-.7.9l-1 .7c-.7.3-1.7.4-2.5 0-.2-.1-.2-.3-.2-.5.1-.2.3-.2.5-.2a6 6 0 002.6.7h1.4l1.3-.3 1.3-.6c.4-.3.8-.5 1.1-.9.7-.7 1.2-1.5 1.6-2.3a6 6 0 01-1.4 2.6l-1.1 1c-.4.3-.9.6-1.3.7a6 6 0 01-3 .5c-1-.1-2-.3-2.9-.8l.3-.6c.5.3 1.2.2 1.8-.1l.8-.6c.2-.2.5-.5.6-.8.4-.6.6-1.2.9-1.9l.6-2.1c.3-1.4.5-2.9.5-4.3a10 10 0 00-.2-4.2zm70.1.9l-.1-1.2.1-3.1c.1-1.3.2-2.8.5-4.4l1-5 1.3-4.9 1.2-4.3 1.1-2.9.3-1.1c0-.1.1-.2.3-.2l.2.2-.3 1.2-1 3-1.1 4.3-1.1 4.9-1 4.9-.4 2.3-.3 2.1-.3 3.1-.1 1.2-.2.2-.1-.3zm12.9-25.2l.1.6-.5 9.5-.8 9.5-.4 4.7a35.5 35.5 0 01-2.3 9.2 12 12 0 01-2.6 4h-.3v-.3l1.4-1.8 1-2.1c.6-1.4 1-3 1.4-4.5.4-1.5.6-3.1.7-4.6l.3-4.7.7-9.5 1-9.4v-.6l.1-.2.2.2zM174 135l-.6-.8-.6-1-.7-1.3-1.5-3.4-1.5-4-2.2-7.7-.8-3.6.1-.1.1.1 1 3.5a110.4 110.4 0 005.5 15c.4 1 .9 1.8 1.2 2.3l.5.9c.1.1 0 .2-.1.3l-.4-.2z"/><path fill="#23303E" d="M200 89.4a6 6 0 01-5.1 0c-.4-.2-.8-.4-1.1-1-.2-.3-.1-.7.1-.9l.4-.6 1.5-2 .5-1c.1-.3 0-.7-.1-.8h-.2l-.5.2-.9.7a29 29 0 00-3.3 3.7l-2.7 2.5-1.3 1.3-.6.7-.4.8c-.6 1.1-.9 2.2-1.2 3.4l-.8 3.6-.2.2a.2.2 0 01-.2-.2l.7-3.6a11.5 11.5 0 011.6-4.4l.6-.8 1.3-1.4 2.7-2.6-.1.1a25 25 0 013.4-3.9l1.1-.8.7-.3c.3-.1.7 0 1 .3.4.5.4 1.1.3 1.6-.1.5-.3.9-.6 1.3l-1.6 2-.3.5-.1.3c.1.2.4.5.8.7.7.4 1.5.6 2.3.6.8 0 1.6-.1 2.4-.4l.2.1c-.2-.1-.2 0-.3.1zm-9 13.2l.2-1 .4-.9c.3-.6.7-1.2 1.2-1.7l.7-.7.8-.7 1.6-1.2a15 15 0 011.7-1l1.8-.9 3.7-1.5-.2.1 3.2-4.1 1.6-2 .8-1 .4-.5.2-.3.1-.1s0-.1 0 0l.1.1v-.3h.3v.2l-.1.1-.1.1-.2.3-.4.5-.8 1-1.6 2.1-3.2 4.1-.1.1-3.6 1.5-1.7.9-1.7 1-1.6 1.1-.8.6-.7.6c-.5.5-.9.9-1.2 1.5l-.4.8-.3.9-.2.1.1.2zM208.4 85l-.3.1-.7.4-.9.8-1 .9-1.7 1.9-.8.9h-.3v-.3l.6-1 1.6-2.1 1-1 1.1-.7.9-.3h.3l.1.2c.2.1.1.1.1.2z"/><path fill="#23303E" d="M202.2 90.6a68.4 68.4 0 002.3-6l.1-.5c0-.1-.1-.3 0-.2l-.1.1-.4.3c-.5.4-.9 1-1.4 1.6l-1.3 1.8a46 46 0 00-2.3 3.7l-.4.2h-1.3l-1.3.1-1.3.3-1.2.5-1.2.6-.5.4-.5.4-.5.5-.4.5-.8 1.1h-.3v-.3l.8-1.1.4-.5.5-.5.5-.5.6-.4 1.2-.7a7 7 0 011.3-.5c.4-.1.9-.3 1.4-.3l1.4-.2h1.4l-.4.2 2.3-3.8 1.3-1.8a8 8 0 011.5-1.7l.5-.4c.3-.1.6-.2.9 0 .3.3.3.6.3.8l-.1.6-.8 2.1-2 3.9-.2.1v-.4zM180.7 110.1l-2.2-5.5-2.3-5.6c-.9-2-1.8-4.2-2.9-6.2-.5-1.1-1.1-2-1.8-3a10 10 0 00-2.3-2.3c-.9-.6-1.9-.9-2.8-1-1-.1-1.9.1-2.7.2-.9.2-1.6.5-2.2.8l-1.6 1-1.2.4-.4.1-.3-.2.2-.3.4-.1 1.1-.4 1.5-1a9.2 9.2 0 015.2-1.3c1.1.1 2.2.4 3.2 1 2 1.3 3.4 3.4 4.5 5.5a69.5 69.5 0 015 12l1.9 5.6-.1.2c0 .2-.1.2-.2.1zM178.8 120.5l-.9 2.3-.9 2.3-.9 2.7-.7 2.8-.5 2.4-.4 2.4v-2.5l.3-2.5.6-2.8 1-2.7 1.1-2.3c.3-.7.7-1.2.9-1.5l.4-.6zM178.9 125.1a21.8 21.8 0 00.7 10.8c.2.7.5 1.4.9 1.9l.6.8.8.6c.6.3 1.3.3 1.8.1l.3.6c-.9.4-1.9.7-2.9.8-1 0-2-.1-3-.5l-1.3-.7-1.1-1a7.2 7.2 0 01-1.4-2.6c.4.9.9 1.7 1.6 2.3l1.1.9c.4.3.8.5 1.3.6.4.2.9.3 1.3.3h1.4c.9-.1 1.8-.3 2.6-.7.2-.1.4 0 .5.2.1.2 0 .4-.2.5a3.1 3.1 0 01-3.5-.7l-.7-.9-.9-2.1-.6-2.2-.3-2.2v-2.2l1-4.6z"/><path fill="#2E3B48" d="M127.5 87.7c-.3-.7 5-.9 4.7-.6.1 1.8 0 1.6 1.7 9.4 1.1 5.1-.3 11-.4 16.3-.7-4.9.1-10-1-14.8-1-4-3.7-6.7-5-10.3z"/><path fill="#2E3B48" d="M134.8 180.5l-.2-1-.4-2.9-1.1-10.3-.5-6.9-.3-7.7-.1-8.2V135l.1-8.5.3-8.2c.3-5.3.8-10.3.8-14.5a51 51 0 00-1.2-10.1l-.9-2.7-.4-.9V90h.1l.5.9c.3.6.8 1.5 1.2 2.7.8 2.4 1.6 5.9 1.6 10.2 0 2.1 0 4.5-.2 6.9l-.6 7.7c-.4 5.3-.7 11-.8 16.7v8.5l.2 8.2.4 7.7.4 6.9.8 10.3.2 2.9.1.9z"/><path fill="#23303E" d="M119.4 119.9a25.8 25.8 0 00-.3 7.8l.5 7.9a26.7 26.7 0 01-.5 8l-.3 1.9c0 .6.2 1.1.6 1.7.3.6.5 1.3.5 2s-.1 1.4-.3 2c-.4 1.3-.9 2.5-1.2 3.8a17 17 0 00-.7 3.8l.1 2 .1 2-.1 4-.6 7.9c-.2 2.6-.5 5.2-.4 7.8l-.7-.3c1.4-1.1 2.7-2.2 4.3-3.1l1.2-.6a5 5 0 011.3-.4c.9-.2 1.8-.4 2.7-.4l1.4.1 1.3.4 2.4 1a20.2 20.2 0 005 1.2h-.1l-2.6-.1c-.9-.1-1.7-.3-2.6-.6l-2.4-.9-1.2-.3-1.2-.1c-.8 0-1.6.1-2.4.4l-1.2.4-1.1.6-4.2 3c-.2.1-.5.1-.6-.1l-.1-.3c0-5.3 1-10.5 1.4-15.8l.2-3.9-.1-4c0-1.3.3-2.7.7-3.9.3-1.3.8-2.5 1.2-3.8.3-1.2.4-2.6-.2-3.6l-.5-.9-.2-1.1c0-.7.2-1.4.3-2 .2-1.3.5-2.6.5-3.9v-3.9a51 51 0 00-.2-3.9l-.2-4 .1-4c-.3-1.2 0-2.5.4-3.8-.1 0-.1 0 0 0zM152.6 178.8h.8l2.1.1c.9 0 1.9.1 2.9-.1l1.6-.3 1.7-.4 1.7-.5 1.7-.3c1.1-.1 2.2-.1 3.1.1l2.1.7.7.4v.1l-.8-.1a26 26 0 00-5-.5l-1.6.1-1.7.3-3.3.9a11 11 0 01-3.1.1c-1.8-.1-2.9-.6-2.9-.6-.1 0-.1 0 0 0-.1 0 0 0 0 0z"/></svg>
